<svg width="594" height="218" viewBox="0 0 594 218" fill="none" xmlns="http://www.w3.org/2000/svg">
<rect x="1" y="1" width="290" height="102" rx="51" stroke="#2FDDAD" stroke-width="2"/>
<path d="M62.78 72V34.92H50.3V30H81.2V34.92H68.72V72H62.78ZM93.0913 72.72C90.7713 72.72 88.7513 72.24 87.0312 71.28C85.3113 70.28 83.9713 68.8 83.0113 66.84C82.0913 64.88 81.6313 62.4 81.6313 59.4V42.24H87.6313V58.8C87.6313 61.68 88.2313 63.88 89.4313 65.4C90.6713 66.88 92.4713 67.62 94.8313 67.62C96.4713 67.62 97.9113 67.24 99.1513 66.48C100.391 65.68 101.371 64.54 102.091 63.06C102.851 61.54 103.231 59.74 103.231 57.66V42.24H109.231V72H104.011L103.471 67.32H103.231C102.231 68.92 100.891 70.22 99.2113 71.22C97.5313 72.22 95.4913 72.72 93.0913 72.72ZM114.041 72V42.24H119.261L119.801 48.72H120.041C121.001 46.6 121.961 45.04 122.921 44.04C123.921 43 125.061 42.32 126.341 42C127.661 41.68 129.221 41.52 131.021 41.52V47.82H129.461C127.901 47.82 126.521 48.02 125.321 48.42C124.161 48.78 123.181 49.34 122.381 50.1C121.621 50.86 121.041 51.84 120.641 53.04C120.241 54.2 120.041 55.58 120.041 57.18V72H114.041ZM133.728 72V42.24H138.948L139.488 46.98H139.728C140.728 45.3 142.068 43.98 143.748 43.02C145.428 42.02 147.468 41.52 149.868 41.52C152.188 41.52 154.208 42.02 155.928 43.02C157.648 43.98 158.968 45.44 159.888 47.4C160.848 49.36 161.328 51.84 161.328 54.84V72H155.328V55.44C155.328 52.56 154.708 50.38 153.468 48.9C152.268 47.38 150.468 46.62 148.068 46.62C146.468 46.62 145.028 47.02 143.748 47.82C142.508 48.58 141.528 49.7 140.808 51.18C140.088 52.66 139.728 54.46 139.728 56.58V72H133.728ZM166.858 72V42.24H172.858V72H166.858ZM169.858 36.96C168.698 36.96 167.738 36.6 166.978 35.88C166.218 35.16 165.838 34.24 165.838 33.12C165.838 32.04 166.218 31.14 166.978 30.42C167.738 29.66 168.698 29.28 169.858 29.28C170.978 29.28 171.918 29.66 172.678 30.42C173.438 31.14 173.818 32.04 173.818 33.12C173.818 34.2 173.438 35.12 172.678 35.88C171.918 36.6 170.978 36.96 169.858 36.96ZM178.611 72V42.24H183.831L184.371 46.98H184.611C185.611 45.3 186.951 43.98 188.631 43.02C190.311 42.02 192.351 41.52 194.751 41.52C197.071 41.52 199.091 42.02 200.811 43.02C202.531 43.98 203.851 45.44 204.771 47.4C205.731 49.36 206.211 51.84 206.211 54.84V72H200.211V55.44C200.211 52.56 199.591 50.38 198.351 48.9C197.151 47.38 195.351 46.62 192.951 46.62C191.351 46.62 189.911 47.02 188.631 47.82C187.391 48.58 186.411 49.7 185.691 51.18C184.971 52.66 184.611 54.46 184.611 56.58V72H178.611ZM224.4 84.72C221.68 84.72 219.26 84.36 217.14 83.64C215.06 82.96 213.44 81.94 212.28 80.58C211.12 79.26 210.54 77.66 210.54 75.78C210.54 74.74 210.78 73.7 211.26 72.66C211.74 71.66 212.52 70.7 213.6 69.78C214.68 68.86 216.14 68.02 217.98 67.26L221.22 69.9C219.26 70.7 217.92 71.56 217.2 72.48C216.52 73.4 216.18 74.42 216.18 75.54C216.18 76.54 216.5 77.38 217.14 78.06C217.78 78.78 218.7 79.32 219.9 79.68C221.14 80.08 222.64 80.28 224.4 80.28C226.16 80.28 227.6 80.06 228.72 79.62C229.84 79.18 230.66 78.58 231.18 77.82C231.74 77.06 232.02 76.2 232.02 75.24C232.02 74 231.54 73.04 230.58 72.36C229.66 71.68 227.88 71.26 225.24 71.1C222.96 70.94 221.04 70.72 219.48 70.44C217.92 70.12 216.58 69.78 215.46 69.42C214.38 69.02 213.46 68.58 212.7 68.1C211.98 67.58 211.36 67.06 210.84 66.54V65.16L216.84 59.1L220.32 60.66L215.16 66.72L216.12 64.2C216.52 64.44 216.92 64.66 217.32 64.86C217.76 65.06 218.34 65.26 219.06 65.46C219.78 65.66 220.74 65.86 221.94 66.06C223.14 66.26 224.66 66.44 226.5 66.6C229.18 66.8 231.34 67.24 232.98 67.92C234.62 68.6 235.82 69.54 236.58 70.74C237.34 71.9 237.72 73.34 237.72 75.06C237.72 76.58 237.24 78.08 236.28 79.56C235.36 81.04 233.92 82.26 231.96 83.22C230 84.22 227.48 84.72 224.4 84.72ZM224.4 62.82C221.88 62.82 219.72 62.34 217.92 61.38C216.16 60.42 214.8 59.14 213.84 57.54C212.92 55.94 212.46 54.14 212.46 52.14C212.46 50.18 212.92 48.4 213.84 46.8C214.8 45.2 216.16 43.92 217.92 42.96C219.72 42 221.88 41.52 224.4 41.52C226.92 41.52 229.06 42 230.82 42.96C232.62 43.92 233.98 45.2 234.9 46.8C235.82 48.4 236.28 50.18 236.28 52.14C236.28 54.14 235.82 55.94 234.9 57.54C233.98 59.14 232.62 60.42 230.82 61.38C229.06 62.34 226.92 62.82 224.4 62.82ZM224.4 58.32C226.32 58.32 227.86 57.8 229.02 56.76C230.22 55.72 230.82 54.2 230.82 52.2C230.82 50.12 230.22 48.58 229.02 47.58C227.86 46.54 226.32 46.02 224.4 46.02C222.44 46.02 220.86 46.54 219.66 47.58C218.5 48.58 217.92 50.12 217.92 52.2C217.92 54.2 218.5 55.72 219.66 56.76C220.86 57.8 222.44 58.32 224.4 58.32ZM229.2 46.44L227.76 42.24H240.18V45.48L229.2 46.44Z" fill="white"/>
<rect x="313" y="115" width="280" height="102" rx="51" stroke="#2FDDAD" stroke-width="2"/>
<path d="M364.7 186V144H370.7V186H364.7ZM375.826 186V156.24H381.106L381.646 161.16H381.886C382.846 159.28 384.146 157.88 385.786 156.96C387.466 156 389.306 155.52 391.306 155.52C392.866 155.52 394.266 155.74 395.506 156.18C396.786 156.62 397.886 157.28 398.806 158.16C399.726 159.04 400.486 160.16 401.086 161.52H401.326C402.406 159.56 403.786 158.08 405.466 157.08C407.146 156.04 409.226 155.52 411.706 155.52C413.946 155.52 415.886 156.02 417.526 157.02C419.206 157.98 420.526 159.44 421.486 161.4C422.446 163.36 422.926 165.84 422.926 168.84V186H416.986V169.44C416.986 166.56 416.406 164.38 415.246 162.9C414.086 161.38 412.326 160.62 409.966 160.62C408.446 160.62 407.126 160.94 406.006 161.58C404.886 162.18 403.986 163.14 403.306 164.46C402.666 165.74 402.346 167.4 402.346 169.44V186H396.406V169.44C396.406 166.56 395.826 164.38 394.666 162.9C393.506 161.38 391.806 160.62 389.566 160.62C388.206 160.62 386.946 161.02 385.786 161.82C384.626 162.58 383.666 163.7 382.906 165.18C382.186 166.66 381.826 168.46 381.826 170.58V186H375.826ZM427.747 198V156.24H432.787L433.207 161.82H433.447C434.327 160.42 435.327 159.26 436.447 158.34C437.607 157.42 438.907 156.72 440.347 156.24C441.787 155.76 443.327 155.52 444.967 155.52C447.807 155.52 450.267 156.2 452.347 157.56C454.467 158.92 456.087 160.78 457.207 163.14C458.367 165.5 458.947 168.16 458.947 171.12C458.947 174.08 458.367 176.74 457.207 179.1C456.087 181.46 454.447 183.32 452.287 184.68C450.127 186.04 447.507 186.72 444.427 186.72C441.787 186.72 439.587 186.18 437.827 185.1C436.067 184.02 434.707 182.8 433.747 181.44V198H427.747ZM443.347 181.62C445.307 181.62 446.987 181.18 448.387 180.3C449.827 179.42 450.927 178.2 451.687 176.64C452.487 175.08 452.887 173.24 452.887 171.12C452.887 169.04 452.487 167.22 451.687 165.66C450.927 164.06 449.827 162.82 448.387 161.94C446.987 161.06 445.307 160.62 443.347 160.62C441.427 160.62 439.747 161.06 438.307 161.94C436.867 162.82 435.747 164.06 434.947 165.66C434.187 167.22 433.807 169.04 433.807 171.12C433.807 173.24 434.187 175.08 434.947 176.64C435.747 178.2 436.867 179.42 438.307 180.3C439.747 181.18 441.427 181.62 443.347 181.62ZM472.798 186.72C470.438 186.72 468.458 186.32 466.858 185.52C465.298 184.68 464.138 183.56 463.378 182.16C462.618 180.76 462.238 179.24 462.238 177.6C462.238 175.64 462.738 173.96 463.738 172.56C464.778 171.16 466.258 170.08 468.178 169.32C470.138 168.56 472.478 168.18 475.198 168.18H483.058C483.058 166.38 482.778 164.9 482.218 163.74C481.698 162.54 480.918 161.66 479.878 161.1C478.838 160.5 477.578 160.2 476.098 160.2C474.258 160.2 472.658 160.66 471.298 161.58C469.978 162.46 469.178 163.86 468.898 165.78H462.898C463.138 163.58 463.838 161.74 464.998 160.26C466.198 158.74 467.758 157.58 469.678 156.78C471.598 155.94 473.738 155.52 476.098 155.52C478.938 155.52 481.318 156.02 483.238 157.02C485.198 158.02 486.658 159.44 487.618 161.28C488.578 163.08 489.058 165.22 489.058 167.7V186H484.078L483.478 181.02H483.238C482.678 181.98 482.018 182.82 481.258 183.54C480.498 184.22 479.678 184.8 478.798 185.28C477.958 185.76 477.018 186.12 475.978 186.36C474.978 186.6 473.918 186.72 472.798 186.72ZM474.238 181.86C475.638 181.86 476.858 181.6 477.898 181.08C478.978 180.56 479.878 179.86 480.598 178.98C481.358 178.06 481.918 177.04 482.278 175.92C482.678 174.8 482.898 173.64 482.938 172.44H475.798C474.038 172.44 472.618 172.64 471.538 173.04C470.498 173.44 469.738 174 469.257 174.72C468.778 175.44 468.538 176.28 468.538 177.24C468.538 178.16 468.758 178.98 469.198 179.7C469.678 180.38 470.338 180.92 471.178 181.32C472.058 181.68 473.078 181.86 474.238 181.86ZM507.821 186.72C504.661 186.72 501.941 186.06 499.661 184.74C497.421 183.42 495.681 181.6 494.441 179.28C493.241 176.92 492.641 174.2 492.641 171.12C492.641 168.04 493.281 165.34 494.561 163.02C495.881 160.66 497.681 158.82 499.961 157.5C502.281 156.18 504.901 155.52 507.821 155.52C511.461 155.52 514.521 156.48 517.001 158.4C519.481 160.28 521.041 162.82 521.681 166.02H515.441C515.081 164.18 514.181 162.78 512.741 161.82C511.341 160.82 509.681 160.32 507.761 160.32C506.161 160.32 504.681 160.72 503.321 161.52C501.961 162.32 500.861 163.52 500.021 165.12C499.181 166.72 498.761 168.72 498.761 171.12C498.761 172.84 498.981 174.36 499.421 175.68C499.901 176.96 500.541 178.06 501.341 178.98C502.141 179.86 503.081 180.54 504.161 181.02C505.281 181.46 506.481 181.68 507.761 181.68C509.041 181.68 510.201 181.48 511.241 181.08C512.321 180.64 513.221 180 513.941 179.16C514.701 178.32 515.201 177.34 515.441 176.22H521.681C521.041 179.38 519.481 181.92 517.001 183.84C514.521 185.76 511.461 186.72 507.821 186.72ZM537.951 186C536.071 186 534.411 185.7 532.971 185.1C531.571 184.5 530.491 183.5 529.731 182.1C529.011 180.7 528.651 178.8 528.651 176.4V160.74H523.491V156.24H528.651L529.311 148.8H534.651V156.24H543.111V160.74H534.651V176.46C534.651 178.34 534.991 179.6 535.671 180.24C536.391 180.88 537.631 181.2 539.391 181.2H542.751V186H537.951Z" fill="white"/>
<path fill-rule="evenodd" clip-rule="evenodd" d="M354 0C325.281 0 302 23.2812 302 52C302 64.596 300.384 78.1061 291.611 87.1449L273.459 105.848C267.477 112.012 258.589 114 250 114H158C129.281 114 106 137.281 106 166C106 194.719 129.281 218 158 218H250C278.719 218 302 194.719 302 166C302 154.193 303.394 141.656 311.189 132.788L328.185 113.45C334.486 106.281 344.456 104 354 104H520C548.719 104 572 80.7188 572 52C572 23.2812 548.719 0 520 0H354ZM357.7 30C356.043 30 354.7 31.3431 354.7 33V69C354.7 70.6569 356.043 72 357.7 72C359.357 72 360.7 70.6569 360.7 69V33C360.7 31.3431 359.357 30 357.7 30ZM368.584 42.24C367.061 42.24 365.826 43.4749 365.826 44.9982V69C365.826 70.6569 367.169 72 368.826 72C370.483 72 371.826 70.6569 371.826 69V56.58C371.826 54.46 372.186 52.66 372.906 51.18C373.626 49.7 374.606 48.58 375.846 47.82C377.126 47.02 378.566 46.62 380.166 46.62C382.566 46.62 384.366 47.38 385.566 48.9C386.806 50.38 387.426 52.56 387.426 55.44V69C387.426 70.6569 388.769 72 390.426 72C392.083 72 393.426 70.6569 393.426 69V54.84C393.426 51.84 392.946 49.36 391.986 47.4C391.066 45.44 389.746 43.98 388.026 43.02C386.306 42.02 384.286 41.52 381.966 41.52C379.566 41.52 377.526 42.02 375.846 43.02C374.193 43.9647 372.869 45.258 371.874 46.8999C371.844 46.9494 371.79 46.98 371.732 46.98C371.649 46.98 371.579 46.9173 371.569 46.8343L371.316 44.61C371.162 43.2598 370.019 42.24 368.66 42.24H368.584ZM403.215 71.46C405.135 72.3 407.315 72.72 409.755 72.72C412.195 72.72 414.295 72.32 416.055 71.52C417.815 70.68 419.175 69.54 420.135 68.1C421.135 66.66 421.615 65.02 421.575 63.18C421.575 61.26 421.035 59.76 419.955 58.68C418.915 57.56 417.535 56.66 415.815 55.98C414.135 55.3 412.335 54.68 410.415 54.12C408.895 53.64 407.615 53.24 406.575 52.92C405.575 52.56 404.835 52.14 404.355 51.66C403.875 51.18 403.635 50.58 403.635 49.86C403.635 48.78 404.075 47.88 404.955 47.16C405.875 46.44 407.175 46.08 408.855 46.08C410.575 46.08 411.935 46.48 412.935 47.28C413.314 47.5716 413.635 47.9083 413.897 48.2901C414.727 49.4992 415.847 50.7 417.313 50.7C419.037 50.7 420.422 49.1569 419.748 47.5708C419.119 46.0917 418.168 44.8747 416.895 43.92C414.855 42.32 412.195 41.52 408.915 41.52C406.595 41.52 404.595 41.92 402.915 42.72C401.235 43.48 399.935 44.52 399.015 45.84C398.135 47.16 397.695 48.64 397.695 50.28C397.695 51.72 398.015 52.94 398.655 53.94C399.295 54.9 400.135 55.68 401.175 56.28C402.215 56.88 403.375 57.4 404.655 57.84C405.935 58.24 407.195 58.62 408.435 58.98C409.915 59.38 411.175 59.8 412.215 60.24C413.295 60.64 414.115 61.14 414.675 61.74C415.275 62.3 415.575 63.04 415.575 63.96C415.575 64.72 415.355 65.42 414.915 66.06C414.515 66.7 413.875 67.22 412.995 67.62C412.155 67.98 411.075 68.16 409.755 68.16C408.275 68.16 407.015 67.9 405.975 67.38C404.975 66.82 404.195 66.12 403.635 65.28C403.561 65.1607 403.49 65.0406 403.422 64.9197C402.708 63.6536 401.481 62.64 400.027 62.64C398.115 62.64 396.583 64.3538 397.39 66.0872C397.702 66.7575 398.084 67.3884 398.535 67.98C399.735 69.46 401.295 70.62 403.215 71.46ZM429.201 42.24C427.544 42.24 426.201 43.5831 426.201 45.24V69C426.201 70.6569 427.544 72 429.201 72C430.858 72 432.201 70.6569 432.201 69V45.24C432.201 43.5831 430.858 42.24 429.201 42.24ZM426.321 35.88C427.081 36.6 428.041 36.96 429.201 36.96C430.321 36.96 431.261 36.6 432.021 35.88C432.781 35.12 433.161 34.2 433.161 33.12C433.161 32.04 432.781 31.14 432.021 30.42C431.261 29.66 430.321 29.28 429.201 29.28C428.041 29.28 427.081 29.66 426.321 30.42C425.561 31.14 425.181 32.04 425.181 33.12C425.181 34.24 425.561 35.16 426.321 35.88ZM444.375 83.64C446.495 84.36 448.915 84.72 451.635 84.72C454.715 84.72 457.235 84.22 459.195 83.22C461.155 82.26 462.595 81.04 463.515 79.56C464.475 78.08 464.955 76.58 464.955 75.06C464.955 73.34 464.575 71.9 463.815 70.74C463.055 69.54 461.855 68.6 460.215 67.92C458.575 67.24 456.415 66.8 453.735 66.6C451.895 66.44 450.375 66.26 449.175 66.06C447.975 65.86 447.015 65.66 446.295 65.46C445.575 65.26 444.995 65.06 444.555 64.86C444.476 64.8208 444.398 64.7808 444.319 64.7401C444.234 64.6959 444.213 64.5843 444.275 64.5114L445.617 62.9355C446.114 62.3521 446.921 62.1552 447.662 62.3485C448.869 62.6628 450.193 62.82 451.635 62.82C454.155 62.82 456.295 62.34 458.055 61.38C459.855 60.42 461.215 59.14 462.135 57.54C463.055 55.94 463.515 54.14 463.515 52.14C463.515 50.18 463.055 48.4 462.135 46.8C461.922 46.4303 462.149 45.9404 462.574 45.9032L465.871 45.6149C466.745 45.5386 467.415 44.8074 467.415 43.9307C467.415 42.9969 466.658 42.24 465.724 42.24H457.981C456.941 42.24 455.914 42.0389 454.896 41.8297C453.89 41.6232 452.803 41.52 451.635 41.52C449.115 41.52 446.955 42 445.155 42.96C443.395 43.92 442.035 45.2 441.075 46.8C440.155 48.4 439.695 50.18 439.695 52.14C439.695 54.14 440.155 55.94 441.075 57.54C441.98 59.0491 442.114 61.0801 440.876 62.3307L438.558 64.6714C438.249 64.9844 438.075 65.4071 438.075 65.8476C438.075 66.2909 438.248 66.7197 438.578 67.0154C438.982 67.3769 439.434 67.7385 439.935 68.1C440.176 68.2523 440.433 68.4006 440.707 68.5449C441.164 68.7865 441.229 69.4443 440.835 69.78C439.755 70.7 438.975 71.66 438.495 72.66C438.015 73.7 437.775 74.74 437.775 75.78C437.775 77.66 438.355 79.26 439.515 80.58C440.675 81.94 442.295 82.96 444.375 83.64ZM450.427 70.9309C448.262 70.7224 445.775 70.7672 444.435 72.48C443.755 73.4 443.415 74.42 443.415 75.54C443.415 76.54 443.735 77.38 444.375 78.06C445.015 78.78 445.935 79.32 447.135 79.68C448.375 80.08 449.875 80.28 451.635 80.28C453.395 80.28 454.835 80.06 455.955 79.62C457.075 79.18 457.895 78.58 458.415 77.82C458.975 77.06 459.255 76.2 459.255 75.24C459.255 74 458.775 73.04 457.815 72.36C456.895 71.68 455.115 71.26 452.475 71.1C451.756 71.0496 451.074 70.9932 450.427 70.9309ZM456.255 56.76C455.095 57.8 453.555 58.32 451.635 58.32C449.675 58.32 448.095 57.8 446.895 56.76C445.735 55.72 445.155 54.2 445.155 52.2C445.155 50.12 445.735 48.58 446.895 47.58C448.095 46.54 449.675 46.02 451.635 46.02C453.555 46.02 455.095 46.54 456.255 47.58C457.455 48.58 458.055 50.12 458.055 52.2C458.055 54.2 457.455 55.72 456.255 56.76ZM474.623 30C472.983 30 471.653 31.3297 471.653 32.97V69C471.653 70.6569 472.996 72 474.653 72C476.31 72 477.653 70.6569 477.653 69V56.58C477.653 54.46 478.013 52.66 478.733 51.18C479.493 49.7 480.513 48.58 481.793 47.82C483.113 47.02 484.593 46.62 486.233 46.62C488.593 46.62 490.353 47.38 491.513 48.9C492.713 50.38 493.313 52.56 493.313 55.44V69.03C493.313 70.6703 494.643 72 496.283 72C497.923 72 499.253 70.6703 499.253 69.03V54.84C499.253 51.84 498.793 49.36 497.873 47.4C496.953 45.44 495.633 43.98 493.913 43.02C492.193 42.02 490.173 41.52 487.853 41.52C485.773 41.52 483.873 42 482.153 42.96C480.456 43.9075 479.031 45.3031 477.879 47.1468C477.85 47.1921 477.801 47.22 477.747 47.22C477.662 47.22 477.593 47.151 477.593 47.066V32.97C477.593 31.3297 476.263 30 474.623 30ZM511.135 71.1C512.575 71.7 514.235 72 516.115 72H518.515C519.841 72 520.915 70.9255 520.915 69.6C520.915 68.2745 519.841 67.2 518.515 67.2H517.555C515.795 67.2 514.555 66.88 513.835 66.24C513.155 65.6 512.815 64.34 512.815 62.46V50.97C512.815 48.6338 514.709 46.74 517.045 46.74H519.025C520.268 46.74 521.275 45.7326 521.275 44.49C521.275 43.2474 520.268 42.24 519.025 42.24H516.535C514.481 42.24 512.815 40.5745 512.815 38.52V37.5882C512.815 36.0483 511.567 34.8 510.027 34.8C508.583 34.8 507.378 35.9031 507.25 37.3418L507.033 39.7838C506.91 41.1741 505.745 42.24 504.35 42.24H503.905C502.663 42.24 501.655 43.2474 501.655 44.49C501.655 45.7326 502.663 46.74 503.905 46.74H504.235C505.66 46.74 506.815 47.8951 506.815 49.32V62.4C506.815 64.8 507.175 66.7 507.895 68.1C508.655 69.5 509.735 70.5 511.135 71.1ZM161.7 186C160.043 186 158.7 184.657 158.7 183V147C158.7 145.343 160.043 144 161.7 144C163.357 144 164.7 145.343 164.7 147V183C164.7 184.657 163.357 186 161.7 186ZM172.826 186C171.169 186 169.826 184.657 169.826 183V158.998C169.826 157.475 171.061 156.24 172.584 156.24H172.66C174.019 156.24 175.162 157.26 175.316 158.61L175.569 160.834C175.579 160.917 175.649 160.98 175.732 160.98C175.79 160.98 175.844 160.949 175.874 160.9C176.869 159.258 178.193 157.965 179.846 157.02C181.526 156.02 183.566 155.52 185.966 155.52C188.286 155.52 190.306 156.02 192.026 157.02C193.746 157.98 195.066 159.44 195.986 161.4C196.946 163.36 197.426 165.84 197.426 168.84V183C197.426 184.657 196.083 186 194.426 186C192.769 186 191.426 184.657 191.426 183V169.44C191.426 166.56 190.806 164.38 189.566 162.9C188.366 161.38 186.566 160.62 184.166 160.62C182.566 160.62 181.126 161.02 179.846 161.82C178.606 162.58 177.626 163.7 176.906 165.18C176.186 166.66 175.826 168.46 175.826 170.58V183C175.826 184.657 174.483 186 172.826 186ZM214.295 186C212.415 186 210.755 185.7 209.315 185.1C207.915 184.5 206.835 183.5 206.075 182.1C205.355 180.7 204.995 178.8 204.995 176.4V163.32C204.995 161.895 203.84 160.74 202.415 160.74H202.085C200.843 160.74 199.835 159.733 199.835 158.49C199.835 157.247 200.843 156.24 202.085 156.24H202.529C203.925 156.24 205.09 155.174 205.213 153.784L205.43 151.342C205.557 149.903 206.763 148.8 208.207 148.8C209.747 148.8 210.995 150.048 210.995 151.588V152.52C210.995 154.574 212.661 156.24 214.715 156.24H217.205C218.448 156.24 219.455 157.247 219.455 158.49C219.455 159.733 218.448 160.74 217.205 160.74H215.225C212.889 160.74 210.995 162.634 210.995 164.97V176.46C210.995 178.34 211.335 179.6 212.015 180.24C212.735 180.88 213.975 181.2 215.735 181.2H216.695C218.021 181.2 219.095 182.275 219.095 183.6C219.095 184.925 218.021 186 216.695 186H214.295ZM235.37 186.72C232.57 186.72 230.03 186.08 227.75 184.8C225.51 183.48 223.73 181.66 222.41 179.34C221.09 176.98 220.43 174.24 220.43 171.12C220.43 168 221.09 165.28 222.41 162.96C223.77 160.6 225.57 158.78 227.81 157.5C230.09 156.18 232.65 155.52 235.49 155.52C238.33 155.52 240.87 156.18 243.11 157.5C245.39 158.78 247.17 160.6 248.45 162.96C249.77 165.28 250.43 168 250.43 171.12C250.43 174.24 249.77 176.98 248.45 179.34C247.13 181.66 245.33 183.48 243.05 184.8C240.77 186.08 238.21 186.72 235.37 186.72ZM235.37 181.92C236.97 181.92 238.43 181.52 239.75 180.72C241.11 179.92 242.21 178.74 243.05 177.18C243.89 175.58 244.31 173.56 244.31 171.12C244.31 168.68 243.89 166.66 243.05 165.06C242.25 163.46 241.17 162.28 239.81 161.52C238.49 160.72 237.05 160.32 235.49 160.32C233.93 160.32 232.47 160.72 231.11 161.52C229.75 162.28 228.65 163.46 227.81 165.06C226.97 166.66 226.55 168.68 226.55 171.12C226.55 173.56 226.97 175.58 227.81 177.18C228.65 178.74 229.73 179.92 231.05 180.72C232.41 181.52 233.85 181.92 235.37 181.92Z" fill="#2FDDAD"/>
</svg>
