<svg width="196" height="30" viewBox="0 0 196 30" fill="none" xmlns="http://www.w3.org/2000/svg">
<g clip-path="url(#clip0_2226_5010)">
<path d="M28.4507 9.54361C28.4507 8.39354 28.6085 7.30138 28.9323 6.28369C29.0901 5.69625 29.3143 5.19154 29.5967 4.77785C29.879 4.36415 30.1697 3.98355 30.4686 3.62777C31.2991 2.65973 32.3039 1.91508 33.4582 1.37727C34.6125 0.839472 35.8582 0.574707 37.1786 0.574707H47.8829C48.1487 0.574707 48.2899 0.707089 48.2899 0.980128V5.40666C48.2899 5.67143 48.157 5.81208 47.8829 5.81208H37.4194C36.3648 6.0272 35.5841 6.57328 35.0776 7.44204C34.5627 8.3108 34.3136 9.4526 34.3136 10.8426V21.0278C34.3966 21.971 34.6956 22.7156 35.2188 23.2617C35.7419 23.8161 36.481 24.1305 37.4194 24.205H47.8829C48.1487 24.205 48.2899 24.3373 48.2899 24.6104V29.0369C48.2899 29.3017 48.157 29.4423 47.8829 29.4423H37.544C36.7385 29.4423 36.0243 29.3679 35.4015 29.2189C34.7786 29.07 34.2388 28.9045 33.7821 28.7142C32.7607 28.3419 31.8472 27.7296 31.0333 26.8857C30.2278 26.0418 29.5635 25.0241 29.0569 23.8492C28.924 23.5513 28.7912 23.1624 28.65 22.6577C28.5171 22.1613 28.4507 21.549 28.4507 20.8292V9.56016V9.54361Z" fill="url(#paint0_linear_2226_5010)"/>
<path d="M51.6035 0.971827C51.6035 0.707062 51.7364 0.566406 52.0104 0.566406H57.0595C57.3252 0.566406 57.4664 0.698789 57.4664 0.971827V11.9182C57.4664 12.183 57.5993 12.3236 57.8733 12.3236H67.4483C67.714 12.3236 67.8552 12.1912 67.8552 11.9182V0.971827C67.8552 0.707062 67.9881 0.566406 68.2621 0.566406H73.3112C73.5769 0.566406 73.7181 0.698789 73.7181 0.971827V29.0286C73.7181 29.2934 73.5852 29.434 73.3112 29.434H68.2621C67.9964 29.434 67.8552 29.3016 67.8552 29.0286V17.9581C67.8552 17.6934 67.7223 17.5527 67.4483 17.5527H57.8733C57.6076 17.5527 57.4664 17.6851 57.4664 17.9581V29.0286C57.4664 29.2934 57.3335 29.434 57.0595 29.434H52.0104C51.7447 29.434 51.6035 29.3016 51.6035 29.0286V0.971827Z" fill="url(#paint1_linear_2226_5010)"/>
<path d="M88.3999 6.73046C88.3999 4.90193 88.8982 3.4209 89.8947 2.2791C90.8912 1.13731 92.3279 0.566406 94.2213 0.566406H107.915C108.264 0.566406 108.438 0.698789 108.438 0.971827V5.39836C108.438 5.66313 108.306 5.80378 108.031 5.80378H94.6614C94.3957 5.80378 94.2545 5.95271 94.2545 6.25057V11.7279C94.2545 11.9927 94.3874 12.1333 94.6614 12.1333H107.06C107.326 12.1333 107.467 12.2657 107.467 12.5387V17.1638C107.467 17.4286 107.334 17.5693 107.06 17.5693H94.6614C94.3957 17.5693 94.2545 17.7016 94.2545 17.9747V23.8078C94.2545 24.0725 94.3874 24.2132 94.6614 24.2132H108.031C108.297 24.2132 108.438 24.3456 108.438 24.6186V29.0452C108.438 29.3099 108.306 29.4506 108.031 29.4506H92.3943C91.9127 29.4506 91.4227 29.3265 90.941 29.07C90.4594 28.8135 90.0276 28.4825 89.6456 28.0854C89.2719 27.68 88.9646 27.2332 88.7404 26.7367C88.5079 26.2403 88.3999 25.7356 88.3999 25.2309V6.73046Z" fill="url(#paint2_linear_2226_5010)"/>
<path d="M123.992 23.4685C124.076 23.7664 124.142 23.9567 124.192 24.056C124.242 24.147 124.341 24.1966 124.474 24.1966C124.607 24.1966 124.756 23.9567 124.914 23.4685L131.873 0.971827C131.956 0.707062 132.131 0.566406 132.396 0.566406H137.645C137.861 0.566406 137.969 0.649145 137.969 0.806349L129.764 27.0511C129.44 28.1019 128.851 28.7556 127.987 29.0203C127.123 29.2851 125.952 29.4257 124.474 29.4257C122.996 29.4257 121.734 29.2934 120.862 29.0203C119.99 28.7556 119.384 28.0937 119.068 27.0511L110.946 0.806349C110.946 0.649145 111.038 0.566406 111.229 0.566406H116.519C116.784 0.566406 116.967 0.690515 117.042 0.930458L123.992 23.4685Z" fill="url(#paint3_linear_2226_5010)"/>
<path d="M142.213 2.94101C142.536 1.89023 143.126 1.23659 143.99 0.971827C144.853 0.707062 146.024 0.566406 147.502 0.566406C148.981 0.566406 150.243 0.698789 151.115 0.971827C151.987 1.24487 152.593 1.8985 152.909 2.94101L161.03 29.1858C161.03 29.343 160.939 29.4257 160.748 29.4257H155.458C155.192 29.4257 155.01 29.3016 154.935 29.0617L152.792 22.0951C152.709 21.8303 152.535 21.6897 152.269 21.6897H142.777C142.511 21.6897 142.329 21.8386 142.254 22.1364L140.112 29.0203C140.028 29.2851 139.854 29.4257 139.588 29.4257H134.34C134.124 29.4257 134.016 29.343 134.016 29.1858L142.221 2.94101H142.213ZM147.992 6.52361C147.909 6.22575 147.843 6.03545 147.793 5.94444C147.743 5.85342 147.644 5.80378 147.511 5.80378C147.378 5.80378 147.228 6.04372 147.062 6.53188L144.239 15.7076C144.239 15.7655 144.239 15.7986 144.222 15.8317C144.206 15.8566 144.206 15.8897 144.206 15.9145C144.206 16.1048 144.314 16.1958 144.529 16.1958H150.55C150.766 16.1958 150.874 16.1048 150.874 15.9145C150.874 15.8897 150.874 15.8648 150.857 15.8317C150.841 15.8069 150.841 15.7655 150.841 15.7076L148.009 6.53188L147.992 6.52361Z" fill="url(#paint4_linear_2226_5010)"/>
<path d="M18.9091 2.94101C18.5852 1.8985 17.9873 1.23659 17.1153 0.971827C16.2434 0.707062 15.0309 0.566406 13.5029 0.566406C11.9749 0.566406 10.8538 0.698789 9.99017 0.971827C9.12652 1.23659 8.5369 1.8985 8.21303 2.94101L0 29.1858C0 29.343 0.107957 29.4257 0.323871 29.4257H5.57224C5.83798 29.4257 6.02068 29.2934 6.09542 29.0203L13.0462 6.52361C13.204 6.04372 13.3534 5.79551 13.4863 5.79551C13.6192 5.79551 13.7188 5.84515 13.7687 5.93616C13.8185 6.02718 13.8932 6.22575 13.968 6.52361L20.9187 29.0617C21.0018 29.3016 21.1762 29.4257 21.4419 29.4257H26.7318C26.9228 29.4257 27.0142 29.343 27.0142 29.1858L18.9091 2.94101Z" fill="url(#paint5_linear_2226_5010)"/>
<path d="M164.145 24.3952C164.145 24.1304 164.277 23.9897 164.551 23.9897H169.194C169.459 23.9897 169.601 24.1221 169.601 24.3952V29.0203C169.601 29.285 169.468 29.4257 169.194 29.4257H164.551C164.286 29.4257 164.145 29.2933 164.145 29.0203V24.3952Z" fill="url(#paint6_linear_2226_5010)"/>
<path d="M79.7554 8.85708C79.7554 8.59232 79.8882 8.45166 80.1623 8.45166H84.2813C84.547 8.45166 84.6882 8.58404 84.6882 8.85708V29.0206C84.6882 29.2853 84.5553 29.426 84.2813 29.426H80.1623C79.8965 29.426 79.7554 29.2936 79.7554 29.0206V8.85708Z" fill="url(#paint7_linear_2226_5010)"/>
<path d="M80.0044 0.665693C80.0044 0.599502 80.1373 0.566406 80.4113 0.566406H84.5303C84.796 0.566406 84.9372 0.599502 84.9372 0.665693V5.69622C84.9372 5.76241 84.8043 5.79551 84.5303 5.79551H80.4113C80.1456 5.79551 80.0044 5.76241 80.0044 5.69622V0.665693Z" fill="url(#paint8_linear_2226_5010)"/>
<path d="M28.4507 9.54361C28.4507 8.39354 28.6085 7.30138 28.9323 6.28369C29.0901 5.69625 29.3143 5.19154 29.5967 4.77785C29.879 4.36415 30.1697 3.98355 30.4686 3.62777C31.2991 2.65973 32.3039 1.91508 33.4582 1.37727C34.6125 0.839472 35.8582 0.574707 37.1786 0.574707H47.8829C48.1487 0.574707 48.2899 0.707089 48.2899 0.980128V5.40666C48.2899 5.67143 48.157 5.81208 47.8829 5.81208H37.4194C36.3648 6.0272 35.5841 6.57328 35.0776 7.44204C34.5627 8.3108 34.3136 9.4526 34.3136 10.8426V21.0278C34.3966 21.971 34.6956 22.7156 35.2188 23.2617C35.7419 23.8161 36.481 24.1305 37.4194 24.205H47.8829C48.1487 24.205 48.2899 24.3373 48.2899 24.6104V29.0369C48.2899 29.3017 48.157 29.4423 47.8829 29.4423H37.544C36.7385 29.4423 36.0243 29.3679 35.4015 29.2189C34.7786 29.07 34.2388 28.9045 33.7821 28.7142C32.7607 28.3419 31.8472 27.7296 31.0333 26.8857C30.2278 26.0418 29.5635 25.0241 29.0569 23.8492C28.924 23.5513 28.7912 23.1624 28.65 22.6577C28.5171 22.1613 28.4507 21.549 28.4507 20.8292V9.56016V9.54361Z" fill="white"/>
<path d="M51.6035 0.971827C51.6035 0.707062 51.7364 0.566406 52.0104 0.566406H57.0595C57.3252 0.566406 57.4664 0.698789 57.4664 0.971827V11.9182C57.4664 12.183 57.5993 12.3236 57.8733 12.3236H67.4483C67.714 12.3236 67.8552 12.1912 67.8552 11.9182V0.971827C67.8552 0.707062 67.9881 0.566406 68.2621 0.566406H73.3112C73.5769 0.566406 73.7181 0.698789 73.7181 0.971827V29.0286C73.7181 29.2934 73.5852 29.434 73.3112 29.434H68.2621C67.9964 29.434 67.8552 29.3016 67.8552 29.0286V17.9581C67.8552 17.6934 67.7223 17.5527 67.4483 17.5527H57.8733C57.6076 17.5527 57.4664 17.6851 57.4664 17.9581V29.0286C57.4664 29.2934 57.3335 29.434 57.0595 29.434H52.0104C51.7447 29.434 51.6035 29.3016 51.6035 29.0286V0.971827Z" fill="white"/>
<path d="M88.3999 6.73046C88.3999 4.90193 88.8982 3.4209 89.8947 2.2791C90.8912 1.13731 92.3279 0.566406 94.2213 0.566406H107.915C108.264 0.566406 108.438 0.698789 108.438 0.971827V5.39836C108.438 5.66313 108.306 5.80378 108.031 5.80378H94.6614C94.3957 5.80378 94.2545 5.95271 94.2545 6.25057V11.7279C94.2545 11.9927 94.3874 12.1333 94.6614 12.1333H107.06C107.326 12.1333 107.467 12.2657 107.467 12.5387V17.1638C107.467 17.4286 107.334 17.5693 107.06 17.5693H94.6614C94.3957 17.5693 94.2545 17.7016 94.2545 17.9747V23.8078C94.2545 24.0725 94.3874 24.2132 94.6614 24.2132H108.031C108.297 24.2132 108.438 24.3456 108.438 24.6186V29.0452C108.438 29.3099 108.306 29.4506 108.031 29.4506H92.3943C91.9127 29.4506 91.4227 29.3265 90.941 29.07C90.4594 28.8135 90.0276 28.4825 89.6456 28.0854C89.2719 27.68 88.9646 27.2332 88.7404 26.7367C88.5079 26.2403 88.3999 25.7356 88.3999 25.2309V6.73046Z" fill="white"/>
<path d="M123.992 23.4685C124.076 23.7664 124.142 23.9567 124.192 24.056C124.242 24.147 124.341 24.1966 124.474 24.1966C124.607 24.1966 124.756 23.9567 124.914 23.4685L131.873 0.971827C131.956 0.707062 132.131 0.566406 132.396 0.566406H137.645C137.861 0.566406 137.969 0.649145 137.969 0.806349L129.764 27.0511C129.44 28.1019 128.851 28.7556 127.987 29.0203C127.123 29.2851 125.952 29.4257 124.474 29.4257C122.996 29.4257 121.734 29.2934 120.862 29.0203C119.99 28.7556 119.384 28.0937 119.068 27.0511L110.946 0.806349C110.946 0.649145 111.038 0.566406 111.229 0.566406H116.519C116.784 0.566406 116.967 0.690515 117.042 0.930458L123.992 23.4685Z" fill="white"/>
<path d="M142.213 2.94101C142.536 1.89023 143.126 1.23659 143.99 0.971827C144.853 0.707062 146.024 0.566406 147.502 0.566406C148.981 0.566406 150.243 0.698789 151.115 0.971827C151.987 1.24487 152.593 1.8985 152.909 2.94101L161.03 29.1858C161.03 29.343 160.939 29.4257 160.748 29.4257H155.458C155.192 29.4257 155.01 29.3016 154.935 29.0617L152.792 22.0951C152.709 21.8303 152.535 21.6897 152.269 21.6897H142.777C142.511 21.6897 142.329 21.8386 142.254 22.1364L140.112 29.0203C140.028 29.2851 139.854 29.4257 139.588 29.4257H134.34C134.124 29.4257 134.016 29.343 134.016 29.1858L142.221 2.94101H142.213ZM147.992 6.52361C147.909 6.22575 147.843 6.03545 147.793 5.94444C147.743 5.85342 147.644 5.80378 147.511 5.80378C147.378 5.80378 147.228 6.04372 147.062 6.53188L144.239 15.7076C144.239 15.7655 144.239 15.7986 144.222 15.8317C144.206 15.8566 144.206 15.8897 144.206 15.9145C144.206 16.1048 144.314 16.1958 144.529 16.1958H150.55C150.766 16.1958 150.874 16.1048 150.874 15.9145C150.874 15.8897 150.874 15.8648 150.857 15.8317C150.841 15.8069 150.841 15.7655 150.841 15.7076L148.009 6.53188L147.992 6.52361Z" fill="white"/>
<path d="M18.9091 2.94101C18.5852 1.8985 17.9873 1.23659 17.1153 0.971827C16.2434 0.707062 15.0309 0.566406 13.5029 0.566406C11.9749 0.566406 10.8538 0.698789 9.99017 0.971827C9.12652 1.23659 8.5369 1.8985 8.21303 2.94101L0 29.1858C0 29.343 0.107957 29.4257 0.323871 29.4257H5.57224C5.83798 29.4257 6.02068 29.2934 6.09542 29.0203L13.0462 6.52361C13.204 6.04372 13.3534 5.79551 13.4863 5.79551C13.6192 5.79551 13.7188 5.84515 13.7687 5.93616C13.8185 6.02718 13.8932 6.22575 13.968 6.52361L20.9187 29.0617C21.0018 29.3016 21.1762 29.4257 21.4419 29.4257H26.7318C26.9228 29.4257 27.0142 29.343 27.0142 29.1858L18.9091 2.94101Z" fill="white"/>
<path d="M164.145 24.3952C164.145 24.1304 164.277 23.9897 164.551 23.9897H169.194C169.459 23.9897 169.601 24.1221 169.601 24.3952V29.0203C169.601 29.285 169.468 29.4257 169.194 29.4257H164.551C164.286 29.4257 164.145 29.2933 164.145 29.0203V24.3952Z" fill="white"/>
<path d="M79.7554 8.85708C79.7554 8.59232 79.8882 8.45166 80.1623 8.45166H84.2813C84.547 8.45166 84.6882 8.58404 84.6882 8.85708V29.0206C84.6882 29.2853 84.5553 29.426 84.2813 29.426H80.1623C79.8965 29.426 79.7554 29.2936 79.7554 29.0206V8.85708Z" fill="white"/>
<path d="M79.7554 8.85708C79.7554 8.59232 79.8882 8.45166 80.1623 8.45166H84.2813C84.547 8.45166 84.6882 8.58404 84.6882 8.85708V29.0206C84.6882 29.2853 84.5553 29.426 84.2813 29.426H80.1623C79.8965 29.426 79.7554 29.2936 79.7554 29.0206V8.85708Z" fill="white"/>
<path d="M79.7554 8.85708C79.7554 8.59232 79.8882 8.45166 80.1623 8.45166H84.2813C84.547 8.45166 84.6882 8.58404 84.6882 8.85708V29.0206C84.6882 29.2853 84.5553 29.426 84.2813 29.426H80.1623C79.8965 29.426 79.7554 29.2936 79.7554 29.0206V8.85708Z" fill="white"/>
<path d="M80.0044 0.665693C80.0044 0.599502 80.1373 0.566406 80.4113 0.566406H84.5303C84.796 0.566406 84.9372 0.599502 84.9372 0.665693V5.69622C84.9372 5.76241 84.8043 5.79551 84.5303 5.79551H80.4113C80.1456 5.79551 80.0044 5.76241 80.0044 5.69622V0.665693Z" fill="white"/>
<path d="M80.0044 0.665693C80.0044 0.599502 80.1373 0.566406 80.4113 0.566406H84.5303C84.796 0.566406 84.9372 0.599502 84.9372 0.665693V5.69622C84.9372 5.76241 84.8043 5.79551 84.5303 5.79551H80.4113C80.1456 5.79551 80.0044 5.76241 80.0044 5.69622V0.665693Z" fill="white"/>
<path d="M80.0044 0.665693C80.0044 0.599502 80.1373 0.566406 80.4113 0.566406H84.5303C84.796 0.566406 84.9372 0.599502 84.9372 0.665693V5.69622C84.9372 5.76241 84.8043 5.79551 84.5303 5.79551H80.4113C80.1456 5.79551 80.0044 5.76241 80.0044 5.69622V0.665693Z" fill="white"/>
<path d="M189.307 29.5H184.689L183.901 24.2378H178.295L177.506 29.5H173.312L177.963 0.5H184.656L189.315 29.5H189.307ZM178.876 20.2994H183.278L181.077 5.63809L178.876 20.2994Z" fill="white"/>
<path d="M191.424 0.5H196V29.5H191.424V0.5Z" fill="white"/>
</g>
<defs>
<linearGradient id="paint0_linear_2226_5010" x1="7.19146" y1="14.9961" x2="131.226" y2="14.9961" gradientUnits="userSpaceOnUse">
<stop offset="0.67" stop-color="#CB4E99"/>
<stop offset="0.75" stop-color="#D36DAB"/>
<stop offset="0.92" stop-color="#E8BCD8"/>
<stop offset="1" stop-color="#F3E5F0"/>
</linearGradient>
<linearGradient id="paint1_linear_2226_5010" x1="51.6035" y1="14.9961" x2="73.7015" y2="14.9961" gradientUnits="userSpaceOnUse">
<stop stop-color="#282560"/>
<stop offset="0.34" stop-color="#362B70"/>
<stop offset="0.49" stop-color="#7C3B83"/>
<stop offset="0.67" stop-color="#CB4E99"/>
<stop offset="0.75" stop-color="#D36DAB"/>
<stop offset="0.92" stop-color="#E8BCD8"/>
<stop offset="1" stop-color="#F3E5F0"/>
</linearGradient>
<linearGradient id="paint2_linear_2226_5010" x1="88.3999" y1="0.500215" x2="108.438" y2="0.500215" gradientUnits="userSpaceOnUse">
<stop stop-color="#282560"/>
<stop offset="0.34" stop-color="#362B70"/>
<stop offset="0.49" stop-color="#7C3B83"/>
<stop offset="0.67" stop-color="#CB4E99"/>
<stop offset="0.75" stop-color="#D36DAB"/>
<stop offset="0.92" stop-color="#E8BCD8"/>
<stop offset="1" stop-color="#F3E5F0"/>
</linearGradient>
<linearGradient id="paint3_linear_2226_5010" x1="110.946" y1="0.500215" x2="137.969" y2="0.500215" gradientUnits="userSpaceOnUse">
<stop stop-color="#282560"/>
<stop offset="0.34" stop-color="#362B70"/>
<stop offset="0.49" stop-color="#7C3B83"/>
<stop offset="0.67" stop-color="#CB4E99"/>
<stop offset="0.75" stop-color="#D36DAB"/>
<stop offset="0.92" stop-color="#E8BCD8"/>
<stop offset="1" stop-color="#F3E5F0"/>
</linearGradient>
<linearGradient id="paint4_linear_2226_5010" x1="134.016" y1="0.500215" x2="161.039" y2="0.500215" gradientUnits="userSpaceOnUse">
<stop stop-color="#282560"/>
<stop offset="0.34" stop-color="#362B70"/>
<stop offset="0.49" stop-color="#7C3B83"/>
<stop offset="0.67" stop-color="#CB4E99"/>
<stop offset="0.75" stop-color="#D36DAB"/>
<stop offset="0.92" stop-color="#E8BCD8"/>
<stop offset="1" stop-color="#F3E5F0"/>
</linearGradient>
<linearGradient id="paint5_linear_2226_5010" x1="0" y1="14.9961" x2="27.0308" y2="14.9961" gradientUnits="userSpaceOnUse">
<stop stop-color="#282560"/>
<stop offset="0.25" stop-color="#683576"/>
<stop offset="0.53" stop-color="#AF478F"/>
<stop offset="0.67" stop-color="#CB4E99"/>
<stop offset="0.75" stop-color="#D36DAB"/>
<stop offset="0.92" stop-color="#E8BCD8"/>
<stop offset="1" stop-color="#F3E5F0"/>
</linearGradient>
<linearGradient id="paint6_linear_2226_5010" x1="164.145" y1="26.7119" x2="169.601" y2="26.7119" gradientUnits="userSpaceOnUse">
<stop stop-color="#282560"/>
<stop offset="0.34" stop-color="#362B70"/>
</linearGradient>
<linearGradient id="paint7_linear_2226_5010" x1="79.7554" y1="18.943" x2="84.6882" y2="18.943" gradientUnits="userSpaceOnUse">
<stop stop-color="#282560"/>
<stop offset="0.34" stop-color="#362B70"/>
<stop offset="0.49" stop-color="#7C3B83"/>
<stop offset="0.67" stop-color="#CB4E99"/>
<stop offset="0.75" stop-color="#D36DAB"/>
<stop offset="0.92" stop-color="#E8BCD8"/>
<stop offset="1" stop-color="#F3E5F0"/>
</linearGradient>
<linearGradient id="paint8_linear_2226_5010" x1="80.0044" y1="3.18096" x2="84.9289" y2="3.18096" gradientUnits="userSpaceOnUse">
<stop stop-color="#282560"/>
<stop offset="0.34" stop-color="#362B70"/>
<stop offset="0.49" stop-color="#7C3B83"/>
<stop offset="0.67" stop-color="#CB4E99"/>
<stop offset="0.75" stop-color="#D36DAB"/>
<stop offset="0.92" stop-color="#E8BCD8"/>
<stop offset="1" stop-color="#F3E5F0"/>
</linearGradient>
<clipPath id="clip0_2226_5010">
<rect width="196" height="29" fill="white" transform="translate(0 0.5)"/>
</clipPath>
</defs>
</svg>
