<svg xmlns="http://www.w3.org/2000/svg" viewBox="0 0 160 27" width="100%" height="100%">
  <path d="M4,0h1v1h-1z" fill="#0062b4" opacity="0.13"/>
  <path d="M5,0h1v1h-1zM47,3h1v1h-1zM55,18h1v1h-1z" fill="#0065b2" opacity="0.25"/>
  <path d="M6,0h1v1h-1zM56,1h1v1h-1zM58,13h1v1h-1z" fill="#0064b2" opacity="0.40"/>
  <path d="M7,0h1v1h-1z" fill="#0064b0" opacity="0.52"/>
  <path d="M8,0h1v1h-1z" fill="#0064b2" opacity="0.53"/>
  <path d="M9,0h1v1h-1zM14,6h1v1h-1z" fill="#0063b1" opacity="0.47"/>
  <path d="M10,0h1v1h-1zM15,0h1v1h-1zM72,4h1v1h-1zM72,5h1v1h-1z" fill="#0066b3" opacity="0.42"/>
  <path d="M11,0h1v1h-1z" fill="#0066b4" opacity="0.41"/>
  <path d="M12,0h1v1h-1zM46,4h1v1h-1zM8,7h1v1h-1zM14,7h1v1h-1zM49,14h1v1h-1z" fill="#0064b3" opacity="0.46"/>
  <path d="M13,0h1v1h-1zM14,0h1v1h-1zM0,11h1v1h-1zM10,15h1v1h-1z" fill="#0066b2" opacity="0.52"/>
  <path d="M16,0h1v1h-1z" fill="#0065b0" opacity="0.27"/>
  <path d="M17,0h1v1h-1z" fill="#0060ac" opacity="0.15"/>
  <path d="M2,1h1v1h-1z" fill="#0062b2" opacity="0.29"/>
  <path d="M3,1h1v1h-1zM1,3h1v1h-1z" fill="#0066b3" opacity="0.58"/>
  <path d="M4,1h1v1h-1zM36,14h1v1h-1zM11,18h1v1h-1zM15,18h1v1h-1z" fill="#0064b2" opacity="0.31"/>
  <path d="M5,1h1v1h-1z" fill="#005faf" opacity="0.14"/>
  <path d="M6,1h1v1h-1zM62,2h1v1h-1zM66,10h1v1h-1z" fill="#0063aa" opacity="0.07"/>
  <path d="M10,1h1v1h-1zM16,21h1v1h-1z" fill="#0065af" opacity="0.19"/>
  <path d="M11,1h1v1h-1z" fill="#0062b0" opacity="0.27"/>
  <path d="M12,1h1v1h-1zM5,19h1v1h-1z" fill="#0062b1" opacity="0.10"/>
  <path d="M15,1h1v1h-1zM60,8h1v1h-1zM21,12h1v1h-1z" fill="#0066bb" opacity="0.06"/>
  <path d="M16,1h1v1h-1zM0,4h1v1h-1z" fill="#0060af" opacity="0.13"/>
  <path d="M17,1h1v1h-1zM3,13h1v1h-1zM5,17h1v1h-1z" fill="#0064b1" opacity="0.27"/>
  <path d="M18,1h1v1h-1z" fill="#0065b1" opacity="0.56"/>
  <path d="M19,1h1v1h-1z" fill="#0063b1" opacity="0.37"/>
  <path d="M30,1h1v1h-1z" fill="#005da2" opacity="0.04"/>
  <path d="M31,1h1v1h-1zM32,1h1v1h-1zM33,1h1v1h-1zM34,1h1v1h-1zM35,1h1v1h-1zM36,1h1v1h-1zM37,1h1v1h-1zM38,1h1v1h-1zM41,11h1v1h-1z" fill="#0061b0" opacity="0.22"/>
  <path d="M39,1h1v1h-1zM16,17h1v1h-1z" fill="#0063b4" opacity="0.17"/>
  <path d="M40,1h1v1h-1zM12,22h1v1h-1z" fill="#0055aa" opacity="0.05"/>
  <path d="M51,1h1v1h-1z" fill="#0060aa" opacity="0.09"/>
  <path d="M52,1h1v1h-1zM22,7h1v1h-1z" fill="#0065b2" opacity="0.29"/>
  <path d="M53,1h1v1h-1zM2,2h1v1h-1zM1,17h1v1h-1z" fill="#0065b3" opacity="0.45"/>
  <path d="M54,1h1v1h-1zM0,7h1v1h-1zM0,10h1v1h-1z" fill="#0065b3" opacity="0.51"/>
  <path d="M55,1h1v1h-1zM58,7h1v1h-1z" fill="#0064b1" opacity="0.36"/>
  <path d="M57,1h1v1h-1z" fill="#0060af" opacity="0.19"/>
  <path d="M63,1h1v1h-1z" fill="#005dae" opacity="0.16"/>
  <path d="M64,1h1v1h-1zM65,1h1v1h-1zM66,1h1v1h-1zM67,1h1v1h-1zM68,1h1v1h-1zM69,1h1v1h-1zM70,1h1v1h-1zM22,8h1v1h-1zM18,11h1v1h-1z" fill="#0065b4" opacity="0.28"/>
  <path d="M71,1h1v1h-1z" fill="#0066b3" opacity="0.27"/>
  <path d="M72,1h1v1h-1zM28,9h1v1h-1z" fill="#005eaa" opacity="0.11"/>
  <path d="M1,2h1v1h-1zM33,13h1v1h-1z" fill="#0066b2" opacity="0.24"/>
  <path d="M8,2h1v1h-1zM6,21h1v1h-1z" fill="#0064af" opacity="0.20"/>
  <path d="M9,2h1v1h-1zM8,3h1v1h-1zM13,21h1v1h-1z" fill="#0065b3" opacity="0.79"/>
  <path d="M10,2h1v1h-1zM9,3h1v1h-1zM13,3h1v1h-1zM41,3h1v1h-1zM58,3h1v1h-1zM63,3h1v1h-1zM71,3h1v1h-1zM8,4h1v1h-1zM30,4h1v1h-1zM71,4h1v1h-1zM71,5h1v1h-1zM38,6h1v1h-1zM71,6h1v1h-1zM12,7h1v1h-1zM49,7h1v1h-1zM71,7h1v1h-1zM38,8h1v1h-1zM48,8h1v1h-1zM71,8h1v1h-1zM11,9h1v1h-1zM71,9h1v1h-1zM12,12h1v1h-1zM64,13h1v1h-1zM65,13h1v1h-1zM66,13h1v1h-1zM28,14h1v1h-1zM40,16h1v1h-1zM27,17h1v1h-1zM39,17h1v1h-1zM54,17h1v1h-1z" fill="#0065b3" opacity="1.00"/>
  <path d="M11,2h1v1h-1zM31,2h1v1h-1zM32,2h1v1h-1zM33,2h1v1h-1zM34,2h1v1h-1zM35,2h1v1h-1zM36,2h1v1h-1zM37,2h1v1h-1zM38,2h1v1h-1zM52,2h1v1h-1zM53,2h1v1h-1zM54,2h1v1h-1zM55,2h1v1h-1zM56,2h1v1h-1zM64,2h1v1h-1zM65,2h1v1h-1zM66,2h1v1h-1zM67,2h1v1h-1zM68,2h1v1h-1zM69,2h1v1h-1zM70,2h1v1h-1zM10,3h1v1h-1zM11,3h1v1h-1zM12,3h1v1h-1zM31,3h1v1h-1zM32,3h1v1h-1zM33,3h1v1h-1zM34,3h1v1h-1zM35,3h1v1h-1zM36,3h1v1h-1zM37,3h1v1h-1zM38,3h1v1h-1zM39,3h1v1h-1zM40,3h1v1h-1zM50,3h1v1h-1zM51,3h1v1h-1zM52,3h1v1h-1zM53,3h1v1h-1zM54,3h1v1h-1zM55,3h1v1h-1zM56,3h1v1h-1zM57,3h1v1h-1zM64,3h1v1h-1zM65,3h1v1h-1zM66,3h1v1h-1zM67,3h1v1h-1zM68,3h1v1h-1zM69,3h1v1h-1zM70,3h1v1h-1zM9,4h1v1h-1zM10,4h1v1h-1zM11,4h1v1h-1zM12,4h1v1h-1zM13,4h1v1h-1zM31,4h1v1h-1zM32,4h1v1h-1zM33,4h1v1h-1zM34,4h1v1h-1zM35,4h1v1h-1zM36,4h1v1h-1zM37,4h1v1h-1zM38,4h1v1h-1zM39,4h1v1h-1zM40,4h1v1h-1zM41,4h1v1h-1zM42,4h1v1h-1zM48,4h1v1h-1zM49,4h1v1h-1zM50,4h1v1h-1zM51,4h1v1h-1zM52,4h1v1h-1zM53,4h1v1h-1zM54,4h1v1h-1zM55,4h1v1h-1zM56,4h1v1h-1zM57,4h1v1h-1zM58,4h1v1h-1zM63,4h1v1h-1zM64,4h1v1h-1zM65,4h1v1h-1zM66,4h1v1h-1zM67,4h1v1h-1zM68,4h1v1h-1zM69,4h1v1h-1zM70,4h1v1h-1zM8,5h1v1h-1zM9,5h1v1h-1zM10,5h1v1h-1zM11,5h1v1h-1zM12,5h1v1h-1zM13,5h1v1h-1zM30,5h1v1h-1zM31,5h1v1h-1zM32,5h1v1h-1zM33,5h1v1h-1zM34,5h1v1h-1zM35,5h1v1h-1zM36,5h1v1h-1zM37,5h1v1h-1zM38,5h1v1h-1zM39,5h1v1h-1zM40,5h1v1h-1zM41,5h1v1h-1zM42,5h1v1h-1zM46,5h1v1h-1zM47,5h1v1h-1zM48,5h1v1h-1zM49,5h1v1h-1zM50,5h1v1h-1zM51,5h1v1h-1zM52,5h1v1h-1zM53,5h1v1h-1zM54,5h1v1h-1zM55,5h1v1h-1zM56,5h1v1h-1zM57,5h1v1h-1zM62,5h1v1h-1zM63,5h1v1h-1zM64,5h1v1h-1zM65,5h1v1h-1zM66,5h1v1h-1zM67,5h1v1h-1zM68,5h1v1h-1zM69,5h1v1h-1zM70,5h1v1h-1zM9,6h1v1h-1zM10,6h1v1h-1zM11,6h1v1h-1zM12,6h1v1h-1zM13,6h1v1h-1zM29,6h1v1h-1zM30,6h1v1h-1zM31,6h1v1h-1zM32,6h1v1h-1zM33,6h1v1h-1zM39,6h1v1h-1zM40,6h1v1h-1zM41,6h1v1h-1zM42,6h1v1h-1zM46,6h1v1h-1zM47,6h1v1h-1zM48,6h1v1h-1zM49,6h1v1h-1zM50,6h1v1h-1zM51,6h1v1h-1zM56,6h1v1h-1zM57,6h1v1h-1zM62,6h1v1h-1zM63,6h1v1h-1zM64,6h1v1h-1zM65,6h1v1h-1zM66,6h1v1h-1zM67,6h1v1h-1zM68,6h1v1h-1zM69,6h1v1h-1zM70,6h1v1h-1zM10,7h1v1h-1zM11,7h1v1h-1zM30,7h1v1h-1zM31,7h1v1h-1zM32,7h1v1h-1zM33,7h1v1h-1zM39,7h1v1h-1zM40,7h1v1h-1zM41,7h1v1h-1zM45,7h1v1h-1zM46,7h1v1h-1zM47,7h1v1h-1zM48,7h1v1h-1zM62,7h1v1h-1zM63,7h1v1h-1zM64,7h1v1h-1zM65,7h1v1h-1zM67,7h1v1h-1zM68,7h1v1h-1zM69,7h1v1h-1zM70,7h1v1h-1zM6,8h1v1h-1zM7,8h1v1h-1zM11,8h1v1h-1zM15,8h1v1h-1zM16,8h1v1h-1zM30,8h1v1h-1zM31,8h1v1h-1zM32,8h1v1h-1zM39,8h1v1h-1zM40,8h1v1h-1zM44,8h1v1h-1zM45,8h1v1h-1zM46,8h1v1h-1zM47,8h1v1h-1zM62,8h1v1h-1zM63,8h1v1h-1zM64,8h1v1h-1zM65,8h1v1h-1zM67,8h1v1h-1zM68,8h1v1h-1zM69,8h1v1h-1zM70,8h1v1h-1zM5,9h1v1h-1zM6,9h1v1h-1zM7,9h1v1h-1zM8,9h1v1h-1zM13,9h1v1h-1zM14,9h1v1h-1zM15,9h1v1h-1zM16,9h1v1h-1zM17,9h1v1h-1zM29,9h1v1h-1zM30,9h1v1h-1zM31,9h1v1h-1zM32,9h1v1h-1zM37,9h1v1h-1zM38,9h1v1h-1zM39,9h1v1h-1zM44,9h1v1h-1zM45,9h1v1h-1zM46,9h1v1h-1zM47,9h1v1h-1zM62,9h1v1h-1zM63,9h1v1h-1zM64,9h1v1h-1zM65,9h1v1h-1zM67,9h1v1h-1zM68,9h1v1h-1zM69,9h1v1h-1zM70,9h1v1h-1zM5,10h1v1h-1zM6,10h1v1h-1zM7,10h1v1h-1zM8,10h1v1h-1zM9,10h1v1h-1zM13,10h1v1h-1zM14,10h1v1h-1zM15,10h1v1h-1zM16,10h1v1h-1zM17,10h1v1h-1zM29,10h1v1h-1zM30,10h1v1h-1zM31,10h1v1h-1zM32,10h1v1h-1zM33,10h1v1h-1zM34,10h1v1h-1zM35,10h1v1h-1zM36,10h1v1h-1zM37,10h1v1h-1zM38,10h1v1h-1zM44,10h1v1h-1zM45,10h1v1h-1zM46,10h1v1h-1zM47,10h1v1h-1zM61,10h1v1h-1zM62,10h1v1h-1zM63,10h1v1h-1zM64,10h1v1h-1zM67,10h1v1h-1zM68,10h1v1h-1zM69,10h1v1h-1zM70,10h1v1h-1zM71,10h1v1h-1zM6,11h1v1h-1zM7,11h1v1h-1zM8,11h1v1h-1zM9,11h1v1h-1zM13,11h1v1h-1zM14,11h1v1h-1zM15,11h1v1h-1zM29,11h1v1h-1zM30,11h1v1h-1zM31,11h1v1h-1zM32,11h1v1h-1zM33,11h1v1h-1zM34,11h1v1h-1zM35,11h1v1h-1zM36,11h1v1h-1zM37,11h1v1h-1zM38,11h1v1h-1zM39,11h1v1h-1zM43,11h1v1h-1zM44,11h1v1h-1zM45,11h1v1h-1zM46,11h1v1h-1zM47,11h1v1h-1zM60,11h1v1h-1zM61,11h1v1h-1zM62,11h1v1h-1zM63,11h1v1h-1zM67,11h1v1h-1zM68,11h1v1h-1zM69,11h1v1h-1zM70,11h1v1h-1zM71,11h1v1h-1zM8,12h1v1h-1zM9,12h1v1h-1zM13,12h1v1h-1zM29,12h1v1h-1zM30,12h1v1h-1zM31,12h1v1h-1zM32,12h1v1h-1zM37,12h1v1h-1zM38,12h1v1h-1zM39,12h1v1h-1zM40,12h1v1h-1zM43,12h1v1h-1zM44,12h1v1h-1zM45,12h1v1h-1zM46,12h1v1h-1zM47,12h1v1h-1zM60,12h1v1h-1zM61,12h1v1h-1zM62,12h1v1h-1zM63,12h1v1h-1zM67,12h1v1h-1zM68,12h1v1h-1zM69,12h1v1h-1zM70,12h1v1h-1zM71,12h1v1h-1zM4,13h1v1h-1zM5,13h1v1h-1zM17,13h1v1h-1zM29,13h1v1h-1zM30,13h1v1h-1zM31,13h1v1h-1zM37,13h1v1h-1zM38,13h1v1h-1zM39,13h1v1h-1zM40,13h1v1h-1zM43,13h1v1h-1zM44,13h1v1h-1zM45,13h1v1h-1zM46,13h1v1h-1zM47,13h1v1h-1zM60,13h1v1h-1zM61,13h1v1h-1zM62,13h1v1h-1zM63,13h1v1h-1zM67,13h1v1h-1zM68,13h1v1h-1zM69,13h1v1h-1zM70,13h1v1h-1zM71,13h1v1h-1zM5,14h1v1h-1zM6,14h1v1h-1zM7,14h1v1h-1zM14,14h1v1h-1zM15,14h1v1h-1zM16,14h1v1h-1zM29,14h1v1h-1zM30,14h1v1h-1zM31,14h1v1h-1zM37,14h1v1h-1zM38,14h1v1h-1zM39,14h1v1h-1zM40,14h1v1h-1zM43,14h1v1h-1zM44,14h1v1h-1zM45,14h1v1h-1zM46,14h1v1h-1zM47,14h1v1h-1zM59,14h1v1h-1zM60,14h1v1h-1zM61,14h1v1h-1zM62,14h1v1h-1zM63,14h1v1h-1zM64,14h1v1h-1zM65,14h1v1h-1zM66,14h1v1h-1zM67,14h1v1h-1zM68,14h1v1h-1zM69,14h1v1h-1zM70,14h1v1h-1zM71,14h1v1h-1zM28,15h1v1h-1zM29,15h1v1h-1zM30,15h1v1h-1zM31,15h1v1h-1zM37,15h1v1h-1zM38,15h1v1h-1zM39,15h1v1h-1zM40,15h1v1h-1zM44,15h1v1h-1zM45,15h1v1h-1zM46,15h1v1h-1zM47,15h1v1h-1zM48,15h1v1h-1zM58,15h1v1h-1zM59,15h1v1h-1zM60,15h1v1h-1zM61,15h1v1h-1zM62,15h1v1h-1zM63,15h1v1h-1zM64,15h1v1h-1zM65,15h1v1h-1zM66,15h1v1h-1zM67,15h1v1h-1zM68,15h1v1h-1zM69,15h1v1h-1zM70,15h1v1h-1zM71,15h1v1h-1zM28,16h1v1h-1zM29,16h1v1h-1zM30,16h1v1h-1zM31,16h1v1h-1zM32,16h1v1h-1zM33,16h1v1h-1zM34,16h1v1h-1zM35,16h1v1h-1zM36,16h1v1h-1zM37,16h1v1h-1zM38,16h1v1h-1zM39,16h1v1h-1zM44,16h1v1h-1zM45,16h1v1h-1zM46,16h1v1h-1zM47,16h1v1h-1zM48,16h1v1h-1zM49,16h1v1h-1zM50,16h1v1h-1zM51,16h1v1h-1zM52,16h1v1h-1zM53,16h1v1h-1zM54,16h1v1h-1zM58,16h1v1h-1zM59,16h1v1h-1zM60,16h1v1h-1zM61,16h1v1h-1zM67,16h1v1h-1zM68,16h1v1h-1zM69,16h1v1h-1zM70,16h1v1h-1zM71,16h1v1h-1zM28,17h1v1h-1zM29,17h1v1h-1zM30,17h1v1h-1zM31,17h1v1h-1zM32,17h1v1h-1zM33,17h1v1h-1zM34,17h1v1h-1zM35,17h1v1h-1zM36,17h1v1h-1zM37,17h1v1h-1zM38,17h1v1h-1zM45,17h1v1h-1zM46,17h1v1h-1zM47,17h1v1h-1zM48,17h1v1h-1zM49,17h1v1h-1zM50,17h1v1h-1zM51,17h1v1h-1zM52,17h1v1h-1zM53,17h1v1h-1zM58,17h1v1h-1zM59,17h1v1h-1zM60,17h1v1h-1zM61,17h1v1h-1zM67,17h1v1h-1zM68,17h1v1h-1zM69,17h1v1h-1zM70,17h1v1h-1zM71,17h1v1h-1zM27,18h1v1h-1zM28,18h1v1h-1zM29,18h1v1h-1zM30,18h1v1h-1zM31,18h1v1h-1zM32,18h1v1h-1zM33,18h1v1h-1zM34,18h1v1h-1zM35,18h1v1h-1zM36,18h1v1h-1zM37,18h1v1h-1zM46,18h1v1h-1zM47,18h1v1h-1zM48,18h1v1h-1zM49,18h1v1h-1zM50,18h1v1h-1zM51,18h1v1h-1zM52,18h1v1h-1zM53,18h1v1h-1zM57,18h1v1h-1zM58,18h1v1h-1zM59,18h1v1h-1zM60,18h1v1h-1zM61,18h1v1h-1zM68,18h1v1h-1zM69,18h1v1h-1zM70,18h1v1h-1zM71,18h1v1h-1zM27,19h1v1h-1zM28,19h1v1h-1zM29,19h1v1h-1zM30,19h1v1h-1zM31,19h1v1h-1zM32,19h1v1h-1zM33,19h1v1h-1zM34,19h1v1h-1zM48,19h1v1h-1zM49,19h1v1h-1zM50,19h1v1h-1zM51,19h1v1h-1zM52,19h1v1h-1zM56,19h1v1h-1zM57,19h1v1h-1zM58,19h1v1h-1zM59,19h1v1h-1zM60,19h1v1h-1zM68,19h1v1h-1zM69,19h1v1h-1zM70,19h1v1h-1zM71,19h1v1h-1z" fill="#0066b3" opacity="1.00"/>
  <path d="M12,2h1v1h-1z" fill="#0066b2" opacity="0.95"/>
  <path d="M13,2h1v1h-1zM62,18h1v1h-1z" fill="#0064b2" opacity="0.52"/>
  <path d="M14,2h1v1h-1zM21,10h1v1h-1zM21,11h1v1h-1zM49,13h1v1h-1z" fill="#0062b1" opacity="0.05"/>
  <path d="M19,2h1v1h-1zM44,18h1v1h-1z" fill="#0063b1" opacity="0.23"/>
  <path d="M20,2h1v1h-1zM72,6h1v1h-1z" fill="#0065b2" opacity="0.43"/>
  <path d="M30,2h1v1h-1zM4,11h1v1h-1z" fill="#0065b2" opacity="0.61"/>
  <path d="M39,2h1v1h-1zM33,8h1v1h-1zM33,9h1v1h-1zM32,13h1v1h-1z" fill="#0066b4" opacity="1.00"/>
  <path d="M40,2h1v1h-1zM15,7h1v1h-1z" fill="#0065b3" opacity="0.95"/>
  <path d="M41,2h1v1h-1zM28,6h1v1h-1zM7,21h1v1h-1z" fill="#0065b3" opacity="0.58"/>
  <path d="M42,2h1v1h-1zM1,19h1v1h-1z" fill="#0061aa" opacity="0.08"/>
  <path d="M48,2h1v1h-1zM0,17h1v1h-1zM19,19h1v1h-1zM35,20h1v1h-1zM55,20h1v1h-1z" fill="#005eae" opacity="0.07"/>
  <path d="M49,2h1v1h-1z" fill="#0067b3" opacity="0.38"/>
  <path d="M50,2h1v1h-1zM43,9h1v1h-1z" fill="#0065b2" opacity="0.73"/>
  <path d="M51,2h1v1h-1z" fill="#0065b2" opacity="0.97"/>
  <path d="M57,2h1v1h-1zM29,5h1v1h-1z" fill="#0065b2" opacity="0.99"/>
  <path d="M58,2h1v1h-1zM14,13h1v1h-1zM56,15h1v1h-1zM13,18h1v1h-1z" fill="#0065b3" opacity="0.67"/>
  <path d="M59,2h1v1h-1zM42,8h1v1h-1z" fill="#0063b1" opacity="0.29"/>
  <path d="M60,2h1v1h-1zM22,16h1v1h-1zM41,17h1v1h-1z" fill="#0066b3" opacity="0.04"/>
  <path d="M63,2h1v1h-1zM48,3h1v1h-1zM45,6h1v1h-1zM63,16h1v1h-1z" fill="#0066b2" opacity="0.93"/>
  <path d="M71,2h1v1h-1zM16,11h1v1h-1zM62,16h1v1h-1zM35,19h1v1h-1z" fill="#0066b2" opacity="0.99"/>
  <path d="M72,2h1v1h-1zM56,17h1v1h-1z" fill="#0065b1" opacity="0.40"/>
  <path d="M148,2h1v1h-1z" fill="#00a5b1" opacity="0.32"/>
  <path d="M149,2h1v1h-1zM150,2h1v1h-1zM151,2h1v1h-1zM136,11h1v1h-1zM144,19h1v1h-1z" fill="#00a6b3" opacity="0.38"/>
  <path d="M152,2h1v1h-1z" fill="#00a6b2" opacity="0.35"/>
  <path d="M14,3h1v1h-1z" fill="#0064b0" opacity="0.42"/>
  <path d="M20,3h1v1h-1z" fill="#0064b4" opacity="0.48"/>
  <path d="M29,3h1v1h-1z" fill="#0064b2" opacity="0.13"/>
  <path d="M30,3h1v1h-1zM13,14h1v1h-1zM67,19h1v1h-1z" fill="#0065b2" opacity="0.91"/>
  <path d="M42,3h1v1h-1z" fill="#0066b4" opacity="0.87"/>
  <path d="M49,3h1v1h-1zM58,5h1v1h-1zM55,6h1v1h-1zM5,8h1v1h-1zM10,8h1v1h-1zM61,9h1v1h-1zM64,11h1v1h-1zM59,13h1v1h-1zM17,14h1v1h-1zM48,14h1v1h-1zM57,17h1v1h-1zM53,19h1v1h-1z" fill="#0066b3" opacity="0.99"/>
  <path d="M59,3h1v1h-1zM16,13h1v1h-1zM36,19h1v1h-1z" fill="#0066b2" opacity="0.98"/>
  <path d="M60,3h1v1h-1z" fill="#0066b3" opacity="0.50"/>
  <path d="M62,3h1v1h-1z" fill="#0066b2" opacity="0.39"/>
  <path d="M72,3h1v1h-1z" fill="#0065b4" opacity="0.42"/>
  <path d="M148,3h1v1h-1zM156,7h1v1h-1zM114,14h1v1h-1zM131,15h1v1h-1zM116,16h1v1h-1z" fill="#00a6b4" opacity="0.95"/>
  <path d="M149,3h1v1h-1zM150,3h1v1h-1zM151,3h1v1h-1zM84,7h1v1h-1zM108,7h1v1h-1zM109,7h1v1h-1zM140,7h1v1h-1zM78,8h1v1h-1zM86,8h1v1h-1zM113,8h1v1h-1zM133,9h1v1h-1zM137,9h1v1h-1zM140,9h1v1h-1zM121,10h1v1h-1zM83,12h1v1h-1zM110,13h1v1h-1zM140,13h1v1h-1zM155,14h1v1h-1zM78,16h1v1h-1zM92,17h1v1h-1zM116,17h1v1h-1zM125,17h1v1h-1zM131,18h1v1h-1zM140,18h1v1h-1zM84,19h1v1h-1zM97,20h1v1h-1z" fill="#00a6b4" opacity="0.99"/>
  <path d="M152,3h1v1h-1z" fill="#00a5b4" opacity="0.79"/>
  <path d="M1,4h1v1h-1z" fill="#0063b0" opacity="0.35"/>
  <path d="M7,4h1v1h-1z" fill="#0062ac" opacity="0.13"/>
  <path d="M14,4h1v1h-1z" fill="#0065b4" opacity="0.66"/>
  <path d="M20,4h1v1h-1z" fill="#0065b5" opacity="0.15"/>
  <path d="M21,4h1v1h-1zM53,15h1v1h-1zM19,20h1v1h-1z" fill="#0065b2" opacity="0.51"/>
  <path d="M29,4h1v1h-1z" fill="#0064b2" opacity="0.48"/>
  <path d="M43,4h1v1h-1z" fill="#0067b3" opacity="0.30"/>
  <path d="M47,4h1v1h-1zM61,6h1v1h-1zM6,13h1v1h-1zM32,14h1v1h-1z" fill="#0066b2" opacity="0.94"/>
  <path d="M59,4h1v1h-1zM8,8h1v1h-1z" fill="#0066b3" opacity="0.91"/>
  <path d="M60,4h1v1h-1zM3,10h1v1h-1zM20,20h1v1h-1zM10,22h1v1h-1z" fill="#005ba4" opacity="0.05"/>
  <path d="M61,4h1v1h-1z" fill="#004db3" opacity="0.04"/>
  <path d="M62,4h1v1h-1zM61,8h1v1h-1zM17,11h1v1h-1zM9,13h1v1h-1z" fill="#0066b3" opacity="0.87"/>
  <path d="M147,4h1v1h-1zM138,10h1v1h-1zM146,11h1v1h-1z" fill="#00a3b1" opacity="0.14"/>
  <path d="M148,4h1v1h-1zM149,4h1v1h-1zM150,4h1v1h-1zM151,4h1v1h-1zM148,5h1v1h-1zM149,5h1v1h-1zM150,5h1v1h-1zM151,5h1v1h-1zM148,6h1v1h-1zM149,6h1v1h-1zM150,6h1v1h-1zM80,7h1v1h-1zM81,7h1v1h-1zM82,7h1v1h-1zM83,7h1v1h-1zM148,7h1v1h-1zM149,7h1v1h-1zM150,7h1v1h-1zM79,8h1v1h-1zM80,8h1v1h-1zM81,8h1v1h-1zM82,8h1v1h-1zM83,8h1v1h-1zM84,8h1v1h-1zM85,8h1v1h-1zM89,8h1v1h-1zM90,8h1v1h-1zM91,8h1v1h-1zM92,8h1v1h-1zM98,8h1v1h-1zM99,8h1v1h-1zM100,8h1v1h-1zM101,8h1v1h-1zM105,8h1v1h-1zM106,8h1v1h-1zM107,8h1v1h-1zM108,8h1v1h-1zM109,8h1v1h-1zM110,8h1v1h-1zM111,8h1v1h-1zM112,8h1v1h-1zM118,8h1v1h-1zM119,8h1v1h-1zM120,8h1v1h-1zM124,8h1v1h-1zM127,8h1v1h-1zM128,8h1v1h-1zM129,8h1v1h-1zM130,8h1v1h-1zM135,8h1v1h-1zM136,8h1v1h-1zM137,8h1v1h-1zM138,8h1v1h-1zM139,8h1v1h-1zM140,8h1v1h-1zM141,8h1v1h-1zM142,8h1v1h-1zM148,8h1v1h-1zM149,8h1v1h-1zM150,8h1v1h-1zM154,8h1v1h-1zM155,8h1v1h-1zM156,8h1v1h-1zM157,8h1v1h-1zM77,9h1v1h-1zM78,9h1v1h-1zM79,9h1v1h-1zM80,9h1v1h-1zM85,9h1v1h-1zM86,9h1v1h-1zM90,9h1v1h-1zM91,9h1v1h-1zM92,9h1v1h-1zM98,9h1v1h-1zM99,9h1v1h-1zM100,9h1v1h-1zM104,9h1v1h-1zM105,9h1v1h-1zM106,9h1v1h-1zM107,9h1v1h-1zM111,9h1v1h-1zM112,9h1v1h-1zM113,9h1v1h-1zM114,9h1v1h-1zM118,9h1v1h-1zM119,9h1v1h-1zM120,9h1v1h-1zM123,9h1v1h-1zM124,9h1v1h-1zM127,9h1v1h-1zM128,9h1v1h-1zM129,9h1v1h-1zM130,9h1v1h-1zM134,9h1v1h-1zM135,9h1v1h-1zM136,9h1v1h-1zM141,9h1v1h-1zM142,9h1v1h-1zM143,9h1v1h-1zM144,9h1v1h-1zM148,9h1v1h-1zM149,9h1v1h-1zM150,9h1v1h-1zM153,9h1v1h-1zM154,9h1v1h-1zM155,9h1v1h-1zM156,9h1v1h-1zM157,9h1v1h-1zM158,9h1v1h-1zM77,10h1v1h-1zM78,10h1v1h-1zM79,10h1v1h-1zM80,10h1v1h-1zM90,10h1v1h-1zM91,10h1v1h-1zM92,10h1v1h-1zM98,10h1v1h-1zM99,10h1v1h-1zM100,10h1v1h-1zM103,10h1v1h-1zM104,10h1v1h-1zM105,10h1v1h-1zM112,10h1v1h-1zM113,10h1v1h-1zM114,10h1v1h-1zM118,10h1v1h-1zM119,10h1v1h-1zM120,10h1v1h-1zM122,10h1v1h-1zM123,10h1v1h-1zM124,10h1v1h-1zM127,10h1v1h-1zM128,10h1v1h-1zM129,10h1v1h-1zM133,10h1v1h-1zM134,10h1v1h-1zM135,10h1v1h-1zM136,10h1v1h-1zM141,10h1v1h-1zM142,10h1v1h-1zM143,10h1v1h-1zM144,10h1v1h-1zM148,10h1v1h-1zM149,10h1v1h-1zM150,10h1v1h-1zM151,10h1v1h-1zM152,10h1v1h-1zM154,10h1v1h-1zM155,10h1v1h-1zM156,10h1v1h-1zM157,10h1v1h-1zM158,10h1v1h-1zM159,10h1v1h-1zM77,11h1v1h-1zM78,11h1v1h-1zM79,11h1v1h-1zM80,11h1v1h-1zM91,11h1v1h-1zM92,11h1v1h-1zM93,11h1v1h-1zM97,11h1v1h-1zM98,11h1v1h-1zM99,11h1v1h-1zM112,11h1v1h-1zM113,11h1v1h-1zM114,11h1v1h-1zM118,11h1v1h-1zM119,11h1v1h-1zM120,11h1v1h-1zM121,11h1v1h-1zM127,11h1v1h-1zM128,11h1v1h-1zM129,11h1v1h-1zM141,11h1v1h-1zM142,11h1v1h-1zM143,11h1v1h-1zM144,11h1v1h-1zM147,11h1v1h-1zM148,11h1v1h-1zM149,11h1v1h-1zM150,11h1v1h-1zM156,11h1v1h-1zM157,11h1v1h-1zM158,11h1v1h-1zM77,12h1v1h-1zM78,12h1v1h-1zM79,12h1v1h-1zM80,12h1v1h-1zM81,12h1v1h-1zM82,12h1v1h-1zM91,12h1v1h-1zM92,12h1v1h-1zM93,12h1v1h-1zM97,12h1v1h-1zM98,12h1v1h-1zM99,12h1v1h-1zM111,12h1v1h-1zM112,12h1v1h-1zM113,12h1v1h-1zM114,12h1v1h-1zM118,12h1v1h-1zM119,12h1v1h-1zM120,12h1v1h-1zM121,12h1v1h-1zM127,12h1v1h-1zM128,12h1v1h-1zM129,12h1v1h-1zM141,12h1v1h-1zM142,12h1v1h-1zM143,12h1v1h-1zM144,12h1v1h-1zM147,12h1v1h-1zM148,12h1v1h-1zM149,12h1v1h-1zM150,12h1v1h-1zM156,12h1v1h-1zM157,12h1v1h-1zM158,12h1v1h-1zM78,13h1v1h-1zM79,13h1v1h-1zM80,13h1v1h-1zM81,13h1v1h-1zM82,13h1v1h-1zM83,13h1v1h-1zM84,13h1v1h-1zM85,13h1v1h-1zM86,13h1v1h-1zM91,13h1v1h-1zM92,13h1v1h-1zM93,13h1v1h-1zM94,13h1v1h-1zM96,13h1v1h-1zM97,13h1v1h-1zM98,13h1v1h-1zM99,13h1v1h-1zM107,13h1v1h-1zM108,13h1v1h-1zM111,13h1v1h-1zM112,13h1v1h-1zM113,13h1v1h-1zM114,13h1v1h-1zM117,13h1v1h-1zM118,13h1v1h-1zM119,13h1v1h-1zM120,13h1v1h-1zM127,13h1v1h-1zM128,13h1v1h-1zM129,13h1v1h-1zM136,13h1v1h-1zM137,13h1v1h-1zM138,13h1v1h-1zM141,13h1v1h-1zM142,13h1v1h-1zM143,13h1v1h-1zM144,13h1v1h-1zM147,13h1v1h-1zM148,13h1v1h-1zM149,13h1v1h-1zM156,13h1v1h-1zM157,13h1v1h-1zM158,13h1v1h-1zM79,14h1v1h-1zM80,14h1v1h-1zM81,14h1v1h-1zM82,14h1v1h-1zM83,14h1v1h-1zM84,14h1v1h-1zM85,14h1v1h-1zM86,14h1v1h-1zM91,14h1v1h-1zM92,14h1v1h-1zM93,14h1v1h-1zM94,14h1v1h-1zM96,14h1v1h-1zM97,14h1v1h-1zM98,14h1v1h-1zM99,14h1v1h-1zM103,14h1v1h-1zM104,14h1v1h-1zM105,14h1v1h-1zM106,14h1v1h-1zM111,14h1v1h-1zM112,14h1v1h-1zM113,14h1v1h-1zM117,14h1v1h-1zM118,14h1v1h-1zM119,14h1v1h-1zM120,14h1v1h-1zM126,14h1v1h-1zM127,14h1v1h-1zM128,14h1v1h-1zM133,14h1v1h-1zM134,14h1v1h-1zM135,14h1v1h-1zM136,14h1v1h-1zM141,14h1v1h-1zM142,14h1v1h-1zM143,14h1v1h-1zM144,14h1v1h-1zM147,14h1v1h-1zM148,14h1v1h-1zM149,14h1v1h-1zM156,14h1v1h-1zM157,14h1v1h-1zM158,14h1v1h-1zM84,15h1v1h-1zM85,15h1v1h-1zM86,15h1v1h-1zM87,15h1v1h-1zM92,15h1v1h-1zM93,15h1v1h-1zM94,15h1v1h-1zM95,15h1v1h-1zM96,15h1v1h-1zM97,15h1v1h-1zM98,15h1v1h-1zM102,15h1v1h-1zM103,15h1v1h-1zM104,15h1v1h-1zM111,15h1v1h-1zM112,15h1v1h-1zM113,15h1v1h-1zM117,15h1v1h-1zM118,15h1v1h-1zM119,15h1v1h-1zM126,15h1v1h-1zM127,15h1v1h-1zM128,15h1v1h-1zM132,15h1v1h-1zM133,15h1v1h-1zM134,15h1v1h-1zM141,15h1v1h-1zM142,15h1v1h-1zM143,15h1v1h-1zM147,15h1v1h-1zM148,15h1v1h-1zM149,15h1v1h-1zM155,15h1v1h-1zM156,15h1v1h-1zM157,15h1v1h-1zM85,16h1v1h-1zM86,16h1v1h-1zM87,16h1v1h-1zM92,16h1v1h-1zM93,16h1v1h-1zM94,16h1v1h-1zM95,16h1v1h-1zM96,16h1v1h-1zM97,16h1v1h-1zM98,16h1v1h-1zM101,16h1v1h-1zM102,16h1v1h-1zM103,16h1v1h-1zM104,16h1v1h-1zM110,16h1v1h-1zM111,16h1v1h-1zM112,16h1v1h-1zM113,16h1v1h-1zM117,16h1v1h-1zM118,16h1v1h-1zM119,16h1v1h-1zM126,16h1v1h-1zM127,16h1v1h-1zM128,16h1v1h-1zM131,16h1v1h-1zM132,16h1v1h-1zM133,16h1v1h-1zM134,16h1v1h-1zM140,16h1v1h-1zM141,16h1v1h-1zM142,16h1v1h-1zM143,16h1v1h-1zM147,16h1v1h-1zM148,16h1v1h-1zM149,16h1v1h-1zM155,16h1v1h-1zM156,16h1v1h-1zM157,16h1v1h-1zM76,17h1v1h-1zM77,17h1v1h-1zM78,17h1v1h-1zM84,17h1v1h-1zM85,17h1v1h-1zM86,17h1v1h-1zM93,17h1v1h-1zM94,17h1v1h-1zM95,17h1v1h-1zM96,17h1v1h-1zM97,17h1v1h-1zM101,17h1v1h-1zM102,17h1v1h-1zM103,17h1v1h-1zM104,17h1v1h-1zM110,17h1v1h-1zM111,17h1v1h-1zM112,17h1v1h-1zM113,17h1v1h-1zM117,17h1v1h-1zM118,17h1v1h-1zM119,17h1v1h-1zM126,17h1v1h-1zM127,17h1v1h-1zM128,17h1v1h-1zM131,17h1v1h-1zM132,17h1v1h-1zM133,17h1v1h-1zM134,17h1v1h-1zM140,17h1v1h-1zM141,17h1v1h-1zM142,17h1v1h-1zM143,17h1v1h-1zM147,17h1v1h-1zM148,17h1v1h-1zM149,17h1v1h-1zM155,17h1v1h-1zM156,17h1v1h-1zM157,17h1v1h-1zM77,18h1v1h-1zM78,18h1v1h-1zM79,18h1v1h-1zM80,18h1v1h-1zM81,18h1v1h-1zM82,18h1v1h-1zM83,18h1v1h-1zM84,18h1v1h-1zM85,18h1v1h-1zM93,18h1v1h-1zM94,18h1v1h-1zM95,18h1v1h-1zM96,18h1v1h-1zM97,18h1v1h-1zM102,18h1v1h-1zM103,18h1v1h-1zM104,18h1v1h-1zM105,18h1v1h-1zM106,18h1v1h-1zM107,18h1v1h-1zM110,18h1v1h-1zM111,18h1v1h-1zM112,18h1v1h-1zM113,18h1v1h-1zM116,18h1v1h-1zM117,18h1v1h-1zM118,18h1v1h-1zM119,18h1v1h-1zM125,18h1v1h-1zM126,18h1v1h-1zM127,18h1v1h-1zM128,18h1v1h-1zM132,18h1v1h-1zM133,18h1v1h-1zM134,18h1v1h-1zM135,18h1v1h-1zM136,18h1v1h-1zM137,18h1v1h-1zM141,18h1v1h-1zM142,18h1v1h-1zM143,18h1v1h-1zM146,18h1v1h-1zM147,18h1v1h-1zM148,18h1v1h-1zM149,18h1v1h-1zM154,18h1v1h-1zM155,18h1v1h-1zM156,18h1v1h-1zM157,18h1v1h-1zM79,19h1v1h-1zM80,19h1v1h-1zM81,19h1v1h-1zM82,19h1v1h-1zM83,19h1v1h-1zM93,19h1v1h-1zM94,19h1v1h-1zM95,19h1v1h-1zM96,19h1v1h-1zM97,19h1v1h-1zM103,19h1v1h-1zM104,19h1v1h-1zM105,19h1v1h-1zM106,19h1v1h-1zM116,19h1v1h-1zM117,19h1v1h-1zM118,19h1v1h-1zM119,19h1v1h-1zM125,19h1v1h-1zM126,19h1v1h-1zM127,19h1v1h-1zM128,19h1v1h-1zM133,19h1v1h-1zM134,19h1v1h-1zM135,19h1v1h-1zM141,19h1v1h-1zM142,19h1v1h-1zM143,19h1v1h-1zM146,19h1v1h-1zM147,19h1v1h-1zM148,19h1v1h-1zM154,19h1v1h-1zM155,19h1v1h-1zM156,19h1v1h-1zM157,19h1v1h-1zM94,20h1v1h-1zM95,20h1v1h-1zM96,20h1v1h-1zM94,21h1v1h-1zM95,21h1v1h-1zM96,21h1v1h-1zM94,22h1v1h-1zM95,22h1v1h-1zM96,22h1v1h-1zM93,23h1v1h-1zM94,23h1v1h-1zM95,23h1v1h-1zM96,23h1v1h-1zM90,24h1v1h-1zM91,24h1v1h-1zM92,24h1v1h-1zM93,24h1v1h-1zM94,24h1v1h-1zM95,24h1v1h-1zM90,25h1v1h-1zM91,25h1v1h-1zM92,25h1v1h-1zM93,25h1v1h-1zM94,25h1v1h-1zM90,26h1v1h-1zM91,26h1v1h-1z" fill="#00a6b4" opacity="1.00"/>
  <path d="M152,4h1v1h-1zM147,7h1v1h-1z" fill="#00a6b5" opacity="0.53"/>
  <path d="M0,5h1v1h-1zM17,7h1v1h-1zM56,16h1v1h-1z" fill="#0065b2" opacity="0.21"/>
  <path d="M1,5h1v1h-1z" fill="#0063b1" opacity="0.19"/>
  <path d="M7,5h1v1h-1z" fill="#0062b3" opacity="0.18"/>
  <path d="M14,5h1v1h-1z" fill="#0066b3" opacity="0.71"/>
  <path d="M21,5h1v1h-1zM43,16h1v1h-1zM39,18h1v1h-1z" fill="#0065b3" opacity="0.64"/>
  <path d="M28,5h1v1h-1zM5,21h1v1h-1z" fill="#005ab4" opacity="0.07"/>
  <path d="M43,5h1v1h-1zM41,16h1v1h-1z" fill="#0065b4" opacity="0.38"/>
  <path d="M45,5h1v1h-1z" fill="#0063b1" opacity="0.46"/>
  <path d="M59,5h1v1h-1z" fill="#0065b6" opacity="0.25"/>
  <path d="M61,5h1v1h-1zM4,8h1v1h-1z" fill="#0065b2" opacity="0.64"/>
  <path d="M147,5h1v1h-1zM106,20h1v1h-1z" fill="#00a4b2" opacity="0.29"/>
  <path d="M152,5h1v1h-1z" fill="#00a4b5" opacity="0.30"/>
  <path d="M0,6h1v1h-1z" fill="#0064b0" opacity="0.37"/>
  <path d="M1,6h1v1h-1z" fill="#0068b3" opacity="0.11"/>
  <path d="M8,6h1v1h-1zM41,14h1v1h-1z" fill="#0066b2" opacity="0.84"/>
  <path d="M21,6h1v1h-1z" fill="#0065b5" opacity="0.33"/>
  <path d="M22,6h1v1h-1zM3,12h1v1h-1z" fill="#0060b0" opacity="0.18"/>
  <path d="M34,6h1v1h-1zM39,10h1v1h-1z" fill="#0066b4" opacity="0.94"/>
  <path d="M35,6h1v1h-1zM36,6h1v1h-1z" fill="#0064b2" opacity="0.44"/>
  <path d="M37,6h1v1h-1zM37,19h1v1h-1z" fill="#0065b2" opacity="0.70"/>
  <path d="M43,6h1v1h-1z" fill="#0064b2" opacity="0.35"/>
  <path d="M44,6h1v1h-1z" fill="#0060b5" opacity="0.19"/>
  <path d="M52,6h1v1h-1zM38,7h1v1h-1zM42,7h1v1h-1z" fill="#0066b3" opacity="0.97"/>
  <path d="M53,6h1v1h-1z" fill="#0065b3" opacity="0.90"/>
  <path d="M54,6h1v1h-1zM43,15h1v1h-1z" fill="#0066b3" opacity="0.93"/>
  <path d="M58,6h1v1h-1zM62,17h1v1h-1zM14,21h1v1h-1z" fill="#0066b2" opacity="0.78"/>
  <path d="M59,6h1v1h-1zM55,7h1v1h-1zM27,12h1v1h-1z" fill="#0066aa" opacity="0.06"/>
  <path d="M60,6h1v1h-1z" fill="#0067b1" opacity="0.20"/>
  <path d="M80,6h1v1h-1zM115,13h1v1h-1zM88,26h1v1h-1z" fill="#00a3b2" opacity="0.20"/>
  <path d="M81,6h1v1h-1z" fill="#00a5b3" opacity="0.37"/>
  <path d="M82,6h1v1h-1zM91,17h1v1h-1z" fill="#00a5b2" opacity="0.38"/>
  <path d="M83,6h1v1h-1z" fill="#00a2b2" opacity="0.25"/>
  <path d="M84,6h1v1h-1zM105,12h1v1h-1zM159,18h1v1h-1z" fill="#00a4b6" opacity="0.05"/>
  <path d="M124,6h1v1h-1z" fill="#00a2a2" opacity="0.04"/>
  <path d="M125,6h1v1h-1zM145,15h1v1h-1z" fill="#00a1b2" opacity="0.12"/>
  <path d="M147,6h1v1h-1z" fill="#00a6b2" opacity="0.40"/>
  <path d="M151,6h1v1h-1zM110,7h1v1h-1zM138,7h1v1h-1zM139,7h1v1h-1zM143,8h1v1h-1zM152,9h1v1h-1zM153,10h1v1h-1zM90,11h1v1h-1zM117,12h1v1h-1zM140,12h1v1h-1zM126,13h1v1h-1zM139,13h1v1h-1zM108,18h1v1h-1zM138,18h1v1h-1zM102,19h1v1h-1zM92,23h1v1h-1z" fill="#00a5b3" opacity="0.99"/>
  <path d="M152,6h1v1h-1zM135,12h1v1h-1z" fill="#00a6b1" opacity="0.09"/>
  <path d="M4,7h1v1h-1zM3,9h1v1h-1zM47,20h1v1h-1z" fill="#0055aa" opacity="0.06"/>
  <path d="M5,7h1v1h-1z" fill="#0065b2" opacity="0.57"/>
  <path d="M6,7h1v1h-1zM40,9h1v1h-1zM40,11h1v1h-1zM64,12h1v1h-1zM58,14h1v1h-1z" fill="#0065b2" opacity="0.94"/>
  <path d="M7,7h1v1h-1z" fill="#0067b2" opacity="0.78"/>
  <path d="M9,7h1v1h-1zM41,8h1v1h-1zM43,10h1v1h-1zM72,18h1v1h-1z" fill="#0065b3" opacity="0.97"/>
  <path d="M13,7h1v1h-1zM4,14h1v1h-1z" fill="#0066b3" opacity="0.89"/>
  <path d="M16,7h1v1h-1z" fill="#0066b2" opacity="0.85"/>
  <path d="M21,7h1v1h-1zM36,13h1v1h-1zM1,15h1v1h-1z" fill="#0063b1" opacity="0.14"/>
  <path d="M28,7h1v1h-1z" fill="#0069b1" opacity="0.15"/>
  <path d="M29,7h1v1h-1zM11,14h1v1h-1zM11,15h1v1h-1z" fill="#0065b3" opacity="0.59"/>
  <path d="M34,7h1v1h-1zM18,13h1v1h-1zM72,14h1v1h-1zM50,15h1v1h-1z" fill="#0065b3" opacity="0.75"/>
  <path d="M37,7h1v1h-1zM42,13h1v1h-1z" fill="#0064b2" opacity="0.26"/>
  <path d="M43,7h1v1h-1zM12,19h1v1h-1zM53,20h1v1h-1z" fill="#0060b3" opacity="0.15"/>
  <path d="M44,7h1v1h-1z" fill="#0065b4" opacity="0.96"/>
  <path d="M50,7h1v1h-1z" fill="#0066b4" opacity="0.83"/>
  <path d="M51,7h1v1h-1z" fill="#0063b6" opacity="0.23"/>
  <path d="M56,7h1v1h-1zM11,21h1v1h-1z" fill="#0064b2" opacity="0.61"/>
  <path d="M57,7h1v1h-1zM36,15h1v1h-1z" fill="#0065b3" opacity="0.96"/>
  <path d="M60,7h1v1h-1z" fill="#005bb6" opacity="0.05"/>
  <path d="M61,7h1v1h-1z" fill="#0066b2" opacity="0.40"/>
  <path d="M66,7h1v1h-1zM49,15h1v1h-1z" fill="#0065b3" opacity="0.99"/>
  <path d="M72,7h1v1h-1zM20,18h1v1h-1z" fill="#0065b4" opacity="0.43"/>
  <path d="M78,7h1v1h-1zM159,8h1v1h-1zM159,14h1v1h-1zM105,16h1v1h-1z" fill="#00a5b4" opacity="0.48"/>
  <path d="M79,7h1v1h-1zM95,14h1v1h-1zM89,26h1v1h-1z" fill="#00a7b4" opacity="0.97"/>
  <path d="M85,7h1v1h-1zM158,18h1v1h-1z" fill="#00a6b4" opacity="0.84"/>
  <path d="M86,7h1v1h-1z" fill="#00a3b0" opacity="0.23"/>
  <path d="M88,7h1v1h-1z" fill="#00a5b5" opacity="0.73"/>
  <path d="M89,7h1v1h-1zM90,7h1v1h-1zM91,7h1v1h-1zM92,7h1v1h-1zM98,7h1v1h-1zM99,7h1v1h-1zM100,7h1v1h-1zM101,7h1v1h-1z" fill="#00a5b3" opacity="0.89"/>
  <path d="M93,7h1v1h-1z" fill="#009eaa" opacity="0.08"/>
  <path d="M97,7h1v1h-1zM131,8h1v1h-1zM116,11h1v1h-1zM145,13h1v1h-1zM79,20h1v1h-1z" fill="#00a4b3" opacity="0.26"/>
  <path d="M102,7h1v1h-1z" fill="#00a5b4" opacity="0.61"/>
  <path d="M104,7h1v1h-1zM153,11h1v1h-1zM88,17h1v1h-1z" fill="#00a6b3" opacity="0.08"/>
  <path d="M105,7h1v1h-1zM144,17h1v1h-1z" fill="#00a6b5" opacity="0.40"/>
  <path d="M106,7h1v1h-1z" fill="#00a6b4" opacity="0.88"/>
  <path d="M107,7h1v1h-1zM124,7h1v1h-1zM137,7h1v1h-1zM141,7h1v1h-1zM84,9h1v1h-1zM106,10h1v1h-1zM111,10h1v1h-1zM111,11h1v1h-1zM84,12h1v1h-1zM110,12h1v1h-1zM129,14h1v1h-1zM109,17h1v1h-1zM146,17h1v1h-1zM132,19h1v1h-1zM89,25h1v1h-1zM92,26h1v1h-1z" fill="#00a6b4" opacity="0.98"/>
  <path d="M111,7h1v1h-1zM97,10h1v1h-1zM117,11h1v1h-1zM150,13h1v1h-1zM83,15h1v1h-1zM149,19h1v1h-1z" fill="#00a5b4" opacity="0.98"/>
  <path d="M112,7h1v1h-1z" fill="#00a5b3" opacity="0.83"/>
  <path d="M113,7h1v1h-1z" fill="#00a3b1" opacity="0.28"/>
  <path d="M114,7h1v1h-1z" fill="#00aabb" opacity="0.06"/>
  <path d="M117,7h1v1h-1zM145,11h1v1h-1z" fill="#00a4b3" opacity="0.54"/>
  <path d="M118,7h1v1h-1zM119,7h1v1h-1zM120,7h1v1h-1zM127,7h1v1h-1zM128,7h1v1h-1zM129,7h1v1h-1zM130,7h1v1h-1zM136,7h1v1h-1zM109,9h1v1h-1z" fill="#00a5b3" opacity="0.91"/>
  <path d="M121,7h1v1h-1z" fill="#00a4b3" opacity="0.91"/>
  <path d="M122,7h1v1h-1z" fill="#00aab8" opacity="0.07"/>
  <path d="M123,7h1v1h-1z" fill="#00a5b4" opacity="0.64"/>
  <path d="M125,7h1v1h-1z" fill="#00a6b5" opacity="0.97"/>
  <path d="M126,7h1v1h-1z" fill="#00a6b2" opacity="0.57"/>
  <path d="M131,7h1v1h-1zM137,10h1v1h-1z" fill="#00a5b4" opacity="0.47"/>
  <path d="M134,7h1v1h-1z" fill="#009ba6" opacity="0.09"/>
  <path d="M135,7h1v1h-1zM99,16h1v1h-1z" fill="#00a4b3" opacity="0.47"/>
  <path d="M142,7h1v1h-1zM81,11h1v1h-1z" fill="#00a6b4" opacity="0.86"/>
  <path d="M143,7h1v1h-1z" fill="#00a8b4" opacity="0.32"/>
  <path d="M144,7h1v1h-1zM150,19h1v1h-1z" fill="#0095aa" opacity="0.05"/>
  <path d="M151,7h1v1h-1z" fill="#00a6b3" opacity="0.90"/>
  <path d="M153,7h1v1h-1z" fill="#009caa" opacity="0.07"/>
  <path d="M154,7h1v1h-1z" fill="#00a3b3" opacity="0.36"/>
  <path d="M155,7h1v1h-1z" fill="#00a7b3" opacity="0.86"/>
  <path d="M157,7h1v1h-1zM138,17h1v1h-1zM90,23h1v1h-1z" fill="#00a6b4" opacity="0.78"/>
  <path d="M158,7h1v1h-1z" fill="#00a9b6" opacity="0.23"/>
  <path d="M0,8h1v1h-1zM21,16h1v1h-1zM16,18h1v1h-1z" fill="#0064b2" opacity="0.57"/>
  <path d="M9,8h1v1h-1z" fill="#0065b1" opacity="0.58"/>
  <path d="M12,8h1v1h-1z" fill="#0066b2" opacity="0.83"/>
  <path d="M13,8h1v1h-1z" fill="#0065b1" opacity="0.73"/>
  <path d="M14,8h1v1h-1zM4,9h1v1h-1zM8,14h1v1h-1z" fill="#0066b3" opacity="0.98"/>
  <path d="M17,8h1v1h-1zM14,12h1v1h-1zM56,18h1v1h-1z" fill="#0066b2" opacity="0.96"/>
  <path d="M18,8h1v1h-1zM22,13h1v1h-1z" fill="#0063b1" opacity="0.28"/>
  <path d="M21,8h1v1h-1z" fill="#005dae" opacity="0.09"/>
  <path d="M29,8h1v1h-1z" fill="#0065b2" opacity="0.82"/>
  <path d="M34,8h1v1h-1zM7,15h1v1h-1zM9,18h1v1h-1zM10,18h1v1h-1z" fill="#0064b3" opacity="0.34"/>
  <path d="M37,8h1v1h-1z" fill="#0066b3" opacity="0.62"/>
  <path d="M43,8h1v1h-1z" fill="#0065b2" opacity="0.47"/>
  <path d="M49,8h1v1h-1zM17,12h1v1h-1z" fill="#0065b2" opacity="0.62"/>
  <path d="M50,8h1v1h-1zM15,20h1v1h-1z" fill="#005db9" opacity="0.04"/>
  <path d="M57,8h1v1h-1z" fill="#0062ae" opacity="0.22"/>
  <path d="M66,8h1v1h-1zM7,13h1v1h-1z" fill="#0065b2" opacity="0.74"/>
  <path d="M72,8h1v1h-1z" fill="#0066b2" opacity="0.43"/>
  <path d="M77,8h1v1h-1zM82,9h1v1h-1zM108,17h1v1h-1zM95,25h1v1h-1z" fill="#00a6b4" opacity="0.76"/>
  <path d="M87,8h1v1h-1z" fill="#00a4b4" opacity="0.58"/>
  <path d="M88,8h1v1h-1zM104,11h1v1h-1z" fill="#00a4b3" opacity="0.35"/>
  <path d="M93,8h1v1h-1z" fill="#00a6b4" opacity="0.44"/>
  <path d="M97,8h1v1h-1zM114,18h1v1h-1z" fill="#00a6b3" opacity="0.54"/>
  <path d="M102,8h1v1h-1z" fill="#00a1ae" opacity="0.15"/>
  <path d="M103,8h1v1h-1zM80,15h1v1h-1zM130,18h1v1h-1z" fill="#00a5b5" opacity="0.38"/>
  <path d="M104,8h1v1h-1zM146,14h1v1h-1z" fill="#00a5b3" opacity="0.87"/>
  <path d="M114,8h1v1h-1z" fill="#00a6b4" opacity="0.79"/>
  <path d="M115,8h1v1h-1z" fill="#0099b3" opacity="0.08"/>
  <path d="M117,8h1v1h-1z" fill="#00a5b5" opacity="0.79"/>
  <path d="M121,8h1v1h-1zM81,9h1v1h-1zM125,10h1v1h-1zM78,14h1v1h-1zM82,15h1v1h-1zM75,17h1v1h-1z" fill="#00a6b4" opacity="0.80"/>
  <path d="M122,8h1v1h-1zM76,10h1v1h-1z" fill="#00a6b4" opacity="0.65"/>
  <path d="M123,8h1v1h-1zM106,13h1v1h-1zM109,13h1v1h-1zM84,16h1v1h-1zM111,19h1v1h-1zM112,19h1v1h-1zM113,19h1v1h-1zM136,19h1v1h-1z" fill="#00a7b5" opacity="1.00"/>
  <path d="M125,8h1v1h-1zM90,12h1v1h-1zM139,12h1v1h-1zM105,13h1v1h-1z" fill="#00a6b3" opacity="0.95"/>
  <path d="M126,8h1v1h-1z" fill="#00a7b5" opacity="0.58"/>
  <path d="M133,8h1v1h-1z" fill="#00a4b3" opacity="0.41"/>
  <path d="M134,8h1v1h-1zM135,17h1v1h-1z" fill="#00a5b4" opacity="0.90"/>
  <path d="M144,8h1v1h-1zM99,15h1v1h-1z" fill="#00a5b3" opacity="0.79"/>
  <path d="M145,8h1v1h-1zM109,11h1v1h-1zM154,13h1v1h-1z" fill="#00a3ad" opacity="0.10"/>
  <path d="M147,8h1v1h-1z" fill="#00a6b3" opacity="0.68"/>
  <path d="M151,8h1v1h-1z" fill="#00a5b4" opacity="0.74"/>
  <path d="M152,8h1v1h-1z" fill="#00a6b3" opacity="0.30"/>
  <path d="M153,8h1v1h-1z" fill="#00a5b4" opacity="0.85"/>
  <path d="M158,8h1v1h-1zM135,13h1v1h-1zM87,14h1v1h-1zM132,14h1v1h-1zM146,16h1v1h-1zM79,17h1v1h-1zM98,17h1v1h-1zM86,18h1v1h-1zM78,19h1v1h-1zM107,19h1v1h-1z" fill="#00a6b4" opacity="0.97"/>
  <path d="M0,9h1v1h-1z" fill="#0064b1" opacity="0.54"/>
  <path d="M9,9h1v1h-1zM60,10h1v1h-1z" fill="#0066b2" opacity="0.86"/>
  <path d="M10,9h1v1h-1zM48,10h1v1h-1z" fill="#0065b3" opacity="0.72"/>
  <path d="M12,9h1v1h-1z" fill="#0066b3" opacity="0.67"/>
  <path d="M18,9h1v1h-1zM0,13h1v1h-1zM33,15h1v1h-1zM34,15h1v1h-1zM51,15h1v1h-1zM21,17h1v1h-1z" fill="#0065b3" opacity="0.55"/>
  <path d="M21,9h1v1h-1zM2,20h1v1h-1zM11,22h1v1h-1z" fill="#0060af" opacity="0.06"/>
  <path d="M22,9h1v1h-1zM10,19h1v1h-1z" fill="#0063b0" opacity="0.30"/>
  <path d="M34,9h1v1h-1z" fill="#0065b4" opacity="0.93"/>
  <path d="M35,9h1v1h-1zM32,15h1v1h-1z" fill="#0065b3" opacity="0.92"/>
  <path d="M36,9h1v1h-1zM65,10h1v1h-1zM5,11h1v1h-1z" fill="#0066b3" opacity="0.95"/>
  <path d="M41,9h1v1h-1z" fill="#0065b1" opacity="0.41"/>
  <path d="M48,9h1v1h-1zM28,13h1v1h-1z" fill="#0066b2" opacity="0.91"/>
  <path d="M49,9h1v1h-1zM4,15h1v1h-1z" fill="#0062b1" opacity="0.15"/>
  <path d="M60,9h1v1h-1z" fill="#0065b3" opacity="0.40"/>
  <path d="M66,9h1v1h-1zM6,15h1v1h-1z" fill="#0066b2" opacity="0.44"/>
  <path d="M72,9h1v1h-1z" fill="#0064b4" opacity="0.45"/>
  <path d="M76,9h1v1h-1zM87,13h1v1h-1zM137,17h1v1h-1z" fill="#00a6b3" opacity="0.53"/>
  <path d="M83,9h1v1h-1z" fill="#00a5b3" opacity="0.82"/>
  <path d="M87,9h1v1h-1zM110,9h1v1h-1zM122,9h1v1h-1zM102,14h1v1h-1zM158,15h1v1h-1zM139,17h1v1h-1zM93,20h1v1h-1zM93,22h1v1h-1z" fill="#00a6b3" opacity="0.99"/>
  <path d="M88,9h1v1h-1z" fill="#00a4b2" opacity="0.22"/>
  <path d="M89,9h1v1h-1zM103,9h1v1h-1zM93,10h1v1h-1zM158,16h1v1h-1z" fill="#00a5b4" opacity="0.95"/>
  <path d="M93,9h1v1h-1z" fill="#00a6b4" opacity="0.62"/>
  <path d="M97,9h1v1h-1zM92,19h1v1h-1z" fill="#00a5b4" opacity="0.80"/>
  <path d="M101,9h1v1h-1zM116,15h1v1h-1z" fill="#00a5b3" opacity="0.85"/>
  <path d="M102,9h1v1h-1zM102,13h1v1h-1z" fill="#00a5b3" opacity="0.21"/>
  <path d="M108,9h1v1h-1zM155,11h1v1h-1zM146,15h1v1h-1z" fill="#00a5b3" opacity="0.95"/>
  <path d="M115,9h1v1h-1zM154,11h1v1h-1z" fill="#00a6b3" opacity="0.31"/>
  <path d="M117,9h1v1h-1zM85,12h1v1h-1zM105,15h1v1h-1z" fill="#00a6b4" opacity="0.91"/>
  <path d="M121,9h1v1h-1z" fill="#00a5b5" opacity="0.70"/>
  <path d="M125,9h1v1h-1zM147,10h1v1h-1z" fill="#00a5b3" opacity="0.94"/>
  <path d="M126,9h1v1h-1z" fill="#00a6b3" opacity="0.61"/>
  <path d="M131,9h1v1h-1zM139,10h1v1h-1zM77,14h1v1h-1z" fill="#009eb0" opacity="0.11"/>
  <path d="M132,9h1v1h-1z" fill="#00a5b1" opacity="0.36"/>
  <path d="M138,9h1v1h-1zM110,15h1v1h-1zM98,18h1v1h-1zM137,19h1v1h-1z" fill="#00a5b3" opacity="0.93"/>
  <path d="M139,9h1v1h-1zM122,11h1v1h-1zM125,16h1v1h-1z" fill="#00a6b4" opacity="0.90"/>
  <path d="M145,9h1v1h-1zM146,12h1v1h-1z" fill="#00a7b5" opacity="0.42"/>
  <path d="M147,9h1v1h-1zM85,19h1v1h-1z" fill="#00a6b3" opacity="0.82"/>
  <path d="M151,9h1v1h-1zM159,9h1v1h-1zM155,13h1v1h-1z" fill="#00a6b4" opacity="0.92"/>
  <path d="M4,10h1v1h-1zM47,19h1v1h-1z" fill="#0065b4" opacity="0.98"/>
  <path d="M10,10h1v1h-1z" fill="#0064b2" opacity="0.72"/>
  <path d="M11,10h1v1h-1zM45,18h1v1h-1z" fill="#0065b3" opacity="0.89"/>
  <path d="M12,10h1v1h-1z" fill="#0065b3" opacity="0.71"/>
  <path d="M18,10h1v1h-1z" fill="#0064b1" opacity="0.55"/>
  <path d="M22,10h1v1h-1z" fill="#0066b1" opacity="0.33"/>
  <path d="M28,10h1v1h-1z" fill="#0064b5" opacity="0.35"/>
  <path d="M40,10h1v1h-1z" fill="#0064b2" opacity="0.22"/>
  <path d="M72,10h1v1h-1z" fill="#0065b3" opacity="0.49"/>
  <path d="M81,10h1v1h-1zM124,20h1v1h-1z" fill="#00a2b9" opacity="0.04"/>
  <path d="M83,10h1v1h-1zM137,15h1v1h-1zM98,20h1v1h-1z" fill="#009db1" opacity="0.05"/>
  <path d="M84,10h1v1h-1z" fill="#00a5b3" opacity="0.63"/>
  <path d="M85,10h1v1h-1z" fill="#00a6b3" opacity="0.75"/>
  <path d="M86,10h1v1h-1zM125,14h1v1h-1z" fill="#00a4b4" opacity="0.45"/>
  <path d="M87,10h1v1h-1zM84,11h1v1h-1z" fill="#00a6b6" opacity="0.26"/>
  <path d="M88,10h1v1h-1zM85,11h1v1h-1zM154,12h1v1h-1zM107,15h1v1h-1z" fill="#00a1ae" opacity="0.07"/>
  <path d="M89,10h1v1h-1z" fill="#00a4b3" opacity="0.57"/>
  <path d="M101,10h1v1h-1z" fill="#00a6b3" opacity="0.46"/>
  <path d="M102,10h1v1h-1zM138,12h1v1h-1zM134,13h1v1h-1z" fill="#00a6b4" opacity="0.85"/>
  <path d="M107,10h1v1h-1z" fill="#00a6b4" opacity="0.52"/>
  <path d="M108,10h1v1h-1zM154,14h1v1h-1z" fill="#00a4b0" opacity="0.16"/>
  <path d="M109,10h1v1h-1z" fill="#00a5b5" opacity="0.12"/>
  <path d="M110,10h1v1h-1z" fill="#00a6b3" opacity="0.45"/>
  <path d="M115,10h1v1h-1zM134,20h1v1h-1z" fill="#00a5b4" opacity="0.55"/>
  <path d="M116,10h1v1h-1zM139,11h1v1h-1zM145,14h1v1h-1z" fill="#00a7b7" opacity="0.13"/>
  <path d="M117,10h1v1h-1zM100,11h1v1h-1zM150,14h1v1h-1zM101,18h1v1h-1zM140,19h1v1h-1z" fill="#00a5b4" opacity="0.96"/>
  <path d="M126,10h1v1h-1zM76,16h1v1h-1zM81,17h1v1h-1zM89,24h1v1h-1z" fill="#00a6b4" opacity="0.72"/>
  <path d="M130,10h1v1h-1z" fill="#00a6b5" opacity="0.93"/>
  <path d="M131,10h1v1h-1z" fill="#00a2b9" opacity="0.09"/>
  <path d="M132,10h1v1h-1z" fill="#00a5b3" opacity="0.80"/>
  <path d="M140,10h1v1h-1z" fill="#00a5b3" opacity="0.51"/>
  <path d="M145,10h1v1h-1zM139,16h1v1h-1zM77,19h1v1h-1z" fill="#00a5b3" opacity="0.57"/>
  <path d="M10,11h1v1h-1z" fill="#0066b3" opacity="0.76"/>
  <path d="M11,11h1v1h-1z" fill="#0064b2" opacity="0.65"/>
  <path d="M12,11h1v1h-1zM54,18h1v1h-1z" fill="#0065b3" opacity="0.93"/>
  <path d="M22,11h1v1h-1z" fill="#0065b2" opacity="0.34"/>
  <path d="M28,11h1v1h-1z" fill="#0066b2" opacity="0.68"/>
  <path d="M42,11h1v1h-1zM27,13h1v1h-1z" fill="#0061b0" opacity="0.16"/>
  <path d="M48,11h1v1h-1z" fill="#0064b4" opacity="0.49"/>
  <path d="M59,11h1v1h-1z" fill="#0064b1" opacity="0.41"/>
  <path d="M65,11h1v1h-1zM17,15h1v1h-1zM26,18h1v1h-1z" fill="#0065b3" opacity="0.36"/>
  <path d="M72,11h1v1h-1zM49,20h1v1h-1z" fill="#0065b2" opacity="0.55"/>
  <path d="M76,11h1v1h-1z" fill="#00a6b3" opacity="0.69"/>
  <path d="M82,11h1v1h-1zM109,16h1v1h-1z" fill="#00a5b3" opacity="0.59"/>
  <path d="M83,11h1v1h-1z" fill="#00a7b4" opacity="0.38"/>
  <path d="M89,11h1v1h-1zM125,11h1v1h-1zM145,17h1v1h-1z" fill="#00a5b4" opacity="0.33"/>
  <path d="M94,11h1v1h-1z" fill="#00a4b6" opacity="0.29"/>
  <path d="M96,11h1v1h-1zM107,12h1v1h-1zM104,20h1v1h-1z" fill="#00a5b3" opacity="0.58"/>
  <path d="M101,11h1v1h-1z" fill="#00a5b0" opacity="0.27"/>
  <path d="M102,11h1v1h-1zM102,20h1v1h-1z" fill="#009faf" opacity="0.13"/>
  <path d="M103,11h1v1h-1z" fill="#00a7b4" opacity="0.23"/>
  <path d="M105,11h1v1h-1z" fill="#00a5b4" opacity="0.49"/>
  <path d="M106,11h1v1h-1zM130,12h1v1h-1zM98,19h1v1h-1zM101,19h1v1h-1zM80,20h1v1h-1zM103,20h1v1h-1z" fill="#00a5b3" opacity="0.50"/>
  <path d="M110,11h1v1h-1z" fill="#00a6b5" opacity="0.46"/>
  <path d="M115,11h1v1h-1z" fill="#00a5b1" opacity="0.49"/>
  <path d="M123,11h1v1h-1zM144,16h1v1h-1z" fill="#00a4b3" opacity="0.67"/>
  <path d="M124,11h1v1h-1zM81,15h1v1h-1zM91,16h1v1h-1z" fill="#00a5b4" opacity="0.56"/>
  <path d="M126,11h1v1h-1zM155,12h1v1h-1zM101,15h1v1h-1zM87,17h1v1h-1z" fill="#00a5b3" opacity="0.86"/>
  <path d="M130,11h1v1h-1zM97,21h1v1h-1z" fill="#00a6b4" opacity="0.71"/>
  <path d="M132,11h1v1h-1zM76,19h1v1h-1z" fill="#00a1b3" opacity="0.11"/>
  <path d="M133,11h1v1h-1zM76,13h1v1h-1z" fill="#00a4b2" opacity="0.21"/>
  <path d="M134,11h1v1h-1z" fill="#00a6b5" opacity="0.33"/>
  <path d="M135,11h1v1h-1z" fill="#00a5b2" opacity="0.47"/>
  <path d="M140,11h1v1h-1z" fill="#00a7b5" opacity="0.50"/>
  <path d="M151,11h1v1h-1zM91,15h1v1h-1zM140,15h1v1h-1zM144,15h1v1h-1zM77,16h1v1h-1z" fill="#00a6b4" opacity="0.93"/>
  <path d="M152,11h1v1h-1zM106,15h1v1h-1z" fill="#00a3b2" opacity="0.35"/>
  <path d="M159,11h1v1h-1z" fill="#00a6b3" opacity="0.97"/>
  <path d="M0,12h1v1h-1z" fill="#0064b2" opacity="0.56"/>
  <path d="M4,12h1v1h-1z" fill="#0065b1" opacity="0.85"/>
  <path d="M5,12h1v1h-1z" fill="#0064b3" opacity="0.50"/>
  <path d="M6,12h1v1h-1zM9,14h1v1h-1z" fill="#0064b0" opacity="0.47"/>
  <path d="M7,12h1v1h-1z" fill="#0065b3" opacity="0.85"/>
  <path d="M10,12h1v1h-1z" fill="#0065b2" opacity="0.80"/>
  <path d="M11,12h1v1h-1z" fill="#0064b3" opacity="0.59"/>
  <path d="M15,12h1v1h-1z" fill="#0064b3" opacity="0.65"/>
  <path d="M16,12h1v1h-1zM15,19h1v1h-1z" fill="#0064b2" opacity="0.43"/>
  <path d="M18,12h1v1h-1z" fill="#0064b3" opacity="0.63"/>
  <path d="M22,12h1v1h-1z" fill="#0065b4" opacity="0.31"/>
  <path d="M28,12h1v1h-1z" fill="#0066b3" opacity="0.81"/>
  <path d="M33,12h1v1h-1z" fill="#0065b3" opacity="0.68"/>
  <path d="M34,12h1v1h-1z" fill="#0063b2" opacity="0.39"/>
  <path d="M35,12h1v1h-1z" fill="#0063b3" opacity="0.42"/>
  <path d="M36,12h1v1h-1zM27,16h1v1h-1z" fill="#0065b2" opacity="0.86"/>
  <path d="M41,12h1v1h-1z" fill="#0066b1" opacity="0.60"/>
  <path d="M42,12h1v1h-1z" fill="#0064b5" opacity="0.27"/>
  <path d="M48,12h1v1h-1zM55,17h1v1h-1z" fill="#0065b3" opacity="0.56"/>
  <path d="M58,12h1v1h-1z" fill="#0066b3" opacity="0.08"/>
  <path d="M59,12h1v1h-1z" fill="#0066b3" opacity="0.85"/>
  <path d="M65,12h1v1h-1zM6,20h1v1h-1z" fill="#0066b0" opacity="0.22"/>
  <path d="M66,12h1v1h-1zM38,19h1v1h-1z" fill="#0068b1" opacity="0.19"/>
  <path d="M72,12h1v1h-1z" fill="#0065b3" opacity="0.62"/>
  <path d="M76,12h1v1h-1zM137,12h1v1h-1z" fill="#00a6b5" opacity="0.63"/>
  <path d="M86,12h1v1h-1z" fill="#00a4b3" opacity="0.42"/>
  <path d="M89,12h1v1h-1z" fill="#009fb5" opacity="0.09"/>
  <path d="M94,12h1v1h-1zM109,12h1v1h-1zM126,12h1v1h-1zM120,15h1v1h-1zM129,15h1v1h-1zM150,15h1v1h-1zM83,17h1v1h-1zM92,18h1v1h-1z" fill="#00a6b4" opacity="0.94"/>
  <path d="M96,12h1v1h-1z" fill="#00a5b3" opacity="0.97"/>
  <path d="M100,12h1v1h-1z" fill="#00a6b3" opacity="0.89"/>
  <path d="M101,12h1v1h-1z" fill="#009999" opacity="0.04"/>
  <path d="M106,12h1v1h-1zM124,18h1v1h-1zM144,18h1v1h-1zM92,22h1v1h-1z" fill="#00a4b3" opacity="0.27"/>
  <path d="M108,12h1v1h-1zM93,26h1v1h-1z" fill="#00a6b4" opacity="0.81"/>
  <path d="M115,12h1v1h-1zM153,19h1v1h-1z" fill="#00a3b4" opacity="0.31"/>
  <path d="M116,12h1v1h-1z" fill="#00a7b6" opacity="0.33"/>
  <path d="M122,12h1v1h-1z" fill="#00a3b3" opacity="0.18"/>
  <path d="M125,12h1v1h-1zM115,15h1v1h-1z" fill="#00b1b1" opacity="0.05"/>
  <path d="M136,12h1v1h-1z" fill="#00a1b0" opacity="0.34"/>
  <path d="M145,12h1v1h-1z" fill="#00a5b3" opacity="0.42"/>
  <path d="M151,12h1v1h-1zM121,13h1v1h-1z" fill="#00a6b5" opacity="0.54"/>
  <path d="M159,12h1v1h-1z" fill="#00a6b3" opacity="0.84"/>
  <path d="M8,13h1v1h-1z" fill="#0064b2" opacity="0.64"/>
  <path d="M10,13h1v1h-1z" fill="#0065b3" opacity="0.80"/>
  <path d="M11,13h1v1h-1z" fill="#0066b3" opacity="0.59"/>
  <path d="M12,13h1v1h-1zM44,17h1v1h-1zM38,18h1v1h-1zM67,18h1v1h-1zM61,19h1v1h-1z" fill="#0065b3" opacity="0.98"/>
  <path d="M13,13h1v1h-1z" fill="#0066b3" opacity="0.65"/>
  <path d="M15,13h1v1h-1z" fill="#0066b3" opacity="0.84"/>
  <path d="M21,13h1v1h-1zM67,20h1v1h-1z" fill="#0061b6" opacity="0.08"/>
  <path d="M41,13h1v1h-1z" fill="#0066b3" opacity="0.80"/>
  <path d="M48,13h1v1h-1z" fill="#0066b3" opacity="0.83"/>
  <path d="M72,13h1v1h-1z" fill="#0065b3" opacity="0.69"/>
  <path d="M77,13h1v1h-1z" fill="#00a6b3" opacity="0.91"/>
  <path d="M90,13h1v1h-1z" fill="#00a6b5" opacity="0.82"/>
  <path d="M95,13h1v1h-1z" fill="#00a5b3" opacity="0.49"/>
  <path d="M100,13h1v1h-1z" fill="#00a5b2" opacity="0.57"/>
  <path d="M103,13h1v1h-1zM120,17h1v1h-1z" fill="#00a6b4" opacity="0.60"/>
  <path d="M104,13h1v1h-1z" fill="#00a5b4" opacity="0.82"/>
  <path d="M116,13h1v1h-1zM124,19h1v1h-1z" fill="#00a5b2" opacity="0.43"/>
  <path d="M125,13h1v1h-1zM139,15h1v1h-1zM132,20h1v1h-1z" fill="#00a3b1" opacity="0.15"/>
  <path d="M130,13h1v1h-1z" fill="#00a6b5" opacity="0.38"/>
  <path d="M132,13h1v1h-1z" fill="#00a6b1" opacity="0.27"/>
  <path d="M133,13h1v1h-1zM135,16h1v1h-1z" fill="#00a5b3" opacity="0.64"/>
  <path d="M146,13h1v1h-1z" fill="#00a7b4" opacity="0.67"/>
  <path d="M151,13h1v1h-1z" fill="#00a5b2" opacity="0.31"/>
  <path d="M159,13h1v1h-1zM116,14h1v1h-1zM138,14h1v1h-1z" fill="#00a5b3" opacity="0.65"/>
  <path d="M0,14h1v1h-1z" fill="#0066b1" opacity="0.46"/>
  <path d="M1,14h1v1h-1z" fill="#006db6" opacity="0.05"/>
  <path d="M10,14h1v1h-1z" fill="#0065b2" opacity="0.78"/>
  <path d="M12,14h1v1h-1z" fill="#0064b4" opacity="0.76"/>
  <path d="M18,14h1v1h-1z" fill="#0065b1" opacity="0.47"/>
  <path d="M21,14h1v1h-1z" fill="#005db2" opacity="0.12"/>
  <path d="M22,14h1v1h-1z" fill="#0066b1" opacity="0.29"/>
  <path d="M27,14h1v1h-1z" fill="#0065b1" opacity="0.31"/>
  <path d="M42,14h1v1h-1zM16,19h1v1h-1z" fill="#0066b3" opacity="0.16"/>
  <path d="M56,14h1v1h-1z" fill="#0065b2" opacity="0.30"/>
  <path d="M57,14h1v1h-1zM20,17h1v1h-1zM26,17h1v1h-1zM64,17h1v1h-1zM65,17h1v1h-1z" fill="#0066b2" opacity="0.12"/>
  <path d="M88,14h1v1h-1z" fill="#00a5ad" opacity="0.12"/>
  <path d="M90,14h1v1h-1zM145,16h1v1h-1zM86,19h1v1h-1z" fill="#00a3b4" opacity="0.23"/>
  <path d="M100,14h1v1h-1zM115,20h1v1h-1z" fill="#00a1bc" opacity="0.07"/>
  <path d="M101,14h1v1h-1z" fill="#00a5b5" opacity="0.31"/>
  <path d="M107,14h1v1h-1z" fill="#00a5b3" opacity="0.96"/>
  <path d="M108,14h1v1h-1z" fill="#00a5b3" opacity="0.72"/>
  <path d="M109,14h1v1h-1zM136,15h1v1h-1z" fill="#00a6b2" opacity="0.33"/>
  <path d="M110,14h1v1h-1z" fill="#00a5b4" opacity="0.76"/>
  <path d="M115,14h1v1h-1zM84,20h1v1h-1z" fill="#00a4b6" opacity="0.11"/>
  <path d="M121,14h1v1h-1z" fill="#00a5b4" opacity="0.13"/>
  <path d="M130,14h1v1h-1z" fill="#00a8b3" opacity="0.27"/>
  <path d="M131,14h1v1h-1z" fill="#00a1b2" opacity="0.31"/>
  <path d="M137,14h1v1h-1z" fill="#00a6b3" opacity="0.93"/>
  <path d="M139,14h1v1h-1z" fill="#00a2b4" opacity="0.28"/>
  <path d="M140,14h1v1h-1z" fill="#00a5b4" opacity="0.88"/>
  <path d="M151,14h1v1h-1z" fill="#00a4b0" opacity="0.18"/>
  <path d="M0,15h1v1h-1zM12,16h1v1h-1z" fill="#0063b3" opacity="0.30"/>
  <path d="M5,15h1v1h-1z" fill="#0066b4" opacity="0.44"/>
  <path d="M8,15h1v1h-1zM6,18h1v1h-1z" fill="#0065b2" opacity="0.38"/>
  <path d="M9,15h1v1h-1z" fill="#0064b2" opacity="0.77"/>
  <path d="M12,15h1v1h-1z" fill="#0066b2" opacity="0.74"/>
  <path d="M13,15h1v1h-1z" fill="#0065b2" opacity="0.53"/>
  <path d="M14,15h1v1h-1z" fill="#0064b3" opacity="0.33"/>
  <path d="M15,15h1v1h-1z" fill="#0064b2" opacity="0.39"/>
  <path d="M16,15h1v1h-1zM52,15h1v1h-1z" fill="#0066b3" opacity="0.46"/>
  <path d="M18,15h1v1h-1z" fill="#006aaa" opacity="0.05"/>
  <path d="M21,15h1v1h-1z" fill="#0067b1" opacity="0.28"/>
  <path d="M22,15h1v1h-1z" fill="#0067b5" opacity="0.20"/>
  <path d="M27,15h1v1h-1z" fill="#0065b1" opacity="0.53"/>
  <path d="M35,15h1v1h-1zM2,19h1v1h-1z" fill="#0066b2" opacity="0.66"/>
  <path d="M41,15h1v1h-1z" fill="#0065b2" opacity="0.66"/>
  <path d="M54,15h1v1h-1z" fill="#0066b2" opacity="0.64"/>
  <path d="M55,15h1v1h-1z" fill="#0065b3" opacity="0.84"/>
  <path d="M57,15h1v1h-1z" fill="#0066b3" opacity="0.53"/>
  <path d="M72,15h1v1h-1z" fill="#0066b2" opacity="0.82"/>
  <path d="M78,15h1v1h-1z" fill="#00a7b0" opacity="0.11"/>
  <path d="M79,15h1v1h-1z" fill="#00a2b1" opacity="0.20"/>
  <path d="M88,15h1v1h-1z" fill="#00aab7" opacity="0.15"/>
  <path d="M100,15h1v1h-1z" fill="#009eb6" opacity="0.08"/>
  <path d="M114,15h1v1h-1z" fill="#00a6b3" opacity="0.79"/>
  <path d="M125,15h1v1h-1z" fill="#00a5b3" opacity="0.74"/>
  <path d="M130,15h1v1h-1z" fill="#00a3b2" opacity="0.34"/>
  <path d="M135,15h1v1h-1zM129,17h1v1h-1z" fill="#00a6b5" opacity="0.87"/>
  <path d="M151,15h1v1h-1z" fill="#00afaf" opacity="0.06"/>
  <path d="M154,15h1v1h-1z" fill="#00a7b3" opacity="0.41"/>
  <path d="M159,15h1v1h-1zM89,23h1v1h-1z" fill="#00a4b3" opacity="0.32"/>
  <path d="M0,16h1v1h-1zM12,18h1v1h-1z" fill="#0064b1" opacity="0.18"/>
  <path d="M1,16h1v1h-1z" fill="#0064b6" opacity="0.22"/>
  <path d="M9,16h1v1h-1z" fill="#0069b7" opacity="0.15"/>
  <path d="M10,16h1v1h-1z" fill="#0066b1" opacity="0.25"/>
  <path d="M11,16h1v1h-1z" fill="#0066b3" opacity="0.31"/>
  <path d="M55,16h1v1h-1zM72,19h1v1h-1z" fill="#0065b2" opacity="0.98"/>
  <path d="M57,16h1v1h-1z" fill="#0065b3" opacity="0.88"/>
  <path d="M64,16h1v1h-1zM65,16h1v1h-1zM66,16h1v1h-1z" fill="#0066b3" opacity="0.92"/>
  <path d="M72,16h1v1h-1z" fill="#0066b4" opacity="0.89"/>
  <path d="M75,16h1v1h-1z" fill="#00a4b3" opacity="0.46"/>
  <path d="M79,16h1v1h-1z" fill="#00a5b2" opacity="0.40"/>
  <path d="M83,16h1v1h-1z" fill="#00a6b4" opacity="0.45"/>
  <path d="M88,16h1v1h-1z" fill="#00a1b5" opacity="0.15"/>
  <path d="M100,16h1v1h-1zM97,23h1v1h-1z" fill="#00a1b1" opacity="0.19"/>
  <path d="M114,16h1v1h-1z" fill="#00a7b4" opacity="0.68"/>
  <path d="M120,16h1v1h-1z" fill="#00a6b3" opacity="0.76"/>
  <path d="M129,16h1v1h-1z" fill="#00a6b5" opacity="0.90"/>
  <path d="M130,16h1v1h-1zM114,19h1v1h-1z" fill="#00a6b5" opacity="0.61"/>
  <path d="M138,16h1v1h-1z" fill="#00b3b3" opacity="0.04"/>
  <path d="M150,16h1v1h-1z" fill="#00a5b3" opacity="0.81"/>
  <path d="M154,16h1v1h-1z" fill="#00a5b4" opacity="0.67"/>
  <path d="M159,16h1v1h-1z" fill="#00a4b6" opacity="0.22"/>
  <path d="M6,17h1v1h-1z" fill="#0064b3" opacity="0.25"/>
  <path d="M7,17h1v1h-1z" fill="#0055b8" opacity="0.07"/>
  <path d="M40,17h1v1h-1z" fill="#0064b2" opacity="0.70"/>
  <path d="M43,17h1v1h-1z" fill="#0062b1" opacity="0.20"/>
  <path d="M63,17h1v1h-1z" fill="#0066af" opacity="0.14"/>
  <path d="M66,17h1v1h-1z" fill="#0063b5" opacity="0.12"/>
  <path d="M72,17h1v1h-1z" fill="#0065b3" opacity="0.94"/>
  <path d="M80,17h1v1h-1z" fill="#00a6b4" opacity="0.77"/>
  <path d="M82,17h1v1h-1z" fill="#00a6b4" opacity="0.73"/>
  <path d="M99,17h1v1h-1zM150,18h1v1h-1z" fill="#00a2b2" opacity="0.26"/>
  <path d="M100,17h1v1h-1z" fill="#00a5b7" opacity="0.33"/>
  <path d="M105,17h1v1h-1zM76,18h1v1h-1zM139,18h1v1h-1z" fill="#00a6b4" opacity="0.87"/>
  <path d="M106,17h1v1h-1z" fill="#00a6b4" opacity="0.49"/>
  <path d="M107,17h1v1h-1z" fill="#00a4b2" opacity="0.47"/>
  <path d="M114,17h1v1h-1z" fill="#00a6b4" opacity="0.63"/>
  <path d="M115,17h1v1h-1z" fill="#00a5b3" opacity="0.15"/>
  <path d="M124,17h1v1h-1z" fill="#0099a6" opacity="0.08"/>
  <path d="M130,17h1v1h-1z" fill="#00a7b4" opacity="0.61"/>
  <path d="M136,17h1v1h-1z" fill="#00a7b4" opacity="0.52"/>
  <path d="M150,17h1v1h-1z" fill="#00a4b4" opacity="0.52"/>
  <path d="M154,17h1v1h-1z" fill="#00a5b3" opacity="0.90"/>
  <path d="M158,17h1v1h-1z" fill="#00a6b4" opacity="0.89"/>
  <path d="M159,17h1v1h-1z" fill="#00a8af" opacity="0.14"/>
  <path d="M1,18h1v1h-1z" fill="#0063b1" opacity="0.51"/>
  <path d="M2,18h1v1h-1z" fill="#005cb8" opacity="0.10"/>
  <path d="M5,18h1v1h-1z" fill="#0064b1" opacity="0.49"/>
  <path d="M7,18h1v1h-1z" fill="#0064b2" opacity="0.60"/>
  <path d="M8,18h1v1h-1z" fill="#0064b4" opacity="0.44"/>
  <path d="M14,18h1v1h-1z" fill="#0062b2" opacity="0.39"/>
  <path d="M21,18h1v1h-1z" fill="#0064b1" opacity="0.09"/>
  <path d="M75,18h1v1h-1z" fill="#00a3b8" opacity="0.10"/>
  <path d="M87,18h1v1h-1z" fill="#00a7b3" opacity="0.42"/>
  <path d="M91,18h1v1h-1z" fill="#00aab6" opacity="0.08"/>
  <path d="M100,18h1v1h-1z" fill="#00a5ac" opacity="0.13"/>
  <path d="M109,18h1v1h-1z" fill="#00a7b4" opacity="0.83"/>
  <path d="M115,18h1v1h-1zM133,20h1v1h-1z" fill="#00a6b4" opacity="0.48"/>
  <path d="M120,18h1v1h-1z" fill="#00a5b2" opacity="0.52"/>
  <path d="M129,18h1v1h-1z" fill="#00a5b3" opacity="0.71"/>
  <path d="M145,18h1v1h-1z" fill="#00a5b2" opacity="0.44"/>
  <path d="M153,18h1v1h-1z" fill="#00a7b9" opacity="0.11"/>
  <path d="M3,19h1v1h-1z" fill="#005ebc" opacity="0.07"/>
  <path d="M6,19h1v1h-1z" fill="#0065b0" opacity="0.23"/>
  <path d="M7,19h1v1h-1z" fill="#0065b1" opacity="0.44"/>
  <path d="M8,19h1v1h-1z" fill="#0065b1" opacity="0.35"/>
  <path d="M9,19h1v1h-1z" fill="#0065b3" opacity="0.60"/>
  <path d="M11,19h1v1h-1zM45,19h1v1h-1z" fill="#0063ad" opacity="0.12"/>
  <path d="M13,19h1v1h-1zM10,21h1v1h-1z" fill="#0065b1" opacity="0.64"/>
  <path d="M14,19h1v1h-1z" fill="#0066b1" opacity="0.42"/>
  <path d="M20,19h1v1h-1z" fill="#0063b2" opacity="0.44"/>
  <path d="M26,19h1v1h-1z" fill="#0066b3" opacity="0.66"/>
  <path d="M46,19h1v1h-1z" fill="#0065b4" opacity="0.61"/>
  <path d="M54,19h1v1h-1z" fill="#0065b4" opacity="0.69"/>
  <path d="M55,19h1v1h-1z" fill="#0065b3" opacity="0.63"/>
  <path d="M62,19h1v1h-1z" fill="#0055aa" opacity="0.07"/>
  <path d="M108,19h1v1h-1z" fill="#00a6b2" opacity="0.49"/>
  <path d="M109,19h1v1h-1zM95,26h1v1h-1z" fill="#00a2ae" opacity="0.09"/>
  <path d="M110,19h1v1h-1z" fill="#00a6b5" opacity="0.98"/>
  <path d="M115,19h1v1h-1z" fill="#00a5b4" opacity="0.72"/>
  <path d="M120,19h1v1h-1z" fill="#00a5b5" opacity="0.36"/>
  <path d="M129,19h1v1h-1z" fill="#00a4b3" opacity="0.40"/>
  <path d="M131,19h1v1h-1z" fill="#00a4b4" opacity="0.44"/>
  <path d="M138,19h1v1h-1z" fill="#00a4b1" opacity="0.37"/>
  <path d="M139,19h1v1h-1z" fill="#00a7b3" opacity="0.26"/>
  <path d="M145,19h1v1h-1z" fill="#00a5b3" opacity="0.61"/>
  <path d="M158,19h1v1h-1z" fill="#00a5b3" opacity="0.73"/>
  <path d="M3,20h1v1h-1z" fill="#0064b5" opacity="0.50"/>
  <path d="M4,20h1v1h-1z" fill="#0065b3" opacity="0.41"/>
  <path d="M5,20h1v1h-1z" fill="#0065b2" opacity="0.33"/>
  <path d="M16,20h1v1h-1z" fill="#0062b3" opacity="0.22"/>
  <path d="M17,20h1v1h-1z" fill="#0061b0" opacity="0.33"/>
  <path d="M18,20h1v1h-1z" fill="#0064b3" opacity="0.42"/>
  <path d="M26,20h1v1h-1zM17,21h1v1h-1z" fill="#0069b4" opacity="0.07"/>
  <path d="M27,20h1v1h-1zM28,20h1v1h-1zM29,20h1v1h-1zM30,20h1v1h-1zM31,20h1v1h-1zM32,20h1v1h-1zM33,20h1v1h-1zM34,20h1v1h-1zM56,20h1v1h-1zM57,20h1v1h-1zM58,20h1v1h-1zM59,20h1v1h-1zM60,20h1v1h-1zM68,20h1v1h-1zM69,20h1v1h-1zM70,20h1v1h-1zM71,20h1v1h-1zM72,20h1v1h-1z" fill="#006ab5" opacity="0.09"/>
  <path d="M48,20h1v1h-1z" fill="#0067b3" opacity="0.34"/>
  <path d="M50,20h1v1h-1z" fill="#0066b4" opacity="0.60"/>
  <path d="M51,20h1v1h-1z" fill="#0065b2" opacity="0.58"/>
  <path d="M52,20h1v1h-1z" fill="#0063b3" opacity="0.47"/>
  <path d="M61,20h1v1h-1z" fill="#0068ae" opacity="0.09"/>
  <path d="M81,20h1v1h-1z" fill="#00a4b4" opacity="0.57"/>
  <path d="M82,20h1v1h-1z" fill="#00a6b4" opacity="0.56"/>
  <path d="M83,20h1v1h-1z" fill="#00a6b2" opacity="0.42"/>
  <path d="M92,20h1v1h-1z" fill="#00a2b4" opacity="0.16"/>
  <path d="M105,20h1v1h-1z" fill="#00a5b4" opacity="0.52"/>
  <path d="M110,20h1v1h-1z" fill="#00aab9" opacity="0.13"/>
  <path d="M111,20h1v1h-1zM112,20h1v1h-1zM113,20h1v1h-1z" fill="#00a3b8" opacity="0.14"/>
  <path d="M114,20h1v1h-1zM116,20h1v1h-1zM117,20h1v1h-1zM118,20h1v1h-1zM119,20h1v1h-1zM125,20h1v1h-1zM126,20h1v1h-1zM127,20h1v1h-1zM128,20h1v1h-1zM141,20h1v1h-1zM142,20h1v1h-1zM143,20h1v1h-1zM146,20h1v1h-1zM147,20h1v1h-1zM148,20h1v1h-1zM154,20h1v1h-1zM155,20h1v1h-1zM156,20h1v1h-1zM157,20h1v1h-1z" fill="#00aab5" opacity="0.09"/>
  <path d="M135,20h1v1h-1z" fill="#00a6b3" opacity="0.47"/>
  <path d="M136,20h1v1h-1z" fill="#00a5af" opacity="0.21"/>
  <path d="M140,20h1v1h-1zM149,20h1v1h-1z" fill="#00aeb9" opacity="0.09"/>
  <path d="M144,20h1v1h-1z" fill="#0099bb" opacity="0.06"/>
  <path d="M145,20h1v1h-1z" fill="#00a5b4" opacity="0.07"/>
  <path d="M158,20h1v1h-1z" fill="#0099aa" opacity="0.06"/>
  <path d="M8,21h1v1h-1z" fill="#0064b2" opacity="0.80"/>
  <path d="M9,21h1v1h-1z" fill="#0064b2" opacity="0.76"/>
  <path d="M12,21h1v1h-1z" fill="#0063b2" opacity="0.67"/>
  <path d="M15,21h1v1h-1z" fill="#0065b3" opacity="0.53"/>
  <path d="M93,21h1v1h-1z" fill="#00a6b4" opacity="0.96"/>
  <path d="M97,22h1v1h-1z" fill="#00a5b4" opacity="0.45"/>
  <path d="M91,23h1v1h-1z" fill="#00a5b4" opacity="0.84"/>
  <path d="M96,24h1v1h-1z" fill="#00a5b3" opacity="0.70"/>
  <path d="M94,26h1v1h-1z" fill="#00a6b2" opacity="0.44"/>
</svg>