<svg xmlns="http://www.w3.org/2000/svg" viewBox="0 0 160 80" width="100%" height="100%">
  <path d="M76,32h1v1h-1zM72,36h1v1h-1zM61,38h1v1h-1zM116,41h1v1h-1z" fill="#eeeeee" opacity="1.00"/>
  <path d="M103,32h1v1h-1z" fill="#faf1ef" opacity="1.00"/>
  <path d="M104,32h1v1h-1z" fill="#faf0ee" opacity="1.00"/>
  <path d="M105,32h1v1h-1zM106,32h1v1h-1zM105,35h1v1h-1z" fill="#f9f0ef" opacity="1.00"/>
  <path d="M107,32h1v1h-1z" fill="#f9f1ee" opacity="1.00"/>
  <path d="M108,32h1v1h-1zM108,35h1v1h-1z" fill="#f9f0ee" opacity="1.00"/>
  <path d="M109,32h1v1h-1z" fill="#f8f0ef" opacity="1.00"/>
  <path d="M75,33h1v1h-1z" fill="#dddddd" opacity="1.00"/>
  <path d="M76,33h1v1h-1zM60,42h1v1h-1zM79,45h1v1h-1z" fill="#5f5f5f" opacity="1.00"/>
  <path d="M77,33h1v1h-1zM68,35h1v1h-1zM58,41h1v1h-1z" fill="#9b9b9b" opacity="1.00"/>
  <path d="M100,33h1v1h-1z" fill="#f8eded" opacity="1.00"/>
  <path d="M101,33h1v1h-1z" fill="#f4aaac" opacity="1.00"/>
  <path d="M102,33h1v1h-1z" fill="#ee7b7f" opacity="1.00"/>
  <path d="M103,33h1v1h-1z" fill="#ed6b6f" opacity="1.00"/>
  <path d="M104,33h1v1h-1z" fill="#ee686f" opacity="1.00"/>
  <path d="M105,33h1v1h-1z" fill="#ef676e" opacity="1.00"/>
  <path d="M106,33h1v1h-1zM107,33h1v1h-1z" fill="#ef686e" opacity="1.00"/>
  <path d="M108,33h1v1h-1z" fill="#ee686e" opacity="1.00"/>
  <path d="M109,33h1v1h-1z" fill="#ed6f72" opacity="1.00"/>
  <path d="M110,33h1v1h-1z" fill="#f0878b" opacity="1.00"/>
  <path d="M111,33h1v1h-1z" fill="#f4c1c1" opacity="1.00"/>
  <path d="M75,34h1v1h-1zM122,38h1v1h-1zM95,39h1v1h-1zM75,40h1v1h-1zM75,41h1v1h-1zM69,42h1v1h-1z" fill="#cecece" opacity="1.00"/>
  <path d="M76,34h1v1h-1zM76,38h1v1h-1zM76,39h1v1h-1zM76,40h1v1h-1zM59,41h1v1h-1zM76,42h1v1h-1z" fill="#0d0d0d" opacity="1.00"/>
  <path d="M77,34h1v1h-1zM77,38h1v1h-1zM77,39h1v1h-1zM68,45h1v1h-1z" fill="#696969" opacity="1.00"/>
  <path d="M100,34h1v1h-1z" fill="#ef8183" opacity="1.00"/>
  <path d="M101,34h1v1h-1z" fill="#ec2931" opacity="1.00"/>
  <path d="M102,34h1v1h-1z" fill="#eb2d35" opacity="1.00"/>
  <path d="M103,34h1v1h-1z" fill="#ee5e62" opacity="1.00"/>
  <path d="M104,34h1v1h-1z" fill="#ef6c70" opacity="1.00"/>
  <path d="M105,34h1v1h-1zM106,34h1v1h-1z" fill="#f06c72" opacity="1.00"/>
  <path d="M107,34h1v1h-1z" fill="#f06b71" opacity="1.00"/>
  <path d="M108,34h1v1h-1z" fill="#f06970" opacity="1.00"/>
  <path d="M109,34h1v1h-1z" fill="#ed4d55" opacity="1.00"/>
  <path d="M110,34h1v1h-1z" fill="#ea232c" opacity="1.00"/>
  <path d="M111,34h1v1h-1z" fill="#ec373d" opacity="1.00"/>
  <path d="M112,34h1v1h-1z" fill="#f4b1b3" opacity="1.00"/>
  <path d="M34,35h1v1h-1z" fill="#d3d3d3" opacity="1.00"/>
  <path d="M35,35h1v1h-1z" fill="#959595" opacity="1.00"/>
  <path d="M36,35h1v1h-1zM48,35h1v1h-1zM90,37h1v1h-1z" fill="#b1b1b1" opacity="1.00"/>
  <path d="M37,35h1v1h-1z" fill="#e6e6e6" opacity="1.00"/>
  <path d="M38,35h1v1h-1z" fill="#adadad" opacity="1.00"/>
  <path d="M39,35h1v1h-1zM123,35h1v1h-1z" fill="#919191" opacity="1.00"/>
  <path d="M40,35h1v1h-1zM41,35h1v1h-1zM42,35h1v1h-1zM51,35h1v1h-1zM52,35h1v1h-1zM62,35h1v1h-1zM63,35h1v1h-1zM64,35h1v1h-1zM65,35h1v1h-1zM79,35h1v1h-1zM81,35h1v1h-1zM82,35h1v1h-1zM83,35h1v1h-1zM93,35h1v1h-1zM70,42h1v1h-1zM118,42h1v1h-1zM36,45h1v1h-1z" fill="#909090" opacity="1.00"/>
  <path d="M43,35h1v1h-1zM58,39h1v1h-1zM58,40h1v1h-1z" fill="#9c9c9c" opacity="1.00"/>
  <path d="M44,35h1v1h-1z" fill="#d8d8d8" opacity="1.00"/>
  <path d="M47,35h1v1h-1zM95,40h1v1h-1zM124,43h1v1h-1z" fill="#f0f0f0" opacity="1.00"/>
  <path d="M49,35h1v1h-1zM88,45h1v1h-1zM123,45h1v1h-1z" fill="#929292" opacity="1.00"/>
  <path d="M50,35h1v1h-1zM66,35h1v1h-1zM67,35h1v1h-1zM74,35h1v1h-1zM80,35h1v1h-1zM92,35h1v1h-1z" fill="#8f8f8f" opacity="1.00"/>
  <path d="M53,35h1v1h-1zM124,44h1v1h-1z" fill="#979797" opacity="1.00"/>
  <path d="M54,35h1v1h-1z" fill="#c7c7c7" opacity="1.00"/>
  <path d="M60,35h1v1h-1z" fill="#e0e0e0" opacity="1.00"/>
  <path d="M61,35h1v1h-1zM43,37h1v1h-1zM86,37h1v1h-1zM86,38h1v1h-1zM86,39h1v1h-1zM86,41h1v1h-1zM86,42h1v1h-1zM86,43h1v1h-1zM76,44h1v1h-1zM86,44h1v1h-1z" fill="#a4a4a4" opacity="1.00"/>
  <path d="M69,35h1v1h-1zM95,35h1v1h-1zM71,42h1v1h-1z" fill="#d4d4d4" opacity="1.00"/>
  <path d="M73,35h1v1h-1zM54,38h1v1h-1z" fill="#b2b2b2" opacity="1.00"/>
  <path d="M75,35h1v1h-1zM70,44h1v1h-1z" fill="#777777" opacity="1.00"/>
  <path d="M76,35h1v1h-1z" fill="#090909" opacity="1.00"/>
  <path d="M77,35h1v1h-1zM60,39h1v1h-1zM84,43h1v1h-1z" fill="#3e3e3e" opacity="1.00"/>
  <path d="M78,35h1v1h-1z" fill="#8d8d8d" opacity="1.00"/>
  <path d="M84,35h1v1h-1zM47,38h1v1h-1zM83,45h1v1h-1z" fill="#cccccc" opacity="1.00"/>
  <path d="M86,35h1v1h-1zM54,39h1v1h-1z" fill="#d5d5d5" opacity="1.00"/>
  <path d="M87,35h1v1h-1zM45,36h1v1h-1zM82,43h1v1h-1z" fill="#969696" opacity="1.00"/>
  <path d="M88,35h1v1h-1z" fill="#b3b3b3" opacity="1.00"/>
  <path d="M89,35h1v1h-1zM119,37h1v1h-1zM85,43h1v1h-1zM118,43h1v1h-1zM47,45h1v1h-1z" fill="#efefef" opacity="1.00"/>
  <path d="M90,35h1v1h-1zM122,35h1v1h-1zM115,36h1v1h-1zM39,37h1v1h-1zM40,37h1v1h-1zM41,37h1v1h-1zM49,37h1v1h-1zM50,37h1v1h-1zM51,37h1v1h-1zM52,37h1v1h-1zM91,37h1v1h-1zM92,37h1v1h-1zM63,41h1v1h-1zM64,41h1v1h-1zM65,41h1v1h-1zM66,41h1v1h-1zM67,41h1v1h-1zM68,41h1v1h-1z" fill="#bbbbbb" opacity="1.00"/>
  <path d="M91,35h1v1h-1z" fill="#949494" opacity="1.00"/>
  <path d="M94,35h1v1h-1z" fill="#9d9d9d" opacity="1.00"/>
  <path d="M99,35h1v1h-1z" fill="#f2c4c3" opacity="1.00"/>
  <path d="M100,35h1v1h-1z" fill="#ec1e26" opacity="1.00"/>
  <path d="M101,35h1v1h-1z" fill="#ec3841" opacity="1.00"/>
  <path d="M102,35h1v1h-1z" fill="#f0a7aa" opacity="1.00"/>
  <path d="M103,35h1v1h-1z" fill="#f6e2e0" opacity="1.00"/>
  <path d="M104,35h1v1h-1z" fill="#faefec" opacity="1.00"/>
  <path d="M106,35h1v1h-1z" fill="#f8f0ee" opacity="1.00"/>
  <path d="M107,35h1v1h-1z" fill="#f9eff0" opacity="1.00"/>
  <path d="M109,35h1v1h-1zM113,41h1v1h-1z" fill="#f7e6e6" opacity="1.00"/>
  <path d="M110,35h1v1h-1z" fill="#ee8f92" opacity="1.00"/>
  <path d="M111,35h1v1h-1z" fill="#eb222c" opacity="1.00"/>
  <path d="M112,35h1v1h-1z" fill="#ed363e" opacity="1.00"/>
  <path d="M113,35h1v1h-1z" fill="#f6e1e0" opacity="1.00"/>
  <path d="M115,35h1v1h-1z" fill="#a7a7a7" opacity="1.00"/>
  <path d="M116,35h1v1h-1zM84,36h1v1h-1z" fill="#999999" opacity="1.00"/>
  <path d="M117,35h1v1h-1zM44,40h1v1h-1zM85,41h1v1h-1zM44,43h1v1h-1zM44,44h1v1h-1z" fill="#e3e3e3" opacity="1.00"/>
  <path d="M124,35h1v1h-1z" fill="#dcdcdc" opacity="1.00"/>
  <path d="M34,36h1v1h-1zM34,37h1v1h-1zM53,37h1v1h-1zM34,39h1v1h-1zM34,40h1v1h-1zM34,43h1v1h-1zM34,44h1v1h-1z" fill="#a0a0a0" opacity="1.00"/>
  <path d="M35,36h1v1h-1zM43,36h1v1h-1zM53,36h1v1h-1z" fill="#111111" opacity="1.00"/>
  <path d="M36,36h1v1h-1z" fill="#323232" opacity="1.00"/>
  <path d="M37,36h1v1h-1zM46,40h1v1h-1zM46,41h1v1h-1zM46,42h1v1h-1zM46,43h1v1h-1z" fill="#393939" opacity="1.00"/>
  <path d="M38,36h1v1h-1zM39,36h1v1h-1zM41,36h1v1h-1zM49,36h1v1h-1zM51,36h1v1h-1zM52,36h1v1h-1zM93,36h1v1h-1zM87,44h1v1h-1z" fill="#151515" opacity="1.00"/>
  <path d="M40,36h1v1h-1zM42,36h1v1h-1zM50,36h1v1h-1zM75,36h1v1h-1zM91,36h1v1h-1zM92,36h1v1h-1z" fill="#161616" opacity="1.00"/>
  <path d="M44,36h1v1h-1zM82,44h1v1h-1z" fill="#1b1b1b" opacity="1.00"/>
  <path d="M46,36h1v1h-1z" fill="#c9c9ca" opacity="1.00"/>
  <path d="M47,36h1v1h-1zM88,38h1v1h-1zM121,41h1v1h-1z" fill="#3b3b3b" opacity="1.00"/>
  <path d="M48,36h1v1h-1zM67,36h1v1h-1zM87,36h1v1h-1zM35,37h1v1h-1zM61,40h1v1h-1zM62,40h1v1h-1zM69,40h1v1h-1zM83,43h1v1h-1z" fill="#131313" opacity="1.00"/>
  <path d="M54,36h1v1h-1zM77,36h1v1h-1zM36,37h1v1h-1zM59,39h1v1h-1zM59,40h1v1h-1zM59,42h1v1h-1z" fill="#0e0e0e" opacity="1.00"/>
  <path d="M55,36h1v1h-1zM89,37h1v1h-1z" fill="#6f6f6f" opacity="1.00"/>
  <path d="M59,36h1v1h-1z" fill="#aeaeae" opacity="1.00"/>
  <path d="M60,36h1v1h-1zM69,36h1v1h-1zM74,36h1v1h-1zM79,36h1v1h-1zM80,36h1v1h-1zM81,36h1v1h-1zM82,36h1v1h-1zM90,36h1v1h-1zM116,43h1v1h-1z" fill="#191919" opacity="1.00"/>
  <path d="M61,36h1v1h-1zM70,39h1v1h-1z" fill="#0a0a0a" opacity="1.00"/>
  <path d="M62,36h1v1h-1zM63,36h1v1h-1zM64,36h1v1h-1zM65,36h1v1h-1zM66,36h1v1h-1zM60,44h1v1h-1z" fill="#121212" opacity="1.00"/>
  <path d="M68,36h1v1h-1zM76,37h1v1h-1zM76,41h1v1h-1z" fill="#0c0c0c" opacity="1.00"/>
  <path d="M70,36h1v1h-1zM71,39h1v1h-1zM124,45h1v1h-1z" fill="#9a9a9a" opacity="1.00"/>
  <path d="M73,36h1v1h-1zM117,36h1v1h-1zM62,45h1v1h-1zM63,45h1v1h-1zM64,45h1v1h-1zM65,45h1v1h-1zM66,45h1v1h-1zM67,45h1v1h-1z" fill="#636363" opacity="1.00"/>
  <path d="M76,36h1v1h-1z" fill="#060608" opacity="1.00"/>
  <path d="M78,36h1v1h-1zM83,36h1v1h-1z" fill="#181818" opacity="1.00"/>
  <path d="M86,36h1v1h-1zM58,38h1v1h-1zM86,40h1v1h-1z" fill="#a3a3a3" opacity="1.00"/>
  <path d="M88,36h1v1h-1z" fill="#444444" opacity="1.00"/>
  <path d="M89,36h1v1h-1z" fill="#616161" opacity="1.00"/>
  <path d="M94,36h1v1h-1zM70,38h1v1h-1zM96,39h1v1h-1z" fill="#0f0f0f" opacity="1.00"/>
  <path d="M95,36h1v1h-1z" fill="#101011" opacity="1.00"/>
  <path d="M96,36h1v1h-1zM69,38h1v1h-1z" fill="#878787" opacity="1.00"/>
  <path d="M99,36h1v1h-1z" fill="#f27f83" opacity="1.00"/>
  <path d="M100,36h1v1h-1z" fill="#ea1e27" opacity="1.00"/>
  <path d="M101,36h1v1h-1z" fill="#f17478" opacity="1.00"/>
  <path d="M102,36h1v1h-1z" fill="#ef6a6e" opacity="1.00"/>
  <path d="M103,36h1v1h-1z" fill="#eb2c35" opacity="1.00"/>
  <path d="M104,36h1v1h-1z" fill="#ea3c47" opacity="1.00"/>
  <path d="M105,36h1v1h-1z" fill="#eb545e" opacity="1.00"/>
  <path d="M106,36h1v1h-1z" fill="#ed7478" opacity="1.00"/>
  <path d="M107,36h1v1h-1z" fill="#f4cccd" opacity="1.00"/>
  <path d="M110,36h1v1h-1z" fill="#f7eeef" opacity="1.00"/>
  <path d="M111,36h1v1h-1z" fill="#ee474f" opacity="1.00"/>
  <path d="M112,36h1v1h-1z" fill="#ea282f" opacity="1.00"/>
  <path d="M113,36h1v1h-1z" fill="#f5b4b7" opacity="1.00"/>
  <path d="M116,36h1v1h-1zM55,39h1v1h-1zM55,40h1v1h-1zM55,41h1v1h-1zM55,42h1v1h-1zM60,43h1v1h-1zM70,43h1v1h-1zM123,44h1v1h-1z" fill="#1c1c1c" opacity="1.00"/>
  <path d="M118,36h1v1h-1zM47,40h1v1h-1zM47,42h1v1h-1zM47,43h1v1h-1z" fill="#e8e8e8" opacity="1.00"/>
  <path d="M121,36h1v1h-1zM62,37h1v1h-1z" fill="#b4b4b4" opacity="1.00"/>
  <path d="M122,36h1v1h-1zM118,38h1v1h-1zM117,42h1v1h-1z" fill="#2b2b2b" opacity="1.00"/>
  <path d="M123,36h1v1h-1z" fill="#666666" opacity="1.00"/>
  <path d="M37,37h1v1h-1zM80,44h1v1h-1zM115,45h1v1h-1z" fill="#656565" opacity="1.00"/>
  <path d="M38,37h1v1h-1zM119,40h1v1h-1zM60,45h1v1h-1z" fill="#afafaf" opacity="1.00"/>
  <path d="M42,37h1v1h-1zM63,37h1v1h-1zM64,37h1v1h-1zM65,37h1v1h-1zM66,37h1v1h-1zM121,40h1v1h-1zM61,41h1v1h-1zM62,41h1v1h-1zM69,41h1v1h-1zM70,41h1v1h-1z" fill="#bababa" opacity="1.00"/>
  <path d="M44,37h1v1h-1z" fill="#464646" opacity="1.00"/>
  <path d="M45,37h1v1h-1zM69,37h1v1h-1z" fill="#282828" opacity="1.00"/>
  <path d="M46,37h1v1h-1z" fill="#373737" opacity="1.00"/>
  <path d="M47,37h1v1h-1z" fill="#4f4f4f" opacity="1.00"/>
  <path d="M48,37h1v1h-1z" fill="#a8a8a8" opacity="1.00"/>
  <path d="M54,37h1v1h-1z" fill="#434343" opacity="1.00"/>
  <path d="M55,37h1v1h-1zM96,38h1v1h-1z" fill="#0c0c0d" opacity="1.00"/>
  <path d="M56,37h1v1h-1z" fill="#959596" opacity="1.00"/>
  <path d="M58,37h1v1h-1zM120,42h1v1h-1z" fill="#d1d1d1" opacity="1.00"/>
  <path d="M59,37h1v1h-1z" fill="#222222" opacity="1.00"/>
  <path d="M60,37h1v1h-1zM87,37h1v1h-1zM87,38h1v1h-1zM87,39h1v1h-1zM63,40h1v1h-1zM64,40h1v1h-1zM65,40h1v1h-1zM66,40h1v1h-1zM67,40h1v1h-1zM68,40h1v1h-1zM70,40h1v1h-1zM87,40h1v1h-1zM87,41h1v1h-1zM87,42h1v1h-1zM87,43h1v1h-1zM35,44h1v1h-1zM69,44h1v1h-1z" fill="#141414" opacity="1.00"/>
  <path d="M61,37h1v1h-1z" fill="#797979" opacity="1.00"/>
  <path d="M67,37h1v1h-1zM93,37h1v1h-1z" fill="#b9b9b9" opacity="1.00"/>
  <path d="M68,37h1v1h-1z" fill="#8e8e8e" opacity="1.00"/>
  <path d="M70,37h1v1h-1z" fill="#232323" opacity="1.00"/>
  <path d="M71,37h1v1h-1zM75,42h1v1h-1z" fill="#d2d2d2" opacity="1.00"/>
  <path d="M73,37h1v1h-1z" fill="#d9d9d9" opacity="1.00"/>
  <path d="M74,37h1v1h-1zM80,37h1v1h-1zM81,37h1v1h-1zM82,37h1v1h-1zM121,39h1v1h-1z" fill="#c8c8c8" opacity="1.00"/>
  <path d="M75,37h1v1h-1zM71,38h1v1h-1zM115,43h1v1h-1zM122,44h1v1h-1z" fill="#a6a6a6" opacity="1.00"/>
  <path d="M77,37h1v1h-1z" fill="#555555" opacity="1.00"/>
  <path d="M78,37h1v1h-1zM44,38h1v1h-1z" fill="#c5c5c5" opacity="1.00"/>
  <path d="M79,37h1v1h-1zM83,37h1v1h-1z" fill="#c9c9c9" opacity="1.00"/>
  <path d="M84,37h1v1h-1zM114,45h1v1h-1z" fill="#e5e5e5" opacity="1.00"/>
  <path d="M88,37h1v1h-1z" fill="#1a1a1a" opacity="1.00"/>
  <path d="M94,37h1v1h-1z" fill="#939393" opacity="1.00"/>
  <path d="M95,37h1v1h-1z" fill="#2c2c2d" opacity="1.00"/>
  <path d="M96,37h1v1h-1zM55,38h1v1h-1z" fill="#161617" opacity="1.00"/>
  <path d="M97,37h1v1h-1z" fill="#b0b0b1" opacity="1.00"/>
  <path d="M99,37h1v1h-1z" fill="#f4747c" opacity="1.00"/>
  <path d="M100,37h1v1h-1z" fill="#ed232c" opacity="1.00"/>
  <path d="M101,37h1v1h-1z" fill="#f29497" opacity="1.00"/>
  <path d="M102,37h1v1h-1z" fill="#f3a8ad" opacity="1.00"/>
  <path d="M103,37h1v1h-1z" fill="#ee787d" opacity="1.00"/>
  <path d="M104,37h1v1h-1z" fill="#eb4249" opacity="1.00"/>
  <path d="M105,37h1v1h-1z" fill="#eb1a23" opacity="1.00"/>
  <path d="M106,37h1v1h-1z" fill="#eb161f" opacity="1.00"/>
  <path d="M107,37h1v1h-1z" fill="#f1858a" opacity="1.00"/>
  <path d="M111,37h1v1h-1z" fill="#ee6166" opacity="1.00"/>
  <path d="M112,37h1v1h-1z" fill="#ec2630" opacity="1.00"/>
  <path d="M113,37h1v1h-1z" fill="#f6adb1" opacity="1.00"/>
  <path d="M116,37h1v1h-1zM34,38h1v1h-1zM71,40h1v1h-1zM34,41h1v1h-1zM34,42h1v1h-1z" fill="#a1a1a1" opacity="1.00"/>
  <path d="M117,37h1v1h-1z" fill="#2c2c2c" opacity="1.00"/>
  <path d="M118,37h1v1h-1z" fill="#7d7d7d" opacity="1.00"/>
  <path d="M120,37h1v1h-1z" fill="#c3c3c3" opacity="1.00"/>
  <path d="M121,37h1v1h-1zM46,44h1v1h-1z" fill="#3a3a3a" opacity="1.00"/>
  <path d="M122,37h1v1h-1zM88,44h1v1h-1z" fill="#585858" opacity="1.00"/>
  <path d="M123,37h1v1h-1zM89,38h1v1h-1zM47,39h1v1h-1zM117,40h1v1h-1zM47,44h1v1h-1z" fill="#e7e7e7" opacity="1.00"/>
  <path d="M35,38h1v1h-1zM35,40h1v1h-1zM35,41h1v1h-1zM35,42h1v1h-1z" fill="#121213" opacity="1.00"/>
  <path d="M36,38h1v1h-1z" fill="#373738" opacity="1.00"/>
  <path d="M37,38h1v1h-1zM44,39h1v1h-1zM115,46h1v1h-1z" fill="#e2e2e2" opacity="1.00"/>
  <path d="M45,38h1v1h-1z" fill="#212121" opacity="1.00"/>
  <path d="M46,38h1v1h-1z" fill="#242424" opacity="1.00"/>
  <path d="M56,38h1v1h-1zM36,41h1v1h-1zM36,43h1v1h-1z" fill="#515152" opacity="1.00"/>
  <path d="M59,38h1v1h-1z" fill="#101010" opacity="1.00"/>
  <path d="M60,38h1v1h-1z" fill="#5b5b5b" opacity="1.00"/>
  <path d="M75,38h1v1h-1zM75,39h1v1h-1z" fill="#cfcfcf" opacity="1.00"/>
  <path d="M95,38h1v1h-1z" fill="#9f9f9f" opacity="1.00"/>
  <path d="M97,38h1v1h-1z" fill="#797879" opacity="1.00"/>
  <path d="M99,38h1v1h-1z" fill="#f2767b" opacity="1.00"/>
  <path d="M100,38h1v1h-1z" fill="#ed232b" opacity="1.00"/>
  <path d="M101,38h1v1h-1z" fill="#f39ca0" opacity="1.00"/>
  <path d="M103,38h1v1h-1z" fill="#f1aaaf" opacity="1.00"/>
  <path d="M104,38h1v1h-1z" fill="#ec373f" opacity="1.00"/>
  <path d="M105,38h1v1h-1z" fill="#ec242c" opacity="1.00"/>
  <path d="M106,38h1v1h-1z" fill="#eb232b" opacity="1.00"/>
  <path d="M107,38h1v1h-1z" fill="#ef666c" opacity="1.00"/>
  <path d="M111,38h1v1h-1z" fill="#ef6068" opacity="1.00"/>
  <path d="M112,38h1v1h-1z" fill="#ed2530" opacity="1.00"/>
  <path d="M113,38h1v1h-1z" fill="#f7adb1" opacity="1.00"/>
  <path d="M117,38h1v1h-1z" fill="#8b8b8b" opacity="1.00"/>
  <path d="M119,38h1v1h-1z" fill="#8c8c8c" opacity="1.00"/>
  <path d="M120,38h1v1h-1z" fill="#3f3f3f" opacity="1.00"/>
  <path d="M121,38h1v1h-1z" fill="#454545" opacity="1.00"/>
  <path d="M35,39h1v1h-1z" fill="#131314" opacity="1.00"/>
  <path d="M36,39h1v1h-1z" fill="#505051" opacity="1.00"/>
  <path d="M45,39h1v1h-1zM45,42h1v1h-1zM45,43h1v1h-1z" fill="#343435" opacity="1.00"/>
  <path d="M46,39h1v1h-1z" fill="#383839" opacity="1.00"/>
  <path d="M56,39h1v1h-1zM56,40h1v1h-1zM56,41h1v1h-1zM56,42h1v1h-1zM121,42h1v1h-1zM122,42h1v1h-1zM56,43h1v1h-1zM56,44h1v1h-1z" fill="#474747" opacity="1.00"/>
  <path d="M61,39h1v1h-1zM62,39h1v1h-1zM63,39h1v1h-1zM64,39h1v1h-1zM65,39h1v1h-1zM66,39h1v1h-1zM67,39h1v1h-1z" fill="#767676" opacity="1.00"/>
  <path d="M68,39h1v1h-1z" fill="#757575" opacity="1.00"/>
  <path d="M69,39h1v1h-1zM81,44h1v1h-1z" fill="#505050" opacity="1.00"/>
  <path d="M88,39h1v1h-1zM88,43h1v1h-1z" fill="#565656" opacity="1.00"/>
  <path d="M97,39h1v1h-1zM61,45h1v1h-1zM78,45h1v1h-1z" fill="#707070" opacity="1.00"/>
  <path d="M99,39h1v1h-1z" fill="#f2757b" opacity="1.00"/>
  <path d="M100,39h1v1h-1z" fill="#ee222c" opacity="1.00"/>
  <path d="M101,39h1v1h-1z" fill="#f29698" opacity="1.00"/>
  <path d="M102,39h1v1h-1z" fill="#f0a3a6" opacity="1.00"/>
  <path d="M103,39h1v1h-1z" fill="#ea2f36" opacity="1.00"/>
  <path d="M104,39h1v1h-1z" fill="#ec232b" opacity="1.00"/>
  <path d="M105,39h1v1h-1z" fill="#ef898d" opacity="1.00"/>
  <path d="M106,39h1v1h-1z" fill="#ef5962" opacity="1.00"/>
  <path d="M107,39h1v1h-1z" fill="#ed444d" opacity="1.00"/>
  <path d="M111,39h1v1h-1z" fill="#f16066" opacity="1.00"/>
  <path d="M112,39h1v1h-1z" fill="#eb272e" opacity="1.00"/>
  <path d="M113,39h1v1h-1z" fill="#f5acb2" opacity="1.00"/>
  <path d="M117,39h1v1h-1zM44,45h1v1h-1z" fill="#ececec" opacity="1.00"/>
  <path d="M118,39h1v1h-1z" fill="#818181" opacity="1.00"/>
  <path d="M119,39h1v1h-1z" fill="#c0c0c0" opacity="1.00"/>
  <path d="M120,39h1v1h-1z" fill="#717171" opacity="1.00"/>
  <path d="M36,40h1v1h-1zM123,43h1v1h-1zM62,44h1v1h-1z" fill="#515151" opacity="1.00"/>
  <path d="M45,40h1v1h-1zM45,41h1v1h-1z" fill="#353536" opacity="1.00"/>
  <path d="M54,40h1v1h-1zM54,41h1v1h-1zM54,42h1v1h-1zM54,43h1v1h-1zM54,44h1v1h-1z" fill="#d6d6d6" opacity="1.00"/>
  <path d="M60,40h1v1h-1z" fill="#0b0b0b" opacity="1.00"/>
  <path d="M77,40h1v1h-1zM87,45h1v1h-1z" fill="#686868" opacity="1.00"/>
  <path d="M83,40h1v1h-1zM84,40h1v1h-1z" fill="#ebebeb" opacity="1.00"/>
  <path d="M88,40h1v1h-1zM84,41h1v1h-1zM88,41h1v1h-1zM88,42h1v1h-1z" fill="#575757" opacity="1.00"/>
  <path d="M96,40h1v1h-1zM58,43h1v1h-1zM78,43h1v1h-1z" fill="#c2c2c2" opacity="1.00"/>
  <path d="M97,40h1v1h-1z" fill="#dadada" opacity="1.00"/>
  <path d="M99,40h1v1h-1z" fill="#f2858b" opacity="1.00"/>
  <path d="M100,40h1v1h-1z" fill="#ea1d25" opacity="1.00"/>
  <path d="M101,40h1v1h-1z" fill="#ec3d46" opacity="1.00"/>
  <path d="M102,40h1v1h-1z" fill="#ec2b34" opacity="1.00"/>
  <path d="M103,40h1v1h-1z" fill="#ed212c" opacity="1.00"/>
  <path d="M104,40h1v1h-1z" fill="#f09398" opacity="1.00"/>
  <path d="M105,40h1v1h-1z" fill="#f7efee" opacity="1.00"/>
  <path d="M106,40h1v1h-1z" fill="#ef6f76" opacity="1.00"/>
  <path d="M107,40h1v1h-1z" fill="#ee323c" opacity="1.00"/>
  <path d="M110,40h1v1h-1z" fill="#f6e6e5" opacity="1.00"/>
  <path d="M111,40h1v1h-1z" fill="#f04049" opacity="1.00"/>
  <path d="M112,40h1v1h-1z" fill="#ed282d" opacity="1.00"/>
  <path d="M113,40h1v1h-1z" fill="#f6babb" opacity="1.00"/>
  <path d="M118,40h1v1h-1z" fill="#6e6e6e" opacity="1.00"/>
  <path d="M120,40h1v1h-1zM83,41h1v1h-1zM69,43h1v1h-1zM116,44h1v1h-1z" fill="#595959" opacity="1.00"/>
  <path d="M44,41h1v1h-1zM44,42h1v1h-1z" fill="#e3e3e4" opacity="1.00"/>
  <path d="M47,41h1v1h-1zM75,43h1v1h-1zM114,44h1v1h-1z" fill="#e9e9e9" opacity="1.00"/>
  <path d="M60,41h1v1h-1zM80,45h1v1h-1zM81,45h1v1h-1z" fill="#606060" opacity="1.00"/>
  <path d="M71,41h1v1h-1z" fill="#e1e1e1" opacity="1.00"/>
  <path d="M77,41h1v1h-1zM35,45h1v1h-1z" fill="#676767" opacity="1.00"/>
  <path d="M82,41h1v1h-1z" fill="#eaeaea" opacity="1.00"/>
  <path d="M99,41h1v1h-1z" fill="#f5cecd" opacity="1.00"/>
  <path d="M100,41h1v1h-1z" fill="#ec2730" opacity="1.00"/>
  <path d="M101,41h1v1h-1z" fill="#ea1921" opacity="1.00"/>
  <path d="M102,41h1v1h-1z" fill="#eb2027" opacity="1.00"/>
  <path d="M103,41h1v1h-1z" fill="#ee7e82" opacity="1.00"/>
  <path d="M104,41h1v1h-1z" fill="#f7dddb" opacity="1.00"/>
  <path d="M105,41h1v1h-1z" fill="#f6dbda" opacity="1.00"/>
  <path d="M106,41h1v1h-1z" fill="#f09da1" opacity="1.00"/>
  <path d="M107,41h1v1h-1z" fill="#ee7a7f" opacity="1.00"/>
  <path d="M108,41h1v1h-1z" fill="#f7d5d8" opacity="1.00"/>
  <path d="M109,41h1v1h-1z" fill="#f5c9cc" opacity="1.00"/>
  <path d="M110,41h1v1h-1z" fill="#ef787f" opacity="1.00"/>
  <path d="M111,41h1v1h-1z" fill="#eb2129" opacity="1.00"/>
  <path d="M112,41h1v1h-1z" fill="#ec484e" opacity="1.00"/>
  <path d="M117,41h1v1h-1zM59,44h1v1h-1zM45,45h1v1h-1z" fill="#7c7c7c" opacity="1.00"/>
  <path d="M118,41h1v1h-1zM68,44h1v1h-1z" fill="#2f2f2f" opacity="1.00"/>
  <path d="M119,41h1v1h-1z" fill="#989898" opacity="1.00"/>
  <path d="M120,41h1v1h-1z" fill="#4d4d4d" opacity="1.00"/>
  <path d="M122,41h1v1h-1zM86,45h1v1h-1z" fill="#c4c4c4" opacity="1.00"/>
  <path d="M36,42h1v1h-1zM36,44h1v1h-1z" fill="#525253" opacity="1.00"/>
  <path d="M58,42h1v1h-1z" fill="#9e9e9e" opacity="1.00"/>
  <path d="M77,42h1v1h-1zM79,44h1v1h-1z" fill="#5e5e5e" opacity="1.00"/>
  <path d="M82,42h1v1h-1zM85,42h1v1h-1z" fill="#dfdfdf" opacity="1.00"/>
  <path d="M83,42h1v1h-1z" fill="#252525" opacity="1.00"/>
  <path d="M84,42h1v1h-1zM76,43h1v1h-1z" fill="#272727" opacity="1.00"/>
  <path d="M100,42h1v1h-1z" fill="#f19ea0" opacity="1.00"/>
  <path d="M101,42h1v1h-1z" fill="#ea2c36" opacity="1.00"/>
  <path d="M102,42h1v1h-1z" fill="#eb1b24" opacity="1.00"/>
  <path d="M103,42h1v1h-1z" fill="#ee444b" opacity="1.00"/>
  <path d="M104,42h1v1h-1z" fill="#ee4f55" opacity="1.00"/>
  <path d="M105,42h1v1h-1z" fill="#ee4e56" opacity="1.00"/>
  <path d="M106,42h1v1h-1zM107,42h1v1h-1z" fill="#ee4e57" opacity="1.00"/>
  <path d="M108,42h1v1h-1z" fill="#f14e55" opacity="1.00"/>
  <path d="M109,42h1v1h-1z" fill="#ed3b43" opacity="1.00"/>
  <path d="M110,42h1v1h-1z" fill="#eb1c25" opacity="1.00"/>
  <path d="M111,42h1v1h-1z" fill="#ea484f" opacity="1.00"/>
  <path d="M112,42h1v1h-1z" fill="#f3c7c7" opacity="1.00"/>
  <path d="M116,42h1v1h-1z" fill="#8a8a8a" opacity="1.00"/>
  <path d="M123,42h1v1h-1zM124,46h1v1h-1z" fill="#dedede" opacity="1.00"/>
  <path d="M35,43h1v1h-1z" fill="#121214" opacity="1.00"/>
  <path d="M55,43h1v1h-1zM55,44h1v1h-1zM77,44h1v1h-1z" fill="#1d1d1d" opacity="1.00"/>
  <path d="M59,43h1v1h-1z" fill="#171717" opacity="1.00"/>
  <path d="M61,43h1v1h-1z" fill="#b6b6b6" opacity="1.00"/>
  <path d="M68,43h1v1h-1zM54,45h1v1h-1zM116,45h1v1h-1z" fill="#e4e4e4" opacity="1.00"/>
  <path d="M71,43h1v1h-1z" fill="#cbcbcb" opacity="1.00"/>
  <path d="M77,43h1v1h-1z" fill="#303030" opacity="1.00"/>
  <path d="M101,43h1v1h-1z" fill="#f6cccd" opacity="1.00"/>
  <path d="M102,43h1v1h-1z" fill="#f08a8d" opacity="1.00"/>
  <path d="M103,43h1v1h-1z" fill="#ee7075" opacity="1.00"/>
  <path d="M104,43h1v1h-1z" fill="#ee6e74" opacity="1.00"/>
  <path d="M105,43h1v1h-1z" fill="#f06f74" opacity="1.00"/>
  <path d="M106,43h1v1h-1z" fill="#ef6e73" opacity="1.00"/>
  <path d="M107,43h1v1h-1z" fill="#ee6e72" opacity="1.00"/>
  <path d="M108,43h1v1h-1z" fill="#ef6e74" opacity="1.00"/>
  <path d="M109,43h1v1h-1z" fill="#ee7679" opacity="1.00"/>
  <path d="M110,43h1v1h-1z" fill="#f2a1a2" opacity="1.00"/>
  <path d="M111,43h1v1h-1z" fill="#f6e3e1" opacity="1.00"/>
  <path d="M117,43h1v1h-1z" fill="#737373" opacity="1.00"/>
  <path d="M121,43h1v1h-1zM34,45h1v1h-1z" fill="#c1c1c1" opacity="1.00"/>
  <path d="M122,43h1v1h-1z" fill="#343434" opacity="1.00"/>
  <path d="M45,44h1v1h-1z" fill="#363636" opacity="1.00"/>
  <path d="M61,44h1v1h-1z" fill="#1e1e1e" opacity="1.00"/>
  <path d="M63,44h1v1h-1zM66,44h1v1h-1z" fill="#5d5d5d" opacity="1.00"/>
  <path d="M64,44h1v1h-1zM65,44h1v1h-1z" fill="#5c5c5c" opacity="1.00"/>
  <path d="M67,44h1v1h-1z" fill="#5a5a5a" opacity="1.00"/>
  <path d="M78,44h1v1h-1zM115,44h1v1h-1z" fill="#292929" opacity="1.00"/>
  <path d="M83,44h1v1h-1z" fill="#1f1f1f" opacity="1.00"/>
  <path d="M84,44h1v1h-1zM77,45h1v1h-1z" fill="#b8b8b8" opacity="1.00"/>
  <path d="M117,44h1v1h-1zM70,45h1v1h-1z" fill="#ededed" opacity="1.00"/>
  <path d="M46,45h1v1h-1z" fill="#7f7f7f" opacity="1.00"/>
  <path d="M55,45h1v1h-1z" fill="#6c6c6c" opacity="1.00"/>
  <path d="M56,45h1v1h-1z" fill="#888888" opacity="1.00"/>
  <path d="M69,45h1v1h-1z" fill="#a5a5a5" opacity="1.00"/>
  <path d="M82,45h1v1h-1z" fill="#787878" opacity="1.00"/>
</svg>