<svg xmlns="http://www.w3.org/2000/svg" viewBox="0 0 160 61" width="100%" height="100%">
  <path d="M29,11h1v1h-1zM43,15h1v1h-1zM14,33h1v1h-1zM15,37h1v1h-1z" fill="#e71818" opacity="0.08"/>
  <path d="M30,11h1v1h-1zM37,49h1v1h-1z" fill="#e41b22" opacity="0.15"/>
  <path d="M31,11h1v1h-1zM49,31h1v1h-1zM24,35h1v1h-1z" fill="#e71822" opacity="0.21"/>
  <path d="M32,11h1v1h-1zM51,23h1v1h-1z" fill="#e81b23" opacity="0.26"/>
  <path d="M33,11h1v1h-1z" fill="#ea1823" opacity="0.29"/>
  <path d="M34,11h1v1h-1z" fill="#e91a21" opacity="0.27"/>
  <path d="M35,11h1v1h-1zM36,49h1v1h-1z" fill="#e51a23" opacity="0.23"/>
  <path d="M36,11h1v1h-1zM36,40h1v1h-1zM19,43h1v1h-1z" fill="#e81723" opacity="0.17"/>
  <path d="M37,11h1v1h-1z" fill="#ed1b1b" opacity="0.11"/>
  <path d="M38,11h1v1h-1zM47,29h1v1h-1z" fill="#ea1515" opacity="0.05"/>
  <path d="M26,12h1v1h-1z" fill="#ec131c" opacity="0.11"/>
  <path d="M27,12h1v1h-1zM46,25h1v1h-1z" fill="#e81a22" opacity="0.35"/>
  <path d="M28,12h1v1h-1z" fill="#e81a22" opacity="0.53"/>
  <path d="M29,12h1v1h-1z" fill="#e81c23" opacity="0.69"/>
  <path d="M30,12h1v1h-1z" fill="#e71b23" opacity="0.89"/>
  <path d="M31,12h1v1h-1zM23,24h1v1h-1zM23,36h1v1h-1zM39,47h1v1h-1z" fill="#e91b24" opacity="0.98"/>
  <path d="M32,12h1v1h-1zM33,12h1v1h-1zM34,12h1v1h-1zM29,13h1v1h-1zM30,13h1v1h-1zM31,13h1v1h-1zM32,13h1v1h-1zM33,13h1v1h-1zM34,13h1v1h-1zM35,13h1v1h-1zM36,13h1v1h-1zM37,13h1v1h-1zM38,13h1v1h-1zM25,14h1v1h-1zM26,14h1v1h-1zM27,14h1v1h-1zM28,14h1v1h-1zM29,14h1v1h-1zM30,14h1v1h-1zM31,14h1v1h-1zM32,14h1v1h-1zM38,14h1v1h-1zM39,14h1v1h-1zM24,15h1v1h-1zM25,15h1v1h-1zM26,15h1v1h-1zM27,15h1v1h-1zM28,15h1v1h-1zM29,15h1v1h-1zM30,15h1v1h-1zM31,15h1v1h-1zM32,15h1v1h-1zM22,16h1v1h-1zM23,16h1v1h-1zM24,16h1v1h-1zM25,16h1v1h-1zM26,16h1v1h-1zM27,16h1v1h-1zM28,16h1v1h-1zM29,16h1v1h-1zM30,16h1v1h-1zM31,16h1v1h-1zM32,16h1v1h-1zM22,17h1v1h-1zM23,17h1v1h-1zM24,17h1v1h-1zM25,17h1v1h-1zM26,17h1v1h-1zM27,17h1v1h-1zM28,17h1v1h-1zM29,17h1v1h-1zM30,17h1v1h-1zM31,17h1v1h-1zM32,17h1v1h-1zM20,18h1v1h-1zM21,18h1v1h-1zM22,18h1v1h-1zM23,18h1v1h-1zM24,18h1v1h-1zM25,18h1v1h-1zM26,18h1v1h-1zM27,18h1v1h-1zM28,18h1v1h-1zM29,18h1v1h-1zM30,18h1v1h-1zM31,18h1v1h-1zM32,18h1v1h-1zM33,18h1v1h-1zM34,18h1v1h-1zM35,18h1v1h-1zM36,18h1v1h-1zM37,18h1v1h-1zM19,19h1v1h-1zM20,19h1v1h-1zM21,19h1v1h-1zM22,19h1v1h-1zM23,19h1v1h-1zM24,19h1v1h-1zM25,19h1v1h-1zM26,19h1v1h-1zM27,19h1v1h-1zM28,19h1v1h-1zM38,19h1v1h-1zM39,19h1v1h-1zM19,20h1v1h-1zM20,20h1v1h-1zM21,20h1v1h-1zM22,20h1v1h-1zM23,20h1v1h-1zM24,20h1v1h-1zM25,20h1v1h-1zM26,20h1v1h-1zM40,20h1v1h-1zM19,21h1v1h-1zM20,21h1v1h-1zM21,21h1v1h-1zM22,21h1v1h-1zM23,21h1v1h-1zM24,21h1v1h-1zM25,21h1v1h-1zM41,21h1v1h-1zM48,21h1v1h-1zM18,22h1v1h-1zM19,22h1v1h-1zM20,22h1v1h-1zM21,22h1v1h-1zM22,22h1v1h-1zM23,22h1v1h-1zM24,22h1v1h-1zM43,22h1v1h-1zM49,22h1v1h-1zM17,23h1v1h-1zM18,23h1v1h-1zM19,23h1v1h-1zM20,23h1v1h-1zM21,23h1v1h-1zM22,23h1v1h-1zM23,23h1v1h-1zM43,23h1v1h-1zM49,23h1v1h-1zM17,24h1v1h-1zM18,24h1v1h-1zM19,24h1v1h-1zM20,24h1v1h-1zM21,24h1v1h-1zM22,24h1v1h-1zM44,24h1v1h-1zM50,24h1v1h-1zM16,25h1v1h-1zM17,25h1v1h-1zM18,25h1v1h-1zM19,25h1v1h-1zM20,25h1v1h-1zM21,25h1v1h-1zM22,25h1v1h-1zM50,25h1v1h-1zM16,26h1v1h-1zM17,26h1v1h-1zM18,26h1v1h-1zM19,26h1v1h-1zM20,26h1v1h-1zM21,26h1v1h-1zM22,26h1v1h-1zM51,26h1v1h-1zM16,27h1v1h-1zM17,27h1v1h-1zM18,27h1v1h-1zM19,27h1v1h-1zM20,27h1v1h-1zM21,27h1v1h-1zM22,27h1v1h-1zM51,27h1v1h-1zM16,28h1v1h-1zM17,28h1v1h-1zM18,28h1v1h-1zM19,28h1v1h-1zM20,28h1v1h-1zM21,28h1v1h-1zM51,28h1v1h-1zM15,29h1v1h-1zM16,29h1v1h-1zM17,29h1v1h-1zM18,29h1v1h-1zM19,29h1v1h-1zM20,29h1v1h-1zM21,29h1v1h-1zM51,29h1v1h-1zM15,30h1v1h-1zM16,30h1v1h-1zM17,30h1v1h-1zM18,30h1v1h-1zM19,30h1v1h-1zM20,30h1v1h-1zM21,30h1v1h-1zM45,30h1v1h-1zM51,30h1v1h-1zM15,31h1v1h-1zM16,31h1v1h-1zM17,31h1v1h-1zM18,31h1v1h-1zM19,31h1v1h-1zM20,31h1v1h-1zM21,31h1v1h-1zM51,31h1v1h-1zM15,32h1v1h-1zM16,32h1v1h-1zM17,32h1v1h-1zM18,32h1v1h-1zM19,32h1v1h-1zM20,32h1v1h-1zM21,32h1v1h-1zM51,32h1v1h-1zM16,33h1v1h-1zM17,33h1v1h-1zM18,33h1v1h-1zM19,33h1v1h-1zM20,33h1v1h-1zM21,33h1v1h-1zM22,33h1v1h-1zM51,33h1v1h-1zM16,34h1v1h-1zM17,34h1v1h-1zM18,34h1v1h-1zM19,34h1v1h-1zM20,34h1v1h-1zM21,34h1v1h-1zM22,34h1v1h-1zM51,34h1v1h-1zM16,35h1v1h-1zM17,35h1v1h-1zM18,35h1v1h-1zM19,35h1v1h-1zM20,35h1v1h-1zM21,35h1v1h-1zM22,35h1v1h-1zM50,35h1v1h-1zM17,36h1v1h-1zM18,36h1v1h-1zM19,36h1v1h-1zM20,36h1v1h-1zM21,36h1v1h-1zM22,36h1v1h-1zM44,36h1v1h-1zM50,36h1v1h-1zM17,37h1v1h-1zM18,37h1v1h-1zM19,37h1v1h-1zM20,37h1v1h-1zM21,37h1v1h-1zM22,37h1v1h-1zM23,37h1v1h-1zM43,37h1v1h-1zM49,37h1v1h-1zM18,38h1v1h-1zM19,38h1v1h-1zM20,38h1v1h-1zM21,38h1v1h-1zM22,38h1v1h-1zM23,38h1v1h-1zM24,38h1v1h-1zM43,38h1v1h-1zM49,38h1v1h-1zM18,39h1v1h-1zM19,39h1v1h-1zM20,39h1v1h-1zM21,39h1v1h-1zM22,39h1v1h-1zM23,39h1v1h-1zM24,39h1v1h-1zM25,39h1v1h-1zM41,39h1v1h-1zM42,39h1v1h-1zM48,39h1v1h-1zM19,40h1v1h-1zM20,40h1v1h-1zM21,40h1v1h-1zM22,40h1v1h-1zM23,40h1v1h-1zM24,40h1v1h-1zM25,40h1v1h-1zM26,40h1v1h-1zM40,40h1v1h-1zM48,40h1v1h-1zM19,41h1v1h-1zM20,41h1v1h-1zM21,41h1v1h-1zM22,41h1v1h-1zM23,41h1v1h-1zM24,41h1v1h-1zM25,41h1v1h-1zM26,41h1v1h-1zM27,41h1v1h-1zM28,41h1v1h-1zM38,41h1v1h-1zM39,41h1v1h-1zM20,42h1v1h-1zM21,42h1v1h-1zM22,42h1v1h-1zM23,42h1v1h-1zM24,42h1v1h-1zM25,42h1v1h-1zM26,42h1v1h-1zM27,42h1v1h-1zM28,42h1v1h-1zM29,42h1v1h-1zM30,42h1v1h-1zM31,42h1v1h-1zM32,42h1v1h-1zM34,42h1v1h-1zM35,42h1v1h-1zM36,42h1v1h-1zM37,42h1v1h-1zM22,43h1v1h-1zM23,43h1v1h-1zM24,43h1v1h-1zM25,43h1v1h-1zM26,43h1v1h-1zM27,43h1v1h-1zM28,43h1v1h-1zM29,43h1v1h-1zM30,43h1v1h-1zM31,43h1v1h-1zM32,43h1v1h-1zM22,44h1v1h-1zM23,44h1v1h-1zM24,44h1v1h-1zM25,44h1v1h-1zM26,44h1v1h-1zM27,44h1v1h-1zM28,44h1v1h-1zM29,44h1v1h-1zM30,44h1v1h-1zM31,44h1v1h-1zM32,44h1v1h-1zM24,45h1v1h-1zM25,45h1v1h-1zM26,45h1v1h-1zM27,45h1v1h-1zM28,45h1v1h-1zM29,45h1v1h-1zM30,45h1v1h-1zM31,45h1v1h-1zM32,45h1v1h-1zM25,46h1v1h-1zM26,46h1v1h-1zM27,46h1v1h-1zM28,46h1v1h-1zM29,46h1v1h-1zM30,46h1v1h-1zM31,46h1v1h-1zM32,46h1v1h-1zM41,46h1v1h-1zM29,47h1v1h-1zM30,47h1v1h-1zM31,47h1v1h-1zM32,47h1v1h-1zM33,47h1v1h-1zM34,47h1v1h-1zM35,47h1v1h-1zM36,47h1v1h-1zM37,47h1v1h-1zM38,47h1v1h-1zM32,48h1v1h-1zM33,48h1v1h-1zM34,48h1v1h-1z" fill="#e81c24" opacity="1.00"/>
  <path d="M35,12h1v1h-1zM28,13h1v1h-1zM23,15h1v1h-1zM18,21h1v1h-1zM42,22h1v1h-1zM44,25h1v1h-1zM15,28h1v1h-1zM42,38h1v1h-1zM21,43h1v1h-1zM45,43h1v1h-1zM23,45h1v1h-1zM40,46h1v1h-1zM28,47h1v1h-1zM35,48h1v1h-1z" fill="#e81b23" opacity="1.00"/>
  <path d="M36,12h1v1h-1z" fill="#e81c23" opacity="0.94"/>
  <path d="M37,12h1v1h-1zM47,21h1v1h-1zM42,23h1v1h-1z" fill="#e81b23" opacity="0.77"/>
  <path d="M38,12h1v1h-1zM27,39h1v1h-1z" fill="#e91b22" opacity="0.58"/>
  <path d="M39,12h1v1h-1zM41,41h1v1h-1z" fill="#e81b22" opacity="0.44"/>
  <path d="M40,12h1v1h-1z" fill="#e51a1f" opacity="0.19"/>
  <path d="M24,13h1v1h-1z" fill="#e6111a" opacity="0.12"/>
  <path d="M25,13h1v1h-1z" fill="#e81b23" opacity="0.56"/>
  <path d="M26,13h1v1h-1z" fill="#e81b24" opacity="0.81"/>
  <path d="M27,13h1v1h-1z" fill="#e81c23" opacity="0.95"/>
  <path d="M39,13h1v1h-1zM33,17h1v1h-1zM50,33h1v1h-1zM49,36h1v1h-1z" fill="#e91c24" opacity="0.98"/>
  <path d="M40,13h1v1h-1zM28,40h1v1h-1zM20,43h1v1h-1z" fill="#e81b23" opacity="0.86"/>
  <path d="M41,13h1v1h-1z" fill="#f41621" opacity="0.09"/>
  <path d="M23,14h1v1h-1z" fill="#e81a23" opacity="0.35"/>
  <path d="M24,14h1v1h-1z" fill="#e91b23" opacity="0.90"/>
  <path d="M33,14h1v1h-1zM50,30h1v1h-1zM22,31h1v1h-1zM24,46h1v1h-1z" fill="#e81b23" opacity="0.91"/>
  <path d="M34,14h1v1h-1z" fill="#e71a22" opacity="0.47"/>
  <path d="M35,14h1v1h-1z" fill="#e81c22" opacity="0.61"/>
  <path d="M36,14h1v1h-1z" fill="#e81c23" opacity="0.78"/>
  <path d="M37,14h1v1h-1z" fill="#e81b24" opacity="0.92"/>
  <path d="M40,14h1v1h-1z" fill="#e91b24" opacity="0.90"/>
  <path d="M21,15h1v1h-1zM19,17h1v1h-1z" fill="#e6191f" opacity="0.16"/>
  <path d="M22,15h1v1h-1z" fill="#e91a22" opacity="0.58"/>
  <path d="M33,15h1v1h-1zM33,45h1v1h-1z" fill="#e81b24" opacity="0.84"/>
  <path d="M38,15h1v1h-1zM46,40h1v1h-1zM42,44h1v1h-1z" fill="#e71821" opacity="0.21"/>
  <path d="M39,15h1v1h-1z" fill="#e71a22" opacity="0.54"/>
  <path d="M40,15h1v1h-1z" fill="#e91623" opacity="0.23"/>
  <path d="M44,15h1v1h-1z" fill="#e71b24" opacity="0.33"/>
  <path d="M45,15h1v1h-1zM15,24h1v1h-1z" fill="#e91a1e" opacity="0.23"/>
  <path d="M20,16h1v1h-1zM49,41h1v1h-1z" fill="#ea1921" opacity="0.24"/>
  <path d="M21,16h1v1h-1zM42,37h1v1h-1zM41,38h1v1h-1z" fill="#e81b23" opacity="0.75"/>
  <path d="M33,16h1v1h-1z" fill="#e81b23" opacity="0.85"/>
  <path d="M34,16h1v1h-1zM47,31h1v1h-1zM17,41h1v1h-1z" fill="#df1020" opacity="0.06"/>
  <path d="M43,16h1v1h-1z" fill="#e81b23" opacity="0.48"/>
  <path d="M44,16h1v1h-1zM37,19h1v1h-1zM49,39h1v1h-1zM18,40h1v1h-1z" fill="#e81c24" opacity="0.98"/>
  <path d="M45,16h1v1h-1z" fill="#e81b23" opacity="0.80"/>
  <path d="M46,16h1v1h-1zM28,21h1v1h-1zM51,22h1v1h-1z" fill="#e91621" opacity="0.09"/>
  <path d="M20,17h1v1h-1zM23,35h1v1h-1z" fill="#e81a23" opacity="0.83"/>
  <path d="M21,17h1v1h-1zM27,20h1v1h-1zM26,21h1v1h-1zM48,22h1v1h-1zM44,23h1v1h-1zM44,37h1v1h-1zM27,40h1v1h-1zM29,41h1v1h-1zM31,48h1v1h-1z" fill="#e81b23" opacity="0.99"/>
  <path d="M34,17h1v1h-1zM36,19h1v1h-1zM40,19h1v1h-1z" fill="#e81b23" opacity="0.89"/>
  <path d="M35,17h1v1h-1z" fill="#e81b23" opacity="0.88"/>
  <path d="M36,17h1v1h-1zM16,23h1v1h-1zM44,34h1v1h-1zM49,40h1v1h-1z" fill="#e81b23" opacity="0.74"/>
  <path d="M37,17h1v1h-1z" fill="#e7181e" opacity="0.33"/>
  <path d="M38,17h1v1h-1z" fill="#e40d1b" opacity="0.07"/>
  <path d="M43,17h1v1h-1z" fill="#e81b23" opacity="0.49"/>
  <path d="M44,17h1v1h-1zM50,37h1v1h-1z" fill="#e71c24" opacity="0.98"/>
  <path d="M45,17h1v1h-1z" fill="#e91b23" opacity="0.80"/>
  <path d="M46,17h1v1h-1z" fill="#df1010" opacity="0.06"/>
  <path d="M18,18h1v1h-1zM35,40h1v1h-1zM42,41h1v1h-1zM34,44h1v1h-1z" fill="#e30e1c" opacity="0.07"/>
  <path d="M19,18h1v1h-1zM48,23h1v1h-1zM52,29h1v1h-1zM47,39h1v1h-1zM21,44h1v1h-1z" fill="#e81b23" opacity="0.78"/>
  <path d="M38,18h1v1h-1zM24,23h1v1h-1zM41,45h1v1h-1zM38,46h1v1h-1zM36,48h1v1h-1z" fill="#e81b24" opacity="0.95"/>
  <path d="M39,18h1v1h-1zM24,24h1v1h-1z" fill="#e91a23" opacity="0.54"/>
  <path d="M40,18h1v1h-1zM26,48h1v1h-1z" fill="#e71820" opacity="0.13"/>
  <path d="M44,18h1v1h-1z" fill="#e61a22" opacity="0.12"/>
  <path d="M60,18h1v1h-1zM135,42h1v1h-1z" fill="#162e5a" opacity="0.37"/>
  <path d="M61,18h1v1h-1zM74,18h1v1h-1z" fill="#162f5a" opacity="0.49"/>
  <path d="M62,18h1v1h-1zM95,42h1v1h-1z" fill="#16315a" opacity="0.41"/>
  <path d="M63,18h1v1h-1zM145,25h1v1h-1zM102,42h1v1h-1z" fill="#143158" opacity="0.20"/>
  <path d="M64,18h1v1h-1zM130,41h1v1h-1z" fill="#002e46" opacity="0.04"/>
  <path d="M72,18h1v1h-1z" fill="#172e46" opacity="0.04"/>
  <path d="M73,18h1v1h-1zM65,42h1v1h-1z" fill="#15305a" opacity="0.29"/>
  <path d="M75,18h1v1h-1zM81,18h1v1h-1zM97,18h1v1h-1zM98,18h1v1h-1zM99,18h1v1h-1zM104,18h1v1h-1zM105,18h1v1h-1zM106,18h1v1h-1zM107,18h1v1h-1zM108,18h1v1h-1zM109,18h1v1h-1zM125,18h1v1h-1zM132,18h1v1h-1zM133,18h1v1h-1zM134,18h1v1h-1zM135,18h1v1h-1zM136,18h1v1h-1z" fill="#162f59" opacity="0.49"/>
  <path d="M76,18h1v1h-1zM125,41h1v1h-1z" fill="#162f59" opacity="0.45"/>
  <path d="M77,18h1v1h-1zM64,34h1v1h-1z" fill="#0d2851" opacity="0.07"/>
  <path d="M79,18h1v1h-1zM140,27h1v1h-1zM94,39h1v1h-1zM81,40h1v1h-1zM81,41h1v1h-1zM90,42h1v1h-1z" fill="#152a55" opacity="0.09"/>
  <path d="M80,18h1v1h-1zM82,18h1v1h-1zM87,41h1v1h-1zM134,41h1v1h-1z" fill="#182f5a" opacity="0.42"/>
  <path d="M83,18h1v1h-1zM115,19h1v1h-1zM96,25h1v1h-1z" fill="#162c57" opacity="0.14"/>
  <path d="M86,18h1v1h-1zM65,19h1v1h-1zM72,27h1v1h-1zM66,29h1v1h-1zM67,39h1v1h-1z" fill="#0e2a55" opacity="0.07"/>
  <path d="M87,18h1v1h-1zM89,42h1v1h-1z" fill="#173059" opacity="0.44"/>
  <path d="M88,18h1v1h-1z" fill="#17305b" opacity="0.48"/>
  <path d="M89,18h1v1h-1z" fill="#153057" opacity="0.33"/>
  <path d="M90,18h1v1h-1z" fill="#0f2e5d" opacity="0.13"/>
  <path d="M96,18h1v1h-1zM86,34h1v1h-1z" fill="#103050" opacity="0.06"/>
  <path d="M100,18h1v1h-1zM79,41h1v1h-1zM137,42h1v1h-1z" fill="#17305b" opacity="0.40"/>
  <path d="M103,18h1v1h-1z" fill="#162f56" opacity="0.28"/>
  <path d="M110,18h1v1h-1zM110,30h1v1h-1z" fill="#183059" opacity="0.46"/>
  <path d="M111,18h1v1h-1z" fill="#152f59" opacity="0.34"/>
  <path d="M112,18h1v1h-1zM139,42h1v1h-1z" fill="#16305c" opacity="0.23"/>
  <path d="M113,18h1v1h-1zM94,31h1v1h-1z" fill="#112a55" opacity="0.12"/>
  <path d="M123,18h1v1h-1zM112,23h1v1h-1zM95,24h1v1h-1zM84,34h1v1h-1z" fill="#162c59" opacity="0.09"/>
  <path d="M124,18h1v1h-1zM97,42h1v1h-1z" fill="#172f5a" opacity="0.49"/>
  <path d="M126,18h1v1h-1z" fill="#172f58" opacity="0.38"/>
  <path d="M127,18h1v1h-1z" fill="#143158" opacity="0.10"/>
  <path d="M130,18h1v1h-1z" fill="#002a55" opacity="0.07"/>
  <path d="M131,18h1v1h-1z" fill="#172f58" opacity="0.49"/>
  <path d="M137,18h1v1h-1zM92,42h1v1h-1z" fill="#172e5b" opacity="0.47"/>
  <path d="M138,18h1v1h-1zM64,39h1v1h-1zM79,39h1v1h-1zM64,40h1v1h-1zM64,41h1v1h-1zM139,41h1v1h-1zM68,42h1v1h-1zM72,42h1v1h-1z" fill="#16315a" opacity="0.37"/>
  <path d="M139,18h1v1h-1z" fill="#14315d" opacity="0.25"/>
  <path d="M140,18h1v1h-1z" fill="#162c5f" opacity="0.14"/>
  <path d="M17,19h1v1h-1zM23,32h1v1h-1z" fill="#eb1414" opacity="0.05"/>
  <path d="M18,19h1v1h-1z" fill="#e71b21" opacity="0.63"/>
  <path d="M29,19h1v1h-1zM44,35h1v1h-1zM26,39h1v1h-1zM33,43h1v1h-1z" fill="#e91b23" opacity="0.99"/>
  <path d="M30,19h1v1h-1zM43,24h1v1h-1zM50,29h1v1h-1zM50,31h1v1h-1z" fill="#e81b24" opacity="0.93"/>
  <path d="M31,19h1v1h-1z" fill="#e71c23" opacity="0.79"/>
  <path d="M32,19h1v1h-1z" fill="#e71b24" opacity="0.67"/>
  <path d="M33,19h1v1h-1z" fill="#e71b23" opacity="0.62"/>
  <path d="M34,19h1v1h-1z" fill="#e81a24" opacity="0.64"/>
  <path d="M35,19h1v1h-1zM40,45h1v1h-1z" fill="#e81b23" opacity="0.73"/>
  <path d="M41,19h1v1h-1zM23,46h1v1h-1z" fill="#e81a21" opacity="0.39"/>
  <path d="M42,19h1v1h-1zM44,31h1v1h-1z" fill="#ee1122" opacity="0.06"/>
  <path d="M48,19h1v1h-1z" fill="#e7181f" opacity="0.25"/>
  <path d="M49,19h1v1h-1z" fill="#e61922" opacity="0.20"/>
  <path d="M60,19h1v1h-1zM60,20h1v1h-1zM60,21h1v1h-1zM60,22h1v1h-1zM60,23h1v1h-1zM60,24h1v1h-1zM60,25h1v1h-1zM60,26h1v1h-1zM60,27h1v1h-1zM60,28h1v1h-1zM60,29h1v1h-1zM60,30h1v1h-1zM60,31h1v1h-1zM60,32h1v1h-1zM60,33h1v1h-1z" fill="#18315b" opacity="0.75"/>
  <path d="M61,19h1v1h-1zM62,19h1v1h-1zM74,19h1v1h-1zM75,19h1v1h-1zM81,19h1v1h-1zM88,19h1v1h-1zM89,19h1v1h-1zM97,19h1v1h-1zM98,19h1v1h-1zM99,19h1v1h-1zM104,19h1v1h-1zM105,19h1v1h-1zM106,19h1v1h-1zM107,19h1v1h-1zM108,19h1v1h-1zM109,19h1v1h-1zM110,19h1v1h-1zM111,19h1v1h-1zM125,19h1v1h-1zM126,19h1v1h-1zM132,19h1v1h-1zM133,19h1v1h-1zM134,19h1v1h-1zM135,19h1v1h-1zM136,19h1v1h-1zM137,19h1v1h-1zM138,19h1v1h-1zM139,19h1v1h-1zM61,20h1v1h-1zM62,20h1v1h-1zM63,20h1v1h-1zM74,20h1v1h-1zM75,20h1v1h-1zM81,20h1v1h-1zM82,20h1v1h-1zM88,20h1v1h-1zM89,20h1v1h-1zM97,20h1v1h-1zM98,20h1v1h-1zM99,20h1v1h-1zM104,20h1v1h-1zM105,20h1v1h-1zM106,20h1v1h-1zM107,20h1v1h-1zM108,20h1v1h-1zM109,20h1v1h-1zM110,20h1v1h-1zM111,20h1v1h-1zM112,20h1v1h-1zM113,20h1v1h-1zM125,20h1v1h-1zM126,20h1v1h-1zM132,20h1v1h-1zM133,20h1v1h-1zM134,20h1v1h-1zM135,20h1v1h-1zM136,20h1v1h-1zM137,20h1v1h-1zM138,20h1v1h-1zM139,20h1v1h-1zM140,20h1v1h-1zM141,20h1v1h-1zM61,21h1v1h-1zM62,21h1v1h-1zM63,21h1v1h-1zM73,21h1v1h-1zM74,21h1v1h-1zM75,21h1v1h-1zM81,21h1v1h-1zM82,21h1v1h-1zM88,21h1v1h-1zM89,21h1v1h-1zM90,21h1v1h-1zM97,21h1v1h-1zM98,21h1v1h-1zM99,21h1v1h-1zM104,21h1v1h-1zM105,21h1v1h-1zM106,21h1v1h-1zM112,21h1v1h-1zM113,21h1v1h-1zM114,21h1v1h-1zM115,21h1v1h-1zM125,21h1v1h-1zM126,21h1v1h-1zM132,21h1v1h-1zM133,21h1v1h-1zM139,21h1v1h-1zM140,21h1v1h-1zM141,21h1v1h-1zM61,22h1v1h-1zM62,22h1v1h-1zM63,22h1v1h-1zM64,22h1v1h-1zM65,22h1v1h-1zM72,22h1v1h-1zM73,22h1v1h-1zM74,22h1v1h-1zM75,22h1v1h-1zM81,22h1v1h-1zM82,22h1v1h-1zM88,22h1v1h-1zM89,22h1v1h-1zM90,22h1v1h-1zM91,22h1v1h-1zM97,22h1v1h-1zM98,22h1v1h-1zM99,22h1v1h-1zM104,22h1v1h-1zM105,22h1v1h-1zM106,22h1v1h-1zM114,22h1v1h-1zM115,22h1v1h-1zM125,22h1v1h-1zM126,22h1v1h-1zM132,22h1v1h-1zM133,22h1v1h-1zM141,22h1v1h-1zM142,22h1v1h-1zM143,22h1v1h-1zM61,23h1v1h-1zM62,23h1v1h-1zM63,23h1v1h-1zM64,23h1v1h-1zM65,23h1v1h-1zM71,23h1v1h-1zM72,23h1v1h-1zM73,23h1v1h-1zM74,23h1v1h-1zM75,23h1v1h-1zM81,23h1v1h-1zM82,23h1v1h-1zM88,23h1v1h-1zM89,23h1v1h-1zM90,23h1v1h-1zM91,23h1v1h-1zM92,23h1v1h-1zM97,23h1v1h-1zM98,23h1v1h-1zM99,23h1v1h-1zM104,23h1v1h-1zM105,23h1v1h-1zM106,23h1v1h-1zM114,23h1v1h-1zM115,23h1v1h-1zM125,23h1v1h-1zM126,23h1v1h-1zM132,23h1v1h-1zM133,23h1v1h-1zM141,23h1v1h-1zM142,23h1v1h-1zM143,23h1v1h-1zM61,24h1v1h-1zM62,24h1v1h-1zM65,24h1v1h-1zM66,24h1v1h-1zM71,24h1v1h-1zM74,24h1v1h-1zM75,24h1v1h-1zM81,24h1v1h-1zM82,24h1v1h-1zM88,24h1v1h-1zM89,24h1v1h-1zM90,24h1v1h-1zM91,24h1v1h-1zM92,24h1v1h-1zM97,24h1v1h-1zM98,24h1v1h-1zM99,24h1v1h-1zM104,24h1v1h-1zM105,24h1v1h-1zM106,24h1v1h-1zM115,24h1v1h-1zM116,24h1v1h-1zM125,24h1v1h-1zM126,24h1v1h-1zM132,24h1v1h-1zM133,24h1v1h-1zM141,24h1v1h-1zM142,24h1v1h-1zM143,24h1v1h-1zM61,25h1v1h-1zM62,25h1v1h-1zM66,25h1v1h-1zM70,25h1v1h-1zM74,25h1v1h-1zM75,25h1v1h-1zM81,25h1v1h-1zM82,25h1v1h-1zM88,25h1v1h-1zM89,25h1v1h-1zM93,25h1v1h-1zM97,25h1v1h-1zM98,25h1v1h-1zM99,25h1v1h-1zM104,25h1v1h-1zM105,25h1v1h-1zM106,25h1v1h-1zM115,25h1v1h-1zM116,25h1v1h-1zM125,25h1v1h-1zM126,25h1v1h-1zM132,25h1v1h-1zM133,25h1v1h-1zM142,25h1v1h-1zM143,25h1v1h-1zM144,25h1v1h-1zM61,26h1v1h-1zM62,26h1v1h-1zM67,26h1v1h-1zM68,26h1v1h-1zM69,26h1v1h-1zM70,26h1v1h-1zM74,26h1v1h-1zM75,26h1v1h-1zM81,26h1v1h-1zM82,26h1v1h-1zM88,26h1v1h-1zM89,26h1v1h-1zM93,26h1v1h-1zM94,26h1v1h-1zM97,26h1v1h-1zM98,26h1v1h-1zM99,26h1v1h-1zM104,26h1v1h-1zM105,26h1v1h-1zM106,26h1v1h-1zM115,26h1v1h-1zM116,26h1v1h-1zM125,26h1v1h-1zM126,26h1v1h-1zM132,26h1v1h-1zM133,26h1v1h-1zM142,26h1v1h-1zM143,26h1v1h-1zM144,26h1v1h-1zM61,27h1v1h-1zM62,27h1v1h-1zM67,27h1v1h-1zM68,27h1v1h-1zM69,27h1v1h-1zM70,27h1v1h-1zM74,27h1v1h-1zM75,27h1v1h-1zM81,27h1v1h-1zM82,27h1v1h-1zM88,27h1v1h-1zM89,27h1v1h-1zM93,27h1v1h-1zM94,27h1v1h-1zM95,27h1v1h-1zM97,27h1v1h-1zM98,27h1v1h-1zM99,27h1v1h-1zM104,27h1v1h-1zM105,27h1v1h-1zM106,27h1v1h-1zM115,27h1v1h-1zM116,27h1v1h-1zM125,27h1v1h-1zM126,27h1v1h-1zM132,27h1v1h-1zM133,27h1v1h-1zM142,27h1v1h-1zM143,27h1v1h-1zM144,27h1v1h-1zM61,28h1v1h-1zM62,28h1v1h-1zM67,28h1v1h-1zM68,28h1v1h-1zM69,28h1v1h-1zM74,28h1v1h-1zM75,28h1v1h-1zM81,28h1v1h-1zM82,28h1v1h-1zM88,28h1v1h-1zM89,28h1v1h-1zM94,28h1v1h-1zM95,28h1v1h-1zM96,28h1v1h-1zM97,28h1v1h-1zM98,28h1v1h-1zM99,28h1v1h-1zM104,28h1v1h-1zM105,28h1v1h-1zM106,28h1v1h-1zM115,28h1v1h-1zM116,28h1v1h-1zM125,28h1v1h-1zM126,28h1v1h-1zM132,28h1v1h-1zM133,28h1v1h-1zM142,28h1v1h-1zM143,28h1v1h-1zM61,29h1v1h-1zM62,29h1v1h-1zM74,29h1v1h-1zM75,29h1v1h-1zM81,29h1v1h-1zM82,29h1v1h-1zM88,29h1v1h-1zM89,29h1v1h-1zM95,29h1v1h-1zM96,29h1v1h-1zM97,29h1v1h-1zM98,29h1v1h-1zM99,29h1v1h-1zM104,29h1v1h-1zM105,29h1v1h-1zM106,29h1v1h-1zM114,29h1v1h-1zM115,29h1v1h-1zM125,29h1v1h-1zM126,29h1v1h-1zM132,29h1v1h-1zM133,29h1v1h-1zM141,29h1v1h-1zM142,29h1v1h-1zM143,29h1v1h-1zM61,30h1v1h-1zM62,30h1v1h-1zM74,30h1v1h-1zM75,30h1v1h-1zM81,30h1v1h-1zM82,30h1v1h-1zM88,30h1v1h-1zM89,30h1v1h-1zM96,30h1v1h-1zM97,30h1v1h-1zM98,30h1v1h-1zM99,30h1v1h-1zM104,30h1v1h-1zM105,30h1v1h-1zM106,30h1v1h-1zM113,30h1v1h-1zM114,30h1v1h-1zM115,30h1v1h-1zM125,30h1v1h-1zM126,30h1v1h-1zM132,30h1v1h-1zM133,30h1v1h-1zM141,30h1v1h-1zM142,30h1v1h-1zM61,31h1v1h-1zM62,31h1v1h-1zM74,31h1v1h-1zM75,31h1v1h-1zM81,31h1v1h-1zM82,31h1v1h-1zM88,31h1v1h-1zM89,31h1v1h-1zM97,31h1v1h-1zM98,31h1v1h-1zM99,31h1v1h-1zM104,31h1v1h-1zM105,31h1v1h-1zM106,31h1v1h-1zM112,31h1v1h-1zM113,31h1v1h-1zM114,31h1v1h-1zM115,31h1v1h-1zM125,31h1v1h-1zM126,31h1v1h-1zM132,31h1v1h-1zM133,31h1v1h-1zM139,31h1v1h-1zM140,31h1v1h-1zM141,31h1v1h-1zM61,32h1v1h-1zM62,32h1v1h-1zM74,32h1v1h-1zM75,32h1v1h-1zM81,32h1v1h-1zM82,32h1v1h-1zM88,32h1v1h-1zM89,32h1v1h-1zM97,32h1v1h-1zM98,32h1v1h-1zM99,32h1v1h-1zM104,32h1v1h-1zM105,32h1v1h-1zM106,32h1v1h-1zM107,32h1v1h-1zM108,32h1v1h-1zM109,32h1v1h-1zM110,32h1v1h-1zM111,32h1v1h-1zM112,32h1v1h-1zM113,32h1v1h-1zM114,32h1v1h-1zM125,32h1v1h-1zM126,32h1v1h-1zM132,32h1v1h-1zM133,32h1v1h-1zM134,32h1v1h-1zM135,32h1v1h-1zM136,32h1v1h-1zM137,32h1v1h-1zM138,32h1v1h-1zM139,32h1v1h-1zM140,32h1v1h-1zM141,32h1v1h-1zM61,33h1v1h-1zM62,33h1v1h-1zM74,33h1v1h-1zM75,33h1v1h-1zM81,33h1v1h-1zM82,33h1v1h-1zM88,33h1v1h-1zM89,33h1v1h-1zM107,33h1v1h-1zM108,33h1v1h-1zM109,33h1v1h-1zM125,33h1v1h-1zM126,33h1v1h-1zM134,33h1v1h-1zM135,33h1v1h-1zM136,33h1v1h-1z" fill="#19325c" opacity="1.00"/>
  <path d="M63,19h1v1h-1z" fill="#18315b" opacity="0.98"/>
  <path d="M64,19h1v1h-1zM72,40h1v1h-1zM140,40h1v1h-1zM68,41h1v1h-1zM72,41h1v1h-1z" fill="#17305b" opacity="0.52"/>
  <path d="M72,19h1v1h-1zM87,34h1v1h-1zM138,34h1v1h-1zM103,40h1v1h-1z" fill="#17315a" opacity="0.39"/>
  <path d="M73,19h1v1h-1z" fill="#18315b" opacity="0.94"/>
  <path d="M76,19h1v1h-1zM76,20h1v1h-1zM76,21h1v1h-1zM76,22h1v1h-1zM76,23h1v1h-1zM76,24h1v1h-1zM76,25h1v1h-1zM76,26h1v1h-1zM76,27h1v1h-1zM76,28h1v1h-1zM76,29h1v1h-1zM76,30h1v1h-1zM76,31h1v1h-1zM76,32h1v1h-1zM76,33h1v1h-1z" fill="#18325c" opacity="0.91"/>
  <path d="M77,19h1v1h-1zM77,20h1v1h-1zM77,21h1v1h-1zM77,22h1v1h-1zM77,23h1v1h-1zM77,24h1v1h-1zM77,25h1v1h-1zM77,26h1v1h-1zM77,27h1v1h-1zM118,27h1v1h-1zM77,28h1v1h-1zM77,29h1v1h-1zM77,30h1v1h-1zM77,31h1v1h-1zM77,32h1v1h-1zM77,33h1v1h-1zM102,38h1v1h-1z" fill="#142e5c" opacity="0.15"/>
  <path d="M79,19h1v1h-1zM79,20h1v1h-1zM79,21h1v1h-1zM79,22h1v1h-1zM79,23h1v1h-1zM79,24h1v1h-1zM79,25h1v1h-1zM79,26h1v1h-1zM79,27h1v1h-1zM79,28h1v1h-1zM79,29h1v1h-1zM79,30h1v1h-1zM79,31h1v1h-1zM79,32h1v1h-1zM79,33h1v1h-1zM139,40h1v1h-1zM67,41h1v1h-1z" fill="#152f58" opacity="0.19"/>
  <path d="M80,19h1v1h-1zM80,20h1v1h-1zM80,21h1v1h-1zM80,22h1v1h-1zM80,23h1v1h-1zM80,24h1v1h-1zM80,25h1v1h-1zM91,25h1v1h-1zM80,26h1v1h-1zM80,27h1v1h-1zM80,28h1v1h-1zM80,29h1v1h-1zM80,30h1v1h-1zM80,31h1v1h-1zM80,32h1v1h-1zM80,33h1v1h-1z" fill="#18315b" opacity="0.86"/>
  <path d="M82,19h1v1h-1zM112,19h1v1h-1zM90,20h1v1h-1zM64,21h1v1h-1zM111,21h1v1h-1zM142,21h1v1h-1zM63,24h1v1h-1zM92,25h1v1h-1zM114,28h1v1h-1zM141,28h1v1h-1zM116,29h1v1h-1zM96,31h1v1h-1zM111,31h1v1h-1zM142,31h1v1h-1zM99,33h1v1h-1zM106,33h1v1h-1zM137,33h1v1h-1z" fill="#18315b" opacity="1.00"/>
  <path d="M83,19h1v1h-1zM129,40h1v1h-1z" fill="#18315b" opacity="0.71"/>
  <path d="M84,19h1v1h-1zM116,39h1v1h-1zM71,42h1v1h-1zM75,42h1v1h-1z" fill="#122c58" opacity="0.11"/>
  <path d="M86,19h1v1h-1zM86,20h1v1h-1zM86,21h1v1h-1zM86,22h1v1h-1zM86,23h1v1h-1zM86,24h1v1h-1zM86,25h1v1h-1zM86,26h1v1h-1zM86,27h1v1h-1zM86,28h1v1h-1zM86,29h1v1h-1zM86,30h1v1h-1zM86,31h1v1h-1zM86,32h1v1h-1zM86,33h1v1h-1zM110,42h1v1h-1zM119,42h1v1h-1z" fill="#15305a" opacity="0.15"/>
  <path d="M87,19h1v1h-1zM87,20h1v1h-1zM87,21h1v1h-1zM87,22h1v1h-1zM134,22h1v1h-1zM87,23h1v1h-1zM134,23h1v1h-1zM87,24h1v1h-1zM134,24h1v1h-1zM69,25h1v1h-1zM87,25h1v1h-1zM134,25h1v1h-1zM71,26h1v1h-1zM87,26h1v1h-1zM134,26h1v1h-1zM87,27h1v1h-1zM134,27h1v1h-1zM87,28h1v1h-1zM134,28h1v1h-1zM87,29h1v1h-1zM134,29h1v1h-1zM87,30h1v1h-1zM87,31h1v1h-1zM87,32h1v1h-1zM87,33h1v1h-1z" fill="#19325b" opacity="0.89"/>
  <path d="M90,19h1v1h-1zM70,23h1v1h-1zM67,29h1v1h-1zM107,30h1v1h-1z" fill="#18315b" opacity="0.84"/>
  <path d="M91,19h1v1h-1zM78,42h1v1h-1z" fill="#16305c" opacity="0.27"/>
  <path d="M96,19h1v1h-1zM96,20h1v1h-1zM96,21h1v1h-1zM96,22h1v1h-1zM96,23h1v1h-1zM96,24h1v1h-1zM118,24h1v1h-1zM142,40h1v1h-1z" fill="#183058" opacity="0.13"/>
  <path d="M100,19h1v1h-1zM100,20h1v1h-1zM100,21h1v1h-1zM100,22h1v1h-1zM100,23h1v1h-1zM100,24h1v1h-1zM100,25h1v1h-1zM100,26h1v1h-1zM100,27h1v1h-1zM100,28h1v1h-1zM100,29h1v1h-1zM100,30h1v1h-1zM100,31h1v1h-1zM100,32h1v1h-1zM100,33h1v1h-1z" fill="#19325c" opacity="0.81"/>
  <path d="M103,19h1v1h-1zM103,20h1v1h-1zM103,21h1v1h-1zM66,22h1v1h-1zM103,22h1v1h-1zM103,23h1v1h-1zM117,23h1v1h-1zM103,24h1v1h-1zM103,25h1v1h-1zM103,26h1v1h-1zM103,27h1v1h-1zM103,28h1v1h-1zM103,29h1v1h-1zM103,30h1v1h-1zM99,40h1v1h-1z" fill="#17315b" opacity="0.57"/>
  <path d="M113,19h1v1h-1z" fill="#18325b" opacity="0.87"/>
  <path d="M114,19h1v1h-1zM113,28h1v1h-1z" fill="#18315a" opacity="0.51"/>
  <path d="M123,19h1v1h-1zM123,20h1v1h-1zM123,21h1v1h-1zM123,22h1v1h-1zM123,23h1v1h-1zM123,24h1v1h-1zM123,25h1v1h-1zM123,26h1v1h-1zM64,27h1v1h-1zM123,27h1v1h-1zM123,28h1v1h-1zM123,29h1v1h-1zM123,30h1v1h-1zM123,31h1v1h-1zM123,32h1v1h-1zM123,33h1v1h-1z" fill="#163259" opacity="0.18"/>
  <path d="M124,19h1v1h-1zM124,20h1v1h-1zM124,21h1v1h-1zM124,22h1v1h-1zM124,23h1v1h-1zM70,24h1v1h-1zM124,24h1v1h-1zM124,25h1v1h-1zM124,26h1v1h-1zM124,27h1v1h-1zM124,28h1v1h-1zM144,28h1v1h-1zM124,29h1v1h-1zM124,30h1v1h-1zM124,31h1v1h-1zM124,32h1v1h-1zM124,33h1v1h-1z" fill="#18325b" opacity="0.99"/>
  <path d="M127,19h1v1h-1zM97,41h1v1h-1z" fill="#17315b" opacity="0.69"/>
  <path d="M130,19h1v1h-1zM130,20h1v1h-1zM130,21h1v1h-1zM130,22h1v1h-1zM130,23h1v1h-1zM130,24h1v1h-1zM130,25h1v1h-1zM130,26h1v1h-1zM130,27h1v1h-1zM130,28h1v1h-1zM130,29h1v1h-1zM130,30h1v1h-1zM136,41h1v1h-1z" fill="#15295a" opacity="0.15"/>
  <path d="M131,19h1v1h-1zM131,20h1v1h-1zM131,21h1v1h-1zM131,22h1v1h-1zM131,23h1v1h-1zM131,24h1v1h-1zM65,25h1v1h-1zM131,25h1v1h-1zM131,26h1v1h-1zM131,27h1v1h-1zM131,28h1v1h-1zM131,29h1v1h-1zM131,30h1v1h-1zM107,31h1v1h-1zM131,31h1v1h-1z" fill="#18325b" opacity="0.98"/>
  <path d="M140,19h1v1h-1zM64,20h1v1h-1zM114,27h1v1h-1z" fill="#19315c" opacity="0.94"/>
  <path d="M141,19h1v1h-1zM141,33h1v1h-1zM95,41h1v1h-1zM93,42h1v1h-1z" fill="#18315a" opacity="0.55"/>
  <path d="M142,19h1v1h-1zM145,41h1v1h-1z" fill="#143159" opacity="0.25"/>
  <path d="M17,20h1v1h-1z" fill="#e71a21" opacity="0.46"/>
  <path d="M18,20h1v1h-1z" fill="#e71c23" opacity="0.98"/>
  <path d="M28,20h1v1h-1z" fill="#e91c24" opacity="0.87"/>
  <path d="M29,20h1v1h-1z" fill="#e91822" opacity="0.41"/>
  <path d="M30,20h1v1h-1zM14,30h1v1h-1z" fill="#e71b23" opacity="0.25"/>
  <path d="M31,20h1v1h-1z" fill="#e9161d" opacity="0.14"/>
  <path d="M35,20h1v1h-1z" fill="#e91616" opacity="0.09"/>
  <path d="M36,20h1v1h-1z" fill="#e81c20" opacity="0.22"/>
  <path d="M37,20h1v1h-1z" fill="#e91a23" opacity="0.31"/>
  <path d="M38,20h1v1h-1z" fill="#e81a22" opacity="0.70"/>
  <path d="M39,20h1v1h-1z" fill="#e81c24" opacity="0.97"/>
  <path d="M41,20h1v1h-1zM49,21h1v1h-1z" fill="#e81b23" opacity="0.97"/>
  <path d="M42,20h1v1h-1zM23,34h1v1h-1z" fill="#e71a22" opacity="0.58"/>
  <path d="M43,20h1v1h-1z" fill="#e81723" opacity="0.09"/>
  <path d="M47,20h1v1h-1z" fill="#e71a21" opacity="0.51"/>
  <path d="M48,20h1v1h-1z" fill="#e81b23" opacity="0.90"/>
  <path d="M49,20h1v1h-1z" fill="#e91a23" opacity="0.72"/>
  <path d="M50,20h1v1h-1z" fill="#f10e1c" opacity="0.07"/>
  <path d="M65,20h1v1h-1zM76,34h1v1h-1zM125,42h1v1h-1z" fill="#162f5a" opacity="0.40"/>
  <path d="M71,20h1v1h-1zM66,39h1v1h-1zM67,42h1v1h-1z" fill="#0f2c57" opacity="0.14"/>
  <path d="M72,20h1v1h-1z" fill="#18325b" opacity="0.80"/>
  <path d="M73,20h1v1h-1zM138,31h1v1h-1z" fill="#19315b" opacity="1.00"/>
  <path d="M83,20h1v1h-1z" fill="#18325b" opacity="0.84"/>
  <path d="M84,20h1v1h-1zM67,40h1v1h-1z" fill="#14325a" opacity="0.20"/>
  <path d="M91,20h1v1h-1zM127,20h1v1h-1zM127,21h1v1h-1zM127,22h1v1h-1zM127,23h1v1h-1zM127,24h1v1h-1zM127,25h1v1h-1zM127,26h1v1h-1zM127,27h1v1h-1zM127,28h1v1h-1zM127,29h1v1h-1zM127,30h1v1h-1zM127,31h1v1h-1zM127,32h1v1h-1zM97,33h1v1h-1zM127,33h1v1h-1zM60,39h1v1h-1zM109,41h1v1h-1z" fill="#18315b" opacity="0.79"/>
  <path d="M92,20h1v1h-1zM66,21h1v1h-1z" fill="#162d5a" opacity="0.13"/>
  <path d="M114,20h1v1h-1zM116,23h1v1h-1z" fill="#19325b" opacity="1.00"/>
  <path d="M115,20h1v1h-1z" fill="#19325b" opacity="0.80"/>
  <path d="M116,20h1v1h-1zM139,34h1v1h-1zM86,40h1v1h-1z" fill="#152f59" opacity="0.24"/>
  <path d="M128,20h1v1h-1zM96,40h1v1h-1z" fill="#0d285e" opacity="0.07"/>
  <path d="M142,20h1v1h-1z" fill="#18315c" opacity="0.87"/>
  <path d="M143,20h1v1h-1z" fill="#162e59" opacity="0.33"/>
  <path d="M16,21h1v1h-1zM44,33h1v1h-1z" fill="#e2161d" opacity="0.14"/>
  <path d="M17,21h1v1h-1zM19,42h1v1h-1z" fill="#e81c23" opacity="0.79"/>
  <path d="M27,21h1v1h-1zM25,47h1v1h-1z" fill="#e81a22" opacity="0.62"/>
  <path d="M39,21h1v1h-1z" fill="#e71b20" opacity="0.38"/>
  <path d="M40,21h1v1h-1z" fill="#e81c24" opacity="0.95"/>
  <path d="M42,21h1v1h-1zM17,22h1v1h-1zM49,24h1v1h-1zM50,27h1v1h-1zM17,38h1v1h-1zM48,38h1v1h-1zM39,46h1v1h-1z" fill="#e81b24" opacity="0.98"/>
  <path d="M43,21h1v1h-1z" fill="#e91a23" opacity="0.55"/>
  <path d="M46,21h1v1h-1zM46,39h1v1h-1zM38,49h1v1h-1z" fill="#e10f1e" opacity="0.07"/>
  <path d="M50,21h1v1h-1z" fill="#e81923" opacity="0.40"/>
  <path d="M65,21h1v1h-1zM142,32h1v1h-1z" fill="#17315c" opacity="0.82"/>
  <path d="M71,21h1v1h-1z" fill="#16325b" opacity="0.58"/>
  <path d="M72,21h1v1h-1zM91,21h1v1h-1zM134,21h1v1h-1zM144,24h1v1h-1zM71,25h1v1h-1zM66,26h1v1h-1zM134,31h1v1h-1zM110,33h1v1h-1zM133,33h1v1h-1z" fill="#18315c" opacity="0.99"/>
  <path d="M83,21h1v1h-1zM83,22h1v1h-1zM83,23h1v1h-1zM83,24h1v1h-1zM83,25h1v1h-1zM83,26h1v1h-1zM83,27h1v1h-1zM83,28h1v1h-1zM83,29h1v1h-1zM83,30h1v1h-1zM83,31h1v1h-1zM83,32h1v1h-1zM83,33h1v1h-1z" fill="#19325c" opacity="0.85"/>
  <path d="M84,21h1v1h-1zM84,22h1v1h-1zM84,23h1v1h-1zM84,24h1v1h-1zM84,25h1v1h-1zM84,26h1v1h-1zM84,27h1v1h-1zM84,28h1v1h-1zM84,29h1v1h-1zM84,30h1v1h-1zM84,31h1v1h-1zM84,32h1v1h-1zM84,33h1v1h-1z" fill="#193158" opacity="0.20"/>
  <path d="M92,21h1v1h-1zM66,28h1v1h-1z" fill="#18305a" opacity="0.63"/>
  <path d="M107,21h1v1h-1z" fill="#19325b" opacity="0.98"/>
  <path d="M108,21h1v1h-1zM109,21h1v1h-1zM135,21h1v1h-1zM136,21h1v1h-1zM141,26h1v1h-1z" fill="#19325c" opacity="0.95"/>
  <path d="M110,21h1v1h-1zM137,21h1v1h-1z" fill="#19325c" opacity="0.96"/>
  <path d="M116,21h1v1h-1zM140,29h1v1h-1z" fill="#18315c" opacity="0.75"/>
  <path d="M117,21h1v1h-1zM139,23h1v1h-1zM130,32h1v1h-1z" fill="#112255" opacity="0.06"/>
  <path d="M128,21h1v1h-1zM128,22h1v1h-1zM128,23h1v1h-1zM128,24h1v1h-1zM128,25h1v1h-1zM128,26h1v1h-1zM128,27h1v1h-1zM128,28h1v1h-1zM128,29h1v1h-1zM128,30h1v1h-1zM128,31h1v1h-1zM128,32h1v1h-1zM128,33h1v1h-1zM79,34h1v1h-1z" fill="#183155" opacity="0.08"/>
  <path d="M138,21h1v1h-1z" fill="#19325c" opacity="0.99"/>
  <path d="M143,21h1v1h-1z" fill="#18305b" opacity="0.83"/>
  <path d="M144,21h1v1h-1zM85,38h1v1h-1z" fill="#153255" opacity="0.14"/>
  <path d="M16,22h1v1h-1zM46,34h1v1h-1zM44,42h1v1h-1z" fill="#e81922" opacity="0.44"/>
  <path d="M25,22h1v1h-1z" fill="#e91c23" opacity="0.93"/>
  <path d="M26,22h1v1h-1z" fill="#e71b21" opacity="0.51"/>
  <path d="M40,22h1v1h-1z" fill="#e41422" opacity="0.15"/>
  <path d="M41,22h1v1h-1zM36,43h1v1h-1z" fill="#e81a23" opacity="0.80"/>
  <path d="M44,22h1v1h-1z" fill="#ea1a23" opacity="0.42"/>
  <path d="M47,22h1v1h-1z" fill="#e71823" opacity="0.37"/>
  <path d="M50,22h1v1h-1z" fill="#e81b22" opacity="0.70"/>
  <path d="M70,22h1v1h-1z" fill="#152e59" opacity="0.28"/>
  <path d="M71,22h1v1h-1zM113,22h1v1h-1z" fill="#19315c" opacity="0.98"/>
  <path d="M92,22h1v1h-1zM93,24h1v1h-1zM140,30h1v1h-1z" fill="#18325c" opacity="0.99"/>
  <path d="M93,22h1v1h-1z" fill="#142e5c" opacity="0.35"/>
  <path d="M107,22h1v1h-1zM107,23h1v1h-1zM107,24h1v1h-1zM107,25h1v1h-1zM107,26h1v1h-1zM107,27h1v1h-1zM107,28h1v1h-1zM107,29h1v1h-1z" fill="#19315a" opacity="0.73"/>
  <path d="M111,22h1v1h-1zM101,42h1v1h-1z" fill="#142c58" opacity="0.20"/>
  <path d="M112,22h1v1h-1z" fill="#17315a" opacity="0.73"/>
  <path d="M116,22h1v1h-1zM66,23h1v1h-1zM73,24h1v1h-1z" fill="#19315c" opacity="0.97"/>
  <path d="M117,22h1v1h-1zM95,25h1v1h-1z" fill="#16325c" opacity="0.40"/>
  <path d="M135,22h1v1h-1zM135,23h1v1h-1zM135,24h1v1h-1zM135,25h1v1h-1zM135,26h1v1h-1zM135,27h1v1h-1zM135,28h1v1h-1zM135,29h1v1h-1z" fill="#103060" opacity="0.06"/>
  <path d="M138,22h1v1h-1zM92,41h1v1h-1zM132,42h1v1h-1z" fill="#0f2e55" opacity="0.13"/>
  <path d="M139,22h1v1h-1zM64,25h1v1h-1z" fill="#17305a" opacity="0.62"/>
  <path d="M140,22h1v1h-1zM108,31h1v1h-1zM136,31h1v1h-1zM63,39h1v1h-1z" fill="#18325c" opacity="0.95"/>
  <path d="M144,22h1v1h-1z" fill="#17325b" opacity="0.48"/>
  <path d="M15,23h1v1h-1z" fill="#e61a1a" opacity="0.08"/>
  <path d="M25,23h1v1h-1z" fill="#e71a21" opacity="0.45"/>
  <path d="M41,23h1v1h-1zM45,33h1v1h-1z" fill="#e31522" opacity="0.15"/>
  <path d="M45,23h1v1h-1z" fill="#e51a21" opacity="0.27"/>
  <path d="M50,23h1v1h-1zM39,40h1v1h-1zM41,40h1v1h-1z" fill="#e81c23" opacity="0.97"/>
  <path d="M67,23h1v1h-1zM84,38h1v1h-1z" fill="#18305a" opacity="0.29"/>
  <path d="M69,23h1v1h-1z" fill="#10295a" opacity="0.12"/>
  <path d="M93,23h1v1h-1z" fill="#18315c" opacity="0.86"/>
  <path d="M94,23h1v1h-1z" fill="#182f5a" opacity="0.21"/>
  <path d="M113,23h1v1h-1z" fill="#19325b" opacity="0.73"/>
  <path d="M118,23h1v1h-1z" fill="#002e5d" opacity="0.04"/>
  <path d="M140,23h1v1h-1z" fill="#17315b" opacity="0.66"/>
  <path d="M144,23h1v1h-1z" fill="#18315c" opacity="0.85"/>
  <path d="M16,24h1v1h-1zM15,33h1v1h-1z" fill="#e71b23" opacity="0.98"/>
  <path d="M25,24h1v1h-1z" fill="#e6001a" opacity="0.04"/>
  <path d="M42,24h1v1h-1z" fill="#e91c22" opacity="0.32"/>
  <path d="M45,24h1v1h-1z" fill="#e61b23" opacity="0.77"/>
  <path d="M48,24h1v1h-1z" fill="#ec1a20" opacity="0.16"/>
  <path d="M51,24h1v1h-1z" fill="#e91b23" opacity="0.63"/>
  <path d="M64,24h1v1h-1z" fill="#18315b" opacity="0.99"/>
  <path d="M67,24h1v1h-1z" fill="#17305b" opacity="0.83"/>
  <path d="M68,24h1v1h-1z" fill="#0f2d5a" opacity="0.13"/>
  <path d="M69,24h1v1h-1zM76,40h1v1h-1z" fill="#19315b" opacity="0.53"/>
  <path d="M72,24h1v1h-1zM94,25h1v1h-1z" fill="#19325c" opacity="0.97"/>
  <path d="M94,24h1v1h-1z" fill="#18305b" opacity="0.67"/>
  <path d="M113,24h1v1h-1z" fill="#18315c" opacity="0.47"/>
  <path d="M114,24h1v1h-1zM141,27h1v1h-1zM110,31h1v1h-1z" fill="#19315b" opacity="0.98"/>
  <path d="M117,24h1v1h-1z" fill="#18315c" opacity="0.82"/>
  <path d="M140,24h1v1h-1zM103,41h1v1h-1z" fill="#143058" opacity="0.25"/>
  <path d="M145,24h1v1h-1z" fill="#19295a" opacity="0.12"/>
  <path d="M15,25h1v1h-1z" fill="#e71a22" opacity="0.50"/>
  <path d="M23,25h1v1h-1z" fill="#e71b23" opacity="0.85"/>
  <path d="M24,25h1v1h-1z" fill="#e5161f" opacity="0.23"/>
  <path d="M43,25h1v1h-1zM38,40h1v1h-1z" fill="#e81b23" opacity="0.66"/>
  <path d="M45,25h1v1h-1z" fill="#e71b24" opacity="0.93"/>
  <path d="M49,25h1v1h-1z" fill="#e71b23" opacity="0.87"/>
  <path d="M51,25h1v1h-1zM50,28h1v1h-1zM50,32h1v1h-1zM42,46h1v1h-1z" fill="#e81b23" opacity="0.96"/>
  <path d="M63,25h1v1h-1zM95,30h1v1h-1zM138,33h1v1h-1z" fill="#19325b" opacity="0.96"/>
  <path d="M67,25h1v1h-1zM143,30h1v1h-1z" fill="#18325c" opacity="0.98"/>
  <path d="M68,25h1v1h-1zM112,30h1v1h-1zM144,40h1v1h-1z" fill="#18315b" opacity="0.80"/>
  <path d="M72,25h1v1h-1z" fill="#18325b" opacity="0.71"/>
  <path d="M73,25h1v1h-1z" fill="#19315b" opacity="0.82"/>
  <path d="M90,25h1v1h-1z" fill="#18325b" opacity="0.88"/>
  <path d="M113,25h1v1h-1zM72,38h1v1h-1zM99,41h1v1h-1z" fill="#172f5b" opacity="0.34"/>
  <path d="M114,25h1v1h-1zM117,25h1v1h-1zM66,27h1v1h-1zM105,33h1v1h-1z" fill="#18315c" opacity="0.92"/>
  <path d="M118,25h1v1h-1zM75,41h1v1h-1z" fill="#132c57" opacity="0.16"/>
  <path d="M140,25h1v1h-1z" fill="#002255" opacity="0.06"/>
  <path d="M141,25h1v1h-1z" fill="#19315c" opacity="0.96"/>
  <path d="M15,26h1v1h-1z" fill="#e81b23" opacity="0.83"/>
  <path d="M23,26h1v1h-1z" fill="#e91b24" opacity="0.59"/>
  <path d="M43,26h1v1h-1z" fill="#ea181f" opacity="0.29"/>
  <path d="M44,26h1v1h-1z" fill="#e91b23" opacity="0.77"/>
  <path d="M45,26h1v1h-1z" fill="#e71a23" opacity="0.80"/>
  <path d="M46,26h1v1h-1zM26,38h1v1h-1z" fill="#e91a23" opacity="0.46"/>
  <path d="M49,26h1v1h-1zM46,29h1v1h-1zM39,48h1v1h-1z" fill="#e91a22" opacity="0.50"/>
  <path d="M50,26h1v1h-1zM50,34h1v1h-1zM33,42h1v1h-1z" fill="#e81c23" opacity="1.00"/>
  <path d="M52,26h1v1h-1z" fill="#e1181e" opacity="0.17"/>
  <path d="M63,26h1v1h-1zM63,27h1v1h-1zM63,28h1v1h-1zM63,29h1v1h-1zM63,30h1v1h-1zM63,31h1v1h-1zM109,31h1v1h-1zM135,31h1v1h-1zM63,32h1v1h-1zM63,33h1v1h-1zM111,33h1v1h-1z" fill="#18315b" opacity="0.95"/>
  <path d="M64,26h1v1h-1zM90,34h1v1h-1zM90,41h1v1h-1zM79,42h1v1h-1zM127,42h1v1h-1z" fill="#17305a" opacity="0.31"/>
  <path d="M65,26h1v1h-1zM114,39h1v1h-1zM114,40h1v1h-1zM114,41h1v1h-1z" fill="#19315b" opacity="0.73"/>
  <path d="M72,26h1v1h-1z" fill="#142e59" opacity="0.30"/>
  <path d="M73,26h1v1h-1zM73,27h1v1h-1zM73,28h1v1h-1zM117,28h1v1h-1zM73,29h1v1h-1zM73,30h1v1h-1zM73,31h1v1h-1zM73,32h1v1h-1zM73,33h1v1h-1zM137,40h1v1h-1z" fill="#18315b" opacity="0.76"/>
  <path d="M90,26h1v1h-1z" fill="#18315c" opacity="0.72"/>
  <path d="M91,26h1v1h-1zM110,34h1v1h-1zM114,38h1v1h-1z" fill="#17315a" opacity="0.43"/>
  <path d="M92,26h1v1h-1zM134,30h1v1h-1z" fill="#19315b" opacity="0.93"/>
  <path d="M95,26h1v1h-1z" fill="#18325b" opacity="0.89"/>
  <path d="M96,26h1v1h-1zM100,34h1v1h-1zM80,43h1v1h-1z" fill="#17305b" opacity="0.35"/>
  <path d="M113,26h1v1h-1z" fill="#172f57" opacity="0.30"/>
  <path d="M114,26h1v1h-1zM117,27h1v1h-1zM68,29h1v1h-1z" fill="#18315b" opacity="0.90"/>
  <path d="M117,26h1v1h-1z" fill="#19315b" opacity="0.94"/>
  <path d="M118,26h1v1h-1z" fill="#18315b" opacity="0.16"/>
  <path d="M145,26h1v1h-1z" fill="#162c58" opacity="0.23"/>
  <path d="M14,27h1v1h-1zM50,40h1v1h-1zM38,43h1v1h-1z" fill="#e60d1a" opacity="0.08"/>
  <path d="M15,27h1v1h-1zM51,35h1v1h-1z" fill="#e71b23" opacity="0.97"/>
  <path d="M23,27h1v1h-1z" fill="#e81a20" opacity="0.31"/>
  <path d="M44,27h1v1h-1zM14,28h1v1h-1z" fill="#e7181e" opacity="0.16"/>
  <path d="M45,27h1v1h-1z" fill="#e31722" opacity="0.18"/>
  <path d="M46,27h1v1h-1z" fill="#e3131c" opacity="0.11"/>
  <path d="M49,27h1v1h-1z" fill="#e61a21" opacity="0.27"/>
  <path d="M52,27h1v1h-1z" fill="#e91923" opacity="0.40"/>
  <path d="M65,27h1v1h-1zM92,40h1v1h-1zM124,41h1v1h-1zM70,42h1v1h-1z" fill="#15305a" opacity="0.33"/>
  <path d="M71,27h1v1h-1z" fill="#17315b" opacity="0.51"/>
  <path d="M90,27h1v1h-1zM90,28h1v1h-1zM90,29h1v1h-1zM90,30h1v1h-1zM90,31h1v1h-1zM90,32h1v1h-1zM90,33h1v1h-1z" fill="#18325c" opacity="0.71"/>
  <path d="M91,27h1v1h-1zM139,29h1v1h-1z" fill="#14295c" opacity="0.10"/>
  <path d="M92,27h1v1h-1z" fill="#18315a" opacity="0.59"/>
  <path d="M96,27h1v1h-1z" fill="#19315c" opacity="0.84"/>
  <path d="M113,27h1v1h-1zM83,34h1v1h-1zM111,34h1v1h-1zM140,42h1v1h-1z" fill="#18305b" opacity="0.37"/>
  <path d="M145,27h1v1h-1zM95,39h1v1h-1z" fill="#163157" opacity="0.18"/>
  <path d="M22,28h1v1h-1zM22,32h1v1h-1z" fill="#e81c24" opacity="0.96"/>
  <path d="M23,28h1v1h-1z" fill="#ee1111" opacity="0.06"/>
  <path d="M49,28h1v1h-1zM49,32h1v1h-1z" fill="#e91a23" opacity="0.23"/>
  <path d="M52,28h1v1h-1z" fill="#e91b22" opacity="0.67"/>
  <path d="M64,28h1v1h-1zM64,29h1v1h-1zM64,30h1v1h-1zM64,31h1v1h-1zM64,32h1v1h-1zM64,33h1v1h-1zM141,38h1v1h-1zM94,40h1v1h-1zM88,42h1v1h-1zM106,42h1v1h-1zM141,42h1v1h-1z" fill="#172e57" opacity="0.17"/>
  <path d="M70,28h1v1h-1z" fill="#17315a" opacity="0.85"/>
  <path d="M72,28h1v1h-1zM72,29h1v1h-1zM72,30h1v1h-1zM72,31h1v1h-1zM72,32h1v1h-1zM72,33h1v1h-1z" fill="#002a55" opacity="0.05"/>
  <path d="M91,28h1v1h-1zM92,28h1v1h-1zM91,29h1v1h-1zM91,30h1v1h-1zM91,31h1v1h-1zM91,32h1v1h-1zM91,33h1v1h-1zM140,34h1v1h-1zM142,39h1v1h-1zM77,42h1v1h-1z" fill="#14274e" opacity="0.05"/>
  <path d="M93,28h1v1h-1z" fill="#18315c" opacity="0.89"/>
  <path d="M118,28h1v1h-1zM141,39h1v1h-1z" fill="#132f55" opacity="0.11"/>
  <path d="M140,28h1v1h-1z" fill="#183259" opacity="0.38"/>
  <path d="M145,28h1v1h-1z" fill="#0c2e51" opacity="0.09"/>
  <path d="M14,29h1v1h-1z" fill="#e9161f" opacity="0.23"/>
  <path d="M22,29h1v1h-1zM25,38h1v1h-1z" fill="#e71b23" opacity="0.92"/>
  <path d="M44,29h1v1h-1zM28,49h1v1h-1z" fill="#e81717" opacity="0.04"/>
  <path d="M45,29h1v1h-1z" fill="#e71a21" opacity="0.58"/>
  <path d="M49,29h1v1h-1z" fill="#ec1822" opacity="0.21"/>
  <path d="M69,29h1v1h-1zM132,33h1v1h-1z" fill="#18315b" opacity="0.88"/>
  <path d="M70,29h1v1h-1zM86,41h1v1h-1z" fill="#17325b" opacity="0.22"/>
  <path d="M93,29h1v1h-1zM95,32h1v1h-1z" fill="#152e58" opacity="0.24"/>
  <path d="M94,29h1v1h-1z" fill="#18315b" opacity="0.93"/>
  <path d="M112,29h1v1h-1zM73,42h1v1h-1z" fill="#15305a" opacity="0.19"/>
  <path d="M113,29h1v1h-1z" fill="#18315a" opacity="0.80"/>
  <path d="M117,29h1v1h-1zM143,41h1v1h-1z" fill="#18315b" opacity="0.51"/>
  <path d="M144,29h1v1h-1z" fill="#18305c" opacity="0.78"/>
  <path d="M22,30h1v1h-1z" fill="#e81c24" opacity="0.89"/>
  <path d="M44,30h1v1h-1z" fill="#ee1921" opacity="0.24"/>
  <path d="M46,30h1v1h-1zM35,43h1v1h-1z" fill="#e81b23" opacity="0.94"/>
  <path d="M47,30h1v1h-1z" fill="#e81720" opacity="0.22"/>
  <path d="M49,30h1v1h-1zM30,40h1v1h-1z" fill="#eb1923" opacity="0.20"/>
  <path d="M52,30h1v1h-1z" fill="#e71b24" opacity="0.81"/>
  <path d="M67,30h1v1h-1zM122,39h1v1h-1z" fill="#142f57" opacity="0.15"/>
  <path d="M68,30h1v1h-1zM74,39h1v1h-1z" fill="#16305b" opacity="0.23"/>
  <path d="M69,30h1v1h-1z" fill="#153055" opacity="0.19"/>
  <path d="M94,30h1v1h-1z" fill="#17315a" opacity="0.49"/>
  <path d="M108,30h1v1h-1zM109,30h1v1h-1zM136,30h1v1h-1z" fill="#19325c" opacity="0.40"/>
  <path d="M111,30h1v1h-1zM138,30h1v1h-1z" fill="#18305c" opacity="0.50"/>
  <path d="M116,30h1v1h-1z" fill="#18315b" opacity="0.92"/>
  <path d="M117,30h1v1h-1zM105,42h1v1h-1z" fill="#172f5b" opacity="0.30"/>
  <path d="M135,30h1v1h-1zM143,40h1v1h-1zM131,41h1v1h-1z" fill="#172f5a" opacity="0.44"/>
  <path d="M137,30h1v1h-1zM61,34h1v1h-1zM62,34h1v1h-1zM74,34h1v1h-1zM75,34h1v1h-1zM81,34h1v1h-1zM82,34h1v1h-1zM88,34h1v1h-1zM89,34h1v1h-1zM99,34h1v1h-1zM106,34h1v1h-1zM107,34h1v1h-1zM108,34h1v1h-1zM109,34h1v1h-1zM125,34h1v1h-1zM126,34h1v1h-1zM134,34h1v1h-1zM135,34h1v1h-1zM136,34h1v1h-1z" fill="#17305b" opacity="0.44"/>
  <path d="M139,30h1v1h-1z" fill="#17305b" opacity="0.73"/>
  <path d="M144,30h1v1h-1z" fill="#163259" opacity="0.36"/>
  <path d="M14,31h1v1h-1z" fill="#e5161e" opacity="0.23"/>
  <path d="M45,31h1v1h-1z" fill="#e71a22" opacity="0.62"/>
  <path d="M46,31h1v1h-1z" fill="#e71a21" opacity="0.54"/>
  <path d="M52,31h1v1h-1z" fill="#e81b22" opacity="0.78"/>
  <path d="M95,31h1v1h-1z" fill="#17315b" opacity="0.73"/>
  <path d="M103,31h1v1h-1z" fill="#17325c" opacity="0.56"/>
  <path d="M116,31h1v1h-1z" fill="#19315b" opacity="0.69"/>
  <path d="M117,31h1v1h-1zM142,33h1v1h-1z" fill="#172e5d" opacity="0.04"/>
  <path d="M130,31h1v1h-1zM98,41h1v1h-1z" fill="#152a5c" opacity="0.14"/>
  <path d="M137,31h1v1h-1z" fill="#18325c" opacity="0.97"/>
  <path d="M143,31h1v1h-1zM80,40h1v1h-1z" fill="#18315b" opacity="0.67"/>
  <path d="M144,31h1v1h-1zM81,42h1v1h-1z" fill="#172e5d" opacity="0.09"/>
  <path d="M14,32h1v1h-1z" fill="#e71824" opacity="0.17"/>
  <path d="M52,32h1v1h-1z" fill="#e91b23" opacity="0.68"/>
  <path d="M96,32h1v1h-1z" fill="#19325b" opacity="0.92"/>
  <path d="M103,32h1v1h-1zM88,39h1v1h-1z" fill="#16305a" opacity="0.36"/>
  <path d="M115,32h1v1h-1z" fill="#17315b" opacity="0.85"/>
  <path d="M131,32h1v1h-1z" fill="#18315c" opacity="0.96"/>
  <path d="M143,32h1v1h-1z" fill="#172e55" opacity="0.13"/>
  <path d="M23,33h1v1h-1zM43,46h1v1h-1z" fill="#e71822" opacity="0.29"/>
  <path d="M46,33h1v1h-1z" fill="#e81717" opacity="0.09"/>
  <path d="M49,33h1v1h-1zM51,37h1v1h-1zM20,44h1v1h-1zM31,49h1v1h-1z" fill="#e81a22" opacity="0.27"/>
  <path d="M52,33h1v1h-1z" fill="#e71a21" opacity="0.42"/>
  <path d="M96,33h1v1h-1zM80,34h1v1h-1z" fill="#18305a" opacity="0.38"/>
  <path d="M98,33h1v1h-1z" fill="#18325b" opacity="0.96"/>
  <path d="M104,33h1v1h-1zM108,40h1v1h-1z" fill="#18315b" opacity="0.68"/>
  <path d="M112,33h1v1h-1z" fill="#18325c" opacity="0.83"/>
  <path d="M113,33h1v1h-1z" fill="#18305b" opacity="0.70"/>
  <path d="M114,33h1v1h-1zM99,42h1v1h-1z" fill="#162f5a" opacity="0.36"/>
  <path d="M131,33h1v1h-1z" fill="#18305a" opacity="0.45"/>
  <path d="M139,33h1v1h-1z" fill="#19315b" opacity="0.85"/>
  <path d="M140,33h1v1h-1z" fill="#19325b" opacity="0.72"/>
  <path d="M15,34h1v1h-1z" fill="#e71a23" opacity="0.84"/>
  <path d="M43,34h1v1h-1z" fill="#e81722" opacity="0.26"/>
  <path d="M45,34h1v1h-1z" fill="#e71a23" opacity="0.76"/>
  <path d="M49,34h1v1h-1z" fill="#e81b21" opacity="0.48"/>
  <path d="M52,34h1v1h-1zM40,42h1v1h-1z" fill="#e81722" opacity="0.18"/>
  <path d="M60,34h1v1h-1zM76,42h1v1h-1z" fill="#15315b" opacity="0.33"/>
  <path d="M63,34h1v1h-1z" fill="#18305b" opacity="0.42"/>
  <path d="M73,34h1v1h-1z" fill="#18305a" opacity="0.33"/>
  <path d="M77,34h1v1h-1zM71,39h1v1h-1zM107,40h1v1h-1zM94,42h1v1h-1zM104,42h1v1h-1zM124,42h1v1h-1z" fill="#0f2d5a" opacity="0.07"/>
  <path d="M97,34h1v1h-1zM61,38h1v1h-1z" fill="#152a55" opacity="0.14"/>
  <path d="M98,34h1v1h-1zM60,38h1v1h-1z" fill="#173059" opacity="0.39"/>
  <path d="M105,34h1v1h-1z" fill="#163159" opacity="0.33"/>
  <path d="M112,34h1v1h-1zM69,42h1v1h-1z" fill="#142d5a" opacity="0.20"/>
  <path d="M123,34h1v1h-1z" fill="#0d3359" opacity="0.08"/>
  <path d="M124,34h1v1h-1zM133,34h1v1h-1z" fill="#17305c" opacity="0.44"/>
  <path d="M127,34h1v1h-1zM75,39h1v1h-1z" fill="#17315c" opacity="0.35"/>
  <path d="M132,34h1v1h-1zM65,38h1v1h-1zM73,40h1v1h-1zM109,40h1v1h-1zM73,41h1v1h-1zM106,41h1v1h-1zM108,41h1v1h-1z" fill="#16315a" opacity="0.27"/>
  <path d="M137,34h1v1h-1zM134,40h1v1h-1zM135,41h1v1h-1z" fill="#17305a" opacity="0.44"/>
  <path d="M15,35h1v1h-1z" fill="#e81b23" opacity="0.52"/>
  <path d="M43,35h1v1h-1z" fill="#e91a22" opacity="0.64"/>
  <path d="M45,35h1v1h-1z" fill="#e71c23" opacity="0.93"/>
  <path d="M46,35h1v1h-1z" fill="#e91b21" opacity="0.36"/>
  <path d="M49,35h1v1h-1z" fill="#e81b22" opacity="0.84"/>
  <path d="M52,35h1v1h-1z" fill="#e61a1a" opacity="0.04"/>
  <path d="M15,36h1v1h-1z" fill="#e61921" opacity="0.24"/>
  <path d="M16,36h1v1h-1z" fill="#e81b23" opacity="0.98"/>
  <path d="M24,36h1v1h-1z" fill="#e81923" opacity="0.51"/>
  <path d="M42,36h1v1h-1z" fill="#eb1a21" opacity="0.30"/>
  <path d="M43,36h1v1h-1zM30,41h1v1h-1z" fill="#e81b23" opacity="0.92"/>
  <path d="M45,36h1v1h-1z" fill="#e71b24" opacity="0.79"/>
  <path d="M48,36h1v1h-1z" fill="#df1020" opacity="0.13"/>
  <path d="M51,36h1v1h-1zM42,45h1v1h-1z" fill="#e81a23" opacity="0.65"/>
  <path d="M16,37h1v1h-1z" fill="#e71b23" opacity="0.76"/>
  <path d="M24,37h1v1h-1zM34,43h1v1h-1z" fill="#e91c23" opacity="0.94"/>
  <path d="M25,37h1v1h-1z" fill="#e71a22" opacity="0.42"/>
  <path d="M41,37h1v1h-1zM24,47h1v1h-1z" fill="#e8171f" opacity="0.13"/>
  <path d="M45,37h1v1h-1z" fill="#e81a21" opacity="0.31"/>
  <path d="M48,37h1v1h-1zM47,40h1v1h-1z" fill="#e71b23" opacity="0.75"/>
  <path d="M16,38h1v1h-1z" fill="#e71821" opacity="0.45"/>
  <path d="M40,38h1v1h-1z" fill="#e8161e" opacity="0.13"/>
  <path d="M44,38h1v1h-1z" fill="#e81924" opacity="0.47"/>
  <path d="M47,38h1v1h-1zM39,39h1v1h-1z" fill="#ea1821" opacity="0.33"/>
  <path d="M50,38h1v1h-1z" fill="#e71a23" opacity="0.72"/>
  <path d="M51,38h1v1h-1z" fill="#eb141f" opacity="0.10"/>
  <path d="M63,38h1v1h-1zM118,42h1v1h-1z" fill="#182f5c" opacity="0.38"/>
  <path d="M64,38h1v1h-1z" fill="#172e58" opacity="0.22"/>
  <path d="M66,38h1v1h-1z" fill="#122e57" opacity="0.22"/>
  <path d="M71,38h1v1h-1z" fill="#132f5e" opacity="0.11"/>
  <path d="M93,38h1v1h-1zM138,41h1v1h-1zM109,43h1v1h-1z" fill="#17315b" opacity="0.47"/>
  <path d="M103,38h1v1h-1z" fill="#0c2455" opacity="0.08"/>
  <path d="M123,38h1v1h-1z" fill="#16315a" opacity="0.49"/>
  <path d="M140,38h1v1h-1zM117,41h1v1h-1z" fill="#17325b" opacity="0.34"/>
  <path d="M16,39h1v1h-1z" fill="#ea151c" opacity="0.15"/>
  <path d="M17,39h1v1h-1z" fill="#e71b23" opacity="0.81"/>
  <path d="M28,39h1v1h-1z" fill="#ff1a1a" opacity="0.04"/>
  <path d="M40,39h1v1h-1z" fill="#e81c24" opacity="0.94"/>
  <path d="M43,39h1v1h-1zM39,42h1v1h-1z" fill="#e71a23" opacity="0.58"/>
  <path d="M50,39h1v1h-1z" fill="#ea1a24" opacity="0.42"/>
  <path d="M61,39h1v1h-1zM125,40h1v1h-1zM138,42h1v1h-1z" fill="#17305c" opacity="0.56"/>
  <path d="M62,39h1v1h-1z" fill="#10315c" opacity="0.18"/>
  <path d="M65,39h1v1h-1zM136,40h1v1h-1z" fill="#112d55" opacity="0.18"/>
  <path d="M68,39h1v1h-1zM87,42h1v1h-1z" fill="#172e59" opacity="0.30"/>
  <path d="M69,39h1v1h-1z" fill="#172f58" opacity="0.34"/>
  <path d="M72,39h1v1h-1zM97,39h1v1h-1z" fill="#162d55" opacity="0.22"/>
  <path d="M73,39h1v1h-1z" fill="#0a335c" opacity="0.10"/>
  <path d="M76,39h1v1h-1z" fill="#172e5d" opacity="0.13"/>
  <path d="M78,39h1v1h-1z" fill="#133353" opacity="0.16"/>
  <path d="M80,39h1v1h-1z" fill="#102d56" opacity="0.24"/>
  <path d="M84,39h1v1h-1zM84,40h1v1h-1zM84,41h1v1h-1z" fill="#18315c" opacity="0.49"/>
  <path d="M85,39h1v1h-1zM85,40h1v1h-1zM85,41h1v1h-1z" fill="#152d56" opacity="0.24"/>
  <path d="M86,39h1v1h-1z" fill="#1a2659" opacity="0.08"/>
  <path d="M87,39h1v1h-1zM90,40h1v1h-1zM133,42h1v1h-1z" fill="#162f5b" opacity="0.27"/>
  <path d="M91,39h1v1h-1z" fill="#182f5a" opacity="0.25"/>
  <path d="M92,39h1v1h-1z" fill="#142f57" opacity="0.30"/>
  <path d="M93,39h1v1h-1zM144,41h1v1h-1z" fill="#17315b" opacity="0.74"/>
  <path d="M98,39h1v1h-1z" fill="#001a4d" opacity="0.04"/>
  <path d="M99,39h1v1h-1z" fill="#162c59" opacity="0.18"/>
  <path d="M100,39h1v1h-1z" fill="#16315b" opacity="0.41"/>
  <path d="M101,39h1v1h-1z" fill="#151555" opacity="0.05"/>
  <path d="M102,39h1v1h-1zM100,41h1v1h-1z" fill="#18305a" opacity="0.50"/>
  <path d="M103,39h1v1h-1zM95,40h1v1h-1z" fill="#182f5b" opacity="0.51"/>
  <path d="M104,39h1v1h-1z" fill="#122449" opacity="0.05"/>
  <path d="M105,39h1v1h-1zM71,40h1v1h-1zM132,40h1v1h-1zM71,41h1v1h-1zM86,42h1v1h-1zM120,42h1v1h-1z" fill="#132d59" opacity="0.16"/>
  <path d="M106,39h1v1h-1z" fill="#142c58" opacity="0.29"/>
  <path d="M107,39h1v1h-1zM61,42h1v1h-1z" fill="#0d2659" opacity="0.08"/>
  <path d="M108,39h1v1h-1zM110,41h1v1h-1z" fill="#18315b" opacity="0.29"/>
  <path d="M110,39h1v1h-1z" fill="#153156" opacity="0.24"/>
  <path d="M117,39h1v1h-1z" fill="#172e5c" opacity="0.35"/>
  <path d="M118,39h1v1h-1z" fill="#162e5c" opacity="0.33"/>
  <path d="M121,39h1v1h-1z" fill="#16315c" opacity="0.33"/>
  <path d="M123,39h1v1h-1z" fill="#18325c" opacity="0.76"/>
  <path d="M125,39h1v1h-1z" fill="#14275c" opacity="0.15"/>
  <path d="M126,39h1v1h-1z" fill="#18325b" opacity="0.46"/>
  <path d="M127,39h1v1h-1z" fill="#00375b" opacity="0.05"/>
  <path d="M129,39h1v1h-1z" fill="#192e5c" opacity="0.24"/>
  <path d="M130,39h1v1h-1z" fill="#162f5a" opacity="0.32"/>
  <path d="M131,39h1v1h-1z" fill="#142f5a" opacity="0.25"/>
  <path d="M134,39h1v1h-1zM70,40h1v1h-1z" fill="#152f5a" opacity="0.42"/>
  <path d="M135,39h1v1h-1z" fill="#122a5b" opacity="0.16"/>
  <path d="M137,39h1v1h-1z" fill="#0e295a" opacity="0.15"/>
  <path d="M138,39h1v1h-1z" fill="#152f5b" opacity="0.38"/>
  <path d="M139,39h1v1h-1z" fill="#12245b" opacity="0.05"/>
  <path d="M140,39h1v1h-1zM116,42h1v1h-1z" fill="#163159" opacity="0.22"/>
  <path d="M143,39h1v1h-1z" fill="#142e59" opacity="0.35"/>
  <path d="M144,39h1v1h-1z" fill="#172e5d" opacity="0.22"/>
  <path d="M17,40h1v1h-1z" fill="#e81b21" opacity="0.49"/>
  <path d="M29,40h1v1h-1z" fill="#e91922" opacity="0.36"/>
  <path d="M31,40h1v1h-1z" fill="#e4121b" opacity="0.11"/>
  <path d="M37,40h1v1h-1z" fill="#e41b23" opacity="0.25"/>
  <path d="M42,40h1v1h-1z" fill="#e91b23" opacity="0.62"/>
  <path d="M43,40h1v1h-1z" fill="#e0141f" opacity="0.10"/>
  <path d="M60,40h1v1h-1z" fill="#19315c" opacity="0.65"/>
  <path d="M61,40h1v1h-1z" fill="#18305c" opacity="0.58"/>
  <path d="M62,40h1v1h-1z" fill="#17315c" opacity="0.75"/>
  <path d="M63,40h1v1h-1z" fill="#16315a" opacity="0.53"/>
  <path d="M65,40h1v1h-1zM65,41h1v1h-1z" fill="#19315b" opacity="0.41"/>
  <path d="M66,40h1v1h-1zM66,41h1v1h-1z" fill="#162f5b" opacity="0.32"/>
  <path d="M68,40h1v1h-1z" fill="#18315c" opacity="0.67"/>
  <path d="M69,40h1v1h-1zM118,41h1v1h-1z" fill="#18305b" opacity="0.54"/>
  <path d="M74,40h1v1h-1z" fill="#18315b" opacity="0.82"/>
  <path d="M75,40h1v1h-1z" fill="#172e5a" opacity="0.39"/>
  <path d="M77,40h1v1h-1z" fill="#182f55" opacity="0.21"/>
  <path d="M78,40h1v1h-1zM123,40h1v1h-1zM123,41h1v1h-1z" fill="#17315b" opacity="0.77"/>
  <path d="M79,40h1v1h-1zM130,40h1v1h-1z" fill="#162f5a" opacity="0.28"/>
  <path d="M87,40h1v1h-1zM135,40h1v1h-1z" fill="#17315b" opacity="0.62"/>
  <path d="M88,40h1v1h-1zM89,40h1v1h-1z" fill="#16305b" opacity="0.54"/>
  <path d="M91,40h1v1h-1zM123,42h1v1h-1z" fill="#18315b" opacity="0.55"/>
  <path d="M93,40h1v1h-1z" fill="#17315a" opacity="0.81"/>
  <path d="M97,40h1v1h-1z" fill="#17325b" opacity="0.60"/>
  <path d="M98,40h1v1h-1z" fill="#112c59" opacity="0.18"/>
  <path d="M100,40h1v1h-1z" fill="#15305a" opacity="0.38"/>
  <path d="M101,40h1v1h-1z" fill="#10305a" opacity="0.19"/>
  <path d="M102,40h1v1h-1zM70,41h1v1h-1z" fill="#182f5a" opacity="0.47"/>
  <path d="M104,40h1v1h-1z" fill="#152a55" opacity="0.05"/>
  <path d="M105,40h1v1h-1z" fill="#172f5b" opacity="0.51"/>
  <path d="M106,40h1v1h-1z" fill="#172f5a" opacity="0.61"/>
  <path d="M110,40h1v1h-1z" fill="#17305b" opacity="0.47"/>
  <path d="M116,40h1v1h-1z" fill="#17315a" opacity="0.35"/>
  <path d="M117,40h1v1h-1z" fill="#17315a" opacity="0.51"/>
  <path d="M118,40h1v1h-1z" fill="#18305b" opacity="0.75"/>
  <path d="M119,40h1v1h-1z" fill="#142857" opacity="0.15"/>
  <path d="M120,40h1v1h-1z" fill="#152e5b" opacity="0.37"/>
  <path d="M121,40h1v1h-1zM129,42h1v1h-1z" fill="#16305b" opacity="0.46"/>
  <path d="M122,40h1v1h-1z" fill="#162f5c" opacity="0.45"/>
  <path d="M124,40h1v1h-1z" fill="#14305c" opacity="0.25"/>
  <path d="M126,40h1v1h-1zM142,42h1v1h-1z" fill="#192d5a" opacity="0.20"/>
  <path d="M127,40h1v1h-1z" fill="#19315b" opacity="0.65"/>
  <path d="M128,40h1v1h-1z" fill="#103152" opacity="0.12"/>
  <path d="M131,40h1v1h-1zM89,41h1v1h-1z" fill="#18315b" opacity="0.62"/>
  <path d="M133,40h1v1h-1z" fill="#17315b" opacity="0.78"/>
  <path d="M138,40h1v1h-1z" fill="#162f59" opacity="0.36"/>
  <path d="M141,40h1v1h-1zM141,41h1v1h-1z" fill="#18315d" opacity="0.25"/>
  <path d="M145,40h1v1h-1z" fill="#162b57" opacity="0.18"/>
  <path d="M18,41h1v1h-1z" fill="#e81b21" opacity="0.66"/>
  <path d="M31,41h1v1h-1z" fill="#e81b24" opacity="0.75"/>
  <path d="M32,41h1v1h-1z" fill="#e81a24" opacity="0.61"/>
  <path d="M33,41h1v1h-1z" fill="#e91b22" opacity="0.56"/>
  <path d="M34,41h1v1h-1z" fill="#e91c22" opacity="0.58"/>
  <path d="M35,41h1v1h-1z" fill="#e91c23" opacity="0.68"/>
  <path d="M36,41h1v1h-1zM26,47h1v1h-1z" fill="#e81c23" opacity="0.86"/>
  <path d="M37,41h1v1h-1z" fill="#e71c24" opacity="0.97"/>
  <path d="M40,41h1v1h-1z" fill="#e91c24" opacity="0.90"/>
  <path d="M47,41h1v1h-1z" fill="#ee1a1a" opacity="0.12"/>
  <path d="M48,41h1v1h-1z" fill="#e71a23" opacity="0.51"/>
  <path d="M60,41h1v1h-1z" fill="#17305c" opacity="0.60"/>
  <path d="M61,41h1v1h-1zM64,42h1v1h-1z" fill="#172e5b" opacity="0.26"/>
  <path d="M62,41h1v1h-1z" fill="#152d5a" opacity="0.24"/>
  <path d="M63,41h1v1h-1z" fill="#163259" opacity="0.40"/>
  <path d="M69,41h1v1h-1z" fill="#152e5c" opacity="0.28"/>
  <path d="M74,41h1v1h-1z" fill="#19315c" opacity="0.61"/>
  <path d="M76,41h1v1h-1z" fill="#18305b" opacity="0.46"/>
  <path d="M77,41h1v1h-1z" fill="#162d59" opacity="0.22"/>
  <path d="M78,41h1v1h-1z" fill="#17315a" opacity="0.74"/>
  <path d="M80,41h1v1h-1z" fill="#18315a" opacity="0.68"/>
  <path d="M88,41h1v1h-1zM117,42h1v1h-1z" fill="#15315a" opacity="0.24"/>
  <path d="M91,41h1v1h-1z" fill="#16315b" opacity="0.45"/>
  <path d="M93,41h1v1h-1z" fill="#18305b" opacity="0.79"/>
  <path d="M94,41h1v1h-1z" fill="#183155" opacity="0.16"/>
  <path d="M96,41h1v1h-1z" fill="#103058" opacity="0.13"/>
  <path d="M101,41h1v1h-1z" fill="#152f59" opacity="0.38"/>
  <path d="M102,41h1v1h-1z" fill="#18325c" opacity="0.42"/>
  <path d="M105,41h1v1h-1z" fill="#172e5d" opacity="0.43"/>
  <path d="M116,41h1v1h-1zM131,42h1v1h-1z" fill="#163059" opacity="0.31"/>
  <path d="M119,41h1v1h-1z" fill="#132b5b" opacity="0.21"/>
  <path d="M120,41h1v1h-1z" fill="#172e59" opacity="0.39"/>
  <path d="M121,41h1v1h-1z" fill="#152f58" opacity="0.34"/>
  <path d="M122,41h1v1h-1zM132,41h1v1h-1z" fill="#132f5a" opacity="0.21"/>
  <path d="M127,41h1v1h-1z" fill="#172f5b" opacity="0.57"/>
  <path d="M128,41h1v1h-1z" fill="#112e57" opacity="0.17"/>
  <path d="M129,41h1v1h-1z" fill="#18315a" opacity="0.65"/>
  <path d="M133,41h1v1h-1z" fill="#17315b" opacity="0.82"/>
  <path d="M137,41h1v1h-1z" fill="#162f59" opacity="0.40"/>
  <path d="M140,41h1v1h-1z" fill="#173059" opacity="0.53"/>
  <path d="M142,41h1v1h-1z" fill="#172e5c" opacity="0.31"/>
  <path d="M18,42h1v1h-1z" fill="#ea1520" opacity="0.09"/>
  <path d="M38,42h1v1h-1zM27,47h1v1h-1z" fill="#e81b24" opacity="0.96"/>
  <path d="M45,42h1v1h-1z" fill="#e71b23" opacity="0.74"/>
  <path d="M46,42h1v1h-1z" fill="#ea1b23" opacity="0.37"/>
  <path d="M60,42h1v1h-1z" fill="#182f5c" opacity="0.42"/>
  <path d="M63,42h1v1h-1z" fill="#152d5b" opacity="0.29"/>
  <path d="M66,42h1v1h-1z" fill="#163058" opacity="0.23"/>
  <path d="M74,42h1v1h-1z" fill="#173158" opacity="0.43"/>
  <path d="M80,42h1v1h-1z" fill="#17315a" opacity="0.61"/>
  <path d="M84,42h1v1h-1z" fill="#173058" opacity="0.35"/>
  <path d="M85,42h1v1h-1z" fill="#112e5d" opacity="0.17"/>
  <path d="M91,42h1v1h-1z" fill="#18315a" opacity="0.47"/>
  <path d="M96,42h1v1h-1z" fill="#15315b" opacity="0.53"/>
  <path d="M98,42h1v1h-1z" fill="#122e5b" opacity="0.11"/>
  <path d="M100,42h1v1h-1z" fill="#17315b" opacity="0.60"/>
  <path d="M103,42h1v1h-1z" fill="#17305b" opacity="0.56"/>
  <path d="M108,42h1v1h-1z" fill="#142758" opacity="0.10"/>
  <path d="M109,42h1v1h-1z" fill="#18315a" opacity="0.63"/>
  <path d="M114,42h1v1h-1z" fill="#19305a" opacity="0.52"/>
  <path d="M121,42h1v1h-1z" fill="#162f5a" opacity="0.53"/>
  <path d="M122,42h1v1h-1z" fill="#152e59" opacity="0.37"/>
  <path d="M126,42h1v1h-1z" fill="#173059" opacity="0.61"/>
  <path d="M134,42h1v1h-1z" fill="#16305a" opacity="0.58"/>
  <path d="M136,42h1v1h-1z" fill="#00334d" opacity="0.04"/>
  <path d="M143,42h1v1h-1z" fill="#18305a" opacity="0.55"/>
  <path d="M144,42h1v1h-1z" fill="#182f5a" opacity="0.55"/>
  <path d="M145,42h1v1h-1z" fill="#172d55" opacity="0.18"/>
  <path d="M37,43h1v1h-1z" fill="#e91621" opacity="0.36"/>
  <path d="M44,43h1v1h-1z" fill="#e81c23" opacity="0.90"/>
  <path d="M46,43h1v1h-1z" fill="#e71a23" opacity="0.62"/>
  <path d="M78,43h1v1h-1z" fill="#17305b" opacity="0.64"/>
  <path d="M79,43h1v1h-1z" fill="#18305b" opacity="0.78"/>
  <path d="M108,43h1v1h-1z" fill="#172f5b" opacity="0.74"/>
  <path d="M33,44h1v1h-1z" fill="#e91b23" opacity="0.85"/>
  <path d="M40,44h1v1h-1z" fill="#e61a1a" opacity="0.12"/>
  <path d="M41,44h1v1h-1zM34,49h1v1h-1z" fill="#e71b21" opacity="0.33"/>
  <path d="M44,44h1v1h-1z" fill="#e81921" opacity="0.48"/>
  <path d="M45,44h1v1h-1z" fill="#e81c23" opacity="0.68"/>
  <path d="M46,44h1v1h-1z" fill="#e91b24" opacity="0.36"/>
  <path d="M21,45h1v1h-1z" fill="#ea1524" opacity="0.19"/>
  <path d="M22,45h1v1h-1z" fill="#e91a23" opacity="0.62"/>
  <path d="M38,45h1v1h-1z" fill="#e41b20" opacity="0.19"/>
  <path d="M39,45h1v1h-1z" fill="#ea1b23" opacity="0.48"/>
  <path d="M43,45h1v1h-1z" fill="#ed1212" opacity="0.05"/>
  <path d="M45,45h1v1h-1z" fill="#dd1111" opacity="0.06"/>
  <path d="M33,46h1v1h-1z" fill="#e91b22" opacity="0.90"/>
  <path d="M34,46h1v1h-1z" fill="#e81a23" opacity="0.43"/>
  <path d="M35,46h1v1h-1z" fill="#e61a23" opacity="0.57"/>
  <path d="M36,46h1v1h-1z" fill="#e81a24" opacity="0.73"/>
  <path d="M37,46h1v1h-1z" fill="#e91b24" opacity="0.86"/>
  <path d="M40,47h1v1h-1z" fill="#e81b24" opacity="0.89"/>
  <path d="M41,47h1v1h-1z" fill="#e91a23" opacity="0.77"/>
  <path d="M42,47h1v1h-1z" fill="#ea1822" opacity="0.29"/>
  <path d="M27,48h1v1h-1z" fill="#e91b23" opacity="0.40"/>
  <path d="M28,48h1v1h-1z" fill="#e71b22" opacity="0.58"/>
  <path d="M29,48h1v1h-1z" fill="#e61b22" opacity="0.73"/>
  <path d="M30,48h1v1h-1z" fill="#e81c24" opacity="0.90"/>
  <path d="M37,48h1v1h-1z" fill="#e71b23" opacity="0.80"/>
  <path d="M38,48h1v1h-1z" fill="#e71b23" opacity="0.64"/>
  <path d="M40,48h1v1h-1z" fill="#e4161f" opacity="0.22"/>
  <path d="M29,49h1v1h-1z" fill="#e51a1a" opacity="0.11"/>
  <path d="M30,49h1v1h-1z" fill="#e61923" opacity="0.20"/>
  <path d="M32,49h1v1h-1z" fill="#e91c23" opacity="0.32"/>
  <path d="M33,49h1v1h-1z" fill="#e81a23" opacity="0.34"/>
  <path d="M35,49h1v1h-1z" fill="#ea1c22" opacity="0.29"/>
</svg>