<svg xmlns="http://www.w3.org/2000/svg" viewBox="0 0 160 45" width="100%" height="100%">
  <path d="M132,7h1v1h-1zM36,34h1v1h-1z" fill="#7066ad" opacity="0.10"/>
  <path d="M133,7h1v1h-1z" fill="#3b2f87" opacity="0.34"/>
  <path d="M134,7h1v1h-1z" fill="#372d88" opacity="0.62"/>
  <path d="M135,7h1v1h-1z" fill="#3c308b" opacity="0.77"/>
  <path d="M136,7h1v1h-1zM137,7h1v1h-1zM72,17h1v1h-1z" fill="#291d80" opacity="0.90"/>
  <path d="M138,7h1v1h-1z" fill="#2b1f82" opacity="0.88"/>
  <path d="M139,7h1v1h-1zM58,23h1v1h-1z" fill="#372b88" opacity="0.78"/>
  <path d="M140,7h1v1h-1z" fill="#433890" opacity="0.66"/>
  <path d="M141,7h1v1h-1z" fill="#332987" opacity="0.47"/>
  <path d="M142,7h1v1h-1z" fill="#6d63a5" opacity="0.21"/>
  <path d="M129,8h1v1h-1z" fill="#514394" opacity="0.07"/>
  <path d="M130,8h1v1h-1z" fill="#3d328c" opacity="0.28"/>
  <path d="M131,8h1v1h-1z" fill="#302584" opacity="0.65"/>
  <path d="M132,8h1v1h-1z" fill="#2b2485" opacity="0.94"/>
  <path d="M133,8h1v1h-1z" fill="#262789" opacity="1.00"/>
  <path d="M134,8h1v1h-1z" fill="#252c8d" opacity="1.00"/>
  <path d="M135,8h1v1h-1z" fill="#243496" opacity="1.00"/>
  <path d="M136,8h1v1h-1zM137,8h1v1h-1z" fill="#243d9d" opacity="1.00"/>
  <path d="M138,8h1v1h-1z" fill="#243a9b" opacity="1.00"/>
  <path d="M139,8h1v1h-1z" fill="#243193" opacity="1.00"/>
  <path d="M140,8h1v1h-1z" fill="#252b8d" opacity="1.00"/>
  <path d="M141,8h1v1h-1z" fill="#272688" opacity="1.00"/>
  <path d="M142,8h1v1h-1z" fill="#292083" opacity="0.96"/>
  <path d="M143,8h1v1h-1zM47,23h1v1h-1z" fill="#312684" opacity="0.82"/>
  <path d="M144,8h1v1h-1zM91,19h1v1h-1z" fill="#382c88" opacity="0.52"/>
  <path d="M145,8h1v1h-1z" fill="#534699" opacity="0.16"/>
  <path d="M128,9h1v1h-1zM109,19h1v1h-1zM83,21h1v1h-1z" fill="#3f318b" opacity="0.22"/>
  <path d="M129,9h1v1h-1z" fill="#392e8b" opacity="0.63"/>
  <path d="M130,9h1v1h-1z" fill="#27288b" opacity="0.95"/>
  <path d="M131,9h1v1h-1z" fill="#213b9c" opacity="1.00"/>
  <path d="M132,9h1v1h-1z" fill="#1a5ab7" opacity="1.00"/>
  <path d="M133,9h1v1h-1z" fill="#1180da" opacity="1.00"/>
  <path d="M134,9h1v1h-1z" fill="#099af2" opacity="1.00"/>
  <path d="M135,9h1v1h-1zM136,11h1v1h-1zM125,21h1v1h-1z" fill="#01a8fe" opacity="1.00"/>
  <path d="M136,9h1v1h-1zM137,9h1v1h-1zM138,9h1v1h-1zM132,10h1v1h-1zM133,10h1v1h-1zM134,10h1v1h-1zM135,10h1v1h-1zM136,10h1v1h-1zM137,10h1v1h-1zM131,11h1v1h-1zM132,11h1v1h-1zM133,11h1v1h-1zM134,11h1v1h-1zM135,11h1v1h-1zM129,12h1v1h-1zM130,12h1v1h-1zM131,12h1v1h-1zM132,12h1v1h-1zM133,12h1v1h-1zM134,12h1v1h-1zM151,16h1v1h-1zM150,17h1v1h-1zM151,17h1v1h-1zM149,18h1v1h-1zM150,18h1v1h-1zM151,18h1v1h-1zM138,20h1v1h-1zM147,20h1v1h-1zM137,22h1v1h-1zM146,22h1v1h-1zM137,23h1v1h-1zM129,25h1v1h-1zM130,25h1v1h-1zM131,25h1v1h-1zM132,25h1v1h-1zM129,26h1v1h-1zM130,26h1v1h-1zM131,26h1v1h-1zM132,26h1v1h-1zM145,26h1v1h-1zM130,27h1v1h-1zM131,27h1v1h-1zM145,27h1v1h-1zM146,27h1v1h-1zM145,28h1v1h-1zM146,28h1v1h-1zM147,28h1v1h-1zM151,28h1v1h-1zM145,29h1v1h-1zM146,29h1v1h-1zM147,29h1v1h-1zM148,29h1v1h-1zM149,29h1v1h-1zM150,29h1v1h-1zM145,30h1v1h-1zM146,30h1v1h-1zM147,30h1v1h-1zM148,30h1v1h-1zM149,30h1v1h-1zM145,31h1v1h-1zM146,31h1v1h-1zM147,31h1v1h-1zM148,31h1v1h-1zM144,32h1v1h-1zM145,32h1v1h-1zM146,32h1v1h-1zM147,32h1v1h-1zM148,32h1v1h-1zM144,33h1v1h-1zM145,33h1v1h-1zM146,33h1v1h-1zM143,34h1v1h-1zM144,34h1v1h-1z" fill="#01a9ff" opacity="1.00"/>
  <path d="M139,9h1v1h-1zM131,28h1v1h-1z" fill="#03a4fa" opacity="1.00"/>
  <path d="M140,9h1v1h-1z" fill="#0c96ee" opacity="1.00"/>
  <path d="M141,9h1v1h-1z" fill="#186fca" opacity="1.00"/>
  <path d="M142,9h1v1h-1z" fill="#2343a3" opacity="1.00"/>
  <path d="M143,9h1v1h-1z" fill="#281f81" opacity="1.00"/>
  <path d="M144,9h1v1h-1zM38,15h1v1h-1zM94,15h1v1h-1zM104,16h1v1h-1zM144,16h1v1h-1zM27,17h1v1h-1zM22,18h1v1h-1zM92,19h1v1h-1zM20,21h1v1h-1zM39,21h1v1h-1zM40,23h1v1h-1zM19,24h1v1h-1zM28,24h1v1h-1zM44,24h1v1h-1zM61,24h1v1h-1zM84,24h1v1h-1zM107,24h1v1h-1zM18,25h1v1h-1zM28,26h1v1h-1zM46,30h1v1h-1zM71,30h1v1h-1zM73,30h1v1h-1zM103,30h1v1h-1zM124,30h1v1h-1zM29,31h1v1h-1zM139,31h1v1h-1zM45,32h1v1h-1z" fill="#281c80" opacity="0.99"/>
  <path d="M145,9h1v1h-1zM102,16h1v1h-1zM21,18h1v1h-1zM74,27h1v1h-1zM47,32h1v1h-1z" fill="#2c2082" opacity="0.85"/>
  <path d="M146,9h1v1h-1z" fill="#42368e" opacity="0.42"/>
  <path d="M147,9h1v1h-1z" fill="#423a8c" opacity="0.12"/>
  <path d="M126,10h1v1h-1z" fill="#433686" opacity="0.07"/>
  <path d="M127,10h1v1h-1z" fill="#3a2f8b" opacity="0.38"/>
  <path d="M128,10h1v1h-1z" fill="#2e2585" opacity="0.84"/>
  <path d="M129,10h1v1h-1z" fill="#233c9c" opacity="1.00"/>
  <path d="M130,10h1v1h-1z" fill="#1768c4" opacity="1.00"/>
  <path d="M131,10h1v1h-1z" fill="#0797ef" opacity="1.00"/>
  <path d="M138,10h1v1h-1z" fill="#02a5fc" opacity="1.00"/>
  <path d="M139,10h1v1h-1z" fill="#0991e9" opacity="1.00"/>
  <path d="M140,10h1v1h-1z" fill="#1376d0" opacity="1.00"/>
  <path d="M141,10h1v1h-1z" fill="#1961be" opacity="1.00"/>
  <path d="M142,10h1v1h-1z" fill="#2049a8" opacity="1.00"/>
  <path d="M143,10h1v1h-1zM134,27h1v1h-1z" fill="#281f82" opacity="1.00"/>
  <path d="M144,10h1v1h-1zM145,10h1v1h-1zM142,11h1v1h-1zM143,11h1v1h-1zM144,11h1v1h-1zM145,11h1v1h-1zM146,11h1v1h-1zM139,12h1v1h-1zM140,12h1v1h-1zM141,12h1v1h-1zM142,12h1v1h-1zM143,12h1v1h-1zM144,12h1v1h-1zM145,12h1v1h-1zM146,12h1v1h-1zM147,12h1v1h-1zM138,13h1v1h-1zM139,13h1v1h-1zM140,13h1v1h-1zM141,13h1v1h-1zM142,13h1v1h-1zM143,13h1v1h-1zM144,13h1v1h-1zM145,13h1v1h-1zM146,13h1v1h-1zM147,13h1v1h-1zM126,14h1v1h-1zM127,14h1v1h-1zM135,14h1v1h-1zM136,14h1v1h-1zM137,14h1v1h-1zM138,14h1v1h-1zM139,14h1v1h-1zM140,14h1v1h-1zM141,14h1v1h-1zM142,14h1v1h-1zM143,14h1v1h-1zM144,14h1v1h-1zM145,14h1v1h-1zM24,15h1v1h-1zM25,15h1v1h-1zM26,15h1v1h-1zM27,15h1v1h-1zM28,15h1v1h-1zM29,15h1v1h-1zM39,15h1v1h-1zM40,15h1v1h-1zM41,15h1v1h-1zM42,15h1v1h-1zM43,15h1v1h-1zM44,15h1v1h-1zM45,15h1v1h-1zM46,15h1v1h-1zM47,15h1v1h-1zM48,15h1v1h-1zM54,15h1v1h-1zM55,15h1v1h-1zM56,15h1v1h-1zM57,15h1v1h-1zM58,15h1v1h-1zM59,15h1v1h-1zM60,15h1v1h-1zM61,15h1v1h-1zM62,15h1v1h-1zM63,15h1v1h-1zM64,15h1v1h-1zM65,15h1v1h-1zM66,15h1v1h-1zM67,15h1v1h-1zM68,15h1v1h-1zM73,15h1v1h-1zM74,15h1v1h-1zM75,15h1v1h-1zM76,15h1v1h-1zM77,15h1v1h-1zM78,15h1v1h-1zM79,15h1v1h-1zM80,15h1v1h-1zM81,15h1v1h-1zM82,15h1v1h-1zM83,15h1v1h-1zM84,15h1v1h-1zM85,15h1v1h-1zM86,15h1v1h-1zM95,15h1v1h-1zM96,15h1v1h-1zM97,15h1v1h-1zM98,15h1v1h-1zM99,15h1v1h-1zM100,15h1v1h-1zM101,15h1v1h-1zM102,15h1v1h-1zM103,15h1v1h-1zM104,15h1v1h-1zM105,15h1v1h-1zM125,15h1v1h-1zM126,15h1v1h-1zM127,15h1v1h-1zM128,15h1v1h-1zM129,15h1v1h-1zM130,15h1v1h-1zM131,15h1v1h-1zM132,15h1v1h-1zM133,15h1v1h-1zM134,15h1v1h-1zM135,15h1v1h-1zM136,15h1v1h-1zM137,15h1v1h-1zM138,15h1v1h-1zM139,15h1v1h-1zM140,15h1v1h-1zM141,15h1v1h-1zM142,15h1v1h-1zM143,15h1v1h-1zM24,16h1v1h-1zM25,16h1v1h-1zM26,16h1v1h-1zM27,16h1v1h-1zM28,16h1v1h-1zM29,16h1v1h-1zM38,16h1v1h-1zM39,16h1v1h-1zM60,16h1v1h-1zM61,16h1v1h-1zM62,16h1v1h-1zM73,16h1v1h-1zM74,16h1v1h-1zM75,16h1v1h-1zM85,16h1v1h-1zM86,16h1v1h-1zM87,16h1v1h-1zM94,16h1v1h-1zM95,16h1v1h-1zM105,16h1v1h-1zM106,16h1v1h-1zM125,16h1v1h-1zM126,16h1v1h-1zM127,16h1v1h-1zM128,16h1v1h-1zM129,16h1v1h-1zM130,16h1v1h-1zM131,16h1v1h-1zM132,16h1v1h-1zM133,16h1v1h-1zM134,16h1v1h-1zM135,16h1v1h-1zM136,16h1v1h-1zM137,16h1v1h-1zM138,16h1v1h-1zM139,16h1v1h-1zM140,16h1v1h-1zM141,16h1v1h-1zM142,16h1v1h-1zM143,16h1v1h-1zM23,17h1v1h-1zM24,17h1v1h-1zM28,17h1v1h-1zM29,17h1v1h-1zM37,17h1v1h-1zM38,17h1v1h-1zM60,17h1v1h-1zM61,17h1v1h-1zM62,17h1v1h-1zM73,17h1v1h-1zM74,17h1v1h-1zM75,17h1v1h-1zM85,17h1v1h-1zM86,17h1v1h-1zM87,17h1v1h-1zM93,17h1v1h-1zM94,17h1v1h-1zM95,17h1v1h-1zM105,17h1v1h-1zM106,17h1v1h-1zM124,17h1v1h-1zM125,17h1v1h-1zM126,17h1v1h-1zM127,17h1v1h-1zM128,17h1v1h-1zM129,17h1v1h-1zM130,17h1v1h-1zM131,17h1v1h-1zM132,17h1v1h-1zM133,17h1v1h-1zM134,17h1v1h-1zM135,17h1v1h-1zM136,17h1v1h-1zM137,17h1v1h-1zM140,17h1v1h-1zM141,17h1v1h-1zM142,17h1v1h-1zM143,17h1v1h-1zM23,18h1v1h-1zM28,18h1v1h-1zM29,18h1v1h-1zM37,18h1v1h-1zM38,18h1v1h-1zM60,18h1v1h-1zM61,18h1v1h-1zM62,18h1v1h-1zM73,18h1v1h-1zM74,18h1v1h-1zM85,18h1v1h-1zM86,18h1v1h-1zM87,18h1v1h-1zM93,18h1v1h-1zM94,18h1v1h-1zM105,18h1v1h-1zM106,18h1v1h-1zM107,18h1v1h-1zM124,18h1v1h-1zM125,18h1v1h-1zM126,18h1v1h-1zM127,18h1v1h-1zM128,18h1v1h-1zM129,18h1v1h-1zM130,18h1v1h-1zM131,18h1v1h-1zM132,18h1v1h-1zM133,18h1v1h-1zM134,18h1v1h-1zM135,18h1v1h-1zM141,18h1v1h-1zM142,18h1v1h-1zM22,19h1v1h-1zM23,19h1v1h-1zM28,19h1v1h-1zM29,19h1v1h-1zM30,19h1v1h-1zM37,19h1v1h-1zM38,19h1v1h-1zM60,19h1v1h-1zM61,19h1v1h-1zM72,19h1v1h-1zM73,19h1v1h-1zM74,19h1v1h-1zM85,19h1v1h-1zM86,19h1v1h-1zM87,19h1v1h-1zM93,19h1v1h-1zM94,19h1v1h-1zM105,19h1v1h-1zM106,19h1v1h-1zM107,19h1v1h-1zM127,19h1v1h-1zM128,19h1v1h-1zM129,19h1v1h-1zM130,19h1v1h-1zM131,19h1v1h-1zM132,19h1v1h-1zM133,19h1v1h-1zM134,19h1v1h-1zM135,19h1v1h-1zM141,19h1v1h-1zM142,19h1v1h-1zM21,20h1v1h-1zM22,20h1v1h-1zM28,20h1v1h-1zM29,20h1v1h-1zM30,20h1v1h-1zM37,20h1v1h-1zM38,20h1v1h-1zM59,20h1v1h-1zM60,20h1v1h-1zM61,20h1v1h-1zM72,20h1v1h-1zM73,20h1v1h-1zM74,20h1v1h-1zM85,20h1v1h-1zM86,20h1v1h-1zM87,20h1v1h-1zM92,20h1v1h-1zM93,20h1v1h-1zM94,20h1v1h-1zM105,20h1v1h-1zM106,20h1v1h-1zM107,20h1v1h-1zM128,20h1v1h-1zM129,20h1v1h-1zM130,20h1v1h-1zM131,20h1v1h-1zM132,20h1v1h-1zM133,20h1v1h-1zM134,20h1v1h-1zM135,20h1v1h-1zM141,20h1v1h-1zM142,20h1v1h-1zM21,21h1v1h-1zM28,21h1v1h-1zM29,21h1v1h-1zM30,21h1v1h-1zM37,21h1v1h-1zM38,21h1v1h-1zM59,21h1v1h-1zM60,21h1v1h-1zM61,21h1v1h-1zM72,21h1v1h-1zM73,21h1v1h-1zM74,21h1v1h-1zM85,21h1v1h-1zM86,21h1v1h-1zM87,21h1v1h-1zM92,21h1v1h-1zM93,21h1v1h-1zM94,21h1v1h-1zM105,21h1v1h-1zM106,21h1v1h-1zM107,21h1v1h-1zM128,21h1v1h-1zM129,21h1v1h-1zM130,21h1v1h-1zM131,21h1v1h-1zM132,21h1v1h-1zM133,21h1v1h-1zM134,21h1v1h-1zM135,21h1v1h-1zM141,21h1v1h-1zM19,22h1v1h-1zM20,22h1v1h-1zM28,22h1v1h-1zM29,22h1v1h-1zM30,22h1v1h-1zM38,22h1v1h-1zM39,22h1v1h-1zM40,22h1v1h-1zM41,22h1v1h-1zM42,22h1v1h-1zM43,22h1v1h-1zM59,22h1v1h-1zM60,22h1v1h-1zM61,22h1v1h-1zM72,22h1v1h-1zM73,22h1v1h-1zM74,22h1v1h-1zM85,22h1v1h-1zM86,22h1v1h-1zM92,22h1v1h-1zM93,22h1v1h-1zM94,22h1v1h-1zM105,22h1v1h-1zM106,22h1v1h-1zM107,22h1v1h-1zM128,22h1v1h-1zM129,22h1v1h-1zM130,22h1v1h-1zM131,22h1v1h-1zM132,22h1v1h-1zM133,22h1v1h-1zM134,22h1v1h-1zM135,22h1v1h-1zM140,22h1v1h-1zM141,22h1v1h-1zM18,23h1v1h-1zM19,23h1v1h-1zM28,23h1v1h-1zM29,23h1v1h-1zM30,23h1v1h-1zM41,23h1v1h-1zM42,23h1v1h-1zM43,23h1v1h-1zM44,23h1v1h-1zM45,23h1v1h-1zM59,23h1v1h-1zM60,23h1v1h-1zM61,23h1v1h-1zM72,23h1v1h-1zM73,23h1v1h-1zM74,23h1v1h-1zM83,23h1v1h-1zM84,23h1v1h-1zM85,23h1v1h-1zM92,23h1v1h-1zM93,23h1v1h-1zM94,23h1v1h-1zM105,23h1v1h-1zM106,23h1v1h-1zM107,23h1v1h-1zM123,23h1v1h-1zM124,23h1v1h-1zM125,23h1v1h-1zM126,23h1v1h-1zM127,23h1v1h-1zM135,23h1v1h-1zM140,23h1v1h-1zM141,23h1v1h-1zM18,24h1v1h-1zM29,24h1v1h-1zM30,24h1v1h-1zM45,24h1v1h-1zM46,24h1v1h-1zM47,24h1v1h-1zM59,24h1v1h-1zM60,24h1v1h-1zM72,24h1v1h-1zM73,24h1v1h-1zM74,24h1v1h-1zM75,24h1v1h-1zM76,24h1v1h-1zM77,24h1v1h-1zM78,24h1v1h-1zM79,24h1v1h-1zM80,24h1v1h-1zM81,24h1v1h-1zM82,24h1v1h-1zM83,24h1v1h-1zM92,24h1v1h-1zM93,24h1v1h-1zM105,24h1v1h-1zM106,24h1v1h-1zM122,24h1v1h-1zM123,24h1v1h-1zM124,24h1v1h-1zM125,24h1v1h-1zM126,24h1v1h-1zM127,24h1v1h-1zM135,24h1v1h-1zM140,24h1v1h-1zM141,24h1v1h-1zM17,25h1v1h-1zM29,25h1v1h-1zM30,25h1v1h-1zM31,25h1v1h-1zM47,25h1v1h-1zM48,25h1v1h-1zM59,25h1v1h-1zM60,25h1v1h-1zM72,25h1v1h-1zM73,25h1v1h-1zM74,25h1v1h-1zM75,25h1v1h-1zM76,25h1v1h-1zM77,25h1v1h-1zM78,25h1v1h-1zM79,25h1v1h-1zM80,25h1v1h-1zM81,25h1v1h-1zM82,25h1v1h-1zM83,25h1v1h-1zM92,25h1v1h-1zM93,25h1v1h-1zM105,25h1v1h-1zM106,25h1v1h-1zM122,25h1v1h-1zM123,25h1v1h-1zM124,25h1v1h-1zM125,25h1v1h-1zM126,25h1v1h-1zM127,25h1v1h-1zM135,25h1v1h-1zM139,25h1v1h-1zM140,25h1v1h-1zM141,25h1v1h-1zM16,26h1v1h-1zM17,26h1v1h-1zM29,26h1v1h-1zM30,26h1v1h-1zM31,26h1v1h-1zM48,26h1v1h-1zM49,26h1v1h-1zM58,26h1v1h-1zM59,26h1v1h-1zM60,26h1v1h-1zM72,26h1v1h-1zM73,26h1v1h-1zM81,26h1v1h-1zM82,26h1v1h-1zM83,26h1v1h-1zM91,26h1v1h-1zM92,26h1v1h-1zM93,26h1v1h-1zM104,26h1v1h-1zM105,26h1v1h-1zM106,26h1v1h-1zM123,26h1v1h-1zM124,26h1v1h-1zM125,26h1v1h-1zM126,26h1v1h-1zM127,26h1v1h-1zM135,26h1v1h-1zM136,26h1v1h-1zM137,26h1v1h-1zM138,26h1v1h-1zM139,26h1v1h-1zM140,26h1v1h-1zM141,26h1v1h-1zM16,27h1v1h-1zM27,27h1v1h-1zM28,27h1v1h-1zM29,27h1v1h-1zM30,27h1v1h-1zM31,27h1v1h-1zM48,27h1v1h-1zM49,27h1v1h-1zM58,27h1v1h-1zM59,27h1v1h-1zM60,27h1v1h-1zM72,27h1v1h-1zM73,27h1v1h-1zM81,27h1v1h-1zM82,27h1v1h-1zM83,27h1v1h-1zM91,27h1v1h-1zM92,27h1v1h-1zM93,27h1v1h-1zM104,27h1v1h-1zM105,27h1v1h-1zM106,27h1v1h-1zM123,27h1v1h-1zM124,27h1v1h-1zM125,27h1v1h-1zM126,27h1v1h-1zM127,27h1v1h-1zM135,27h1v1h-1zM136,27h1v1h-1zM137,27h1v1h-1zM138,27h1v1h-1zM139,27h1v1h-1zM140,27h1v1h-1zM141,27h1v1h-1zM25,28h1v1h-1zM26,28h1v1h-1zM27,28h1v1h-1zM28,28h1v1h-1zM29,28h1v1h-1zM30,28h1v1h-1zM31,28h1v1h-1zM48,28h1v1h-1zM49,28h1v1h-1zM58,28h1v1h-1zM59,28h1v1h-1zM60,28h1v1h-1zM72,28h1v1h-1zM73,28h1v1h-1zM82,28h1v1h-1zM83,28h1v1h-1zM91,28h1v1h-1zM92,28h1v1h-1zM93,28h1v1h-1zM104,28h1v1h-1zM105,28h1v1h-1zM106,28h1v1h-1zM123,28h1v1h-1zM124,28h1v1h-1zM125,28h1v1h-1zM126,28h1v1h-1zM127,28h1v1h-1zM134,28h1v1h-1zM135,28h1v1h-1zM136,28h1v1h-1zM137,28h1v1h-1zM138,28h1v1h-1zM139,28h1v1h-1zM140,28h1v1h-1zM141,28h1v1h-1zM15,29h1v1h-1zM22,29h1v1h-1zM23,29h1v1h-1zM24,29h1v1h-1zM25,29h1v1h-1zM26,29h1v1h-1zM27,29h1v1h-1zM28,29h1v1h-1zM29,29h1v1h-1zM30,29h1v1h-1zM31,29h1v1h-1zM48,29h1v1h-1zM49,29h1v1h-1zM58,29h1v1h-1zM59,29h1v1h-1zM60,29h1v1h-1zM72,29h1v1h-1zM73,29h1v1h-1zM82,29h1v1h-1zM83,29h1v1h-1zM84,29h1v1h-1zM92,29h1v1h-1zM93,29h1v1h-1zM104,29h1v1h-1zM105,29h1v1h-1zM124,29h1v1h-1zM125,29h1v1h-1zM126,29h1v1h-1zM127,29h1v1h-1zM128,29h1v1h-1zM134,29h1v1h-1zM135,29h1v1h-1zM136,29h1v1h-1zM137,29h1v1h-1zM138,29h1v1h-1zM139,29h1v1h-1zM140,29h1v1h-1zM14,30h1v1h-1zM29,30h1v1h-1zM30,30h1v1h-1zM31,30h1v1h-1zM47,30h1v1h-1zM58,30h1v1h-1zM59,30h1v1h-1zM72,30h1v1h-1zM83,30h1v1h-1zM84,30h1v1h-1zM85,30h1v1h-1zM93,30h1v1h-1zM94,30h1v1h-1zM104,30h1v1h-1zM125,30h1v1h-1zM126,30h1v1h-1zM127,30h1v1h-1zM128,30h1v1h-1zM129,30h1v1h-1zM130,30h1v1h-1zM131,30h1v1h-1zM132,30h1v1h-1zM133,30h1v1h-1zM134,30h1v1h-1zM135,30h1v1h-1zM136,30h1v1h-1zM137,30h1v1h-1zM138,30h1v1h-1zM139,30h1v1h-1zM13,31h1v1h-1zM30,31h1v1h-1zM31,31h1v1h-1zM36,31h1v1h-1zM37,31h1v1h-1zM38,31h1v1h-1zM39,31h1v1h-1zM40,31h1v1h-1zM41,31h1v1h-1zM42,31h1v1h-1zM43,31h1v1h-1zM44,31h1v1h-1zM45,31h1v1h-1zM46,31h1v1h-1zM47,31h1v1h-1zM58,31h1v1h-1zM59,31h1v1h-1zM71,31h1v1h-1zM72,31h1v1h-1zM84,31h1v1h-1zM85,31h1v1h-1zM94,31h1v1h-1zM95,31h1v1h-1zM96,31h1v1h-1zM97,31h1v1h-1zM98,31h1v1h-1zM99,31h1v1h-1zM100,31h1v1h-1zM101,31h1v1h-1zM102,31h1v1h-1zM103,31h1v1h-1zM127,31h1v1h-1zM128,31h1v1h-1zM129,31h1v1h-1zM130,31h1v1h-1zM131,31h1v1h-1zM132,31h1v1h-1zM133,31h1v1h-1zM134,31h1v1h-1zM135,31h1v1h-1zM136,31h1v1h-1zM137,31h1v1h-1zM138,31h1v1h-1zM12,32h1v1h-1zM13,32h1v1h-1zM30,32h1v1h-1zM31,32h1v1h-1zM36,32h1v1h-1zM37,32h1v1h-1zM38,32h1v1h-1zM39,32h1v1h-1zM40,32h1v1h-1zM41,32h1v1h-1zM42,32h1v1h-1zM43,32h1v1h-1zM44,32h1v1h-1zM57,32h1v1h-1zM58,32h1v1h-1zM59,32h1v1h-1zM71,32h1v1h-1zM72,32h1v1h-1zM84,32h1v1h-1zM85,32h1v1h-1zM86,32h1v1h-1zM96,32h1v1h-1zM97,32h1v1h-1zM98,32h1v1h-1zM99,32h1v1h-1zM100,32h1v1h-1zM101,32h1v1h-1zM102,32h1v1h-1zM130,32h1v1h-1zM131,32h1v1h-1zM132,32h1v1h-1zM133,32h1v1h-1zM134,32h1v1h-1zM135,32h1v1h-1z" fill="#291d80" opacity="1.00"/>
  <path d="M146,10h1v1h-1zM92,18h1v1h-1z" fill="#2a1f81" opacity="0.95"/>
  <path d="M147,10h1v1h-1z" fill="#342786" opacity="0.62"/>
  <path d="M148,10h1v1h-1z" fill="#433790" opacity="0.18"/>
  <path d="M125,11h1v1h-1zM28,34h1v1h-1zM33,34h1v1h-1z" fill="#6d5ba4" opacity="0.05"/>
  <path d="M126,11h1v1h-1z" fill="#302485" opacity="0.50"/>
  <path d="M127,11h1v1h-1z" fill="#2d2082" opacity="0.90"/>
  <path d="M128,11h1v1h-1z" fill="#2147a6" opacity="1.00"/>
  <path d="M129,11h1v1h-1z" fill="#0d89e2" opacity="1.00"/>
  <path d="M130,11h1v1h-1zM132,27h1v1h-1z" fill="#04a4fa" opacity="1.00"/>
  <path d="M137,11h1v1h-1z" fill="#079cf3" opacity="1.00"/>
  <path d="M138,11h1v1h-1z" fill="#1275d0" opacity="1.00"/>
  <path d="M139,11h1v1h-1z" fill="#2043a2" opacity="1.00"/>
  <path d="M140,11h1v1h-1z" fill="#282588" opacity="1.00"/>
  <path d="M141,11h1v1h-1zM134,14h1v1h-1z" fill="#291e81" opacity="1.00"/>
  <path d="M147,11h1v1h-1zM20,20h1v1h-1zM107,25h1v1h-1z" fill="#2a1e80" opacity="0.95"/>
  <path d="M148,11h1v1h-1z" fill="#312584" opacity="0.65"/>
  <path d="M149,11h1v1h-1z" fill="#40358f" opacity="0.19"/>
  <path d="M125,12h1v1h-1z" fill="#3e338c" opacity="0.37"/>
  <path d="M126,12h1v1h-1zM40,21h1v1h-1z" fill="#2a1e81" opacity="0.89"/>
  <path d="M127,12h1v1h-1z" fill="#214aa9" opacity="1.00"/>
  <path d="M128,12h1v1h-1z" fill="#0a92ea" opacity="1.00"/>
  <path d="M135,12h1v1h-1z" fill="#0b98f0" opacity="1.00"/>
  <path d="M136,12h1v1h-1z" fill="#0f84de" opacity="1.00"/>
  <path d="M137,12h1v1h-1z" fill="#1e52b0" opacity="1.00"/>
  <path d="M138,12h1v1h-1z" fill="#262d8f" opacity="1.00"/>
  <path d="M148,12h1v1h-1zM22,17h1v1h-1zM71,25h1v1h-1zM29,32h1v1h-1z" fill="#2a1e81" opacity="0.95"/>
  <path d="M149,12h1v1h-1z" fill="#322686" opacity="0.66"/>
  <path d="M150,12h1v1h-1z" fill="#4e4795" opacity="0.14"/>
  <path d="M24,13h1v1h-1z" fill="#41358d" opacity="0.51"/>
  <path d="M25,13h1v1h-1zM26,13h1v1h-1zM27,13h1v1h-1zM28,13h1v1h-1zM29,13h1v1h-1zM42,13h1v1h-1zM43,13h1v1h-1zM44,13h1v1h-1zM45,13h1v1h-1zM46,13h1v1h-1zM47,13h1v1h-1zM48,13h1v1h-1zM54,13h1v1h-1zM55,13h1v1h-1zM56,13h1v1h-1zM57,13h1v1h-1zM58,13h1v1h-1zM59,13h1v1h-1zM60,13h1v1h-1zM61,13h1v1h-1zM62,13h1v1h-1zM63,13h1v1h-1zM64,13h1v1h-1zM65,13h1v1h-1zM66,13h1v1h-1zM67,13h1v1h-1zM73,13h1v1h-1zM74,13h1v1h-1zM75,13h1v1h-1zM76,13h1v1h-1zM77,13h1v1h-1zM78,13h1v1h-1zM79,13h1v1h-1z" fill="#3c308b" opacity="0.58"/>
  <path d="M30,13h1v1h-1z" fill="#413690" opacity="0.28"/>
  <path d="M39,13h1v1h-1z" fill="#6a61a7" opacity="0.11"/>
  <path d="M40,13h1v1h-1z" fill="#372d89" opacity="0.38"/>
  <path d="M41,13h1v1h-1z" fill="#3e338c" opacity="0.55"/>
  <path d="M49,13h1v1h-1z" fill="#3b318b" opacity="0.58"/>
  <path d="M50,13h1v1h-1z" fill="#41378d" opacity="0.38"/>
  <path d="M52,13h1v1h-1z" fill="#443b90" opacity="0.12"/>
  <path d="M53,13h1v1h-1z" fill="#3c318b" opacity="0.47"/>
  <path d="M68,13h1v1h-1z" fill="#3f348d" opacity="0.54"/>
  <path d="M69,13h1v1h-1zM81,13h1v1h-1zM82,13h1v1h-1zM83,13h1v1h-1zM97,13h1v1h-1zM98,13h1v1h-1zM99,13h1v1h-1zM100,13h1v1h-1zM101,13h1v1h-1zM102,13h1v1h-1zM103,13h1v1h-1z" fill="#423891" opacity="0.50"/>
  <path d="M70,13h1v1h-1zM21,16h1v1h-1zM30,34h1v1h-1zM31,34h1v1h-1zM37,34h1v1h-1zM38,34h1v1h-1zM39,34h1v1h-1zM40,34h1v1h-1zM41,34h1v1h-1zM42,34h1v1h-1zM43,34h1v1h-1zM44,34h1v1h-1zM57,34h1v1h-1zM58,34h1v1h-1zM59,34h1v1h-1zM71,34h1v1h-1zM72,34h1v1h-1zM84,34h1v1h-1zM85,34h1v1h-1zM86,34h1v1h-1zM87,34h1v1h-1z" fill="#5a529c" opacity="0.12"/>
  <path d="M72,13h1v1h-1z" fill="#45388f" opacity="0.23"/>
  <path d="M80,13h1v1h-1z" fill="#3d318d" opacity="0.58"/>
  <path d="M84,13h1v1h-1z" fill="#40348d" opacity="0.42"/>
  <path d="M85,13h1v1h-1z" fill="#43378d" opacity="0.25"/>
  <path d="M86,13h1v1h-1zM108,29h1v1h-1z" fill="#7468ae" opacity="0.09"/>
  <path d="M95,13h1v1h-1z" fill="#6c6ca6" opacity="0.16"/>
  <path d="M96,13h1v1h-1z" fill="#382d8a" opacity="0.38"/>
  <path d="M104,13h1v1h-1z" fill="#322884" opacity="0.30"/>
  <path d="M105,13h1v1h-1zM49,17h1v1h-1z" fill="#9389ba" opacity="0.10"/>
  <path d="M124,13h1v1h-1z" fill="#3c318e" opacity="0.27"/>
  <path d="M125,13h1v1h-1z" fill="#2f2284" opacity="0.79"/>
  <path d="M126,13h1v1h-1zM145,15h1v1h-1zM23,16h1v1h-1zM124,16h1v1h-1zM75,18h1v1h-1zM143,18h1v1h-1zM94,24h1v1h-1zM91,25h1v1h-1zM122,26h1v1h-1zM47,29h1v1h-1zM93,31h1v1h-1z" fill="#291d80" opacity="0.98"/>
  <path d="M127,13h1v1h-1z" fill="#263496" opacity="1.00"/>
  <path d="M128,13h1v1h-1zM129,13h1v1h-1zM130,13h1v1h-1zM131,13h1v1h-1zM132,13h1v1h-1zM133,13h1v1h-1z" fill="#1f4cab" opacity="1.00"/>
  <path d="M134,13h1v1h-1z" fill="#1f47a6" opacity="1.00"/>
  <path d="M135,13h1v1h-1z" fill="#23399a" opacity="1.00"/>
  <path d="M136,13h1v1h-1zM123,20h1v1h-1z" fill="#243192" opacity="1.00"/>
  <path d="M137,13h1v1h-1z" fill="#282183" opacity="1.00"/>
  <path d="M148,13h1v1h-1zM27,18h1v1h-1zM95,18h1v1h-1z" fill="#291c7f" opacity="0.96"/>
  <path d="M149,13h1v1h-1z" fill="#312585" opacity="0.67"/>
  <path d="M150,13h1v1h-1z" fill="#4e4598" opacity="0.20"/>
  <path d="M23,14h1v1h-1z" fill="#504598" opacity="0.35"/>
  <path d="M24,14h1v1h-1zM81,14h1v1h-1zM82,14h1v1h-1zM83,14h1v1h-1zM97,14h1v1h-1zM98,14h1v1h-1zM99,14h1v1h-1zM100,14h1v1h-1zM101,14h1v1h-1zM102,14h1v1h-1zM103,14h1v1h-1z" fill="#2b1f82" opacity="0.96"/>
  <path d="M25,14h1v1h-1zM26,14h1v1h-1zM27,14h1v1h-1zM28,14h1v1h-1zM29,14h1v1h-1zM42,14h1v1h-1zM43,14h1v1h-1zM44,14h1v1h-1zM45,14h1v1h-1zM46,14h1v1h-1zM47,14h1v1h-1zM48,14h1v1h-1zM54,14h1v1h-1zM55,14h1v1h-1zM56,14h1v1h-1zM57,14h1v1h-1zM58,14h1v1h-1zM59,14h1v1h-1zM60,14h1v1h-1zM61,14h1v1h-1zM62,14h1v1h-1zM63,14h1v1h-1zM64,14h1v1h-1zM65,14h1v1h-1zM66,14h1v1h-1zM67,14h1v1h-1zM73,14h1v1h-1zM74,14h1v1h-1zM75,14h1v1h-1zM76,14h1v1h-1zM77,14h1v1h-1zM78,14h1v1h-1zM79,14h1v1h-1zM80,14h1v1h-1z" fill="#2a1f81" opacity="0.97"/>
  <path d="M30,14h1v1h-1z" fill="#2f2383" opacity="0.51"/>
  <path d="M37,14h1v1h-1z" fill="#53489b" opacity="0.18"/>
  <path d="M38,14h1v1h-1z" fill="#352886" opacity="0.65"/>
  <path d="M39,14h1v1h-1z" fill="#2b1f81" opacity="0.88"/>
  <path d="M40,14h1v1h-1zM96,14h1v1h-1z" fill="#2a1e80" opacity="0.94"/>
  <path d="M41,14h1v1h-1z" fill="#2a1f81" opacity="0.96"/>
  <path d="M49,14h1v1h-1zM46,32h1v1h-1z" fill="#2b1e81" opacity="0.95"/>
  <path d="M50,14h1v1h-1z" fill="#2b1f81" opacity="0.60"/>
  <path d="M52,14h1v1h-1z" fill="#302884" opacity="0.23"/>
  <path d="M53,14h1v1h-1z" fill="#2c2082" opacity="0.79"/>
  <path d="M68,14h1v1h-1z" fill="#2b1f81" opacity="0.96"/>
  <path d="M69,14h1v1h-1z" fill="#2c1f82" opacity="0.89"/>
  <path d="M70,14h1v1h-1z" fill="#362b88" opacity="0.18"/>
  <path d="M72,14h1v1h-1z" fill="#322784" opacity="0.44"/>
  <path d="M84,14h1v1h-1z" fill="#2a1f80" opacity="0.95"/>
  <path d="M85,14h1v1h-1zM63,16h1v1h-1z" fill="#291d81" opacity="0.92"/>
  <path d="M86,14h1v1h-1z" fill="#322886" opacity="0.73"/>
  <path d="M87,14h1v1h-1z" fill="#4b4196" opacity="0.29"/>
  <path d="M93,14h1v1h-1zM45,29h1v1h-1z" fill="#6a60aa" opacity="0.09"/>
  <path d="M94,14h1v1h-1z" fill="#382c89" opacity="0.55"/>
  <path d="M95,14h1v1h-1z" fill="#2b2081" opacity="0.89"/>
  <path d="M104,14h1v1h-1z" fill="#291d80" opacity="0.92"/>
  <path d="M105,14h1v1h-1z" fill="#2e2182" opacity="0.77"/>
  <path d="M106,14h1v1h-1z" fill="#41378e" opacity="0.31"/>
  <path d="M107,14h1v1h-1z" fill="#8080b3" opacity="0.04"/>
  <path d="M123,14h1v1h-1zM70,16h1v1h-1z" fill="#42398e" opacity="0.11"/>
  <path d="M124,14h1v1h-1z" fill="#2f2284" opacity="0.62"/>
  <path d="M125,14h1v1h-1zM59,19h1v1h-1zM71,27h1v1h-1zM123,29h1v1h-1zM49,30h1v1h-1zM48,31h1v1h-1z" fill="#291d80" opacity="0.97"/>
  <path d="M128,14h1v1h-1zM129,14h1v1h-1zM130,14h1v1h-1zM131,14h1v1h-1zM132,14h1v1h-1zM133,14h1v1h-1zM139,17h1v1h-1z" fill="#291f82" opacity="1.00"/>
  <path d="M146,14h1v1h-1zM37,16h1v1h-1zM21,19h1v1h-1zM47,26h1v1h-1zM26,27h1v1h-1zM24,28h1v1h-1zM106,29h1v1h-1z" fill="#291c80" opacity="0.98"/>
  <path d="M147,14h1v1h-1zM83,32h1v1h-1z" fill="#2e2283" opacity="0.82"/>
  <path d="M148,14h1v1h-1zM127,33h1v1h-1z" fill="#3d338c" opacity="0.39"/>
  <path d="M149,14h1v1h-1z" fill="#473d8f" opacity="0.10"/>
  <path d="M22,15h1v1h-1z" fill="#44388f" opacity="0.25"/>
  <path d="M23,15h1v1h-1z" fill="#2a1d80" opacity="0.91"/>
  <path d="M30,15h1v1h-1z" fill="#372c89" opacity="0.69"/>
  <path d="M36,15h1v1h-1z" fill="#514495" opacity="0.24"/>
  <path d="M37,15h1v1h-1z" fill="#2f2383" opacity="0.78"/>
  <path d="M49,15h1v1h-1z" fill="#2b2081" opacity="0.95"/>
  <path d="M50,15h1v1h-1z" fill="#3f358d" opacity="0.49"/>
  <path d="M52,15h1v1h-1z" fill="#3e328d" opacity="0.34"/>
  <path d="M53,15h1v1h-1z" fill="#2c2182" opacity="0.88"/>
  <path d="M69,15h1v1h-1z" fill="#2f2384" opacity="0.88"/>
  <path d="M70,15h1v1h-1z" fill="#2e2783" opacity="0.15"/>
  <path d="M72,15h1v1h-1z" fill="#3a318b" opacity="0.64"/>
  <path d="M87,15h1v1h-1zM95,30h1v1h-1z" fill="#291c7f" opacity="0.95"/>
  <path d="M88,15h1v1h-1z" fill="#60559f" opacity="0.18"/>
  <path d="M92,15h1v1h-1z" fill="#3e388f" opacity="0.16"/>
  <path d="M93,15h1v1h-1z" fill="#2b1f82" opacity="0.74"/>
  <path d="M106,15h1v1h-1zM59,18h1v1h-1zM60,32h1v1h-1z" fill="#2b1f81" opacity="0.92"/>
  <path d="M107,15h1v1h-1z" fill="#392f8a" opacity="0.47"/>
  <path d="M108,15h1v1h-1zM83,18h1v1h-1z" fill="#6a6aaa" opacity="0.05"/>
  <path d="M123,15h1v1h-1z" fill="#332787" opacity="0.33"/>
  <path d="M124,15h1v1h-1z" fill="#2d2182" opacity="0.89"/>
  <path d="M144,15h1v1h-1zM15,28h1v1h-1zM16,28h1v1h-1zM48,30h1v1h-1zM60,30h1v1h-1zM105,30h1v1h-1zM140,30h1v1h-1zM104,31h1v1h-1zM126,31h1v1h-1zM95,32h1v1h-1zM136,32h1v1h-1z" fill="#281c80" opacity="1.00"/>
  <path d="M146,15h1v1h-1z" fill="#312584" opacity="0.73"/>
  <path d="M147,15h1v1h-1z" fill="#584e9c" opacity="0.19"/>
  <path d="M149,15h1v1h-1z" fill="#39b3ff" opacity="0.11"/>
  <path d="M150,15h1v1h-1z" fill="#1baefd" opacity="0.48"/>
  <path d="M151,15h1v1h-1z" fill="#0facff" opacity="0.67"/>
  <path d="M22,16h1v1h-1z" fill="#352987" opacity="0.67"/>
  <path d="M30,16h1v1h-1z" fill="#342987" opacity="0.84"/>
  <path d="M31,16h1v1h-1zM95,26h1v1h-1z" fill="#2a2a80" opacity="0.05"/>
  <path d="M35,16h1v1h-1z" fill="#433c8d" opacity="0.15"/>
  <path d="M36,16h1v1h-1z" fill="#2f2383" opacity="0.69"/>
  <path d="M40,16h1v1h-1z" fill="#291e81" opacity="0.96"/>
  <path d="M41,16h1v1h-1z" fill="#2a1d81" opacity="0.89"/>
  <path d="M42,16h1v1h-1z" fill="#2c2182" opacity="0.85"/>
  <path d="M43,16h1v1h-1zM44,16h1v1h-1zM45,16h1v1h-1zM46,16h1v1h-1zM47,16h1v1h-1zM48,16h1v1h-1zM54,16h1v1h-1zM55,16h1v1h-1zM56,16h1v1h-1zM57,16h1v1h-1z" fill="#2d2182" opacity="0.84"/>
  <path d="M49,16h1v1h-1zM122,28h1v1h-1zM13,29h1v1h-1z" fill="#2f2484" opacity="0.78"/>
  <path d="M50,16h1v1h-1z" fill="#473e93" opacity="0.35"/>
  <path d="M52,16h1v1h-1z" fill="#483b92" opacity="0.32"/>
  <path d="M53,16h1v1h-1z" fill="#342885" opacity="0.76"/>
  <path d="M58,16h1v1h-1zM25,27h1v1h-1z" fill="#2d2082" opacity="0.87"/>
  <path d="M59,16h1v1h-1z" fill="#2a1e81" opacity="0.97"/>
  <path d="M64,16h1v1h-1zM65,16h1v1h-1zM66,16h1v1h-1zM67,16h1v1h-1zM68,16h1v1h-1zM104,32h1v1h-1z" fill="#2c2082" opacity="0.86"/>
  <path d="M69,16h1v1h-1z" fill="#3b308b" opacity="0.66"/>
  <path d="M72,16h1v1h-1z" fill="#392e89" opacity="0.77"/>
  <path d="M76,16h1v1h-1zM75,19h1v1h-1z" fill="#2b1f81" opacity="0.94"/>
  <path d="M77,16h1v1h-1zM19,25h1v1h-1z" fill="#2c2082" opacity="0.87"/>
  <path d="M78,16h1v1h-1zM79,16h1v1h-1zM80,16h1v1h-1z" fill="#2c1f82" opacity="0.86"/>
  <path d="M81,16h1v1h-1z" fill="#2b1f82" opacity="0.86"/>
  <path d="M82,16h1v1h-1z" fill="#2a1f80" opacity="0.88"/>
  <path d="M83,16h1v1h-1zM94,29h1v1h-1z" fill="#2a1e81" opacity="0.93"/>
  <path d="M84,16h1v1h-1zM71,28h1v1h-1zM83,31h1v1h-1z" fill="#2a1e81" opacity="0.98"/>
  <path d="M88,16h1v1h-1z" fill="#352a88" opacity="0.62"/>
  <path d="M91,16h1v1h-1zM51,25h1v1h-1z" fill="#5a5aa5" opacity="0.07"/>
  <path d="M92,16h1v1h-1zM42,21h1v1h-1zM87,32h1v1h-1z" fill="#362987" opacity="0.56"/>
  <path d="M93,16h1v1h-1z" fill="#2b1e81" opacity="0.96"/>
  <path d="M96,16h1v1h-1z" fill="#291d81" opacity="0.98"/>
  <path d="M97,16h1v1h-1z" fill="#2b2082" opacity="0.88"/>
  <path d="M98,16h1v1h-1z" fill="#2c1f81" opacity="0.83"/>
  <path d="M99,16h1v1h-1zM100,16h1v1h-1zM101,16h1v1h-1z" fill="#2b1f80" opacity="0.82"/>
  <path d="M103,16h1v1h-1z" fill="#2a1f81" opacity="0.94"/>
  <path d="M107,16h1v1h-1z" fill="#2e2183" opacity="0.85"/>
  <path d="M108,16h1v1h-1z" fill="#372d88" opacity="0.31"/>
  <path d="M122,16h1v1h-1z" fill="#5d51a2" opacity="0.09"/>
  <path d="M123,16h1v1h-1z" fill="#382d89" opacity="0.58"/>
  <path d="M145,16h1v1h-1z" fill="#2e2182" opacity="0.75"/>
  <path d="M146,16h1v1h-1zM50,31h1v1h-1zM49,32h1v1h-1z" fill="#584e9d" opacity="0.20"/>
  <path d="M148,16h1v1h-1z" fill="#1faefb" opacity="0.22"/>
  <path d="M149,16h1v1h-1z" fill="#06aafe" opacity="0.69"/>
  <path d="M150,16h1v1h-1z" fill="#01a8ff" opacity="0.97"/>
  <path d="M152,16h1v1h-1z" fill="#26b1ff" opacity="0.35"/>
  <path d="M20,17h1v1h-1z" fill="#50509f" opacity="0.06"/>
  <path d="M21,17h1v1h-1z" fill="#352a87" opacity="0.53"/>
  <path d="M25,17h1v1h-1z" fill="#2c2081" opacity="0.91"/>
  <path d="M26,17h1v1h-1zM50,26h1v1h-1z" fill="#2d2182" opacity="0.81"/>
  <path d="M30,17h1v1h-1z" fill="#291c7f" opacity="0.93"/>
  <path d="M31,17h1v1h-1z" fill="#39398e" opacity="0.07"/>
  <path d="M35,17h1v1h-1z" fill="#382e89" opacity="0.31"/>
  <path d="M36,17h1v1h-1zM82,30h1v1h-1z" fill="#2f2384" opacity="0.87"/>
  <path d="M39,17h1v1h-1zM129,32h1v1h-1z" fill="#281d80" opacity="0.97"/>
  <path d="M40,17h1v1h-1z" fill="#352988" opacity="0.58"/>
  <path d="M41,17h1v1h-1z" fill="#372c89" opacity="0.27"/>
  <path d="M42,17h1v1h-1z" fill="#6761aa" opacity="0.16"/>
  <path d="M43,17h1v1h-1zM44,17h1v1h-1zM45,17h1v1h-1zM46,17h1v1h-1zM47,17h1v1h-1zM48,17h1v1h-1zM53,17h1v1h-1zM54,17h1v1h-1zM55,17h1v1h-1zM56,17h1v1h-1zM57,17h1v1h-1z" fill="#958dc1" opacity="0.11"/>
  <path d="M52,17h1v1h-1z" fill="#8f8fbf" opacity="0.06"/>
  <path d="M58,17h1v1h-1z" fill="#504696" opacity="0.31"/>
  <path d="M59,17h1v1h-1z" fill="#322685" opacity="0.86"/>
  <path d="M63,17h1v1h-1z" fill="#3b318c" opacity="0.47"/>
  <path d="M64,17h1v1h-1zM65,17h1v1h-1zM66,17h1v1h-1zM67,17h1v1h-1zM68,17h1v1h-1z" fill="#5a559f" opacity="0.19"/>
  <path d="M69,17h1v1h-1z" fill="#695aa5" opacity="0.13"/>
  <path d="M76,17h1v1h-1z" fill="#362a88" opacity="0.62"/>
  <path d="M77,17h1v1h-1z" fill="#584f9a" opacity="0.23"/>
  <path d="M78,17h1v1h-1zM79,17h1v1h-1zM80,17h1v1h-1z" fill="#5c519d" opacity="0.18"/>
  <path d="M81,17h1v1h-1z" fill="#534e9c" opacity="0.19"/>
  <path d="M82,17h1v1h-1z" fill="#3e2e8b" opacity="0.26"/>
  <path d="M83,17h1v1h-1zM16,24h1v1h-1z" fill="#382d8a" opacity="0.44"/>
  <path d="M84,17h1v1h-1z" fill="#2d2283" opacity="0.82"/>
  <path d="M88,17h1v1h-1z" fill="#291d81" opacity="0.87"/>
  <path d="M91,17h1v1h-1z" fill="#362a87" opacity="0.26"/>
  <path d="M92,17h1v1h-1z" fill="#2d2183" opacity="0.82"/>
  <path d="M96,17h1v1h-1z" fill="#312584" opacity="0.74"/>
  <path d="M97,17h1v1h-1z" fill="#514996" opacity="0.25"/>
  <path d="M98,17h1v1h-1zM16,31h1v1h-1z" fill="#9999cc" opacity="0.06"/>
  <path d="M102,17h1v1h-1z" fill="#7870af" opacity="0.13"/>
  <path d="M103,17h1v1h-1z" fill="#362a88" opacity="0.48"/>
  <path d="M104,17h1v1h-1z" fill="#291d7f" opacity="0.87"/>
  <path d="M107,17h1v1h-1zM13,30h1v1h-1zM103,32h1v1h-1z" fill="#291c7f" opacity="0.98"/>
  <path d="M108,17h1v1h-1z" fill="#332786" opacity="0.57"/>
  <path d="M109,17h1v1h-1z" fill="#493d92" opacity="0.08"/>
  <path d="M122,17h1v1h-1z" fill="#342a89" opacity="0.21"/>
  <path d="M123,17h1v1h-1z" fill="#2e2383" opacity="0.81"/>
  <path d="M138,17h1v1h-1zM123,22h1v1h-1z" fill="#292083" opacity="1.00"/>
  <path d="M144,17h1v1h-1zM27,26h1v1h-1z" fill="#2c2082" opacity="0.88"/>
  <path d="M145,17h1v1h-1z" fill="#41348d" opacity="0.29"/>
  <path d="M147,17h1v1h-1z" fill="#20b3ff" opacity="0.25"/>
  <path d="M148,17h1v1h-1z" fill="#08abff" opacity="0.73"/>
  <path d="M149,17h1v1h-1zM149,31h1v1h-1z" fill="#01a9ff" opacity="0.98"/>
  <path d="M152,17h1v1h-1z" fill="#09a9ff" opacity="0.76"/>
  <path d="M20,18h1v1h-1z" fill="#3c308b" opacity="0.35"/>
  <path d="M24,18h1v1h-1zM47,28h1v1h-1zM32,32h1v1h-1z" fill="#291d80" opacity="0.95"/>
  <path d="M25,18h1v1h-1z" fill="#3b2f8a" opacity="0.51"/>
  <path d="M26,18h1v1h-1z" fill="#3b2f8b" opacity="0.34"/>
  <path d="M30,18h1v1h-1zM36,19h1v1h-1zM84,22h1v1h-1z" fill="#291d7f" opacity="0.98"/>
  <path d="M31,18h1v1h-1z" fill="#605b9f" opacity="0.18"/>
  <path d="M35,18h1v1h-1z" fill="#2c2081" opacity="0.41"/>
  <path d="M36,18h1v1h-1zM142,21h1v1h-1zM21,22h1v1h-1zM60,31h1v1h-1z" fill="#281c80" opacity="0.96"/>
  <path d="M39,18h1v1h-1zM27,20h1v1h-1z" fill="#322686" opacity="0.81"/>
  <path d="M40,18h1v1h-1zM51,30h1v1h-1z" fill="#8b8bb9" opacity="0.04"/>
  <path d="M58,18h1v1h-1z" fill="#2f2483" opacity="0.27"/>
  <path d="M63,18h1v1h-1z" fill="#625ea1" opacity="0.22"/>
  <path d="M71,18h1v1h-1z" fill="#998cbf" opacity="0.08"/>
  <path d="M72,18h1v1h-1z" fill="#281d80" opacity="0.95"/>
  <path d="M76,18h1v1h-1zM57,27h1v1h-1z" fill="#332886" opacity="0.45"/>
  <path d="M84,18h1v1h-1z" fill="#2e2384" opacity="0.61"/>
  <path d="M88,18h1v1h-1z" fill="#291d81" opacity="0.89"/>
  <path d="M91,18h1v1h-1z" fill="#332786" opacity="0.41"/>
  <path d="M96,18h1v1h-1z" fill="#6158a3" opacity="0.23"/>
  <path d="M104,18h1v1h-1zM19,20h1v1h-1z" fill="#372c89" opacity="0.53"/>
  <path d="M108,18h1v1h-1z" fill="#312685" opacity="0.77"/>
  <path d="M109,18h1v1h-1z" fill="#3c3188" opacity="0.18"/>
  <path d="M122,18h1v1h-1z" fill="#392e8a" opacity="0.37"/>
  <path d="M123,18h1v1h-1zM128,32h1v1h-1z" fill="#281d80" opacity="0.96"/>
  <path d="M136,18h1v1h-1zM134,23h1v1h-1zM136,25h1v1h-1zM133,29h1v1h-1z" fill="#281d80" opacity="1.00"/>
  <path d="M137,18h1v1h-1z" fill="#262f90" opacity="1.00"/>
  <path d="M138,18h1v1h-1z" fill="#1a5cb9" opacity="1.00"/>
  <path d="M139,18h1v1h-1z" fill="#1d51af" opacity="1.00"/>
  <path d="M140,18h1v1h-1zM134,26h1v1h-1z" fill="#26298b" opacity="1.00"/>
  <path d="M144,18h1v1h-1zM96,30h1v1h-1z" fill="#3a2e89" opacity="0.50"/>
  <path d="M145,18h1v1h-1z" fill="#9999cc" opacity="0.04"/>
  <path d="M146,18h1v1h-1z" fill="#23b4ff" opacity="0.17"/>
  <path d="M147,18h1v1h-1z" fill="#09abff" opacity="0.69"/>
  <path d="M148,18h1v1h-1zM146,21h1v1h-1z" fill="#01a9ff" opacity="0.97"/>
  <path d="M152,18h1v1h-1zM141,35h1v1h-1z" fill="#01a9ff" opacity="0.89"/>
  <path d="M153,18h1v1h-1z" fill="#43b5ff" opacity="0.15"/>
  <path d="M19,19h1v1h-1z" fill="#382e8a" opacity="0.20"/>
  <path d="M20,19h1v1h-1z" fill="#2d2283" opacity="0.73"/>
  <path d="M24,19h1v1h-1z" fill="#302384" opacity="0.65"/>
  <path d="M25,19h1v1h-1z" fill="#4c4297" opacity="0.11"/>
  <path d="M26,19h1v1h-1z" fill="#322783" opacity="0.26"/>
  <path d="M27,19h1v1h-1z" fill="#2d2283" opacity="0.90"/>
  <path d="M31,19h1v1h-1z" fill="#57519e" opacity="0.30"/>
  <path d="M35,19h1v1h-1z" fill="#322484" opacity="0.44"/>
  <path d="M39,19h1v1h-1z" fill="#3c328c" opacity="0.75"/>
  <path d="M58,19h1v1h-1z" fill="#3e348d" opacity="0.37"/>
  <path d="M62,19h1v1h-1zM87,22h1v1h-1zM48,24h1v1h-1zM91,24h1v1h-1zM58,25h1v1h-1zM61,25h1v1h-1zM91,29h1v1h-1z" fill="#291c80" opacity="0.95"/>
  <path d="M63,19h1v1h-1zM29,34h1v1h-1z" fill="#61589e" opacity="0.11"/>
  <path d="M71,19h1v1h-1z" fill="#6b66a7" opacity="0.22"/>
  <path d="M76,19h1v1h-1z" fill="#2f2283" opacity="0.38"/>
  <path d="M83,19h1v1h-1zM70,24h1v1h-1z" fill="#9595bf" opacity="0.05"/>
  <path d="M84,19h1v1h-1z" fill="#312684" opacity="0.61"/>
  <path d="M88,19h1v1h-1z" fill="#2e2183" opacity="0.81"/>
  <path d="M90,19h1v1h-1z" fill="#7676b1" opacity="0.05"/>
  <path d="M95,19h1v1h-1z" fill="#2d2182" opacity="0.87"/>
  <path d="M104,19h1v1h-1zM97,30h1v1h-1zM98,30h1v1h-1zM99,30h1v1h-1zM100,30h1v1h-1z" fill="#534999" opacity="0.31"/>
  <path d="M108,19h1v1h-1z" fill="#332886" opacity="0.84"/>
  <path d="M121,19h1v1h-1z" fill="#40308f" opacity="0.06"/>
  <path d="M122,19h1v1h-1z" fill="#342987" opacity="0.54"/>
  <path d="M123,19h1v1h-1z" fill="#262a8c" opacity="1.00"/>
  <path d="M124,19h1v1h-1z" fill="#1f40a0" opacity="1.00"/>
  <path d="M125,19h1v1h-1z" fill="#24399a" opacity="1.00"/>
  <path d="M126,19h1v1h-1z" fill="#282184" opacity="1.00"/>
  <path d="M136,19h1v1h-1zM127,20h1v1h-1zM140,21h1v1h-1zM133,23h1v1h-1z" fill="#282083" opacity="1.00"/>
  <path d="M137,19h1v1h-1z" fill="#1861bd" opacity="1.00"/>
  <path d="M138,19h1v1h-1zM137,21h1v1h-1z" fill="#03a4fb" opacity="1.00"/>
  <path d="M139,19h1v1h-1z" fill="#0b8be4" opacity="1.00"/>
  <path d="M140,19h1v1h-1z" fill="#213c9c" opacity="1.00"/>
  <path d="M143,19h1v1h-1z" fill="#2e2283" opacity="0.86"/>
  <path d="M144,19h1v1h-1z" fill="#46358d" opacity="0.11"/>
  <path d="M145,19h1v1h-1z" fill="#17a2ff" opacity="0.04"/>
  <path d="M146,19h1v1h-1z" fill="#0eacff" opacity="0.44"/>
  <path d="M147,19h1v1h-1zM145,25h1v1h-1z" fill="#01a9ff" opacity="0.95"/>
  <path d="M148,19h1v1h-1zM146,26h1v1h-1z" fill="#0babff" opacity="1.00"/>
  <path d="M149,19h1v1h-1z" fill="#51c2ff" opacity="1.00"/>
  <path d="M150,19h1v1h-1z" fill="#6dcbff" opacity="1.00"/>
  <path d="M151,19h1v1h-1z" fill="#3abaff" opacity="1.00"/>
  <path d="M152,19h1v1h-1zM152,25h1v1h-1z" fill="#01a9ff" opacity="0.96"/>
  <path d="M153,19h1v1h-1z" fill="#1daffc" opacity="0.31"/>
  <path d="M18,20h1v1h-1zM20,26h1v1h-1zM141,32h1v1h-1z" fill="#594d99" opacity="0.08"/>
  <path d="M23,20h1v1h-1z" fill="#2f2384" opacity="0.83"/>
  <path d="M24,20h1v1h-1z" fill="#483b90" opacity="0.15"/>
  <path d="M26,20h1v1h-1z" fill="#3b3189" opacity="0.20"/>
  <path d="M31,20h1v1h-1z" fill="#372e89" opacity="0.42"/>
  <path d="M35,20h1v1h-1z" fill="#312483" opacity="0.39"/>
  <path d="M36,20h1v1h-1z" fill="#2c1f82" opacity="0.94"/>
  <path d="M39,20h1v1h-1zM58,24h1v1h-1z" fill="#2d2182" opacity="0.90"/>
  <path d="M40,20h1v1h-1z" fill="#3c2f8b" opacity="0.32"/>
  <path d="M41,20h1v1h-1z" fill="#8a8ab5" opacity="0.09"/>
  <path d="M58,20h1v1h-1z" fill="#43378e" opacity="0.45"/>
  <path d="M62,20h1v1h-1z" fill="#2d2182" opacity="0.88"/>
  <path d="M63,20h1v1h-1z" fill="#333388" opacity="0.06"/>
  <path d="M71,20h1v1h-1z" fill="#322a88" opacity="0.34"/>
  <path d="M75,20h1v1h-1z" fill="#302585" opacity="0.87"/>
  <path d="M76,20h1v1h-1z" fill="#3d308c" opacity="0.31"/>
  <path d="M83,20h1v1h-1z" fill="#4a4294" opacity="0.12"/>
  <path d="M84,20h1v1h-1z" fill="#2f2384" opacity="0.68"/>
  <path d="M88,20h1v1h-1z" fill="#3d318b" opacity="0.67"/>
  <path d="M90,20h1v1h-1z" fill="#403595" opacity="0.09"/>
  <path d="M91,20h1v1h-1z" fill="#322686" opacity="0.60"/>
  <path d="M95,20h1v1h-1z" fill="#382e8a" opacity="0.77"/>
  <path d="M104,20h1v1h-1z" fill="#322686" opacity="0.40"/>
  <path d="M108,20h1v1h-1zM76,23h1v1h-1z" fill="#342987" opacity="0.82"/>
  <path d="M109,20h1v1h-1z" fill="#42348e" opacity="0.21"/>
  <path d="M121,20h1v1h-1z" fill="#402e89" opacity="0.11"/>
  <path d="M122,20h1v1h-1z" fill="#352a87" opacity="0.72"/>
  <path d="M124,20h1v1h-1z" fill="#146ec9" opacity="1.00"/>
  <path d="M125,20h1v1h-1z" fill="#0d8ae3" opacity="1.00"/>
  <path d="M126,20h1v1h-1z" fill="#1d5cb9" opacity="1.00"/>
  <path d="M136,20h1v1h-1z" fill="#272385" opacity="1.00"/>
  <path d="M137,20h1v1h-1z" fill="#1089e2" opacity="1.00"/>
  <path d="M139,20h1v1h-1z" fill="#0f83dc" opacity="1.00"/>
  <path d="M140,20h1v1h-1z" fill="#253495" opacity="1.00"/>
  <path d="M143,20h1v1h-1z" fill="#372b87" opacity="0.60"/>
  <path d="M145,20h1v1h-1z" fill="#20acff" opacity="0.16"/>
  <path d="M146,20h1v1h-1z" fill="#03a9ff" opacity="0.77"/>
  <path d="M148,20h1v1h-1z" fill="#5cc6ff" opacity="1.00"/>
  <path d="M149,20h1v1h-1z" fill="#d4efff" opacity="1.00"/>
  <path d="M150,20h1v1h-1z" fill="#eaf7ff" opacity="1.00"/>
  <path d="M151,20h1v1h-1z" fill="#ceeeff" opacity="1.00"/>
  <path d="M152,20h1v1h-1z" fill="#18afff" opacity="0.98"/>
  <path d="M153,20h1v1h-1z" fill="#1daefd" opacity="0.52"/>
  <path d="M18,21h1v1h-1zM61,31h1v1h-1z" fill="#3c318c" opacity="0.35"/>
  <path d="M19,21h1v1h-1zM140,31h1v1h-1z" fill="#2b1e80" opacity="0.91"/>
  <path d="M22,21h1v1h-1zM57,31h1v1h-1z" fill="#291d80" opacity="0.93"/>
  <path d="M23,21h1v1h-1z" fill="#494192" opacity="0.25"/>
  <path d="M26,21h1v1h-1zM109,21h1v1h-1z" fill="#382c89" opacity="0.16"/>
  <path d="M27,21h1v1h-1z" fill="#2f2484" opacity="0.73"/>
  <path d="M31,21h1v1h-1z" fill="#352887" opacity="0.55"/>
  <path d="M35,21h1v1h-1zM47,33h1v1h-1z" fill="#382a88" opacity="0.29"/>
  <path d="M36,21h1v1h-1z" fill="#2e2283" opacity="0.85"/>
  <path d="M41,21h1v1h-1z" fill="#2e2282" opacity="0.77"/>
  <path d="M43,21h1v1h-1z" fill="#4a4094" opacity="0.30"/>
  <path d="M44,21h1v1h-1z" fill="#7b7bb0" opacity="0.11"/>
  <path d="M57,21h1v1h-1z" fill="#2d1e87" opacity="0.07"/>
  <path d="M58,21h1v1h-1z" fill="#2a2081" opacity="0.56"/>
  <path d="M62,21h1v1h-1z" fill="#392e8a" opacity="0.75"/>
  <path d="M63,21h1v1h-1zM143,23h1v1h-1zM95,28h1v1h-1z" fill="#2e2e8b" opacity="0.04"/>
  <path d="M71,21h1v1h-1z" fill="#3b318c" opacity="0.49"/>
  <path d="M75,21h1v1h-1z" fill="#2c2181" opacity="0.76"/>
  <path d="M76,21h1v1h-1z" fill="#362784" opacity="0.20"/>
  <path d="M84,21h1v1h-1z" fill="#2f2483" opacity="0.78"/>
  <path d="M88,21h1v1h-1zM23,27h1v1h-1z" fill="#342986" opacity="0.44"/>
  <path d="M90,21h1v1h-1zM121,28h1v1h-1z" fill="#302887" opacity="0.13"/>
  <path d="M91,21h1v1h-1z" fill="#2c2082" opacity="0.66"/>
  <path d="M95,21h1v1h-1z" fill="#3c318d" opacity="0.61"/>
  <path d="M104,21h1v1h-1z" fill="#332886" opacity="0.51"/>
  <path d="M108,21h1v1h-1z" fill="#302384" opacity="0.73"/>
  <path d="M121,21h1v1h-1z" fill="#393287" opacity="0.14"/>
  <path d="M122,21h1v1h-1z" fill="#352a88" opacity="0.83"/>
  <path d="M123,21h1v1h-1z" fill="#233b9c" opacity="1.00"/>
  <path d="M124,21h1v1h-1z" fill="#0e89e2" opacity="1.00"/>
  <path d="M126,21h1v1h-1z" fill="#059ff6" opacity="1.00"/>
  <path d="M127,21h1v1h-1z" fill="#1e56b4" opacity="1.00"/>
  <path d="M136,21h1v1h-1z" fill="#262587" opacity="1.00"/>
  <path d="M138,21h1v1h-1z" fill="#03a5fb" opacity="1.00"/>
  <path d="M139,21h1v1h-1z" fill="#1668c4" opacity="1.00"/>
  <path d="M143,21h1v1h-1z" fill="#60599f" opacity="0.27"/>
  <path d="M145,21h1v1h-1z" fill="#16aeff" opacity="0.36"/>
  <path d="M147,21h1v1h-1z" fill="#23b3ff" opacity="1.00"/>
  <path d="M148,21h1v1h-1z" fill="#aee2ff" opacity="1.00"/>
  <path d="M152,21h1v1h-1z" fill="#3bb9ff" opacity="0.98"/>
  <path d="M153,21h1v1h-1z" fill="#1dafff" opacity="0.58"/>
  <path d="M17,22h1v1h-1z" fill="#534a98" opacity="0.20"/>
  <path d="M18,22h1v1h-1z" fill="#302484" opacity="0.82"/>
  <path d="M22,22h1v1h-1z" fill="#483b91" opacity="0.47"/>
  <path d="M26,22h1v1h-1z" fill="#3b3193" opacity="0.10"/>
  <path d="M27,22h1v1h-1z" fill="#2f2385" opacity="0.62"/>
  <path d="M31,22h1v1h-1z" fill="#3d328c" opacity="0.74"/>
  <path d="M36,22h1v1h-1z" fill="#382e8a" opacity="0.48"/>
  <path d="M37,22h1v1h-1zM23,28h1v1h-1z" fill="#2b1f81" opacity="0.93"/>
  <path d="M44,22h1v1h-1zM122,27h1v1h-1zM105,31h1v1h-1z" fill="#281d7f" opacity="0.94"/>
  <path d="M45,22h1v1h-1z" fill="#3a2f8a" opacity="0.70"/>
  <path d="M46,22h1v1h-1z" fill="#463b93" opacity="0.34"/>
  <path d="M57,22h1v1h-1z" fill="#3b3189" opacity="0.10"/>
  <path d="M58,22h1v1h-1z" fill="#342a87" opacity="0.69"/>
  <path d="M62,22h1v1h-1z" fill="#2d2282" opacity="0.53"/>
  <path d="M71,22h1v1h-1z" fill="#40348d" opacity="0.67"/>
  <path d="M75,22h1v1h-1z" fill="#2d2182" opacity="0.71"/>
  <path d="M76,22h1v1h-1z" fill="#3e308a" opacity="0.15"/>
  <path d="M82,22h1v1h-1z" fill="#5a4c9f" opacity="0.15"/>
  <path d="M83,22h1v1h-1z" fill="#362b87" opacity="0.65"/>
  <path d="M88,22h1v1h-1zM20,30h1v1h-1zM21,30h1v1h-1zM22,30h1v1h-1zM23,30h1v1h-1zM24,30h1v1h-1zM25,30h1v1h-1zM26,30h1v1h-1z" fill="#938cbf" opacity="0.16"/>
  <path d="M90,22h1v1h-1z" fill="#433590" opacity="0.21"/>
  <path d="M91,22h1v1h-1z" fill="#352a88" opacity="0.81"/>
  <path d="M95,22h1v1h-1z" fill="#271c7e" opacity="0.44"/>
  <path d="M104,22h1v1h-1zM39,30h1v1h-1zM40,30h1v1h-1zM41,30h1v1h-1zM42,30h1v1h-1zM43,30h1v1h-1z" fill="#40368f" opacity="0.69"/>
  <path d="M108,22h1v1h-1z" fill="#271b80" opacity="0.66"/>
  <path d="M109,22h1v1h-1z" fill="#29197b" opacity="0.12"/>
  <path d="M121,22h1v1h-1z" fill="#241880" opacity="0.16"/>
  <path d="M122,22h1v1h-1z" fill="#291c80" opacity="0.93"/>
  <path d="M124,22h1v1h-1z" fill="#283192" opacity="1.00"/>
  <path d="M125,22h1v1h-1z" fill="#2743a3" opacity="1.00"/>
  <path d="M126,22h1v1h-1z" fill="#185dba" opacity="1.00"/>
  <path d="M127,22h1v1h-1z" fill="#1c72cd" opacity="1.00"/>
  <path d="M136,22h1v1h-1z" fill="#2541a1" opacity="1.00"/>
  <path d="M138,22h1v1h-1z" fill="#06a0f7" opacity="1.00"/>
  <path d="M139,22h1v1h-1z" fill="#1c5cb9" opacity="1.00"/>
  <path d="M142,22h1v1h-1zM104,24h1v1h-1z" fill="#281c80" opacity="0.91"/>
  <path d="M143,22h1v1h-1z" fill="#241280" opacity="0.05"/>
  <path d="M145,22h1v1h-1z" fill="#13acfd" opacity="0.58"/>
  <path d="M147,22h1v1h-1z" fill="#62c8ff" opacity="1.00"/>
  <path d="M148,22h1v1h-1z" fill="#f0f9ff" opacity="1.00"/>
  <path d="M152,22h1v1h-1z" fill="#5cc6ff" opacity="0.98"/>
  <path d="M153,22h1v1h-1z" fill="#00a9ff" opacity="0.65"/>
  <path d="M16,23h1v1h-1z" fill="#3c2d87" opacity="0.07"/>
  <path d="M17,23h1v1h-1z" fill="#332685" opacity="0.62"/>
  <path d="M20,23h1v1h-1z" fill="#291e80" opacity="0.98"/>
  <path d="M21,23h1v1h-1zM26,26h1v1h-1z" fill="#312485" opacity="0.63"/>
  <path d="M22,23h1v1h-1z" fill="#3a2e8b" opacity="0.09"/>
  <path d="M26,23h1v1h-1z" fill="#5959a6" opacity="0.08"/>
  <path d="M27,23h1v1h-1z" fill="#352b88" opacity="0.58"/>
  <path d="M31,23h1v1h-1z" fill="#302485" opacity="0.86"/>
  <path d="M36,23h1v1h-1z" fill="#5a4b96" opacity="0.07"/>
  <path d="M37,23h1v1h-1z" fill="#382c88" opacity="0.48"/>
  <path d="M38,23h1v1h-1z" fill="#2c1e81" opacity="0.82"/>
  <path d="M39,23h1v1h-1zM47,27h1v1h-1z" fill="#2a1d81" opacity="0.96"/>
  <path d="M46,23h1v1h-1zM31,24h1v1h-1zM28,25h1v1h-1z" fill="#291c80" opacity="0.96"/>
  <path d="M48,23h1v1h-1z" fill="#4b4195" opacity="0.42"/>
  <path d="M49,23h1v1h-1z" fill="#362886" opacity="0.07"/>
  <path d="M57,23h1v1h-1z" fill="#40308f" opacity="0.13"/>
  <path d="M62,23h1v1h-1z" fill="#382a88" opacity="0.45"/>
  <path d="M71,23h1v1h-1z" fill="#302585" opacity="0.79"/>
  <path d="M75,23h1v1h-1z" fill="#2c2082" opacity="0.93"/>
  <path d="M77,23h1v1h-1zM78,23h1v1h-1zM79,23h1v1h-1z" fill="#392d89" opacity="0.80"/>
  <path d="M80,23h1v1h-1z" fill="#382d88" opacity="0.80"/>
  <path d="M81,23h1v1h-1z" fill="#2e2383" opacity="0.86"/>
  <path d="M82,23h1v1h-1z" fill="#291d80" opacity="0.94"/>
  <path d="M86,23h1v1h-1z" fill="#291e81" opacity="0.97"/>
  <path d="M87,23h1v1h-1z" fill="#352b87" opacity="0.51"/>
  <path d="M90,23h1v1h-1z" fill="#3d308a" opacity="0.23"/>
  <path d="M91,23h1v1h-1z" fill="#322785" opacity="0.85"/>
  <path d="M95,23h1v1h-1z" fill="#564c9c" opacity="0.30"/>
  <path d="M104,23h1v1h-1z" fill="#372d89" opacity="0.80"/>
  <path d="M108,23h1v1h-1z" fill="#392f88" opacity="0.56"/>
  <path d="M109,23h1v1h-1z" fill="#6969a5" opacity="0.07"/>
  <path d="M121,23h1v1h-1z" fill="#443b92" opacity="0.22"/>
  <path d="M122,23h1v1h-1zM17,24h1v1h-1zM104,25h1v1h-1zM141,29h1v1h-1z" fill="#281c7f" opacity="0.97"/>
  <path d="M128,23h1v1h-1zM128,28h1v1h-1z" fill="#281e81" opacity="1.00"/>
  <path d="M129,23h1v1h-1zM130,23h1v1h-1zM131,23h1v1h-1zM132,23h1v1h-1zM129,29h1v1h-1z" fill="#282284" opacity="1.00"/>
  <path d="M136,23h1v1h-1z" fill="#244bab" opacity="1.00"/>
  <path d="M138,23h1v1h-1z" fill="#079bf2" opacity="1.00"/>
  <path d="M139,23h1v1h-1z" fill="#1d52b0" opacity="1.00"/>
  <path d="M142,23h1v1h-1z" fill="#3a2e8a" opacity="0.76"/>
  <path d="M144,23h1v1h-1z" fill="#1ab3ff" opacity="0.04"/>
  <path d="M145,23h1v1h-1z" fill="#12adff" opacity="0.74"/>
  <path d="M146,23h1v1h-1zM146,24h1v1h-1zM146,25h1v1h-1z" fill="#15aeff" opacity="1.00"/>
  <path d="M147,23h1v1h-1zM147,24h1v1h-1zM147,25h1v1h-1z" fill="#94d8ff" opacity="1.00"/>
  <path d="M152,23h1v1h-1z" fill="#41bbff" opacity="0.98"/>
  <path d="M153,23h1v1h-1z" fill="#1cafff" opacity="0.57"/>
  <path d="M20,24h1v1h-1z" fill="#2f2383" opacity="0.76"/>
  <path d="M21,24h1v1h-1z" fill="#483f94" opacity="0.22"/>
  <path d="M27,24h1v1h-1z" fill="#352888" opacity="0.47"/>
  <path d="M32,24h1v1h-1z" fill="#b6b6c8" opacity="0.05"/>
  <path d="M38,24h1v1h-1z" fill="#473b8e" opacity="0.17"/>
  <path d="M39,24h1v1h-1z" fill="#352887" opacity="0.53"/>
  <path d="M40,24h1v1h-1zM124,31h1v1h-1z" fill="#2d2082" opacity="0.74"/>
  <path d="M41,24h1v1h-1z" fill="#2c1f81" opacity="0.85"/>
  <path d="M42,24h1v1h-1z" fill="#2d2183" opacity="0.92"/>
  <path d="M43,24h1v1h-1zM49,25h1v1h-1zM17,27h1v1h-1z" fill="#291e80" opacity="0.97"/>
  <path d="M49,24h1v1h-1zM75,26h1v1h-1z" fill="#322786" opacity="0.69"/>
  <path d="M50,24h1v1h-1z" fill="#4d4194" opacity="0.17"/>
  <path d="M57,24h1v1h-1z" fill="#312486" opacity="0.16"/>
  <path d="M62,24h1v1h-1z" fill="#4c4395" opacity="0.34"/>
  <path d="M71,24h1v1h-1z" fill="#2a1d80" opacity="0.87"/>
  <path d="M85,24h1v1h-1zM18,26h1v1h-1z" fill="#2a1d80" opacity="0.94"/>
  <path d="M86,24h1v1h-1z" fill="#342786" opacity="0.64"/>
  <path d="M87,24h1v1h-1zM95,34h1v1h-1z" fill="#6f6fb1" opacity="0.09"/>
  <path d="M90,24h1v1h-1z" fill="#2e2184" opacity="0.30"/>
  <path d="M95,24h1v1h-1z" fill="#7267a8" opacity="0.18"/>
  <path d="M108,24h1v1h-1z" fill="#382e89" opacity="0.50"/>
  <path d="M109,24h1v1h-1z" fill="#9980b3" opacity="0.04"/>
  <path d="M121,24h1v1h-1z" fill="#504696" opacity="0.29"/>
  <path d="M128,24h1v1h-1z" fill="#233b9b" opacity="1.00"/>
  <path d="M129,24h1v1h-1zM130,24h1v1h-1zM131,24h1v1h-1zM132,24h1v1h-1z" fill="#1d5fbd" opacity="1.00"/>
  <path d="M133,24h1v1h-1z" fill="#214fae" opacity="1.00"/>
  <path d="M134,24h1v1h-1z" fill="#272587" opacity="1.00"/>
  <path d="M136,24h1v1h-1z" fill="#263899" opacity="1.00"/>
  <path d="M137,24h1v1h-1z" fill="#0a8be4" opacity="1.00"/>
  <path d="M138,24h1v1h-1z" fill="#1179d3" opacity="1.00"/>
  <path d="M139,24h1v1h-1z" fill="#243898" opacity="1.00"/>
  <path d="M142,24h1v1h-1z" fill="#352b88" opacity="0.65"/>
  <path d="M144,24h1v1h-1z" fill="#209fef" opacity="0.06"/>
  <path d="M145,24h1v1h-1zM149,32h1v1h-1z" fill="#01a9ff" opacity="0.86"/>
  <path d="M152,24h1v1h-1z" fill="#31b6ff" opacity="0.97"/>
  <path d="M153,24h1v1h-1z" fill="#1cafff" opacity="0.50"/>
  <path d="M15,25h1v1h-1z" fill="#3c358e" opacity="0.28"/>
  <path d="M16,25h1v1h-1z" fill="#2e2182" opacity="0.87"/>
  <path d="M20,25h1v1h-1z" fill="#3a2d8a" opacity="0.38"/>
  <path d="M26,25h1v1h-1zM34,30h1v1h-1z" fill="#4c4490" opacity="0.12"/>
  <path d="M27,25h1v1h-1z" fill="#2f2382" opacity="0.54"/>
  <path d="M32,25h1v1h-1z" fill="#796cb3" opacity="0.16"/>
  <path d="M40,25h1v1h-1z" fill="#8686bc" opacity="0.07"/>
  <path d="M41,25h1v1h-1z" fill="#3e318c" opacity="0.24"/>
  <path d="M42,25h1v1h-1z" fill="#3d338c" opacity="0.43"/>
  <path d="M43,25h1v1h-1z" fill="#322685" opacity="0.58"/>
  <path d="M44,25h1v1h-1zM49,31h1v1h-1z" fill="#2f2384" opacity="0.74"/>
  <path d="M45,25h1v1h-1z" fill="#2c2181" opacity="0.88"/>
  <path d="M46,25h1v1h-1z" fill="#2a1d80" opacity="0.98"/>
  <path d="M50,25h1v1h-1z" fill="#332685" opacity="0.61"/>
  <path d="M57,25h1v1h-1z" fill="#443b90" opacity="0.24"/>
  <path d="M62,25h1v1h-1z" fill="#42398d" opacity="0.23"/>
  <path d="M70,25h1v1h-1z" fill="#7771ac" opacity="0.17"/>
  <path d="M84,25h1v1h-1zM14,32h1v1h-1z" fill="#2b1f81" opacity="0.84"/>
  <path d="M85,25h1v1h-1z" fill="#2d2282" opacity="0.51"/>
  <path d="M86,25h1v1h-1z" fill="#4c4499" opacity="0.12"/>
  <path d="M90,25h1v1h-1z" fill="#43368e" opacity="0.39"/>
  <path d="M94,25h1v1h-1z" fill="#2a1f81" opacity="0.90"/>
  <path d="M95,25h1v1h-1z" fill="#3c3c96" opacity="0.07"/>
  <path d="M103,25h1v1h-1z" fill="#9990c3" opacity="0.12"/>
  <path d="M108,25h1v1h-1z" fill="#2e2183" opacity="0.39"/>
  <path d="M121,25h1v1h-1z" fill="#534998" opacity="0.30"/>
  <path d="M128,25h1v1h-1z" fill="#176cc8" opacity="1.00"/>
  <path d="M133,25h1v1h-1z" fill="#0d90e8" opacity="1.00"/>
  <path d="M134,25h1v1h-1z" fill="#243091" opacity="1.00"/>
  <path d="M137,25h1v1h-1z" fill="#282b8c" opacity="1.00"/>
  <path d="M138,25h1v1h-1z" fill="#28298b" opacity="1.00"/>
  <path d="M142,25h1v1h-1z" fill="#2f2285" opacity="0.56"/>
  <path d="M144,25h1v1h-1z" fill="#4eb1eb" opacity="0.10"/>
  <path d="M151,25h1v1h-1z" fill="#caebff" opacity="1.00"/>
  <path d="M153,25h1v1h-1z" fill="#1faffc" opacity="0.33"/>
  <path d="M14,26h1v1h-1z" fill="#574a9a" opacity="0.15"/>
  <path d="M15,26h1v1h-1z" fill="#2b1f81" opacity="0.77"/>
  <path d="M19,26h1v1h-1z" fill="#312585" opacity="0.53"/>
  <path d="M24,26h1v1h-1z" fill="#60559f" opacity="0.09"/>
  <path d="M25,26h1v1h-1z" fill="#362b8a" opacity="0.35"/>
  <path d="M32,26h1v1h-1z" fill="#3c328e" opacity="0.32"/>
  <path d="M44,26h1v1h-1z" fill="#4b4091" opacity="0.17"/>
  <path d="M45,26h1v1h-1z" fill="#392a88" opacity="0.35"/>
  <path d="M46,26h1v1h-1z" fill="#2e2282" opacity="0.70"/>
  <path d="M51,26h1v1h-1z" fill="#463890" opacity="0.22"/>
  <path d="M57,26h1v1h-1z" fill="#514697" opacity="0.35"/>
  <path d="M61,26h1v1h-1z" fill="#2e2384" opacity="0.89"/>
  <path d="M62,26h1v1h-1z" fill="#2d2686" opacity="0.16"/>
  <path d="M70,26h1v1h-1zM18,28h1v1h-1z" fill="#3e338e" opacity="0.27"/>
  <path d="M71,26h1v1h-1z" fill="#291d81" opacity="0.96"/>
  <path d="M74,26h1v1h-1z" fill="#2b2082" opacity="0.95"/>
  <path d="M76,26h1v1h-1zM77,26h1v1h-1zM78,26h1v1h-1z" fill="#302484" opacity="0.52"/>
  <path d="M79,26h1v1h-1z" fill="#332887" opacity="0.55"/>
  <path d="M80,26h1v1h-1z" fill="#2c2182" opacity="0.92"/>
  <path d="M84,26h1v1h-1z" fill="#332887" opacity="0.62"/>
  <path d="M85,26h1v1h-1z" fill="#453b93" opacity="0.10"/>
  <path d="M89,26h1v1h-1z" fill="#6666b3" opacity="0.04"/>
  <path d="M90,26h1v1h-1z" fill="#41368f" opacity="0.46"/>
  <path d="M94,26h1v1h-1z" fill="#332887" opacity="0.82"/>
  <path d="M103,26h1v1h-1z" fill="#59519d" opacity="0.24"/>
  <path d="M107,26h1v1h-1z" fill="#2f2383" opacity="0.89"/>
  <path d="M108,26h1v1h-1z" fill="#3a2e89" opacity="0.33"/>
  <path d="M121,26h1v1h-1z" fill="#4a3e90" opacity="0.24"/>
  <path d="M128,26h1v1h-1z" fill="#2143a3" opacity="1.00"/>
  <path d="M133,26h1v1h-1z" fill="#1476d1" opacity="1.00"/>
  <path d="M142,26h1v1h-1z" fill="#271b80" opacity="0.51"/>
  <path d="M144,26h1v1h-1z" fill="#57bdf8" opacity="0.14"/>
  <path d="M147,26h1v1h-1z" fill="#7bd0ff" opacity="1.00"/>
  <path d="M151,26h1v1h-1z" fill="#69caff" opacity="1.00"/>
  <path d="M152,26h1v1h-1z" fill="#01a9ff" opacity="0.90"/>
  <path d="M153,26h1v1h-1z" fill="#42b6f8" opacity="0.14"/>
  <path d="M14,27h1v1h-1z" fill="#342886" opacity="0.58"/>
  <path d="M15,27h1v1h-1z" fill="#291d80" opacity="0.96"/>
  <path d="M18,27h1v1h-1z" fill="#322684" opacity="0.67"/>
  <path d="M19,27h1v1h-1z" fill="#3b358e" opacity="0.17"/>
  <path d="M22,27h1v1h-1zM139,33h1v1h-1z" fill="#40348b" opacity="0.17"/>
  <path d="M24,27h1v1h-1z" fill="#2f2383" opacity="0.66"/>
  <path d="M32,27h1v1h-1z" fill="#332585" opacity="0.43"/>
  <path d="M46,27h1v1h-1z" fill="#4b4493" opacity="0.28"/>
  <path d="M50,27h1v1h-1z" fill="#2b2081" opacity="0.85"/>
  <path d="M51,27h1v1h-1z" fill="#362c88" opacity="0.29"/>
  <path d="M61,27h1v1h-1z" fill="#372c88" opacity="0.80"/>
  <path d="M62,27h1v1h-1z" fill="#3e368b" opacity="0.13"/>
  <path d="M70,27h1v1h-1z" fill="#362d88" opacity="0.40"/>
  <path d="M75,27h1v1h-1z" fill="#3d338b" opacity="0.29"/>
  <path d="M80,27h1v1h-1z" fill="#382c89" opacity="0.57"/>
  <path d="M84,27h1v1h-1z" fill="#2f2383" opacity="0.81"/>
  <path d="M85,27h1v1h-1z" fill="#382e8b" opacity="0.22"/>
  <path d="M89,27h1v1h-1z" fill="#30208f" opacity="0.06"/>
  <path d="M90,27h1v1h-1z" fill="#2f2284" opacity="0.55"/>
  <path d="M94,27h1v1h-1z" fill="#3b318b" opacity="0.74"/>
  <path d="M95,27h1v1h-1z" fill="#333399" opacity="0.04"/>
  <path d="M103,27h1v1h-1z" fill="#342986" opacity="0.36"/>
  <path d="M107,27h1v1h-1z" fill="#312484" opacity="0.82"/>
  <path d="M108,27h1v1h-1z" fill="#3e368f" opacity="0.26"/>
  <path d="M121,27h1v1h-1z" fill="#312688" opacity="0.18"/>
  <path d="M128,27h1v1h-1z" fill="#272689" opacity="1.00"/>
  <path d="M129,27h1v1h-1z" fill="#0a90e8" opacity="1.00"/>
  <path d="M133,27h1v1h-1z" fill="#1d50af" opacity="1.00"/>
  <path d="M142,27h1v1h-1z" fill="#382d8b" opacity="0.45"/>
  <path d="M144,27h1v1h-1z" fill="#5dc5ff" opacity="0.17"/>
  <path d="M147,27h1v1h-1z" fill="#25b4ff" opacity="1.00"/>
  <path d="M148,27h1v1h-1z" fill="#88d5ff" opacity="1.00"/>
  <path d="M149,27h1v1h-1z" fill="#afe3ff" opacity="1.00"/>
  <path d="M150,27h1v1h-1z" fill="#75ceff" opacity="1.00"/>
  <path d="M151,27h1v1h-1zM148,28h1v1h-1z" fill="#13aeff" opacity="1.00"/>
  <path d="M152,27h1v1h-1z" fill="#07aaff" opacity="0.73"/>
  <path d="M13,28h1v1h-1z" fill="#3a2d88" opacity="0.40"/>
  <path d="M14,28h1v1h-1z" fill="#2a1e81" opacity="0.90"/>
  <path d="M17,28h1v1h-1z" fill="#2a1e81" opacity="0.85"/>
  <path d="M20,28h1v1h-1z" fill="#4d4099" opacity="0.16"/>
  <path d="M21,28h1v1h-1z" fill="#362a89" opacity="0.52"/>
  <path d="M22,28h1v1h-1z" fill="#2c1f81" opacity="0.80"/>
  <path d="M32,28h1v1h-1z" fill="#3d328c" opacity="0.62"/>
  <path d="M46,28h1v1h-1z" fill="#4f4694" opacity="0.22"/>
  <path d="M50,28h1v1h-1z" fill="#2a1e80" opacity="0.83"/>
  <path d="M51,28h1v1h-1z" fill="#332785" opacity="0.25"/>
  <path d="M57,28h1v1h-1z" fill="#352987" opacity="0.61"/>
  <path d="M61,28h1v1h-1z" fill="#302484" opacity="0.64"/>
  <path d="M62,28h1v1h-1z" fill="#372c85" opacity="0.09"/>
  <path d="M70,28h1v1h-1z" fill="#40358e" opacity="0.55"/>
  <path d="M74,28h1v1h-1z" fill="#2b1f81" opacity="0.80"/>
  <path d="M75,28h1v1h-1z" fill="#372d8c" opacity="0.20"/>
  <path d="M80,28h1v1h-1z" fill="#483b96" opacity="0.15"/>
  <path d="M81,28h1v1h-1z" fill="#2d2183" opacity="0.90"/>
  <path d="M84,28h1v1h-1z" fill="#2a1e80" opacity="0.98"/>
  <path d="M85,28h1v1h-1z" fill="#352b88" opacity="0.49"/>
  <path d="M86,28h1v1h-1z" fill="#3b3b89" opacity="0.05"/>
  <path d="M89,28h1v1h-1zM81,31h1v1h-1z" fill="#493792" opacity="0.05"/>
  <path d="M90,28h1v1h-1z" fill="#362c88" opacity="0.52"/>
  <path d="M94,28h1v1h-1z" fill="#3a308b" opacity="0.76"/>
  <path d="M103,28h1v1h-1z" fill="#40358e" opacity="0.56"/>
  <path d="M107,28h1v1h-1z" fill="#2a1f81" opacity="0.75"/>
  <path d="M108,28h1v1h-1z" fill="#2f1f82" opacity="0.19"/>
  <path d="M129,28h1v1h-1z" fill="#1e4cab" opacity="1.00"/>
  <path d="M130,28h1v1h-1z" fill="#05a1f8" opacity="1.00"/>
  <path d="M132,28h1v1h-1z" fill="#1570cb" opacity="1.00"/>
  <path d="M133,28h1v1h-1z" fill="#262b8d" opacity="1.00"/>
  <path d="M142,28h1v1h-1z" fill="#4a4095" opacity="0.38"/>
  <path d="M144,28h1v1h-1z" fill="#4bbcff" opacity="0.24"/>
  <path d="M149,28h1v1h-1z" fill="#20b3ff" opacity="1.00"/>
  <path d="M150,28h1v1h-1z" fill="#0dacff" opacity="1.00"/>
  <path d="M152,28h1v1h-1z" fill="#13aeff" opacity="0.42"/>
  <path d="M12,29h1v1h-1z" fill="#524395" opacity="0.21"/>
  <path d="M14,29h1v1h-1zM92,30h1v1h-1z" fill="#281d80" opacity="0.99"/>
  <path d="M16,29h1v1h-1z" fill="#291d7f" opacity="0.93"/>
  <path d="M17,29h1v1h-1z" fill="#453990" opacity="0.40"/>
  <path d="M18,29h1v1h-1zM140,33h1v1h-1z" fill="#745da2" opacity="0.04"/>
  <path d="M19,29h1v1h-1z" fill="#41358f" opacity="0.32"/>
  <path d="M20,29h1v1h-1z" fill="#2e2283" opacity="0.80"/>
  <path d="M21,29h1v1h-1zM137,32h1v1h-1z" fill="#2a1d80" opacity="0.96"/>
  <path d="M32,29h1v1h-1z" fill="#322785" opacity="0.77"/>
  <path d="M46,29h1v1h-1z" fill="#382c88" opacity="0.57"/>
  <path d="M50,29h1v1h-1z" fill="#2c2081" opacity="0.78"/>
  <path d="M51,29h1v1h-1z" fill="#41358e" opacity="0.17"/>
  <path d="M56,29h1v1h-1z" fill="#333380" opacity="0.04"/>
  <path d="M57,29h1v1h-1z" fill="#3c318b" opacity="0.72"/>
  <path d="M61,29h1v1h-1z" fill="#312485" opacity="0.55"/>
  <path d="M62,29h1v1h-1z" fill="#30308f" opacity="0.06"/>
  <path d="M70,29h1v1h-1zM133,33h1v1h-1z" fill="#332786" opacity="0.67"/>
  <path d="M71,29h1v1h-1z" fill="#291d80" opacity="0.99"/>
  <path d="M74,29h1v1h-1z" fill="#2e2383" opacity="0.76"/>
  <path d="M75,29h1v1h-1z" fill="#6262a5" opacity="0.13"/>
  <path d="M81,29h1v1h-1z" fill="#392e8b" opacity="0.53"/>
  <path d="M85,29h1v1h-1z" fill="#2f2383" opacity="0.85"/>
  <path d="M86,29h1v1h-1z" fill="#3e328f" opacity="0.16"/>
  <path d="M90,29h1v1h-1z" fill="#322586" opacity="0.32"/>
  <path d="M95,29h1v1h-1z" fill="#3e368b" opacity="0.26"/>
  <path d="M102,29h1v1h-1z" fill="#392d86" opacity="0.16"/>
  <path d="M103,29h1v1h-1z" fill="#2b1f81" opacity="0.87"/>
  <path d="M107,29h1v1h-1z" fill="#332885" opacity="0.62"/>
  <path d="M121,29h1v1h-1zM91,32h1v1h-1z" fill="#4d4d99" opacity="0.04"/>
  <path d="M122,29h1v1h-1z" fill="#3a2d88" opacity="0.45"/>
  <path d="M130,29h1v1h-1z" fill="#243a9a" opacity="1.00"/>
  <path d="M131,29h1v1h-1z" fill="#243f9f" opacity="1.00"/>
  <path d="M132,29h1v1h-1z" fill="#27288a" opacity="1.00"/>
  <path d="M142,29h1v1h-1z" fill="#4c4295" opacity="0.27"/>
  <path d="M144,29h1v1h-1z" fill="#06a9ff" opacity="0.34"/>
  <path d="M151,29h1v1h-1z" fill="#01a9ff" opacity="0.84"/>
  <path d="M152,29h1v1h-1z" fill="#59bcff" opacity="0.09"/>
  <path d="M11,30h1v1h-1z" fill="#423a92" opacity="0.14"/>
  <path d="M12,30h1v1h-1z" fill="#2e2282" opacity="0.67"/>
  <path d="M15,30h1v1h-1z" fill="#291d81" opacity="0.99"/>
  <path d="M16,30h1v1h-1z" fill="#352a86" opacity="0.65"/>
  <path d="M19,30h1v1h-1z" fill="#9292bf" opacity="0.11"/>
  <path d="M27,30h1v1h-1z" fill="#8980b8" opacity="0.21"/>
  <path d="M28,30h1v1h-1z" fill="#372d89" opacity="0.69"/>
  <path d="M32,30h1v1h-1z" fill="#291c80" opacity="0.85"/>
  <path d="M35,30h1v1h-1z" fill="#42378f" opacity="0.56"/>
  <path d="M36,30h1v1h-1z" fill="#3a2f8b" opacity="0.79"/>
  <path d="M37,30h1v1h-1z" fill="#3c318b" opacity="0.75"/>
  <path d="M38,30h1v1h-1z" fill="#3f358f" opacity="0.69"/>
  <path d="M44,30h1v1h-1z" fill="#372c89" opacity="0.78"/>
  <path d="M45,30h1v1h-1z" fill="#2c1f81" opacity="0.92"/>
  <path d="M50,30h1v1h-1z" fill="#2d2284" opacity="0.62"/>
  <path d="M56,30h1v1h-1z" fill="#272789" opacity="0.05"/>
  <path d="M57,30h1v1h-1z" fill="#2f2484" opacity="0.87"/>
  <path d="M61,30h1v1h-1z" fill="#3f368e" opacity="0.46"/>
  <path d="M62,30h1v1h-1z" fill="#666699" opacity="0.04"/>
  <path d="M70,30h1v1h-1z" fill="#2a1e81" opacity="0.74"/>
  <path d="M74,30h1v1h-1z" fill="#2e2283" opacity="0.68"/>
  <path d="M75,30h1v1h-1z" fill="#9292c8" opacity="0.05"/>
  <path d="M81,30h1v1h-1z" fill="#3b2f8e" opacity="0.17"/>
  <path d="M86,30h1v1h-1z" fill="#3a2e8b" opacity="0.50"/>
  <path d="M90,30h1v1h-1z" fill="#372c8b" opacity="0.18"/>
  <path d="M91,30h1v1h-1z" fill="#312584" opacity="0.76"/>
  <path d="M101,30h1v1h-1z" fill="#382c88" opacity="0.41"/>
  <path d="M102,30h1v1h-1z" fill="#291d80" opacity="0.82"/>
  <path d="M106,30h1v1h-1z" fill="#2b1f81" opacity="0.90"/>
  <path d="M107,30h1v1h-1z" fill="#342986" opacity="0.39"/>
  <path d="M122,30h1v1h-1z" fill="#493a92" opacity="0.14"/>
  <path d="M123,30h1v1h-1z" fill="#342886" opacity="0.68"/>
  <path d="M141,30h1v1h-1z" fill="#302484" opacity="0.80"/>
  <path d="M142,30h1v1h-1z" fill="#362783" opacity="0.13"/>
  <path d="M144,30h1v1h-1z" fill="#1bb1ff" opacity="0.56"/>
  <path d="M150,30h1v1h-1z" fill="#01a9ff" opacity="0.99"/>
  <path d="M151,30h1v1h-1z" fill="#15aeff" opacity="0.38"/>
  <path d="M10,31h1v1h-1z" fill="#555595" opacity="0.05"/>
  <path d="M11,31h1v1h-1z" fill="#3a2f8c" opacity="0.43"/>
  <path d="M12,31h1v1h-1z" fill="#2c2082" opacity="0.90"/>
  <path d="M14,31h1v1h-1z" fill="#281c7f" opacity="0.99"/>
  <path d="M15,31h1v1h-1z" fill="#322886" opacity="0.75"/>
  <path d="M28,31h1v1h-1z" fill="#2e2182" opacity="0.57"/>
  <path d="M32,31h1v1h-1zM94,32h1v1h-1z" fill="#291e80" opacity="0.95"/>
  <path d="M33,31h1v1h-1z" fill="#8980b6" opacity="0.11"/>
  <path d="M34,31h1v1h-1z" fill="#3d338f" opacity="0.10"/>
  <path d="M35,31h1v1h-1z" fill="#302484" opacity="0.62"/>
  <path d="M56,31h1v1h-1z" fill="#584e9d" opacity="0.10"/>
  <path d="M69,31h1v1h-1z" fill="#837cb2" opacity="0.13"/>
  <path d="M70,31h1v1h-1z" fill="#2d2182" opacity="0.85"/>
  <path d="M73,31h1v1h-1z" fill="#291d81" opacity="0.97"/>
  <path d="M74,31h1v1h-1z" fill="#2c2082" opacity="0.59"/>
  <path d="M82,31h1v1h-1z" fill="#352b88" opacity="0.51"/>
  <path d="M86,31h1v1h-1z" fill="#2e2283" opacity="0.89"/>
  <path d="M87,31h1v1h-1z" fill="#4b3c96" opacity="0.13"/>
  <path d="M91,31h1v1h-1z" fill="#3d348d" opacity="0.33"/>
  <path d="M92,31h1v1h-1z" fill="#2e2282" opacity="0.83"/>
  <path d="M106,31h1v1h-1z" fill="#2d2282" opacity="0.55"/>
  <path d="M123,31h1v1h-1z" fill="#342883" opacity="0.25"/>
  <path d="M125,31h1v1h-1z" fill="#2a1d80" opacity="0.95"/>
  <path d="M141,31h1v1h-1z" fill="#372b88" opacity="0.42"/>
  <path d="M142,31h1v1h-1z" fill="#4d3399" opacity="0.04"/>
  <path d="M143,31h1v1h-1z" fill="#4cbdff" opacity="0.11"/>
  <path d="M144,31h1v1h-1z" fill="#01a9ff" opacity="0.85"/>
  <path d="M150,31h1v1h-1z" fill="#04aaff" opacity="0.75"/>
  <path d="M151,31h1v1h-1z" fill="#51b9ff" opacity="0.09"/>
  <path d="M10,32h1v1h-1z" fill="#3a2e8b" opacity="0.26"/>
  <path d="M11,32h1v1h-1z" fill="#2e2183" opacity="0.79"/>
  <path d="M15,32h1v1h-1z" fill="#493d92" opacity="0.25"/>
  <path d="M28,32h1v1h-1z" fill="#2f2385" opacity="0.49"/>
  <path d="M33,32h1v1h-1z" fill="#4f479b" opacity="0.24"/>
  <path d="M34,32h1v1h-1z" fill="#695aa5" opacity="0.07"/>
  <path d="M35,32h1v1h-1z" fill="#352b89" opacity="0.56"/>
  <path d="M48,32h1v1h-1z" fill="#2e2183" opacity="0.63"/>
  <path d="M56,32h1v1h-1z" fill="#6e66a6" opacity="0.24"/>
  <path d="M61,32h1v1h-1z" fill="#2d2283" opacity="0.27"/>
  <path d="M69,32h1v1h-1z" fill="#463c94" opacity="0.22"/>
  <path d="M70,32h1v1h-1z" fill="#2a1f81" opacity="0.87"/>
  <path d="M73,32h1v1h-1z" fill="#2c2082" opacity="0.94"/>
  <path d="M74,32h1v1h-1z" fill="#40368d" opacity="0.48"/>
  <path d="M82,32h1v1h-1z" fill="#3a2d8b" opacity="0.22"/>
  <path d="M92,32h1v1h-1z" fill="#3b308c" opacity="0.36"/>
  <path d="M93,32h1v1h-1z" fill="#2f2383" opacity="0.77"/>
  <path d="M105,32h1v1h-1z" fill="#2e2283" opacity="0.56"/>
  <path d="M106,32h1v1h-1z" fill="#463e95" opacity="0.11"/>
  <path d="M123,32h1v1h-1z" fill="#40aaff" opacity="0.05"/>
  <path d="M124,32h1v1h-1z" fill="#4f5dac" opacity="0.22"/>
  <path d="M125,32h1v1h-1z" fill="#332787" opacity="0.53"/>
  <path d="M126,32h1v1h-1z" fill="#2a1f81" opacity="0.78"/>
  <path d="M127,32h1v1h-1z" fill="#2e2282" opacity="0.91"/>
  <path d="M138,32h1v1h-1z" fill="#2d2082" opacity="0.89"/>
  <path d="M139,32h1v1h-1z" fill="#2b1f81" opacity="0.76"/>
  <path d="M140,32h1v1h-1z" fill="#3a2f8b" opacity="0.45"/>
  <path d="M142,32h1v1h-1z" fill="#2aaaff" opacity="0.05"/>
  <path d="M143,32h1v1h-1z" fill="#0cabff" opacity="0.50"/>
  <path d="M150,32h1v1h-1z" fill="#22b2ff" opacity="0.30"/>
  <path d="M9,33h1v1h-1z" fill="#5d5da2" opacity="0.04"/>
  <path d="M10,33h1v1h-1z" fill="#4c4095" opacity="0.36"/>
  <path d="M11,33h1v1h-1z" fill="#352a86" opacity="0.62"/>
  <path d="M12,33h1v1h-1zM13,33h1v1h-1zM131,33h1v1h-1zM132,33h1v1h-1zM135,33h1v1h-1z" fill="#362987" opacity="0.64"/>
  <path d="M14,33h1v1h-1z" fill="#3d2e8b" opacity="0.35"/>
  <path d="M28,33h1v1h-1z" fill="#463990" opacity="0.30"/>
  <path d="M29,33h1v1h-1z" fill="#372c89" opacity="0.64"/>
  <path d="M30,33h1v1h-1zM31,33h1v1h-1zM37,33h1v1h-1zM38,33h1v1h-1zM39,33h1v1h-1zM40,33h1v1h-1zM41,33h1v1h-1zM42,33h1v1h-1zM43,33h1v1h-1zM44,33h1v1h-1zM57,33h1v1h-1zM58,33h1v1h-1zM59,33h1v1h-1zM71,33h1v1h-1zM72,33h1v1h-1zM84,33h1v1h-1zM85,33h1v1h-1zM86,33h1v1h-1z" fill="#322685" opacity="0.68"/>
  <path d="M32,33h1v1h-1z" fill="#322886" opacity="0.65"/>
  <path d="M33,33h1v1h-1z" fill="#483f95" opacity="0.21"/>
  <path d="M35,33h1v1h-1z" fill="#42368e" opacity="0.32"/>
  <path d="M36,33h1v1h-1z" fill="#332786" opacity="0.66"/>
  <path d="M45,33h1v1h-1z" fill="#2f2384" opacity="0.59"/>
  <path d="M46,33h1v1h-1z" fill="#312584" opacity="0.49"/>
  <path d="M48,33h1v1h-1z" fill="#55559c" opacity="0.07"/>
  <path d="M56,33h1v1h-1z" fill="#5d589e" opacity="0.22"/>
  <path d="M60,33h1v1h-1z" fill="#3c308a" opacity="0.60"/>
  <path d="M61,33h1v1h-1z" fill="#433792" opacity="0.16"/>
  <path d="M69,33h1v1h-1z" fill="#372d87" opacity="0.20"/>
  <path d="M70,33h1v1h-1z" fill="#332787" opacity="0.61"/>
  <path d="M73,33h1v1h-1z" fill="#352a87" opacity="0.64"/>
  <path d="M74,33h1v1h-1z" fill="#483e93" opacity="0.31"/>
  <path d="M82,33h1v1h-1z" fill="#50409f" opacity="0.06"/>
  <path d="M83,33h1v1h-1z" fill="#3a2e8c" opacity="0.42"/>
  <path d="M87,33h1v1h-1z" fill="#332886" opacity="0.63"/>
  <path d="M88,33h1v1h-1z" fill="#7070ad" opacity="0.10"/>
  <path d="M93,33h1v1h-1z" fill="#423991" opacity="0.23"/>
  <path d="M94,33h1v1h-1z" fill="#302685" opacity="0.50"/>
  <path d="M95,33h1v1h-1z" fill="#332886" opacity="0.65"/>
  <path d="M96,33h1v1h-1zM97,33h1v1h-1zM98,33h1v1h-1zM99,33h1v1h-1zM100,33h1v1h-1zM101,33h1v1h-1z" fill="#291c80" opacity="0.74"/>
  <path d="M102,33h1v1h-1z" fill="#302485" opacity="0.69"/>
  <path d="M103,33h1v1h-1z" fill="#2e2282" opacity="0.56"/>
  <path d="M104,33h1v1h-1z" fill="#3a2e8a" opacity="0.33"/>
  <path d="M105,33h1v1h-1z" fill="#5555aa" opacity="0.06"/>
  <path d="M123,33h1v1h-1z" fill="#47b8ff" opacity="0.10"/>
  <path d="M124,33h1v1h-1z" fill="#30b1ff" opacity="0.23"/>
  <path d="M125,33h1v1h-1z" fill="#35acf3" opacity="0.17"/>
  <path d="M126,33h1v1h-1z" fill="#32328d" opacity="0.22"/>
  <path d="M128,33h1v1h-1z" fill="#281c80" opacity="0.50"/>
  <path d="M129,33h1v1h-1z" fill="#2d2082" opacity="0.53"/>
  <path d="M130,33h1v1h-1z" fill="#322785" opacity="0.62"/>
  <path d="M134,33h1v1h-1z" fill="#352887" opacity="0.64"/>
  <path d="M136,33h1v1h-1z" fill="#2d2382" opacity="0.58"/>
  <path d="M137,33h1v1h-1z" fill="#2e2283" opacity="0.50"/>
  <path d="M138,33h1v1h-1z" fill="#382e89" opacity="0.37"/>
  <path d="M141,33h1v1h-1z" fill="#3db8ff" opacity="0.10"/>
  <path d="M142,33h1v1h-1z" fill="#0eaafd" opacity="0.44"/>
  <path d="M143,33h1v1h-1z" fill="#01a9ff" opacity="0.91"/>
  <path d="M147,33h1v1h-1z" fill="#01a8ff" opacity="0.98"/>
  <path d="M148,33h1v1h-1z" fill="#05aaff" opacity="0.86"/>
  <path d="M149,33h1v1h-1z" fill="#0aa9fd" opacity="0.48"/>
  <path d="M150,33h1v1h-1z" fill="#00aaff" opacity="0.06"/>
  <path d="M10,34h1v1h-1zM11,34h1v1h-1zM12,34h1v1h-1zM13,34h1v1h-1z" fill="#8e8ec6" opacity="0.07"/>
  <path d="M32,34h1v1h-1z" fill="#5d55a1" opacity="0.12"/>
  <path d="M45,34h1v1h-1z" fill="#7662b1" opacity="0.05"/>
  <path d="M56,34h1v1h-1z" fill="#60509f" opacity="0.06"/>
  <path d="M60,34h1v1h-1z" fill="#685ea1" opacity="0.11"/>
  <path d="M69,34h1v1h-1zM74,34h1v1h-1z" fill="#6a55aa" opacity="0.05"/>
  <path d="M70,34h1v1h-1zM73,34h1v1h-1z" fill="#5b52a4" opacity="0.11"/>
  <path d="M83,34h1v1h-1z" fill="#555599" opacity="0.06"/>
  <path d="M88,34h1v1h-1z" fill="#5b49a4" opacity="0.05"/>
  <path d="M96,34h1v1h-1zM97,34h1v1h-1zM98,34h1v1h-1zM99,34h1v1h-1zM100,34h1v1h-1zM101,34h1v1h-1z" fill="#291780" opacity="0.17"/>
  <path d="M102,34h1v1h-1z" fill="#4d469b" opacity="0.13"/>
  <path d="M124,34h1v1h-1z" fill="#28b3ff" opacity="0.22"/>
  <path d="M125,34h1v1h-1z" fill="#17aeff" opacity="0.43"/>
  <path d="M126,34h1v1h-1z" fill="#0eacff" opacity="0.43"/>
  <path d="M127,34h1v1h-1z" fill="#19aefb" opacity="0.28"/>
  <path d="M128,34h1v1h-1z" fill="#00aaff" opacity="0.16"/>
  <path d="M129,34h1v1h-1z" fill="#80c4f5" opacity="0.10"/>
  <path d="M130,34h1v1h-1z" fill="#95b0dc" opacity="0.11"/>
  <path d="M131,34h1v1h-1z" fill="#9ba4c8" opacity="0.11"/>
  <path d="M132,34h1v1h-1zM135,34h1v1h-1z" fill="#a399c2" opacity="0.10"/>
  <path d="M133,34h1v1h-1z" fill="#7c74b2" opacity="0.13"/>
  <path d="M134,34h1v1h-1z" fill="#978ebd" opacity="0.11"/>
  <path d="M136,34h1v1h-1z" fill="#97d1f3" opacity="0.09"/>
  <path d="M137,34h1v1h-1z" fill="#64bff6" opacity="0.11"/>
  <path d="M138,34h1v1h-1z" fill="#1aacff" opacity="0.16"/>
  <path d="M139,34h1v1h-1z" fill="#13aafb" opacity="0.26"/>
  <path d="M140,34h1v1h-1z" fill="#0aaaff" opacity="0.41"/>
  <path d="M141,34h1v1h-1z" fill="#0aacff" opacity="0.62"/>
  <path d="M142,34h1v1h-1zM140,35h1v1h-1z" fill="#02a9ff" opacity="0.91"/>
  <path d="M145,34h1v1h-1z" fill="#02a9ff" opacity="0.97"/>
  <path d="M146,34h1v1h-1z" fill="#07aaff" opacity="0.81"/>
  <path d="M147,34h1v1h-1z" fill="#0cacff" opacity="0.59"/>
  <path d="M148,34h1v1h-1z" fill="#15aeff" opacity="0.33"/>
  <path d="M149,34h1v1h-1z" fill="#26a6f2" opacity="0.08"/>
  <path d="M124,35h1v1h-1z" fill="#33b3ff" opacity="0.04"/>
  <path d="M125,35h1v1h-1z" fill="#24b1ff" opacity="0.19"/>
  <path d="M126,35h1v1h-1z" fill="#14acff" opacity="0.44"/>
  <path d="M127,35h1v1h-1z" fill="#07aafe" opacity="0.69"/>
  <path d="M128,35h1v1h-1z" fill="#01a8ff" opacity="0.71"/>
  <path d="M129,35h1v1h-1z" fill="#08acff" opacity="0.73"/>
  <path d="M130,35h1v1h-1z" fill="#07abff" opacity="0.72"/>
  <path d="M131,35h1v1h-1z" fill="#06aaff" opacity="0.71"/>
  <path d="M132,35h1v1h-1zM133,35h1v1h-1zM134,35h1v1h-1zM135,35h1v1h-1z" fill="#04aafe" opacity="0.70"/>
  <path d="M136,35h1v1h-1z" fill="#08acff" opacity="0.72"/>
  <path d="M137,35h1v1h-1z" fill="#08abff" opacity="0.74"/>
  <path d="M138,35h1v1h-1z" fill="#04aaff" opacity="0.77"/>
  <path d="M139,35h1v1h-1z" fill="#04a8fe" opacity="0.83"/>
  <path d="M142,35h1v1h-1z" fill="#07a9ff" opacity="0.84"/>
  <path d="M143,35h1v1h-1z" fill="#0dabff" opacity="0.75"/>
  <path d="M144,35h1v1h-1z" fill="#08a8fd" opacity="0.53"/>
  <path d="M145,35h1v1h-1z" fill="#18aefc" opacity="0.37"/>
  <path d="M146,35h1v1h-1z" fill="#17acff" opacity="0.22"/>
  <path d="M147,35h1v1h-1z" fill="#20aaff" opacity="0.09"/>
  <path d="M126,36h1v1h-1z" fill="#12b6ff" opacity="0.05"/>
  <path d="M127,36h1v1h-1z" fill="#00a5ff" opacity="0.15"/>
  <path d="M128,36h1v1h-1z" fill="#2fb2ff" opacity="0.24"/>
  <path d="M129,36h1v1h-1z" fill="#33b8ff" opacity="0.29"/>
  <path d="M130,36h1v1h-1z" fill="#1daeff" opacity="0.38"/>
  <path d="M131,36h1v1h-1zM132,36h1v1h-1zM133,36h1v1h-1zM134,36h1v1h-1zM135,36h1v1h-1zM136,36h1v1h-1z" fill="#00a8ff" opacity="0.44"/>
  <path d="M137,36h1v1h-1z" fill="#07a9ff" opacity="0.42"/>
  <path d="M138,36h1v1h-1z" fill="#2cb4ff" opacity="0.36"/>
  <path d="M139,36h1v1h-1z" fill="#2fb6ff" opacity="0.34"/>
  <path d="M140,36h1v1h-1z" fill="#2ab5fb" opacity="0.28"/>
  <path d="M141,36h1v1h-1z" fill="#19a8fa" opacity="0.20"/>
  <path d="M142,36h1v1h-1z" fill="#0eacff" opacity="0.15"/>
  <path d="M143,36h1v1h-1z" fill="#11aaff" opacity="0.12"/>
  <path d="M144,36h1v1h-1z" fill="#11aaee" opacity="0.06"/>
</svg>