<svg xmlns="http://www.w3.org/2000/svg" viewBox="0 0 160 44" width="100%" height="100%">
  <path d="M0,0h1v1h-1zM1,0h1v1h-1zM2,0h1v1h-1zM3,0h1v1h-1zM4,0h1v1h-1zM5,0h1v1h-1zM6,0h1v1h-1zM7,0h1v1h-1zM8,0h1v1h-1zM9,0h1v1h-1zM10,0h1v1h-1zM11,0h1v1h-1zM12,0h1v1h-1zM13,0h1v1h-1zM14,0h1v1h-1zM15,0h1v1h-1zM101,0h1v1h-1zM102,0h1v1h-1zM103,0h1v1h-1zM104,0h1v1h-1zM105,0h1v1h-1zM106,0h1v1h-1zM107,0h1v1h-1zM108,0h1v1h-1zM126,26h1v1h-1z" fill="#2e2e2e" opacity="0.09"/>
  <path d="M16,0h1v1h-1zM29,9h1v1h-1z" fill="#332633" opacity="0.08"/>
  <path d="M17,0h1v1h-1zM144,9h1v1h-1zM122,34h1v1h-1z" fill="#2a2a2a" opacity="0.05"/>
  <path d="M109,0h1v1h-1zM93,16h1v1h-1zM148,18h1v1h-1z" fill="#262626" opacity="0.08"/>
  <path d="M139,0h1v1h-1zM140,23h1v1h-1zM159,42h1v1h-1z" fill="#302d30" opacity="0.36"/>
  <path d="M0,1h1v1h-1zM1,1h1v1h-1zM2,1h1v1h-1zM3,1h1v1h-1zM4,1h1v1h-1zM5,1h1v1h-1zM6,1h1v1h-1zM7,1h1v1h-1zM8,1h1v1h-1zM9,1h1v1h-1zM10,1h1v1h-1zM11,1h1v1h-1zM12,1h1v1h-1zM13,1h1v1h-1zM14,1h1v1h-1zM15,1h1v1h-1zM101,1h1v1h-1zM102,1h1v1h-1zM103,1h1v1h-1zM104,1h1v1h-1zM105,1h1v1h-1zM106,1h1v1h-1zM107,1h1v1h-1zM108,1h1v1h-1zM88,13h1v1h-1zM141,24h1v1h-1z" fill="#322f31" opacity="0.92"/>
  <path d="M16,1h1v1h-1z" fill="#312f30" opacity="0.91"/>
  <path d="M17,1h1v1h-1zM151,26h1v1h-1z" fill="#312f31" opacity="0.90"/>
  <path d="M18,1h1v1h-1z" fill="#313031" opacity="0.82"/>
  <path d="M19,1h1v1h-1z" fill="#302e30" opacity="0.50"/>
  <path d="M20,1h1v1h-1z" fill="#2d252d" opacity="0.13"/>
  <path d="M45,1h1v1h-1z" fill="#74b0b0" opacity="0.27"/>
  <path d="M55,1h1v1h-1z" fill="#68a2ae" opacity="0.09"/>
  <path d="M56,1h1v1h-1z" fill="#5ba4ad" opacity="0.11"/>
  <path d="M74,1h1v1h-1zM109,43h1v1h-1z" fill="#272727" opacity="0.05"/>
  <path d="M100,1h1v1h-1zM76,3h1v1h-1zM9,10h1v1h-1zM9,11h1v1h-1zM9,12h1v1h-1zM9,13h1v1h-1zM9,14h1v1h-1zM9,15h1v1h-1zM9,16h1v1h-1zM9,17h1v1h-1zM9,18h1v1h-1zM9,19h1v1h-1zM9,30h1v1h-1zM9,31h1v1h-1zM9,32h1v1h-1zM9,33h1v1h-1zM9,34h1v1h-1zM9,35h1v1h-1zM9,36h1v1h-1zM9,37h1v1h-1zM9,38h1v1h-1zM9,39h1v1h-1zM147,39h1v1h-1zM9,40h1v1h-1zM9,41h1v1h-1zM9,42h1v1h-1z" fill="#302c30" opacity="0.27"/>
  <path d="M109,1h1v1h-1zM142,7h1v1h-1zM100,22h1v1h-1zM20,28h1v1h-1zM95,31h1v1h-1z" fill="#322e31" opacity="0.80"/>
  <path d="M138,1h1v1h-1zM75,2h1v1h-1z" fill="#302b30" opacity="0.21"/>
  <path d="M139,1h1v1h-1zM158,41h1v1h-1z" fill="#322e30" opacity="0.95"/>
  <path d="M140,1h1v1h-1z" fill="#2e2323" opacity="0.09"/>
  <path d="M0,2h1v1h-1zM1,2h1v1h-1zM2,2h1v1h-1zM3,2h1v1h-1zM4,2h1v1h-1zM5,2h1v1h-1zM6,2h1v1h-1zM7,2h1v1h-1zM8,2h1v1h-1zM9,2h1v1h-1zM10,2h1v1h-1zM11,2h1v1h-1zM12,2h1v1h-1zM13,2h1v1h-1zM14,2h1v1h-1zM15,2h1v1h-1zM16,2h1v1h-1zM17,2h1v1h-1zM18,2h1v1h-1zM19,2h1v1h-1zM101,2h1v1h-1zM102,2h1v1h-1zM103,2h1v1h-1zM104,2h1v1h-1zM105,2h1v1h-1zM106,2h1v1h-1zM107,2h1v1h-1zM108,2h1v1h-1zM139,2h1v1h-1zM0,3h1v1h-1zM1,3h1v1h-1zM2,3h1v1h-1zM3,3h1v1h-1zM4,3h1v1h-1zM5,3h1v1h-1zM6,3h1v1h-1zM7,3h1v1h-1zM8,3h1v1h-1zM9,3h1v1h-1zM10,3h1v1h-1zM11,3h1v1h-1zM12,3h1v1h-1zM13,3h1v1h-1zM14,3h1v1h-1zM15,3h1v1h-1zM16,3h1v1h-1zM17,3h1v1h-1zM18,3h1v1h-1zM19,3h1v1h-1zM20,3h1v1h-1zM21,3h1v1h-1zM22,3h1v1h-1zM74,3h1v1h-1zM101,3h1v1h-1zM102,3h1v1h-1zM103,3h1v1h-1zM104,3h1v1h-1zM105,3h1v1h-1zM106,3h1v1h-1zM107,3h1v1h-1zM108,3h1v1h-1zM138,3h1v1h-1zM139,3h1v1h-1zM0,4h1v1h-1zM1,4h1v1h-1zM2,4h1v1h-1zM3,4h1v1h-1zM4,4h1v1h-1zM5,4h1v1h-1zM6,4h1v1h-1zM7,4h1v1h-1zM8,4h1v1h-1zM9,4h1v1h-1zM10,4h1v1h-1zM11,4h1v1h-1zM12,4h1v1h-1zM13,4h1v1h-1zM14,4h1v1h-1zM15,4h1v1h-1zM16,4h1v1h-1zM17,4h1v1h-1zM18,4h1v1h-1zM19,4h1v1h-1zM20,4h1v1h-1zM21,4h1v1h-1zM22,4h1v1h-1zM74,4h1v1h-1zM75,4h1v1h-1zM101,4h1v1h-1zM102,4h1v1h-1zM103,4h1v1h-1zM104,4h1v1h-1zM105,4h1v1h-1zM106,4h1v1h-1zM107,4h1v1h-1zM108,4h1v1h-1zM138,4h1v1h-1zM139,4h1v1h-1zM0,5h1v1h-1zM1,5h1v1h-1zM2,5h1v1h-1zM3,5h1v1h-1zM4,5h1v1h-1zM5,5h1v1h-1zM6,5h1v1h-1zM7,5h1v1h-1zM8,5h1v1h-1zM9,5h1v1h-1zM10,5h1v1h-1zM11,5h1v1h-1zM12,5h1v1h-1zM13,5h1v1h-1zM14,5h1v1h-1zM15,5h1v1h-1zM16,5h1v1h-1zM17,5h1v1h-1zM18,5h1v1h-1zM19,5h1v1h-1zM20,5h1v1h-1zM21,5h1v1h-1zM22,5h1v1h-1zM23,5h1v1h-1zM24,5h1v1h-1zM74,5h1v1h-1zM75,5h1v1h-1zM76,5h1v1h-1zM77,5h1v1h-1zM101,5h1v1h-1zM102,5h1v1h-1zM103,5h1v1h-1zM104,5h1v1h-1zM105,5h1v1h-1zM106,5h1v1h-1zM107,5h1v1h-1zM108,5h1v1h-1zM138,5h1v1h-1zM139,5h1v1h-1zM140,5h1v1h-1zM0,6h1v1h-1zM1,6h1v1h-1zM2,6h1v1h-1zM3,6h1v1h-1zM4,6h1v1h-1zM5,6h1v1h-1zM6,6h1v1h-1zM7,6h1v1h-1zM8,6h1v1h-1zM9,6h1v1h-1zM10,6h1v1h-1zM11,6h1v1h-1zM12,6h1v1h-1zM13,6h1v1h-1zM14,6h1v1h-1zM15,6h1v1h-1zM16,6h1v1h-1zM17,6h1v1h-1zM18,6h1v1h-1zM19,6h1v1h-1zM20,6h1v1h-1zM21,6h1v1h-1zM22,6h1v1h-1zM23,6h1v1h-1zM24,6h1v1h-1zM25,6h1v1h-1zM74,6h1v1h-1zM75,6h1v1h-1zM76,6h1v1h-1zM77,6h1v1h-1zM101,6h1v1h-1zM102,6h1v1h-1zM103,6h1v1h-1zM104,6h1v1h-1zM105,6h1v1h-1zM106,6h1v1h-1zM107,6h1v1h-1zM108,6h1v1h-1zM137,6h1v1h-1zM138,6h1v1h-1zM139,6h1v1h-1zM140,6h1v1h-1zM141,6h1v1h-1zM0,7h1v1h-1zM1,7h1v1h-1zM2,7h1v1h-1zM3,7h1v1h-1zM4,7h1v1h-1zM5,7h1v1h-1zM6,7h1v1h-1zM7,7h1v1h-1zM8,7h1v1h-1zM9,7h1v1h-1zM10,7h1v1h-1zM11,7h1v1h-1zM12,7h1v1h-1zM13,7h1v1h-1zM14,7h1v1h-1zM15,7h1v1h-1zM16,7h1v1h-1zM17,7h1v1h-1zM18,7h1v1h-1zM19,7h1v1h-1zM20,7h1v1h-1zM21,7h1v1h-1zM22,7h1v1h-1zM23,7h1v1h-1zM24,7h1v1h-1zM25,7h1v1h-1zM26,7h1v1h-1zM74,7h1v1h-1zM75,7h1v1h-1zM76,7h1v1h-1zM77,7h1v1h-1zM78,7h1v1h-1zM79,7h1v1h-1zM101,7h1v1h-1zM102,7h1v1h-1zM103,7h1v1h-1zM104,7h1v1h-1zM105,7h1v1h-1zM106,7h1v1h-1zM107,7h1v1h-1zM108,7h1v1h-1zM137,7h1v1h-1zM138,7h1v1h-1zM139,7h1v1h-1zM140,7h1v1h-1zM141,7h1v1h-1zM0,8h1v1h-1zM1,8h1v1h-1zM2,8h1v1h-1zM3,8h1v1h-1zM4,8h1v1h-1zM5,8h1v1h-1zM6,8h1v1h-1zM7,8h1v1h-1zM8,8h1v1h-1zM9,8h1v1h-1zM10,8h1v1h-1zM11,8h1v1h-1zM12,8h1v1h-1zM13,8h1v1h-1zM14,8h1v1h-1zM15,8h1v1h-1zM16,8h1v1h-1zM17,8h1v1h-1zM18,8h1v1h-1zM19,8h1v1h-1zM20,8h1v1h-1zM21,8h1v1h-1zM22,8h1v1h-1zM23,8h1v1h-1zM24,8h1v1h-1zM25,8h1v1h-1zM26,8h1v1h-1zM27,8h1v1h-1zM74,8h1v1h-1zM75,8h1v1h-1zM76,8h1v1h-1zM77,8h1v1h-1zM78,8h1v1h-1zM79,8h1v1h-1zM80,8h1v1h-1zM81,8h1v1h-1zM101,8h1v1h-1zM102,8h1v1h-1zM103,8h1v1h-1zM104,8h1v1h-1zM105,8h1v1h-1zM106,8h1v1h-1zM107,8h1v1h-1zM108,8h1v1h-1zM136,8h1v1h-1zM137,8h1v1h-1zM138,8h1v1h-1zM139,8h1v1h-1zM140,8h1v1h-1zM141,8h1v1h-1zM142,8h1v1h-1zM0,9h1v1h-1zM1,9h1v1h-1zM2,9h1v1h-1zM3,9h1v1h-1zM4,9h1v1h-1zM5,9h1v1h-1zM6,9h1v1h-1zM7,9h1v1h-1zM18,9h1v1h-1zM19,9h1v1h-1zM20,9h1v1h-1zM21,9h1v1h-1zM22,9h1v1h-1zM23,9h1v1h-1zM24,9h1v1h-1zM25,9h1v1h-1zM26,9h1v1h-1zM27,9h1v1h-1zM74,9h1v1h-1zM75,9h1v1h-1zM76,9h1v1h-1zM77,9h1v1h-1zM78,9h1v1h-1zM79,9h1v1h-1zM80,9h1v1h-1zM81,9h1v1h-1zM101,9h1v1h-1zM102,9h1v1h-1zM103,9h1v1h-1zM104,9h1v1h-1zM105,9h1v1h-1zM106,9h1v1h-1zM107,9h1v1h-1zM108,9h1v1h-1zM136,9h1v1h-1zM137,9h1v1h-1zM138,9h1v1h-1zM139,9h1v1h-1zM140,9h1v1h-1zM141,9h1v1h-1zM142,9h1v1h-1zM0,10h1v1h-1zM1,10h1v1h-1zM2,10h1v1h-1zM3,10h1v1h-1zM4,10h1v1h-1zM5,10h1v1h-1zM6,10h1v1h-1zM7,10h1v1h-1zM20,10h1v1h-1zM21,10h1v1h-1zM22,10h1v1h-1zM23,10h1v1h-1zM24,10h1v1h-1zM25,10h1v1h-1zM26,10h1v1h-1zM27,10h1v1h-1zM74,10h1v1h-1zM75,10h1v1h-1zM76,10h1v1h-1zM77,10h1v1h-1zM78,10h1v1h-1zM79,10h1v1h-1zM80,10h1v1h-1zM81,10h1v1h-1zM82,10h1v1h-1zM83,10h1v1h-1zM101,10h1v1h-1zM102,10h1v1h-1zM103,10h1v1h-1zM104,10h1v1h-1zM105,10h1v1h-1zM106,10h1v1h-1zM107,10h1v1h-1zM108,10h1v1h-1zM135,10h1v1h-1zM136,10h1v1h-1zM137,10h1v1h-1zM138,10h1v1h-1zM139,10h1v1h-1zM140,10h1v1h-1zM141,10h1v1h-1zM142,10h1v1h-1zM0,11h1v1h-1zM1,11h1v1h-1zM2,11h1v1h-1zM3,11h1v1h-1zM4,11h1v1h-1zM5,11h1v1h-1zM6,11h1v1h-1zM7,11h1v1h-1zM21,11h1v1h-1zM22,11h1v1h-1zM23,11h1v1h-1zM24,11h1v1h-1zM25,11h1v1h-1zM26,11h1v1h-1zM27,11h1v1h-1zM28,11h1v1h-1zM74,11h1v1h-1zM75,11h1v1h-1zM76,11h1v1h-1zM77,11h1v1h-1zM78,11h1v1h-1zM79,11h1v1h-1zM80,11h1v1h-1zM81,11h1v1h-1zM82,11h1v1h-1zM83,11h1v1h-1zM84,11h1v1h-1zM101,11h1v1h-1zM102,11h1v1h-1zM103,11h1v1h-1zM104,11h1v1h-1zM105,11h1v1h-1zM106,11h1v1h-1zM107,11h1v1h-1zM108,11h1v1h-1zM135,11h1v1h-1zM136,11h1v1h-1zM137,11h1v1h-1zM138,11h1v1h-1zM139,11h1v1h-1zM140,11h1v1h-1zM141,11h1v1h-1zM142,11h1v1h-1zM143,11h1v1h-1zM0,12h1v1h-1zM1,12h1v1h-1zM2,12h1v1h-1zM3,12h1v1h-1zM4,12h1v1h-1zM5,12h1v1h-1zM6,12h1v1h-1zM7,12h1v1h-1zM22,12h1v1h-1zM23,12h1v1h-1zM24,12h1v1h-1zM25,12h1v1h-1zM26,12h1v1h-1zM27,12h1v1h-1zM28,12h1v1h-1zM74,12h1v1h-1zM75,12h1v1h-1zM76,12h1v1h-1zM77,12h1v1h-1zM78,12h1v1h-1zM79,12h1v1h-1zM80,12h1v1h-1zM81,12h1v1h-1zM82,12h1v1h-1zM83,12h1v1h-1zM84,12h1v1h-1zM85,12h1v1h-1zM86,12h1v1h-1zM101,12h1v1h-1zM102,12h1v1h-1zM103,12h1v1h-1zM104,12h1v1h-1zM105,12h1v1h-1zM106,12h1v1h-1zM107,12h1v1h-1zM108,12h1v1h-1zM134,12h1v1h-1zM135,12h1v1h-1zM136,12h1v1h-1zM137,12h1v1h-1zM138,12h1v1h-1zM139,12h1v1h-1zM140,12h1v1h-1zM141,12h1v1h-1zM142,12h1v1h-1zM143,12h1v1h-1zM144,12h1v1h-1zM0,13h1v1h-1zM1,13h1v1h-1zM2,13h1v1h-1zM3,13h1v1h-1zM4,13h1v1h-1zM5,13h1v1h-1zM6,13h1v1h-1zM7,13h1v1h-1zM22,13h1v1h-1zM23,13h1v1h-1zM24,13h1v1h-1zM25,13h1v1h-1zM26,13h1v1h-1zM27,13h1v1h-1zM28,13h1v1h-1zM29,13h1v1h-1zM74,13h1v1h-1zM75,13h1v1h-1zM76,13h1v1h-1zM77,13h1v1h-1zM78,13h1v1h-1zM79,13h1v1h-1zM80,13h1v1h-1zM81,13h1v1h-1zM82,13h1v1h-1zM83,13h1v1h-1zM84,13h1v1h-1zM85,13h1v1h-1zM86,13h1v1h-1zM87,13h1v1h-1zM101,13h1v1h-1zM102,13h1v1h-1zM103,13h1v1h-1zM104,13h1v1h-1zM105,13h1v1h-1zM106,13h1v1h-1zM107,13h1v1h-1zM108,13h1v1h-1zM133,13h1v1h-1zM134,13h1v1h-1zM135,13h1v1h-1zM136,13h1v1h-1zM137,13h1v1h-1zM138,13h1v1h-1zM139,13h1v1h-1zM140,13h1v1h-1zM141,13h1v1h-1zM142,13h1v1h-1zM143,13h1v1h-1zM144,13h1v1h-1zM0,14h1v1h-1zM1,14h1v1h-1zM2,14h1v1h-1zM3,14h1v1h-1zM4,14h1v1h-1zM5,14h1v1h-1zM6,14h1v1h-1zM7,14h1v1h-1zM22,14h1v1h-1zM23,14h1v1h-1zM24,14h1v1h-1zM25,14h1v1h-1zM26,14h1v1h-1zM27,14h1v1h-1zM28,14h1v1h-1zM29,14h1v1h-1zM74,14h1v1h-1zM75,14h1v1h-1zM76,14h1v1h-1zM77,14h1v1h-1zM78,14h1v1h-1zM79,14h1v1h-1zM80,14h1v1h-1zM81,14h1v1h-1zM82,14h1v1h-1zM83,14h1v1h-1zM84,14h1v1h-1zM85,14h1v1h-1zM86,14h1v1h-1zM87,14h1v1h-1zM88,14h1v1h-1zM101,14h1v1h-1zM102,14h1v1h-1zM103,14h1v1h-1zM104,14h1v1h-1zM105,14h1v1h-1zM106,14h1v1h-1zM107,14h1v1h-1zM108,14h1v1h-1zM133,14h1v1h-1zM134,14h1v1h-1zM135,14h1v1h-1zM136,14h1v1h-1zM137,14h1v1h-1zM138,14h1v1h-1zM139,14h1v1h-1zM140,14h1v1h-1zM141,14h1v1h-1zM142,14h1v1h-1zM143,14h1v1h-1zM144,14h1v1h-1zM0,15h1v1h-1zM1,15h1v1h-1zM2,15h1v1h-1zM3,15h1v1h-1zM4,15h1v1h-1zM5,15h1v1h-1zM6,15h1v1h-1zM7,15h1v1h-1zM22,15h1v1h-1zM23,15h1v1h-1zM24,15h1v1h-1zM25,15h1v1h-1zM26,15h1v1h-1zM27,15h1v1h-1zM28,15h1v1h-1zM29,15h1v1h-1zM74,15h1v1h-1zM75,15h1v1h-1zM76,15h1v1h-1zM77,15h1v1h-1zM78,15h1v1h-1zM79,15h1v1h-1zM80,15h1v1h-1zM81,15h1v1h-1zM82,15h1v1h-1zM83,15h1v1h-1zM84,15h1v1h-1zM85,15h1v1h-1zM86,15h1v1h-1zM87,15h1v1h-1zM88,15h1v1h-1zM89,15h1v1h-1zM101,15h1v1h-1zM102,15h1v1h-1zM103,15h1v1h-1zM104,15h1v1h-1zM105,15h1v1h-1zM106,15h1v1h-1zM107,15h1v1h-1zM108,15h1v1h-1zM133,15h1v1h-1zM134,15h1v1h-1zM135,15h1v1h-1zM136,15h1v1h-1zM137,15h1v1h-1zM138,15h1v1h-1zM139,15h1v1h-1zM140,15h1v1h-1zM141,15h1v1h-1zM142,15h1v1h-1zM143,15h1v1h-1zM144,15h1v1h-1zM145,15h1v1h-1zM0,16h1v1h-1zM1,16h1v1h-1zM2,16h1v1h-1zM3,16h1v1h-1zM4,16h1v1h-1zM5,16h1v1h-1zM6,16h1v1h-1zM7,16h1v1h-1zM22,16h1v1h-1zM23,16h1v1h-1zM24,16h1v1h-1zM25,16h1v1h-1zM26,16h1v1h-1zM27,16h1v1h-1zM28,16h1v1h-1zM29,16h1v1h-1zM74,16h1v1h-1zM75,16h1v1h-1zM76,16h1v1h-1zM77,16h1v1h-1zM78,16h1v1h-1zM79,16h1v1h-1zM80,16h1v1h-1zM81,16h1v1h-1zM82,16h1v1h-1zM83,16h1v1h-1zM84,16h1v1h-1zM85,16h1v1h-1zM86,16h1v1h-1zM87,16h1v1h-1zM88,16h1v1h-1zM89,16h1v1h-1zM90,16h1v1h-1zM91,16h1v1h-1zM101,16h1v1h-1zM102,16h1v1h-1zM103,16h1v1h-1zM104,16h1v1h-1zM105,16h1v1h-1zM106,16h1v1h-1zM107,16h1v1h-1zM108,16h1v1h-1zM132,16h1v1h-1zM133,16h1v1h-1zM134,16h1v1h-1zM135,16h1v1h-1zM136,16h1v1h-1zM137,16h1v1h-1zM138,16h1v1h-1zM139,16h1v1h-1zM140,16h1v1h-1zM141,16h1v1h-1zM142,16h1v1h-1zM143,16h1v1h-1zM144,16h1v1h-1zM145,16h1v1h-1zM146,16h1v1h-1zM0,17h1v1h-1zM1,17h1v1h-1zM2,17h1v1h-1zM3,17h1v1h-1zM4,17h1v1h-1zM5,17h1v1h-1zM6,17h1v1h-1zM7,17h1v1h-1zM22,17h1v1h-1zM23,17h1v1h-1zM24,17h1v1h-1zM25,17h1v1h-1zM26,17h1v1h-1zM27,17h1v1h-1zM28,17h1v1h-1zM74,17h1v1h-1zM75,17h1v1h-1zM76,17h1v1h-1zM77,17h1v1h-1zM78,17h1v1h-1zM79,17h1v1h-1zM80,17h1v1h-1zM81,17h1v1h-1zM82,17h1v1h-1zM83,17h1v1h-1zM84,17h1v1h-1zM85,17h1v1h-1zM86,17h1v1h-1zM87,17h1v1h-1zM88,17h1v1h-1zM89,17h1v1h-1zM90,17h1v1h-1zM91,17h1v1h-1zM92,17h1v1h-1zM101,17h1v1h-1zM102,17h1v1h-1zM103,17h1v1h-1zM104,17h1v1h-1zM105,17h1v1h-1zM106,17h1v1h-1zM107,17h1v1h-1zM108,17h1v1h-1zM132,17h1v1h-1zM133,17h1v1h-1zM134,17h1v1h-1zM135,17h1v1h-1zM136,17h1v1h-1zM137,17h1v1h-1zM138,17h1v1h-1zM139,17h1v1h-1zM140,17h1v1h-1zM141,17h1v1h-1zM142,17h1v1h-1zM143,17h1v1h-1zM144,17h1v1h-1zM145,17h1v1h-1zM146,17h1v1h-1zM0,18h1v1h-1zM1,18h1v1h-1zM2,18h1v1h-1zM3,18h1v1h-1zM4,18h1v1h-1zM5,18h1v1h-1zM6,18h1v1h-1zM7,18h1v1h-1zM22,18h1v1h-1zM23,18h1v1h-1zM24,18h1v1h-1zM25,18h1v1h-1zM26,18h1v1h-1zM27,18h1v1h-1zM28,18h1v1h-1zM74,18h1v1h-1zM75,18h1v1h-1zM76,18h1v1h-1zM77,18h1v1h-1zM78,18h1v1h-1zM79,18h1v1h-1zM80,18h1v1h-1zM81,18h1v1h-1zM82,18h1v1h-1zM83,18h1v1h-1zM84,18h1v1h-1zM85,18h1v1h-1zM86,18h1v1h-1zM87,18h1v1h-1zM88,18h1v1h-1zM89,18h1v1h-1zM90,18h1v1h-1zM91,18h1v1h-1zM92,18h1v1h-1zM93,18h1v1h-1zM101,18h1v1h-1zM102,18h1v1h-1zM103,18h1v1h-1zM104,18h1v1h-1zM105,18h1v1h-1zM106,18h1v1h-1zM107,18h1v1h-1zM108,18h1v1h-1zM132,18h1v1h-1zM133,18h1v1h-1zM134,18h1v1h-1zM135,18h1v1h-1zM136,18h1v1h-1zM137,18h1v1h-1zM138,18h1v1h-1zM139,18h1v1h-1zM140,18h1v1h-1zM141,18h1v1h-1zM142,18h1v1h-1zM143,18h1v1h-1zM144,18h1v1h-1zM145,18h1v1h-1zM146,18h1v1h-1zM0,19h1v1h-1zM1,19h1v1h-1zM2,19h1v1h-1zM3,19h1v1h-1zM4,19h1v1h-1zM5,19h1v1h-1zM6,19h1v1h-1zM7,19h1v1h-1zM21,19h1v1h-1zM22,19h1v1h-1zM23,19h1v1h-1zM24,19h1v1h-1zM25,19h1v1h-1zM26,19h1v1h-1zM27,19h1v1h-1zM28,19h1v1h-1zM74,19h1v1h-1zM75,19h1v1h-1zM76,19h1v1h-1zM77,19h1v1h-1zM78,19h1v1h-1zM79,19h1v1h-1zM80,19h1v1h-1zM81,19h1v1h-1zM82,19h1v1h-1zM83,19h1v1h-1zM84,19h1v1h-1zM85,19h1v1h-1zM86,19h1v1h-1zM87,19h1v1h-1zM88,19h1v1h-1zM89,19h1v1h-1zM90,19h1v1h-1zM91,19h1v1h-1zM92,19h1v1h-1zM93,19h1v1h-1zM94,19h1v1h-1zM101,19h1v1h-1zM102,19h1v1h-1zM103,19h1v1h-1zM104,19h1v1h-1zM105,19h1v1h-1zM106,19h1v1h-1zM107,19h1v1h-1zM108,19h1v1h-1zM131,19h1v1h-1zM132,19h1v1h-1zM133,19h1v1h-1zM134,19h1v1h-1zM135,19h1v1h-1zM136,19h1v1h-1zM137,19h1v1h-1zM138,19h1v1h-1zM139,19h1v1h-1zM140,19h1v1h-1zM141,19h1v1h-1zM142,19h1v1h-1zM143,19h1v1h-1zM144,19h1v1h-1zM145,19h1v1h-1zM146,19h1v1h-1zM147,19h1v1h-1zM0,20h1v1h-1zM1,20h1v1h-1zM2,20h1v1h-1zM3,20h1v1h-1zM4,20h1v1h-1zM5,20h1v1h-1zM6,20h1v1h-1zM7,20h1v1h-1zM20,20h1v1h-1zM21,20h1v1h-1zM22,20h1v1h-1zM23,20h1v1h-1zM24,20h1v1h-1zM25,20h1v1h-1zM26,20h1v1h-1zM27,20h1v1h-1zM74,20h1v1h-1zM75,20h1v1h-1zM76,20h1v1h-1zM77,20h1v1h-1zM78,20h1v1h-1zM79,20h1v1h-1zM80,20h1v1h-1zM81,20h1v1h-1zM82,20h1v1h-1zM83,20h1v1h-1zM84,20h1v1h-1zM85,20h1v1h-1zM86,20h1v1h-1zM87,20h1v1h-1zM88,20h1v1h-1zM89,20h1v1h-1zM90,20h1v1h-1zM91,20h1v1h-1zM92,20h1v1h-1zM93,20h1v1h-1zM94,20h1v1h-1zM95,20h1v1h-1zM96,20h1v1h-1zM101,20h1v1h-1zM102,20h1v1h-1zM103,20h1v1h-1zM104,20h1v1h-1zM105,20h1v1h-1zM106,20h1v1h-1zM107,20h1v1h-1zM108,20h1v1h-1zM130,20h1v1h-1zM131,20h1v1h-1zM132,20h1v1h-1zM133,20h1v1h-1zM134,20h1v1h-1zM135,20h1v1h-1zM136,20h1v1h-1zM137,20h1v1h-1zM138,20h1v1h-1zM139,20h1v1h-1zM140,20h1v1h-1zM141,20h1v1h-1zM142,20h1v1h-1zM143,20h1v1h-1zM144,20h1v1h-1zM145,20h1v1h-1zM146,20h1v1h-1zM147,20h1v1h-1zM0,21h1v1h-1zM1,21h1v1h-1zM2,21h1v1h-1zM3,21h1v1h-1zM4,21h1v1h-1zM5,21h1v1h-1zM6,21h1v1h-1zM7,21h1v1h-1zM8,21h1v1h-1zM9,21h1v1h-1zM10,21h1v1h-1zM11,21h1v1h-1zM12,21h1v1h-1zM13,21h1v1h-1zM14,21h1v1h-1zM15,21h1v1h-1zM16,21h1v1h-1zM17,21h1v1h-1zM18,21h1v1h-1zM19,21h1v1h-1zM20,21h1v1h-1zM21,21h1v1h-1zM22,21h1v1h-1zM23,21h1v1h-1zM24,21h1v1h-1zM25,21h1v1h-1zM26,21h1v1h-1zM27,21h1v1h-1zM74,21h1v1h-1zM75,21h1v1h-1zM76,21h1v1h-1zM77,21h1v1h-1zM78,21h1v1h-1zM79,21h1v1h-1zM80,21h1v1h-1zM81,21h1v1h-1zM83,21h1v1h-1zM84,21h1v1h-1zM85,21h1v1h-1zM86,21h1v1h-1zM87,21h1v1h-1zM88,21h1v1h-1zM89,21h1v1h-1zM90,21h1v1h-1zM91,21h1v1h-1zM92,21h1v1h-1zM93,21h1v1h-1zM94,21h1v1h-1zM95,21h1v1h-1zM96,21h1v1h-1zM97,21h1v1h-1zM101,21h1v1h-1zM102,21h1v1h-1zM103,21h1v1h-1zM104,21h1v1h-1zM105,21h1v1h-1zM106,21h1v1h-1zM107,21h1v1h-1zM108,21h1v1h-1zM130,21h1v1h-1zM131,21h1v1h-1zM132,21h1v1h-1zM133,21h1v1h-1zM134,21h1v1h-1zM135,21h1v1h-1zM136,21h1v1h-1zM137,21h1v1h-1zM140,21h1v1h-1zM141,21h1v1h-1zM142,21h1v1h-1zM143,21h1v1h-1zM144,21h1v1h-1zM145,21h1v1h-1zM146,21h1v1h-1zM147,21h1v1h-1zM148,21h1v1h-1zM0,22h1v1h-1zM1,22h1v1h-1zM2,22h1v1h-1zM3,22h1v1h-1zM4,22h1v1h-1zM5,22h1v1h-1zM6,22h1v1h-1zM7,22h1v1h-1zM8,22h1v1h-1zM9,22h1v1h-1zM10,22h1v1h-1zM11,22h1v1h-1zM12,22h1v1h-1zM13,22h1v1h-1zM14,22h1v1h-1zM15,22h1v1h-1zM16,22h1v1h-1zM17,22h1v1h-1zM18,22h1v1h-1zM19,22h1v1h-1zM20,22h1v1h-1zM21,22h1v1h-1zM22,22h1v1h-1zM23,22h1v1h-1zM24,22h1v1h-1zM25,22h1v1h-1zM26,22h1v1h-1zM27,22h1v1h-1zM74,22h1v1h-1zM75,22h1v1h-1zM76,22h1v1h-1zM77,22h1v1h-1zM78,22h1v1h-1zM79,22h1v1h-1zM80,22h1v1h-1zM81,22h1v1h-1zM85,22h1v1h-1zM86,22h1v1h-1zM87,22h1v1h-1zM88,22h1v1h-1zM89,22h1v1h-1zM90,22h1v1h-1zM91,22h1v1h-1zM92,22h1v1h-1zM93,22h1v1h-1zM94,22h1v1h-1zM95,22h1v1h-1zM96,22h1v1h-1zM97,22h1v1h-1zM98,22h1v1h-1zM101,22h1v1h-1zM102,22h1v1h-1zM103,22h1v1h-1zM104,22h1v1h-1zM105,22h1v1h-1zM106,22h1v1h-1zM107,22h1v1h-1zM108,22h1v1h-1zM130,22h1v1h-1zM131,22h1v1h-1zM132,22h1v1h-1zM133,22h1v1h-1zM134,22h1v1h-1zM135,22h1v1h-1zM136,22h1v1h-1zM137,22h1v1h-1zM141,22h1v1h-1zM142,22h1v1h-1zM143,22h1v1h-1zM144,22h1v1h-1zM145,22h1v1h-1zM146,22h1v1h-1zM147,22h1v1h-1zM148,22h1v1h-1zM0,23h1v1h-1zM1,23h1v1h-1zM2,23h1v1h-1zM3,23h1v1h-1zM4,23h1v1h-1zM5,23h1v1h-1zM6,23h1v1h-1zM7,23h1v1h-1zM8,23h1v1h-1zM9,23h1v1h-1zM10,23h1v1h-1zM11,23h1v1h-1zM12,23h1v1h-1zM13,23h1v1h-1zM14,23h1v1h-1zM15,23h1v1h-1zM16,23h1v1h-1zM17,23h1v1h-1zM18,23h1v1h-1zM19,23h1v1h-1zM20,23h1v1h-1zM21,23h1v1h-1zM22,23h1v1h-1zM23,23h1v1h-1zM24,23h1v1h-1zM25,23h1v1h-1zM26,23h1v1h-1zM74,23h1v1h-1zM75,23h1v1h-1zM76,23h1v1h-1zM77,23h1v1h-1zM78,23h1v1h-1zM79,23h1v1h-1zM80,23h1v1h-1zM81,23h1v1h-1zM86,23h1v1h-1zM87,23h1v1h-1zM88,23h1v1h-1zM89,23h1v1h-1zM90,23h1v1h-1zM91,23h1v1h-1zM92,23h1v1h-1zM93,23h1v1h-1zM94,23h1v1h-1zM95,23h1v1h-1zM96,23h1v1h-1zM97,23h1v1h-1zM98,23h1v1h-1zM99,23h1v1h-1zM100,23h1v1h-1zM101,23h1v1h-1zM102,23h1v1h-1zM103,23h1v1h-1zM104,23h1v1h-1zM105,23h1v1h-1zM106,23h1v1h-1zM107,23h1v1h-1zM108,23h1v1h-1zM129,23h1v1h-1zM130,23h1v1h-1zM131,23h1v1h-1zM132,23h1v1h-1zM133,23h1v1h-1zM134,23h1v1h-1zM135,23h1v1h-1zM136,23h1v1h-1zM142,23h1v1h-1zM143,23h1v1h-1zM144,23h1v1h-1zM145,23h1v1h-1zM146,23h1v1h-1zM147,23h1v1h-1zM148,23h1v1h-1zM149,23h1v1h-1zM0,24h1v1h-1zM1,24h1v1h-1zM2,24h1v1h-1zM3,24h1v1h-1zM4,24h1v1h-1zM5,24h1v1h-1zM6,24h1v1h-1zM7,24h1v1h-1zM8,24h1v1h-1zM9,24h1v1h-1zM10,24h1v1h-1zM11,24h1v1h-1zM12,24h1v1h-1zM13,24h1v1h-1zM14,24h1v1h-1zM15,24h1v1h-1zM16,24h1v1h-1zM17,24h1v1h-1zM18,24h1v1h-1zM19,24h1v1h-1zM20,24h1v1h-1zM21,24h1v1h-1zM22,24h1v1h-1zM23,24h1v1h-1zM24,24h1v1h-1zM25,24h1v1h-1zM74,24h1v1h-1zM75,24h1v1h-1zM76,24h1v1h-1zM77,24h1v1h-1zM78,24h1v1h-1zM79,24h1v1h-1zM80,24h1v1h-1zM81,24h1v1h-1zM87,24h1v1h-1zM88,24h1v1h-1zM89,24h1v1h-1zM90,24h1v1h-1zM91,24h1v1h-1zM92,24h1v1h-1zM93,24h1v1h-1zM94,24h1v1h-1zM95,24h1v1h-1zM96,24h1v1h-1zM97,24h1v1h-1zM98,24h1v1h-1zM99,24h1v1h-1zM100,24h1v1h-1zM101,24h1v1h-1zM102,24h1v1h-1zM103,24h1v1h-1zM104,24h1v1h-1zM105,24h1v1h-1zM106,24h1v1h-1zM107,24h1v1h-1zM108,24h1v1h-1zM128,24h1v1h-1zM129,24h1v1h-1zM130,24h1v1h-1zM131,24h1v1h-1zM132,24h1v1h-1zM133,24h1v1h-1zM134,24h1v1h-1zM135,24h1v1h-1zM136,24h1v1h-1zM142,24h1v1h-1zM143,24h1v1h-1zM144,24h1v1h-1zM145,24h1v1h-1zM146,24h1v1h-1zM147,24h1v1h-1zM148,24h1v1h-1zM149,24h1v1h-1zM0,25h1v1h-1zM1,25h1v1h-1zM2,25h1v1h-1zM3,25h1v1h-1zM4,25h1v1h-1zM5,25h1v1h-1zM6,25h1v1h-1zM7,25h1v1h-1zM8,25h1v1h-1zM9,25h1v1h-1zM10,25h1v1h-1zM11,25h1v1h-1zM12,25h1v1h-1zM13,25h1v1h-1zM14,25h1v1h-1zM15,25h1v1h-1zM16,25h1v1h-1zM17,25h1v1h-1zM18,25h1v1h-1zM19,25h1v1h-1zM20,25h1v1h-1zM21,25h1v1h-1zM22,25h1v1h-1zM23,25h1v1h-1zM24,25h1v1h-1zM74,25h1v1h-1zM75,25h1v1h-1zM76,25h1v1h-1zM77,25h1v1h-1zM78,25h1v1h-1zM79,25h1v1h-1zM80,25h1v1h-1zM81,25h1v1h-1zM88,25h1v1h-1zM89,25h1v1h-1zM90,25h1v1h-1zM91,25h1v1h-1zM92,25h1v1h-1zM93,25h1v1h-1zM94,25h1v1h-1zM95,25h1v1h-1zM96,25h1v1h-1zM97,25h1v1h-1zM98,25h1v1h-1zM99,25h1v1h-1zM100,25h1v1h-1zM101,25h1v1h-1zM102,25h1v1h-1zM103,25h1v1h-1zM104,25h1v1h-1zM105,25h1v1h-1zM106,25h1v1h-1zM107,25h1v1h-1zM108,25h1v1h-1zM128,25h1v1h-1zM129,25h1v1h-1zM130,25h1v1h-1zM131,25h1v1h-1zM132,25h1v1h-1zM133,25h1v1h-1zM134,25h1v1h-1zM135,25h1v1h-1zM136,25h1v1h-1zM142,25h1v1h-1zM143,25h1v1h-1zM144,25h1v1h-1zM145,25h1v1h-1zM146,25h1v1h-1zM147,25h1v1h-1zM148,25h1v1h-1zM149,25h1v1h-1zM0,26h1v1h-1zM1,26h1v1h-1zM2,26h1v1h-1zM3,26h1v1h-1zM4,26h1v1h-1zM5,26h1v1h-1zM6,26h1v1h-1zM7,26h1v1h-1zM8,26h1v1h-1zM9,26h1v1h-1zM10,26h1v1h-1zM11,26h1v1h-1zM12,26h1v1h-1zM13,26h1v1h-1zM14,26h1v1h-1zM15,26h1v1h-1zM16,26h1v1h-1zM17,26h1v1h-1zM18,26h1v1h-1zM19,26h1v1h-1zM20,26h1v1h-1zM21,26h1v1h-1zM22,26h1v1h-1zM74,26h1v1h-1zM75,26h1v1h-1zM76,26h1v1h-1zM77,26h1v1h-1zM78,26h1v1h-1zM79,26h1v1h-1zM80,26h1v1h-1zM81,26h1v1h-1zM90,26h1v1h-1zM91,26h1v1h-1zM92,26h1v1h-1zM93,26h1v1h-1zM94,26h1v1h-1zM95,26h1v1h-1zM96,26h1v1h-1zM97,26h1v1h-1zM98,26h1v1h-1zM99,26h1v1h-1zM100,26h1v1h-1zM101,26h1v1h-1zM102,26h1v1h-1zM103,26h1v1h-1zM104,26h1v1h-1zM105,26h1v1h-1zM106,26h1v1h-1zM107,26h1v1h-1zM108,26h1v1h-1zM128,26h1v1h-1zM129,26h1v1h-1zM130,26h1v1h-1zM131,26h1v1h-1zM132,26h1v1h-1zM133,26h1v1h-1zM134,26h1v1h-1zM135,26h1v1h-1zM143,26h1v1h-1zM144,26h1v1h-1zM145,26h1v1h-1zM146,26h1v1h-1zM147,26h1v1h-1zM148,26h1v1h-1zM149,26h1v1h-1zM150,26h1v1h-1zM0,27h1v1h-1zM1,27h1v1h-1zM2,27h1v1h-1zM3,27h1v1h-1zM4,27h1v1h-1zM5,27h1v1h-1zM6,27h1v1h-1zM7,27h1v1h-1zM8,27h1v1h-1zM9,27h1v1h-1zM10,27h1v1h-1zM11,27h1v1h-1zM12,27h1v1h-1zM13,27h1v1h-1zM14,27h1v1h-1zM15,27h1v1h-1zM16,27h1v1h-1zM17,27h1v1h-1zM18,27h1v1h-1zM19,27h1v1h-1zM20,27h1v1h-1zM21,27h1v1h-1zM74,27h1v1h-1zM75,27h1v1h-1zM76,27h1v1h-1zM77,27h1v1h-1zM78,27h1v1h-1zM79,27h1v1h-1zM80,27h1v1h-1zM81,27h1v1h-1zM91,27h1v1h-1zM92,27h1v1h-1zM93,27h1v1h-1zM94,27h1v1h-1zM95,27h1v1h-1zM96,27h1v1h-1zM97,27h1v1h-1zM98,27h1v1h-1zM99,27h1v1h-1zM100,27h1v1h-1zM101,27h1v1h-1zM102,27h1v1h-1zM103,27h1v1h-1zM104,27h1v1h-1zM105,27h1v1h-1zM106,27h1v1h-1zM107,27h1v1h-1zM108,27h1v1h-1zM127,27h1v1h-1zM128,27h1v1h-1zM129,27h1v1h-1zM130,27h1v1h-1zM131,27h1v1h-1zM132,27h1v1h-1zM133,27h1v1h-1zM134,27h1v1h-1zM135,27h1v1h-1zM143,27h1v1h-1zM144,27h1v1h-1zM145,27h1v1h-1zM146,27h1v1h-1zM147,27h1v1h-1zM148,27h1v1h-1zM149,27h1v1h-1zM150,27h1v1h-1zM151,27h1v1h-1zM0,28h1v1h-1zM1,28h1v1h-1zM2,28h1v1h-1zM3,28h1v1h-1zM4,28h1v1h-1zM5,28h1v1h-1zM6,28h1v1h-1zM7,28h1v1h-1zM8,28h1v1h-1zM9,28h1v1h-1zM10,28h1v1h-1zM11,28h1v1h-1zM12,28h1v1h-1zM13,28h1v1h-1zM14,28h1v1h-1zM15,28h1v1h-1zM16,28h1v1h-1zM17,28h1v1h-1zM18,28h1v1h-1zM19,28h1v1h-1zM74,28h1v1h-1zM75,28h1v1h-1zM76,28h1v1h-1zM77,28h1v1h-1zM78,28h1v1h-1zM79,28h1v1h-1zM80,28h1v1h-1zM81,28h1v1h-1zM92,28h1v1h-1zM93,28h1v1h-1zM94,28h1v1h-1zM95,28h1v1h-1zM96,28h1v1h-1zM97,28h1v1h-1zM98,28h1v1h-1zM99,28h1v1h-1zM100,28h1v1h-1zM101,28h1v1h-1zM102,28h1v1h-1zM103,28h1v1h-1zM104,28h1v1h-1zM105,28h1v1h-1zM106,28h1v1h-1zM107,28h1v1h-1zM108,28h1v1h-1zM127,28h1v1h-1zM128,28h1v1h-1zM129,28h1v1h-1zM130,28h1v1h-1zM131,28h1v1h-1zM132,28h1v1h-1zM133,28h1v1h-1zM134,28h1v1h-1zM143,28h1v1h-1zM144,28h1v1h-1zM145,28h1v1h-1zM146,28h1v1h-1zM147,28h1v1h-1zM148,28h1v1h-1zM149,28h1v1h-1zM150,28h1v1h-1zM151,28h1v1h-1zM0,29h1v1h-1zM1,29h1v1h-1zM2,29h1v1h-1zM3,29h1v1h-1zM4,29h1v1h-1zM5,29h1v1h-1zM6,29h1v1h-1zM7,29h1v1h-1zM74,29h1v1h-1zM75,29h1v1h-1zM76,29h1v1h-1zM77,29h1v1h-1zM78,29h1v1h-1zM79,29h1v1h-1zM80,29h1v1h-1zM81,29h1v1h-1zM94,29h1v1h-1zM95,29h1v1h-1zM96,29h1v1h-1zM97,29h1v1h-1zM98,29h1v1h-1zM99,29h1v1h-1zM100,29h1v1h-1zM101,29h1v1h-1zM102,29h1v1h-1zM103,29h1v1h-1zM104,29h1v1h-1zM105,29h1v1h-1zM106,29h1v1h-1zM107,29h1v1h-1zM108,29h1v1h-1zM126,29h1v1h-1zM127,29h1v1h-1zM128,29h1v1h-1zM129,29h1v1h-1zM130,29h1v1h-1zM131,29h1v1h-1zM132,29h1v1h-1zM133,29h1v1h-1zM134,29h1v1h-1zM144,29h1v1h-1zM145,29h1v1h-1zM146,29h1v1h-1zM147,29h1v1h-1zM148,29h1v1h-1zM149,29h1v1h-1zM150,29h1v1h-1zM151,29h1v1h-1zM152,29h1v1h-1zM0,30h1v1h-1zM1,30h1v1h-1zM2,30h1v1h-1zM3,30h1v1h-1zM4,30h1v1h-1zM5,30h1v1h-1zM6,30h1v1h-1zM7,30h1v1h-1zM74,30h1v1h-1zM75,30h1v1h-1zM76,30h1v1h-1zM77,30h1v1h-1zM78,30h1v1h-1zM79,30h1v1h-1zM80,30h1v1h-1zM81,30h1v1h-1zM95,30h1v1h-1zM96,30h1v1h-1zM97,30h1v1h-1zM98,30h1v1h-1zM99,30h1v1h-1zM100,30h1v1h-1zM101,30h1v1h-1zM102,30h1v1h-1zM103,30h1v1h-1zM104,30h1v1h-1zM105,30h1v1h-1zM106,30h1v1h-1zM107,30h1v1h-1zM108,30h1v1h-1zM126,30h1v1h-1zM127,30h1v1h-1zM128,30h1v1h-1zM129,30h1v1h-1zM130,30h1v1h-1zM131,30h1v1h-1zM132,30h1v1h-1zM133,30h1v1h-1zM134,30h1v1h-1zM144,30h1v1h-1zM145,30h1v1h-1zM146,30h1v1h-1zM147,30h1v1h-1zM148,30h1v1h-1zM149,30h1v1h-1zM150,30h1v1h-1zM151,30h1v1h-1zM152,30h1v1h-1zM0,31h1v1h-1zM1,31h1v1h-1zM2,31h1v1h-1zM3,31h1v1h-1zM4,31h1v1h-1zM5,31h1v1h-1zM6,31h1v1h-1zM7,31h1v1h-1zM74,31h1v1h-1zM75,31h1v1h-1zM76,31h1v1h-1zM77,31h1v1h-1zM78,31h1v1h-1zM79,31h1v1h-1zM80,31h1v1h-1zM81,31h1v1h-1zM97,31h1v1h-1zM98,31h1v1h-1zM99,31h1v1h-1zM100,31h1v1h-1zM101,31h1v1h-1zM102,31h1v1h-1zM103,31h1v1h-1zM104,31h1v1h-1zM105,31h1v1h-1zM106,31h1v1h-1zM107,31h1v1h-1zM108,31h1v1h-1zM125,31h1v1h-1zM126,31h1v1h-1zM127,31h1v1h-1zM128,31h1v1h-1zM129,31h1v1h-1zM130,31h1v1h-1zM131,31h1v1h-1zM132,31h1v1h-1zM133,31h1v1h-1zM134,31h1v1h-1zM135,31h1v1h-1zM136,31h1v1h-1zM137,31h1v1h-1zM138,31h1v1h-1zM139,31h1v1h-1zM140,31h1v1h-1zM141,31h1v1h-1zM142,31h1v1h-1zM143,31h1v1h-1zM144,31h1v1h-1zM145,31h1v1h-1zM146,31h1v1h-1zM147,31h1v1h-1zM148,31h1v1h-1zM149,31h1v1h-1zM150,31h1v1h-1zM151,31h1v1h-1zM152,31h1v1h-1zM0,32h1v1h-1zM1,32h1v1h-1zM2,32h1v1h-1zM3,32h1v1h-1zM4,32h1v1h-1zM5,32h1v1h-1zM6,32h1v1h-1zM7,32h1v1h-1zM74,32h1v1h-1zM75,32h1v1h-1zM76,32h1v1h-1zM77,32h1v1h-1zM78,32h1v1h-1zM79,32h1v1h-1zM80,32h1v1h-1zM81,32h1v1h-1zM97,32h1v1h-1zM98,32h1v1h-1zM99,32h1v1h-1zM100,32h1v1h-1zM101,32h1v1h-1zM102,32h1v1h-1zM103,32h1v1h-1zM104,32h1v1h-1zM105,32h1v1h-1zM106,32h1v1h-1zM107,32h1v1h-1zM108,32h1v1h-1zM125,32h1v1h-1zM126,32h1v1h-1zM127,32h1v1h-1zM128,32h1v1h-1zM129,32h1v1h-1zM130,32h1v1h-1zM131,32h1v1h-1zM132,32h1v1h-1zM133,32h1v1h-1zM134,32h1v1h-1zM135,32h1v1h-1zM136,32h1v1h-1zM137,32h1v1h-1zM138,32h1v1h-1zM139,32h1v1h-1zM140,32h1v1h-1zM141,32h1v1h-1zM142,32h1v1h-1zM143,32h1v1h-1zM144,32h1v1h-1zM145,32h1v1h-1zM146,32h1v1h-1zM147,32h1v1h-1zM148,32h1v1h-1zM149,32h1v1h-1zM150,32h1v1h-1zM151,32h1v1h-1zM152,32h1v1h-1zM0,33h1v1h-1zM1,33h1v1h-1zM2,33h1v1h-1zM3,33h1v1h-1zM4,33h1v1h-1zM5,33h1v1h-1zM6,33h1v1h-1zM7,33h1v1h-1zM74,33h1v1h-1zM75,33h1v1h-1zM76,33h1v1h-1zM77,33h1v1h-1zM78,33h1v1h-1zM79,33h1v1h-1zM80,33h1v1h-1zM81,33h1v1h-1zM99,33h1v1h-1zM100,33h1v1h-1zM101,33h1v1h-1zM102,33h1v1h-1zM103,33h1v1h-1zM104,33h1v1h-1zM105,33h1v1h-1zM106,33h1v1h-1zM107,33h1v1h-1zM108,33h1v1h-1zM125,33h1v1h-1zM126,33h1v1h-1zM127,33h1v1h-1zM128,33h1v1h-1zM129,33h1v1h-1zM130,33h1v1h-1zM131,33h1v1h-1zM132,33h1v1h-1zM133,33h1v1h-1zM134,33h1v1h-1zM135,33h1v1h-1zM136,33h1v1h-1zM137,33h1v1h-1zM138,33h1v1h-1zM139,33h1v1h-1zM140,33h1v1h-1zM141,33h1v1h-1zM142,33h1v1h-1zM143,33h1v1h-1zM144,33h1v1h-1zM145,33h1v1h-1zM146,33h1v1h-1zM147,33h1v1h-1zM148,33h1v1h-1zM149,33h1v1h-1zM150,33h1v1h-1zM151,33h1v1h-1zM152,33h1v1h-1zM153,33h1v1h-1zM0,34h1v1h-1zM1,34h1v1h-1zM2,34h1v1h-1zM3,34h1v1h-1zM4,34h1v1h-1zM5,34h1v1h-1zM6,34h1v1h-1zM7,34h1v1h-1zM74,34h1v1h-1zM75,34h1v1h-1zM76,34h1v1h-1zM77,34h1v1h-1zM78,34h1v1h-1zM79,34h1v1h-1zM80,34h1v1h-1zM81,34h1v1h-1zM100,34h1v1h-1zM101,34h1v1h-1zM102,34h1v1h-1zM103,34h1v1h-1zM104,34h1v1h-1zM105,34h1v1h-1zM106,34h1v1h-1zM107,34h1v1h-1zM108,34h1v1h-1zM124,34h1v1h-1zM125,34h1v1h-1zM126,34h1v1h-1zM127,34h1v1h-1zM128,34h1v1h-1zM129,34h1v1h-1zM130,34h1v1h-1zM131,34h1v1h-1zM132,34h1v1h-1zM133,34h1v1h-1zM134,34h1v1h-1zM135,34h1v1h-1zM136,34h1v1h-1zM137,34h1v1h-1zM138,34h1v1h-1zM139,34h1v1h-1zM140,34h1v1h-1zM141,34h1v1h-1zM142,34h1v1h-1zM143,34h1v1h-1zM144,34h1v1h-1zM145,34h1v1h-1zM146,34h1v1h-1zM147,34h1v1h-1zM148,34h1v1h-1zM149,34h1v1h-1zM150,34h1v1h-1zM151,34h1v1h-1zM152,34h1v1h-1zM153,34h1v1h-1zM154,34h1v1h-1zM0,35h1v1h-1zM1,35h1v1h-1zM2,35h1v1h-1zM3,35h1v1h-1zM4,35h1v1h-1zM5,35h1v1h-1zM6,35h1v1h-1zM7,35h1v1h-1zM74,35h1v1h-1zM75,35h1v1h-1zM76,35h1v1h-1zM77,35h1v1h-1zM78,35h1v1h-1zM79,35h1v1h-1zM80,35h1v1h-1zM81,35h1v1h-1zM101,35h1v1h-1zM102,35h1v1h-1zM103,35h1v1h-1zM104,35h1v1h-1zM105,35h1v1h-1zM106,35h1v1h-1zM107,35h1v1h-1zM108,35h1v1h-1zM123,35h1v1h-1zM124,35h1v1h-1zM125,35h1v1h-1zM126,35h1v1h-1zM127,35h1v1h-1zM128,35h1v1h-1zM129,35h1v1h-1zM130,35h1v1h-1zM131,35h1v1h-1zM132,35h1v1h-1zM133,35h1v1h-1zM134,35h1v1h-1zM135,35h1v1h-1zM136,35h1v1h-1zM137,35h1v1h-1zM138,35h1v1h-1zM139,35h1v1h-1zM140,35h1v1h-1zM141,35h1v1h-1zM142,35h1v1h-1zM143,35h1v1h-1zM144,35h1v1h-1zM145,35h1v1h-1zM146,35h1v1h-1zM147,35h1v1h-1zM148,35h1v1h-1zM149,35h1v1h-1zM150,35h1v1h-1zM151,35h1v1h-1zM152,35h1v1h-1zM153,35h1v1h-1zM154,35h1v1h-1zM0,36h1v1h-1zM1,36h1v1h-1zM2,36h1v1h-1zM3,36h1v1h-1zM4,36h1v1h-1zM5,36h1v1h-1zM6,36h1v1h-1zM7,36h1v1h-1zM74,36h1v1h-1zM75,36h1v1h-1zM76,36h1v1h-1zM77,36h1v1h-1zM78,36h1v1h-1zM79,36h1v1h-1zM80,36h1v1h-1zM81,36h1v1h-1zM103,36h1v1h-1zM104,36h1v1h-1zM105,36h1v1h-1zM106,36h1v1h-1zM107,36h1v1h-1zM108,36h1v1h-1zM123,36h1v1h-1zM124,36h1v1h-1zM125,36h1v1h-1zM126,36h1v1h-1zM127,36h1v1h-1zM128,36h1v1h-1zM129,36h1v1h-1zM130,36h1v1h-1zM131,36h1v1h-1zM132,36h1v1h-1zM133,36h1v1h-1zM134,36h1v1h-1zM135,36h1v1h-1zM136,36h1v1h-1zM137,36h1v1h-1zM138,36h1v1h-1zM139,36h1v1h-1zM140,36h1v1h-1zM141,36h1v1h-1zM142,36h1v1h-1zM143,36h1v1h-1zM144,36h1v1h-1zM145,36h1v1h-1zM146,36h1v1h-1zM147,36h1v1h-1zM148,36h1v1h-1zM149,36h1v1h-1zM150,36h1v1h-1zM151,36h1v1h-1zM152,36h1v1h-1zM153,36h1v1h-1zM154,36h1v1h-1zM155,36h1v1h-1zM0,37h1v1h-1zM1,37h1v1h-1zM2,37h1v1h-1zM3,37h1v1h-1zM4,37h1v1h-1zM5,37h1v1h-1zM6,37h1v1h-1zM7,37h1v1h-1zM74,37h1v1h-1zM75,37h1v1h-1zM76,37h1v1h-1zM77,37h1v1h-1zM78,37h1v1h-1zM79,37h1v1h-1zM80,37h1v1h-1zM81,37h1v1h-1zM103,37h1v1h-1zM104,37h1v1h-1zM105,37h1v1h-1zM106,37h1v1h-1zM107,37h1v1h-1zM108,37h1v1h-1zM122,37h1v1h-1zM123,37h1v1h-1zM124,37h1v1h-1zM125,37h1v1h-1zM126,37h1v1h-1zM127,37h1v1h-1zM128,37h1v1h-1zM129,37h1v1h-1zM130,37h1v1h-1zM131,37h1v1h-1zM132,37h1v1h-1zM133,37h1v1h-1zM134,37h1v1h-1zM135,37h1v1h-1zM136,37h1v1h-1zM137,37h1v1h-1zM138,37h1v1h-1zM139,37h1v1h-1zM140,37h1v1h-1zM141,37h1v1h-1zM142,37h1v1h-1zM143,37h1v1h-1zM144,37h1v1h-1zM145,37h1v1h-1zM146,37h1v1h-1zM147,37h1v1h-1zM148,37h1v1h-1zM149,37h1v1h-1zM150,37h1v1h-1zM151,37h1v1h-1zM152,37h1v1h-1zM153,37h1v1h-1zM154,37h1v1h-1zM155,37h1v1h-1zM156,37h1v1h-1zM0,38h1v1h-1zM1,38h1v1h-1zM2,38h1v1h-1zM3,38h1v1h-1zM4,38h1v1h-1zM5,38h1v1h-1zM6,38h1v1h-1zM7,38h1v1h-1zM74,38h1v1h-1zM75,38h1v1h-1zM76,38h1v1h-1zM77,38h1v1h-1zM78,38h1v1h-1zM79,38h1v1h-1zM80,38h1v1h-1zM81,38h1v1h-1zM105,38h1v1h-1zM106,38h1v1h-1zM107,38h1v1h-1zM108,38h1v1h-1zM122,38h1v1h-1zM123,38h1v1h-1zM124,38h1v1h-1zM125,38h1v1h-1zM126,38h1v1h-1zM127,38h1v1h-1zM128,38h1v1h-1zM129,38h1v1h-1zM148,38h1v1h-1zM149,38h1v1h-1zM150,38h1v1h-1zM151,38h1v1h-1zM152,38h1v1h-1zM153,38h1v1h-1zM154,38h1v1h-1zM155,38h1v1h-1zM156,38h1v1h-1zM0,39h1v1h-1zM1,39h1v1h-1zM2,39h1v1h-1zM3,39h1v1h-1zM4,39h1v1h-1zM5,39h1v1h-1zM6,39h1v1h-1zM7,39h1v1h-1zM74,39h1v1h-1zM75,39h1v1h-1zM76,39h1v1h-1zM77,39h1v1h-1zM78,39h1v1h-1zM79,39h1v1h-1zM80,39h1v1h-1zM81,39h1v1h-1zM107,39h1v1h-1zM108,39h1v1h-1zM122,39h1v1h-1zM123,39h1v1h-1zM124,39h1v1h-1zM125,39h1v1h-1zM126,39h1v1h-1zM127,39h1v1h-1zM128,39h1v1h-1zM129,39h1v1h-1zM148,39h1v1h-1zM149,39h1v1h-1zM150,39h1v1h-1zM151,39h1v1h-1zM152,39h1v1h-1zM153,39h1v1h-1zM154,39h1v1h-1zM155,39h1v1h-1zM156,39h1v1h-1zM0,40h1v1h-1zM1,40h1v1h-1zM2,40h1v1h-1zM3,40h1v1h-1zM4,40h1v1h-1zM5,40h1v1h-1zM6,40h1v1h-1zM7,40h1v1h-1zM74,40h1v1h-1zM75,40h1v1h-1zM76,40h1v1h-1zM77,40h1v1h-1zM78,40h1v1h-1zM79,40h1v1h-1zM80,40h1v1h-1zM81,40h1v1h-1zM108,40h1v1h-1zM121,40h1v1h-1zM122,40h1v1h-1zM123,40h1v1h-1zM124,40h1v1h-1zM125,40h1v1h-1zM126,40h1v1h-1zM127,40h1v1h-1zM128,40h1v1h-1zM129,40h1v1h-1zM149,40h1v1h-1zM150,40h1v1h-1zM151,40h1v1h-1zM152,40h1v1h-1zM153,40h1v1h-1zM154,40h1v1h-1zM155,40h1v1h-1zM156,40h1v1h-1zM0,41h1v1h-1zM1,41h1v1h-1zM2,41h1v1h-1zM3,41h1v1h-1zM4,41h1v1h-1zM5,41h1v1h-1zM6,41h1v1h-1zM7,41h1v1h-1zM74,41h1v1h-1zM75,41h1v1h-1zM76,41h1v1h-1zM77,41h1v1h-1zM78,41h1v1h-1zM79,41h1v1h-1zM80,41h1v1h-1zM81,41h1v1h-1zM121,41h1v1h-1zM122,41h1v1h-1zM123,41h1v1h-1zM124,41h1v1h-1zM125,41h1v1h-1zM126,41h1v1h-1zM127,41h1v1h-1zM128,41h1v1h-1zM150,41h1v1h-1zM151,41h1v1h-1zM152,41h1v1h-1zM153,41h1v1h-1zM154,41h1v1h-1zM155,41h1v1h-1zM156,41h1v1h-1zM157,41h1v1h-1zM0,42h1v1h-1zM1,42h1v1h-1zM2,42h1v1h-1zM3,42h1v1h-1zM4,42h1v1h-1zM5,42h1v1h-1zM6,42h1v1h-1zM7,42h1v1h-1zM74,42h1v1h-1zM75,42h1v1h-1zM76,42h1v1h-1zM77,42h1v1h-1zM78,42h1v1h-1zM79,42h1v1h-1zM80,42h1v1h-1zM81,42h1v1h-1zM120,42h1v1h-1zM121,42h1v1h-1zM122,42h1v1h-1zM123,42h1v1h-1zM124,42h1v1h-1zM125,42h1v1h-1zM126,42h1v1h-1zM127,42h1v1h-1zM150,42h1v1h-1zM151,42h1v1h-1zM152,42h1v1h-1zM153,42h1v1h-1zM154,42h1v1h-1zM155,42h1v1h-1zM156,42h1v1h-1zM157,42h1v1h-1z" fill="#322f31" opacity="1.00"/>
  <path d="M20,2h1v1h-1zM137,5h1v1h-1zM29,17h1v1h-1zM94,18h1v1h-1zM131,18h1v1h-1zM20,19h1v1h-1zM19,20h1v1h-1zM28,20h1v1h-1zM84,22h1v1h-1zM93,29h1v1h-1zM153,31h1v1h-1z" fill="#322f31" opacity="0.98"/>
  <path d="M21,2h1v1h-1zM152,28h1v1h-1z" fill="#322f30" opacity="0.73"/>
  <path d="M22,2h1v1h-1zM129,20h1v1h-1zM84,23h1v1h-1z" fill="#312e31" opacity="0.33"/>
  <path d="M44,2h1v1h-1z" fill="#75b0b2" opacity="0.55"/>
  <path d="M45,2h1v1h-1z" fill="#76b0b1" opacity="0.98"/>
  <path d="M46,2h1v1h-1z" fill="#74b0b0" opacity="0.54"/>
  <path d="M54,2h1v1h-1z" fill="#73b3b3" opacity="0.16"/>
  <path d="M55,2h1v1h-1z" fill="#74afb0" opacity="0.80"/>
  <path d="M56,2h1v1h-1z" fill="#629eaa" opacity="0.92"/>
  <path d="M57,2h1v1h-1z" fill="#5d9aa6" opacity="0.25"/>
  <path d="M73,2h1v1h-1zM73,3h1v1h-1zM73,4h1v1h-1zM73,5h1v1h-1zM73,6h1v1h-1zM73,7h1v1h-1zM73,8h1v1h-1zM73,9h1v1h-1zM73,10h1v1h-1zM73,11h1v1h-1zM73,12h1v1h-1zM73,13h1v1h-1zM73,14h1v1h-1zM73,15h1v1h-1zM73,16h1v1h-1zM73,17h1v1h-1zM73,18h1v1h-1zM73,19h1v1h-1zM73,20h1v1h-1zM73,21h1v1h-1zM73,22h1v1h-1zM73,23h1v1h-1zM73,24h1v1h-1zM73,25h1v1h-1zM73,26h1v1h-1zM73,27h1v1h-1zM73,28h1v1h-1zM73,29h1v1h-1zM73,30h1v1h-1zM73,31h1v1h-1zM73,32h1v1h-1zM73,33h1v1h-1zM73,34h1v1h-1zM73,35h1v1h-1zM73,36h1v1h-1zM73,37h1v1h-1zM73,38h1v1h-1zM73,39h1v1h-1zM73,40h1v1h-1zM73,41h1v1h-1zM73,42h1v1h-1z" fill="#2a2a2a" opacity="0.12"/>
  <path d="M74,2h1v1h-1zM10,9h1v1h-1zM11,9h1v1h-1zM12,9h1v1h-1zM13,9h1v1h-1zM14,9h1v1h-1zM15,9h1v1h-1zM129,21h1v1h-1z" fill="#312f30" opacity="0.77"/>
  <path d="M100,2h1v1h-1zM100,3h1v1h-1zM100,4h1v1h-1zM100,5h1v1h-1zM100,6h1v1h-1zM100,7h1v1h-1zM100,8h1v1h-1zM100,9h1v1h-1zM100,10h1v1h-1zM100,11h1v1h-1zM100,12h1v1h-1zM100,13h1v1h-1zM100,14h1v1h-1zM100,15h1v1h-1zM100,16h1v1h-1zM100,17h1v1h-1zM100,18h1v1h-1zM100,19h1v1h-1zM100,20h1v1h-1zM100,21h1v1h-1z" fill="#303030" opacity="0.29"/>
  <path d="M109,2h1v1h-1zM109,3h1v1h-1zM109,4h1v1h-1zM109,5h1v1h-1zM109,6h1v1h-1zM109,7h1v1h-1zM109,8h1v1h-1zM109,9h1v1h-1zM109,10h1v1h-1zM109,11h1v1h-1zM109,12h1v1h-1zM109,13h1v1h-1zM109,14h1v1h-1zM109,15h1v1h-1zM109,16h1v1h-1zM109,17h1v1h-1zM109,18h1v1h-1zM109,19h1v1h-1zM109,20h1v1h-1zM109,21h1v1h-1zM109,22h1v1h-1zM109,23h1v1h-1zM109,24h1v1h-1zM109,25h1v1h-1zM109,26h1v1h-1zM136,26h1v1h-1zM109,27h1v1h-1zM109,28h1v1h-1zM109,29h1v1h-1zM109,30h1v1h-1zM135,30h1v1h-1zM109,31h1v1h-1zM109,32h1v1h-1zM124,32h1v1h-1zM109,33h1v1h-1zM109,34h1v1h-1zM109,35h1v1h-1zM109,36h1v1h-1zM109,37h1v1h-1zM109,38h1v1h-1zM109,39h1v1h-1zM109,40h1v1h-1zM109,41h1v1h-1z" fill="#312e30" opacity="0.87"/>
  <path d="M137,2h1v1h-1zM83,8h1v1h-1zM30,13h1v1h-1zM92,15h1v1h-1zM25,26h1v1h-1zM152,26h1v1h-1zM120,38h1v1h-1z" fill="#2e2e2e" opacity="0.04"/>
  <path d="M138,2h1v1h-1zM29,12h1v1h-1z" fill="#322e30" opacity="0.85"/>
  <path d="M140,2h1v1h-1zM87,25h1v1h-1z" fill="#312e31" opacity="0.61"/>
  <path d="M23,3h1v1h-1z" fill="#312e30" opacity="0.78"/>
  <path d="M24,3h1v1h-1zM125,28h1v1h-1z" fill="#312931" opacity="0.12"/>
  <path d="M43,3h1v1h-1z" fill="#76b1b3" opacity="0.50"/>
  <path d="M44,3h1v1h-1zM45,3h1v1h-1zM46,3h1v1h-1zM43,4h1v1h-1zM44,4h1v1h-1zM45,4h1v1h-1zM46,4h1v1h-1zM54,4h1v1h-1zM42,5h1v1h-1zM43,5h1v1h-1zM44,5h1v1h-1zM45,5h1v1h-1zM46,5h1v1h-1zM47,5h1v1h-1zM53,5h1v1h-1zM54,5h1v1h-1zM42,6h1v1h-1zM43,6h1v1h-1zM44,6h1v1h-1zM45,6h1v1h-1zM46,6h1v1h-1zM47,6h1v1h-1zM48,6h1v1h-1zM52,6h1v1h-1zM53,6h1v1h-1zM54,6h1v1h-1zM42,7h1v1h-1zM43,7h1v1h-1zM44,7h1v1h-1zM45,7h1v1h-1zM46,7h1v1h-1zM47,7h1v1h-1zM48,7h1v1h-1zM49,7h1v1h-1zM53,7h1v1h-1zM54,7h1v1h-1zM43,8h1v1h-1zM44,8h1v1h-1zM45,8h1v1h-1zM46,8h1v1h-1zM47,8h1v1h-1zM48,8h1v1h-1zM49,8h1v1h-1zM54,8h1v1h-1zM44,9h1v1h-1zM45,9h1v1h-1zM46,9h1v1h-1zM47,9h1v1h-1zM48,9h1v1h-1zM49,9h1v1h-1zM45,10h1v1h-1zM46,10h1v1h-1zM47,10h1v1h-1zM48,10h1v1h-1zM49,10h1v1h-1zM46,11h1v1h-1zM47,11h1v1h-1zM48,11h1v1h-1zM49,11h1v1h-1zM47,12h1v1h-1zM48,12h1v1h-1zM49,12h1v1h-1zM48,13h1v1h-1zM49,13h1v1h-1zM49,14h1v1h-1z" fill="#76b0b1" opacity="1.00"/>
  <path d="M47,3h1v1h-1z" fill="#76b0b2" opacity="0.53"/>
  <path d="M53,3h1v1h-1z" fill="#79b6b6" opacity="0.08"/>
  <path d="M54,3h1v1h-1z" fill="#76b0b1" opacity="0.85"/>
  <path d="M55,3h1v1h-1zM55,4h1v1h-1zM55,5h1v1h-1zM55,6h1v1h-1zM55,7h1v1h-1zM55,8h1v1h-1zM55,9h1v1h-1zM55,10h1v1h-1z" fill="#74aeb0" opacity="1.00"/>
  <path d="M56,3h1v1h-1zM56,4h1v1h-1zM56,5h1v1h-1zM56,6h1v1h-1zM56,7h1v1h-1zM56,8h1v1h-1zM56,9h1v1h-1zM56,10h1v1h-1z" fill="#619ea9" opacity="1.00"/>
  <path d="M57,3h1v1h-1z" fill="#5f9da9" opacity="0.92"/>
  <path d="M58,3h1v1h-1z" fill="#6099a6" opacity="0.16"/>
  <path d="M75,3h1v1h-1zM25,5h1v1h-1zM80,7h1v1h-1z" fill="#312f31" opacity="0.94"/>
  <path d="M137,3h1v1h-1z" fill="#2f2c2f" opacity="0.32"/>
  <path d="M140,3h1v1h-1zM143,9h1v1h-1zM134,11h1v1h-1zM143,30h1v1h-1zM108,41h1v1h-1z" fill="#322f31" opacity="0.90"/>
  <path d="M141,3h1v1h-1z" fill="#332626" opacity="0.08"/>
  <path d="M23,4h1v1h-1zM140,4h1v1h-1zM78,6h1v1h-1zM8,9h1v1h-1zM82,21h1v1h-1zM8,29h1v1h-1zM96,31h1v1h-1zM153,32h1v1h-1zM157,40h1v1h-1zM128,42h1v1h-1zM158,42h1v1h-1z" fill="#312e30" opacity="1.00"/>
  <path d="M24,4h1v1h-1z" fill="#312f30" opacity="0.89"/>
  <path d="M25,4h1v1h-1zM137,25h1v1h-1z" fill="#312e31" opacity="0.31"/>
  <path d="M42,4h1v1h-1z" fill="#75b1b1" opacity="0.56"/>
  <path d="M47,4h1v1h-1z" fill="#75afb0" opacity="0.98"/>
  <path d="M48,4h1v1h-1z" fill="#75afb0" opacity="0.62"/>
  <path d="M52,4h1v1h-1z" fill="#73b0b0" opacity="0.16"/>
  <path d="M53,4h1v1h-1z" fill="#76b0b1" opacity="0.87"/>
  <path d="M57,4h1v1h-1zM57,5h1v1h-1zM58,5h1v1h-1zM57,6h1v1h-1zM58,6h1v1h-1zM59,6h1v1h-1zM57,7h1v1h-1zM58,7h1v1h-1zM59,7h1v1h-1zM51,8h1v1h-1zM57,8h1v1h-1zM51,9h1v1h-1zM52,9h1v1h-1zM57,9h1v1h-1zM51,10h1v1h-1zM52,10h1v1h-1zM53,10h1v1h-1zM51,11h1v1h-1zM52,11h1v1h-1zM53,11h1v1h-1zM54,11h1v1h-1zM51,12h1v1h-1zM52,12h1v1h-1zM53,12h1v1h-1zM54,12h1v1h-1zM51,13h1v1h-1zM52,13h1v1h-1zM51,14h1v1h-1zM52,14h1v1h-1zM51,15h1v1h-1z" fill="#5f9da9" opacity="1.00"/>
  <path d="M58,4h1v1h-1z" fill="#5e9ca8" opacity="0.93"/>
  <path d="M59,4h1v1h-1z" fill="#5f9ca9" opacity="0.23"/>
  <path d="M76,4h1v1h-1zM26,6h1v1h-1zM21,12h1v1h-1zM145,14h1v1h-1zM90,15h1v1h-1zM98,21h1v1h-1z" fill="#312e30" opacity="0.97"/>
  <path d="M77,4h1v1h-1z" fill="#322e30" opacity="0.55"/>
  <path d="M137,4h1v1h-1zM155,34h1v1h-1z" fill="#322f30" opacity="0.71"/>
  <path d="M141,4h1v1h-1z" fill="#2f2d2f" opacity="0.44"/>
  <path d="M26,5h1v1h-1z" fill="#332f2f" opacity="0.27"/>
  <path d="M41,5h1v1h-1z" fill="#75afb1" opacity="0.55"/>
  <path d="M48,5h1v1h-1zM49,6h1v1h-1z" fill="#76afb0" opacity="0.99"/>
  <path d="M49,5h1v1h-1z" fill="#75b1b1" opacity="0.54"/>
  <path d="M51,5h1v1h-1z" fill="#71aab1" opacity="0.14"/>
  <path d="M52,5h1v1h-1z" fill="#76b0b1" opacity="0.82"/>
  <path d="M59,5h1v1h-1z" fill="#5f9ea9" opacity="0.91"/>
  <path d="M60,5h1v1h-1z" fill="#5f9ca7" opacity="0.26"/>
  <path d="M78,5h1v1h-1zM105,39h1v1h-1z" fill="#312e31" opacity="0.74"/>
  <path d="M79,5h1v1h-1zM30,16h1v1h-1z" fill="#302830" opacity="0.13"/>
  <path d="M136,5h1v1h-1z" fill="#302a30" opacity="0.19"/>
  <path d="M141,5h1v1h-1zM99,22h1v1h-1z" fill="#312e30" opacity="0.96"/>
  <path d="M142,5h1v1h-1zM140,24h1v1h-1zM156,35h1v1h-1z" fill="#2a2a2a" opacity="0.09"/>
  <path d="M27,6h1v1h-1z" fill="#2f2a2f" opacity="0.17"/>
  <path d="M40,6h1v1h-1z" fill="#75afb1" opacity="0.46"/>
  <path d="M41,6h1v1h-1z" fill="#76b0b1" opacity="0.99"/>
  <path d="M50,6h1v1h-1z" fill="#76afb1" opacity="0.70"/>
  <path d="M51,6h1v1h-1z" fill="#76b0b1" opacity="0.90"/>
  <path d="M60,6h1v1h-1z" fill="#5f9da9" opacity="0.93"/>
  <path d="M61,6h1v1h-1z" fill="#5d99aa" opacity="0.12"/>
  <path d="M79,6h1v1h-1zM28,9h1v1h-1z" fill="#312e30" opacity="0.93"/>
  <path d="M80,6h1v1h-1zM132,38h1v1h-1zM133,38h1v1h-1zM134,38h1v1h-1zM135,38h1v1h-1zM136,38h1v1h-1zM137,38h1v1h-1zM138,38h1v1h-1zM139,38h1v1h-1zM140,38h1v1h-1zM141,38h1v1h-1zM142,38h1v1h-1zM143,38h1v1h-1zM144,38h1v1h-1zM145,38h1v1h-1zM146,38h1v1h-1zM9,43h1v1h-1z" fill="#312a31" opacity="0.16"/>
  <path d="M136,6h1v1h-1z" fill="#322e30" opacity="0.76"/>
  <path d="M142,6h1v1h-1z" fill="#322f32" opacity="0.42"/>
  <path d="M27,7h1v1h-1z" fill="#312f31" opacity="0.73"/>
  <path d="M40,7h1v1h-1z" fill="#76b1b1" opacity="0.15"/>
  <path d="M41,7h1v1h-1z" fill="#76b0b1" opacity="0.88"/>
  <path d="M50,7h1v1h-1z" fill="#72acaf" opacity="1.00"/>
  <path d="M51,7h1v1h-1zM52,8h1v1h-1zM54,10h1v1h-1z" fill="#69a5ac" opacity="1.00"/>
  <path d="M52,7h1v1h-1zM53,8h1v1h-1zM54,9h1v1h-1z" fill="#75afb0" opacity="1.00"/>
  <path d="M60,7h1v1h-1z" fill="#5e9ca7" opacity="0.64"/>
  <path d="M81,7h1v1h-1z" fill="#333030" opacity="0.42"/>
  <path d="M135,7h1v1h-1z" fill="#2e2e2e" opacity="0.17"/>
  <path d="M136,7h1v1h-1z" fill="#312f30" opacity="0.96"/>
  <path d="M28,8h1v1h-1z" fill="#312f2f" opacity="0.41"/>
  <path d="M41,8h1v1h-1z" fill="#6fb1b1" opacity="0.09"/>
  <path d="M42,8h1v1h-1z" fill="#76b1b2" opacity="0.87"/>
  <path d="M50,8h1v1h-1zM50,9h1v1h-1zM50,10h1v1h-1zM50,11h1v1h-1zM50,12h1v1h-1zM50,13h1v1h-1zM50,14h1v1h-1zM50,15h1v1h-1z" fill="#71acaf" opacity="1.00"/>
  <path d="M58,8h1v1h-1z" fill="#5f9da9" opacity="0.99"/>
  <path d="M59,8h1v1h-1z" fill="#5f9da8" opacity="0.62"/>
  <path d="M82,8h1v1h-1z" fill="#312d31" opacity="0.57"/>
  <path d="M135,8h1v1h-1z" fill="#302e30" opacity="0.58"/>
  <path d="M143,8h1v1h-1z" fill="#302e2e" opacity="0.37"/>
  <path d="M9,9h1v1h-1z" fill="#312f30" opacity="0.83"/>
  <path d="M16,9h1v1h-1z" fill="#322e30" opacity="0.81"/>
  <path d="M17,9h1v1h-1zM155,35h1v1h-1z" fill="#322f31" opacity="0.95"/>
  <path d="M42,9h1v1h-1z" fill="#72aeb5" opacity="0.15"/>
  <path d="M43,9h1v1h-1z" fill="#76b0b0" opacity="0.93"/>
  <path d="M53,9h1v1h-1z" fill="#67a4ab" opacity="1.00"/>
  <path d="M58,9h1v1h-1z" fill="#5e9ca8" opacity="0.65"/>
  <path d="M82,9h1v1h-1zM8,10h1v1h-1zM8,11h1v1h-1zM85,11h1v1h-1zM8,12h1v1h-1zM8,13h1v1h-1zM8,14h1v1h-1zM8,15h1v1h-1zM8,16h1v1h-1zM8,17h1v1h-1zM8,18h1v1h-1zM21,18h1v1h-1zM8,19h1v1h-1zM95,19h1v1h-1zM8,20h1v1h-1zM141,23h1v1h-1zM150,25h1v1h-1zM23,26h1v1h-1zM8,30h1v1h-1zM8,31h1v1h-1zM8,32h1v1h-1zM8,33h1v1h-1zM124,33h1v1h-1zM8,34h1v1h-1zM8,35h1v1h-1zM8,36h1v1h-1zM8,37h1v1h-1zM8,38h1v1h-1zM130,38h1v1h-1zM8,39h1v1h-1zM8,40h1v1h-1zM8,41h1v1h-1zM120,41h1v1h-1zM8,42h1v1h-1z" fill="#312e30" opacity="0.99"/>
  <path d="M83,9h1v1h-1z" fill="#322f30" opacity="0.83"/>
  <path d="M84,9h1v1h-1zM19,11h1v1h-1z" fill="#2e2e2e" opacity="0.13"/>
  <path d="M134,9h1v1h-1zM30,14h1v1h-1zM128,22h1v1h-1zM157,37h1v1h-1z" fill="#322a32" opacity="0.14"/>
  <path d="M135,9h1v1h-1zM129,22h1v1h-1zM102,36h1v1h-1zM121,39h1v1h-1z" fill="#322e31" opacity="0.97"/>
  <path d="M18,10h1v1h-1z" fill="#312f31" opacity="0.43"/>
  <path d="M19,10h1v1h-1z" fill="#322f31" opacity="0.88"/>
  <path d="M28,10h1v1h-1zM143,10h1v1h-1zM98,33h1v1h-1zM154,33h1v1h-1zM106,39h1v1h-1zM107,40h1v1h-1z" fill="#322f31" opacity="0.99"/>
  <path d="M29,10h1v1h-1zM23,27h1v1h-1z" fill="#302d30" opacity="0.29"/>
  <path d="M43,10h1v1h-1z" fill="#71b3b3" opacity="0.11"/>
  <path d="M44,10h1v1h-1z" fill="#75b0b1" opacity="0.84"/>
  <path d="M57,10h1v1h-1z" fill="#5f9ca8" opacity="0.59"/>
  <path d="M84,10h1v1h-1zM21,13h1v1h-1zM131,17h1v1h-1zM150,24h1v1h-1zM130,39h1v1h-1z" fill="#312f30" opacity="0.87"/>
  <path d="M85,10h1v1h-1z" fill="#312e2e" opacity="0.33"/>
  <path d="M134,10h1v1h-1zM18,20h1v1h-1zM127,25h1v1h-1z" fill="#322f30" opacity="0.62"/>
  <path d="M144,10h1v1h-1zM151,25h1v1h-1z" fill="#302d30" opacity="0.31"/>
  <path d="M20,11h1v1h-1zM123,34h1v1h-1z" fill="#312e30" opacity="0.95"/>
  <path d="M29,11h1v1h-1zM101,36h1v1h-1z" fill="#312e31" opacity="0.59"/>
  <path d="M44,11h1v1h-1z" fill="#70adad" opacity="0.10"/>
  <path d="M45,11h1v1h-1z" fill="#76b0b1" opacity="0.94"/>
  <path d="M55,11h1v1h-1z" fill="#66a3ac" opacity="1.00"/>
  <path d="M56,11h1v1h-1z" fill="#629fa9" opacity="0.67"/>
  <path d="M86,11h1v1h-1z" fill="#322d32" opacity="0.40"/>
  <path d="M133,11h1v1h-1zM139,22h1v1h-1zM100,36h1v1h-1z" fill="#333333" opacity="0.04"/>
  <path d="M144,11h1v1h-1z" fill="#312e31" opacity="0.76"/>
  <path d="M20,12h1v1h-1z" fill="#312d31" opacity="0.29"/>
  <path d="M44,12h1v1h-1zM42,14h1v1h-1z" fill="#ffdd00" opacity="0.15"/>
  <path d="M45,12h1v1h-1z" fill="#e6d41f" opacity="0.84"/>
  <path d="M46,12h1v1h-1z" fill="#84b49e" opacity="1.00"/>
  <path d="M55,12h1v1h-1z" fill="#97b16e" opacity="0.99"/>
  <path d="M56,12h1v1h-1z" fill="#f3ba18" opacity="0.58"/>
  <path d="M87,12h1v1h-1z" fill="#322f31" opacity="0.66"/>
  <path d="M133,12h1v1h-1z" fill="#323030" opacity="0.46"/>
  <path d="M145,12h1v1h-1zM99,21h1v1h-1z" fill="#322e2e" opacity="0.28"/>
  <path d="M20,13h1v1h-1z" fill="#331a1a" opacity="0.04"/>
  <path d="M43,13h1v1h-1z" fill="#ffdb00" opacity="0.11"/>
  <path d="M44,13h1v1h-1z" fill="#ffdc00" opacity="0.85"/>
  <path d="M45,13h1v1h-1zM44,14h1v1h-1zM45,14h1v1h-1zM46,14h1v1h-1zM43,15h1v1h-1zM44,15h1v1h-1zM45,15h1v1h-1zM46,15h1v1h-1zM47,15h1v1h-1zM53,15h1v1h-1zM54,15h1v1h-1zM42,16h1v1h-1zM43,16h1v1h-1zM44,16h1v1h-1zM45,16h1v1h-1zM46,16h1v1h-1zM47,16h1v1h-1zM48,16h1v1h-1zM52,16h1v1h-1zM53,16h1v1h-1zM54,16h1v1h-1zM42,17h1v1h-1zM43,17h1v1h-1zM44,17h1v1h-1zM45,17h1v1h-1zM46,17h1v1h-1zM47,17h1v1h-1zM48,17h1v1h-1zM49,17h1v1h-1zM52,17h1v1h-1zM53,17h1v1h-1zM54,17h1v1h-1zM43,18h1v1h-1zM44,18h1v1h-1zM45,18h1v1h-1zM46,18h1v1h-1zM47,18h1v1h-1zM48,18h1v1h-1zM49,18h1v1h-1zM53,18h1v1h-1zM54,18h1v1h-1zM43,19h1v1h-1zM44,19h1v1h-1zM45,19h1v1h-1zM46,19h1v1h-1zM47,19h1v1h-1zM48,19h1v1h-1zM49,19h1v1h-1zM54,19h1v1h-1zM60,19h1v1h-1zM41,20h1v1h-1zM45,20h1v1h-1zM46,20h1v1h-1zM47,20h1v1h-1zM48,20h1v1h-1zM49,20h1v1h-1zM59,20h1v1h-1zM60,20h1v1h-1zM41,21h1v1h-1zM42,21h1v1h-1zM46,21h1v1h-1zM47,21h1v1h-1zM48,21h1v1h-1zM49,21h1v1h-1zM58,21h1v1h-1zM59,21h1v1h-1zM60,21h1v1h-1zM41,22h1v1h-1zM42,22h1v1h-1zM43,22h1v1h-1zM46,22h1v1h-1zM47,22h1v1h-1zM48,22h1v1h-1zM49,22h1v1h-1zM57,22h1v1h-1zM58,22h1v1h-1zM59,22h1v1h-1zM60,22h1v1h-1zM41,23h1v1h-1zM42,23h1v1h-1zM43,23h1v1h-1zM45,23h1v1h-1zM46,23h1v1h-1zM47,23h1v1h-1zM48,23h1v1h-1zM49,23h1v1h-1zM58,23h1v1h-1zM59,23h1v1h-1zM60,23h1v1h-1zM41,24h1v1h-1zM42,24h1v1h-1zM44,24h1v1h-1zM45,24h1v1h-1zM46,24h1v1h-1zM47,24h1v1h-1zM48,24h1v1h-1zM49,24h1v1h-1zM58,24h1v1h-1zM59,24h1v1h-1zM60,24h1v1h-1zM41,25h1v1h-1zM43,25h1v1h-1zM44,25h1v1h-1zM45,25h1v1h-1zM46,25h1v1h-1zM47,25h1v1h-1zM48,25h1v1h-1zM49,25h1v1h-1zM54,25h1v1h-1zM60,25h1v1h-1zM42,26h1v1h-1zM43,26h1v1h-1zM44,26h1v1h-1zM45,26h1v1h-1zM46,26h1v1h-1zM47,26h1v1h-1zM48,26h1v1h-1zM49,26h1v1h-1zM53,26h1v1h-1zM54,26h1v1h-1zM42,27h1v1h-1zM43,27h1v1h-1zM44,27h1v1h-1zM45,27h1v1h-1zM46,27h1v1h-1zM47,27h1v1h-1zM48,27h1v1h-1zM49,27h1v1h-1zM52,27h1v1h-1zM53,27h1v1h-1zM54,27h1v1h-1zM41,28h1v1h-1zM42,28h1v1h-1zM43,28h1v1h-1zM44,28h1v1h-1zM45,28h1v1h-1zM46,28h1v1h-1zM47,28h1v1h-1zM48,28h1v1h-1zM49,28h1v1h-1zM53,28h1v1h-1zM54,28h1v1h-1zM41,29h1v1h-1zM42,29h1v1h-1zM43,29h1v1h-1zM44,29h1v1h-1zM45,29h1v1h-1zM46,29h1v1h-1zM47,29h1v1h-1zM48,29h1v1h-1zM49,29h1v1h-1zM54,29h1v1h-1zM60,29h1v1h-1zM41,30h1v1h-1zM42,30h1v1h-1zM43,30h1v1h-1zM44,30h1v1h-1zM45,30h1v1h-1zM46,30h1v1h-1zM47,30h1v1h-1zM48,30h1v1h-1zM49,30h1v1h-1zM60,30h1v1h-1zM41,31h1v1h-1zM42,31h1v1h-1zM43,31h1v1h-1zM44,31h1v1h-1zM45,31h1v1h-1zM46,31h1v1h-1zM47,31h1v1h-1zM48,31h1v1h-1zM49,31h1v1h-1zM59,31h1v1h-1zM60,31h1v1h-1zM41,32h1v1h-1zM42,32h1v1h-1zM43,32h1v1h-1zM44,32h1v1h-1zM45,32h1v1h-1zM46,32h1v1h-1zM47,32h1v1h-1zM48,32h1v1h-1zM49,32h1v1h-1zM58,32h1v1h-1zM59,32h1v1h-1zM60,32h1v1h-1zM41,33h1v1h-1zM42,33h1v1h-1zM43,33h1v1h-1zM44,33h1v1h-1zM45,33h1v1h-1zM46,33h1v1h-1zM47,33h1v1h-1zM48,33h1v1h-1zM49,33h1v1h-1zM58,33h1v1h-1zM59,33h1v1h-1zM60,33h1v1h-1zM41,34h1v1h-1zM42,34h1v1h-1zM43,34h1v1h-1zM44,34h1v1h-1zM45,34h1v1h-1zM46,34h1v1h-1zM47,34h1v1h-1zM48,34h1v1h-1zM49,34h1v1h-1zM59,34h1v1h-1zM60,34h1v1h-1zM41,35h1v1h-1zM42,35h1v1h-1zM43,35h1v1h-1zM44,35h1v1h-1zM45,35h1v1h-1zM46,35h1v1h-1zM47,35h1v1h-1zM48,35h1v1h-1zM49,35h1v1h-1zM60,35h1v1h-1zM41,36h1v1h-1zM42,36h1v1h-1zM43,36h1v1h-1zM44,36h1v1h-1zM45,36h1v1h-1zM46,36h1v1h-1zM47,36h1v1h-1zM48,36h1v1h-1zM49,36h1v1h-1zM54,36h1v1h-1zM41,37h1v1h-1zM42,37h1v1h-1zM43,37h1v1h-1zM44,37h1v1h-1zM45,37h1v1h-1zM46,37h1v1h-1zM47,37h1v1h-1zM48,37h1v1h-1zM49,37h1v1h-1zM53,37h1v1h-1zM54,37h1v1h-1zM42,38h1v1h-1zM43,38h1v1h-1zM44,38h1v1h-1zM45,38h1v1h-1zM46,38h1v1h-1zM47,38h1v1h-1zM48,38h1v1h-1zM49,38h1v1h-1zM52,38h1v1h-1zM53,38h1v1h-1zM54,38h1v1h-1zM43,39h1v1h-1zM44,39h1v1h-1zM45,39h1v1h-1zM46,39h1v1h-1zM47,39h1v1h-1zM53,39h1v1h-1zM54,39h1v1h-1zM43,40h1v1h-1zM44,40h1v1h-1zM45,40h1v1h-1zM46,40h1v1h-1zM47,40h1v1h-1zM54,40h1v1h-1zM45,41h1v1h-1zM46,41h1v1h-1zM45,42h1v1h-1z" fill="#ffdc00" opacity="1.00"/>
  <path d="M46,13h1v1h-1z" fill="#f1d811" opacity="1.00"/>
  <path d="M47,13h1v1h-1z" fill="#88b698" opacity="1.00"/>
  <path d="M53,13h1v1h-1z" fill="#5f9da8" opacity="1.00"/>
  <path d="M54,13h1v1h-1z" fill="#9bb469" opacity="1.00"/>
  <path d="M55,13h1v1h-1zM55,14h1v1h-1zM55,15h1v1h-1zM55,16h1v1h-1zM55,17h1v1h-1zM55,18h1v1h-1zM55,19h1v1h-1zM55,20h1v1h-1zM55,24h1v1h-1zM55,25h1v1h-1zM55,26h1v1h-1zM55,27h1v1h-1zM55,28h1v1h-1zM55,29h1v1h-1zM55,30h1v1h-1zM59,30h1v1h-1zM55,31h1v1h-1zM55,34h1v1h-1zM55,35h1v1h-1zM55,36h1v1h-1zM55,37h1v1h-1zM55,38h1v1h-1zM55,39h1v1h-1zM55,40h1v1h-1zM55,41h1v1h-1z" fill="#fed901" opacity="1.00"/>
  <path d="M56,13h1v1h-1zM56,14h1v1h-1zM56,15h1v1h-1zM56,16h1v1h-1zM56,17h1v1h-1zM56,18h1v1h-1zM56,19h1v1h-1zM56,20h1v1h-1zM54,21h1v1h-1zM56,24h1v1h-1zM56,25h1v1h-1zM56,26h1v1h-1zM56,27h1v1h-1zM56,28h1v1h-1zM56,29h1v1h-1zM56,30h1v1h-1zM56,31h1v1h-1zM56,34h1v1h-1zM56,35h1v1h-1zM56,36h1v1h-1zM56,37h1v1h-1zM56,38h1v1h-1zM56,39h1v1h-1zM56,40h1v1h-1zM56,41h1v1h-1z" fill="#fcbb11" opacity="1.00"/>
  <path d="M57,13h1v1h-1z" fill="#fbb712" opacity="0.54"/>
  <path d="M89,13h1v1h-1zM28,22h1v1h-1z" fill="#2d2d2d" opacity="0.18"/>
  <path d="M132,13h1v1h-1zM138,23h1v1h-1zM22,28h1v1h-1zM130,41h1v1h-1z" fill="#2c2c2c" opacity="0.11"/>
  <path d="M145,13h1v1h-1zM97,20h1v1h-1z" fill="#322e30" opacity="0.78"/>
  <path d="M21,14h1v1h-1z" fill="#322d30" opacity="0.64"/>
  <path d="M43,14h1v1h-1zM41,16h1v1h-1zM41,18h1v1h-1zM45,22h1v1h-1z" fill="#ffdc00" opacity="0.92"/>
  <path d="M47,14h1v1h-1z" fill="#ecd517" opacity="1.00"/>
  <path d="M48,14h1v1h-1z" fill="#7bb1a9" opacity="1.00"/>
  <path d="M53,14h1v1h-1z" fill="#94b170" opacity="1.00"/>
  <path d="M54,14h1v1h-1z" fill="#fada04" opacity="1.00"/>
  <path d="M57,14h1v1h-1z" fill="#fcb812" opacity="0.98"/>
  <path d="M58,14h1v1h-1z" fill="#fdb912" opacity="0.65"/>
  <path d="M89,14h1v1h-1zM89,26h1v1h-1zM142,26h1v1h-1z" fill="#322f31" opacity="0.94"/>
  <path d="M90,14h1v1h-1z" fill="#312c2f" opacity="0.38"/>
  <path d="M132,14h1v1h-1z" fill="#322d32" opacity="0.46"/>
  <path d="M146,14h1v1h-1z" fill="#303030" opacity="0.13"/>
  <path d="M21,15h1v1h-1zM130,40h1v1h-1z" fill="#322e30" opacity="0.56"/>
  <path d="M30,15h1v1h-1z" fill="#312b31" opacity="0.18"/>
  <path d="M41,15h1v1h-1z" fill="#ffdb00" opacity="0.14"/>
  <path d="M42,15h1v1h-1z" fill="#ffdc00" opacity="0.83"/>
  <path d="M48,15h1v1h-1z" fill="#efd713" opacity="1.00"/>
  <path d="M49,15h1v1h-1z" fill="#8bb695" opacity="1.00"/>
  <path d="M52,15h1v1h-1z" fill="#a0b663" opacity="1.00"/>
  <path d="M57,15h1v1h-1zM57,16h1v1h-1zM58,16h1v1h-1zM59,16h1v1h-1zM57,17h1v1h-1zM58,17h1v1h-1zM59,17h1v1h-1zM57,18h1v1h-1zM58,18h1v1h-1zM57,19h1v1h-1zM52,20h1v1h-1zM52,21h1v1h-1zM53,21h1v1h-1zM52,22h1v1h-1zM53,22h1v1h-1zM54,22h1v1h-1zM52,23h1v1h-1zM53,23h1v1h-1zM52,24h1v1h-1zM57,25h1v1h-1zM57,26h1v1h-1zM58,26h1v1h-1zM57,27h1v1h-1zM58,27h1v1h-1zM59,27h1v1h-1zM57,28h1v1h-1zM58,28h1v1h-1zM59,28h1v1h-1zM57,29h1v1h-1zM57,30h1v1h-1zM52,31h1v1h-1zM52,32h1v1h-1zM53,32h1v1h-1zM52,33h1v1h-1zM53,33h1v1h-1zM54,33h1v1h-1zM52,34h1v1h-1zM52,35h1v1h-1zM57,36h1v1h-1zM57,37h1v1h-1zM58,37h1v1h-1zM59,37h1v1h-1zM57,38h1v1h-1zM58,38h1v1h-1zM59,38h1v1h-1zM50,39h1v1h-1zM57,39h1v1h-1zM58,39h1v1h-1zM50,40h1v1h-1zM51,40h1v1h-1zM57,40h1v1h-1zM48,41h1v1h-1zM49,41h1v1h-1zM50,41h1v1h-1zM51,41h1v1h-1zM52,41h1v1h-1zM47,42h1v1h-1zM48,42h1v1h-1zM49,42h1v1h-1zM50,42h1v1h-1zM51,42h1v1h-1zM52,42h1v1h-1zM53,42h1v1h-1z" fill="#fcb813" opacity="1.00"/>
  <path d="M58,15h1v1h-1z" fill="#fcb712" opacity="0.99"/>
  <path d="M59,15h1v1h-1z" fill="#fbb812" opacity="0.56"/>
  <path d="M91,15h1v1h-1z" fill="#302d30" opacity="0.56"/>
  <path d="M132,15h1v1h-1zM153,30h1v1h-1z" fill="#312f30" opacity="0.85"/>
  <path d="M146,15h1v1h-1zM126,27h1v1h-1zM91,28h1v1h-1z" fill="#312e31" opacity="0.69"/>
  <path d="M21,16h1v1h-1zM92,16h1v1h-1z" fill="#322e31" opacity="0.72"/>
  <path d="M40,16h1v1h-1z" fill="#ffd700" opacity="0.13"/>
  <path d="M49,16h1v1h-1z" fill="#f1d711" opacity="1.00"/>
  <path d="M50,16h1v1h-1z" fill="#81b29b" opacity="1.00"/>
  <path d="M51,16h1v1h-1z" fill="#98b36d" opacity="1.00"/>
  <path d="M60,16h1v1h-1z" fill="#fcb813" opacity="0.64"/>
  <path d="M131,16h1v1h-1z" fill="#312f31" opacity="0.45"/>
  <path d="M147,16h1v1h-1z" fill="#302c30" opacity="0.23"/>
  <path d="M20,17h1v1h-1z" fill="#313131" opacity="0.08"/>
  <path d="M21,17h1v1h-1zM26,24h1v1h-1z" fill="#312f31" opacity="0.92"/>
  <path d="M40,17h1v1h-1zM40,38h1v1h-1z" fill="#ffdc00" opacity="0.52"/>
  <path d="M41,17h1v1h-1zM41,19h1v1h-1zM45,21h1v1h-1z" fill="#ffdd00" opacity="0.99"/>
  <path d="M50,17h1v1h-1z" fill="#f1d410" opacity="1.00"/>
  <path d="M51,17h1v1h-1z" fill="#fbd805" opacity="1.00"/>
  <path d="M60,17h1v1h-1z" fill="#fcbb10" opacity="0.98"/>
  <path d="M61,17h1v1h-1z" fill="#ffcf04" opacity="0.23"/>
  <path d="M93,17h1v1h-1z" fill="#322e30" opacity="0.87"/>
  <path d="M94,17h1v1h-1zM148,41h1v1h-1z" fill="#312d31" opacity="0.22"/>
  <path d="M130,17h1v1h-1zM136,28h1v1h-1zM108,42h1v1h-1z" fill="#242424" opacity="0.05"/>
  <path d="M147,17h1v1h-1z" fill="#312e2f" opacity="0.57"/>
  <path d="M20,18h1v1h-1z" fill="#302e30" opacity="0.42"/>
  <path d="M29,18h1v1h-1zM143,29h1v1h-1z" fill="#312f30" opacity="0.79"/>
  <path d="M40,18h1v1h-1zM42,40h1v1h-1zM43,41h1v1h-1z" fill="#ffdb00" opacity="0.65"/>
  <path d="M42,18h1v1h-1zM44,20h1v1h-1zM43,21h1v1h-1zM41,27h1v1h-1zM41,38h1v1h-1zM42,39h1v1h-1zM44,41h1v1h-1z" fill="#ffdc00" opacity="0.99"/>
  <path d="M50,18h1v1h-1zM50,19h1v1h-1zM50,20h1v1h-1zM50,21h1v1h-1zM55,21h1v1h-1zM50,22h1v1h-1zM56,22h1v1h-1zM50,23h1v1h-1zM50,24h1v1h-1zM54,24h1v1h-1zM50,25h1v1h-1zM50,26h1v1h-1zM50,29h1v1h-1zM50,30h1v1h-1zM50,31h1v1h-1zM50,32h1v1h-1zM50,33h1v1h-1zM50,34h1v1h-1zM50,35h1v1h-1zM50,36h1v1h-1zM50,37h1v1h-1z" fill="#fed503" opacity="1.00"/>
  <path d="M51,18h1v1h-1zM52,19h1v1h-1zM57,20h1v1h-1zM52,25h1v1h-1zM58,25h1v1h-1zM51,26h1v1h-1zM59,26h1v1h-1z" fill="#fcbc10" opacity="1.00"/>
  <path d="M52,18h1v1h-1zM54,20h1v1h-1zM57,23h1v1h-1zM59,25h1v1h-1zM60,26h1v1h-1z" fill="#fed602" opacity="1.00"/>
  <path d="M59,18h1v1h-1zM54,23h1v1h-1zM60,27h1v1h-1z" fill="#fcbb10" opacity="1.00"/>
  <path d="M60,18h1v1h-1z" fill="#fed204" opacity="1.00"/>
  <path d="M61,18h1v1h-1zM61,19h1v1h-1zM61,20h1v1h-1zM61,21h1v1h-1zM61,22h1v1h-1zM61,23h1v1h-1zM61,24h1v1h-1zM61,25h1v1h-1zM61,26h1v1h-1zM61,29h1v1h-1zM61,30h1v1h-1zM61,31h1v1h-1zM61,32h1v1h-1zM61,33h1v1h-1zM61,34h1v1h-1zM61,35h1v1h-1zM61,36h1v1h-1zM61,37h1v1h-1z" fill="#ffdc00" opacity="0.29"/>
  <path d="M95,18h1v1h-1z" fill="#312f31" opacity="0.41"/>
  <path d="M130,18h1v1h-1z" fill="#2f2c2f" opacity="0.30"/>
  <path d="M147,18h1v1h-1z" fill="#312f30" opacity="0.92"/>
  <path d="M19,19h1v1h-1z" fill="#322d2f" opacity="0.40"/>
  <path d="M29,19h1v1h-1z" fill="#312f2f" opacity="0.51"/>
  <path d="M40,19h1v1h-1zM40,20h1v1h-1zM40,21h1v1h-1zM40,22h1v1h-1zM40,23h1v1h-1zM40,24h1v1h-1zM40,25h1v1h-1z" fill="#ffdd00" opacity="0.67"/>
  <path d="M42,19h1v1h-1zM41,26h1v1h-1z" fill="#ffdc00" opacity="0.91"/>
  <path d="M51,19h1v1h-1zM51,20h1v1h-1zM51,21h1v1h-1zM51,22h1v1h-1zM51,23h1v1h-1zM51,24h1v1h-1zM51,25h1v1h-1zM51,29h1v1h-1zM51,30h1v1h-1zM52,30h1v1h-1zM51,31h1v1h-1zM51,32h1v1h-1zM51,33h1v1h-1zM51,34h1v1h-1zM51,35h1v1h-1zM51,36h1v1h-1zM49,40h1v1h-1z" fill="#fcb912" opacity="1.00"/>
  <path d="M53,19h1v1h-1zM52,28h1v1h-1zM53,29h1v1h-1zM54,30h1v1h-1zM58,31h1v1h-1zM57,33h1v1h-1zM58,34h1v1h-1zM59,35h1v1h-1zM53,36h1v1h-1zM60,36h1v1h-1zM52,37h1v1h-1zM53,40h1v1h-1z" fill="#ffdb00" opacity="1.00"/>
  <path d="M58,19h1v1h-1zM53,24h1v1h-1zM58,29h1v1h-1zM53,31h1v1h-1zM54,32h1v1h-1zM53,34h1v1h-1zM57,35h1v1h-1zM58,36h1v1h-1z" fill="#fcb812" opacity="1.00"/>
  <path d="M59,19h1v1h-1zM53,25h1v1h-1z" fill="#fed403" opacity="1.00"/>
  <path d="M96,19h1v1h-1z" fill="#322f32" opacity="0.75"/>
  <path d="M130,19h1v1h-1zM149,42h1v1h-1z" fill="#312e31" opacity="0.80"/>
  <path d="M148,19h1v1h-1zM147,38h1v1h-1z" fill="#322e31" opacity="0.66"/>
  <path d="M9,20h1v1h-1z" fill="#322f2f" opacity="0.28"/>
  <path d="M17,20h1v1h-1z" fill="#312e2e" opacity="0.35"/>
  <path d="M29,20h1v1h-1z" fill="#312d2d" opacity="0.22"/>
  <path d="M42,20h1v1h-1z" fill="#ffdc00" opacity="0.96"/>
  <path d="M43,20h1v1h-1z" fill="#ffdc00" opacity="0.93"/>
  <path d="M53,20h1v1h-1zM57,24h1v1h-1z" fill="#fcbc11" opacity="1.00"/>
  <path d="M58,20h1v1h-1zM57,21h1v1h-1zM52,26h1v1h-1z" fill="#fed304" opacity="1.00"/>
  <path d="M98,20h1v1h-1zM149,20h1v1h-1zM99,35h1v1h-1z" fill="#2c2c2c" opacity="0.14"/>
  <path d="M148,20h1v1h-1zM138,21h1v1h-1zM137,23h1v1h-1zM127,26h1v1h-1zM22,27h1v1h-1z" fill="#322f31" opacity="0.96"/>
  <path d="M28,21h1v1h-1zM140,22h1v1h-1zM157,39h1v1h-1z" fill="#322f31" opacity="0.86"/>
  <path d="M44,21h1v1h-1z" fill="#ffdc00" opacity="0.95"/>
  <path d="M56,21h1v1h-1zM53,41h1v1h-1z" fill="#fcbe0f" opacity="1.00"/>
  <path d="M139,21h1v1h-1zM158,40h1v1h-1z" fill="#302e30" opacity="0.52"/>
  <path d="M149,21h1v1h-1z" fill="#302d30" opacity="0.46"/>
  <path d="M44,22h1v1h-1z" fill="#ffdc00" opacity="0.98"/>
  <path d="M55,22h1v1h-1zM51,39h1v1h-1z" fill="#fcbd10" opacity="1.00"/>
  <path d="M82,22h1v1h-1z" fill="#322e31" opacity="0.93"/>
  <path d="M83,22h1v1h-1z" fill="#312f2f" opacity="0.36"/>
  <path d="M138,22h1v1h-1z" fill="#312f31" opacity="0.72"/>
  <path d="M149,22h1v1h-1z" fill="#312f30" opacity="0.93"/>
  <path d="M27,23h1v1h-1z" fill="#312e30" opacity="0.59"/>
  <path d="M44,23h1v1h-1z" fill="#ffdb00" opacity="0.93"/>
  <path d="M55,23h1v1h-1z" fill="#fecf05" opacity="1.00"/>
  <path d="M56,23h1v1h-1z" fill="#fcbf0f" opacity="1.00"/>
  <path d="M82,23h1v1h-1zM82,24h1v1h-1zM82,25h1v1h-1zM82,26h1v1h-1zM82,27h1v1h-1zM82,28h1v1h-1zM82,29h1v1h-1zM82,30h1v1h-1zM82,31h1v1h-1zM82,32h1v1h-1zM82,33h1v1h-1zM82,34h1v1h-1zM99,34h1v1h-1zM82,35h1v1h-1zM82,36h1v1h-1zM82,37h1v1h-1zM82,38h1v1h-1zM82,39h1v1h-1zM82,40h1v1h-1zM82,41h1v1h-1zM82,42h1v1h-1z" fill="#322e31" opacity="0.91"/>
  <path d="M85,23h1v1h-1zM135,28h1v1h-1z" fill="#322e31" opacity="0.86"/>
  <path d="M128,23h1v1h-1z" fill="#322e31" opacity="0.74"/>
  <path d="M150,23h1v1h-1z" fill="#322e30" opacity="0.50"/>
  <path d="M43,24h1v1h-1z" fill="#ffdd00" opacity="0.88"/>
  <path d="M85,24h1v1h-1zM124,30h1v1h-1zM73,43h1v1h-1z" fill="#282828" opacity="0.07"/>
  <path d="M86,24h1v1h-1zM90,27h1v1h-1zM94,30h1v1h-1z" fill="#312e30" opacity="0.91"/>
  <path d="M127,24h1v1h-1z" fill="#2f2f2f" opacity="0.27"/>
  <path d="M137,24h1v1h-1z" fill="#322f30" opacity="0.66"/>
  <path d="M151,24h1v1h-1zM131,39h1v1h-1z" fill="#332233" opacity="0.06"/>
  <path d="M25,25h1v1h-1z" fill="#322e31" opacity="0.82"/>
  <path d="M26,25h1v1h-1z" fill="#312431" opacity="0.08"/>
  <path d="M42,25h1v1h-1z" fill="#ffdc00" opacity="0.94"/>
  <path d="M141,25h1v1h-1z" fill="#302f30" opacity="0.58"/>
  <path d="M24,26h1v1h-1z" fill="#312f31" opacity="0.74"/>
  <path d="M40,26h1v1h-1z" fill="#ffdb00" opacity="0.66"/>
  <path d="M88,26h1v1h-1zM122,35h1v1h-1z" fill="#312e31" opacity="0.41"/>
  <path d="M40,27h1v1h-1z" fill="#ffdc00" opacity="0.57"/>
  <path d="M50,27h1v1h-1zM52,39h1v1h-1z" fill="#fed801" opacity="1.00"/>
  <path d="M51,27h1v1h-1zM54,41h1v1h-1zM55,42h1v1h-1z" fill="#fed702" opacity="1.00"/>
  <path d="M61,27h1v1h-1z" fill="#ffd203" opacity="0.29"/>
  <path d="M89,27h1v1h-1z" fill="#313131" opacity="0.16"/>
  <path d="M136,27h1v1h-1z" fill="#322e32" opacity="0.26"/>
  <path d="M142,27h1v1h-1z" fill="#322e30" opacity="0.60"/>
  <path d="M152,27h1v1h-1z" fill="#312e31" opacity="0.39"/>
  <path d="M21,28h1v1h-1z" fill="#312e2f" opacity="0.55"/>
  <path d="M40,28h1v1h-1zM40,29h1v1h-1zM40,30h1v1h-1zM40,31h1v1h-1zM40,32h1v1h-1zM40,33h1v1h-1zM40,34h1v1h-1zM40,35h1v1h-1zM40,36h1v1h-1zM40,37h1v1h-1z" fill="#ffdc00" opacity="0.76"/>
  <path d="M50,28h1v1h-1z" fill="#fed603" opacity="1.00"/>
  <path d="M51,28h1v1h-1z" fill="#fdcd07" opacity="1.00"/>
  <path d="M60,28h1v1h-1zM58,30h1v1h-1z" fill="#fdc20c" opacity="1.00"/>
  <path d="M61,28h1v1h-1z" fill="#ffd500" opacity="0.29"/>
  <path d="M90,28h1v1h-1z" fill="#2f2f2f" opacity="0.11"/>
  <path d="M126,28h1v1h-1zM129,41h1v1h-1z" fill="#312f30" opacity="0.94"/>
  <path d="M142,28h1v1h-1z" fill="#2f2b2f" opacity="0.25"/>
  <path d="M9,29h1v1h-1z" fill="#312f31" opacity="0.87"/>
  <path d="M10,29h1v1h-1zM11,29h1v1h-1zM12,29h1v1h-1zM13,29h1v1h-1zM14,29h1v1h-1zM15,29h1v1h-1zM16,29h1v1h-1z" fill="#312f31" opacity="0.84"/>
  <path d="M17,29h1v1h-1z" fill="#302f30" opacity="0.62"/>
  <path d="M18,29h1v1h-1z" fill="#312d31" opacity="0.27"/>
  <path d="M19,29h1v1h-1z" fill="#333333" opacity="0.06"/>
  <path d="M52,29h1v1h-1zM56,33h1v1h-1z" fill="#fdcb08" opacity="1.00"/>
  <path d="M59,29h1v1h-1zM54,34h1v1h-1zM51,37h1v1h-1z" fill="#fdc30c" opacity="1.00"/>
  <path d="M92,29h1v1h-1z" fill="#302e30" opacity="0.54"/>
  <path d="M125,29h1v1h-1z" fill="#302e30" opacity="0.47"/>
  <path d="M135,29h1v1h-1z" fill="#312e31" opacity="0.55"/>
  <path d="M153,29h1v1h-1z" fill="#302c2c" opacity="0.23"/>
  <path d="M53,30h1v1h-1z" fill="#fdc70a" opacity="1.00"/>
  <path d="M93,30h1v1h-1z" fill="#312e2e" opacity="0.31"/>
  <path d="M125,30h1v1h-1z" fill="#312e30" opacity="0.94"/>
  <path d="M136,30h1v1h-1zM137,30h1v1h-1zM138,30h1v1h-1zM139,30h1v1h-1zM140,30h1v1h-1zM141,30h1v1h-1zM142,30h1v1h-1z" fill="#312f30" opacity="0.82"/>
  <path d="M54,31h1v1h-1z" fill="#fdca09" opacity="1.00"/>
  <path d="M57,31h1v1h-1z" fill="#fdc40c" opacity="1.00"/>
  <path d="M94,31h1v1h-1z" fill="#322c2c" opacity="0.18"/>
  <path d="M124,31h1v1h-1zM129,42h1v1h-1z" fill="#312e30" opacity="0.53"/>
  <path d="M154,31h1v1h-1z" fill="#322e2e" opacity="0.24"/>
  <path d="M55,32h1v1h-1z" fill="#fcc40c" opacity="1.00"/>
  <path d="M56,32h1v1h-1z" fill="#fdc60a" opacity="1.00"/>
  <path d="M57,32h1v1h-1z" fill="#feda00" opacity="1.00"/>
  <path d="M95,32h1v1h-1z" fill="#331a33" opacity="0.04"/>
  <path d="M96,32h1v1h-1z" fill="#312e30" opacity="0.73"/>
  <path d="M154,32h1v1h-1z" fill="#312f31" opacity="0.68"/>
  <path d="M55,33h1v1h-1z" fill="#fdc10d" opacity="1.00"/>
  <path d="M97,33h1v1h-1z" fill="#322e30" opacity="0.48"/>
  <path d="M123,33h1v1h-1z" fill="#2f2f2f" opacity="0.34"/>
  <path d="M155,33h1v1h-1zM103,38h1v1h-1z" fill="#2f2f2f" opacity="0.19"/>
  <path d="M57,34h1v1h-1zM59,36h1v1h-1z" fill="#fdc909" opacity="1.00"/>
  <path d="M98,34h1v1h-1z" fill="#322c32" opacity="0.18"/>
  <path d="M53,35h1v1h-1z" fill="#fdc20d" opacity="1.00"/>
  <path d="M54,35h1v1h-1z" fill="#fed900" opacity="1.00"/>
  <path d="M58,35h1v1h-1z" fill="#fcc70a" opacity="1.00"/>
  <path d="M100,35h1v1h-1zM120,40h1v1h-1z" fill="#312e30" opacity="0.71"/>
  <path d="M52,36h1v1h-1z" fill="#fdc40b" opacity="1.00"/>
  <path d="M122,36h1v1h-1z" fill="#322e31" opacity="0.78"/>
  <path d="M156,36h1v1h-1z" fill="#312f31" opacity="0.58"/>
  <path d="M60,37h1v1h-1z" fill="#fdc50b" opacity="1.00"/>
  <path d="M102,37h1v1h-1z" fill="#312f31" opacity="0.36"/>
  <path d="M121,37h1v1h-1z" fill="#322e2e" opacity="0.30"/>
  <path d="M50,38h1v1h-1z" fill="#fed005" opacity="1.00"/>
  <path d="M51,38h1v1h-1z" fill="#fed701" opacity="1.00"/>
  <path d="M60,38h1v1h-1z" fill="#fcb912" opacity="0.95"/>
  <path d="M61,38h1v1h-1z" fill="#ffbf06" opacity="0.17"/>
  <path d="M104,38h1v1h-1z" fill="#312f30" opacity="0.84"/>
  <path d="M121,38h1v1h-1z" fill="#312e31" opacity="0.84"/>
  <path d="M131,38h1v1h-1z" fill="#2f2c2f" opacity="0.38"/>
  <path d="M157,38h1v1h-1z" fill="#312f2f" opacity="0.53"/>
  <path d="M41,39h1v1h-1z" fill="#ffde00" opacity="0.72"/>
  <path d="M48,39h1v1h-1z" fill="#fedb00" opacity="1.00"/>
  <path d="M49,39h1v1h-1z" fill="#fdd006" opacity="1.00"/>
  <path d="M59,39h1v1h-1z" fill="#fcb813" opacity="0.96"/>
  <path d="M60,39h1v1h-1z" fill="#fdb911" opacity="0.42"/>
  <path d="M104,39h1v1h-1z" fill="#332222" opacity="0.06"/>
  <path d="M120,39h1v1h-1z" fill="#322e2e" opacity="0.22"/>
  <path d="M48,40h1v1h-1z" fill="#fed105" opacity="1.00"/>
  <path d="M52,40h1v1h-1z" fill="#fcbf0e" opacity="1.00"/>
  <path d="M58,40h1v1h-1z" fill="#fcb912" opacity="0.98"/>
  <path d="M59,40h1v1h-1z" fill="#fcb70f" opacity="0.33"/>
  <path d="M106,40h1v1h-1z" fill="#302e30" opacity="0.48"/>
  <path d="M148,40h1v1h-1z" fill="#312f31" opacity="0.79"/>
  <path d="M42,41h1v1h-1z" fill="#ffdb00" opacity="0.05"/>
  <path d="M47,41h1v1h-1z" fill="#fdce07" opacity="1.00"/>
  <path d="M57,41h1v1h-1z" fill="#fcb712" opacity="0.93"/>
  <path d="M58,41h1v1h-1z" fill="#fcb910" opacity="0.37"/>
  <path d="M107,41h1v1h-1z" fill="#322f2f" opacity="0.34"/>
  <path d="M119,41h1v1h-1z" fill="#2f2f2f" opacity="0.24"/>
  <path d="M149,41h1v1h-1z" fill="#312f30" opacity="0.98"/>
  <path d="M159,41h1v1h-1z" fill="#292929" opacity="0.10"/>
  <path d="M44,42h1v1h-1z" fill="#ffdd00" opacity="0.68"/>
  <path d="M46,42h1v1h-1z" fill="#fed006" opacity="1.00"/>
  <path d="M54,42h1v1h-1z" fill="#fcbd0f" opacity="1.00"/>
  <path d="M56,42h1v1h-1z" fill="#fdbc10" opacity="0.98"/>
  <path d="M57,42h1v1h-1z" fill="#fcb912" opacity="0.34"/>
  <path d="M109,42h1v1h-1z" fill="#322d30" opacity="0.71"/>
  <path d="M119,42h1v1h-1z" fill="#312e31" opacity="0.71"/>
  <path d="M0,43h1v1h-1zM1,43h1v1h-1zM2,43h1v1h-1zM3,43h1v1h-1zM4,43h1v1h-1zM5,43h1v1h-1zM6,43h1v1h-1zM7,43h1v1h-1zM74,43h1v1h-1zM75,43h1v1h-1zM76,43h1v1h-1zM77,43h1v1h-1zM78,43h1v1h-1zM79,43h1v1h-1zM80,43h1v1h-1zM81,43h1v1h-1zM120,43h1v1h-1zM121,43h1v1h-1zM122,43h1v1h-1zM123,43h1v1h-1zM124,43h1v1h-1zM125,43h1v1h-1zM126,43h1v1h-1zM127,43h1v1h-1zM150,43h1v1h-1zM151,43h1v1h-1zM152,43h1v1h-1zM153,43h1v1h-1zM154,43h1v1h-1zM155,43h1v1h-1zM156,43h1v1h-1zM157,43h1v1h-1zM158,43h1v1h-1z" fill="#312e30" opacity="0.61"/>
  <path d="M8,43h1v1h-1z" fill="#302e30" opacity="0.60"/>
  <path d="M44,43h1v1h-1z" fill="#ffd400" opacity="0.05"/>
  <path d="M45,43h1v1h-1z" fill="#ffd502" opacity="0.47"/>
  <path d="M46,43h1v1h-1z" fill="#fcba10" opacity="0.61"/>
  <path d="M47,43h1v1h-1zM48,43h1v1h-1zM49,43h1v1h-1zM50,43h1v1h-1zM51,43h1v1h-1zM52,43h1v1h-1zM53,43h1v1h-1zM54,43h1v1h-1z" fill="#fcb712" opacity="0.61"/>
  <path d="M55,43h1v1h-1z" fill="#fdc00d" opacity="0.60"/>
  <path d="M56,43h1v1h-1z" fill="#fcbd0e" opacity="0.29"/>
  <path d="M82,43h1v1h-1z" fill="#312f2f" opacity="0.55"/>
  <path d="M119,43h1v1h-1z" fill="#302f30" opacity="0.56"/>
  <path d="M128,43h1v1h-1z" fill="#312d31" opacity="0.60"/>
  <path d="M129,43h1v1h-1z" fill="#302930" opacity="0.15"/>
  <path d="M149,43h1v1h-1z" fill="#302d30" opacity="0.33"/>
  <path d="M159,43h1v1h-1z" fill="#312f31" opacity="0.47"/>
</svg>