<svg width="465" height="276" viewBox="0 0 465 276" fill="none" xmlns="http://www.w3.org/2000/svg">
<path d="M30.9966 275.5V0.5M465.004 31.615H-0.00390625M465.004 62.6009H-0.00390625M465.004 93.5869H-0.00390625M465.004 124.573H-0.00390625M465.004 155.559H-0.00390625M465.004 186.545H-0.00390625M465.004 217.531H-0.00390625M465.004 248.516H-0.00390625M61.9972 275.242V0.5M92.9977 275.242V0.5M123.998 275.242V0.5M154.999 275.242V0.5M185.999 275.242V0.5M217 275.242V0.5M248 275.242V0.5M279.001 275.242V0.5M310.001 275.242V0.5M341.002 275.242V0.5M372.003 275.242V0.5M403.003 275.242V0.5M434.004 275.242V0.5" stroke="url(#paint0_radial_2226_5174)" stroke-width="0.444984"/>
<defs>
<radialGradient id="paint0_radial_2226_5174" cx="0" cy="0" r="1" gradientUnits="userSpaceOnUse" gradientTransform="translate(232.5 138) rotate(90) scale(137.5 232.504)">
<stop offset="0.175" stop-color="#263045"/>
<stop offset="1" stop-color="#111827"/>
</radialGradient>
</defs>
</svg>
