<svg xmlns="http://www.w3.org/2000/svg" viewBox="0 0 160 160" width="100%" height="100%">
  <path d="M107,29h1v1h-1z" fill="#6e66aa" opacity="0.12"/>
  <path d="M98,30h1v1h-1zM106,40h1v1h-1zM61,54h1v1h-1zM62,66h1v1h-1zM105,70h1v1h-1zM51,86h1v1h-1zM62,108h1v1h-1zM115,108h1v1h-1z" fill="#6a5595" opacity="0.05"/>
  <path d="M105,30h1v1h-1zM123,68h1v1h-1z" fill="#64599b" opacity="0.09"/>
  <path d="M106,30h1v1h-1zM103,64h1v1h-1zM73,87h1v1h-1z" fill="#6a64a4" opacity="0.52"/>
  <path d="M107,30h1v1h-1zM36,47h1v1h-1zM103,75h1v1h-1zM68,79h1v1h-1zM49,89h1v1h-1z" fill="#6a64a5" opacity="0.67"/>
  <path d="M108,30h1v1h-1zM33,61h1v1h-1zM95,76h1v1h-1zM104,77h1v1h-1zM108,78h1v1h-1zM65,79h1v1h-1zM47,80h1v1h-1zM66,82h1v1h-1zM90,123h1v1h-1z" fill="#6a63a5" opacity="0.44"/>
  <path d="M96,31h1v1h-1zM53,81h1v1h-1z" fill="#6d66a8" opacity="0.14"/>
  <path d="M97,31h1v1h-1z" fill="#6b65a5" opacity="0.49"/>
  <path d="M98,31h1v1h-1zM125,49h1v1h-1zM119,68h1v1h-1zM78,126h1v1h-1z" fill="#6a64a4" opacity="0.59"/>
  <path d="M99,31h1v1h-1zM80,51h1v1h-1zM64,71h1v1h-1zM121,81h1v1h-1zM117,86h1v1h-1z" fill="#6a63a3" opacity="0.28"/>
  <path d="M105,31h1v1h-1zM63,67h1v1h-1zM88,89h1v1h-1z" fill="#6a62a4" opacity="0.40"/>
  <path d="M106,31h1v1h-1zM104,42h1v1h-1zM99,51h1v1h-1zM59,70h1v1h-1zM124,80h1v1h-1zM100,82h1v1h-1zM91,88h1v1h-1zM119,100h1v1h-1zM120,102h1v1h-1z" fill="#6a65a5" opacity="0.93"/>
  <path d="M107,31h1v1h-1zM107,32h1v1h-1zM97,34h1v1h-1zM106,34h1v1h-1zM51,35h1v1h-1zM97,35h1v1h-1zM106,35h1v1h-1zM46,36h1v1h-1zM47,36h1v1h-1zM48,36h1v1h-1zM49,36h1v1h-1zM50,36h1v1h-1zM51,36h1v1h-1zM52,36h1v1h-1zM45,37h1v1h-1zM46,37h1v1h-1zM96,37h1v1h-1zM105,37h1v1h-1zM44,38h1v1h-1zM96,38h1v1h-1zM105,38h1v1h-1zM43,39h1v1h-1zM42,40h1v1h-1zM43,40h1v1h-1zM95,40h1v1h-1zM104,40h1v1h-1zM42,41h1v1h-1zM95,41h1v1h-1zM104,41h1v1h-1zM42,42h1v1h-1zM41,43h1v1h-1zM94,43h1v1h-1zM103,43h1v1h-1zM119,43h1v1h-1zM41,44h1v1h-1zM53,44h1v1h-1zM54,44h1v1h-1zM94,44h1v1h-1zM103,44h1v1h-1zM111,44h1v1h-1zM118,44h1v1h-1zM40,45h1v1h-1zM41,45h1v1h-1zM46,45h1v1h-1zM47,45h1v1h-1zM80,45h1v1h-1zM81,45h1v1h-1zM117,45h1v1h-1zM118,45h1v1h-1zM40,46h1v1h-1zM41,46h1v1h-1zM42,46h1v1h-1zM78,46h1v1h-1zM82,46h1v1h-1zM83,46h1v1h-1zM84,46h1v1h-1zM85,46h1v1h-1zM102,46h1v1h-1zM118,46h1v1h-1zM39,47h1v1h-1zM40,47h1v1h-1zM66,47h1v1h-1zM67,47h1v1h-1zM68,47h1v1h-1zM83,47h1v1h-1zM84,47h1v1h-1zM93,47h1v1h-1zM102,47h1v1h-1zM110,47h1v1h-1zM39,48h1v1h-1zM68,48h1v1h-1zM83,48h1v1h-1zM84,48h1v1h-1zM109,48h1v1h-1zM39,49h1v1h-1zM60,49h1v1h-1zM68,49h1v1h-1zM83,49h1v1h-1zM84,49h1v1h-1zM92,49h1v1h-1zM101,49h1v1h-1zM108,49h1v1h-1zM109,49h1v1h-1zM39,50h1v1h-1zM52,50h1v1h-1zM60,50h1v1h-1zM61,50h1v1h-1zM83,50h1v1h-1zM84,50h1v1h-1zM92,50h1v1h-1zM100,50h1v1h-1zM101,50h1v1h-1zM109,50h1v1h-1zM38,51h1v1h-1zM59,51h1v1h-1zM60,51h1v1h-1zM83,51h1v1h-1zM84,51h1v1h-1zM91,51h1v1h-1zM92,51h1v1h-1zM101,51h1v1h-1zM109,51h1v1h-1zM110,51h1v1h-1zM111,51h1v1h-1zM38,52h1v1h-1zM51,52h1v1h-1zM59,52h1v1h-1zM67,52h1v1h-1zM74,52h1v1h-1zM84,52h1v1h-1zM91,52h1v1h-1zM92,52h1v1h-1zM101,52h1v1h-1zM109,52h1v1h-1zM110,52h1v1h-1zM37,53h1v1h-1zM51,53h1v1h-1zM58,53h1v1h-1zM59,53h1v1h-1zM66,53h1v1h-1zM73,53h1v1h-1zM74,53h1v1h-1zM84,53h1v1h-1zM92,53h1v1h-1zM93,53h1v1h-1zM94,53h1v1h-1zM95,53h1v1h-1zM101,53h1v1h-1zM102,53h1v1h-1zM116,53h1v1h-1zM117,53h1v1h-1zM37,54h1v1h-1zM50,54h1v1h-1zM57,54h1v1h-1zM58,54h1v1h-1zM66,54h1v1h-1zM74,54h1v1h-1zM75,54h1v1h-1zM84,54h1v1h-1zM85,54h1v1h-1zM86,54h1v1h-1zM92,54h1v1h-1zM93,54h1v1h-1zM115,54h1v1h-1zM36,55h1v1h-1zM37,55h1v1h-1zM50,55h1v1h-1zM57,55h1v1h-1zM58,55h1v1h-1zM66,55h1v1h-1zM70,55h1v1h-1zM75,55h1v1h-1zM76,55h1v1h-1zM77,55h1v1h-1zM78,55h1v1h-1zM85,55h1v1h-1zM114,55h1v1h-1zM115,55h1v1h-1zM36,56h1v1h-1zM50,56h1v1h-1zM56,56h1v1h-1zM57,56h1v1h-1zM65,56h1v1h-1zM66,56h1v1h-1zM67,56h1v1h-1zM68,56h1v1h-1zM69,56h1v1h-1zM76,56h1v1h-1zM77,56h1v1h-1zM112,56h1v1h-1zM113,56h1v1h-1zM114,56h1v1h-1zM115,56h1v1h-1zM36,57h1v1h-1zM50,57h1v1h-1zM54,57h1v1h-1zM57,57h1v1h-1zM35,58h1v1h-1zM50,58h1v1h-1zM51,58h1v1h-1zM52,58h1v1h-1zM114,58h1v1h-1zM35,59h1v1h-1zM114,59h1v1h-1zM113,61h1v1h-1zM122,63h1v1h-1zM111,64h1v1h-1zM121,64h1v1h-1zM122,64h1v1h-1zM121,65h1v1h-1zM121,66h1v1h-1zM105,67h1v1h-1zM106,67h1v1h-1zM108,67h1v1h-1zM60,68h1v1h-1zM61,68h1v1h-1zM62,68h1v1h-1zM120,68h1v1h-1zM57,69h1v1h-1zM58,69h1v1h-1zM59,69h1v1h-1zM60,69h1v1h-1zM61,69h1v1h-1zM62,69h1v1h-1zM120,69h1v1h-1zM55,70h1v1h-1zM56,70h1v1h-1zM54,71h1v1h-1zM55,71h1v1h-1zM119,71h1v1h-1zM53,72h1v1h-1zM54,72h1v1h-1zM55,72h1v1h-1zM119,72h1v1h-1zM53,73h1v1h-1zM54,73h1v1h-1zM119,73h1v1h-1zM53,74h1v1h-1zM54,74h1v1h-1zM118,74h1v1h-1zM53,75h1v1h-1zM118,75h1v1h-1zM53,76h1v1h-1zM101,76h1v1h-1zM102,76h1v1h-1zM103,76h1v1h-1zM111,76h1v1h-1zM118,76h1v1h-1zM52,77h1v1h-1zM53,77h1v1h-1zM102,77h1v1h-1zM103,77h1v1h-1zM110,77h1v1h-1zM52,78h1v1h-1zM53,78h1v1h-1zM56,78h1v1h-1zM57,78h1v1h-1zM87,78h1v1h-1zM95,78h1v1h-1zM102,78h1v1h-1zM117,78h1v1h-1zM52,79h1v1h-1zM53,79h1v1h-1zM95,79h1v1h-1zM102,79h1v1h-1zM109,79h1v1h-1zM117,79h1v1h-1zM50,80h1v1h-1zM51,80h1v1h-1zM66,80h1v1h-1zM67,80h1v1h-1zM68,80h1v1h-1zM78,80h1v1h-1zM94,80h1v1h-1zM95,80h1v1h-1zM102,80h1v1h-1zM109,80h1v1h-1zM116,80h1v1h-1zM50,81h1v1h-1zM51,81h1v1h-1zM64,81h1v1h-1zM68,81h1v1h-1zM69,81h1v1h-1zM86,81h1v1h-1zM94,81h1v1h-1zM108,81h1v1h-1zM109,81h1v1h-1zM116,81h1v1h-1zM50,82h1v1h-1zM69,82h1v1h-1zM70,82h1v1h-1zM77,82h1v1h-1zM101,82h1v1h-1zM108,82h1v1h-1zM109,82h1v1h-1zM116,82h1v1h-1zM50,83h1v1h-1zM69,83h1v1h-1zM70,83h1v1h-1zM77,83h1v1h-1zM85,83h1v1h-1zM93,83h1v1h-1zM107,83h1v1h-1zM108,83h1v1h-1zM109,83h1v1h-1zM116,83h1v1h-1zM50,84h1v1h-1zM69,84h1v1h-1zM70,84h1v1h-1zM76,84h1v1h-1zM85,84h1v1h-1zM108,84h1v1h-1zM109,84h1v1h-1zM117,84h1v1h-1zM118,84h1v1h-1zM49,85h1v1h-1zM61,85h1v1h-1zM69,85h1v1h-1zM70,85h1v1h-1zM75,85h1v1h-1zM76,85h1v1h-1zM84,85h1v1h-1zM85,85h1v1h-1zM92,85h1v1h-1zM100,85h1v1h-1zM109,85h1v1h-1zM110,85h1v1h-1zM49,86h1v1h-1zM61,86h1v1h-1zM69,86h1v1h-1zM70,86h1v1h-1zM71,86h1v1h-1zM72,86h1v1h-1zM76,86h1v1h-1zM92,86h1v1h-1zM100,86h1v1h-1zM101,86h1v1h-1zM102,86h1v1h-1zM61,87h1v1h-1zM76,87h1v1h-1zM48,88h1v1h-1zM60,88h1v1h-1zM61,88h1v1h-1zM76,88h1v1h-1zM86,88h1v1h-1zM87,88h1v1h-1zM48,89h1v1h-1zM60,89h1v1h-1zM61,89h1v1h-1zM76,89h1v1h-1zM77,89h1v1h-1zM78,89h1v1h-1zM47,90h1v1h-1zM61,90h1v1h-1zM62,90h1v1h-1zM47,91h1v1h-1zM62,91h1v1h-1zM63,91h1v1h-1zM64,91h1v1h-1zM47,92h1v1h-1zM46,93h1v1h-1zM119,102h1v1h-1zM79,103h1v1h-1zM119,103h1v1h-1zM65,104h1v1h-1zM79,104h1v1h-1zM64,105h1v1h-1zM65,105h1v1h-1zM79,105h1v1h-1zM118,105h1v1h-1zM64,106h1v1h-1zM65,106h1v1h-1zM78,106h1v1h-1zM64,107h1v1h-1zM65,107h1v1h-1zM78,107h1v1h-1zM64,108h1v1h-1zM65,108h1v1h-1zM77,108h1v1h-1zM117,108h1v1h-1zM65,109h1v1h-1zM65,110h1v1h-1zM66,110h1v1h-1zM66,111h1v1h-1zM67,112h1v1h-1zM68,113h1v1h-1zM94,113h1v1h-1zM69,114h1v1h-1zM70,114h1v1h-1zM81,114h1v1h-1zM82,114h1v1h-1zM83,114h1v1h-1zM84,114h1v1h-1zM85,114h1v1h-1zM102,114h1v1h-1zM69,115h1v1h-1zM79,115h1v1h-1zM85,115h1v1h-1zM85,116h1v1h-1zM86,116h1v1h-1zM93,116h1v1h-1zM68,117h1v1h-1zM85,117h1v1h-1zM92,117h1v1h-1zM101,117h1v1h-1zM68,118h1v1h-1zM77,118h1v1h-1zM85,118h1v1h-1zM91,118h1v1h-1zM92,118h1v1h-1zM101,118h1v1h-1zM114,118h1v1h-1zM67,119h1v1h-1zM77,119h1v1h-1zM85,119h1v1h-1zM86,119h1v1h-1zM92,119h1v1h-1zM101,119h1v1h-1zM113,119h1v1h-1zM114,119h1v1h-1zM67,120h1v1h-1zM77,120h1v1h-1zM92,120h1v1h-1zM101,120h1v1h-1zM113,120h1v1h-1zM76,121h1v1h-1zM77,121h1v1h-1zM92,121h1v1h-1zM66,122h1v1h-1zM76,122h1v1h-1zM77,122h1v1h-1zM92,122h1v1h-1zM93,122h1v1h-1zM94,122h1v1h-1zM95,122h1v1h-1zM66,123h1v1h-1zM77,123h1v1h-1zM93,123h1v1h-1zM77,124h1v1h-1zM78,124h1v1h-1zM79,124h1v1h-1zM80,124h1v1h-1zM65,125h1v1h-1zM65,126h1v1h-1zM64,127h1v1h-1zM65,127h1v1h-1z" fill="#6b65a5" opacity="1.00"/>
  <path d="M108,31h1v1h-1zM122,51h1v1h-1zM126,78h1v1h-1zM77,80h1v1h-1zM67,88h1v1h-1z" fill="#6a64a5" opacity="0.78"/>
  <path d="M96,32h1v1h-1zM59,48h1v1h-1zM81,50h1v1h-1zM107,51h1v1h-1zM76,81h1v1h-1z" fill="#6a64a4" opacity="0.48"/>
  <path d="M97,32h1v1h-1zM104,36h1v1h-1zM41,40h1v1h-1zM69,48h1v1h-1zM80,54h1v1h-1zM56,71h1v1h-1zM117,75h1v1h-1zM59,78h1v1h-1zM116,79h1v1h-1zM118,79h1v1h-1zM95,81h1v1h-1zM64,82h1v1h-1zM63,83h1v1h-1zM118,83h1v1h-1zM75,86h1v1h-1zM86,87h1v1h-1zM101,114h1v1h-1zM64,126h1v1h-1z" fill="#6b64a5" opacity="0.92"/>
  <path d="M98,32h1v1h-1zM97,33h1v1h-1zM49,35h1v1h-1zM94,42h1v1h-1zM111,45h1v1h-1zM79,46h1v1h-1zM110,46h1v1h-1zM116,46h1v1h-1zM92,48h1v1h-1zM59,50h1v1h-1zM91,50h1v1h-1zM105,51h1v1h-1zM60,52h1v1h-1zM102,52h1v1h-1zM118,52h1v1h-1zM119,52h1v1h-1zM109,53h1v1h-1zM59,54h1v1h-1zM71,54h1v1h-1zM87,54h1v1h-1zM94,54h1v1h-1zM56,55h1v1h-1zM84,55h1v1h-1zM55,56h1v1h-1zM49,57h1v1h-1zM57,58h1v1h-1zM106,61h1v1h-1zM105,66h1v1h-1zM118,77h1v1h-1zM49,80h1v1h-1zM51,82h1v1h-1zM63,82h1v1h-1zM76,83h1v1h-1zM117,83h1v1h-1zM49,84h1v1h-1zM105,84h1v1h-1zM69,87h1v1h-1zM77,88h1v1h-1zM64,104h1v1h-1zM118,104h1v1h-1zM77,109h1v1h-1zM102,113h1v1h-1zM84,115h1v1h-1zM102,115h1v1h-1zM93,117h1v1h-1zM86,118h1v1h-1zM91,119h1v1h-1zM114,120h1v1h-1zM92,123h1v1h-1z" fill="#6b65a5" opacity="0.99"/>
  <path d="M99,32h1v1h-1z" fill="#6a64a6" opacity="0.55"/>
  <path d="M100,32h1v1h-1zM56,43h1v1h-1zM112,87h1v1h-1zM117,101h1v1h-1zM65,119h1v1h-1z" fill="#5b5ba4" opacity="0.05"/>
  <path d="M105,32h1v1h-1zM101,44h1v1h-1zM35,55h1v1h-1zM57,79h1v1h-1zM102,82h1v1h-1zM86,84h1v1h-1zM114,84h1v1h-1zM77,106h1v1h-1z" fill="#6b64a5" opacity="0.74"/>
  <path d="M106,32h1v1h-1zM105,35h1v1h-1zM47,37h1v1h-1zM42,39h1v1h-1zM41,41h1v1h-1zM119,42h1v1h-1zM42,45h1v1h-1zM117,46h1v1h-1zM76,47h1v1h-1zM101,47h1v1h-1zM67,48h1v1h-1zM76,48h1v1h-1zM110,49h1v1h-1zM106,50h1v1h-1zM108,50h1v1h-1zM111,50h1v1h-1zM97,51h1v1h-1zM108,51h1v1h-1zM112,51h1v1h-1zM120,51h1v1h-1zM89,52h1v1h-1zM79,54h1v1h-1zM74,55h1v1h-1zM49,56h1v1h-1zM35,57h1v1h-1zM51,59h1v1h-1zM35,60h1v1h-1zM105,62h1v1h-1zM112,62h1v1h-1zM104,65h1v1h-1zM104,66h1v1h-1zM120,71h1v1h-1zM54,75h1v1h-1zM112,75h1v1h-1zM95,77h1v1h-1zM55,78h1v1h-1zM69,80h1v1h-1zM70,81h1v1h-1zM117,81h1v1h-1zM86,82h1v1h-1zM100,83h1v1h-1zM75,84h1v1h-1zM77,84h1v1h-1zM48,86h1v1h-1zM92,87h1v1h-1zM62,89h1v1h-1zM46,94h1v1h-1zM119,104h1v1h-1zM76,109h1v1h-1zM117,109h1v1h-1zM76,110h1v1h-1zM75,111h1v1h-1zM72,113h1v1h-1zM71,114h1v1h-1zM80,114h1v1h-1zM80,115h1v1h-1zM78,117h1v1h-1zM97,121h1v1h-1zM84,122h1v1h-1zM94,123h1v1h-1z" fill="#6b65a5" opacity="0.98"/>
  <path d="M108,32h1v1h-1zM43,36h1v1h-1zM51,56h1v1h-1zM81,89h1v1h-1z" fill="#6a64a5" opacity="0.61"/>
  <path d="M50,33h1v1h-1zM120,49h1v1h-1zM90,55h1v1h-1zM80,56h1v1h-1zM117,71h1v1h-1zM71,79h1v1h-1zM61,81h1v1h-1zM74,90h1v1h-1zM82,126h1v1h-1z" fill="#695aa5" opacity="0.07"/>
  <path d="M51,33h1v1h-1zM95,47h1v1h-1zM99,47h1v1h-1zM35,48h1v1h-1zM98,48h1v1h-1zM47,79h1v1h-1zM62,80h1v1h-1zM81,85h1v1h-1zM73,110h1v1h-1z" fill="#61619e" opacity="0.08"/>
  <path d="M95,33h1v1h-1zM99,35h1v1h-1zM44,43h1v1h-1zM91,45h1v1h-1zM90,48h1v1h-1zM97,49h1v1h-1zM69,78h1v1h-1zM99,81h1v1h-1zM64,84h1v1h-1zM99,122h1v1h-1z" fill="#685ea1" opacity="0.11"/>
  <path d="M96,33h1v1h-1zM104,35h1v1h-1zM106,37h1v1h-1zM97,50h1v1h-1z" fill="#6a64a5" opacity="0.75"/>
  <path d="M98,33h1v1h-1zM106,33h1v1h-1zM50,35h1v1h-1zM105,36h1v1h-1zM44,37h1v1h-1zM43,38h1v1h-1zM104,39h1v1h-1zM41,42h1v1h-1zM103,42h1v1h-1zM112,42h1v1h-1zM54,43h1v1h-1zM111,43h1v1h-1zM119,44h1v1h-1zM45,45h1v1h-1zM85,45h1v1h-1zM102,45h1v1h-1zM81,46h1v1h-1zM93,46h1v1h-1zM38,47h1v1h-1zM85,47h1v1h-1zM118,47h1v1h-1zM101,48h1v1h-1zM52,49h1v1h-1zM61,49h1v1h-1zM75,49h1v1h-1zM100,49h1v1h-1zM117,49h1v1h-1zM38,50h1v1h-1zM51,50h1v1h-1zM68,50h1v1h-1zM99,50h1v1h-1zM107,50h1v1h-1zM110,50h1v1h-1zM117,50h1v1h-1zM51,51h1v1h-1zM67,51h1v1h-1zM74,51h1v1h-1zM82,51h1v1h-1zM90,52h1v1h-1zM104,52h1v1h-1zM108,52h1v1h-1zM116,52h1v1h-1zM117,52h1v1h-1zM50,53h1v1h-1zM75,53h1v1h-1zM88,53h1v1h-1zM91,53h1v1h-1zM103,53h1v1h-1zM72,54h1v1h-1zM73,54h1v1h-1zM116,54h1v1h-1zM113,55h1v1h-1zM58,56h1v1h-1zM115,57h1v1h-1zM36,58h1v1h-1zM53,58h1v1h-1zM109,58h1v1h-1zM108,59h1v1h-1zM107,60h1v1h-1zM114,60h1v1h-1zM113,62h1v1h-1zM105,63h1v1h-1zM112,63h1v1h-1zM111,65h1v1h-1zM110,66h1v1h-1zM109,67h1v1h-1zM120,67h1v1h-1zM121,67h1v1h-1zM106,68h1v1h-1zM107,68h1v1h-1zM56,69h1v1h-1zM63,69h1v1h-1zM57,70h1v1h-1zM120,70h1v1h-1zM115,74h1v1h-1zM113,75h1v1h-1zM52,76h1v1h-1zM117,77h1v1h-1zM58,78h1v1h-1zM103,78h1v1h-1zM110,78h1v1h-1zM51,79h1v1h-1zM94,79h1v1h-1zM108,80h1v1h-1zM117,80h1v1h-1zM93,82h1v1h-1zM94,82h1v1h-1zM115,82h1v1h-1zM62,83h1v1h-1zM93,84h1v1h-1zM100,84h1v1h-1zM119,84h1v1h-1zM104,85h1v1h-1zM108,85h1v1h-1zM111,85h1v1h-1zM85,86h1v1h-1zM91,86h1v1h-1zM48,87h1v1h-1zM49,87h1v1h-1zM60,87h1v1h-1zM85,87h1v1h-1zM91,87h1v1h-1zM68,88h1v1h-1zM79,89h1v1h-1zM48,90h1v1h-1zM66,90h1v1h-1zM120,100h1v1h-1zM119,101h1v1h-1zM120,101h1v1h-1zM78,105h1v1h-1zM118,106h1v1h-1zM103,111h1v1h-1zM116,111h1v1h-1zM66,112h1v1h-1zM95,112h1v1h-1zM103,112h1v1h-1zM67,113h1v1h-1zM68,114h1v1h-1zM94,114h1v1h-1zM93,115h1v1h-1zM69,116h1v1h-1zM78,116h1v1h-1zM101,116h1v1h-1zM86,117h1v1h-1zM100,118h1v1h-1zM89,119h1v1h-1zM100,119h1v1h-1zM76,120h1v1h-1zM85,120h1v1h-1zM67,121h1v1h-1zM101,121h1v1h-1zM102,122h1v1h-1zM76,123h1v1h-1zM65,124h1v1h-1zM66,124h1v1h-1zM81,124h1v1h-1z" fill="#6a64a5" opacity="1.00"/>
  <path d="M99,33h1v1h-1zM81,54h1v1h-1z" fill="#6b64a4" opacity="0.44"/>
  <path d="M100,33h1v1h-1zM111,40h1v1h-1zM114,72h1v1h-1zM99,79h1v1h-1zM112,79h1v1h-1zM111,81h1v1h-1z" fill="#664d99" opacity="0.04"/>
  <path d="M104,33h1v1h-1zM94,49h1v1h-1zM89,54h1v1h-1zM72,88h1v1h-1z" fill="#6b65a6" opacity="0.17"/>
  <path d="M105,33h1v1h-1zM103,39h1v1h-1zM85,48h1v1h-1zM95,52h1v1h-1zM100,53h1v1h-1zM49,54h1v1h-1zM68,57h1v1h-1zM111,66h1v1h-1zM118,73h1v1h-1zM55,79h1v1h-1zM115,81h1v1h-1zM71,85h1v1h-1zM77,85h1v1h-1zM68,112h1v1h-1zM93,118h1v1h-1zM64,128h1v1h-1z" fill="#6a65a5" opacity="0.92"/>
  <path d="M107,33h1v1h-1zM52,35h1v1h-1zM45,36h1v1h-1zM96,36h1v1h-1zM97,36h1v1h-1zM104,38h1v1h-1zM95,39h1v1h-1zM103,41h1v1h-1zM44,45h1v1h-1zM40,48h1v1h-1zM90,51h1v1h-1zM106,51h1v1h-1zM117,51h1v1h-1zM113,60h1v1h-1zM105,68h1v1h-1zM121,68h1v1h-1zM116,74h1v1h-1zM52,75h1v1h-1zM101,77h1v1h-1zM109,78h1v1h-1zM54,79h1v1h-1zM87,79h1v1h-1zM65,81h1v1h-1zM78,81h1v1h-1zM101,81h1v1h-1zM61,84h1v1h-1zM90,87h1v1h-1zM64,109h1v1h-1zM65,111h1v1h-1zM68,115h1v1h-1zM68,116h1v1h-1zM90,119h1v1h-1zM84,121h1v1h-1zM101,122h1v1h-1z" fill="#6a64a5" opacity="0.99"/>
  <path d="M108,33h1v1h-1zM124,64h1v1h-1zM110,75h1v1h-1zM63,87h1v1h-1zM92,89h1v1h-1zM87,114h1v1h-1z" fill="#6a62a6" opacity="0.24"/>
  <path d="M45,34h1v1h-1zM89,77h1v1h-1z" fill="#6363a3" opacity="0.14"/>
  <path d="M46,34h1v1h-1zM92,43h1v1h-1zM124,78h1v1h-1zM84,81h1v1h-1zM83,83h1v1h-1zM122,84h1v1h-1zM87,86h1v1h-1zM121,98h1v1h-1zM95,115h1v1h-1zM85,123h1v1h-1z" fill="#6862a3" opacity="0.33"/>
  <path d="M47,34h1v1h-1zM121,62h1v1h-1zM47,81h1v1h-1zM95,124h1v1h-1z" fill="#6963a4" opacity="0.47"/>
  <path d="M48,34h1v1h-1zM95,35h1v1h-1zM122,69h1v1h-1zM115,73h1v1h-1zM103,84h1v1h-1zM106,121h1v1h-1zM82,122h1v1h-1zM76,125h1v1h-1z" fill="#6a64a4" opacity="0.57"/>
  <path d="M49,34h1v1h-1zM50,49h1v1h-1zM34,57h1v1h-1zM123,62h1v1h-1zM95,82h1v1h-1zM75,122h1v1h-1z" fill="#6b64a4" opacity="0.63"/>
  <path d="M50,34h1v1h-1z" fill="#6b65a4" opacity="0.66"/>
  <path d="M51,34h1v1h-1zM93,86h1v1h-1zM91,116h1v1h-1z" fill="#6b63a5" opacity="0.67"/>
  <path d="M52,34h1v1h-1z" fill="#6964a4" opacity="0.63"/>
  <path d="M53,34h1v1h-1zM78,57h1v1h-1z" fill="#6a60a5" opacity="0.19"/>
  <path d="M95,34h1v1h-1z" fill="#6a60a5" opacity="0.32"/>
  <path d="M96,34h1v1h-1zM50,37h1v1h-1zM40,42h1v1h-1zM61,52h1v1h-1zM53,57h1v1h-1zM122,67h1v1h-1zM94,77h1v1h-1zM118,80h1v1h-1zM68,82h1v1h-1zM118,85h1v1h-1zM110,86h1v1h-1z" fill="#6a65a5" opacity="0.85"/>
  <path d="M98,34h1v1h-1zM39,51h1v1h-1zM116,57h1v1h-1zM119,76h1v1h-1zM116,84h1v1h-1z" fill="#6a65a4" opacity="0.90"/>
  <path d="M99,34h1v1h-1z" fill="#6b62a1" opacity="0.22"/>
  <path d="M104,34h1v1h-1zM44,35h1v1h-1zM124,50h1v1h-1zM116,118h1v1h-1z" fill="#6a63a5" opacity="0.45"/>
  <path d="M105,34h1v1h-1zM48,35h1v1h-1zM43,41h1v1h-1zM108,48h1v1h-1zM61,51h1v1h-1zM75,52h1v1h-1zM100,52h1v1h-1zM36,54h1v1h-1zM59,55h1v1h-1zM54,58h1v1h-1zM113,63h1v1h-1zM52,74h1v1h-1zM50,79h1v1h-1zM65,80h1v1h-1zM102,81h1v1h-1zM107,82h1v1h-1zM49,83h1v1h-1zM114,83h1v1h-1zM73,86h1v1h-1zM82,87h1v1h-1zM47,88h1v1h-1zM102,112h1v1h-1zM116,112h1v1h-1zM101,115h1v1h-1zM100,117h1v1h-1zM87,120h1v1h-1zM88,120h1v1h-1zM91,120h1v1h-1zM102,121h1v1h-1zM91,122h1v1h-1zM82,123h1v1h-1z" fill="#6b65a5" opacity="0.96"/>
  <path d="M107,34h1v1h-1z" fill="#6965a4" opacity="0.82"/>
  <path d="M43,35h1v1h-1zM105,49h1v1h-1zM40,52h1v1h-1zM79,52h1v1h-1zM119,65h1v1h-1zM66,78h1v1h-1zM47,82h1v1h-1zM59,86h1v1h-1zM79,91h1v1h-1zM74,123h1v1h-1zM90,124h1v1h-1z" fill="#6b63a5" opacity="0.12"/>
  <path d="M45,35h1v1h-1zM84,44h1v1h-1zM110,44h1v1h-1zM122,81h1v1h-1zM64,125h1v1h-1z" fill="#6a64a5" opacity="0.69"/>
  <path d="M46,35h1v1h-1zM51,48h1v1h-1zM122,62h1v1h-1zM76,82h1v1h-1zM77,90h1v1h-1zM117,111h1v1h-1zM71,115h1v1h-1z" fill="#6a64a5" opacity="0.82"/>
  <path d="M47,35h1v1h-1zM50,50h1v1h-1zM70,56h1v1h-1zM51,57h1v1h-1zM112,65h1v1h-1zM100,77h1v1h-1zM92,83h1v1h-1zM62,86h1v1h-1zM117,110h1v1h-1z" fill="#6b64a5" opacity="0.91"/>
  <path d="M53,35h1v1h-1z" fill="#6964a4" opacity="0.54"/>
  <path d="M96,35h1v1h-1zM101,46h1v1h-1zM69,47h1v1h-1zM114,49h1v1h-1zM120,72h1v1h-1zM101,78h1v1h-1zM62,85h1v1h-1zM78,108h1v1h-1z" fill="#6b64a4" opacity="0.94"/>
  <path d="M98,35h1v1h-1zM83,55h1v1h-1zM56,58h1v1h-1zM111,58h1v1h-1zM92,81h1v1h-1zM68,86h1v1h-1zM72,87h1v1h-1zM78,87h1v1h-1zM63,107h1v1h-1z" fill="#6a64a4" opacity="0.66"/>
  <path d="M107,35h1v1h-1zM56,54h1v1h-1zM98,76h1v1h-1zM62,81h1v1h-1z" fill="#6a64a3" opacity="0.49"/>
  <path d="M42,36h1v1h-1zM103,36h1v1h-1zM102,39h1v1h-1zM78,48h1v1h-1z" fill="#6761a4" opacity="0.16"/>
  <path d="M44,36h1v1h-1zM67,49h1v1h-1zM115,53h1v1h-1zM49,59h1v1h-1zM105,61h1v1h-1zM83,85h1v1h-1zM93,85h1v1h-1zM99,85h1v1h-1zM79,88h1v1h-1zM100,116h1v1h-1z" fill="#6a65a4" opacity="0.89"/>
  <path d="M53,36h1v1h-1zM117,55h1v1h-1zM74,56h1v1h-1zM109,57h1v1h-1zM65,82h1v1h-1zM45,91h1v1h-1zM78,120h1v1h-1z" fill="#6a64a5" opacity="0.63"/>
  <path d="M94,36h1v1h-1zM121,39h1v1h-1zM92,42h1v1h-1zM111,55h1v1h-1zM38,58h1v1h-1zM121,74h1v1h-1zM106,81h1v1h-1zM67,83h1v1h-1z" fill="#6262a7" opacity="0.10"/>
  <path d="M95,36h1v1h-1zM85,52h1v1h-1zM122,68h1v1h-1zM118,82h1v1h-1zM84,117h1v1h-1z" fill="#6b64a4" opacity="0.75"/>
  <path d="M98,36h1v1h-1zM120,46h1v1h-1zM53,50h1v1h-1zM82,54h1v1h-1zM93,77h1v1h-1zM113,77h1v1h-1zM104,83h1v1h-1z" fill="#6b63a5" opacity="0.36"/>
  <path d="M99,36h1v1h-1zM105,43h1v1h-1zM65,45h1v1h-1zM104,46h1v1h-1zM103,49h1v1h-1zM33,57h1v1h-1zM61,66h1v1h-1zM118,67h1v1h-1zM92,78h1v1h-1zM93,89h1v1h-1zM98,117h1v1h-1zM103,117h1v1h-1zM111,119h1v1h-1z" fill="#666699" opacity="0.04"/>
  <path d="M106,36h1v1h-1zM61,48h1v1h-1zM82,52h1v1h-1zM106,83h1v1h-1zM80,88h1v1h-1zM81,88h1v1h-1zM65,90h1v1h-1zM79,102h1v1h-1zM98,120h1v1h-1z" fill="#6a65a5" opacity="0.97"/>
  <path d="M107,36h1v1h-1z" fill="#6464a2" opacity="0.16"/>
  <path d="M41,37h1v1h-1zM49,78h1v1h-1z" fill="#685eaa" opacity="0.11"/>
  <path d="M42,37h1v1h-1zM117,43h1v1h-1zM68,45h1v1h-1zM36,60h1v1h-1zM63,71h1v1h-1zM68,90h1v1h-1zM70,113h1v1h-1zM90,122h1v1h-1zM80,123h1v1h-1z" fill="#6a63a4" opacity="0.62"/>
  <path d="M43,37h1v1h-1zM94,41h1v1h-1zM117,44h1v1h-1zM43,45h1v1h-1zM83,45h1v1h-1zM68,46h1v1h-1zM111,47h1v1h-1zM113,50h1v1h-1zM86,53h1v1h-1zM51,54h1v1h-1zM115,59h1v1h-1zM109,66h1v1h-1zM55,73h1v1h-1zM114,75h1v1h-1zM77,81h1v1h-1zM49,82h1v1h-1zM50,85h1v1h-1zM100,87h1v1h-1zM78,104h1v1h-1zM118,107h1v1h-1zM74,111h1v1h-1zM83,115h1v1h-1zM91,117h1v1h-1zM108,118h1v1h-1zM91,121h1v1h-1zM78,125h1v1h-1z" fill="#6b65a5" opacity="0.95"/>
  <path d="M48,37h1v1h-1zM52,44h1v1h-1zM115,48h1v1h-1zM59,56h1v1h-1zM125,79h1v1h-1zM83,86h1v1h-1zM88,88h1v1h-1zM47,93h1v1h-1zM119,105h1v1h-1zM82,115h1v1h-1zM76,119h1v1h-1zM100,121h1v1h-1z" fill="#6a65a4" opacity="0.91"/>
  <path d="M49,37h1v1h-1zM114,54h1v1h-1zM34,61h1v1h-1zM104,68h1v1h-1zM113,74h1v1h-1zM112,77h1v1h-1zM101,87h1v1h-1zM121,99h1v1h-1zM93,113h1v1h-1zM68,121h1v1h-1z" fill="#6b65a5" opacity="0.84"/>
  <path d="M51,37h1v1h-1zM120,41h1v1h-1zM53,43h1v1h-1zM118,43h1v1h-1zM47,44h1v1h-1zM37,47h1v1h-1zM107,49h1v1h-1zM112,50h1v1h-1zM80,53h1v1h-1zM87,53h1v1h-1zM116,55h1v1h-1zM49,58h1v1h-1zM104,64h1v1h-1zM104,67h1v1h-1zM51,77h1v1h-1zM49,81h1v1h-1zM65,91h1v1h-1zM74,112h1v1h-1zM100,120h1v1h-1zM78,123h1v1h-1z" fill="#6b65a5" opacity="0.97"/>
  <path d="M52,37h1v1h-1zM75,48h1v1h-1zM56,57h1v1h-1zM65,57h1v1h-1z" fill="#6b65a4" opacity="0.96"/>
  <path d="M53,37h1v1h-1zM124,63h1v1h-1z" fill="#6a63a6" opacity="0.30"/>
  <path d="M94,37h1v1h-1zM95,51h1v1h-1zM64,56h1v1h-1zM74,83h1v1h-1zM46,95h1v1h-1z" fill="#6963a2" opacity="0.33"/>
  <path d="M95,37h1v1h-1zM34,59h1v1h-1zM120,99h1v1h-1zM64,103h1v1h-1zM66,105h1v1h-1zM89,120h1v1h-1z" fill="#6b64a5" opacity="0.86"/>
  <path d="M97,37h1v1h-1zM69,46h1v1h-1zM64,69h1v1h-1zM99,76h1v1h-1zM56,79h1v1h-1zM51,83h1v1h-1z" fill="#6a64a4" opacity="0.84"/>
  <path d="M98,37h1v1h-1zM101,42h1v1h-1zM110,42h1v1h-1zM95,46h1v1h-1zM103,54h1v1h-1zM55,68h1v1h-1zM88,76h1v1h-1zM109,76h1v1h-1zM94,119h1v1h-1zM96,124h1v1h-1z" fill="#6863a2" opacity="0.17"/>
  <path d="M103,37h1v1h-1zM74,110h1v1h-1z" fill="#6963a3" opacity="0.47"/>
  <path d="M104,37h1v1h-1zM103,40h1v1h-1zM84,45h1v1h-1zM109,47h1v1h-1zM38,48h1v1h-1zM71,55h1v1h-1zM52,59h1v1h-1zM110,65h1v1h-1zM117,74h1v1h-1zM94,78h1v1h-1zM118,78h1v1h-1zM52,80h1v1h-1zM103,85h1v1h-1zM77,107h1v1h-1zM87,119h1v1h-1zM66,121h1v1h-1z" fill="#6a64a4" opacity="0.97"/>
  <path d="M41,38h1v1h-1zM73,51h1v1h-1zM47,85h1v1h-1z" fill="#6a64a4" opacity="0.47"/>
  <path d="M42,38h1v1h-1zM107,61h1v1h-1zM78,82h1v1h-1zM91,85h1v1h-1zM74,86h1v1h-1zM46,90h1v1h-1zM80,103h1v1h-1z" fill="#6b64a5" opacity="0.90"/>
  <path d="M45,38h1v1h-1z" fill="#6b64a5" opacity="0.69"/>
  <path d="M46,38h1v1h-1z" fill="#6c65a5" opacity="0.45"/>
  <path d="M47,38h1v1h-1zM51,38h1v1h-1zM73,50h1v1h-1zM72,84h1v1h-1zM61,92h1v1h-1zM116,120h1v1h-1z" fill="#6963a5" opacity="0.33"/>
  <path d="M48,38h1v1h-1zM82,116h1v1h-1zM69,121h1v1h-1z" fill="#6a62a4" opacity="0.27"/>
  <path d="M49,38h1v1h-1z" fill="#6d64a7" opacity="0.24"/>
  <path d="M50,38h1v1h-1zM119,40h1v1h-1zM116,60h1v1h-1zM97,80h1v1h-1z" fill="#6961a2" opacity="0.25"/>
  <path d="M52,38h1v1h-1zM91,89h1v1h-1zM97,123h1v1h-1z" fill="#6a64a3" opacity="0.35"/>
  <path d="M53,38h1v1h-1zM77,50h1v1h-1zM112,59h1v1h-1zM56,67h1v1h-1zM65,68h1v1h-1zM74,82h1v1h-1zM73,83h1v1h-1zM46,86h1v1h-1zM94,87h1v1h-1zM44,95h1v1h-1zM62,104h1v1h-1zM63,111h1v1h-1zM65,114h1v1h-1zM69,122h1v1h-1z" fill="#62629d" opacity="0.05"/>
  <path d="M94,38h1v1h-1zM97,38h1v1h-1zM121,52h1v1h-1zM75,123h1v1h-1z" fill="#6a65a5" opacity="0.58"/>
  <path d="M95,38h1v1h-1zM78,45h1v1h-1zM92,47h1v1h-1zM67,53h1v1h-1zM116,56h1v1h-1zM66,81h1v1h-1zM67,81h1v1h-1zM101,84h1v1h-1zM48,85h1v1h-1zM77,87h1v1h-1zM93,114h1v1h-1z" fill="#6a65a5" opacity="0.94"/>
  <path d="M98,38h1v1h-1zM60,92h1v1h-1z" fill="#6868a2" opacity="0.09"/>
  <path d="M103,38h1v1h-1zM114,47h1v1h-1zM97,120h1v1h-1z" fill="#6a63a5" opacity="0.76"/>
  <path d="M106,38h1v1h-1z" fill="#6962a4" opacity="0.44"/>
  <path d="M40,39h1v1h-1zM80,47h1v1h-1zM103,74h1v1h-1zM69,90h1v1h-1z" fill="#6660a4" opacity="0.18"/>
  <path d="M41,39h1v1h-1zM113,41h1v1h-1zM48,56h1v1h-1zM71,83h1v1h-1z" fill="#6a65a5" opacity="0.76"/>
  <path d="M44,39h1v1h-1zM78,56h1v1h-1zM105,65h1v1h-1zM93,80h1v1h-1zM80,102h1v1h-1zM118,103h1v1h-1zM82,113h1v1h-1z" fill="#6a65a5" opacity="0.91"/>
  <path d="M45,39h1v1h-1zM113,73h1v1h-1zM99,75h1v1h-1z" fill="#6a63a6" opacity="0.28"/>
  <path d="M46,39h1v1h-1z" fill="#7060af" opacity="0.06"/>
  <path d="M93,39h1v1h-1z" fill="#645ba4" opacity="0.11"/>
  <path d="M94,39h1v1h-1zM94,46h1v1h-1zM125,48h1v1h-1zM93,49h1v1h-1zM93,52h1v1h-1zM47,86h1v1h-1zM76,111h1v1h-1zM83,124h1v1h-1z" fill="#6a64a4" opacity="0.76"/>
  <path d="M96,39h1v1h-1zM117,48h1v1h-1zM58,57h1v1h-1zM83,113h1v1h-1z" fill="#6a64a4" opacity="0.98"/>
  <path d="M97,39h1v1h-1zM122,70h1v1h-1zM85,78h1v1h-1zM113,82h1v1h-1z" fill="#6962a3" opacity="0.31"/>
  <path d="M105,39h1v1h-1zM40,43h1v1h-1zM93,44h1v1h-1zM104,51h1v1h-1zM104,63h1v1h-1zM122,66h1v1h-1zM99,77h1v1h-1zM110,80h1v1h-1zM60,86h1v1h-1zM82,124h1v1h-1z" fill="#6a64a4" opacity="0.95"/>
  <path d="M106,39h1v1h-1zM85,43h1v1h-1zM60,83h1v1h-1z" fill="#6660a6" opacity="0.16"/>
  <path d="M120,39h1v1h-1z" fill="#624e9d" opacity="0.05"/>
  <path d="M40,40h1v1h-1zM46,43h1v1h-1zM101,54h1v1h-1zM76,57h1v1h-1z" fill="#6b63a4" opacity="0.51"/>
  <path d="M44,40h1v1h-1zM52,57h1v1h-1zM55,58h1v1h-1z" fill="#6964a5" opacity="0.62"/>
  <path d="M45,40h1v1h-1zM52,47h1v1h-1zM122,61h1v1h-1zM100,74h1v1h-1zM66,117h1v1h-1z" fill="#6666a3" opacity="0.10"/>
  <path d="M93,40h1v1h-1zM102,83h1v1h-1zM77,103h1v1h-1z" fill="#6a64a4" opacity="0.34"/>
  <path d="M94,40h1v1h-1zM80,44h1v1h-1zM69,49h1v1h-1zM83,54h1v1h-1zM79,80h1v1h-1zM88,87h1v1h-1zM113,121h1v1h-1zM65,123h1v1h-1z" fill="#6b65a5" opacity="0.86"/>
  <path d="M96,40h1v1h-1zM41,47h1v1h-1zM96,51h1v1h-1zM116,58h1v1h-1zM109,68h1v1h-1zM102,75h1v1h-1zM84,83h1v1h-1zM81,125h1v1h-1z" fill="#6a64a5" opacity="0.81"/>
  <path d="M97,40h1v1h-1zM117,42h1v1h-1z" fill="#6b5ea1" opacity="0.15"/>
  <path d="M102,40h1v1h-1zM42,47h1v1h-1zM104,111h1v1h-1z" fill="#6965a3" opacity="0.45"/>
  <path d="M105,40h1v1h-1z" fill="#6965a4" opacity="0.71"/>
  <path d="M112,40h1v1h-1zM95,45h1v1h-1z" fill="#6966a3" opacity="0.29"/>
  <path d="M113,40h1v1h-1zM118,70h1v1h-1zM67,104h1v1h-1zM65,113h1v1h-1z" fill="#6764a3" opacity="0.27"/>
  <path d="M120,40h1v1h-1zM68,111h1v1h-1zM79,114h1v1h-1zM103,114h1v1h-1z" fill="#6b64a4" opacity="0.70"/>
  <path d="M121,40h1v1h-1zM58,79h1v1h-1zM53,80h1v1h-1zM103,80h1v1h-1z" fill="#6a64a4" opacity="0.64"/>
  <path d="M122,40h1v1h-1z" fill="#6666aa" opacity="0.12"/>
  <path d="M39,41h1v1h-1zM122,41h1v1h-1zM79,43h1v1h-1zM86,43h1v1h-1zM52,46h1v1h-1zM45,47h1v1h-1zM94,50h1v1h-1zM108,57h1v1h-1zM98,75h1v1h-1zM108,77h1v1h-1zM89,79h1v1h-1zM107,79h1v1h-1zM120,86h1v1h-1zM44,92h1v1h-1zM64,93h1v1h-1zM62,106h1v1h-1zM116,117h1v1h-1zM64,122h1v1h-1z" fill="#685da2" opacity="0.09"/>
  <path d="M40,41h1v1h-1zM66,48h1v1h-1zM64,110h1v1h-1zM84,119h1v1h-1zM93,124h1v1h-1z" fill="#6a64a4" opacity="0.74"/>
  <path d="M44,41h1v1h-1zM109,60h1v1h-1zM55,75h1v1h-1z" fill="#6861a4" opacity="0.30"/>
  <path d="M93,41h1v1h-1zM48,55h1v1h-1zM119,107h1v1h-1z" fill="#6b64a5" opacity="0.59"/>
  <path d="M96,41h1v1h-1z" fill="#6964a4" opacity="0.56"/>
  <path d="M97,41h1v1h-1zM64,53h1v1h-1zM123,61h1v1h-1zM119,64h1v1h-1zM124,77h1v1h-1zM76,79h1v1h-1zM83,82h1v1h-1zM74,109h1v1h-1zM88,116h1v1h-1z" fill="#6b5ea1" opacity="0.07"/>
  <path d="M102,41h1v1h-1zM93,120h1v1h-1z" fill="#6a65a5" opacity="0.73"/>
  <path d="M105,41h1v1h-1z" fill="#6961a3" opacity="0.39"/>
  <path d="M111,41h1v1h-1z" fill="#6b65a6" opacity="0.57"/>
  <path d="M112,41h1v1h-1zM121,70h1v1h-1zM101,113h1v1h-1z" fill="#6a64a5" opacity="0.85"/>
  <path d="M114,41h1v1h-1zM82,84h1v1h-1zM71,88h1v1h-1zM64,112h1v1h-1zM104,113h1v1h-1z" fill="#665fa0" opacity="0.14"/>
  <path d="M118,41h1v1h-1zM81,49h1v1h-1zM78,110h1v1h-1z" fill="#6762a1" opacity="0.22"/>
  <path d="M119,41h1v1h-1zM96,80h1v1h-1z" fill="#6b64a4" opacity="0.79"/>
  <path d="M121,41h1v1h-1z" fill="#6b64a4" opacity="0.77"/>
  <path d="M39,42h1v1h-1zM81,104h1v1h-1z" fill="#6963a7" opacity="0.29"/>
  <path d="M43,42h1v1h-1zM64,68h1v1h-1zM101,75h1v1h-1zM75,112h1v1h-1z" fill="#6a64a5" opacity="0.73"/>
  <path d="M44,42h1v1h-1zM49,45h1v1h-1zM80,81h1v1h-1zM67,86h1v1h-1zM59,90h1v1h-1zM89,117h1v1h-1z" fill="#6962a5" opacity="0.13"/>
  <path d="M52,42h1v1h-1z" fill="#67619e" opacity="0.16"/>
  <path d="M53,42h1v1h-1zM108,47h1v1h-1zM76,50h1v1h-1z" fill="#6b64a4" opacity="0.65"/>
  <path d="M54,42h1v1h-1zM121,82h1v1h-1zM92,88h1v1h-1z" fill="#6a64a3" opacity="0.75"/>
  <path d="M55,42h1v1h-1zM114,76h1v1h-1zM62,92h1v1h-1z" fill="#6b64a4" opacity="0.56"/>
  <path d="M93,42h1v1h-1z" fill="#6a65a4" opacity="0.76"/>
  <path d="M95,42h1v1h-1z" fill="#6a65a4" opacity="0.97"/>
  <path d="M96,42h1v1h-1zM87,52h1v1h-1zM115,62h1v1h-1zM88,80h1v1h-1zM118,86h1v1h-1zM103,87h1v1h-1z" fill="#6a64a5" opacity="0.32"/>
  <path d="M102,42h1v1h-1zM52,73h1v1h-1zM54,78h1v1h-1zM66,104h1v1h-1z" fill="#6b64a5" opacity="0.88"/>
  <path d="M105,42h1v1h-1zM87,46h1v1h-1zM107,86h1v1h-1zM81,90h1v1h-1zM74,121h1v1h-1z" fill="#6860a7" opacity="0.13"/>
  <path d="M111,42h1v1h-1zM107,59h1v1h-1zM106,60h1v1h-1zM73,113h1v1h-1z" fill="#6a64a4" opacity="0.93"/>
  <path d="M113,42h1v1h-1zM92,46h1v1h-1zM90,50h1v1h-1z" fill="#6a64a5" opacity="0.83"/>
  <path d="M114,42h1v1h-1zM88,82h1v1h-1zM67,84h1v1h-1zM48,94h1v1h-1z" fill="#6d5ba4" opacity="0.05"/>
  <path d="M118,42h1v1h-1zM75,47h1v1h-1zM74,49h1v1h-1zM57,53h1v1h-1zM82,53h1v1h-1zM123,80h1v1h-1zM90,88h1v1h-1z" fill="#6a65a4" opacity="0.71"/>
  <path d="M120,42h1v1h-1zM82,50h1v1h-1zM123,81h1v1h-1zM79,106h1v1h-1z" fill="#6a65a4" opacity="0.95"/>
  <path d="M121,42h1v1h-1zM112,46h1v1h-1zM66,79h1v1h-1zM104,86h1v1h-1zM65,89h1v1h-1zM108,119h1v1h-1z" fill="#6a65a4" opacity="0.60"/>
  <path d="M39,43h1v1h-1zM92,44h1v1h-1zM123,66h1v1h-1zM100,80h1v1h-1zM64,89h1v1h-1z" fill="#6a64a4" opacity="0.55"/>
  <path d="M42,43h1v1h-1zM40,44h1v1h-1zM48,44h1v1h-1zM79,45h1v1h-1zM82,45h1v1h-1zM93,45h1v1h-1zM43,46h1v1h-1zM110,48h1v1h-1zM75,50h1v1h-1zM122,50h1v1h-1zM37,52h1v1h-1zM85,53h1v1h-1zM65,55h1v1h-1zM110,57h1v1h-1zM112,64h1v1h-1zM122,65h1v1h-1zM114,74h1v1h-1zM119,74h1v1h-1zM112,76h1v1h-1zM111,77h1v1h-1zM96,79h1v1h-1zM86,80h1v1h-1zM74,85h1v1h-1zM47,89h1v1h-1zM63,90h1v1h-1zM46,92h1v1h-1zM117,107h1v1h-1zM86,115h1v1h-1zM68,119h1v1h-1zM104,121h1v1h-1zM96,122h1v1h-1zM66,125h1v1h-1z" fill="#6b65a4" opacity="0.99"/>
  <path d="M43,43h1v1h-1z" fill="#6862a2" opacity="0.38"/>
  <path d="M45,43h1v1h-1z" fill="#6861a5" opacity="0.28"/>
  <path d="M47,43h1v1h-1zM54,45h1v1h-1zM78,47h1v1h-1zM95,54h1v1h-1zM57,71h1v1h-1zM50,86h1v1h-1zM77,110h1v1h-1zM78,119h1v1h-1z" fill="#6a63a4" opacity="0.71"/>
  <path d="M48,43h1v1h-1zM120,44h1v1h-1zM81,51h1v1h-1zM75,83h1v1h-1zM115,83h1v1h-1zM121,101h1v1h-1zM92,115h1v1h-1z" fill="#6a64a4" opacity="0.78"/>
  <path d="M49,43h1v1h-1zM70,57h1v1h-1zM126,76h1v1h-1zM76,80h1v1h-1zM122,80h1v1h-1zM121,85h1v1h-1zM63,86h1v1h-1zM120,98h1v1h-1zM77,102h1v1h-1zM86,122h1v1h-1z" fill="#6863a4" opacity="0.23"/>
  <path d="M52,43h1v1h-1zM123,65h1v1h-1zM103,66h1v1h-1zM126,77h1v1h-1zM86,121h1v1h-1z" fill="#6a64a5" opacity="0.71"/>
  <path d="M55,43h1v1h-1zM110,58h1v1h-1zM101,80h1v1h-1zM85,82h1v1h-1zM120,84h1v1h-1zM68,89h1v1h-1zM85,121h1v1h-1zM65,128h1v1h-1z" fill="#6a65a5" opacity="0.95"/>
  <path d="M80,43h1v1h-1zM44,94h1v1h-1zM112,118h1v1h-1zM83,119h1v1h-1zM67,128h1v1h-1z" fill="#6762a6" opacity="0.22"/>
  <path d="M81,43h1v1h-1zM100,79h1v1h-1zM82,89h1v1h-1zM67,107h1v1h-1z" fill="#6964a3" opacity="0.24"/>
  <path d="M82,43h1v1h-1zM121,44h1v1h-1zM44,47h1v1h-1zM65,49h1v1h-1zM39,55h1v1h-1zM110,63h1v1h-1zM106,65h1v1h-1zM50,88h1v1h-1z" fill="#665da1" opacity="0.12"/>
  <path d="M84,43h1v1h-1zM53,51h1v1h-1z" fill="#6655aa" opacity="0.06"/>
  <path d="M93,43h1v1h-1zM120,43h1v1h-1zM81,44h1v1h-1zM108,53h1v1h-1zM45,93h1v1h-1zM66,103h1v1h-1zM90,120h1v1h-1z" fill="#6a64a5" opacity="0.87"/>
  <path d="M95,43h1v1h-1zM77,45h1v1h-1zM100,47h1v1h-1zM115,75h1v1h-1zM74,84h1v1h-1zM65,112h1v1h-1z" fill="#6b64a5" opacity="0.78"/>
  <path d="M96,43h1v1h-1zM97,76h1v1h-1zM68,78h1v1h-1zM89,78h1v1h-1zM119,82h1v1h-1zM99,116h1v1h-1z" fill="#6964a1" opacity="0.18"/>
  <path d="M101,43h1v1h-1z" fill="#6964a6" opacity="0.46"/>
  <path d="M102,43h1v1h-1zM121,69h1v1h-1zM51,76h1v1h-1zM81,115h1v1h-1zM115,118h1v1h-1z" fill="#6b64a5" opacity="0.94"/>
  <path d="M104,43h1v1h-1z" fill="#6964a4" opacity="0.67"/>
  <path d="M110,43h1v1h-1zM118,110h1v1h-1zM94,117h1v1h-1zM98,122h1v1h-1z" fill="#6a63a3" opacity="0.42"/>
  <path d="M112,43h1v1h-1zM111,46h1v1h-1zM65,47h1v1h-1zM115,47h1v1h-1zM64,48h1v1h-1zM114,48h1v1h-1zM38,49h1v1h-1zM62,49h1v1h-1zM121,51h1v1h-1zM81,52h1v1h-1zM83,52h1v1h-1zM111,52h1v1h-1zM55,57h1v1h-1zM67,57h1v1h-1zM111,57h1v1h-1zM114,61h1v1h-1zM63,68h1v1h-1zM58,70h1v1h-1zM119,70h1v1h-1zM78,79h1v1h-1zM93,81h1v1h-1zM117,82h1v1h-1zM101,83h1v1h-1zM121,83h1v1h-1zM62,84h1v1h-1zM110,84h1v1h-1zM113,84h1v1h-1zM112,85h1v1h-1zM65,103h1v1h-1zM66,109h1v1h-1zM67,122h1v1h-1z" fill="#6b64a5" opacity="0.98"/>
  <path d="M113,43h1v1h-1zM116,119h1v1h-1z" fill="#6a63a5" opacity="0.58"/>
  <path d="M116,43h1v1h-1z" fill="#63559c" opacity="0.07"/>
  <path d="M121,43h1v1h-1zM52,53h1v1h-1zM58,76h1v1h-1zM116,77h1v1h-1zM75,82h1v1h-1zM117,104h1v1h-1z" fill="#6963a4" opacity="0.35"/>
  <path d="M38,44h1v1h-1z" fill="#64649b" opacity="0.11"/>
  <path d="M39,44h1v1h-1zM85,50h1v1h-1zM78,78h1v1h-1zM86,86h1v1h-1zM78,102h1v1h-1zM63,105h1v1h-1z" fill="#6a64a4" opacity="0.72"/>
  <path d="M42,44h1v1h-1zM69,55h1v1h-1zM84,86h1v1h-1zM78,88h1v1h-1zM106,120h1v1h-1z" fill="#6a65a4" opacity="0.93"/>
  <path d="M43,44h1v1h-1z" fill="#6a63a4" opacity="0.68"/>
  <path d="M44,44h1v1h-1zM105,85h1v1h-1z" fill="#6a63a4" opacity="0.78"/>
  <path d="M45,44h1v1h-1zM66,46h1v1h-1zM35,56h1v1h-1zM86,83h1v1h-1zM110,83h1v1h-1zM48,91h1v1h-1zM121,100h1v1h-1zM78,103h1v1h-1zM118,108h1v1h-1zM91,123h1v1h-1z" fill="#6a65a5" opacity="0.87"/>
  <path d="M46,44h1v1h-1zM110,45h1v1h-1zM63,48h1v1h-1zM68,51h1v1h-1zM120,52h1v1h-1zM36,59h1v1h-1zM111,78h1v1h-1zM86,79h1v1h-1zM112,84h1v1h-1zM61,91h1v1h-1zM102,116h1v1h-1zM103,122h1v1h-1z" fill="#6b64a5" opacity="0.93"/>
  <path d="M49,44h1v1h-1zM72,52h1v1h-1zM66,88h1v1h-1zM59,89h1v1h-1z" fill="#6764a5" opacity="0.31"/>
  <path d="M51,44h1v1h-1zM113,45h1v1h-1zM72,51h1v1h-1zM111,120h1v1h-1zM63,124h1v1h-1z" fill="#6a55aa" opacity="0.05"/>
  <path d="M55,44h1v1h-1zM57,59h1v1h-1zM113,76h1v1h-1zM107,84h1v1h-1z" fill="#6a64a4" opacity="0.86"/>
  <path d="M77,44h1v1h-1z" fill="#695fa0" opacity="0.20"/>
  <path d="M78,44h1v1h-1zM106,63h1v1h-1z" fill="#6a62a4" opacity="0.57"/>
  <path d="M79,44h1v1h-1zM50,78h1v1h-1z" fill="#6a64a4" opacity="0.80"/>
  <path d="M82,44h1v1h-1zM87,87h1v1h-1z" fill="#6b65a4" opacity="0.80"/>
  <path d="M83,44h1v1h-1zM89,88h1v1h-1z" fill="#6b64a5" opacity="0.62"/>
  <path d="M85,44h1v1h-1zM77,54h1v1h-1z" fill="#6b64a5" opacity="0.84"/>
  <path d="M86,44h1v1h-1zM50,60h1v1h-1z" fill="#6964a5" opacity="0.61"/>
  <path d="M87,44h1v1h-1zM89,89h1v1h-1zM75,113h1v1h-1z" fill="#6962a3" opacity="0.15"/>
  <path d="M95,44h1v1h-1zM110,64h1v1h-1zM63,104h1v1h-1z" fill="#6a64a4" opacity="0.53"/>
  <path d="M96,44h1v1h-1zM125,76h1v1h-1zM58,80h1v1h-1zM72,111h1v1h-1zM103,116h1v1h-1zM79,120h1v1h-1z" fill="#6464a6" opacity="0.09"/>
  <path d="M102,44h1v1h-1zM77,46h1v1h-1zM50,52h1v1h-1zM50,59h1v1h-1zM59,77h1v1h-1zM79,79h1v1h-1zM92,84h1v1h-1zM70,115h1v1h-1zM83,123h1v1h-1zM66,126h1v1h-1z" fill="#6a65a4" opacity="0.98"/>
  <path d="M104,44h1v1h-1zM100,88h1v1h-1zM113,122h1v1h-1z" fill="#6a61a3" opacity="0.35"/>
  <path d="M112,44h1v1h-1zM123,49h1v1h-1zM49,55h1v1h-1zM79,55h1v1h-1zM119,75h1v1h-1zM58,77h1v1h-1zM89,87h1v1h-1zM85,88h1v1h-1zM46,91h1v1h-1zM94,115h1v1h-1zM77,117h1v1h-1zM107,119h1v1h-1zM103,121h1v1h-1z" fill="#6b64a5" opacity="0.96"/>
  <path d="M113,44h1v1h-1zM119,50h1v1h-1z" fill="#6763a3" opacity="0.28"/>
  <path d="M115,44h1v1h-1zM75,117h1v1h-1z" fill="#555595" opacity="0.05"/>
  <path d="M116,44h1v1h-1z" fill="#6a66a7" opacity="0.44"/>
  <path d="M38,45h1v1h-1zM75,90h1v1h-1zM102,119h1v1h-1z" fill="#6964a4" opacity="0.36"/>
  <path d="M39,45h1v1h-1zM111,48h1v1h-1zM116,50h1v1h-1zM118,50h1v1h-1zM90,53h1v1h-1zM104,84h1v1h-1zM109,86h1v1h-1zM96,121h1v1h-1z" fill="#6a64a4" opacity="0.85"/>
  <path d="M48,45h1v1h-1zM60,47h1v1h-1zM119,53h1v1h-1zM86,78h1v1h-1zM113,83h1v1h-1zM122,83h1v1h-1zM117,85h1v1h-1zM66,91h1v1h-1zM45,92h1v1h-1zM100,122h1v1h-1zM67,124h1v1h-1z" fill="#6a64a5" opacity="0.80"/>
  <path d="M52,45h1v1h-1zM116,59h1v1h-1zM69,120h1v1h-1z" fill="#6a63a3" opacity="0.56"/>
  <path d="M53,45h1v1h-1zM125,78h1v1h-1z" fill="#6a65a5" opacity="0.81"/>
  <path d="M55,45h1v1h-1z" fill="#6562a5" opacity="0.27"/>
  <path d="M66,45h1v1h-1zM103,120h1v1h-1z" fill="#6965a5" opacity="0.27"/>
  <path d="M67,45h1v1h-1zM93,55h1v1h-1z" fill="#6963a3" opacity="0.53"/>
  <path d="M69,45h1v1h-1zM36,48h1v1h-1zM84,56h1v1h-1zM110,59h1v1h-1zM103,110h1v1h-1z" fill="#6964a4" opacity="0.44"/>
  <path d="M70,45h1v1h-1zM42,48h1v1h-1zM36,49h1v1h-1zM41,50h1v1h-1zM114,51h1v1h-1zM57,72h1v1h-1zM67,85h1v1h-1zM67,92h1v1h-1zM83,112h1v1h-1zM104,119h1v1h-1z" fill="#63639c" opacity="0.07"/>
  <path d="M76,45h1v1h-1zM53,70h1v1h-1zM121,73h1v1h-1zM104,78h1v1h-1zM74,88h1v1h-1zM102,110h1v1h-1z" fill="#6b64a5" opacity="0.31"/>
  <path d="M86,45h1v1h-1zM113,59h1v1h-1z" fill="#6b64a5" opacity="0.73"/>
  <path d="M87,45h1v1h-1zM114,46h1v1h-1zM64,67h1v1h-1zM111,87h1v1h-1zM67,105h1v1h-1zM75,118h1v1h-1zM94,120h1v1h-1z" fill="#6661a3" opacity="0.20"/>
  <path d="M92,45h1v1h-1z" fill="#6a63a5" opacity="0.71"/>
  <path d="M94,45h1v1h-1zM121,50h1v1h-1zM79,125h1v1h-1z" fill="#6a64a4" opacity="0.96"/>
  <path d="M100,45h1v1h-1zM72,83h1v1h-1zM117,103h1v1h-1zM83,118h1v1h-1zM68,124h1v1h-1z" fill="#66609f" opacity="0.18"/>
  <path d="M101,45h1v1h-1zM91,49h1v1h-1zM102,51h1v1h-1zM78,118h1v1h-1z" fill="#6b65a4" opacity="0.88"/>
  <path d="M103,45h1v1h-1zM63,49h1v1h-1zM120,66h1v1h-1zM103,79h1v1h-1zM60,90h1v1h-1zM84,113h1v1h-1z" fill="#6a64a5" opacity="0.92"/>
  <path d="M104,45h1v1h-1zM52,83h1v1h-1zM95,84h1v1h-1zM92,125h1v1h-1z" fill="#6c62a7" opacity="0.10"/>
  <path d="M109,45h1v1h-1zM73,48h1v1h-1zM94,51h1v1h-1zM77,77h1v1h-1zM115,85h1v1h-1z" fill="#5b5b92" opacity="0.05"/>
  <path d="M112,45h1v1h-1z" fill="#6b64a5" opacity="0.87"/>
  <path d="M115,45h1v1h-1z" fill="#6965a7" opacity="0.31"/>
  <path d="M116,45h1v1h-1zM44,46h1v1h-1z" fill="#6a64a5" opacity="0.90"/>
  <path d="M119,45h1v1h-1zM100,48h1v1h-1zM118,48h1v1h-1zM113,49h1v1h-1zM50,51h1v1h-1zM97,52h1v1h-1zM63,70h1v1h-1zM97,78h1v1h-1zM84,84h1v1h-1zM64,90h1v1h-1zM86,120h1v1h-1z" fill="#6a65a4" opacity="0.96"/>
  <path d="M120,45h1v1h-1zM67,58h1v1h-1zM71,87h1v1h-1zM117,112h1v1h-1zM83,116h1v1h-1zM79,126h1v1h-1z" fill="#6a63a4" opacity="0.60"/>
  <path d="M36,46h1v1h-1zM77,91h1v1h-1z" fill="#6a65a7" opacity="0.23"/>
  <path d="M37,46h1v1h-1zM114,63h1v1h-1zM85,80h1v1h-1zM125,80h1v1h-1z" fill="#6a64a3" opacity="0.64"/>
  <path d="M38,46h1v1h-1zM94,83h1v1h-1zM66,107h1v1h-1zM77,125h1v1h-1z" fill="#6b65a5" opacity="0.87"/>
  <path d="M39,46h1v1h-1zM51,49h1v1h-1zM67,111h1v1h-1zM79,116h1v1h-1z" fill="#6b65a6" opacity="0.97"/>
  <path d="M45,46h1v1h-1zM120,74h1v1h-1zM52,81h1v1h-1zM118,81h1v1h-1zM119,85h1v1h-1zM78,90h1v1h-1zM79,107h1v1h-1zM66,120h1v1h-1zM96,123h1v1h-1z" fill="#6a65a5" opacity="0.75"/>
  <path d="M46,46h1v1h-1zM79,90h1v1h-1z" fill="#6964a4" opacity="0.58"/>
  <path d="M47,46h1v1h-1zM45,90h1v1h-1z" fill="#6a64a5" opacity="0.37"/>
  <path d="M48,46h1v1h-1zM47,84h1v1h-1zM76,116h1v1h-1zM82,121h1v1h-1z" fill="#6a64a2" opacity="0.16"/>
  <path d="M53,46h1v1h-1zM35,47h1v1h-1zM96,76h1v1h-1zM87,85h1v1h-1zM94,86h1v1h-1z" fill="#6a63a3" opacity="0.14"/>
  <path d="M54,46h1v1h-1zM113,47h1v1h-1zM77,53h1v1h-1zM118,111h1v1h-1zM79,121h1v1h-1z" fill="#6363a5" opacity="0.12"/>
  <path d="M60,46h1v1h-1zM116,86h1v1h-1zM69,111h1v1h-1zM88,117h1v1h-1z" fill="#5e5ea1" opacity="0.07"/>
  <path d="M61,46h1v1h-1zM79,119h1v1h-1z" fill="#6863a7" opacity="0.19"/>
  <path d="M64,46h1v1h-1z" fill="#6763a0" opacity="0.24"/>
  <path d="M65,46h1v1h-1z" fill="#6b64a6" opacity="0.67"/>
  <path d="M67,46h1v1h-1zM74,50h1v1h-1zM60,53h1v1h-1zM72,53h1v1h-1zM83,53h1v1h-1zM58,58h1v1h-1zM34,60h1v1h-1zM108,68h1v1h-1zM62,70h1v1h-1zM68,120h1v1h-1zM83,122h1v1h-1z" fill="#6b65a5" opacity="0.93"/>
  <path d="M70,46h1v1h-1z" fill="#6b63a4" opacity="0.37"/>
  <path d="M75,46h1v1h-1zM77,49h1v1h-1zM66,50h1v1h-1zM37,59h1v1h-1zM123,67h1v1h-1zM78,101h1v1h-1zM66,129h1v1h-1z" fill="#6963a3" opacity="0.29"/>
  <path d="M76,46h1v1h-1zM110,82h1v1h-1z" fill="#6a65a4" opacity="0.80"/>
  <path d="M80,46h1v1h-1zM75,56h1v1h-1z" fill="#6a65a4" opacity="0.99"/>
  <path d="M86,46h1v1h-1zM113,48h1v1h-1z" fill="#6b64a6" opacity="0.63"/>
  <path d="M91,46h1v1h-1zM70,49h1v1h-1zM56,80h1v1h-1zM108,116h1v1h-1zM63,128h1v1h-1z" fill="#6865a4" opacity="0.32"/>
  <path d="M100,46h1v1h-1zM79,82h1v1h-1zM81,86h1v1h-1z" fill="#6965a6" opacity="0.45"/>
  <path d="M103,46h1v1h-1z" fill="#6963a3" opacity="0.65"/>
  <path d="M109,46h1v1h-1z" fill="#6964a3" opacity="0.63"/>
  <path d="M115,46h1v1h-1z" fill="#6a66a4" opacity="0.83"/>
  <path d="M119,46h1v1h-1zM118,49h1v1h-1zM114,62h1v1h-1zM54,70h1v1h-1zM79,78h1v1h-1zM95,123h1v1h-1zM80,125h1v1h-1z" fill="#6a65a5" opacity="0.90"/>
  <path d="M43,47h1v1h-1zM69,52h1v1h-1zM87,84h1v1h-1zM76,106h1v1h-1zM81,122h1v1h-1z" fill="#6964a5" opacity="0.20"/>
  <path d="M46,47h1v1h-1zM125,50h1v1h-1zM33,62h1v1h-1z" fill="#666699" opacity="0.06"/>
  <path d="M51,47h1v1h-1zM112,48h1v1h-1zM93,76h1v1h-1zM103,83h1v1h-1zM62,107h1v1h-1zM114,112h1v1h-1zM101,124h1v1h-1z" fill="#6363aa" opacity="0.07"/>
  <path d="M59,47h1v1h-1z" fill="#6666a1" opacity="0.12"/>
  <path d="M61,47h1v1h-1z" fill="#6b65a6" opacity="0.84"/>
  <path d="M62,47h1v1h-1z" fill="#6963a4" opacity="0.37"/>
  <path d="M63,47h1v1h-1zM73,84h1v1h-1z" fill="#6a65a5" opacity="0.44"/>
  <path d="M64,47h1v1h-1zM120,83h1v1h-1zM66,113h1v1h-1zM67,123h1v1h-1z" fill="#6b65a5" opacity="0.89"/>
  <path d="M70,47h1v1h-1z" fill="#6a63a2" opacity="0.52"/>
  <path d="M74,47h1v1h-1zM119,80h1v1h-1zM90,89h1v1h-1z" fill="#6762a2" opacity="0.20"/>
  <path d="M77,47h1v1h-1zM98,50h1v1h-1zM98,51h1v1h-1zM121,63h1v1h-1zM105,64h1v1h-1zM122,82h1v1h-1zM101,85h1v1h-1zM73,112h1v1h-1zM92,116h1v1h-1zM69,117h1v1h-1zM99,119h1v1h-1z" fill="#6a64a5" opacity="0.97"/>
  <path d="M79,47h1v1h-1zM105,60h1v1h-1zM70,79h1v1h-1z" fill="#6963a3" opacity="0.31"/>
  <path d="M81,47h1v1h-1zM61,67h1v1h-1zM95,111h1v1h-1zM83,120h1v1h-1zM77,126h1v1h-1z" fill="#6965a4" opacity="0.41"/>
  <path d="M82,47h1v1h-1zM59,49h1v1h-1zM48,57h1v1h-1zM106,119h1v1h-1z" fill="#6a64a4" opacity="0.81"/>
  <path d="M86,47h1v1h-1zM91,83h1v1h-1zM107,85h1v1h-1zM103,123h1v1h-1z" fill="#6a64a5" opacity="0.49"/>
  <path d="M91,47h1v1h-1z" fill="#6a65a3" opacity="0.56"/>
  <path d="M94,47h1v1h-1zM54,56h1v1h-1zM85,56h1v1h-1zM54,80h1v1h-1zM112,86h1v1h-1zM73,114h1v1h-1zM87,116h1v1h-1z" fill="#6a64a5" opacity="0.50"/>
  <path d="M103,47h1v1h-1z" fill="#6a61a4" opacity="0.33"/>
  <path d="M112,47h1v1h-1zM114,85h1v1h-1zM105,119h1v1h-1z" fill="#6763a4" opacity="0.26"/>
  <path d="M116,47h1v1h-1z" fill="#6963a4" opacity="0.87"/>
  <path d="M117,47h1v1h-1z" fill="#6b65a4" opacity="0.89"/>
  <path d="M119,47h1v1h-1zM108,58h1v1h-1zM120,103h1v1h-1zM119,106h1v1h-1z" fill="#6b65a5" opacity="0.83"/>
  <path d="M120,47h1v1h-1zM80,86h1v1h-1zM45,89h1v1h-1zM117,102h1v1h-1zM80,122h1v1h-1zM93,125h1v1h-1z" fill="#6464a4" opacity="0.11"/>
  <path d="M124,47h1v1h-1zM117,113h1v1h-1z" fill="#695ea1" opacity="0.18"/>
  <path d="M125,47h1v1h-1z" fill="#6a64a2" opacity="0.32"/>
  <path d="M126,47h1v1h-1zM76,126h1v1h-1z" fill="#6d64a4" opacity="0.11"/>
  <path d="M37,48h1v1h-1zM38,54h1v1h-1z" fill="#6b64a5" opacity="0.81"/>
  <path d="M41,48h1v1h-1zM65,92h1v1h-1zM100,123h1v1h-1z" fill="#6a64a5" opacity="0.39"/>
  <path d="M50,48h1v1h-1z" fill="#6666a7" opacity="0.22"/>
  <path d="M52,48h1v1h-1zM58,52h1v1h-1zM87,80h1v1h-1zM110,81h1v1h-1zM75,88h1v1h-1zM99,118h1v1h-1zM113,118h1v1h-1z" fill="#6b64a4" opacity="0.88"/>
  <path d="M53,48h1v1h-1z" fill="#6764a4" opacity="0.34"/>
  <path d="M60,48h1v1h-1zM67,50h1v1h-1zM100,76h1v1h-1zM67,89h1v1h-1z" fill="#6b65a6" opacity="0.98"/>
  <path d="M62,48h1v1h-1zM66,58h1v1h-1zM106,69h1v1h-1zM123,82h1v1h-1zM80,116h1v1h-1zM104,122h1v1h-1z" fill="#6a64a4" opacity="0.79"/>
  <path d="M65,48h1v1h-1zM99,84h1v1h-1zM67,110h1v1h-1z" fill="#6b64a5" opacity="0.85"/>
  <path d="M70,48h1v1h-1z" fill="#6963a5" opacity="0.47"/>
  <path d="M74,48h1v1h-1zM61,71h1v1h-1z" fill="#6a63a2" opacity="0.44"/>
  <path d="M77,48h1v1h-1zM39,52h1v1h-1zM56,77h1v1h-1z" fill="#6b64a5" opacity="0.65"/>
  <path d="M81,48h1v1h-1zM65,51h1v1h-1zM72,81h1v1h-1zM73,88h1v1h-1zM47,95h1v1h-1zM116,106h1v1h-1z" fill="#665ca3" opacity="0.10"/>
  <path d="M82,48h1v1h-1zM102,87h1v1h-1z" fill="#6a64a5" opacity="0.59"/>
  <path d="M86,48h1v1h-1zM104,69h1v1h-1z" fill="#6964a6" opacity="0.38"/>
  <path d="M91,48h1v1h-1zM107,81h1v1h-1zM76,90h1v1h-1z" fill="#6b65a5" opacity="0.72"/>
  <path d="M93,48h1v1h-1zM52,51h1v1h-1zM75,51h1v1h-1zM116,110h1v1h-1zM94,112h1v1h-1zM115,119h1v1h-1z" fill="#6b64a4" opacity="0.96"/>
  <path d="M94,48h1v1h-1z" fill="#6c65a2" opacity="0.28"/>
  <path d="M99,48h1v1h-1zM113,51h1v1h-1zM112,55h1v1h-1zM95,114h1v1h-1z" fill="#6a65a5" opacity="0.64"/>
  <path d="M102,48h1v1h-1zM66,52h1v1h-1zM91,54h1v1h-1z" fill="#6b64a4" opacity="0.93"/>
  <path d="M103,48h1v1h-1zM115,72h1v1h-1zM95,120h1v1h-1z" fill="#6a609f" opacity="0.09"/>
  <path d="M106,48h1v1h-1zM113,52h1v1h-1zM79,84h1v1h-1zM67,102h1v1h-1zM95,117h1v1h-1z" fill="#665599" opacity="0.06"/>
  <path d="M107,48h1v1h-1zM71,113h1v1h-1z" fill="#6c64a5" opacity="0.68"/>
  <path d="M116,48h1v1h-1zM64,129h1v1h-1z" fill="#6864a5" opacity="0.50"/>
  <path d="M119,48h1v1h-1zM48,83h1v1h-1zM86,85h1v1h-1zM80,87h1v1h-1zM67,117h1v1h-1zM90,121h1v1h-1z" fill="#6a64a4" opacity="0.65"/>
  <path d="M122,48h1v1h-1zM105,53h1v1h-1zM106,64h1v1h-1zM126,80h1v1h-1zM68,91h1v1h-1z" fill="#655ea1" opacity="0.15"/>
  <path d="M123,48h1v1h-1zM117,105h1v1h-1z" fill="#6963a5" opacity="0.59"/>
  <path d="M124,48h1v1h-1zM123,50h1v1h-1zM112,57h1v1h-1zM48,80h1v1h-1zM77,86h1v1h-1z" fill="#6a64a5" opacity="0.88"/>
  <path d="M126,48h1v1h-1zM101,111h1v1h-1zM86,113h1v1h-1zM81,126h1v1h-1z" fill="#6962a5" opacity="0.27"/>
  <path d="M37,49h1v1h-1z" fill="#6965a5" opacity="0.67"/>
  <path d="M40,49h1v1h-1z" fill="#6a65a4" opacity="0.78"/>
  <path d="M41,49h1v1h-1zM119,66h1v1h-1zM105,82h1v1h-1z" fill="#6a65a5" opacity="0.19"/>
  <path d="M53,49h1v1h-1zM115,80h1v1h-1z" fill="#6a65a4" opacity="0.62"/>
  <path d="M58,49h1v1h-1zM121,61h1v1h-1zM115,114h1v1h-1zM98,123h1v1h-1zM85,124h1v1h-1z" fill="#6a6aaa" opacity="0.05"/>
  <path d="M64,49h1v1h-1z" fill="#6862a3" opacity="0.50"/>
  <path d="M66,49h1v1h-1z" fill="#6b62a6" opacity="0.22"/>
  <path d="M73,49h1v1h-1zM107,66h1v1h-1zM92,79h1v1h-1z" fill="#6b66a3" opacity="0.20"/>
  <path d="M76,49h1v1h-1zM68,52h1v1h-1zM65,54h1v1h-1zM113,64h1v1h-1zM54,76h1v1h-1zM85,81h1v1h-1zM100,81h1v1h-1zM111,84h1v1h-1zM102,85h1v1h-1z" fill="#6b65a4" opacity="0.82"/>
  <path d="M82,49h1v1h-1zM51,55h1v1h-1zM115,61h1v1h-1zM124,79h1v1h-1zM92,124h1v1h-1z" fill="#6b64a5" opacity="0.72"/>
  <path d="M85,49h1v1h-1z" fill="#6b65a5" opacity="0.81"/>
  <path d="M86,49h1v1h-1zM75,57h1v1h-1zM98,79h1v1h-1z" fill="#6b64a5" opacity="0.29"/>
  <path d="M90,49h1v1h-1zM117,56h1v1h-1zM60,84h1v1h-1z" fill="#6b64a5" opacity="0.43"/>
  <path d="M98,49h1v1h-1zM88,54h1v1h-1z" fill="#6a64a5" opacity="0.66"/>
  <path d="M99,49h1v1h-1zM62,88h1v1h-1z" fill="#6b65a4" opacity="0.95"/>
  <path d="M102,49h1v1h-1zM104,53h1v1h-1zM69,57h1v1h-1zM55,74h1v1h-1zM71,81h1v1h-1zM63,84h1v1h-1zM91,84h1v1h-1zM82,88h1v1h-1zM76,118h1v1h-1zM84,118h1v1h-1zM68,122h1v1h-1z" fill="#6a64a5" opacity="0.70"/>
  <path d="M106,49h1v1h-1z" fill="#6a64a3" opacity="0.71"/>
  <path d="M111,49h1v1h-1zM81,113h1v1h-1zM85,122h1v1h-1zM67,125h1v1h-1z" fill="#6a65a4" opacity="0.73"/>
  <path d="M112,49h1v1h-1zM118,54h1v1h-1zM88,79h1v1h-1zM48,82h1v1h-1zM67,115h1v1h-1zM102,120h1v1h-1zM91,124h1v1h-1z" fill="#6963a4" opacity="0.51"/>
  <path d="M115,49h1v1h-1z" fill="#6864a5" opacity="0.51"/>
  <path d="M116,49h1v1h-1zM62,71h1v1h-1z" fill="#6a63a5" opacity="0.55"/>
  <path d="M119,49h1v1h-1z" fill="#6862a2" opacity="0.40"/>
  <path d="M121,49h1v1h-1zM77,104h1v1h-1z" fill="#6863a3" opacity="0.40"/>
  <path d="M122,49h1v1h-1zM123,63h1v1h-1zM57,77h1v1h-1zM119,77h1v1h-1zM63,89h1v1h-1zM99,120h1v1h-1z" fill="#6b65a5" opacity="0.82"/>
  <path d="M124,49h1v1h-1zM105,52h1v1h-1z" fill="#6a64a5" opacity="0.94"/>
  <path d="M126,49h1v1h-1zM60,56h1v1h-1zM108,65h1v1h-1zM116,105h1v1h-1zM82,112h1v1h-1z" fill="#6666aa" opacity="0.06"/>
  <path d="M36,50h1v1h-1zM86,50h1v1h-1z" fill="#6b61a2" opacity="0.22"/>
  <path d="M37,50h1v1h-1zM81,53h1v1h-1z" fill="#6a65a4" opacity="0.79"/>
  <path d="M40,50h1v1h-1zM71,53h1v1h-1zM55,77h1v1h-1zM68,85h1v1h-1zM82,85h1v1h-1zM60,91h1v1h-1z" fill="#6a63a4" opacity="0.46"/>
  <path d="M49,50h1v1h-1z" fill="#7163aa" opacity="0.07"/>
  <path d="M58,50h1v1h-1z" fill="#6c63a4" opacity="0.23"/>
  <path d="M62,50h1v1h-1zM75,110h1v1h-1zM66,127h1v1h-1z" fill="#6b65a5" opacity="0.94"/>
  <path d="M63,50h1v1h-1zM67,91h1v1h-1z" fill="#6a63a3" opacity="0.44"/>
  <path d="M69,50h1v1h-1zM71,82h1v1h-1zM93,119h1v1h-1z" fill="#6a65a4" opacity="0.77"/>
  <path d="M70,50h1v1h-1z" fill="#60559f" opacity="0.09"/>
  <path d="M89,50h1v1h-1zM99,53h1v1h-1zM111,53h1v1h-1z" fill="#6963a6" opacity="0.31"/>
  <path d="M93,50h1v1h-1zM65,53h1v1h-1zM67,82h1v1h-1z" fill="#6b65a5" opacity="0.51"/>
  <path d="M96,50h1v1h-1z" fill="#685da2" opacity="0.17"/>
  <path d="M102,50h1v1h-1z" fill="#6863a3" opacity="0.56"/>
  <path d="M104,50h1v1h-1zM107,62h1v1h-1zM115,84h1v1h-1z" fill="#6a64a4" opacity="0.33"/>
  <path d="M105,50h1v1h-1z" fill="#6c65a5" opacity="0.85"/>
  <path d="M114,50h1v1h-1zM46,88h1v1h-1z" fill="#6a63a3" opacity="0.58"/>
  <path d="M115,50h1v1h-1z" fill="#645d9b" opacity="0.13"/>
  <path d="M120,50h1v1h-1z" fill="#6963a4" opacity="0.69"/>
  <path d="M36,51h1v1h-1zM63,80h1v1h-1zM116,85h1v1h-1zM63,88h1v1h-1zM80,106h1v1h-1z" fill="#6964a3" opacity="0.46"/>
  <path d="M37,51h1v1h-1zM90,86h1v1h-1zM47,87h1v1h-1zM62,87h1v1h-1zM69,88h1v1h-1zM66,108h1v1h-1zM69,113h1v1h-1z" fill="#6b65a5" opacity="0.91"/>
  <path d="M40,51h1v1h-1z" fill="#6a61a7" opacity="0.23"/>
  <path d="M49,51h1v1h-1zM75,119h1v1h-1z" fill="#6b65a3" opacity="0.34"/>
  <path d="M58,51h1v1h-1zM113,57h1v1h-1z" fill="#6963a5" opacity="0.55"/>
  <path d="M62,51h1v1h-1zM115,112h1v1h-1z" fill="#6964a4" opacity="0.64"/>
  <path d="M66,51h1v1h-1zM60,77h1v1h-1z" fill="#6964a3" opacity="0.61"/>
  <path d="M69,51h1v1h-1zM77,79h1v1h-1z" fill="#6a65a4" opacity="0.54"/>
  <path d="M76,51h1v1h-1zM108,69h1v1h-1zM116,73h1v1h-1z" fill="#6b63a5" opacity="0.55"/>
  <path d="M85,51h1v1h-1zM118,102h1v1h-1zM67,109h1v1h-1zM78,109h1v1h-1zM77,116h1v1h-1zM94,124h1v1h-1z" fill="#6a64a4" opacity="0.67"/>
  <path d="M86,51h1v1h-1zM69,54h1v1h-1zM109,69h1v1h-1z" fill="#6964a6" opacity="0.18"/>
  <path d="M88,51h1v1h-1zM106,59h1v1h-1z" fill="#6962a1" opacity="0.27"/>
  <path d="M89,51h1v1h-1z" fill="#6a63a3" opacity="0.76"/>
  <path d="M93,51h1v1h-1z" fill="#6863a1" opacity="0.38"/>
  <path d="M100,51h1v1h-1zM96,52h1v1h-1zM103,52h1v1h-1zM66,57h1v1h-1zM115,58h1v1h-1zM51,78h1v1h-1z" fill="#6a65a5" opacity="0.99"/>
  <path d="M103,51h1v1h-1zM123,64h1v1h-1z" fill="#6a65a5" opacity="0.79"/>
  <path d="M115,51h1v1h-1z" fill="#6a60a3" opacity="0.28"/>
  <path d="M116,51h1v1h-1zM38,53h1v1h-1z" fill="#6a64a4" opacity="0.99"/>
  <path d="M118,51h1v1h-1zM76,124h1v1h-1z" fill="#6a64a4" opacity="0.92"/>
  <path d="M119,51h1v1h-1z" fill="#6b65a6" opacity="0.86"/>
  <path d="M123,51h1v1h-1zM120,53h1v1h-1zM68,58h1v1h-1zM112,60h1v1h-1zM123,79h1v1h-1zM84,89h1v1h-1z" fill="#6a62a5" opacity="0.25"/>
  <path d="M35,52h1v1h-1zM124,65h1v1h-1z" fill="#6459a6" opacity="0.09"/>
  <path d="M36,52h1v1h-1zM85,113h1v1h-1z" fill="#6963a5" opacity="0.67"/>
  <path d="M49,52h1v1h-1zM107,120h1v1h-1z" fill="#6964a5" opacity="0.60"/>
  <path d="M52,52h1v1h-1zM115,113h1v1h-1z" fill="#6a63a5" opacity="0.70"/>
  <path d="M57,52h1v1h-1zM122,52h1v1h-1zM81,78h1v1h-1zM84,80h1v1h-1zM90,84h1v1h-1z" fill="#6a619e" opacity="0.11"/>
  <path d="M62,52h1v1h-1zM37,60h1v1h-1zM124,62h1v1h-1zM120,77h1v1h-1z" fill="#645da2" opacity="0.13"/>
  <path d="M65,52h1v1h-1zM57,80h1v1h-1zM63,103h1v1h-1z" fill="#6c62a7" opacity="0.20"/>
  <path d="M73,52h1v1h-1z" fill="#6a65a4" opacity="0.85"/>
  <path d="M76,52h1v1h-1z" fill="#6b64a5" opacity="0.57"/>
  <path d="M80,52h1v1h-1z" fill="#6a63a5" opacity="0.62"/>
  <path d="M86,52h1v1h-1z" fill="#6662a1" opacity="0.25"/>
  <path d="M88,52h1v1h-1zM114,82h1v1h-1zM98,119h1v1h-1zM78,122h1v1h-1zM79,123h1v1h-1z" fill="#6b64a5" opacity="0.79"/>
  <path d="M94,52h1v1h-1z" fill="#6b63a5" opacity="0.76"/>
  <path d="M98,52h1v1h-1zM118,101h1v1h-1zM76,117h1v1h-1z" fill="#6962a4" opacity="0.43"/>
  <path d="M99,52h1v1h-1z" fill="#6964a5" opacity="0.65"/>
  <path d="M106,52h1v1h-1zM39,53h1v1h-1z" fill="#6964a3" opacity="0.38"/>
  <path d="M107,52h1v1h-1z" fill="#6666a0" opacity="0.14"/>
  <path d="M112,52h1v1h-1zM101,112h1v1h-1z" fill="#6963a4" opacity="0.63"/>
  <path d="M114,52h1v1h-1zM48,53h1v1h-1zM74,57h1v1h-1z" fill="#70609f" opacity="0.06"/>
  <path d="M115,52h1v1h-1z" fill="#6c63a5" opacity="0.58"/>
  <path d="M35,53h1v1h-1z" fill="#6b65a6" opacity="0.34"/>
  <path d="M36,53h1v1h-1zM67,54h1v1h-1zM70,80h1v1h-1zM117,106h1v1h-1z" fill="#6a64a4" opacity="0.83"/>
  <path d="M49,53h1v1h-1z" fill="#6b64a4" opacity="0.86"/>
  <path d="M61,53h1v1h-1z" fill="#6b61a5" opacity="0.43"/>
  <path d="M68,53h1v1h-1zM38,55h1v1h-1zM80,79h1v1h-1zM48,92h1v1h-1z" fill="#6b64a4" opacity="0.57"/>
  <path d="M70,53h1v1h-1zM118,99h1v1h-1zM62,105h1v1h-1zM74,114h1v1h-1z" fill="#6666a6" opacity="0.08"/>
  <path d="M76,53h1v1h-1zM99,83h1v1h-1z" fill="#6964a5" opacity="0.70"/>
  <path d="M78,53h1v1h-1zM120,62h1v1h-1z" fill="#6a60aa" opacity="0.09"/>
  <path d="M79,53h1v1h-1z" fill="#6a63a6" opacity="0.54"/>
  <path d="M89,53h1v1h-1zM68,55h1v1h-1zM48,58h1v1h-1z" fill="#6964a4" opacity="0.70"/>
  <path d="M96,53h1v1h-1zM63,81h1v1h-1zM62,82h1v1h-1zM68,87h1v1h-1zM80,89h1v1h-1zM102,111h1v1h-1zM67,118h1v1h-1z" fill="#6a64a4" opacity="0.91"/>
  <path d="M97,53h1v1h-1zM113,54h1v1h-1zM56,59h1v1h-1zM49,60h1v1h-1z" fill="#6862a4" opacity="0.32"/>
  <path d="M110,53h1v1h-1z" fill="#6a65a6" opacity="0.77"/>
  <path d="M114,53h1v1h-1z" fill="#63639c" opacity="0.12"/>
  <path d="M118,53h1v1h-1z" fill="#6a65a5" opacity="0.98"/>
  <path d="M35,54h1v1h-1zM58,59h1v1h-1z" fill="#6b65a4" opacity="0.57"/>
  <path d="M39,54h1v1h-1zM86,56h1v1h-1zM115,79h1v1h-1zM83,88h1v1h-1z" fill="#6a61a3" opacity="0.23"/>
  <path d="M48,54h1v1h-1zM120,63h1v1h-1z" fill="#6865a6" opacity="0.34"/>
  <path d="M52,54h1v1h-1z" fill="#6d559e" opacity="0.08"/>
  <path d="M60,54h1v1h-1zM119,69h1v1h-1zM93,79h1v1h-1z" fill="#6b65a6" opacity="0.82"/>
  <path d="M64,54h1v1h-1zM83,56h1v1h-1zM57,67h1v1h-1zM104,75h1v1h-1zM85,90h1v1h-1zM81,105h1v1h-1zM79,109h1v1h-1z" fill="#6760a5" opacity="0.15"/>
  <path d="M68,54h1v1h-1zM127,77h1v1h-1zM64,79h1v1h-1zM91,82h1v1h-1z" fill="#6b63a5" opacity="0.24"/>
  <path d="M70,54h1v1h-1z" fill="#6b64a5" opacity="0.70"/>
  <path d="M76,54h1v1h-1zM88,119h1v1h-1z" fill="#6b64a4" opacity="0.98"/>
  <path d="M78,54h1v1h-1z" fill="#6b63a4" opacity="0.84"/>
  <path d="M90,54h1v1h-1zM71,56h1v1h-1zM50,77h1v1h-1z" fill="#6b63a4" opacity="0.53"/>
  <path d="M96,54h1v1h-1z" fill="#695fa5" opacity="0.20"/>
  <path d="M100,54h1v1h-1zM36,61h1v1h-1zM81,101h1v1h-1zM65,121h1v1h-1zM114,122h1v1h-1z" fill="#6962a4" opacity="0.29"/>
  <path d="M102,54h1v1h-1z" fill="#6b64a3" opacity="0.46"/>
  <path d="M109,54h1v1h-1zM52,55h1v1h-1zM65,70h1v1h-1zM95,75h1v1h-1zM123,78h1v1h-1zM63,79h1v1h-1zM127,79h1v1h-1zM97,81h1v1h-1zM119,81h1v1h-1zM120,81h1v1h-1zM59,85h1v1h-1zM65,88h1v1h-1zM97,112h1v1h-1zM74,124h1v1h-1zM102,124h1v1h-1z" fill="#5d5da2" opacity="0.04"/>
  <path d="M117,54h1v1h-1z" fill="#6a63a4" opacity="0.93"/>
  <path d="M119,54h1v1h-1zM100,113h1v1h-1z" fill="#4e4e9d" opacity="0.05"/>
  <path d="M34,55h1v1h-1zM116,76h1v1h-1zM72,82h1v1h-1zM106,118h1v1h-1zM64,123h1v1h-1z" fill="#6863a1" opacity="0.19"/>
  <path d="M55,55h1v1h-1zM71,80h1v1h-1zM106,85h1v1h-1zM66,114h1v1h-1z" fill="#6963a3" opacity="0.39"/>
  <path d="M60,55h1v1h-1zM91,55h1v1h-1z" fill="#6964a4" opacity="0.42"/>
  <path d="M64,55h1v1h-1zM77,111h1v1h-1z" fill="#6763a5" opacity="0.24"/>
  <path d="M67,55h1v1h-1z" fill="#6b64a4" opacity="0.91"/>
  <path d="M72,55h1v1h-1zM84,87h1v1h-1z" fill="#6964a4" opacity="0.72"/>
  <path d="M73,55h1v1h-1zM65,122h1v1h-1z" fill="#6964a4" opacity="0.57"/>
  <path d="M80,55h1v1h-1zM52,72h1v1h-1z" fill="#6a64a6" opacity="0.52"/>
  <path d="M81,55h1v1h-1zM104,110h1v1h-1z" fill="#6969a5" opacity="0.07"/>
  <path d="M82,55h1v1h-1zM52,71h1v1h-1zM65,83h1v1h-1zM63,110h1v1h-1zM79,113h1v1h-1zM90,116h1v1h-1zM109,116h1v1h-1zM70,119h1v1h-1z" fill="#68609f" opacity="0.13"/>
  <path d="M86,55h1v1h-1zM109,59h1v1h-1zM106,62h1v1h-1zM98,77h1v1h-1zM90,118h1v1h-1z" fill="#6a64a5" opacity="0.95"/>
  <path d="M87,55h1v1h-1zM77,105h1v1h-1z" fill="#6b63a5" opacity="0.53"/>
  <path d="M88,55h1v1h-1zM63,93h1v1h-1zM63,125h1v1h-1z" fill="#6a61a7" opacity="0.11"/>
  <path d="M92,55h1v1h-1z" fill="#6a65a5" opacity="0.62"/>
  <path d="M94,55h1v1h-1zM103,68h1v1h-1z" fill="#6a62a1" opacity="0.24"/>
  <path d="M34,56h1v1h-1zM104,112h1v1h-1zM115,117h1v1h-1zM79,118h1v1h-1zM99,121h1v1h-1z" fill="#6a63a4" opacity="0.42"/>
  <path d="M37,56h1v1h-1zM107,67h1v1h-1zM59,68h1v1h-1z" fill="#6a64a5" opacity="0.98"/>
  <path d="M38,56h1v1h-1z" fill="#6963a2" opacity="0.35"/>
  <path d="M72,56h1v1h-1z" fill="#5a5aa5" opacity="0.07"/>
  <path d="M73,56h1v1h-1zM95,116h1v1h-1zM75,125h1v1h-1z" fill="#66609f" opacity="0.16"/>
  <path d="M79,56h1v1h-1zM33,60h1v1h-1zM51,84h1v1h-1zM74,87h1v1h-1zM119,99h1v1h-1zM122,99h1v1h-1z" fill="#6a64a5" opacity="0.51"/>
  <path d="M110,56h1v1h-1z" fill="#6761a3" opacity="0.35"/>
  <path d="M111,56h1v1h-1zM114,57h1v1h-1z" fill="#6a64a5" opacity="0.91"/>
  <path d="M37,57h1v1h-1z" fill="#6b63a4" opacity="0.78"/>
  <path d="M38,57h1v1h-1zM101,74h1v1h-1zM116,107h1v1h-1zM63,126h1v1h-1z" fill="#6863a5" opacity="0.21"/>
  <path d="M59,57h1v1h-1z" fill="#6864a5" opacity="0.64"/>
  <path d="M64,57h1v1h-1z" fill="#6d64a3" opacity="0.24"/>
  <path d="M77,57h1v1h-1zM52,60h1v1h-1z" fill="#6962a3" opacity="0.45"/>
  <path d="M117,57h1v1h-1zM50,76h1v1h-1z" fill="#6b61a3" opacity="0.20"/>
  <path d="M33,58h1v1h-1zM79,83h1v1h-1zM66,92h1v1h-1zM80,107h1v1h-1zM91,115h1v1h-1z" fill="#6964a4" opacity="0.22"/>
  <path d="M34,58h1v1h-1z" fill="#6b64a4" opacity="0.76"/>
  <path d="M37,58h1v1h-1zM100,75h1v1h-1zM92,114h1v1h-1zM104,120h1v1h-1z" fill="#6b65a5" opacity="0.53"/>
  <path d="M59,58h1v1h-1z" fill="#6764a5" opacity="0.29"/>
  <path d="M64,58h1v1h-1zM75,81h1v1h-1zM115,109h1v1h-1zM93,111h1v1h-1zM114,113h1v1h-1z" fill="#6d61aa" opacity="0.08"/>
  <path d="M65,58h1v1h-1zM112,121h1v1h-1z" fill="#6963a6" opacity="0.53"/>
  <path d="M107,58h1v1h-1z" fill="#685ea1" opacity="0.19"/>
  <path d="M112,58h1v1h-1zM65,69h1v1h-1zM96,82h1v1h-1zM108,87h1v1h-1zM70,89h1v1h-1zM87,90h1v1h-1zM71,112h1v1h-1z" fill="#6464a2" opacity="0.13"/>
  <path d="M113,58h1v1h-1z" fill="#6865a3" opacity="0.36"/>
  <path d="M33,59h1v1h-1z" fill="#6b63a6" opacity="0.39"/>
  <path d="M48,59h1v1h-1z" fill="#6a62a2" opacity="0.38"/>
  <path d="M53,59h1v1h-1zM101,79h1v1h-1z" fill="#6b64a6" opacity="0.91"/>
  <path d="M54,59h1v1h-1z" fill="#6a66a5" opacity="0.42"/>
  <path d="M51,60h1v1h-1z" fill="#6b66a5" opacity="0.62"/>
  <path d="M53,60h1v1h-1zM122,71h1v1h-1zM60,79h1v1h-1zM81,79h1v1h-1z" fill="#60609f" opacity="0.09"/>
  <path d="M108,60h1v1h-1zM61,70h1v1h-1zM106,84h1v1h-1z" fill="#6b64a5" opacity="0.89"/>
  <path d="M115,60h1v1h-1zM60,70h1v1h-1zM99,86h1v1h-1z" fill="#6a65a6" opacity="0.89"/>
  <path d="M35,61h1v1h-1z" fill="#6a64a5" opacity="0.79"/>
  <path d="M104,61h1v1h-1zM56,73h1v1h-1zM111,74h1v1h-1zM67,78h1v1h-1zM93,88h1v1h-1zM76,91h1v1h-1zM64,102h1v1h-1z" fill="#6762a3" opacity="0.18"/>
  <path d="M108,61h1v1h-1z" fill="#6c64a2" opacity="0.26"/>
  <path d="M111,61h1v1h-1zM55,76h1v1h-1zM91,81h1v1h-1zM103,82h1v1h-1zM75,91h1v1h-1zM49,92h1v1h-1zM84,112h1v1h-1zM66,115h1v1h-1zM74,120h1v1h-1zM112,122h1v1h-1z" fill="#60609f" opacity="0.06"/>
  <path d="M112,61h1v1h-1z" fill="#6b63a4" opacity="0.69"/>
  <path d="M34,62h1v1h-1z" fill="#6863a1" opacity="0.21"/>
  <path d="M35,62h1v1h-1z" fill="#635ca3" opacity="0.14"/>
  <path d="M104,62h1v1h-1zM102,123h1v1h-1z" fill="#6b65a4" opacity="0.69"/>
  <path d="M111,62h1v1h-1z" fill="#6760a2" opacity="0.29"/>
  <path d="M103,63h1v1h-1zM80,117h1v1h-1z" fill="#6863a0" opacity="0.23"/>
  <path d="M111,63h1v1h-1z" fill="#6b64a6" opacity="0.80"/>
  <path d="M114,64h1v1h-1z" fill="#6863a8" opacity="0.17"/>
  <path d="M120,64h1v1h-1zM121,72h1v1h-1zM68,83h1v1h-1z" fill="#6a65a5" opacity="0.56"/>
  <path d="M103,65h1v1h-1z" fill="#6b64a6" opacity="0.68"/>
  <path d="M109,65h1v1h-1zM94,76h1v1h-1z" fill="#6a61a4" opacity="0.34"/>
  <path d="M113,65h1v1h-1z" fill="#6862a5" opacity="0.38"/>
  <path d="M120,65h1v1h-1z" fill="#6a63a5" opacity="0.75"/>
  <path d="M106,66h1v1h-1zM64,83h1v1h-1zM73,111h1v1h-1zM94,121h1v1h-1z" fill="#6a64a3" opacity="0.50"/>
  <path d="M108,66h1v1h-1z" fill="#6864a4" opacity="0.45"/>
  <path d="M112,66h1v1h-1z" fill="#6962a3" opacity="0.54"/>
  <path d="M58,67h1v1h-1zM113,86h1v1h-1zM75,108h1v1h-1z" fill="#6a65a4" opacity="0.21"/>
  <path d="M59,67h1v1h-1z" fill="#6c64a6" opacity="0.26"/>
  <path d="M60,67h1v1h-1z" fill="#6863a2" opacity="0.35"/>
  <path d="M62,67h1v1h-1z" fill="#6964a6" opacity="0.44"/>
  <path d="M103,67h1v1h-1z" fill="#6b63a3" opacity="0.55"/>
  <path d="M110,67h1v1h-1zM58,68h1v1h-1z" fill="#6b65a4" opacity="0.87"/>
  <path d="M111,67h1v1h-1zM100,78h1v1h-1z" fill="#6a64a3" opacity="0.51"/>
  <path d="M119,67h1v1h-1z" fill="#6c64a4" opacity="0.36"/>
  <path d="M56,68h1v1h-1zM78,86h1v1h-1zM120,105h1v1h-1zM64,111h1v1h-1zM80,113h1v1h-1z" fill="#6962a4" opacity="0.41"/>
  <path d="M57,68h1v1h-1zM97,77h1v1h-1zM109,77h1v1h-1zM113,85h1v1h-1zM80,101h1v1h-1zM101,123h1v1h-1z" fill="#6a64a4" opacity="0.69"/>
  <path d="M110,68h1v1h-1zM76,107h1v1h-1zM72,115h1v1h-1z" fill="#6964a5" opacity="0.40"/>
  <path d="M118,68h1v1h-1z" fill="#6f64a6" opacity="0.09"/>
  <path d="M54,69h1v1h-1zM94,85h1v1h-1zM46,87h1v1h-1zM110,87h1v1h-1zM101,88h1v1h-1z" fill="#6865a5" opacity="0.28"/>
  <path d="M55,69h1v1h-1zM51,75h1v1h-1z" fill="#6b64a5" opacity="0.77"/>
  <path d="M105,69h1v1h-1zM78,83h1v1h-1z" fill="#6a64a4" opacity="0.73"/>
  <path d="M107,69h1v1h-1z" fill="#6b64a5" opacity="0.76"/>
  <path d="M118,69h1v1h-1zM49,91h1v1h-1zM74,122h1v1h-1z" fill="#6b65a8" opacity="0.15"/>
  <path d="M64,70h1v1h-1z" fill="#6b65a6" opacity="0.68"/>
  <path d="M106,70h1v1h-1z" fill="#635a9c" opacity="0.12"/>
  <path d="M107,70h1v1h-1z" fill="#5555aa" opacity="0.05"/>
  <path d="M53,71h1v1h-1z" fill="#6a65a4" opacity="0.84"/>
  <path d="M58,71h1v1h-1zM85,89h1v1h-1zM87,121h1v1h-1z" fill="#6a64a5" opacity="0.64"/>
  <path d="M59,71h1v1h-1z" fill="#6965a3" opacity="0.55"/>
  <path d="M60,71h1v1h-1z" fill="#6b64a6" opacity="0.46"/>
  <path d="M118,71h1v1h-1z" fill="#6b63a5" opacity="0.49"/>
  <path d="M121,71h1v1h-1z" fill="#6a63a4" opacity="0.75"/>
  <path d="M56,72h1v1h-1z" fill="#6b64a3" opacity="0.60"/>
  <path d="M116,72h1v1h-1zM62,93h1v1h-1z" fill="#64649b" opacity="0.09"/>
  <path d="M117,72h1v1h-1z" fill="#6a63aa" opacity="0.14"/>
  <path d="M118,72h1v1h-1zM105,83h1v1h-1z" fill="#6a65a5" opacity="0.71"/>
  <path d="M51,73h1v1h-1z" fill="#6262a5" opacity="0.13"/>
  <path d="M112,73h1v1h-1zM127,76h1v1h-1zM115,78h1v1h-1zM114,80h1v1h-1z" fill="#665999" opacity="0.08"/>
  <path d="M114,73h1v1h-1zM79,87h1v1h-1z" fill="#6a64a4" opacity="0.45"/>
  <path d="M117,73h1v1h-1z" fill="#6b65a6" opacity="0.51"/>
  <path d="M120,73h1v1h-1zM70,87h1v1h-1zM66,106h1v1h-1z" fill="#6b65a5" opacity="0.85"/>
  <path d="M51,74h1v1h-1zM119,79h1v1h-1zM92,80h1v1h-1z" fill="#6a63a3" opacity="0.45"/>
  <path d="M102,74h1v1h-1zM57,76h1v1h-1zM92,113h1v1h-1z" fill="#6864a2" opacity="0.26"/>
  <path d="M112,74h1v1h-1z" fill="#6b63a4" opacity="0.49"/>
  <path d="M111,75h1v1h-1z" fill="#6a65a4" opacity="0.67"/>
  <path d="M116,75h1v1h-1z" fill="#6a64a5" opacity="0.68"/>
  <path d="M120,75h1v1h-1zM78,84h1v1h-1z" fill="#6a65a4" opacity="0.58"/>
  <path d="M56,76h1v1h-1z" fill="#6a5ca3" opacity="0.14"/>
  <path d="M59,76h1v1h-1z" fill="#6965a4" opacity="0.43"/>
  <path d="M60,76h1v1h-1z" fill="#6861a2" opacity="0.26"/>
  <path d="M86,76h1v1h-1z" fill="#6565a1" opacity="0.15"/>
  <path d="M87,76h1v1h-1zM68,110h1v1h-1z" fill="#6a63a2" opacity="0.30"/>
  <path d="M104,76h1v1h-1zM99,82h1v1h-1z" fill="#6a62a5" opacity="0.39"/>
  <path d="M110,76h1v1h-1zM66,128h1v1h-1z" fill="#6a64a5" opacity="0.74"/>
  <path d="M115,76h1v1h-1zM77,78h1v1h-1zM59,87h1v1h-1z" fill="#6b63a4" opacity="0.26"/>
  <path d="M117,76h1v1h-1z" fill="#6b64a4" opacity="0.90"/>
  <path d="M120,76h1v1h-1zM94,111h1v1h-1z" fill="#6865a5" opacity="0.36"/>
  <path d="M54,77h1v1h-1zM93,78h1v1h-1z" fill="#6a64a6" opacity="0.67"/>
  <path d="M78,77h1v1h-1z" fill="#6a65a3" opacity="0.23"/>
  <path d="M79,77h1v1h-1zM88,86h1v1h-1z" fill="#6964a6" opacity="0.36"/>
  <path d="M80,77h1v1h-1z" fill="#6661a2" opacity="0.22"/>
  <path d="M85,77h1v1h-1z" fill="#5e5e97" opacity="0.11"/>
  <path d="M86,77h1v1h-1zM65,129h1v1h-1z" fill="#6a65a3" opacity="0.55"/>
  <path d="M87,77h1v1h-1z" fill="#6b64a4" opacity="0.89"/>
  <path d="M88,77h1v1h-1z" fill="#6b64a4" opacity="0.58"/>
  <path d="M96,77h1v1h-1zM65,102h1v1h-1z" fill="#6a63a3" opacity="0.55"/>
  <path d="M125,77h1v1h-1z" fill="#6a65a3" opacity="0.44"/>
  <path d="M60,78h1v1h-1zM75,124h1v1h-1z" fill="#6a63a3" opacity="0.40"/>
  <path d="M80,78h1v1h-1zM115,121h1v1h-1z" fill="#6a63a5" opacity="0.56"/>
  <path d="M88,78h1v1h-1z" fill="#6965a3" opacity="0.67"/>
  <path d="M96,78h1v1h-1zM103,86h1v1h-1zM108,117h1v1h-1z" fill="#6a64a4" opacity="0.90"/>
  <path d="M98,78h1v1h-1zM72,85h1v1h-1zM75,89h1v1h-1zM86,89h1v1h-1zM69,119h1v1h-1z" fill="#6a64a4" opacity="0.77"/>
  <path d="M99,78h1v1h-1z" fill="#6a62a2" opacity="0.53"/>
  <path d="M112,78h1v1h-1z" fill="#6a63a6" opacity="0.40"/>
  <path d="M116,78h1v1h-1z" fill="#6b64a4" opacity="0.66"/>
  <path d="M119,78h1v1h-1zM67,79h1v1h-1zM83,121h1v1h-1z" fill="#6a64a4" opacity="0.68"/>
  <path d="M127,78h1v1h-1z" fill="#6666a3" opacity="0.20"/>
  <path d="M48,79h1v1h-1z" fill="#6a61a6" opacity="0.35"/>
  <path d="M49,79h1v1h-1zM106,82h1v1h-1z" fill="#6a64a5" opacity="0.57"/>
  <path d="M59,79h1v1h-1z" fill="#6965a4" opacity="0.47"/>
  <path d="M69,79h1v1h-1zM84,82h1v1h-1zM94,84h1v1h-1z" fill="#6b64a6" opacity="0.56"/>
  <path d="M85,79h1v1h-1zM75,120h1v1h-1z" fill="#6b64a5" opacity="0.48"/>
  <path d="M97,79h1v1h-1z" fill="#6a63a4" opacity="0.73"/>
  <path d="M104,79h1v1h-1zM102,88h1v1h-1zM96,114h1v1h-1z" fill="#6c64a2" opacity="0.13"/>
  <path d="M108,79h1v1h-1zM48,84h1v1h-1zM45,94h1v1h-1z" fill="#6a64a5" opacity="0.86"/>
  <path d="M110,79h1v1h-1z" fill="#6b65a4" opacity="0.98"/>
  <path d="M111,79h1v1h-1z" fill="#6a65a4" opacity="0.66"/>
  <path d="M126,79h1v1h-1z" fill="#6965a4" opacity="0.53"/>
  <path d="M55,80h1v1h-1zM63,85h1v1h-1z" fill="#6b64a5" opacity="0.41"/>
  <path d="M64,80h1v1h-1z" fill="#6b65a4" opacity="0.77"/>
  <path d="M80,80h1v1h-1zM114,81h1v1h-1z" fill="#6a64a6" opacity="0.35"/>
  <path d="M107,80h1v1h-1zM61,82h1v1h-1zM98,86h1v1h-1z" fill="#6863a5" opacity="0.36"/>
  <path d="M111,80h1v1h-1zM119,86h1v1h-1z" fill="#6961a6" opacity="0.25"/>
  <path d="M48,81h1v1h-1zM78,115h1v1h-1z" fill="#6b65a5" opacity="0.76"/>
  <path d="M79,81h1v1h-1z" fill="#6a65a6" opacity="0.66"/>
  <path d="M87,81h1v1h-1z" fill="#6b64a4" opacity="0.67"/>
  <path d="M88,81h1v1h-1z" fill="#6c60a4" opacity="0.18"/>
  <path d="M96,81h1v1h-1z" fill="#6a65a4" opacity="0.40"/>
  <path d="M103,81h1v1h-1z" fill="#6662a4" opacity="0.27"/>
  <path d="M124,81h1v1h-1z" fill="#6b64a4" opacity="0.74"/>
  <path d="M125,81h1v1h-1z" fill="#6965a2" opacity="0.25"/>
  <path d="M52,82h1v1h-1z" fill="#6a65a5" opacity="0.38"/>
  <path d="M87,82h1v1h-1z" fill="#6a65a5" opacity="0.45"/>
  <path d="M92,82h1v1h-1zM71,84h1v1h-1zM66,89h1v1h-1zM80,104h1v1h-1zM112,120h1v1h-1zM84,123h1v1h-1z" fill="#6b64a5" opacity="0.80"/>
  <path d="M120,82h1v1h-1zM81,102h1v1h-1z" fill="#6b64a4" opacity="0.42"/>
  <path d="M124,82h1v1h-1z" fill="#6a64a1" opacity="0.33"/>
  <path d="M61,83h1v1h-1z" fill="#6963a4" opacity="0.82"/>
  <path d="M87,83h1v1h-1z" fill="#6966a7" opacity="0.29"/>
  <path d="M95,83h1v1h-1zM77,115h1v1h-1z" fill="#6c65a5" opacity="0.28"/>
  <path d="M111,83h1v1h-1z" fill="#6865a3" opacity="0.34"/>
  <path d="M112,83h1v1h-1zM47,94h1v1h-1z" fill="#6963a5" opacity="0.49"/>
  <path d="M119,83h1v1h-1zM76,108h1v1h-1zM116,109h1v1h-1z" fill="#6b64a4" opacity="0.72"/>
  <path d="M123,83h1v1h-1z" fill="#6764a4" opacity="0.33"/>
  <path d="M68,84h1v1h-1z" fill="#6863a3" opacity="0.42"/>
  <path d="M83,84h1v1h-1zM90,117h1v1h-1z" fill="#6963a4" opacity="0.64"/>
  <path d="M98,84h1v1h-1z" fill="#6d63a7" opacity="0.19"/>
  <path d="M102,84h1v1h-1z" fill="#6965a2" opacity="0.41"/>
  <path d="M121,84h1v1h-1zM94,116h1v1h-1z" fill="#6964a5" opacity="0.72"/>
  <path d="M51,85h1v1h-1z" fill="#6560a5" opacity="0.19"/>
  <path d="M60,85h1v1h-1z" fill="#6a64a5" opacity="0.76"/>
  <path d="M73,85h1v1h-1zM84,120h1v1h-1zM97,122h1v1h-1z" fill="#6b64a4" opacity="0.87"/>
  <path d="M78,85h1v1h-1zM87,117h1v1h-1z" fill="#6965a3" opacity="0.47"/>
  <path d="M89,85h1v1h-1z" fill="#6565a8" opacity="0.15"/>
  <path d="M90,85h1v1h-1z" fill="#6a65a6" opacity="0.54"/>
  <path d="M98,85h1v1h-1zM67,116h1v1h-1z" fill="#6a62a3" opacity="0.36"/>
  <path d="M120,85h1v1h-1z" fill="#6a63a4" opacity="0.52"/>
  <path d="M82,86h1v1h-1z" fill="#6b65a4" opacity="0.84"/>
  <path d="M89,86h1v1h-1z" fill="#6965a5" opacity="0.64"/>
  <path d="M105,86h1v1h-1z" fill="#6861a2" opacity="0.28"/>
  <path d="M108,86h1v1h-1zM63,92h1v1h-1z" fill="#6a64a3" opacity="0.63"/>
  <path d="M111,86h1v1h-1z" fill="#6964a5" opacity="0.73"/>
  <path d="M50,87h1v1h-1z" fill="#6862a5" opacity="0.36"/>
  <path d="M67,87h1v1h-1z" fill="#6863a2" opacity="0.36"/>
  <path d="M75,87h1v1h-1z" fill="#6a64a4" opacity="0.87"/>
  <path d="M81,87h1v1h-1zM72,114h1v1h-1zM69,118h1v1h-1z" fill="#6b65a5" opacity="0.88"/>
  <path d="M83,87h1v1h-1z" fill="#6b64a3" opacity="0.62"/>
  <path d="M93,87h1v1h-1z" fill="#6b64a5" opacity="0.40"/>
  <path d="M98,87h1v1h-1z" fill="#6464a8" opacity="0.16"/>
  <path d="M99,87h1v1h-1z" fill="#6964a4" opacity="0.75"/>
  <path d="M104,87h1v1h-1zM63,129h1v1h-1z" fill="#6868a1" opacity="0.11"/>
  <path d="M109,87h1v1h-1z" fill="#6b64a6" opacity="0.27"/>
  <path d="M49,88h1v1h-1z" fill="#6a63a4" opacity="0.91"/>
  <path d="M59,88h1v1h-1zM84,124h1v1h-1z" fill="#6863a5" opacity="0.35"/>
  <path d="M70,88h1v1h-1zM79,108h1v1h-1z" fill="#6b63a6" opacity="0.49"/>
  <path d="M84,88h1v1h-1zM69,112h1v1h-1zM95,121h1v1h-1z" fill="#6963a5" opacity="0.53"/>
  <path d="M99,88h1v1h-1zM121,103h1v1h-1z" fill="#6965a6" opacity="0.25"/>
  <path d="M46,89h1v1h-1z" fill="#6b65a4" opacity="0.79"/>
  <path d="M69,89h1v1h-1z" fill="#6963a5" opacity="0.65"/>
  <path d="M74,89h1v1h-1zM44,93h1v1h-1z" fill="#6960a3" opacity="0.24"/>
  <path d="M87,89h1v1h-1z" fill="#6b65a4" opacity="0.64"/>
  <path d="M49,90h1v1h-1z" fill="#6a62a5" opacity="0.36"/>
  <path d="M67,90h1v1h-1zM67,114h1v1h-1z" fill="#6a64a5" opacity="0.93"/>
  <path d="M80,90h1v1h-1zM79,122h1v1h-1z" fill="#6862a3" opacity="0.34"/>
  <path d="M86,90h1v1h-1zM78,91h1v1h-1zM66,118h1v1h-1z" fill="#6964a0" opacity="0.20"/>
  <path d="M64,92h1v1h-1z" fill="#6b64a4" opacity="0.55"/>
  <path d="M48,93h1v1h-1z" fill="#6d63a1" opacity="0.21"/>
  <path d="M45,95h1v1h-1z" fill="#6763a2" opacity="0.30"/>
  <path d="M122,98h1v1h-1z" fill="#67609f" opacity="0.15"/>
  <path d="M118,100h1v1h-1z" fill="#685ea1" opacity="0.21"/>
  <path d="M122,100h1v1h-1z" fill="#6863a4" opacity="0.38"/>
  <path d="M79,101h1v1h-1z" fill="#6964a4" opacity="0.68"/>
  <path d="M122,101h1v1h-1z" fill="#61589e" opacity="0.11"/>
  <path d="M66,102h1v1h-1z" fill="#6862a5" opacity="0.50"/>
  <path d="M121,102h1v1h-1z" fill="#6b65a5" opacity="0.55"/>
  <path d="M67,103h1v1h-1z" fill="#6764a2" opacity="0.29"/>
  <path d="M81,103h1v1h-1z" fill="#6964a2" opacity="0.40"/>
  <path d="M120,104h1v1h-1z" fill="#6a63a5" opacity="0.69"/>
  <path d="M76,105h1v1h-1z" fill="#695a96" opacity="0.07"/>
  <path d="M80,105h1v1h-1z" fill="#6b64a5" opacity="0.64"/>
  <path d="M63,106h1v1h-1z" fill="#6b64a6" opacity="0.75"/>
  <path d="M67,106h1v1h-1z" fill="#645da2" opacity="0.16"/>
  <path d="M120,106h1v1h-1z" fill="#665d99" opacity="0.12"/>
  <path d="M63,108h1v1h-1z" fill="#6963a4" opacity="0.49"/>
  <path d="M67,108h1v1h-1z" fill="#6a65a6" opacity="0.42"/>
  <path d="M116,108h1v1h-1z" fill="#6a63a2" opacity="0.46"/>
  <path d="M119,108h1v1h-1z" fill="#67609f" opacity="0.27"/>
  <path d="M63,109h1v1h-1z" fill="#675fa4" opacity="0.26"/>
  <path d="M75,109h1v1h-1z" fill="#6965a4" opacity="0.49"/>
  <path d="M118,109h1v1h-1z" fill="#6b65a5" opacity="0.75"/>
  <path d="M115,110h1v1h-1z" fill="#6962aa" opacity="0.15"/>
  <path d="M96,111h1v1h-1z" fill="#61619e" opacity="0.11"/>
  <path d="M115,111h1v1h-1z" fill="#6b63a4" opacity="0.38"/>
  <path d="M70,112h1v1h-1zM108,120h1v1h-1zM107,121h1v1h-1z" fill="#4d4d99" opacity="0.04"/>
  <path d="M72,112h1v1h-1z" fill="#6966a4" opacity="0.54"/>
  <path d="M76,112h1v1h-1z" fill="#6a66a6" opacity="0.24"/>
  <path d="M81,112h1v1h-1zM104,114h1v1h-1zM114,116h1v1h-1z" fill="#6666b3" opacity="0.04"/>
  <path d="M93,112h1v1h-1z" fill="#6964a5" opacity="0.63"/>
  <path d="M96,112h1v1h-1z" fill="#6c65a4" opacity="0.43"/>
  <path d="M74,113h1v1h-1z" fill="#6a63a6" opacity="0.62"/>
  <path d="M95,113h1v1h-1z" fill="#6b65a4" opacity="0.93"/>
  <path d="M96,113h1v1h-1z" fill="#6b64a3" opacity="0.27"/>
  <path d="M103,113h1v1h-1z" fill="#6a64a5" opacity="0.96"/>
  <path d="M116,113h1v1h-1z" fill="#6964a6" opacity="0.75"/>
  <path d="M78,114h1v1h-1z" fill="#6a62a1" opacity="0.25"/>
  <path d="M86,114h1v1h-1z" fill="#6b65a4" opacity="0.78"/>
  <path d="M100,114h1v1h-1z" fill="#6861a8" opacity="0.30"/>
  <path d="M87,115h1v1h-1z" fill="#6a63a5" opacity="0.42"/>
  <path d="M100,115h1v1h-1zM88,121h1v1h-1z" fill="#6a64a6" opacity="0.64"/>
  <path d="M103,115h1v1h-1zM89,121h1v1h-1zM63,127h1v1h-1z" fill="#6a65a5" opacity="0.36"/>
  <path d="M70,116h1v1h-1z" fill="#6a65a5" opacity="0.82"/>
  <path d="M71,116h1v1h-1z" fill="#6965a3" opacity="0.31"/>
  <path d="M81,116h1v1h-1z" fill="#6b62a3" opacity="0.46"/>
  <path d="M84,116h1v1h-1z" fill="#6b65a6" opacity="0.93"/>
  <path d="M70,117h1v1h-1z" fill="#6b62a5" opacity="0.62"/>
  <path d="M79,117h1v1h-1z" fill="#6a65a4" opacity="0.75"/>
  <path d="M83,117h1v1h-1z" fill="#6964a7" opacity="0.24"/>
  <path d="M99,117h1v1h-1z" fill="#6b64a5" opacity="0.60"/>
  <path d="M102,117h1v1h-1z" fill="#6963a3" opacity="0.69"/>
  <path d="M107,117h1v1h-1z" fill="#6d63a5" opacity="0.21"/>
  <path d="M109,117h1v1h-1zM109,118h1v1h-1z" fill="#6663a3" opacity="0.31"/>
  <path d="M113,117h1v1h-1z" fill="#6960a4" opacity="0.22"/>
  <path d="M114,117h1v1h-1z" fill="#6b63a5" opacity="0.47"/>
  <path d="M70,118h1v1h-1z" fill="#6a62a5" opacity="0.37"/>
  <path d="M87,118h1v1h-1z" fill="#6c66a5" opacity="0.50"/>
  <path d="M88,118h1v1h-1z" fill="#6865a2" opacity="0.28"/>
  <path d="M89,118h1v1h-1z" fill="#6963a4" opacity="0.65"/>
  <path d="M94,118h1v1h-1z" fill="#69609f" opacity="0.24"/>
  <path d="M98,118h1v1h-1z" fill="#6a60a2" opacity="0.32"/>
  <path d="M102,118h1v1h-1z" fill="#6962a5" opacity="0.48"/>
  <path d="M107,118h1v1h-1zM114,121h1v1h-1z" fill="#6a64a6" opacity="0.83"/>
  <path d="M66,119h1v1h-1zM68,123h1v1h-1z" fill="#6864a5" opacity="0.43"/>
  <path d="M97,119h1v1h-1z" fill="#66619e" opacity="0.20"/>
  <path d="M112,119h1v1h-1z" fill="#6a63a4" opacity="0.67"/>
  <path d="M65,120h1v1h-1z" fill="#665fa8" opacity="0.14"/>
  <path d="M96,120h1v1h-1z" fill="#6864a6" opacity="0.26"/>
  <path d="M105,120h1v1h-1z" fill="#6b65a5" opacity="0.92"/>
  <path d="M115,120h1v1h-1zM105,121h1v1h-1z" fill="#6a64a5" opacity="0.89"/>
  <path d="M75,121h1v1h-1z" fill="#6a63a4" opacity="0.58"/>
  <path d="M78,121h1v1h-1z" fill="#6b65a5" opacity="0.65"/>
  <path d="M93,121h1v1h-1zM98,121h1v1h-1z" fill="#6a64a4" opacity="0.88"/>
  <path d="M105,122h1v1h-1z" fill="#6763a4" opacity="0.42"/>
  <path d="M81,123h1v1h-1z" fill="#6964a4" opacity="0.79"/>
  <path d="M104,123h1v1h-1z" fill="#69629d" opacity="0.15"/>
  <path d="M64,124h1v1h-1z" fill="#6961a2" opacity="0.40"/>
  <path d="M82,125h1v1h-1z" fill="#6963a5" opacity="0.61"/>
  <path d="M83,125h1v1h-1z" fill="#6960a7" opacity="0.24"/>
  <path d="M67,126h1v1h-1z" fill="#6b65a5" opacity="0.67"/>
  <path d="M80,126h1v1h-1z" fill="#6964a5" opacity="0.48"/>
  <path d="M67,127h1v1h-1z" fill="#6b65a6" opacity="0.53"/>
</svg>