<svg xmlns="http://www.w3.org/2000/svg" viewBox="0 0 160 60" width="100%" height="100%">
  <path d="M27,6h1v1h-1zM6,31h1v1h-1z" fill="#fecfcc" opacity="1.00"/>
  <path d="M28,6h1v1h-1z" fill="#febbb7" opacity="1.00"/>
  <path d="M29,6h1v1h-1zM127,26h1v1h-1zM110,29h1v1h-1z" fill="#fec1bc" opacity="1.00"/>
  <path d="M30,6h1v1h-1zM124,35h1v1h-1z" fill="#feddda" opacity="1.00"/>
  <path d="M24,7h1v1h-1z" fill="#feefed" opacity="1.00"/>
  <path d="M25,7h1v1h-1zM143,34h1v1h-1z" fill="#feb0a9" opacity="1.00"/>
  <path d="M26,7h1v1h-1zM29,18h1v1h-1z" fill="#fd7066" opacity="1.00"/>
  <path d="M27,7h1v1h-1zM23,12h1v1h-1zM28,18h1v1h-1zM14,23h1v1h-1zM28,25h1v1h-1zM132,28h1v1h-1zM122,30h1v1h-1zM122,31h1v1h-1zM38,32h1v1h-1zM108,32h1v1h-1zM19,33h1v1h-1zM123,33h1v1h-1zM23,44h1v1h-1zM23,45h1v1h-1zM28,50h1v1h-1zM29,50h1v1h-1z" fill="#fd6f64" opacity="1.00"/>
  <path d="M28,7h1v1h-1zM29,7h1v1h-1zM26,8h1v1h-1zM24,10h1v1h-1zM23,11h1v1h-1zM23,14h1v1h-1zM33,15h1v1h-1zM22,17h1v1h-1zM31,17h1v1h-1zM26,18h1v1h-1zM27,18h1v1h-1zM21,19h1v1h-1zM19,21h1v1h-1zM15,23h1v1h-1zM19,23h1v1h-1zM10,24h1v1h-1zM42,24h1v1h-1zM47,24h1v1h-1zM18,25h1v1h-1zM27,25h1v1h-1zM48,25h1v1h-1zM49,26h1v1h-1zM25,27h1v1h-1zM37,27h1v1h-1zM132,27h1v1h-1zM25,28h1v1h-1zM29,28h1v1h-1zM25,29h1v1h-1zM29,29h1v1h-1zM38,29h1v1h-1zM50,29h1v1h-1zM112,29h1v1h-1zM25,30h1v1h-1zM29,30h1v1h-1zM38,30h1v1h-1zM29,31h1v1h-1zM38,31h1v1h-1zM49,31h1v1h-1zM18,32h1v1h-1zM26,32h1v1h-1zM30,32h1v1h-1zM31,32h1v1h-1zM119,32h1v1h-1zM30,33h1v1h-1zM38,33h1v1h-1zM48,33h1v1h-1zM106,33h1v1h-1zM107,33h1v1h-1zM118,33h1v1h-1zM14,34h1v1h-1zM15,34h1v1h-1zM41,34h1v1h-1zM42,34h1v1h-1zM17,35h1v1h-1zM18,35h1v1h-1zM19,36h1v1h-1zM20,36h1v1h-1zM36,36h1v1h-1zM38,36h1v1h-1zM21,37h1v1h-1zM37,37h1v1h-1zM36,38h1v1h-1zM24,39h1v1h-1zM25,39h1v1h-1zM35,39h1v1h-1zM22,40h1v1h-1zM34,40h1v1h-1zM34,41h1v1h-1zM23,43h1v1h-1zM24,47h1v1h-1zM25,48h1v1h-1zM26,49h1v1h-1zM31,49h1v1h-1zM30,50h1v1h-1z" fill="#fd7065" opacity="1.00"/>
  <path d="M30,7h1v1h-1zM101,24h1v1h-1zM102,24h1v1h-1z" fill="#fd6d62" opacity="1.00"/>
  <path d="M31,7h1v1h-1zM38,26h1v1h-1zM144,32h1v1h-1zM117,33h1v1h-1zM119,33h1v1h-1z" fill="#fd837a" opacity="1.00"/>
  <path d="M32,7h1v1h-1zM34,9h1v1h-1zM101,35h1v1h-1zM102,35h1v1h-1zM103,35h1v1h-1zM104,35h1v1h-1z" fill="#fed2ce" opacity="1.00"/>
  <path d="M23,8h1v1h-1zM23,28h1v1h-1zM145,32h1v1h-1z" fill="#fee9e7" opacity="1.00"/>
  <path d="M24,8h1v1h-1zM32,31h1v1h-1zM37,32h1v1h-1z" fill="#fd9c94" opacity="1.00"/>
  <path d="M25,8h1v1h-1zM33,9h1v1h-1zM20,22h1v1h-1zM39,26h1v1h-1zM117,27h1v1h-1zM138,27h1v1h-1zM37,28h1v1h-1zM109,29h1v1h-1zM122,32h1v1h-1zM12,34h1v1h-1zM37,34h1v1h-1zM126,34h1v1h-1zM140,34h1v1h-1zM30,39h1v1h-1zM34,42h1v1h-1z" fill="#fd7267" opacity="1.00"/>
  <path d="M27,8h1v1h-1zM28,8h1v1h-1zM29,8h1v1h-1zM30,8h1v1h-1zM31,8h1v1h-1zM32,8h1v1h-1zM25,9h1v1h-1zM26,9h1v1h-1zM27,9h1v1h-1zM28,9h1v1h-1zM29,9h1v1h-1zM30,9h1v1h-1zM31,9h1v1h-1zM32,9h1v1h-1zM25,10h1v1h-1zM26,10h1v1h-1zM27,10h1v1h-1zM28,10h1v1h-1zM29,10h1v1h-1zM30,10h1v1h-1zM31,10h1v1h-1zM32,10h1v1h-1zM33,10h1v1h-1zM24,11h1v1h-1zM25,11h1v1h-1zM26,11h1v1h-1zM27,11h1v1h-1zM28,11h1v1h-1zM29,11h1v1h-1zM30,11h1v1h-1zM31,11h1v1h-1zM32,11h1v1h-1zM33,11h1v1h-1zM24,12h1v1h-1zM25,12h1v1h-1zM26,12h1v1h-1zM27,12h1v1h-1zM28,12h1v1h-1zM29,12h1v1h-1zM30,12h1v1h-1zM31,12h1v1h-1zM32,12h1v1h-1zM33,12h1v1h-1zM24,13h1v1h-1zM25,13h1v1h-1zM26,13h1v1h-1zM27,13h1v1h-1zM28,13h1v1h-1zM29,13h1v1h-1zM30,13h1v1h-1zM31,13h1v1h-1zM32,13h1v1h-1zM33,13h1v1h-1zM24,14h1v1h-1zM25,14h1v1h-1zM26,14h1v1h-1zM27,14h1v1h-1zM28,14h1v1h-1zM29,14h1v1h-1zM30,14h1v1h-1zM31,14h1v1h-1zM32,14h1v1h-1zM33,14h1v1h-1zM23,15h1v1h-1zM24,15h1v1h-1zM25,15h1v1h-1zM26,15h1v1h-1zM27,15h1v1h-1zM28,15h1v1h-1zM29,15h1v1h-1zM30,15h1v1h-1zM31,15h1v1h-1zM32,15h1v1h-1zM23,16h1v1h-1zM24,16h1v1h-1zM25,16h1v1h-1zM26,16h1v1h-1zM27,16h1v1h-1zM28,16h1v1h-1zM29,16h1v1h-1zM30,16h1v1h-1zM31,16h1v1h-1zM23,17h1v1h-1zM24,17h1v1h-1zM25,17h1v1h-1zM26,17h1v1h-1zM27,17h1v1h-1zM28,17h1v1h-1zM29,17h1v1h-1zM30,17h1v1h-1zM22,18h1v1h-1zM23,18h1v1h-1zM24,18h1v1h-1zM25,18h1v1h-1zM22,19h1v1h-1zM23,19h1v1h-1zM24,19h1v1h-1zM20,20h1v1h-1zM21,20h1v1h-1zM20,21h1v1h-1zM18,22h1v1h-1zM19,22h1v1h-1zM16,23h1v1h-1zM17,23h1v1h-1zM18,23h1v1h-1zM11,24h1v1h-1zM12,24h1v1h-1zM13,24h1v1h-1zM14,24h1v1h-1zM15,24h1v1h-1zM16,24h1v1h-1zM17,24h1v1h-1zM18,24h1v1h-1zM43,24h1v1h-1zM44,24h1v1h-1zM45,24h1v1h-1zM46,24h1v1h-1zM8,25h1v1h-1zM9,25h1v1h-1zM10,25h1v1h-1zM11,25h1v1h-1zM12,25h1v1h-1zM13,25h1v1h-1zM14,25h1v1h-1zM15,25h1v1h-1zM16,25h1v1h-1zM17,25h1v1h-1zM41,25h1v1h-1zM42,25h1v1h-1zM43,25h1v1h-1zM44,25h1v1h-1zM45,25h1v1h-1zM46,25h1v1h-1zM47,25h1v1h-1zM107,25h1v1h-1zM8,26h1v1h-1zM9,26h1v1h-1zM10,26h1v1h-1zM11,26h1v1h-1zM12,26h1v1h-1zM13,26h1v1h-1zM14,26h1v1h-1zM15,26h1v1h-1zM16,26h1v1h-1zM17,26h1v1h-1zM26,26h1v1h-1zM27,26h1v1h-1zM28,26h1v1h-1zM29,26h1v1h-1zM30,26h1v1h-1zM31,26h1v1h-1zM40,26h1v1h-1zM41,26h1v1h-1zM42,26h1v1h-1zM43,26h1v1h-1zM44,26h1v1h-1zM45,26h1v1h-1zM46,26h1v1h-1zM47,26h1v1h-1zM48,26h1v1h-1zM7,27h1v1h-1zM8,27h1v1h-1zM9,27h1v1h-1zM10,27h1v1h-1zM11,27h1v1h-1zM12,27h1v1h-1zM13,27h1v1h-1zM14,27h1v1h-1zM15,27h1v1h-1zM16,27h1v1h-1zM17,27h1v1h-1zM26,27h1v1h-1zM27,27h1v1h-1zM28,27h1v1h-1zM29,27h1v1h-1zM30,27h1v1h-1zM31,27h1v1h-1zM32,27h1v1h-1zM33,27h1v1h-1zM38,27h1v1h-1zM39,27h1v1h-1zM40,27h1v1h-1zM41,27h1v1h-1zM42,27h1v1h-1zM43,27h1v1h-1zM44,27h1v1h-1zM45,27h1v1h-1zM46,27h1v1h-1zM47,27h1v1h-1zM48,27h1v1h-1zM49,27h1v1h-1zM124,27h1v1h-1zM7,28h1v1h-1zM8,28h1v1h-1zM9,28h1v1h-1zM10,28h1v1h-1zM11,28h1v1h-1zM12,28h1v1h-1zM13,28h1v1h-1zM14,28h1v1h-1zM15,28h1v1h-1zM16,28h1v1h-1zM17,28h1v1h-1zM26,28h1v1h-1zM27,28h1v1h-1zM28,28h1v1h-1zM38,28h1v1h-1zM39,28h1v1h-1zM40,28h1v1h-1zM41,28h1v1h-1zM42,28h1v1h-1zM43,28h1v1h-1zM44,28h1v1h-1zM45,28h1v1h-1zM46,28h1v1h-1zM47,28h1v1h-1zM48,28h1v1h-1zM49,28h1v1h-1zM50,28h1v1h-1zM143,28h1v1h-1zM147,28h1v1h-1zM7,29h1v1h-1zM8,29h1v1h-1zM9,29h1v1h-1zM10,29h1v1h-1zM11,29h1v1h-1zM12,29h1v1h-1zM13,29h1v1h-1zM14,29h1v1h-1zM15,29h1v1h-1zM16,29h1v1h-1zM17,29h1v1h-1zM26,29h1v1h-1zM27,29h1v1h-1zM28,29h1v1h-1zM39,29h1v1h-1zM40,29h1v1h-1zM41,29h1v1h-1zM42,29h1v1h-1zM43,29h1v1h-1zM44,29h1v1h-1zM45,29h1v1h-1zM46,29h1v1h-1zM47,29h1v1h-1zM48,29h1v1h-1zM49,29h1v1h-1zM119,29h1v1h-1zM122,29h1v1h-1zM7,30h1v1h-1zM8,30h1v1h-1zM9,30h1v1h-1zM10,30h1v1h-1zM11,30h1v1h-1zM12,30h1v1h-1zM13,30h1v1h-1zM14,30h1v1h-1zM15,30h1v1h-1zM16,30h1v1h-1zM17,30h1v1h-1zM26,30h1v1h-1zM27,30h1v1h-1zM28,30h1v1h-1zM39,30h1v1h-1zM40,30h1v1h-1zM41,30h1v1h-1zM42,30h1v1h-1zM43,30h1v1h-1zM44,30h1v1h-1zM45,30h1v1h-1zM46,30h1v1h-1zM47,30h1v1h-1zM48,30h1v1h-1zM49,30h1v1h-1zM8,31h1v1h-1zM9,31h1v1h-1zM10,31h1v1h-1zM11,31h1v1h-1zM12,31h1v1h-1zM13,31h1v1h-1zM14,31h1v1h-1zM15,31h1v1h-1zM16,31h1v1h-1zM17,31h1v1h-1zM26,31h1v1h-1zM27,31h1v1h-1zM28,31h1v1h-1zM39,31h1v1h-1zM40,31h1v1h-1zM41,31h1v1h-1zM42,31h1v1h-1zM43,31h1v1h-1zM44,31h1v1h-1zM45,31h1v1h-1zM46,31h1v1h-1zM47,31h1v1h-1zM48,31h1v1h-1zM8,32h1v1h-1zM9,32h1v1h-1zM10,32h1v1h-1zM11,32h1v1h-1zM12,32h1v1h-1zM13,32h1v1h-1zM14,32h1v1h-1zM15,32h1v1h-1zM16,32h1v1h-1zM17,32h1v1h-1zM27,32h1v1h-1zM28,32h1v1h-1zM29,32h1v1h-1zM39,32h1v1h-1zM40,32h1v1h-1zM41,32h1v1h-1zM42,32h1v1h-1zM43,32h1v1h-1zM44,32h1v1h-1zM45,32h1v1h-1zM46,32h1v1h-1zM47,32h1v1h-1zM48,32h1v1h-1zM112,32h1v1h-1zM9,33h1v1h-1zM10,33h1v1h-1zM11,33h1v1h-1zM12,33h1v1h-1zM13,33h1v1h-1zM14,33h1v1h-1zM15,33h1v1h-1zM16,33h1v1h-1zM17,33h1v1h-1zM18,33h1v1h-1zM26,33h1v1h-1zM27,33h1v1h-1zM28,33h1v1h-1zM29,33h1v1h-1zM39,33h1v1h-1zM40,33h1v1h-1zM41,33h1v1h-1zM42,33h1v1h-1zM43,33h1v1h-1zM44,33h1v1h-1zM45,33h1v1h-1zM46,33h1v1h-1zM47,33h1v1h-1zM113,33h1v1h-1zM13,34h1v1h-1zM16,34h1v1h-1zM17,34h1v1h-1zM18,34h1v1h-1zM19,34h1v1h-1zM38,34h1v1h-1zM39,34h1v1h-1zM40,34h1v1h-1zM43,34h1v1h-1zM19,35h1v1h-1zM37,35h1v1h-1zM38,35h1v1h-1zM39,35h1v1h-1zM37,36h1v1h-1zM20,37h1v1h-1zM35,37h1v1h-1zM36,37h1v1h-1zM21,38h1v1h-1zM23,38h1v1h-1zM33,38h1v1h-1zM34,38h1v1h-1zM35,38h1v1h-1zM22,39h1v1h-1zM23,39h1v1h-1zM26,39h1v1h-1zM31,39h1v1h-1zM33,39h1v1h-1zM34,39h1v1h-1zM23,40h1v1h-1zM24,40h1v1h-1zM25,40h1v1h-1zM26,40h1v1h-1zM27,40h1v1h-1zM28,40h1v1h-1zM29,40h1v1h-1zM30,40h1v1h-1zM31,40h1v1h-1zM32,40h1v1h-1zM33,40h1v1h-1zM22,41h1v1h-1zM23,41h1v1h-1zM24,41h1v1h-1zM25,41h1v1h-1zM26,41h1v1h-1zM27,41h1v1h-1zM28,41h1v1h-1zM29,41h1v1h-1zM30,41h1v1h-1zM31,41h1v1h-1zM32,41h1v1h-1zM33,41h1v1h-1zM23,42h1v1h-1zM24,42h1v1h-1zM25,42h1v1h-1zM26,42h1v1h-1zM27,42h1v1h-1zM28,42h1v1h-1zM29,42h1v1h-1zM30,42h1v1h-1zM31,42h1v1h-1zM32,42h1v1h-1zM33,42h1v1h-1zM24,43h1v1h-1zM25,43h1v1h-1zM26,43h1v1h-1zM27,43h1v1h-1zM28,43h1v1h-1zM29,43h1v1h-1zM30,43h1v1h-1zM31,43h1v1h-1zM32,43h1v1h-1zM33,43h1v1h-1zM24,44h1v1h-1zM25,44h1v1h-1zM26,44h1v1h-1zM27,44h1v1h-1zM28,44h1v1h-1zM29,44h1v1h-1zM30,44h1v1h-1zM31,44h1v1h-1zM32,44h1v1h-1zM33,44h1v1h-1zM24,45h1v1h-1zM25,45h1v1h-1zM26,45h1v1h-1zM27,45h1v1h-1zM28,45h1v1h-1zM29,45h1v1h-1zM30,45h1v1h-1zM31,45h1v1h-1zM32,45h1v1h-1zM33,45h1v1h-1zM24,46h1v1h-1zM25,46h1v1h-1zM26,46h1v1h-1zM27,46h1v1h-1zM28,46h1v1h-1zM29,46h1v1h-1zM30,46h1v1h-1zM31,46h1v1h-1zM32,46h1v1h-1zM33,46h1v1h-1zM25,47h1v1h-1zM26,47h1v1h-1zM27,47h1v1h-1zM28,47h1v1h-1zM29,47h1v1h-1zM30,47h1v1h-1zM31,47h1v1h-1zM32,47h1v1h-1zM33,47h1v1h-1zM26,48h1v1h-1zM27,48h1v1h-1zM28,48h1v1h-1zM29,48h1v1h-1zM30,48h1v1h-1zM31,48h1v1h-1zM32,48h1v1h-1zM27,49h1v1h-1zM28,49h1v1h-1zM29,49h1v1h-1zM30,49h1v1h-1z" fill="#fd7166" opacity="1.00"/>
  <path d="M33,8h1v1h-1zM18,37h1v1h-1z" fill="#fdc3be" opacity="1.00"/>
  <path d="M23,9h1v1h-1z" fill="#fdafa8" opacity="1.00"/>
  <path d="M24,9h1v1h-1zM40,25h1v1h-1zM50,27h1v1h-1zM50,30h1v1h-1zM119,31h1v1h-1zM137,33h1v1h-1zM142,33h1v1h-1zM11,34h1v1h-1zM22,37h1v1h-1zM28,39h1v1h-1z" fill="#fd756a" opacity="1.00"/>
  <path d="M22,10h1v1h-1zM108,24h1v1h-1zM109,25h1v1h-1zM124,26h1v1h-1zM111,28h1v1h-1zM32,29h1v1h-1zM33,29h1v1h-1zM34,29h1v1h-1zM135,35h1v1h-1zM147,35h1v1h-1zM26,51h1v1h-1z" fill="#fed6d3" opacity="1.00"/>
  <path d="M23,10h1v1h-1zM147,34h1v1h-1z" fill="#fd8379" opacity="1.00"/>
  <path d="M34,10h1v1h-1zM131,28h1v1h-1zM136,29h1v1h-1zM127,33h1v1h-1zM128,34h1v1h-1zM25,38h1v1h-1z" fill="#fd8d84" opacity="1.00"/>
  <path d="M22,11h1v1h-1zM14,22h1v1h-1zM139,28h1v1h-1z" fill="#febeb9" opacity="1.00"/>
  <path d="M34,11h1v1h-1zM32,17h1v1h-1zM100,25h1v1h-1zM100,26h1v1h-1zM100,27h1v1h-1zM125,27h1v1h-1zM150,27h1v1h-1zM100,28h1v1h-1zM100,29h1v1h-1zM100,30h1v1h-1zM136,30h1v1h-1zM100,31h1v1h-1zM100,32h1v1h-1zM100,33h1v1h-1zM105,34h1v1h-1zM117,34h1v1h-1zM142,34h1v1h-1z" fill="#fd7c72" opacity="1.00"/>
  <path d="M35,11h1v1h-1zM135,29h1v1h-1zM51,31h1v1h-1z" fill="#fee2e0" opacity="1.00"/>
  <path d="M22,12h1v1h-1z" fill="#fdb2ad" opacity="1.00"/>
  <path d="M34,12h1v1h-1zM101,25h1v1h-1zM133,27h1v1h-1zM34,44h1v1h-1z" fill="#fd786d" opacity="1.00"/>
  <path d="M35,12h1v1h-1zM35,13h1v1h-1zM11,22h1v1h-1z" fill="#fecac6" opacity="1.00"/>
  <path d="M22,13h1v1h-1z" fill="#fdb0aa" opacity="1.00"/>
  <path d="M23,13h1v1h-1zM17,22h1v1h-1zM105,24h1v1h-1zM29,25h1v1h-1zM108,26h1v1h-1zM132,26h1v1h-1z" fill="#fd7064" opacity="1.00"/>
  <path d="M34,13h1v1h-1zM33,16h1v1h-1zM108,27h1v1h-1zM113,28h1v1h-1zM123,28h1v1h-1zM19,37h1v1h-1z" fill="#fd786e" opacity="1.00"/>
  <path d="M22,14h1v1h-1zM12,35h1v1h-1zM35,42h1v1h-1z" fill="#fda69f" opacity="1.00"/>
  <path d="M34,14h1v1h-1z" fill="#fd7c73" opacity="1.00"/>
  <path d="M35,14h1v1h-1zM103,25h1v1h-1zM104,25h1v1h-1zM122,34h1v1h-1z" fill="#fee4e2" opacity="1.00"/>
  <path d="M21,15h1v1h-1zM23,21h1v1h-1z" fill="#feebe9" opacity="1.00"/>
  <path d="M22,15h1v1h-1zM148,27h1v1h-1zM142,28h1v1h-1zM108,33h1v1h-1z" fill="#fd8a81" opacity="1.00"/>
  <path d="M34,15h1v1h-1z" fill="#fd948b" opacity="1.00"/>
  <path d="M21,16h1v1h-1zM129,34h1v1h-1z" fill="#fed4d0" opacity="1.00"/>
  <path d="M22,16h1v1h-1zM22,20h1v1h-1zM11,23h1v1h-1zM18,27h1v1h-1zM114,27h1v1h-1zM127,27h1v1h-1zM149,27h1v1h-1zM30,28h1v1h-1zM137,28h1v1h-1zM49,32h1v1h-1zM101,33h1v1h-1zM132,33h1v1h-1zM115,34h1v1h-1zM27,39h1v1h-1zM33,48h1v1h-1z" fill="#fd7368" opacity="1.00"/>
  <path d="M32,16h1v1h-1zM40,35h1v1h-1zM22,38h1v1h-1zM32,39h1v1h-1z" fill="#fd7165" opacity="1.00"/>
  <path d="M34,16h1v1h-1zM148,34h1v1h-1z" fill="#fed3d0" opacity="1.00"/>
  <path d="M21,17h1v1h-1zM122,33h1v1h-1zM42,35h1v1h-1zM26,38h1v1h-1z" fill="#fd978f" opacity="1.00"/>
  <path d="M33,17h1v1h-1zM46,22h1v1h-1zM134,28h1v1h-1z" fill="#fecfcb" opacity="1.00"/>
  <path d="M20,18h1v1h-1zM12,22h1v1h-1zM151,27h1v1h-1z" fill="#fec4c0" opacity="1.00"/>
  <path d="M21,18h1v1h-1zM9,24h1v1h-1zM147,27h1v1h-1zM147,29h1v1h-1zM18,30h1v1h-1zM25,31h1v1h-1zM116,34h1v1h-1zM134,34h1v1h-1zM32,49h1v1h-1z" fill="#fd7469" opacity="1.00"/>
  <path d="M30,18h1v1h-1zM18,21h1v1h-1zM109,28h1v1h-1zM133,34h1v1h-1z" fill="#fd766c" opacity="1.00"/>
  <path d="M31,18h1v1h-1zM42,23h1v1h-1zM132,24h1v1h-1zM33,26h1v1h-1zM6,30h1v1h-1z" fill="#fd9e96" opacity="1.00"/>
  <path d="M32,18h1v1h-1zM19,19h1v1h-1zM105,25h1v1h-1zM130,28h1v1h-1zM135,31h1v1h-1zM112,34h1v1h-1zM41,36h1v1h-1z" fill="#fedad7" opacity="1.00"/>
  <path d="M20,19h1v1h-1zM30,25h1v1h-1zM31,33h1v1h-1zM141,34h1v1h-1z" fill="#fd766b" opacity="1.00"/>
  <path d="M25,19h1v1h-1zM101,26h1v1h-1zM101,27h1v1h-1zM141,27h1v1h-1zM101,28h1v1h-1zM101,29h1v1h-1zM101,30h1v1h-1zM101,31h1v1h-1zM101,32h1v1h-1z" fill="#fd7a6f" opacity="1.00"/>
  <path d="M26,19h1v1h-1z" fill="#fd9d97" opacity="1.00"/>
  <path d="M27,19h1v1h-1z" fill="#fdcecb" opacity="1.00"/>
  <path d="M28,19h1v1h-1zM16,21h1v1h-1zM10,35h1v1h-1zM31,51h1v1h-1z" fill="#fee0de" opacity="1.00"/>
  <path d="M29,19h1v1h-1zM51,26h1v1h-1zM23,29h1v1h-1zM135,32h1v1h-1z" fill="#fee5e3" opacity="1.00"/>
  <path d="M30,19h1v1h-1zM140,28h1v1h-1zM7,33h1v1h-1z" fill="#feedeb" opacity="1.00"/>
  <path d="M18,20h1v1h-1zM100,23h1v1h-1z" fill="#fecdc9" opacity="1.00"/>
  <path d="M19,20h1v1h-1zM139,27h1v1h-1zM139,34h1v1h-1zM18,36h1v1h-1zM24,38h1v1h-1z" fill="#fd776d" opacity="1.00"/>
  <path d="M23,20h1v1h-1zM25,26h1v1h-1zM35,28h1v1h-1zM6,29h1v1h-1z" fill="#fd847a" opacity="1.00"/>
  <path d="M24,20h1v1h-1z" fill="#fecbc8" opacity="1.00"/>
  <path d="M17,21h1v1h-1z" fill="#fea7a0" opacity="1.00"/>
  <path d="M21,21h1v1h-1zM32,26h1v1h-1zM108,31h1v1h-1zM125,34h1v1h-1zM29,39h1v1h-1z" fill="#fd746a" opacity="1.00"/>
  <path d="M22,21h1v1h-1zM27,24h1v1h-1zM137,30h1v1h-1z" fill="#fda49d" opacity="1.00"/>
  <path d="M10,22h1v1h-1z" fill="#fee1df" opacity="1.00"/>
  <path d="M13,22h1v1h-1z" fill="#fec2be" opacity="1.00"/>
  <path d="M15,22h1v1h-1zM47,23h1v1h-1zM107,26h1v1h-1zM30,30h1v1h-1zM111,32h1v1h-1zM49,33h1v1h-1z" fill="#fda29b" opacity="1.00"/>
  <path d="M16,22h1v1h-1zM109,30h1v1h-1zM147,30h1v1h-1zM147,31h1v1h-1zM147,32h1v1h-1zM147,33h1v1h-1zM114,34h1v1h-1zM127,34h1v1h-1z" fill="#fd796f" opacity="1.00"/>
  <path d="M21,22h1v1h-1zM128,28h1v1h-1z" fill="#fda7a0" opacity="1.00"/>
  <path d="M42,22h1v1h-1zM7,24h1v1h-1z" fill="#feecea" opacity="1.00"/>
  <path d="M43,22h1v1h-1z" fill="#fed0cc" opacity="1.00"/>
  <path d="M44,22h1v1h-1zM110,30h1v1h-1z" fill="#fec5c1" opacity="1.00"/>
  <path d="M45,22h1v1h-1zM136,33h1v1h-1z" fill="#fec5c0" opacity="1.00"/>
  <path d="M47,22h1v1h-1zM21,23h1v1h-1zM107,27h1v1h-1zM135,28h1v1h-1zM138,31h1v1h-1zM25,37h1v1h-1z" fill="#feeeed" opacity="1.00"/>
  <path d="M60,22h1v1h-1z" fill="#e6eaf5" opacity="1.00"/>
  <path d="M61,22h1v1h-1zM68,26h1v1h-1z" fill="#e4eaf5" opacity="1.00"/>
  <path d="M62,22h1v1h-1zM65,24h1v1h-1z" fill="#f0f3f9" opacity="1.00"/>
  <path d="M95,22h1v1h-1z" fill="#aebfe1" opacity="1.00"/>
  <path d="M96,22h1v1h-1zM81,33h1v1h-1z" fill="#ccd7ec" opacity="1.00"/>
  <path d="M8,23h1v1h-1zM32,33h1v1h-1z" fill="#feeae8" opacity="1.00"/>
  <path d="M9,23h1v1h-1z" fill="#fdb5af" opacity="1.00"/>
  <path d="M10,23h1v1h-1z" fill="#fd9087" opacity="1.00"/>
  <path d="M12,23h1v1h-1zM13,23h1v1h-1zM45,23h1v1h-1zM103,24h1v1h-1zM104,24h1v1h-1zM132,25h1v1h-1zM36,27h1v1h-1zM132,29h1v1h-1zM132,30h1v1h-1zM132,31h1v1h-1z" fill="#fd6e62" opacity="1.00"/>
  <path d="M20,23h1v1h-1zM118,32h1v1h-1z" fill="#fd9088" opacity="1.00"/>
  <path d="M41,23h1v1h-1zM25,25h1v1h-1zM16,36h1v1h-1z" fill="#fec6c2" opacity="1.00"/>
  <path d="M43,23h1v1h-1zM48,24h1v1h-1zM116,27h1v1h-1zM112,33h1v1h-1zM10,34h1v1h-1zM124,34h1v1h-1z" fill="#fd7b71" opacity="1.00"/>
  <path d="M44,23h1v1h-1zM18,26h1v1h-1zM142,27h1v1h-1zM7,31h1v1h-1zM18,31h1v1h-1zM132,32h1v1h-1zM138,33h1v1h-1zM143,33h1v1h-1zM20,38h1v1h-1zM21,39h1v1h-1zM23,46h1v1h-1zM27,50h1v1h-1z" fill="#fd6e63" opacity="1.00"/>
  <path d="M46,23h1v1h-1zM112,28h1v1h-1zM34,45h1v1h-1z" fill="#fd796e" opacity="1.00"/>
  <path d="M48,23h1v1h-1zM102,26h1v1h-1zM102,27h1v1h-1zM102,28h1v1h-1zM102,29h1v1h-1zM102,30h1v1h-1zM102,31h1v1h-1zM102,32h1v1h-1z" fill="#fec4bf" opacity="1.00"/>
  <path d="M57,23h1v1h-1z" fill="#dae1f1" opacity="1.00"/>
  <path d="M58,23h1v1h-1z" fill="#8da3d5" opacity="1.00"/>
  <path d="M59,23h1v1h-1z" fill="#7291cd" opacity="1.00"/>
  <path d="M60,23h1v1h-1z" fill="#5e83c6" opacity="1.00"/>
  <path d="M61,23h1v1h-1z" fill="#5c82c5" opacity="1.00"/>
  <path d="M62,23h1v1h-1z" fill="#6b8dcb" opacity="1.00"/>
  <path d="M63,23h1v1h-1z" fill="#89a1d4" opacity="1.00"/>
  <path d="M64,23h1v1h-1z" fill="#d6deef" opacity="1.00"/>
  <path d="M94,23h1v1h-1z" fill="#e2e8f4" opacity="1.00"/>
  <path d="M95,23h1v1h-1z" fill="#194aac" opacity="1.00"/>
  <path d="M96,23h1v1h-1z" fill="#6e8fcb" opacity="1.00"/>
  <path d="M101,23h1v1h-1zM102,23h1v1h-1zM103,23h1v1h-1zM104,23h1v1h-1zM139,26h1v1h-1z" fill="#feb1ab" opacity="1.00"/>
  <path d="M105,23h1v1h-1z" fill="#feb6b1" opacity="1.00"/>
  <path d="M106,23h1v1h-1zM148,31h1v1h-1zM148,32h1v1h-1zM116,33h1v1h-1zM148,33h1v1h-1z" fill="#fececa" opacity="1.00"/>
  <path d="M8,24h1v1h-1z" fill="#fd978e" opacity="1.00"/>
  <path d="M19,24h1v1h-1zM44,34h1v1h-1zM45,34h1v1h-1zM25,49h1v1h-1z" fill="#fd7268" opacity="1.00"/>
  <path d="M20,24h1v1h-1zM35,46h1v1h-1z" fill="#fedddb" opacity="1.00"/>
  <path d="M26,24h1v1h-1zM150,28h1v1h-1z" fill="#ffe6e5" opacity="1.00"/>
  <path d="M28,24h1v1h-1zM37,31h1v1h-1z" fill="#fd9f98" opacity="1.00"/>
  <path d="M29,24h1v1h-1zM114,28h1v1h-1z" fill="#fda199" opacity="1.00"/>
  <path d="M30,24h1v1h-1z" fill="#feb8b2" opacity="1.00"/>
  <path d="M31,24h1v1h-1zM19,30h1v1h-1zM146,35h1v1h-1z" fill="#feebea" opacity="1.00"/>
  <path d="M40,24h1v1h-1z" fill="#fdb0ab" opacity="1.00"/>
  <path d="M41,24h1v1h-1zM36,28h1v1h-1zM18,29h1v1h-1zM144,29h1v1h-1z" fill="#fd7d73" opacity="1.00"/>
  <path d="M49,24h1v1h-1zM141,35h1v1h-1zM29,51h1v1h-1z" fill="#febbb6" opacity="1.00"/>
  <path d="M56,24h1v1h-1z" fill="#b7c8e5" opacity="1.00"/>
  <path d="M57,24h1v1h-1z" fill="#4771be" opacity="1.00"/>
  <path d="M58,24h1v1h-1z" fill="#0d42a9" opacity="1.00"/>
  <path d="M59,24h1v1h-1z" fill="#073aa6" opacity="1.00"/>
  <path d="M60,24h1v1h-1z" fill="#0e4cad" opacity="1.00"/>
  <path d="M61,24h1v1h-1z" fill="#134bad" opacity="1.00"/>
  <path d="M62,24h1v1h-1z" fill="#063ba6" opacity="1.00"/>
  <path d="M63,24h1v1h-1z" fill="#0a41a8" opacity="1.00"/>
  <path d="M64,24h1v1h-1z" fill="#7794cd" opacity="1.00"/>
  <path d="M94,24h1v1h-1zM94,25h1v1h-1zM94,30h1v1h-1z" fill="#e0e6f4" opacity="1.00"/>
  <path d="M95,24h1v1h-1zM95,25h1v1h-1zM95,26h1v1h-1z" fill="#063ca6" opacity="1.00"/>
  <path d="M96,24h1v1h-1zM96,25h1v1h-1zM96,26h1v1h-1zM96,27h1v1h-1zM96,28h1v1h-1zM96,29h1v1h-1zM96,30h1v1h-1zM96,31h1v1h-1zM96,32h1v1h-1zM96,33h1v1h-1z" fill="#6487c8" opacity="1.00"/>
  <path d="M100,24h1v1h-1zM31,25h1v1h-1zM109,27h1v1h-1zM28,34h1v1h-1zM100,34h1v1h-1zM41,35h1v1h-1z" fill="#fd887f" opacity="1.00"/>
  <path d="M106,24h1v1h-1zM124,33h1v1h-1zM138,34h1v1h-1z" fill="#fd8177" opacity="1.00"/>
  <path d="M107,24h1v1h-1zM22,43h1v1h-1z" fill="#fda39c" opacity="1.00"/>
  <path d="M131,24h1v1h-1z" fill="#febfba" opacity="1.00"/>
  <path d="M133,24h1v1h-1zM132,35h1v1h-1z" fill="#ffeceb" opacity="1.00"/>
  <path d="M7,25h1v1h-1z" fill="#fe9790" opacity="1.00"/>
  <path d="M19,25h1v1h-1zM118,29h1v1h-1zM120,30h1v1h-1z" fill="#fd958d" opacity="1.00"/>
  <path d="M26,25h1v1h-1zM37,29h1v1h-1z" fill="#fd867d" opacity="1.00"/>
  <path d="M32,25h1v1h-1z" fill="#fee8e7" opacity="1.00"/>
  <path d="M39,25h1v1h-1zM135,34h1v1h-1zM22,36h1v1h-1zM25,50h1v1h-1z" fill="#fdaaa4" opacity="1.00"/>
  <path d="M49,25h1v1h-1zM30,31h1v1h-1zM101,34h1v1h-1zM102,34h1v1h-1zM103,34h1v1h-1zM104,34h1v1h-1zM35,36h1v1h-1zM26,50h1v1h-1z" fill="#fd7a70" opacity="1.00"/>
  <path d="M50,25h1v1h-1zM148,30h1v1h-1z" fill="#fecbc7" opacity="1.00"/>
  <path d="M55,25h1v1h-1z" fill="#c1cee9" opacity="1.00"/>
  <path d="M56,25h1v1h-1z" fill="#2557b2" opacity="1.00"/>
  <path d="M57,25h1v1h-1z" fill="#013ca5" opacity="1.00"/>
  <path d="M58,25h1v1h-1z" fill="#6082c4" opacity="1.00"/>
  <path d="M59,25h1v1h-1z" fill="#c7d2ea" opacity="1.00"/>
  <path d="M60,25h1v1h-1z" fill="#d3dff0" opacity="1.00"/>
  <path d="M61,25h1v1h-1z" fill="#d4def0" opacity="1.00"/>
  <path d="M62,25h1v1h-1z" fill="#cad5ec" opacity="1.00"/>
  <path d="M63,25h1v1h-1zM70,35h1v1h-1z" fill="#7d98cf" opacity="1.00"/>
  <path d="M64,25h1v1h-1z" fill="#a9badf" opacity="1.00"/>
  <path d="M102,25h1v1h-1zM123,31h1v1h-1z" fill="#feb4ae" opacity="1.00"/>
  <path d="M106,25h1v1h-1zM108,30h1v1h-1zM29,34h1v1h-1zM36,39h1v1h-1z" fill="#fd8980" opacity="1.00"/>
  <path d="M108,25h1v1h-1zM123,27h1v1h-1z" fill="#fd8c83" opacity="1.00"/>
  <path d="M131,25h1v1h-1zM131,29h1v1h-1zM131,30h1v1h-1zM131,31h1v1h-1zM33,37h1v1h-1zM38,37h1v1h-1z" fill="#fd9e97" opacity="1.00"/>
  <path d="M133,25h1v1h-1zM133,29h1v1h-1zM133,30h1v1h-1zM133,31h1v1h-1z" fill="#ffe2e0" opacity="1.00"/>
  <path d="M6,26h1v1h-1z" fill="#ffd6d2" opacity="1.00"/>
  <path d="M7,26h1v1h-1z" fill="#fd6f65" opacity="1.00"/>
  <path d="M19,26h1v1h-1z" fill="#fdcac6" opacity="1.00"/>
  <path d="M24,26h1v1h-1zM117,35h1v1h-1z" fill="#fededc" opacity="1.00"/>
  <path d="M34,26h1v1h-1zM134,33h1v1h-1z" fill="#ffedec" opacity="1.00"/>
  <path d="M37,26h1v1h-1zM112,27h1v1h-1zM141,28h1v1h-1z" fill="#feccc8" opacity="1.00"/>
  <path d="M50,26h1v1h-1zM126,26h1v1h-1z" fill="#fd938a" opacity="1.00"/>
  <path d="M55,26h1v1h-1z" fill="#7c99d0" opacity="1.00"/>
  <path d="M56,26h1v1h-1zM67,32h1v1h-1z" fill="#013da6" opacity="1.00"/>
  <path d="M57,26h1v1h-1z" fill="#7090cc" opacity="1.00"/>
  <path d="M58,26h1v1h-1zM54,31h1v1h-1zM87,33h1v1h-1z" fill="#e7ecf6" opacity="1.00"/>
  <path d="M69,26h1v1h-1z" fill="#7192cc" opacity="1.00"/>
  <path d="M70,26h1v1h-1z" fill="#1548ac" opacity="1.00"/>
  <path d="M71,26h1v1h-1z" fill="#1042a9" opacity="1.00"/>
  <path d="M72,26h1v1h-1z" fill="#4a6ebb" opacity="1.00"/>
  <path d="M73,26h1v1h-1z" fill="#e2eaf5" opacity="1.00"/>
  <path d="M79,26h1v1h-1z" fill="#c2cee7" opacity="1.00"/>
  <path d="M80,26h1v1h-1z" fill="#2958b2" opacity="1.00"/>
  <path d="M81,26h1v1h-1z" fill="#0f40a8" opacity="1.00"/>
  <path d="M82,26h1v1h-1z" fill="#2250af" opacity="1.00"/>
  <path d="M83,26h1v1h-1z" fill="#8aa3d5" opacity="1.00"/>
  <path d="M84,26h1v1h-1zM57,29h1v1h-1z" fill="#eff2f9" opacity="1.00"/>
  <path d="M89,26h1v1h-1z" fill="#dfe5f3" opacity="1.00"/>
  <path d="M90,26h1v1h-1z" fill="#5f84c6" opacity="1.00"/>
  <path d="M91,26h1v1h-1z" fill="#1546ab" opacity="1.00"/>
  <path d="M92,26h1v1h-1z" fill="#0f47ab" opacity="1.00"/>
  <path d="M93,26h1v1h-1z" fill="#8199ce" opacity="1.00"/>
  <path d="M94,26h1v1h-1z" fill="#d9e1f1" opacity="1.00"/>
  <path d="M109,26h1v1h-1zM6,27h1v1h-1zM143,27h1v1h-1zM123,29h1v1h-1zM109,32h1v1h-1zM146,34h1v1h-1z" fill="#fd9f97" opacity="1.00"/>
  <path d="M114,26h1v1h-1z" fill="#fdc6c1" opacity="1.00"/>
  <path d="M115,26h1v1h-1zM146,30h1v1h-1zM146,31h1v1h-1zM37,33h1v1h-1zM21,40h1v1h-1z" fill="#fd968e" opacity="1.00"/>
  <path d="M116,26h1v1h-1zM117,28h1v1h-1z" fill="#fd9c95" opacity="1.00"/>
  <path d="M117,26h1v1h-1zM138,29h1v1h-1zM145,30h1v1h-1zM131,34h1v1h-1z" fill="#fed7d4" opacity="1.00"/>
  <path d="M125,26h1v1h-1zM17,36h1v1h-1z" fill="#fd9b94" opacity="1.00"/>
  <path d="M130,26h1v1h-1z" fill="#fed7d5" opacity="1.00"/>
  <path d="M131,26h1v1h-1z" fill="#fd8b82" opacity="1.00"/>
  <path d="M133,26h1v1h-1z" fill="#feb5b1" opacity="1.00"/>
  <path d="M134,26h1v1h-1z" fill="#fecdca" opacity="1.00"/>
  <path d="M138,26h1v1h-1z" fill="#ffebea" opacity="1.00"/>
  <path d="M140,26h1v1h-1zM109,31h1v1h-1zM133,33h1v1h-1z" fill="#fd8e85" opacity="1.00"/>
  <path d="M141,26h1v1h-1z" fill="#fea8a1" opacity="1.00"/>
  <path d="M142,26h1v1h-1z" fill="#ffe5e3" opacity="1.00"/>
  <path d="M146,26h1v1h-1z" fill="#ffe9e9" opacity="1.00"/>
  <path d="M147,26h1v1h-1z" fill="#fececc" opacity="1.00"/>
  <path d="M149,26h1v1h-1zM122,27h1v1h-1zM135,30h1v1h-1z" fill="#fed9d6" opacity="1.00"/>
  <path d="M150,26h1v1h-1zM120,31h1v1h-1zM9,34h1v1h-1z" fill="#fd9b93" opacity="1.00"/>
  <path d="M151,26h1v1h-1zM19,31h1v1h-1z" fill="#fed1ce" opacity="1.00"/>
  <path d="M19,27h1v1h-1zM107,31h1v1h-1zM21,42h1v1h-1z" fill="#feeae9" opacity="1.00"/>
  <path d="M24,27h1v1h-1zM13,35h1v1h-1zM27,38h1v1h-1zM37,38h1v1h-1z" fill="#fda19a" opacity="1.00"/>
  <path d="M34,27h1v1h-1z" fill="#fd6f63" opacity="1.00"/>
  <path d="M35,27h1v1h-1zM112,31h1v1h-1z" fill="#fd6d61" opacity="1.00"/>
  <path d="M51,27h1v1h-1zM51,30h1v1h-1z" fill="#fed5d1" opacity="1.00"/>
  <path d="M54,27h1v1h-1z" fill="#dae4f2" opacity="1.00"/>
  <path d="M55,27h1v1h-1z" fill="#003fa7" opacity="1.00"/>
  <path d="M56,27h1v1h-1z" fill="#174aac" opacity="1.00"/>
  <path d="M57,27h1v1h-1z" fill="#b3c2e3" opacity="1.00"/>
  <path d="M67,27h1v1h-1z" fill="#b6c3e4" opacity="1.00"/>
  <path d="M68,27h1v1h-1z" fill="#0032a3" opacity="1.00"/>
  <path d="M69,27h1v1h-1z" fill="#0942a8" opacity="1.00"/>
  <path d="M70,27h1v1h-1z" fill="#1c50af" opacity="1.00"/>
  <path d="M71,27h1v1h-1z" fill="#1f52b0" opacity="1.00"/>
  <path d="M72,27h1v1h-1z" fill="#0b44a9" opacity="1.00"/>
  <path d="M73,27h1v1h-1zM88,29h1v1h-1zM79,33h1v1h-1z" fill="#003aa5" opacity="1.00"/>
  <path d="M74,27h1v1h-1z" fill="#6d8bc8" opacity="1.00"/>
  <path d="M77,27h1v1h-1z" fill="#e8edf6" opacity="1.00"/>
  <path d="M78,27h1v1h-1z" fill="#365fb7" opacity="1.00"/>
  <path d="M79,27h1v1h-1zM78,28h1v1h-1zM95,28h1v1h-1zM85,31h1v1h-1zM74,32h1v1h-1zM95,32h1v1h-1z" fill="#003ba5" opacity="1.00"/>
  <path d="M80,27h1v1h-1zM69,34h1v1h-1z" fill="#154bac" opacity="1.00"/>
  <path d="M81,27h1v1h-1z" fill="#2152b0" opacity="1.00"/>
  <path d="M82,27h1v1h-1z" fill="#184dad" opacity="1.00"/>
  <path d="M83,27h1v1h-1zM60,34h1v1h-1zM61,34h1v1h-1z" fill="#0640a7" opacity="1.00"/>
  <path d="M84,27h1v1h-1zM69,33h1v1h-1z" fill="#2453af" opacity="1.00"/>
  <path d="M85,27h1v1h-1z" fill="#c8d3ea" opacity="1.00"/>
  <path d="M88,27h1v1h-1z" fill="#a8b9df" opacity="1.00"/>
  <path d="M89,27h1v1h-1zM63,33h1v1h-1z" fill="#0439a5" opacity="1.00"/>
  <path d="M90,27h1v1h-1z" fill="#0842a8" opacity="1.00"/>
  <path d="M91,27h1v1h-1z" fill="#1b4fae" opacity="1.00"/>
  <path d="M92,27h1v1h-1z" fill="#2153b0" opacity="1.00"/>
  <path d="M93,27h1v1h-1zM74,28h1v1h-1z" fill="#0d46aa" opacity="1.00"/>
  <path d="M94,27h1v1h-1zM85,29h1v1h-1zM57,33h1v1h-1z" fill="#0038a4" opacity="1.00"/>
  <path d="M95,27h1v1h-1zM78,32h1v1h-1zM68,33h1v1h-1zM95,33h1v1h-1z" fill="#003ca5" opacity="1.00"/>
  <path d="M110,27h1v1h-1z" fill="#fedcda" opacity="1.00"/>
  <path d="M113,27h1v1h-1zM112,30h1v1h-1zM144,30h1v1h-1z" fill="#fd6c60" opacity="1.00"/>
  <path d="M115,27h1v1h-1zM118,27h1v1h-1zM134,27h1v1h-1zM136,31h1v1h-1zM32,32h1v1h-1zM106,34h1v1h-1zM16,35h1v1h-1z" fill="#fd7e74" opacity="1.00"/>
  <path d="M119,27h1v1h-1zM121,32h1v1h-1zM105,35h1v1h-1zM24,50h1v1h-1z" fill="#fedfdc" opacity="1.00"/>
  <path d="M126,27h1v1h-1zM31,28h1v1h-1zM143,32h1v1h-1z" fill="#fd7f75" opacity="1.00"/>
  <path d="M128,27h1v1h-1zM32,28h1v1h-1zM33,28h1v1h-1zM34,28h1v1h-1zM138,28h1v1h-1z" fill="#fd847b" opacity="1.00"/>
  <path d="M129,27h1v1h-1z" fill="#febdb7" opacity="1.00"/>
  <path d="M130,27h1v1h-1z" fill="#fd897f" opacity="1.00"/>
  <path d="M131,27h1v1h-1zM24,48h1v1h-1z" fill="#fd7369" opacity="1.00"/>
  <path d="M135,27h1v1h-1zM32,50h1v1h-1z" fill="#febcb7" opacity="1.00"/>
  <path d="M137,27h1v1h-1zM104,33h1v1h-1zM33,49h1v1h-1z" fill="#fda59e" opacity="1.00"/>
  <path d="M140,27h1v1h-1z" fill="#fd7e75" opacity="1.00"/>
  <path d="M144,27h1v1h-1zM124,29h1v1h-1zM31,30h1v1h-1z" fill="#feeceb" opacity="1.00"/>
  <path d="M146,27h1v1h-1z" fill="#fd968d" opacity="1.00"/>
  <path d="M6,28h1v1h-1zM132,34h1v1h-1zM39,36h1v1h-1z" fill="#fd857c" opacity="1.00"/>
  <path d="M18,28h1v1h-1zM8,33h1v1h-1z" fill="#fd7d72" opacity="1.00"/>
  <path d="M19,28h1v1h-1zM19,29h1v1h-1zM23,30h1v1h-1zM15,36h1v1h-1zM17,37h1v1h-1z" fill="#feefee" opacity="1.00"/>
  <path d="M24,28h1v1h-1zM24,49h1v1h-1z" fill="#fd948c" opacity="1.00"/>
  <path d="M51,28h1v1h-1zM51,29h1v1h-1zM21,41h1v1h-1zM22,47h1v1h-1z" fill="#fed2cf" opacity="1.00"/>
  <path d="M54,28h1v1h-1z" fill="#cfd8ed" opacity="1.00"/>
  <path d="M55,28h1v1h-1zM55,29h1v1h-1zM55,30h1v1h-1z" fill="#0036a3" opacity="1.00"/>
  <path d="M56,28h1v1h-1z" fill="#5179c0" opacity="1.00"/>
  <path d="M57,28h1v1h-1z" fill="#e5eaf5" opacity="1.00"/>
  <path d="M60,28h1v1h-1z" fill="#dde3f2" opacity="1.00"/>
  <path d="M61,28h1v1h-1zM62,28h1v1h-1zM63,28h1v1h-1z" fill="#bdc9e7" opacity="1.00"/>
  <path d="M64,28h1v1h-1z" fill="#bfcae7" opacity="1.00"/>
  <path d="M66,28h1v1h-1z" fill="#e0e6f3" opacity="1.00"/>
  <path d="M67,28h1v1h-1z" fill="#002fa2" opacity="1.00"/>
  <path d="M68,28h1v1h-1z" fill="#1247ab" opacity="1.00"/>
  <path d="M69,28h1v1h-1z" fill="#7690cc" opacity="1.00"/>
  <path d="M70,28h1v1h-1z" fill="#e7ebf5" opacity="1.00"/>
  <path d="M72,28h1v1h-1z" fill="#859dd1" opacity="1.00"/>
  <path d="M73,28h1v1h-1z" fill="#194ead" opacity="1.00"/>
  <path d="M75,28h1v1h-1z" fill="#9caed9" opacity="1.00"/>
  <path d="M77,28h1v1h-1z" fill="#5a7ec4" opacity="1.00"/>
  <path d="M79,28h1v1h-1z" fill="#3560b7" opacity="1.00"/>
  <path d="M80,28h1v1h-1z" fill="#bdcbe5" opacity="1.00"/>
  <path d="M82,28h1v1h-1zM54,29h1v1h-1z" fill="#cdd7ec" opacity="1.00"/>
  <path d="M83,28h1v1h-1z" fill="#597dc2" opacity="1.00"/>
  <path d="M84,28h1v1h-1z" fill="#0e47aa" opacity="1.00"/>
  <path d="M85,28h1v1h-1z" fill="#3660b4" opacity="1.00"/>
  <path d="M87,28h1v1h-1z" fill="#d9e2f2" opacity="1.00"/>
  <path d="M88,28h1v1h-1z" fill="#0640a8" opacity="1.00"/>
  <path d="M89,28h1v1h-1zM90,34h1v1h-1z" fill="#1249ab" opacity="1.00"/>
  <path d="M90,28h1v1h-1z" fill="#6d8bc9" opacity="1.00"/>
  <path d="M91,28h1v1h-1z" fill="#dce3f1" opacity="1.00"/>
  <path d="M93,28h1v1h-1z" fill="#91a6d4" opacity="1.00"/>
  <path d="M94,28h1v1h-1z" fill="#184cad" opacity="1.00"/>
  <path d="M108,28h1v1h-1zM102,33h1v1h-1zM35,41h1v1h-1z" fill="#fd8f87" opacity="1.00"/>
  <path d="M110,28h1v1h-1zM30,51h1v1h-1z" fill="#fec7c3" opacity="1.00"/>
  <path d="M115,28h1v1h-1z" fill="#ffe3e2" opacity="1.00"/>
  <path d="M116,28h1v1h-1zM121,29h1v1h-1zM125,33h1v1h-1z" fill="#fed5d2" opacity="1.00"/>
  <path d="M118,28h1v1h-1zM46,34h1v1h-1zM21,36h1v1h-1zM35,40h1v1h-1z" fill="#fd776c" opacity="1.00"/>
  <path d="M119,28h1v1h-1zM137,29h1v1h-1z" fill="#fd7f74" opacity="1.00"/>
  <path d="M121,28h1v1h-1zM36,33h1v1h-1zM31,34h1v1h-1zM119,34h1v1h-1z" fill="#feedec" opacity="1.00"/>
  <path d="M122,28h1v1h-1z" fill="#fd8f86" opacity="1.00"/>
  <path d="M124,28h1v1h-1zM24,30h1v1h-1zM111,30h1v1h-1zM123,32h1v1h-1z" fill="#fd9890" opacity="1.00"/>
  <path d="M125,28h1v1h-1zM39,37h1v1h-1z" fill="#fed8d5" opacity="1.00"/>
  <path d="M126,28h1v1h-1z" fill="#ffeae8" opacity="1.00"/>
  <path d="M127,28h1v1h-1zM44,35h1v1h-1z" fill="#fda7a1" opacity="1.00"/>
  <path d="M129,28h1v1h-1z" fill="#ffefed" opacity="1.00"/>
  <path d="M133,28h1v1h-1zM24,37h1v1h-1z" fill="#feb8b3" opacity="1.00"/>
  <path d="M136,28h1v1h-1zM36,40h1v1h-1z" fill="#fdb9b4" opacity="1.00"/>
  <path d="M144,28h1v1h-1z" fill="#feaca5" opacity="1.00"/>
  <path d="M146,28h1v1h-1zM146,29h1v1h-1zM146,32h1v1h-1zM146,33h1v1h-1z" fill="#fd968f" opacity="1.00"/>
  <path d="M148,28h1v1h-1zM32,38h1v1h-1zM34,46h1v1h-1z" fill="#fd7b70" opacity="1.00"/>
  <path d="M149,28h1v1h-1zM22,44h1v1h-1z" fill="#feb0aa" opacity="1.00"/>
  <path d="M24,29h1v1h-1zM136,32h1v1h-1z" fill="#fd9289" opacity="1.00"/>
  <path d="M30,29h1v1h-1zM23,37h1v1h-1z" fill="#fd9188" opacity="1.00"/>
  <path d="M31,29h1v1h-1zM35,44h1v1h-1z" fill="#fec9c5" opacity="1.00"/>
  <path d="M35,29h1v1h-1z" fill="#fed5d3" opacity="1.00"/>
  <path d="M36,29h1v1h-1z" fill="#fec3bf" opacity="1.00"/>
  <path d="M56,29h1v1h-1z" fill="#5d82c5" opacity="1.00"/>
  <path d="M60,29h1v1h-1z" fill="#6f8ac8" opacity="1.00"/>
  <path d="M61,29h1v1h-1z" fill="#0030a2" opacity="1.00"/>
  <path d="M62,29h1v1h-1z" fill="#0031a2" opacity="1.00"/>
  <path d="M63,29h1v1h-1zM74,30h1v1h-1z" fill="#0033a3" opacity="1.00"/>
  <path d="M64,29h1v1h-1z" fill="#0735a4" opacity="1.00"/>
  <path d="M65,29h1v1h-1z" fill="#d1d9ee" opacity="1.00"/>
  <path d="M66,29h1v1h-1z" fill="#6487c7" opacity="1.00"/>
  <path d="M67,29h1v1h-1z" fill="#043fa7" opacity="1.00"/>
  <path d="M68,29h1v1h-1z" fill="#5a7cc3" opacity="1.00"/>
  <path d="M73,29h1v1h-1z" fill="#9cb0d9" opacity="1.00"/>
  <path d="M74,29h1v1h-1z" fill="#0039a5" opacity="1.00"/>
  <path d="M75,29h1v1h-1z" fill="#4e72bf" opacity="1.00"/>
  <path d="M76,29h1v1h-1z" fill="#ccd6ec" opacity="1.00"/>
  <path d="M77,29h1v1h-1z" fill="#3967b9" opacity="1.00"/>
  <path d="M78,29h1v1h-1zM73,33h1v1h-1z" fill="#003da6" opacity="1.00"/>
  <path d="M79,29h1v1h-1z" fill="#d5e0f1" opacity="1.00"/>
  <path d="M83,29h1v1h-1z" fill="#dee5f2" opacity="1.00"/>
  <path d="M84,29h1v1h-1z" fill="#486fbd" opacity="1.00"/>
  <path d="M86,29h1v1h-1z" fill="#d1dbee" opacity="1.00"/>
  <path d="M87,29h1v1h-1z" fill="#a3b7dd" opacity="1.00"/>
  <path d="M89,29h1v1h-1z" fill="#5078c1" opacity="1.00"/>
  <path d="M90,29h1v1h-1z" fill="#edf1f8" opacity="1.00"/>
  <path d="M94,29h1v1h-1z" fill="#90a7d5" opacity="1.00"/>
  <path d="M95,29h1v1h-1z" fill="#013ba5" opacity="1.00"/>
  <path d="M108,29h1v1h-1z" fill="#fd9992" opacity="1.00"/>
  <path d="M111,29h1v1h-1zM137,31h1v1h-1zM131,32h1v1h-1z" fill="#fda099" opacity="1.00"/>
  <path d="M113,29h1v1h-1z" fill="#fdb2ab" opacity="1.00"/>
  <path d="M120,29h1v1h-1z" fill="#fec8c5" opacity="1.00"/>
  <path d="M142,29h1v1h-1z" fill="#fedbd8" opacity="1.00"/>
  <path d="M143,29h1v1h-1z" fill="#fd887e" opacity="1.00"/>
  <path d="M145,29h1v1h-1z" fill="#fee5e4" opacity="1.00"/>
  <path d="M148,29h1v1h-1z" fill="#fda9a3" opacity="1.00"/>
  <path d="M37,30h1v1h-1z" fill="#fda098" opacity="1.00"/>
  <path d="M54,30h1v1h-1z" fill="#d4ddef" opacity="1.00"/>
  <path d="M56,30h1v1h-1z" fill="#3a66b8" opacity="1.00"/>
  <path d="M57,30h1v1h-1zM83,35h1v1h-1z" fill="#d1daed" opacity="1.00"/>
  <path d="M60,30h1v1h-1z" fill="#b9c6e4" opacity="1.00"/>
  <path d="M61,30h1v1h-1z" fill="#8ea4d6" opacity="1.00"/>
  <path d="M62,30h1v1h-1z" fill="#859ed3" opacity="1.00"/>
  <path d="M63,30h1v1h-1z" fill="#3b69ba" opacity="1.00"/>
  <path d="M64,30h1v1h-1zM64,31h1v1h-1zM64,32h1v1h-1zM64,33h1v1h-1z" fill="#053da6" opacity="1.00"/>
  <path d="M65,30h1v1h-1z" fill="#cfd9ee" opacity="1.00"/>
  <path d="M66,30h1v1h-1z" fill="#0f3da8" opacity="1.00"/>
  <path d="M67,30h1v1h-1zM80,34h1v1h-1z" fill="#0e46aa" opacity="1.00"/>
  <path d="M68,30h1v1h-1z" fill="#98acd7" opacity="1.00"/>
  <path d="M75,30h1v1h-1z" fill="#4471bd" opacity="1.00"/>
  <path d="M76,30h1v1h-1z" fill="#91a9d7" opacity="1.00"/>
  <path d="M77,30h1v1h-1z" fill="#1349ab" opacity="1.00"/>
  <path d="M78,30h1v1h-1z" fill="#295bb3" opacity="1.00"/>
  <path d="M79,30h1v1h-1z" fill="#e5ebf6" opacity="1.00"/>
  <path d="M84,30h1v1h-1z" fill="#637ec5" opacity="1.00"/>
  <path d="M85,30h1v1h-1zM88,32h1v1h-1z" fill="#013aa5" opacity="1.00"/>
  <path d="M86,30h1v1h-1z" fill="#9cb1d9" opacity="1.00"/>
  <path d="M87,30h1v1h-1z" fill="#5679bf" opacity="1.00"/>
  <path d="M88,30h1v1h-1z" fill="#043ea6" opacity="1.00"/>
  <path d="M89,30h1v1h-1z" fill="#6989c9" opacity="1.00"/>
  <path d="M95,30h1v1h-1z" fill="#043ca6" opacity="1.00"/>
  <path d="M107,30h1v1h-1zM25,51h1v1h-1z" fill="#fef1f0" opacity="1.00"/>
  <path d="M113,30h1v1h-1z" fill="#fff1ef" opacity="1.00"/>
  <path d="M118,30h1v1h-1z" fill="#fdb1ab" opacity="1.00"/>
  <path d="M119,30h1v1h-1zM34,43h1v1h-1z" fill="#fd756b" opacity="1.00"/>
  <path d="M121,30h1v1h-1z" fill="#fdafaa" opacity="1.00"/>
  <path d="M123,30h1v1h-1z" fill="#feb5b0" opacity="1.00"/>
  <path d="M138,30h1v1h-1zM121,33h1v1h-1zM22,35h1v1h-1zM100,35h1v1h-1zM22,48h1v1h-1z" fill="#fef0ef" opacity="1.00"/>
  <path d="M143,30h1v1h-1zM48,34h1v1h-1z" fill="#fda9a2" opacity="1.00"/>
  <path d="M24,31h1v1h-1z" fill="#feaea7" opacity="1.00"/>
  <path d="M31,31h1v1h-1zM15,35h1v1h-1zM31,38h1v1h-1z" fill="#fd938b" opacity="1.00"/>
  <path d="M50,31h1v1h-1z" fill="#fd8d85" opacity="1.00"/>
  <path d="M55,31h1v1h-1z" fill="#3a64b7" opacity="1.00"/>
  <path d="M56,31h1v1h-1z" fill="#0d44a9" opacity="1.00"/>
  <path d="M57,31h1v1h-1z" fill="#a5b9df" opacity="1.00"/>
  <path d="M62,31h1v1h-1z" fill="#eef2f9" opacity="1.00"/>
  <path d="M63,31h1v1h-1z" fill="#6a8dcb" opacity="1.00"/>
  <path d="M65,31h1v1h-1zM65,32h1v1h-1zM65,33h1v1h-1z" fill="#d0daee" opacity="1.00"/>
  <path d="M66,31h1v1h-1z" fill="#214dae" opacity="1.00"/>
  <path d="M67,31h1v1h-1z" fill="#0a44a9" opacity="1.00"/>
  <path d="M68,31h1v1h-1z" fill="#809acf" opacity="1.00"/>
  <path d="M74,31h1v1h-1zM56,32h1v1h-1zM67,33h1v1h-1z" fill="#0036a4" opacity="1.00"/>
  <path d="M75,31h1v1h-1z" fill="#4570bd" opacity="1.00"/>
  <path d="M76,31h1v1h-1z" fill="#9cb1da" opacity="1.00"/>
  <path d="M77,31h1v1h-1z" fill="#1b4fad" opacity="1.00"/>
  <path d="M78,31h1v1h-1z" fill="#1848ab" opacity="1.00"/>
  <path d="M79,31h1v1h-1z" fill="#e3e8f4" opacity="1.00"/>
  <path d="M84,31h1v1h-1z" fill="#627fc5" opacity="1.00"/>
  <path d="M86,31h1v1h-1z" fill="#aabddf" opacity="1.00"/>
  <path d="M87,31h1v1h-1z" fill="#6988c6" opacity="1.00"/>
  <path d="M88,31h1v1h-1z" fill="#023ba5" opacity="1.00"/>
  <path d="M89,31h1v1h-1z" fill="#6482c6" opacity="1.00"/>
  <path d="M94,31h1v1h-1z" fill="#dde4f3" opacity="1.00"/>
  <path d="M95,31h1v1h-1z" fill="#033ba5" opacity="1.00"/>
  <path d="M110,31h1v1h-1z" fill="#fedfdd" opacity="1.00"/>
  <path d="M111,31h1v1h-1z" fill="#fd9991" opacity="1.00"/>
  <path d="M113,31h1v1h-1zM138,35h1v1h-1z" fill="#ffeeed" opacity="1.00"/>
  <path d="M118,31h1v1h-1z" fill="#fdaca6" opacity="1.00"/>
  <path d="M121,31h1v1h-1zM11,35h1v1h-1z" fill="#fdb5b0" opacity="1.00"/>
  <path d="M143,31h1v1h-1z" fill="#fda59f" opacity="1.00"/>
  <path d="M144,31h1v1h-1z" fill="#fd6c61" opacity="1.00"/>
  <path d="M145,31h1v1h-1z" fill="#fed9d7" opacity="1.00"/>
  <path d="M7,32h1v1h-1z" fill="#fd9189" opacity="1.00"/>
  <path d="M19,32h1v1h-1zM123,34h1v1h-1z" fill="#fd9a93" opacity="1.00"/>
  <path d="M24,32h1v1h-1zM111,33h1v1h-1zM129,33h1v1h-1zM142,35h1v1h-1zM23,36h1v1h-1z" fill="#fee6e4" opacity="1.00"/>
  <path d="M25,32h1v1h-1zM47,34h1v1h-1z" fill="#fd8076" opacity="1.00"/>
  <path d="M50,32h1v1h-1z" fill="#febdb8" opacity="1.00"/>
  <path d="M55,32h1v1h-1z" fill="#9baeda" opacity="1.00"/>
  <path d="M57,32h1v1h-1z" fill="#1d4cae" opacity="1.00"/>
  <path d="M58,32h1v1h-1z" fill="#c3cfea" opacity="1.00"/>
  <path d="M62,32h1v1h-1z" fill="#eff3f9" opacity="1.00"/>
  <path d="M63,32h1v1h-1z" fill="#6a8ecb" opacity="1.00"/>
  <path d="M66,32h1v1h-1z" fill="#a0b4db" opacity="1.00"/>
  <path d="M68,32h1v1h-1z" fill="#406abb" opacity="1.00"/>
  <path d="M69,32h1v1h-1z" fill="#f0f3fa" opacity="1.00"/>
  <path d="M73,32h1v1h-1z" fill="#486ebc" opacity="1.00"/>
  <path d="M75,32h1v1h-1z" fill="#5171bf" opacity="1.00"/>
  <path d="M76,32h1v1h-1zM85,34h1v1h-1z" fill="#eaeef7" opacity="1.00"/>
  <path d="M77,32h1v1h-1z" fill="#4f79c1" opacity="1.00"/>
  <path d="M79,32h1v1h-1z" fill="#b1c1e2" opacity="1.00"/>
  <path d="M83,32h1v1h-1z" fill="#b5c4e3" opacity="1.00"/>
  <path d="M84,32h1v1h-1z" fill="#2959b2" opacity="1.00"/>
  <path d="M85,32h1v1h-1z" fill="#0035a3" opacity="1.00"/>
  <path d="M86,32h1v1h-1z" fill="#e3e8f5" opacity="1.00"/>
  <path d="M87,32h1v1h-1z" fill="#c7d3eb" opacity="1.00"/>
  <path d="M89,32h1v1h-1z" fill="#3c68b9" opacity="1.00"/>
  <path d="M90,32h1v1h-1z" fill="#d5deef" opacity="1.00"/>
  <path d="M94,32h1v1h-1z" fill="#4e74be" opacity="1.00"/>
  <path d="M107,32h1v1h-1zM114,33h1v1h-1z" fill="#fd857b" opacity="1.00"/>
  <path d="M113,32h1v1h-1zM30,38h1v1h-1z" fill="#fd9d95" opacity="1.00"/>
  <path d="M120,32h1v1h-1z" fill="#fed6d2" opacity="1.00"/>
  <path d="M124,32h1v1h-1zM38,38h1v1h-1zM36,41h1v1h-1z" fill="#fee7e5" opacity="1.00"/>
  <path d="M133,32h1v1h-1z" fill="#ffe1de" opacity="1.00"/>
  <path d="M137,32h1v1h-1z" fill="#fd7468" opacity="1.00"/>
  <path d="M138,32h1v1h-1zM114,35h1v1h-1z" fill="#fed1cd" opacity="1.00"/>
  <path d="M142,32h1v1h-1z" fill="#fed4d1" opacity="1.00"/>
  <path d="M25,33h1v1h-1z" fill="#ffe0de" opacity="1.00"/>
  <path d="M56,33h1v1h-1z" fill="#7893ce" opacity="1.00"/>
  <path d="M58,33h1v1h-1z" fill="#023aa5" opacity="1.00"/>
  <path d="M59,33h1v1h-1z" fill="#315db3" opacity="1.00"/>
  <path d="M60,33h1v1h-1z" fill="#b9c7e4" opacity="1.00"/>
  <path d="M61,33h1v1h-1z" fill="#bbc9e5" opacity="1.00"/>
  <path d="M62,33h1v1h-1z" fill="#4a6dbb" opacity="1.00"/>
  <path d="M70,33h1v1h-1z" fill="#a2b5dc" opacity="1.00"/>
  <path d="M71,33h1v1h-1z" fill="#bdcbe6" opacity="1.00"/>
  <path d="M72,33h1v1h-1z" fill="#204faf" opacity="1.00"/>
  <path d="M74,33h1v1h-1z" fill="#174bad" opacity="1.00"/>
  <path d="M75,33h1v1h-1z" fill="#ced8ed" opacity="1.00"/>
  <path d="M77,33h1v1h-1zM92,35h1v1h-1z" fill="#7c96ce" opacity="1.00"/>
  <path d="M78,33h1v1h-1z" fill="#0b43a8" opacity="1.00"/>
  <path d="M80,33h1v1h-1z" fill="#587ac0" opacity="1.00"/>
  <path d="M82,33h1v1h-1z" fill="#809dd2" opacity="1.00"/>
  <path d="M83,33h1v1h-1z" fill="#0842a9" opacity="1.00"/>
  <path d="M84,33h1v1h-1zM89,33h1v1h-1zM94,33h1v1h-1z" fill="#003ca6" opacity="1.00"/>
  <path d="M85,33h1v1h-1z" fill="#7593cc" opacity="1.00"/>
  <path d="M88,33h1v1h-1z" fill="#2f5cb4" opacity="1.00"/>
  <path d="M90,33h1v1h-1z" fill="#1d4fad" opacity="1.00"/>
  <path d="M91,33h1v1h-1z" fill="#9bb0da" opacity="1.00"/>
  <path d="M92,33h1v1h-1z" fill="#cfd9ec" opacity="1.00"/>
  <path d="M93,33h1v1h-1zM93,34h1v1h-1z" fill="#174eae" opacity="1.00"/>
  <path d="M103,33h1v1h-1z" fill="#feafa9" opacity="1.00"/>
  <path d="M105,33h1v1h-1z" fill="#fd8279" opacity="1.00"/>
  <path d="M115,33h1v1h-1z" fill="#ffdfdd" opacity="1.00"/>
  <path d="M126,33h1v1h-1z" fill="#ffe5e4" opacity="1.00"/>
  <path d="M128,33h1v1h-1zM22,42h1v1h-1z" fill="#fd877e" opacity="1.00"/>
  <path d="M131,33h1v1h-1zM45,35h1v1h-1zM140,35h1v1h-1zM23,48h1v1h-1z" fill="#fda8a1" opacity="1.00"/>
  <path d="M139,33h1v1h-1z" fill="#fdada8" opacity="1.00"/>
  <path d="M140,33h1v1h-1z" fill="#fee7e6" opacity="1.00"/>
  <path d="M141,33h1v1h-1z" fill="#fdbdb8" opacity="1.00"/>
  <path d="M144,33h1v1h-1z" fill="#feb7b2" opacity="1.00"/>
  <path d="M8,34h1v1h-1z" fill="#fee8e6" opacity="1.00"/>
  <path d="M20,34h1v1h-1z" fill="#fd928a" opacity="1.00"/>
  <path d="M27,34h1v1h-1z" fill="#feb4af" opacity="1.00"/>
  <path d="M30,34h1v1h-1z" fill="#fdb4af" opacity="1.00"/>
  <path d="M36,34h1v1h-1z" fill="#fdb8b2" opacity="1.00"/>
  <path d="M57,34h1v1h-1z" fill="#6b90cc" opacity="1.00"/>
  <path d="M58,34h1v1h-1z" fill="#1c52b0" opacity="1.00"/>
  <path d="M59,34h1v1h-1zM72,34h1v1h-1z" fill="#1149ab" opacity="1.00"/>
  <path d="M62,34h1v1h-1z" fill="#1048ab" opacity="1.00"/>
  <path d="M63,34h1v1h-1z" fill="#1b4dae" opacity="1.00"/>
  <path d="M64,34h1v1h-1z" fill="#7d96cf" opacity="1.00"/>
  <path d="M67,34h1v1h-1z" fill="#dde5f2" opacity="1.00"/>
  <path d="M68,34h1v1h-1z" fill="#2659b4" opacity="1.00"/>
  <path d="M70,34h1v1h-1zM92,34h1v1h-1z" fill="#0841a8" opacity="1.00"/>
  <path d="M71,34h1v1h-1z" fill="#0740a8" opacity="1.00"/>
  <path d="M73,34h1v1h-1z" fill="#1e4bad" opacity="1.00"/>
  <path d="M74,34h1v1h-1z" fill="#bac8e4" opacity="1.00"/>
  <path d="M78,34h1v1h-1z" fill="#7994ce" opacity="1.00"/>
  <path d="M79,34h1v1h-1z" fill="#2254b1" opacity="1.00"/>
  <path d="M81,34h1v1h-1z" fill="#053fa7" opacity="1.00"/>
  <path d="M82,34h1v1h-1z" fill="#0a43a9" opacity="1.00"/>
  <path d="M83,34h1v1h-1z" fill="#174cad" opacity="1.00"/>
  <path d="M84,34h1v1h-1z" fill="#6787c7" opacity="1.00"/>
  <path d="M88,34h1v1h-1z" fill="#d2daee" opacity="1.00"/>
  <path d="M89,34h1v1h-1z" fill="#3c65b8" opacity="1.00"/>
  <path d="M91,34h1v1h-1z" fill="#0741a7" opacity="1.00"/>
  <path d="M94,34h1v1h-1z" fill="#325fb5" opacity="1.00"/>
  <path d="M95,34h1v1h-1z" fill="#164bac" opacity="1.00"/>
  <path d="M96,34h1v1h-1z" fill="#6f90cc" opacity="1.00"/>
  <path d="M107,34h1v1h-1z" fill="#fd988f" opacity="1.00"/>
  <path d="M113,34h1v1h-1zM23,47h1v1h-1z" fill="#fd7e73" opacity="1.00"/>
  <path d="M118,34h1v1h-1z" fill="#fd8e86" opacity="1.00"/>
  <path d="M137,34h1v1h-1z" fill="#fdb4ae" opacity="1.00"/>
  <path d="M14,35h1v1h-1z" fill="#fd9790" opacity="1.00"/>
  <path d="M20,35h1v1h-1z" fill="#fd7367" opacity="1.00"/>
  <path d="M21,35h1v1h-1z" fill="#fdaaa3" opacity="1.00"/>
  <path d="M35,35h1v1h-1z" fill="#fdbfba" opacity="1.00"/>
  <path d="M36,35h1v1h-1z" fill="#fd7c71" opacity="1.00"/>
  <path d="M43,35h1v1h-1z" fill="#fd9d96" opacity="1.00"/>
  <path d="M46,35h1v1h-1z" fill="#fec0bb" opacity="1.00"/>
  <path d="M58,35h1v1h-1z" fill="#edf1f9" opacity="1.00"/>
  <path d="M59,35h1v1h-1z" fill="#b0c0e0" opacity="1.00"/>
  <path d="M60,35h1v1h-1z" fill="#718fcb" opacity="1.00"/>
  <path d="M61,35h1v1h-1z" fill="#728fca" opacity="1.00"/>
  <path d="M62,35h1v1h-1z" fill="#a8b9de" opacity="1.00"/>
  <path d="M63,35h1v1h-1z" fill="#e6ebf6" opacity="1.00"/>
  <path d="M69,35h1v1h-1z" fill="#c5d2ea" opacity="1.00"/>
  <path d="M71,35h1v1h-1zM91,35h1v1h-1z" fill="#7793cc" opacity="1.00"/>
  <path d="M72,35h1v1h-1z" fill="#aebfe0" opacity="1.00"/>
  <path d="M79,35h1v1h-1z" fill="#eef3fa" opacity="1.00"/>
  <path d="M80,35h1v1h-1z" fill="#9daed8" opacity="1.00"/>
  <path d="M81,35h1v1h-1z" fill="#6f8cc9" opacity="1.00"/>
  <path d="M82,35h1v1h-1z" fill="#89a1d3" opacity="1.00"/>
  <path d="M90,35h1v1h-1z" fill="#b7c6e4" opacity="1.00"/>
  <path d="M93,35h1v1h-1z" fill="#d2dbee" opacity="1.00"/>
  <path d="M95,35h1v1h-1z" fill="#becbe6" opacity="1.00"/>
  <path d="M96,35h1v1h-1z" fill="#d3dcee" opacity="1.00"/>
  <path d="M115,35h1v1h-1z" fill="#fdaea7" opacity="1.00"/>
  <path d="M116,35h1v1h-1zM125,35h1v1h-1z" fill="#fdb3ad" opacity="1.00"/>
  <path d="M126,35h1v1h-1z" fill="#fdaba4" opacity="1.00"/>
  <path d="M127,35h1v1h-1z" fill="#feccc9" opacity="1.00"/>
  <path d="M133,35h1v1h-1z" fill="#fdbcb6" opacity="1.00"/>
  <path d="M134,35h1v1h-1z" fill="#fdaba5" opacity="1.00"/>
  <path d="M139,35h1v1h-1z" fill="#fdc2bd" opacity="1.00"/>
  <path d="M34,36h1v1h-1z" fill="#fdb8b3" opacity="1.00"/>
  <path d="M40,36h1v1h-1zM29,38h1v1h-1z" fill="#fdaca5" opacity="1.00"/>
  <path d="M32,37h1v1h-1z" fill="#fdc0bb" opacity="1.00"/>
  <path d="M34,37h1v1h-1z" fill="#fd7167" opacity="1.00"/>
  <path d="M19,38h1v1h-1z" fill="#fed0cd" opacity="1.00"/>
  <path d="M28,38h1v1h-1z" fill="#fdb0a9" opacity="1.00"/>
  <path d="M20,39h1v1h-1z" fill="#fdc1bc" opacity="1.00"/>
  <path d="M37,39h1v1h-1zM23,49h1v1h-1z" fill="#fedcd9" opacity="1.00"/>
  <path d="M35,43h1v1h-1z" fill="#feb9b3" opacity="1.00"/>
  <path d="M22,45h1v1h-1z" fill="#feb3ad" opacity="1.00"/>
  <path d="M35,45h1v1h-1z" fill="#fececb" opacity="1.00"/>
  <path d="M22,46h1v1h-1z" fill="#febab5" opacity="1.00"/>
  <path d="M34,47h1v1h-1z" fill="#fd8880" opacity="1.00"/>
  <path d="M34,48h1v1h-1z" fill="#fdbcb7" opacity="1.00"/>
  <path d="M31,50h1v1h-1z" fill="#fd8c84" opacity="1.00"/>
  <path d="M27,51h1v1h-1z" fill="#febfbb" opacity="1.00"/>
  <path d="M28,51h1v1h-1z" fill="#feb9b4" opacity="1.00"/>
</svg>