<svg xmlns="http://www.w3.org/2000/svg" viewBox="0 0 160 68" width="100%" height="100%">
  <path d="M48,0h1v1h-1zM47,10h1v1h-1zM113,27h1v1h-1zM113,28h1v1h-1zM113,29h1v1h-1zM21,47h1v1h-1zM111,56h1v1h-1z" fill="#df0b2a" opacity="0.09"/>
  <path d="M49,0h1v1h-1zM3,42h1v1h-1z" fill="#e3112a" opacity="0.36"/>
  <path d="M50,0h1v1h-1z" fill="#e2112b" opacity="0.58"/>
  <path d="M51,0h1v1h-1zM46,10h1v1h-1zM20,45h1v1h-1zM58,52h1v1h-1z" fill="#e3112c" opacity="0.75"/>
  <path d="M52,0h1v1h-1zM48,52h1v1h-1zM56,60h1v1h-1z" fill="#e1112c" opacity="0.88"/>
  <path d="M53,0h1v1h-1zM0,51h1v1h-1z" fill="#e2112c" opacity="0.96"/>
  <path d="M54,0h1v1h-1zM48,1h1v1h-1zM42,4h1v1h-1zM69,6h1v1h-1zM97,17h1v1h-1zM99,24h1v1h-1zM159,38h1v1h-1zM159,39h1v1h-1zM159,40h1v1h-1zM159,41h1v1h-1zM159,42h1v1h-1zM159,43h1v1h-1zM57,53h1v1h-1zM6,64h1v1h-1z" fill="#e2112c" opacity="0.99"/>
  <path d="M55,0h1v1h-1zM107,2h1v1h-1zM68,5h1v1h-1zM103,8h1v1h-1zM37,9h1v1h-1zM101,11h1v1h-1zM65,12h1v1h-1zM89,16h1v1h-1zM101,21h1v1h-1zM57,27h1v1h-1zM73,28h1v1h-1zM20,38h1v1h-1zM29,57h1v1h-1zM108,60h1v1h-1zM50,62h1v1h-1z" fill="#e2112d" opacity="0.98"/>
  <path d="M56,0h1v1h-1zM64,11h1v1h-1zM94,24h1v1h-1zM35,27h1v1h-1zM6,40h1v1h-1zM7,49h1v1h-1zM52,49h1v1h-1zM14,67h1v1h-1z" fill="#e2112c" opacity="0.93"/>
  <path d="M57,0h1v1h-1zM113,40h1v1h-1zM12,44h1v1h-1zM9,66h1v1h-1z" fill="#e2112d" opacity="0.83"/>
  <path d="M58,0h1v1h-1z" fill="#e2112b" opacity="0.69"/>
  <path d="M59,0h1v1h-1zM103,7h1v1h-1zM67,18h1v1h-1zM48,23h1v1h-1z" fill="#e1102c" opacity="0.50"/>
  <path d="M60,0h1v1h-1z" fill="#e00f2a" opacity="0.26"/>
  <path d="M1,1h1v1h-1zM104,18h1v1h-1z" fill="#e10c2a" opacity="0.16"/>
  <path d="M2,1h1v1h-1zM3,1h1v1h-1zM4,1h1v1h-1zM5,1h1v1h-1zM6,1h1v1h-1zM7,1h1v1h-1zM8,1h1v1h-1zM22,1h1v1h-1zM23,1h1v1h-1zM24,1h1v1h-1zM25,1h1v1h-1zM26,1h1v1h-1zM27,1h1v1h-1zM120,1h1v1h-1zM121,1h1v1h-1zM122,1h1v1h-1zM123,1h1v1h-1zM124,1h1v1h-1zM125,1h1v1h-1zM126,1h1v1h-1zM127,1h1v1h-1zM128,1h1v1h-1zM129,1h1v1h-1zM130,1h1v1h-1zM131,1h1v1h-1zM132,1h1v1h-1zM133,1h1v1h-1zM134,1h1v1h-1zM135,1h1v1h-1zM136,1h1v1h-1zM137,1h1v1h-1zM138,1h1v1h-1zM139,1h1v1h-1zM140,1h1v1h-1zM40,5h1v1h-1zM151,44h1v1h-1z" fill="#e2112d" opacity="0.69"/>
  <path d="M9,1h1v1h-1z" fill="#db0c24" opacity="0.08"/>
  <path d="M21,1h1v1h-1zM12,60h1v1h-1zM27,62h1v1h-1z" fill="#e1122c" opacity="0.57"/>
  <path d="M28,1h1v1h-1z" fill="#e30f2b" opacity="0.33"/>
  <path d="M46,1h1v1h-1z" fill="#e00f2c" opacity="0.39"/>
  <path d="M47,1h1v1h-1zM64,2h1v1h-1zM108,38h1v1h-1z" fill="#e2112c" opacity="0.76"/>
  <path d="M49,1h1v1h-1zM50,1h1v1h-1zM51,1h1v1h-1zM52,1h1v1h-1zM53,1h1v1h-1zM54,1h1v1h-1zM55,1h1v1h-1zM56,1h1v1h-1zM57,1h1v1h-1zM58,1h1v1h-1zM59,1h1v1h-1zM60,1h1v1h-1zM2,2h1v1h-1zM3,2h1v1h-1zM4,2h1v1h-1zM5,2h1v1h-1zM6,2h1v1h-1zM7,2h1v1h-1zM8,2h1v1h-1zM22,2h1v1h-1zM23,2h1v1h-1zM24,2h1v1h-1zM25,2h1v1h-1zM26,2h1v1h-1zM27,2h1v1h-1zM46,2h1v1h-1zM47,2h1v1h-1zM48,2h1v1h-1zM49,2h1v1h-1zM50,2h1v1h-1zM51,2h1v1h-1zM52,2h1v1h-1zM53,2h1v1h-1zM54,2h1v1h-1zM55,2h1v1h-1zM56,2h1v1h-1zM57,2h1v1h-1zM58,2h1v1h-1zM59,2h1v1h-1zM60,2h1v1h-1zM61,2h1v1h-1zM62,2h1v1h-1zM63,2h1v1h-1zM82,2h1v1h-1zM83,2h1v1h-1zM84,2h1v1h-1zM85,2h1v1h-1zM86,2h1v1h-1zM108,2h1v1h-1zM109,2h1v1h-1zM110,2h1v1h-1zM111,2h1v1h-1zM112,2h1v1h-1zM120,2h1v1h-1zM121,2h1v1h-1zM122,2h1v1h-1zM123,2h1v1h-1zM124,2h1v1h-1zM125,2h1v1h-1zM126,2h1v1h-1zM127,2h1v1h-1zM128,2h1v1h-1zM129,2h1v1h-1zM130,2h1v1h-1zM131,2h1v1h-1zM132,2h1v1h-1zM133,2h1v1h-1zM134,2h1v1h-1zM135,2h1v1h-1zM136,2h1v1h-1zM137,2h1v1h-1zM138,2h1v1h-1zM139,2h1v1h-1zM140,2h1v1h-1zM2,3h1v1h-1zM3,3h1v1h-1zM4,3h1v1h-1zM5,3h1v1h-1zM6,3h1v1h-1zM7,3h1v1h-1zM8,3h1v1h-1zM22,3h1v1h-1zM23,3h1v1h-1zM24,3h1v1h-1zM25,3h1v1h-1zM26,3h1v1h-1zM27,3h1v1h-1zM44,3h1v1h-1zM45,3h1v1h-1zM46,3h1v1h-1zM47,3h1v1h-1zM48,3h1v1h-1zM49,3h1v1h-1zM50,3h1v1h-1zM51,3h1v1h-1zM52,3h1v1h-1zM53,3h1v1h-1zM54,3h1v1h-1zM55,3h1v1h-1zM56,3h1v1h-1zM57,3h1v1h-1zM58,3h1v1h-1zM59,3h1v1h-1zM60,3h1v1h-1zM61,3h1v1h-1zM62,3h1v1h-1zM63,3h1v1h-1zM64,3h1v1h-1zM82,3h1v1h-1zM83,3h1v1h-1zM84,3h1v1h-1zM85,3h1v1h-1zM86,3h1v1h-1zM107,3h1v1h-1zM108,3h1v1h-1zM109,3h1v1h-1zM110,3h1v1h-1zM111,3h1v1h-1zM112,3h1v1h-1zM120,3h1v1h-1zM121,3h1v1h-1zM122,3h1v1h-1zM123,3h1v1h-1zM124,3h1v1h-1zM125,3h1v1h-1zM126,3h1v1h-1zM127,3h1v1h-1zM128,3h1v1h-1zM129,3h1v1h-1zM130,3h1v1h-1zM131,3h1v1h-1zM132,3h1v1h-1zM133,3h1v1h-1zM134,3h1v1h-1zM135,3h1v1h-1zM136,3h1v1h-1zM137,3h1v1h-1zM138,3h1v1h-1zM139,3h1v1h-1zM140,3h1v1h-1zM2,4h1v1h-1zM3,4h1v1h-1zM4,4h1v1h-1zM5,4h1v1h-1zM6,4h1v1h-1zM7,4h1v1h-1zM8,4h1v1h-1zM22,4h1v1h-1zM23,4h1v1h-1zM24,4h1v1h-1zM25,4h1v1h-1zM26,4h1v1h-1zM27,4h1v1h-1zM43,4h1v1h-1zM44,4h1v1h-1zM45,4h1v1h-1zM46,4h1v1h-1zM47,4h1v1h-1zM48,4h1v1h-1zM49,4h1v1h-1zM50,4h1v1h-1zM51,4h1v1h-1zM52,4h1v1h-1zM53,4h1v1h-1zM54,4h1v1h-1zM55,4h1v1h-1zM56,4h1v1h-1zM57,4h1v1h-1zM58,4h1v1h-1zM59,4h1v1h-1zM60,4h1v1h-1zM61,4h1v1h-1zM62,4h1v1h-1zM63,4h1v1h-1zM64,4h1v1h-1zM65,4h1v1h-1zM66,4h1v1h-1zM82,4h1v1h-1zM83,4h1v1h-1zM84,4h1v1h-1zM85,4h1v1h-1zM86,4h1v1h-1zM87,4h1v1h-1zM106,4h1v1h-1zM107,4h1v1h-1zM108,4h1v1h-1zM109,4h1v1h-1zM110,4h1v1h-1zM111,4h1v1h-1zM112,4h1v1h-1zM120,4h1v1h-1zM121,4h1v1h-1zM122,4h1v1h-1zM123,4h1v1h-1zM124,4h1v1h-1zM125,4h1v1h-1zM126,4h1v1h-1zM127,4h1v1h-1zM128,4h1v1h-1zM129,4h1v1h-1zM130,4h1v1h-1zM131,4h1v1h-1zM132,4h1v1h-1zM133,4h1v1h-1zM134,4h1v1h-1zM135,4h1v1h-1zM136,4h1v1h-1zM137,4h1v1h-1zM138,4h1v1h-1zM139,4h1v1h-1zM140,4h1v1h-1zM2,5h1v1h-1zM3,5h1v1h-1zM4,5h1v1h-1zM5,5h1v1h-1zM6,5h1v1h-1zM7,5h1v1h-1zM8,5h1v1h-1zM22,5h1v1h-1zM23,5h1v1h-1zM24,5h1v1h-1zM25,5h1v1h-1zM26,5h1v1h-1zM27,5h1v1h-1zM41,5h1v1h-1zM42,5h1v1h-1zM43,5h1v1h-1zM44,5h1v1h-1zM45,5h1v1h-1zM46,5h1v1h-1zM47,5h1v1h-1zM48,5h1v1h-1zM49,5h1v1h-1zM50,5h1v1h-1zM51,5h1v1h-1zM52,5h1v1h-1zM53,5h1v1h-1zM54,5h1v1h-1zM55,5h1v1h-1zM56,5h1v1h-1zM57,5h1v1h-1zM58,5h1v1h-1zM59,5h1v1h-1zM60,5h1v1h-1zM61,5h1v1h-1zM62,5h1v1h-1zM63,5h1v1h-1zM64,5h1v1h-1zM65,5h1v1h-1zM66,5h1v1h-1zM67,5h1v1h-1zM82,5h1v1h-1zM83,5h1v1h-1zM84,5h1v1h-1zM85,5h1v1h-1zM86,5h1v1h-1zM87,5h1v1h-1zM88,5h1v1h-1zM106,5h1v1h-1zM107,5h1v1h-1zM108,5h1v1h-1zM109,5h1v1h-1zM110,5h1v1h-1zM111,5h1v1h-1zM112,5h1v1h-1zM120,5h1v1h-1zM121,5h1v1h-1zM122,5h1v1h-1zM123,5h1v1h-1zM124,5h1v1h-1zM125,5h1v1h-1zM126,5h1v1h-1zM127,5h1v1h-1zM128,5h1v1h-1zM129,5h1v1h-1zM130,5h1v1h-1zM131,5h1v1h-1zM132,5h1v1h-1zM133,5h1v1h-1zM134,5h1v1h-1zM135,5h1v1h-1zM136,5h1v1h-1zM137,5h1v1h-1zM138,5h1v1h-1zM139,5h1v1h-1zM140,5h1v1h-1zM2,6h1v1h-1zM3,6h1v1h-1zM4,6h1v1h-1zM5,6h1v1h-1zM6,6h1v1h-1zM7,6h1v1h-1zM8,6h1v1h-1zM22,6h1v1h-1zM23,6h1v1h-1zM24,6h1v1h-1zM25,6h1v1h-1zM26,6h1v1h-1zM27,6h1v1h-1zM40,6h1v1h-1zM41,6h1v1h-1zM42,6h1v1h-1zM43,6h1v1h-1zM44,6h1v1h-1zM45,6h1v1h-1zM46,6h1v1h-1zM47,6h1v1h-1zM48,6h1v1h-1zM49,6h1v1h-1zM50,6h1v1h-1zM51,6h1v1h-1zM52,6h1v1h-1zM53,6h1v1h-1zM54,6h1v1h-1zM55,6h1v1h-1zM56,6h1v1h-1zM57,6h1v1h-1zM58,6h1v1h-1zM59,6h1v1h-1zM60,6h1v1h-1zM61,6h1v1h-1zM62,6h1v1h-1zM63,6h1v1h-1zM64,6h1v1h-1zM65,6h1v1h-1zM66,6h1v1h-1zM67,6h1v1h-1zM68,6h1v1h-1zM82,6h1v1h-1zM83,6h1v1h-1zM84,6h1v1h-1zM85,6h1v1h-1zM86,6h1v1h-1zM87,6h1v1h-1zM88,6h1v1h-1zM105,6h1v1h-1zM106,6h1v1h-1zM107,6h1v1h-1zM108,6h1v1h-1zM109,6h1v1h-1zM110,6h1v1h-1zM111,6h1v1h-1zM112,6h1v1h-1zM120,6h1v1h-1zM121,6h1v1h-1zM122,6h1v1h-1zM123,6h1v1h-1zM124,6h1v1h-1zM125,6h1v1h-1zM126,6h1v1h-1zM127,6h1v1h-1zM128,6h1v1h-1zM129,6h1v1h-1zM130,6h1v1h-1zM131,6h1v1h-1zM132,6h1v1h-1zM133,6h1v1h-1zM134,6h1v1h-1zM135,6h1v1h-1zM136,6h1v1h-1zM137,6h1v1h-1zM138,6h1v1h-1zM139,6h1v1h-1zM140,6h1v1h-1zM2,7h1v1h-1zM3,7h1v1h-1zM4,7h1v1h-1zM5,7h1v1h-1zM6,7h1v1h-1zM7,7h1v1h-1zM8,7h1v1h-1zM22,7h1v1h-1zM23,7h1v1h-1zM24,7h1v1h-1zM25,7h1v1h-1zM26,7h1v1h-1zM27,7h1v1h-1zM39,7h1v1h-1zM40,7h1v1h-1zM41,7h1v1h-1zM42,7h1v1h-1zM43,7h1v1h-1zM44,7h1v1h-1zM45,7h1v1h-1zM46,7h1v1h-1zM47,7h1v1h-1zM48,7h1v1h-1zM49,7h1v1h-1zM50,7h1v1h-1zM51,7h1v1h-1zM58,7h1v1h-1zM59,7h1v1h-1zM60,7h1v1h-1zM61,7h1v1h-1zM62,7h1v1h-1zM63,7h1v1h-1zM64,7h1v1h-1zM65,7h1v1h-1zM66,7h1v1h-1zM67,7h1v1h-1zM68,7h1v1h-1zM69,7h1v1h-1zM82,7h1v1h-1zM83,7h1v1h-1zM84,7h1v1h-1zM85,7h1v1h-1zM86,7h1v1h-1zM87,7h1v1h-1zM88,7h1v1h-1zM89,7h1v1h-1zM104,7h1v1h-1zM105,7h1v1h-1zM106,7h1v1h-1zM107,7h1v1h-1zM108,7h1v1h-1zM109,7h1v1h-1zM110,7h1v1h-1zM111,7h1v1h-1zM112,7h1v1h-1zM120,7h1v1h-1zM121,7h1v1h-1zM122,7h1v1h-1zM123,7h1v1h-1zM124,7h1v1h-1zM125,7h1v1h-1zM2,8h1v1h-1zM3,8h1v1h-1zM4,8h1v1h-1zM5,8h1v1h-1zM6,8h1v1h-1zM7,8h1v1h-1zM8,8h1v1h-1zM22,8h1v1h-1zM23,8h1v1h-1zM24,8h1v1h-1zM25,8h1v1h-1zM26,8h1v1h-1zM27,8h1v1h-1zM38,8h1v1h-1zM39,8h1v1h-1zM40,8h1v1h-1zM41,8h1v1h-1zM42,8h1v1h-1zM43,8h1v1h-1zM44,8h1v1h-1zM45,8h1v1h-1zM46,8h1v1h-1zM47,8h1v1h-1zM48,8h1v1h-1zM61,8h1v1h-1zM62,8h1v1h-1zM63,8h1v1h-1zM64,8h1v1h-1zM65,8h1v1h-1zM66,8h1v1h-1zM67,8h1v1h-1zM68,8h1v1h-1zM69,8h1v1h-1zM70,8h1v1h-1zM82,8h1v1h-1zM83,8h1v1h-1zM84,8h1v1h-1zM85,8h1v1h-1zM86,8h1v1h-1zM87,8h1v1h-1zM88,8h1v1h-1zM89,8h1v1h-1zM90,8h1v1h-1zM104,8h1v1h-1zM105,8h1v1h-1zM106,8h1v1h-1zM107,8h1v1h-1zM108,8h1v1h-1zM109,8h1v1h-1zM110,8h1v1h-1zM111,8h1v1h-1zM112,8h1v1h-1zM120,8h1v1h-1zM121,8h1v1h-1zM122,8h1v1h-1zM123,8h1v1h-1zM124,8h1v1h-1zM125,8h1v1h-1zM2,9h1v1h-1zM3,9h1v1h-1zM4,9h1v1h-1zM5,9h1v1h-1zM6,9h1v1h-1zM7,9h1v1h-1zM8,9h1v1h-1zM22,9h1v1h-1zM23,9h1v1h-1zM24,9h1v1h-1zM25,9h1v1h-1zM26,9h1v1h-1zM27,9h1v1h-1zM38,9h1v1h-1zM39,9h1v1h-1zM40,9h1v1h-1zM41,9h1v1h-1zM42,9h1v1h-1zM43,9h1v1h-1zM44,9h1v1h-1zM45,9h1v1h-1zM46,9h1v1h-1zM63,9h1v1h-1zM64,9h1v1h-1zM65,9h1v1h-1zM66,9h1v1h-1zM67,9h1v1h-1zM68,9h1v1h-1zM69,9h1v1h-1zM70,9h1v1h-1zM71,9h1v1h-1zM82,9h1v1h-1zM83,9h1v1h-1zM84,9h1v1h-1zM85,9h1v1h-1zM86,9h1v1h-1zM87,9h1v1h-1zM88,9h1v1h-1zM89,9h1v1h-1zM90,9h1v1h-1zM103,9h1v1h-1zM104,9h1v1h-1zM105,9h1v1h-1zM106,9h1v1h-1zM107,9h1v1h-1zM108,9h1v1h-1zM109,9h1v1h-1zM110,9h1v1h-1zM111,9h1v1h-1zM112,9h1v1h-1zM120,9h1v1h-1zM121,9h1v1h-1zM122,9h1v1h-1zM123,9h1v1h-1zM124,9h1v1h-1zM125,9h1v1h-1zM2,10h1v1h-1zM3,10h1v1h-1zM4,10h1v1h-1zM5,10h1v1h-1zM6,10h1v1h-1zM7,10h1v1h-1zM8,10h1v1h-1zM22,10h1v1h-1zM23,10h1v1h-1zM24,10h1v1h-1zM25,10h1v1h-1zM26,10h1v1h-1zM27,10h1v1h-1zM37,10h1v1h-1zM38,10h1v1h-1zM39,10h1v1h-1zM40,10h1v1h-1zM41,10h1v1h-1zM42,10h1v1h-1zM43,10h1v1h-1zM44,10h1v1h-1zM45,10h1v1h-1zM64,10h1v1h-1zM65,10h1v1h-1zM66,10h1v1h-1zM67,10h1v1h-1zM68,10h1v1h-1zM69,10h1v1h-1zM70,10h1v1h-1zM71,10h1v1h-1zM72,10h1v1h-1zM82,10h1v1h-1zM83,10h1v1h-1zM84,10h1v1h-1zM85,10h1v1h-1zM86,10h1v1h-1zM87,10h1v1h-1zM88,10h1v1h-1zM89,10h1v1h-1zM90,10h1v1h-1zM91,10h1v1h-1zM102,10h1v1h-1zM103,10h1v1h-1zM104,10h1v1h-1zM105,10h1v1h-1zM106,10h1v1h-1zM107,10h1v1h-1zM108,10h1v1h-1zM109,10h1v1h-1zM110,10h1v1h-1zM111,10h1v1h-1zM112,10h1v1h-1zM120,10h1v1h-1zM121,10h1v1h-1zM122,10h1v1h-1zM123,10h1v1h-1zM124,10h1v1h-1zM125,10h1v1h-1zM2,11h1v1h-1zM3,11h1v1h-1zM4,11h1v1h-1zM5,11h1v1h-1zM6,11h1v1h-1zM7,11h1v1h-1zM8,11h1v1h-1zM22,11h1v1h-1zM23,11h1v1h-1zM24,11h1v1h-1zM25,11h1v1h-1zM26,11h1v1h-1zM27,11h1v1h-1zM36,11h1v1h-1zM37,11h1v1h-1zM38,11h1v1h-1zM39,11h1v1h-1zM40,11h1v1h-1zM41,11h1v1h-1zM42,11h1v1h-1zM43,11h1v1h-1zM44,11h1v1h-1zM65,11h1v1h-1zM66,11h1v1h-1zM67,11h1v1h-1zM68,11h1v1h-1zM69,11h1v1h-1zM70,11h1v1h-1zM71,11h1v1h-1zM72,11h1v1h-1zM82,11h1v1h-1zM83,11h1v1h-1zM84,11h1v1h-1zM85,11h1v1h-1zM86,11h1v1h-1zM87,11h1v1h-1zM88,11h1v1h-1zM89,11h1v1h-1zM90,11h1v1h-1zM91,11h1v1h-1zM92,11h1v1h-1zM102,11h1v1h-1zM103,11h1v1h-1zM104,11h1v1h-1zM105,11h1v1h-1zM106,11h1v1h-1zM107,11h1v1h-1zM108,11h1v1h-1zM109,11h1v1h-1zM110,11h1v1h-1zM111,11h1v1h-1zM112,11h1v1h-1zM120,11h1v1h-1zM121,11h1v1h-1zM122,11h1v1h-1zM123,11h1v1h-1zM124,11h1v1h-1zM125,11h1v1h-1zM2,12h1v1h-1zM3,12h1v1h-1zM4,12h1v1h-1zM5,12h1v1h-1zM6,12h1v1h-1zM7,12h1v1h-1zM8,12h1v1h-1zM22,12h1v1h-1zM23,12h1v1h-1zM24,12h1v1h-1zM25,12h1v1h-1zM26,12h1v1h-1zM27,12h1v1h-1zM36,12h1v1h-1zM37,12h1v1h-1zM38,12h1v1h-1zM39,12h1v1h-1zM40,12h1v1h-1zM41,12h1v1h-1zM42,12h1v1h-1zM43,12h1v1h-1zM66,12h1v1h-1zM67,12h1v1h-1zM68,12h1v1h-1zM69,12h1v1h-1zM70,12h1v1h-1zM71,12h1v1h-1zM72,12h1v1h-1zM73,12h1v1h-1zM82,12h1v1h-1zM83,12h1v1h-1zM84,12h1v1h-1zM85,12h1v1h-1zM86,12h1v1h-1zM87,12h1v1h-1zM88,12h1v1h-1zM89,12h1v1h-1zM90,12h1v1h-1zM91,12h1v1h-1zM92,12h1v1h-1zM101,12h1v1h-1zM102,12h1v1h-1zM103,12h1v1h-1zM104,12h1v1h-1zM105,12h1v1h-1zM106,12h1v1h-1zM107,12h1v1h-1zM108,12h1v1h-1zM109,12h1v1h-1zM110,12h1v1h-1zM111,12h1v1h-1zM112,12h1v1h-1zM120,12h1v1h-1zM121,12h1v1h-1zM122,12h1v1h-1zM123,12h1v1h-1zM124,12h1v1h-1zM125,12h1v1h-1zM2,13h1v1h-1zM3,13h1v1h-1zM4,13h1v1h-1zM5,13h1v1h-1zM6,13h1v1h-1zM7,13h1v1h-1zM8,13h1v1h-1zM22,13h1v1h-1zM23,13h1v1h-1zM24,13h1v1h-1zM25,13h1v1h-1zM26,13h1v1h-1zM27,13h1v1h-1zM35,13h1v1h-1zM36,13h1v1h-1zM37,13h1v1h-1zM38,13h1v1h-1zM39,13h1v1h-1zM40,13h1v1h-1zM41,13h1v1h-1zM42,13h1v1h-1zM66,13h1v1h-1zM67,13h1v1h-1zM68,13h1v1h-1zM69,13h1v1h-1zM70,13h1v1h-1zM71,13h1v1h-1zM72,13h1v1h-1zM73,13h1v1h-1zM82,13h1v1h-1zM83,13h1v1h-1zM84,13h1v1h-1zM85,13h1v1h-1zM86,13h1v1h-1zM87,13h1v1h-1zM88,13h1v1h-1zM89,13h1v1h-1zM90,13h1v1h-1zM91,13h1v1h-1zM92,13h1v1h-1zM93,13h1v1h-1zM100,13h1v1h-1zM101,13h1v1h-1zM102,13h1v1h-1zM103,13h1v1h-1zM104,13h1v1h-1zM105,13h1v1h-1zM106,13h1v1h-1zM107,13h1v1h-1zM108,13h1v1h-1zM109,13h1v1h-1zM110,13h1v1h-1zM111,13h1v1h-1zM112,13h1v1h-1zM120,13h1v1h-1zM121,13h1v1h-1zM122,13h1v1h-1zM123,13h1v1h-1zM124,13h1v1h-1zM125,13h1v1h-1zM2,14h1v1h-1zM3,14h1v1h-1zM4,14h1v1h-1zM5,14h1v1h-1zM6,14h1v1h-1zM7,14h1v1h-1zM8,14h1v1h-1zM9,14h1v1h-1zM10,14h1v1h-1zM11,14h1v1h-1zM12,14h1v1h-1zM13,14h1v1h-1zM14,14h1v1h-1zM15,14h1v1h-1zM16,14h1v1h-1zM17,14h1v1h-1zM18,14h1v1h-1zM19,14h1v1h-1zM20,14h1v1h-1zM21,14h1v1h-1zM22,14h1v1h-1zM23,14h1v1h-1zM24,14h1v1h-1zM25,14h1v1h-1zM26,14h1v1h-1zM27,14h1v1h-1zM35,14h1v1h-1zM36,14h1v1h-1zM37,14h1v1h-1zM38,14h1v1h-1zM39,14h1v1h-1zM40,14h1v1h-1zM41,14h1v1h-1zM42,14h1v1h-1zM67,14h1v1h-1zM68,14h1v1h-1zM69,14h1v1h-1zM70,14h1v1h-1zM71,14h1v1h-1zM72,14h1v1h-1zM73,14h1v1h-1zM82,14h1v1h-1zM83,14h1v1h-1zM84,14h1v1h-1zM85,14h1v1h-1zM86,14h1v1h-1zM87,14h1v1h-1zM88,14h1v1h-1zM89,14h1v1h-1zM90,14h1v1h-1zM91,14h1v1h-1zM92,14h1v1h-1zM93,14h1v1h-1zM94,14h1v1h-1zM100,14h1v1h-1zM101,14h1v1h-1zM102,14h1v1h-1zM103,14h1v1h-1zM104,14h1v1h-1zM105,14h1v1h-1zM106,14h1v1h-1zM107,14h1v1h-1zM108,14h1v1h-1zM109,14h1v1h-1zM110,14h1v1h-1zM111,14h1v1h-1zM112,14h1v1h-1zM120,14h1v1h-1zM121,14h1v1h-1zM122,14h1v1h-1zM123,14h1v1h-1zM124,14h1v1h-1zM125,14h1v1h-1zM126,14h1v1h-1zM127,14h1v1h-1zM128,14h1v1h-1zM129,14h1v1h-1zM130,14h1v1h-1zM131,14h1v1h-1zM132,14h1v1h-1zM133,14h1v1h-1zM134,14h1v1h-1zM135,14h1v1h-1zM136,14h1v1h-1zM137,14h1v1h-1zM138,14h1v1h-1zM2,15h1v1h-1zM3,15h1v1h-1zM4,15h1v1h-1zM5,15h1v1h-1zM6,15h1v1h-1zM7,15h1v1h-1zM8,15h1v1h-1zM9,15h1v1h-1zM10,15h1v1h-1zM11,15h1v1h-1zM12,15h1v1h-1zM13,15h1v1h-1zM14,15h1v1h-1zM15,15h1v1h-1zM16,15h1v1h-1zM17,15h1v1h-1zM18,15h1v1h-1zM19,15h1v1h-1zM20,15h1v1h-1zM21,15h1v1h-1zM22,15h1v1h-1zM23,15h1v1h-1zM24,15h1v1h-1zM25,15h1v1h-1zM26,15h1v1h-1zM27,15h1v1h-1zM35,15h1v1h-1zM36,15h1v1h-1zM37,15h1v1h-1zM38,15h1v1h-1zM39,15h1v1h-1zM40,15h1v1h-1zM41,15h1v1h-1zM67,15h1v1h-1zM68,15h1v1h-1zM69,15h1v1h-1zM70,15h1v1h-1zM71,15h1v1h-1zM72,15h1v1h-1zM73,15h1v1h-1zM74,15h1v1h-1zM82,15h1v1h-1zM83,15h1v1h-1zM84,15h1v1h-1zM85,15h1v1h-1zM86,15h1v1h-1zM87,15h1v1h-1zM89,15h1v1h-1zM90,15h1v1h-1zM91,15h1v1h-1zM92,15h1v1h-1zM93,15h1v1h-1zM94,15h1v1h-1zM99,15h1v1h-1zM100,15h1v1h-1zM101,15h1v1h-1zM102,15h1v1h-1zM103,15h1v1h-1zM104,15h1v1h-1zM105,15h1v1h-1zM106,15h1v1h-1zM107,15h1v1h-1zM108,15h1v1h-1zM109,15h1v1h-1zM110,15h1v1h-1zM111,15h1v1h-1zM112,15h1v1h-1zM120,15h1v1h-1zM121,15h1v1h-1zM122,15h1v1h-1zM123,15h1v1h-1zM124,15h1v1h-1zM125,15h1v1h-1zM126,15h1v1h-1zM127,15h1v1h-1zM128,15h1v1h-1zM129,15h1v1h-1zM130,15h1v1h-1zM131,15h1v1h-1zM132,15h1v1h-1zM133,15h1v1h-1zM134,15h1v1h-1zM135,15h1v1h-1zM136,15h1v1h-1zM137,15h1v1h-1zM138,15h1v1h-1zM2,16h1v1h-1zM3,16h1v1h-1zM4,16h1v1h-1zM5,16h1v1h-1zM6,16h1v1h-1zM7,16h1v1h-1zM8,16h1v1h-1zM9,16h1v1h-1zM10,16h1v1h-1zM11,16h1v1h-1zM12,16h1v1h-1zM13,16h1v1h-1zM14,16h1v1h-1zM15,16h1v1h-1zM16,16h1v1h-1zM17,16h1v1h-1zM18,16h1v1h-1zM19,16h1v1h-1zM20,16h1v1h-1zM21,16h1v1h-1zM22,16h1v1h-1zM23,16h1v1h-1zM24,16h1v1h-1zM25,16h1v1h-1zM26,16h1v1h-1zM27,16h1v1h-1zM35,16h1v1h-1zM36,16h1v1h-1zM37,16h1v1h-1zM38,16h1v1h-1zM39,16h1v1h-1zM40,16h1v1h-1zM41,16h1v1h-1zM68,16h1v1h-1zM69,16h1v1h-1zM70,16h1v1h-1zM71,16h1v1h-1zM72,16h1v1h-1zM73,16h1v1h-1zM74,16h1v1h-1zM82,16h1v1h-1zM83,16h1v1h-1zM84,16h1v1h-1zM85,16h1v1h-1zM86,16h1v1h-1zM87,16h1v1h-1zM90,16h1v1h-1zM91,16h1v1h-1zM92,16h1v1h-1zM93,16h1v1h-1zM94,16h1v1h-1zM95,16h1v1h-1zM98,16h1v1h-1zM99,16h1v1h-1zM100,16h1v1h-1zM101,16h1v1h-1zM102,16h1v1h-1zM103,16h1v1h-1zM104,16h1v1h-1zM106,16h1v1h-1zM107,16h1v1h-1zM108,16h1v1h-1zM109,16h1v1h-1zM110,16h1v1h-1zM111,16h1v1h-1zM112,16h1v1h-1zM120,16h1v1h-1zM121,16h1v1h-1zM122,16h1v1h-1zM123,16h1v1h-1zM124,16h1v1h-1zM125,16h1v1h-1zM126,16h1v1h-1zM127,16h1v1h-1zM128,16h1v1h-1zM129,16h1v1h-1zM130,16h1v1h-1zM131,16h1v1h-1zM132,16h1v1h-1zM133,16h1v1h-1zM134,16h1v1h-1zM135,16h1v1h-1zM136,16h1v1h-1zM137,16h1v1h-1zM138,16h1v1h-1zM2,17h1v1h-1zM3,17h1v1h-1zM4,17h1v1h-1zM5,17h1v1h-1zM6,17h1v1h-1zM7,17h1v1h-1zM8,17h1v1h-1zM9,17h1v1h-1zM10,17h1v1h-1zM11,17h1v1h-1zM12,17h1v1h-1zM13,17h1v1h-1zM14,17h1v1h-1zM15,17h1v1h-1zM16,17h1v1h-1zM17,17h1v1h-1zM18,17h1v1h-1zM19,17h1v1h-1zM20,17h1v1h-1zM21,17h1v1h-1zM22,17h1v1h-1zM23,17h1v1h-1zM24,17h1v1h-1zM25,17h1v1h-1zM26,17h1v1h-1zM27,17h1v1h-1zM34,17h1v1h-1zM35,17h1v1h-1zM36,17h1v1h-1zM37,17h1v1h-1zM38,17h1v1h-1zM39,17h1v1h-1zM40,17h1v1h-1zM41,17h1v1h-1zM68,17h1v1h-1zM69,17h1v1h-1zM70,17h1v1h-1zM71,17h1v1h-1zM72,17h1v1h-1zM73,17h1v1h-1zM74,17h1v1h-1zM82,17h1v1h-1zM83,17h1v1h-1zM84,17h1v1h-1zM85,17h1v1h-1zM86,17h1v1h-1zM87,17h1v1h-1zM90,17h1v1h-1zM91,17h1v1h-1zM92,17h1v1h-1zM93,17h1v1h-1zM94,17h1v1h-1zM95,17h1v1h-1zM96,17h1v1h-1zM98,17h1v1h-1zM99,17h1v1h-1zM100,17h1v1h-1zM101,17h1v1h-1zM102,17h1v1h-1zM103,17h1v1h-1zM106,17h1v1h-1zM107,17h1v1h-1zM108,17h1v1h-1zM109,17h1v1h-1zM110,17h1v1h-1zM111,17h1v1h-1zM112,17h1v1h-1zM120,17h1v1h-1zM121,17h1v1h-1zM122,17h1v1h-1zM123,17h1v1h-1zM124,17h1v1h-1zM125,17h1v1h-1zM126,17h1v1h-1zM127,17h1v1h-1zM128,17h1v1h-1zM129,17h1v1h-1zM130,17h1v1h-1zM131,17h1v1h-1zM132,17h1v1h-1zM133,17h1v1h-1zM134,17h1v1h-1zM135,17h1v1h-1zM136,17h1v1h-1zM137,17h1v1h-1zM138,17h1v1h-1zM2,18h1v1h-1zM3,18h1v1h-1zM4,18h1v1h-1zM5,18h1v1h-1zM6,18h1v1h-1zM7,18h1v1h-1zM8,18h1v1h-1zM9,18h1v1h-1zM10,18h1v1h-1zM11,18h1v1h-1zM12,18h1v1h-1zM13,18h1v1h-1zM14,18h1v1h-1zM15,18h1v1h-1zM16,18h1v1h-1zM17,18h1v1h-1zM18,18h1v1h-1zM19,18h1v1h-1zM20,18h1v1h-1zM21,18h1v1h-1zM22,18h1v1h-1zM23,18h1v1h-1zM24,18h1v1h-1zM25,18h1v1h-1zM26,18h1v1h-1zM27,18h1v1h-1zM34,18h1v1h-1zM35,18h1v1h-1zM36,18h1v1h-1zM37,18h1v1h-1zM38,18h1v1h-1zM39,18h1v1h-1zM40,18h1v1h-1zM41,18h1v1h-1zM68,18h1v1h-1zM69,18h1v1h-1zM70,18h1v1h-1zM71,18h1v1h-1zM72,18h1v1h-1zM73,18h1v1h-1zM74,18h1v1h-1zM82,18h1v1h-1zM83,18h1v1h-1zM84,18h1v1h-1zM85,18h1v1h-1zM86,18h1v1h-1zM87,18h1v1h-1zM91,18h1v1h-1zM92,18h1v1h-1zM93,18h1v1h-1zM94,18h1v1h-1zM95,18h1v1h-1zM96,18h1v1h-1zM97,18h1v1h-1zM98,18h1v1h-1zM99,18h1v1h-1zM100,18h1v1h-1zM101,18h1v1h-1zM102,18h1v1h-1zM106,18h1v1h-1zM107,18h1v1h-1zM108,18h1v1h-1zM109,18h1v1h-1zM110,18h1v1h-1zM111,18h1v1h-1zM112,18h1v1h-1zM120,18h1v1h-1zM121,18h1v1h-1zM122,18h1v1h-1zM123,18h1v1h-1zM124,18h1v1h-1zM125,18h1v1h-1zM126,18h1v1h-1zM127,18h1v1h-1zM128,18h1v1h-1zM129,18h1v1h-1zM130,18h1v1h-1zM131,18h1v1h-1zM132,18h1v1h-1zM133,18h1v1h-1zM134,18h1v1h-1zM135,18h1v1h-1zM136,18h1v1h-1zM137,18h1v1h-1zM138,18h1v1h-1zM2,19h1v1h-1zM3,19h1v1h-1zM4,19h1v1h-1zM5,19h1v1h-1zM6,19h1v1h-1zM7,19h1v1h-1zM8,19h1v1h-1zM22,19h1v1h-1zM23,19h1v1h-1zM24,19h1v1h-1zM25,19h1v1h-1zM26,19h1v1h-1zM27,19h1v1h-1zM34,19h1v1h-1zM35,19h1v1h-1zM36,19h1v1h-1zM37,19h1v1h-1zM38,19h1v1h-1zM39,19h1v1h-1zM40,19h1v1h-1zM68,19h1v1h-1zM69,19h1v1h-1zM70,19h1v1h-1zM71,19h1v1h-1zM72,19h1v1h-1zM73,19h1v1h-1zM74,19h1v1h-1zM82,19h1v1h-1zM83,19h1v1h-1zM84,19h1v1h-1zM85,19h1v1h-1zM86,19h1v1h-1zM87,19h1v1h-1zM92,19h1v1h-1zM93,19h1v1h-1zM94,19h1v1h-1zM95,19h1v1h-1zM96,19h1v1h-1zM97,19h1v1h-1zM98,19h1v1h-1zM99,19h1v1h-1zM100,19h1v1h-1zM101,19h1v1h-1zM102,19h1v1h-1zM106,19h1v1h-1zM107,19h1v1h-1zM108,19h1v1h-1zM109,19h1v1h-1zM110,19h1v1h-1zM111,19h1v1h-1zM112,19h1v1h-1zM120,19h1v1h-1zM121,19h1v1h-1zM122,19h1v1h-1zM123,19h1v1h-1zM124,19h1v1h-1zM125,19h1v1h-1zM2,20h1v1h-1zM3,20h1v1h-1zM4,20h1v1h-1zM5,20h1v1h-1zM6,20h1v1h-1zM7,20h1v1h-1zM8,20h1v1h-1zM22,20h1v1h-1zM23,20h1v1h-1zM24,20h1v1h-1zM25,20h1v1h-1zM26,20h1v1h-1zM27,20h1v1h-1zM34,20h1v1h-1zM35,20h1v1h-1zM36,20h1v1h-1zM37,20h1v1h-1zM38,20h1v1h-1zM39,20h1v1h-1zM40,20h1v1h-1zM68,20h1v1h-1zM69,20h1v1h-1zM70,20h1v1h-1zM71,20h1v1h-1zM72,20h1v1h-1zM73,20h1v1h-1zM74,20h1v1h-1zM82,20h1v1h-1zM83,20h1v1h-1zM84,20h1v1h-1zM85,20h1v1h-1zM86,20h1v1h-1zM87,20h1v1h-1zM92,20h1v1h-1zM93,20h1v1h-1zM94,20h1v1h-1zM95,20h1v1h-1zM96,20h1v1h-1zM97,20h1v1h-1zM98,20h1v1h-1zM99,20h1v1h-1zM100,20h1v1h-1zM101,20h1v1h-1zM106,20h1v1h-1zM107,20h1v1h-1zM108,20h1v1h-1zM109,20h1v1h-1zM110,20h1v1h-1zM111,20h1v1h-1zM112,20h1v1h-1zM120,20h1v1h-1zM121,20h1v1h-1zM122,20h1v1h-1zM123,20h1v1h-1zM124,20h1v1h-1zM125,20h1v1h-1zM2,21h1v1h-1zM3,21h1v1h-1zM4,21h1v1h-1zM5,21h1v1h-1zM6,21h1v1h-1zM7,21h1v1h-1zM8,21h1v1h-1zM22,21h1v1h-1zM23,21h1v1h-1zM24,21h1v1h-1zM25,21h1v1h-1zM26,21h1v1h-1zM27,21h1v1h-1zM34,21h1v1h-1zM35,21h1v1h-1zM36,21h1v1h-1zM37,21h1v1h-1zM38,21h1v1h-1zM39,21h1v1h-1zM40,21h1v1h-1zM68,21h1v1h-1zM69,21h1v1h-1zM70,21h1v1h-1zM71,21h1v1h-1zM72,21h1v1h-1zM73,21h1v1h-1zM74,21h1v1h-1zM82,21h1v1h-1zM83,21h1v1h-1zM84,21h1v1h-1zM85,21h1v1h-1zM86,21h1v1h-1zM87,21h1v1h-1zM93,21h1v1h-1zM94,21h1v1h-1zM95,21h1v1h-1zM96,21h1v1h-1zM97,21h1v1h-1zM98,21h1v1h-1zM99,21h1v1h-1zM100,21h1v1h-1zM106,21h1v1h-1zM107,21h1v1h-1zM108,21h1v1h-1zM109,21h1v1h-1zM110,21h1v1h-1zM111,21h1v1h-1zM112,21h1v1h-1zM120,21h1v1h-1zM121,21h1v1h-1zM122,21h1v1h-1zM123,21h1v1h-1zM124,21h1v1h-1zM125,21h1v1h-1zM2,22h1v1h-1zM3,22h1v1h-1zM4,22h1v1h-1zM5,22h1v1h-1zM6,22h1v1h-1zM7,22h1v1h-1zM8,22h1v1h-1zM22,22h1v1h-1zM23,22h1v1h-1zM24,22h1v1h-1zM25,22h1v1h-1zM26,22h1v1h-1zM27,22h1v1h-1zM34,22h1v1h-1zM35,22h1v1h-1zM36,22h1v1h-1zM37,22h1v1h-1zM38,22h1v1h-1zM39,22h1v1h-1zM40,22h1v1h-1zM68,22h1v1h-1zM69,22h1v1h-1zM70,22h1v1h-1zM71,22h1v1h-1zM72,22h1v1h-1zM73,22h1v1h-1zM74,22h1v1h-1zM82,22h1v1h-1zM83,22h1v1h-1zM84,22h1v1h-1zM85,22h1v1h-1zM86,22h1v1h-1zM87,22h1v1h-1zM93,22h1v1h-1zM94,22h1v1h-1zM95,22h1v1h-1zM96,22h1v1h-1zM97,22h1v1h-1zM98,22h1v1h-1zM99,22h1v1h-1zM100,22h1v1h-1zM106,22h1v1h-1zM107,22h1v1h-1zM108,22h1v1h-1zM109,22h1v1h-1zM110,22h1v1h-1zM111,22h1v1h-1zM112,22h1v1h-1zM120,22h1v1h-1zM121,22h1v1h-1zM122,22h1v1h-1zM123,22h1v1h-1zM124,22h1v1h-1zM125,22h1v1h-1zM2,23h1v1h-1zM3,23h1v1h-1zM4,23h1v1h-1zM5,23h1v1h-1zM6,23h1v1h-1zM7,23h1v1h-1zM8,23h1v1h-1zM22,23h1v1h-1zM23,23h1v1h-1zM24,23h1v1h-1zM25,23h1v1h-1zM26,23h1v1h-1zM27,23h1v1h-1zM34,23h1v1h-1zM35,23h1v1h-1zM36,23h1v1h-1zM37,23h1v1h-1zM38,23h1v1h-1zM39,23h1v1h-1zM40,23h1v1h-1zM41,23h1v1h-1zM68,23h1v1h-1zM69,23h1v1h-1zM70,23h1v1h-1zM71,23h1v1h-1zM72,23h1v1h-1zM73,23h1v1h-1zM74,23h1v1h-1zM82,23h1v1h-1zM83,23h1v1h-1zM84,23h1v1h-1zM85,23h1v1h-1zM86,23h1v1h-1zM87,23h1v1h-1zM94,23h1v1h-1zM95,23h1v1h-1zM96,23h1v1h-1zM97,23h1v1h-1zM98,23h1v1h-1zM99,23h1v1h-1zM106,23h1v1h-1zM107,23h1v1h-1zM108,23h1v1h-1zM109,23h1v1h-1zM110,23h1v1h-1zM111,23h1v1h-1zM112,23h1v1h-1zM120,23h1v1h-1zM121,23h1v1h-1zM122,23h1v1h-1zM123,23h1v1h-1zM124,23h1v1h-1zM125,23h1v1h-1zM2,24h1v1h-1zM3,24h1v1h-1zM4,24h1v1h-1zM5,24h1v1h-1zM6,24h1v1h-1zM7,24h1v1h-1zM8,24h1v1h-1zM22,24h1v1h-1zM23,24h1v1h-1zM24,24h1v1h-1zM25,24h1v1h-1zM26,24h1v1h-1zM27,24h1v1h-1zM35,24h1v1h-1zM36,24h1v1h-1zM37,24h1v1h-1zM38,24h1v1h-1zM39,24h1v1h-1zM40,24h1v1h-1zM41,24h1v1h-1zM49,24h1v1h-1zM50,24h1v1h-1zM51,24h1v1h-1zM52,24h1v1h-1zM53,24h1v1h-1zM54,24h1v1h-1zM55,24h1v1h-1zM56,24h1v1h-1zM57,24h1v1h-1zM58,24h1v1h-1zM59,24h1v1h-1zM60,24h1v1h-1zM68,24h1v1h-1zM69,24h1v1h-1zM70,24h1v1h-1zM71,24h1v1h-1zM72,24h1v1h-1zM73,24h1v1h-1zM74,24h1v1h-1zM82,24h1v1h-1zM83,24h1v1h-1zM84,24h1v1h-1zM85,24h1v1h-1zM86,24h1v1h-1zM87,24h1v1h-1zM95,24h1v1h-1zM96,24h1v1h-1zM97,24h1v1h-1zM98,24h1v1h-1zM106,24h1v1h-1zM107,24h1v1h-1zM108,24h1v1h-1zM109,24h1v1h-1zM110,24h1v1h-1zM111,24h1v1h-1zM112,24h1v1h-1zM120,24h1v1h-1zM121,24h1v1h-1zM122,24h1v1h-1zM123,24h1v1h-1zM124,24h1v1h-1zM125,24h1v1h-1zM2,25h1v1h-1zM3,25h1v1h-1zM4,25h1v1h-1zM5,25h1v1h-1zM6,25h1v1h-1zM7,25h1v1h-1zM8,25h1v1h-1zM22,25h1v1h-1zM23,25h1v1h-1zM24,25h1v1h-1zM25,25h1v1h-1zM26,25h1v1h-1zM27,25h1v1h-1zM35,25h1v1h-1zM36,25h1v1h-1zM37,25h1v1h-1zM38,25h1v1h-1zM39,25h1v1h-1zM40,25h1v1h-1zM41,25h1v1h-1zM50,25h1v1h-1zM51,25h1v1h-1zM52,25h1v1h-1zM53,25h1v1h-1zM54,25h1v1h-1zM55,25h1v1h-1zM56,25h1v1h-1zM57,25h1v1h-1zM58,25h1v1h-1zM59,25h1v1h-1zM67,25h1v1h-1zM68,25h1v1h-1zM69,25h1v1h-1zM70,25h1v1h-1zM71,25h1v1h-1zM72,25h1v1h-1zM73,25h1v1h-1zM74,25h1v1h-1zM82,25h1v1h-1zM83,25h1v1h-1zM84,25h1v1h-1zM85,25h1v1h-1zM86,25h1v1h-1zM87,25h1v1h-1zM95,25h1v1h-1zM96,25h1v1h-1zM97,25h1v1h-1zM98,25h1v1h-1zM106,25h1v1h-1zM107,25h1v1h-1zM108,25h1v1h-1zM109,25h1v1h-1zM110,25h1v1h-1zM111,25h1v1h-1zM112,25h1v1h-1zM120,25h1v1h-1zM121,25h1v1h-1zM122,25h1v1h-1zM123,25h1v1h-1zM124,25h1v1h-1zM125,25h1v1h-1zM126,25h1v1h-1zM127,25h1v1h-1zM128,25h1v1h-1zM129,25h1v1h-1zM130,25h1v1h-1zM131,25h1v1h-1zM132,25h1v1h-1zM133,25h1v1h-1zM134,25h1v1h-1zM135,25h1v1h-1zM136,25h1v1h-1zM137,25h1v1h-1zM138,25h1v1h-1zM139,25h1v1h-1zM140,25h1v1h-1zM2,26h1v1h-1zM3,26h1v1h-1zM4,26h1v1h-1zM5,26h1v1h-1zM6,26h1v1h-1zM7,26h1v1h-1zM8,26h1v1h-1zM22,26h1v1h-1zM23,26h1v1h-1zM24,26h1v1h-1zM25,26h1v1h-1zM26,26h1v1h-1zM27,26h1v1h-1zM35,26h1v1h-1zM36,26h1v1h-1zM37,26h1v1h-1zM38,26h1v1h-1zM39,26h1v1h-1zM40,26h1v1h-1zM41,26h1v1h-1zM42,26h1v1h-1zM51,26h1v1h-1zM52,26h1v1h-1zM53,26h1v1h-1zM54,26h1v1h-1zM55,26h1v1h-1zM56,26h1v1h-1zM57,26h1v1h-1zM58,26h1v1h-1zM67,26h1v1h-1zM68,26h1v1h-1zM69,26h1v1h-1zM70,26h1v1h-1zM71,26h1v1h-1zM72,26h1v1h-1zM73,26h1v1h-1zM82,26h1v1h-1zM83,26h1v1h-1zM84,26h1v1h-1zM85,26h1v1h-1zM86,26h1v1h-1zM87,26h1v1h-1zM106,26h1v1h-1zM107,26h1v1h-1zM108,26h1v1h-1zM109,26h1v1h-1zM110,26h1v1h-1zM111,26h1v1h-1zM112,26h1v1h-1zM120,26h1v1h-1zM121,26h1v1h-1zM122,26h1v1h-1zM123,26h1v1h-1zM124,26h1v1h-1zM125,26h1v1h-1zM126,26h1v1h-1zM127,26h1v1h-1zM128,26h1v1h-1zM129,26h1v1h-1zM130,26h1v1h-1zM131,26h1v1h-1zM132,26h1v1h-1zM133,26h1v1h-1zM134,26h1v1h-1zM135,26h1v1h-1zM136,26h1v1h-1zM137,26h1v1h-1zM138,26h1v1h-1zM139,26h1v1h-1zM140,26h1v1h-1zM2,27h1v1h-1zM3,27h1v1h-1zM4,27h1v1h-1zM5,27h1v1h-1zM6,27h1v1h-1zM7,27h1v1h-1zM8,27h1v1h-1zM22,27h1v1h-1zM23,27h1v1h-1zM24,27h1v1h-1zM25,27h1v1h-1zM26,27h1v1h-1zM27,27h1v1h-1zM36,27h1v1h-1zM37,27h1v1h-1zM38,27h1v1h-1zM39,27h1v1h-1zM40,27h1v1h-1zM41,27h1v1h-1zM42,27h1v1h-1zM52,27h1v1h-1zM53,27h1v1h-1zM54,27h1v1h-1zM55,27h1v1h-1zM56,27h1v1h-1zM66,27h1v1h-1zM67,27h1v1h-1zM68,27h1v1h-1zM69,27h1v1h-1zM70,27h1v1h-1zM71,27h1v1h-1zM72,27h1v1h-1zM73,27h1v1h-1zM82,27h1v1h-1zM83,27h1v1h-1zM84,27h1v1h-1zM85,27h1v1h-1zM86,27h1v1h-1zM87,27h1v1h-1zM106,27h1v1h-1zM107,27h1v1h-1zM108,27h1v1h-1zM109,27h1v1h-1zM110,27h1v1h-1zM111,27h1v1h-1zM112,27h1v1h-1zM120,27h1v1h-1zM121,27h1v1h-1zM122,27h1v1h-1zM123,27h1v1h-1zM124,27h1v1h-1zM125,27h1v1h-1zM126,27h1v1h-1zM127,27h1v1h-1zM128,27h1v1h-1zM129,27h1v1h-1zM130,27h1v1h-1zM131,27h1v1h-1zM132,27h1v1h-1zM133,27h1v1h-1zM134,27h1v1h-1zM135,27h1v1h-1zM136,27h1v1h-1zM137,27h1v1h-1zM138,27h1v1h-1zM139,27h1v1h-1zM140,27h1v1h-1zM2,28h1v1h-1zM3,28h1v1h-1zM4,28h1v1h-1zM5,28h1v1h-1zM6,28h1v1h-1zM7,28h1v1h-1zM8,28h1v1h-1zM22,28h1v1h-1zM23,28h1v1h-1zM24,28h1v1h-1zM25,28h1v1h-1zM26,28h1v1h-1zM27,28h1v1h-1zM36,28h1v1h-1zM37,28h1v1h-1zM38,28h1v1h-1zM39,28h1v1h-1zM40,28h1v1h-1zM41,28h1v1h-1zM42,28h1v1h-1zM43,28h1v1h-1zM66,28h1v1h-1zM67,28h1v1h-1zM68,28h1v1h-1zM69,28h1v1h-1zM70,28h1v1h-1zM71,28h1v1h-1zM72,28h1v1h-1zM82,28h1v1h-1zM83,28h1v1h-1zM84,28h1v1h-1zM85,28h1v1h-1zM86,28h1v1h-1zM87,28h1v1h-1zM106,28h1v1h-1zM107,28h1v1h-1zM108,28h1v1h-1zM109,28h1v1h-1zM110,28h1v1h-1zM111,28h1v1h-1zM112,28h1v1h-1zM120,28h1v1h-1zM121,28h1v1h-1zM122,28h1v1h-1zM123,28h1v1h-1zM124,28h1v1h-1zM125,28h1v1h-1zM126,28h1v1h-1zM127,28h1v1h-1zM128,28h1v1h-1zM129,28h1v1h-1zM130,28h1v1h-1zM131,28h1v1h-1zM132,28h1v1h-1zM133,28h1v1h-1zM134,28h1v1h-1zM135,28h1v1h-1zM136,28h1v1h-1zM137,28h1v1h-1zM138,28h1v1h-1zM139,28h1v1h-1zM140,28h1v1h-1zM2,29h1v1h-1zM3,29h1v1h-1zM4,29h1v1h-1zM5,29h1v1h-1zM6,29h1v1h-1zM7,29h1v1h-1zM8,29h1v1h-1zM22,29h1v1h-1zM23,29h1v1h-1zM24,29h1v1h-1zM25,29h1v1h-1zM26,29h1v1h-1zM27,29h1v1h-1zM37,29h1v1h-1zM38,29h1v1h-1zM39,29h1v1h-1zM40,29h1v1h-1zM41,29h1v1h-1zM42,29h1v1h-1zM43,29h1v1h-1zM44,29h1v1h-1zM65,29h1v1h-1zM66,29h1v1h-1zM67,29h1v1h-1zM68,29h1v1h-1zM69,29h1v1h-1zM70,29h1v1h-1zM71,29h1v1h-1zM72,29h1v1h-1zM82,29h1v1h-1zM83,29h1v1h-1zM84,29h1v1h-1zM85,29h1v1h-1zM86,29h1v1h-1zM87,29h1v1h-1zM106,29h1v1h-1zM107,29h1v1h-1zM108,29h1v1h-1zM109,29h1v1h-1zM110,29h1v1h-1zM111,29h1v1h-1zM112,29h1v1h-1zM120,29h1v1h-1zM121,29h1v1h-1zM122,29h1v1h-1zM123,29h1v1h-1zM124,29h1v1h-1zM125,29h1v1h-1zM126,29h1v1h-1zM127,29h1v1h-1zM128,29h1v1h-1zM129,29h1v1h-1zM130,29h1v1h-1zM131,29h1v1h-1zM132,29h1v1h-1zM133,29h1v1h-1zM134,29h1v1h-1zM135,29h1v1h-1zM136,29h1v1h-1zM137,29h1v1h-1zM138,29h1v1h-1zM139,29h1v1h-1zM140,29h1v1h-1zM11,38h1v1h-1zM12,38h1v1h-1zM13,38h1v1h-1zM14,38h1v1h-1zM15,38h1v1h-1zM16,38h1v1h-1zM17,38h1v1h-1zM18,38h1v1h-1zM19,38h1v1h-1zM35,38h1v1h-1zM36,38h1v1h-1zM37,38h1v1h-1zM38,38h1v1h-1zM39,38h1v1h-1zM40,38h1v1h-1zM41,38h1v1h-1zM42,38h1v1h-1zM43,38h1v1h-1zM44,38h1v1h-1zM45,38h1v1h-1zM46,38h1v1h-1zM47,38h1v1h-1zM48,38h1v1h-1zM49,38h1v1h-1zM66,38h1v1h-1zM67,38h1v1h-1zM68,38h1v1h-1zM69,38h1v1h-1zM70,38h1v1h-1zM71,38h1v1h-1zM72,38h1v1h-1zM73,38h1v1h-1zM74,38h1v1h-1zM75,38h1v1h-1zM76,38h1v1h-1zM77,38h1v1h-1zM78,38h1v1h-1zM79,38h1v1h-1zM80,38h1v1h-1zM81,38h1v1h-1zM82,38h1v1h-1zM83,38h1v1h-1zM84,38h1v1h-1zM85,38h1v1h-1zM86,38h1v1h-1zM93,38h1v1h-1zM94,38h1v1h-1zM95,38h1v1h-1zM96,38h1v1h-1zM97,38h1v1h-1zM98,38h1v1h-1zM99,38h1v1h-1zM100,38h1v1h-1zM101,38h1v1h-1zM102,38h1v1h-1zM103,38h1v1h-1zM104,38h1v1h-1zM105,38h1v1h-1zM106,38h1v1h-1zM125,38h1v1h-1zM126,38h1v1h-1zM127,38h1v1h-1zM128,38h1v1h-1zM129,38h1v1h-1zM130,38h1v1h-1zM136,38h1v1h-1zM137,38h1v1h-1zM138,38h1v1h-1zM139,38h1v1h-1zM140,38h1v1h-1zM141,38h1v1h-1zM142,38h1v1h-1zM143,38h1v1h-1zM144,38h1v1h-1zM145,38h1v1h-1zM146,38h1v1h-1zM147,38h1v1h-1zM148,38h1v1h-1zM149,38h1v1h-1zM150,38h1v1h-1zM151,38h1v1h-1zM152,38h1v1h-1zM153,38h1v1h-1zM154,38h1v1h-1zM155,38h1v1h-1zM156,38h1v1h-1zM157,38h1v1h-1zM158,38h1v1h-1zM9,39h1v1h-1zM10,39h1v1h-1zM11,39h1v1h-1zM12,39h1v1h-1zM13,39h1v1h-1zM14,39h1v1h-1zM15,39h1v1h-1zM16,39h1v1h-1zM17,39h1v1h-1zM18,39h1v1h-1zM19,39h1v1h-1zM20,39h1v1h-1zM21,39h1v1h-1zM22,39h1v1h-1zM35,39h1v1h-1zM36,39h1v1h-1zM37,39h1v1h-1zM38,39h1v1h-1zM39,39h1v1h-1zM40,39h1v1h-1zM41,39h1v1h-1zM42,39h1v1h-1zM43,39h1v1h-1zM44,39h1v1h-1zM45,39h1v1h-1zM46,39h1v1h-1zM47,39h1v1h-1zM48,39h1v1h-1zM49,39h1v1h-1zM50,39h1v1h-1zM51,39h1v1h-1zM52,39h1v1h-1zM66,39h1v1h-1zM67,39h1v1h-1zM68,39h1v1h-1zM69,39h1v1h-1zM70,39h1v1h-1zM71,39h1v1h-1zM72,39h1v1h-1zM73,39h1v1h-1zM74,39h1v1h-1zM75,39h1v1h-1zM76,39h1v1h-1zM77,39h1v1h-1zM78,39h1v1h-1zM79,39h1v1h-1zM80,39h1v1h-1zM81,39h1v1h-1zM82,39h1v1h-1zM83,39h1v1h-1zM84,39h1v1h-1zM85,39h1v1h-1zM86,39h1v1h-1zM93,39h1v1h-1zM94,39h1v1h-1zM95,39h1v1h-1zM96,39h1v1h-1zM97,39h1v1h-1zM98,39h1v1h-1zM99,39h1v1h-1zM100,39h1v1h-1zM101,39h1v1h-1zM102,39h1v1h-1zM103,39h1v1h-1zM104,39h1v1h-1zM105,39h1v1h-1zM106,39h1v1h-1zM107,39h1v1h-1zM108,39h1v1h-1zM109,39h1v1h-1zM110,39h1v1h-1zM125,39h1v1h-1zM126,39h1v1h-1zM127,39h1v1h-1zM128,39h1v1h-1zM129,39h1v1h-1zM130,39h1v1h-1zM136,39h1v1h-1zM137,39h1v1h-1zM138,39h1v1h-1zM139,39h1v1h-1zM140,39h1v1h-1zM141,39h1v1h-1zM142,39h1v1h-1zM143,39h1v1h-1zM144,39h1v1h-1zM145,39h1v1h-1zM146,39h1v1h-1zM147,39h1v1h-1zM148,39h1v1h-1zM149,39h1v1h-1zM150,39h1v1h-1zM151,39h1v1h-1zM152,39h1v1h-1zM153,39h1v1h-1zM154,39h1v1h-1zM155,39h1v1h-1zM156,39h1v1h-1zM157,39h1v1h-1zM158,39h1v1h-1zM7,40h1v1h-1zM8,40h1v1h-1zM9,40h1v1h-1zM10,40h1v1h-1zM11,40h1v1h-1zM12,40h1v1h-1zM13,40h1v1h-1zM14,40h1v1h-1zM15,40h1v1h-1zM16,40h1v1h-1zM17,40h1v1h-1zM18,40h1v1h-1zM19,40h1v1h-1zM20,40h1v1h-1zM21,40h1v1h-1zM22,40h1v1h-1zM23,40h1v1h-1zM35,40h1v1h-1zM36,40h1v1h-1zM37,40h1v1h-1zM38,40h1v1h-1zM39,40h1v1h-1zM40,40h1v1h-1zM41,40h1v1h-1zM42,40h1v1h-1zM43,40h1v1h-1zM44,40h1v1h-1zM45,40h1v1h-1zM46,40h1v1h-1zM47,40h1v1h-1zM48,40h1v1h-1zM49,40h1v1h-1zM50,40h1v1h-1zM51,40h1v1h-1zM52,40h1v1h-1zM53,40h1v1h-1zM54,40h1v1h-1zM66,40h1v1h-1zM67,40h1v1h-1zM68,40h1v1h-1zM69,40h1v1h-1zM70,40h1v1h-1zM71,40h1v1h-1zM72,40h1v1h-1zM73,40h1v1h-1zM74,40h1v1h-1zM75,40h1v1h-1zM76,40h1v1h-1zM77,40h1v1h-1zM78,40h1v1h-1zM79,40h1v1h-1zM80,40h1v1h-1zM81,40h1v1h-1zM82,40h1v1h-1zM83,40h1v1h-1zM84,40h1v1h-1zM85,40h1v1h-1zM86,40h1v1h-1zM93,40h1v1h-1zM94,40h1v1h-1zM95,40h1v1h-1zM96,40h1v1h-1zM97,40h1v1h-1zM98,40h1v1h-1zM99,40h1v1h-1zM100,40h1v1h-1zM101,40h1v1h-1zM102,40h1v1h-1zM103,40h1v1h-1zM104,40h1v1h-1zM105,40h1v1h-1zM106,40h1v1h-1zM107,40h1v1h-1zM108,40h1v1h-1zM109,40h1v1h-1zM110,40h1v1h-1zM111,40h1v1h-1zM112,40h1v1h-1zM125,40h1v1h-1zM126,40h1v1h-1zM127,40h1v1h-1zM128,40h1v1h-1zM129,40h1v1h-1zM130,40h1v1h-1zM136,40h1v1h-1zM137,40h1v1h-1zM138,40h1v1h-1zM139,40h1v1h-1zM140,40h1v1h-1zM141,40h1v1h-1zM142,40h1v1h-1zM143,40h1v1h-1zM144,40h1v1h-1zM145,40h1v1h-1zM146,40h1v1h-1zM147,40h1v1h-1zM148,40h1v1h-1zM149,40h1v1h-1zM150,40h1v1h-1zM151,40h1v1h-1zM152,40h1v1h-1zM153,40h1v1h-1zM154,40h1v1h-1zM155,40h1v1h-1zM156,40h1v1h-1zM157,40h1v1h-1zM158,40h1v1h-1zM6,41h1v1h-1zM7,41h1v1h-1zM8,41h1v1h-1zM9,41h1v1h-1zM10,41h1v1h-1zM11,41h1v1h-1zM12,41h1v1h-1zM13,41h1v1h-1zM14,41h1v1h-1zM15,41h1v1h-1zM16,41h1v1h-1zM17,41h1v1h-1zM18,41h1v1h-1zM19,41h1v1h-1zM20,41h1v1h-1zM21,41h1v1h-1zM22,41h1v1h-1zM23,41h1v1h-1zM24,41h1v1h-1zM35,41h1v1h-1zM36,41h1v1h-1zM37,41h1v1h-1zM38,41h1v1h-1zM39,41h1v1h-1zM40,41h1v1h-1zM41,41h1v1h-1zM42,41h1v1h-1zM43,41h1v1h-1zM44,41h1v1h-1zM45,41h1v1h-1zM46,41h1v1h-1zM47,41h1v1h-1zM48,41h1v1h-1zM49,41h1v1h-1zM50,41h1v1h-1zM51,41h1v1h-1zM52,41h1v1h-1zM53,41h1v1h-1zM54,41h1v1h-1zM55,41h1v1h-1zM66,41h1v1h-1zM67,41h1v1h-1zM68,41h1v1h-1zM69,41h1v1h-1zM70,41h1v1h-1zM71,41h1v1h-1zM72,41h1v1h-1zM73,41h1v1h-1zM74,41h1v1h-1zM75,41h1v1h-1zM76,41h1v1h-1zM77,41h1v1h-1zM78,41h1v1h-1zM79,41h1v1h-1zM80,41h1v1h-1zM81,41h1v1h-1zM82,41h1v1h-1zM83,41h1v1h-1zM84,41h1v1h-1zM85,41h1v1h-1zM86,41h1v1h-1zM93,41h1v1h-1zM94,41h1v1h-1zM95,41h1v1h-1zM96,41h1v1h-1zM97,41h1v1h-1zM98,41h1v1h-1zM99,41h1v1h-1zM100,41h1v1h-1zM101,41h1v1h-1zM102,41h1v1h-1zM103,41h1v1h-1zM104,41h1v1h-1zM105,41h1v1h-1zM106,41h1v1h-1zM107,41h1v1h-1zM108,41h1v1h-1zM109,41h1v1h-1zM110,41h1v1h-1zM111,41h1v1h-1zM112,41h1v1h-1zM113,41h1v1h-1zM125,41h1v1h-1zM126,41h1v1h-1zM127,41h1v1h-1zM128,41h1v1h-1zM129,41h1v1h-1zM130,41h1v1h-1zM136,41h1v1h-1zM137,41h1v1h-1zM138,41h1v1h-1zM139,41h1v1h-1zM140,41h1v1h-1zM141,41h1v1h-1zM142,41h1v1h-1zM143,41h1v1h-1zM144,41h1v1h-1zM145,41h1v1h-1zM146,41h1v1h-1zM147,41h1v1h-1zM148,41h1v1h-1zM149,41h1v1h-1zM150,41h1v1h-1zM151,41h1v1h-1zM152,41h1v1h-1zM153,41h1v1h-1zM154,41h1v1h-1zM155,41h1v1h-1zM156,41h1v1h-1zM157,41h1v1h-1zM158,41h1v1h-1zM5,42h1v1h-1zM6,42h1v1h-1zM7,42h1v1h-1zM8,42h1v1h-1zM9,42h1v1h-1zM10,42h1v1h-1zM11,42h1v1h-1zM12,42h1v1h-1zM13,42h1v1h-1zM14,42h1v1h-1zM15,42h1v1h-1zM16,42h1v1h-1zM17,42h1v1h-1zM18,42h1v1h-1zM19,42h1v1h-1zM20,42h1v1h-1zM21,42h1v1h-1zM22,42h1v1h-1zM23,42h1v1h-1zM24,42h1v1h-1zM25,42h1v1h-1zM35,42h1v1h-1zM36,42h1v1h-1zM37,42h1v1h-1zM38,42h1v1h-1zM39,42h1v1h-1zM40,42h1v1h-1zM41,42h1v1h-1zM42,42h1v1h-1zM43,42h1v1h-1zM44,42h1v1h-1zM45,42h1v1h-1zM46,42h1v1h-1zM47,42h1v1h-1zM48,42h1v1h-1zM49,42h1v1h-1zM50,42h1v1h-1zM51,42h1v1h-1zM52,42h1v1h-1zM53,42h1v1h-1zM54,42h1v1h-1zM55,42h1v1h-1zM56,42h1v1h-1zM66,42h1v1h-1zM67,42h1v1h-1zM68,42h1v1h-1zM69,42h1v1h-1zM70,42h1v1h-1zM71,42h1v1h-1zM72,42h1v1h-1zM73,42h1v1h-1zM74,42h1v1h-1zM75,42h1v1h-1zM76,42h1v1h-1zM77,42h1v1h-1zM78,42h1v1h-1zM79,42h1v1h-1zM80,42h1v1h-1zM81,42h1v1h-1zM82,42h1v1h-1zM83,42h1v1h-1zM84,42h1v1h-1zM85,42h1v1h-1zM86,42h1v1h-1zM93,42h1v1h-1zM94,42h1v1h-1zM95,42h1v1h-1zM96,42h1v1h-1zM97,42h1v1h-1zM98,42h1v1h-1zM99,42h1v1h-1zM100,42h1v1h-1zM101,42h1v1h-1zM102,42h1v1h-1zM103,42h1v1h-1zM104,42h1v1h-1zM105,42h1v1h-1zM106,42h1v1h-1zM107,42h1v1h-1zM108,42h1v1h-1zM109,42h1v1h-1zM110,42h1v1h-1zM111,42h1v1h-1zM112,42h1v1h-1zM113,42h1v1h-1zM114,42h1v1h-1zM125,42h1v1h-1zM126,42h1v1h-1zM127,42h1v1h-1zM128,42h1v1h-1zM129,42h1v1h-1zM130,42h1v1h-1zM136,42h1v1h-1zM137,42h1v1h-1zM138,42h1v1h-1zM139,42h1v1h-1zM140,42h1v1h-1zM141,42h1v1h-1zM142,42h1v1h-1zM143,42h1v1h-1zM144,42h1v1h-1zM145,42h1v1h-1zM146,42h1v1h-1zM147,42h1v1h-1zM148,42h1v1h-1zM149,42h1v1h-1zM150,42h1v1h-1zM151,42h1v1h-1zM152,42h1v1h-1zM153,42h1v1h-1zM154,42h1v1h-1zM155,42h1v1h-1zM156,42h1v1h-1zM157,42h1v1h-1zM158,42h1v1h-1zM4,43h1v1h-1zM5,43h1v1h-1zM6,43h1v1h-1zM7,43h1v1h-1zM8,43h1v1h-1zM9,43h1v1h-1zM10,43h1v1h-1zM11,43h1v1h-1zM12,43h1v1h-1zM13,43h1v1h-1zM14,43h1v1h-1zM15,43h1v1h-1zM16,43h1v1h-1zM17,43h1v1h-1zM18,43h1v1h-1zM19,43h1v1h-1zM20,43h1v1h-1zM21,43h1v1h-1zM22,43h1v1h-1zM23,43h1v1h-1zM24,43h1v1h-1zM25,43h1v1h-1zM26,43h1v1h-1zM35,43h1v1h-1zM36,43h1v1h-1zM37,43h1v1h-1zM38,43h1v1h-1zM39,43h1v1h-1zM40,43h1v1h-1zM41,43h1v1h-1zM42,43h1v1h-1zM43,43h1v1h-1zM44,43h1v1h-1zM45,43h1v1h-1zM46,43h1v1h-1zM47,43h1v1h-1zM48,43h1v1h-1zM49,43h1v1h-1zM50,43h1v1h-1zM51,43h1v1h-1zM52,43h1v1h-1zM53,43h1v1h-1zM54,43h1v1h-1zM55,43h1v1h-1zM56,43h1v1h-1zM57,43h1v1h-1zM66,43h1v1h-1zM67,43h1v1h-1zM68,43h1v1h-1zM69,43h1v1h-1zM70,43h1v1h-1zM71,43h1v1h-1zM72,43h1v1h-1zM73,43h1v1h-1zM74,43h1v1h-1zM75,43h1v1h-1zM76,43h1v1h-1zM77,43h1v1h-1zM78,43h1v1h-1zM79,43h1v1h-1zM80,43h1v1h-1zM81,43h1v1h-1zM82,43h1v1h-1zM83,43h1v1h-1zM84,43h1v1h-1zM85,43h1v1h-1zM86,43h1v1h-1zM93,43h1v1h-1zM94,43h1v1h-1zM95,43h1v1h-1zM96,43h1v1h-1zM97,43h1v1h-1zM98,43h1v1h-1zM99,43h1v1h-1zM100,43h1v1h-1zM101,43h1v1h-1zM102,43h1v1h-1zM103,43h1v1h-1zM104,43h1v1h-1zM105,43h1v1h-1zM106,43h1v1h-1zM107,43h1v1h-1zM108,43h1v1h-1zM109,43h1v1h-1zM110,43h1v1h-1zM111,43h1v1h-1zM112,43h1v1h-1zM113,43h1v1h-1zM114,43h1v1h-1zM115,43h1v1h-1zM125,43h1v1h-1zM126,43h1v1h-1zM127,43h1v1h-1zM128,43h1v1h-1zM129,43h1v1h-1zM130,43h1v1h-1zM136,43h1v1h-1zM137,43h1v1h-1zM138,43h1v1h-1zM139,43h1v1h-1zM140,43h1v1h-1zM141,43h1v1h-1zM142,43h1v1h-1zM143,43h1v1h-1zM144,43h1v1h-1zM145,43h1v1h-1zM146,43h1v1h-1zM147,43h1v1h-1zM148,43h1v1h-1zM149,43h1v1h-1zM150,43h1v1h-1zM151,43h1v1h-1zM152,43h1v1h-1zM153,43h1v1h-1zM154,43h1v1h-1zM155,43h1v1h-1zM156,43h1v1h-1zM157,43h1v1h-1zM158,43h1v1h-1zM3,44h1v1h-1zM4,44h1v1h-1zM5,44h1v1h-1zM6,44h1v1h-1zM7,44h1v1h-1zM8,44h1v1h-1zM9,44h1v1h-1zM10,44h1v1h-1zM11,44h1v1h-1zM20,44h1v1h-1zM21,44h1v1h-1zM22,44h1v1h-1zM23,44h1v1h-1zM24,44h1v1h-1zM25,44h1v1h-1zM26,44h1v1h-1zM27,44h1v1h-1zM35,44h1v1h-1zM36,44h1v1h-1zM37,44h1v1h-1zM38,44h1v1h-1zM39,44h1v1h-1zM40,44h1v1h-1zM51,44h1v1h-1zM52,44h1v1h-1zM53,44h1v1h-1zM54,44h1v1h-1zM55,44h1v1h-1zM56,44h1v1h-1zM57,44h1v1h-1zM66,44h1v1h-1zM67,44h1v1h-1zM68,44h1v1h-1zM69,44h1v1h-1zM70,44h1v1h-1zM71,44h1v1h-1zM93,44h1v1h-1zM94,44h1v1h-1zM95,44h1v1h-1zM96,44h1v1h-1zM97,44h1v1h-1zM98,44h1v1h-1zM108,44h1v1h-1zM109,44h1v1h-1zM110,44h1v1h-1zM111,44h1v1h-1zM112,44h1v1h-1zM113,44h1v1h-1zM114,44h1v1h-1zM115,44h1v1h-1zM116,44h1v1h-1zM125,44h1v1h-1zM126,44h1v1h-1zM127,44h1v1h-1zM128,44h1v1h-1zM129,44h1v1h-1zM130,44h1v1h-1zM145,44h1v1h-1zM146,44h1v1h-1zM147,44h1v1h-1zM148,44h1v1h-1zM149,44h1v1h-1zM150,44h1v1h-1zM2,45h1v1h-1zM3,45h1v1h-1zM4,45h1v1h-1zM5,45h1v1h-1zM6,45h1v1h-1zM7,45h1v1h-1zM8,45h1v1h-1zM9,45h1v1h-1zM21,45h1v1h-1zM22,45h1v1h-1zM23,45h1v1h-1zM24,45h1v1h-1zM25,45h1v1h-1zM26,45h1v1h-1zM27,45h1v1h-1zM28,45h1v1h-1zM35,45h1v1h-1zM36,45h1v1h-1zM37,45h1v1h-1zM38,45h1v1h-1zM39,45h1v1h-1zM40,45h1v1h-1zM52,45h1v1h-1zM53,45h1v1h-1zM54,45h1v1h-1zM55,45h1v1h-1zM56,45h1v1h-1zM57,45h1v1h-1zM58,45h1v1h-1zM66,45h1v1h-1zM67,45h1v1h-1zM68,45h1v1h-1zM69,45h1v1h-1zM70,45h1v1h-1zM71,45h1v1h-1zM93,45h1v1h-1zM94,45h1v1h-1zM95,45h1v1h-1zM96,45h1v1h-1zM97,45h1v1h-1zM98,45h1v1h-1zM110,45h1v1h-1zM111,45h1v1h-1zM112,45h1v1h-1zM113,45h1v1h-1zM114,45h1v1h-1zM115,45h1v1h-1zM116,45h1v1h-1zM117,45h1v1h-1zM125,45h1v1h-1zM126,45h1v1h-1zM127,45h1v1h-1zM128,45h1v1h-1zM129,45h1v1h-1zM130,45h1v1h-1zM145,45h1v1h-1zM146,45h1v1h-1zM147,45h1v1h-1zM148,45h1v1h-1zM149,45h1v1h-1zM150,45h1v1h-1zM2,46h1v1h-1zM3,46h1v1h-1zM4,46h1v1h-1zM5,46h1v1h-1zM6,46h1v1h-1zM7,46h1v1h-1zM8,46h1v1h-1zM22,46h1v1h-1zM23,46h1v1h-1zM24,46h1v1h-1zM25,46h1v1h-1zM26,46h1v1h-1zM27,46h1v1h-1zM28,46h1v1h-1zM35,46h1v1h-1zM36,46h1v1h-1zM37,46h1v1h-1zM38,46h1v1h-1zM39,46h1v1h-1zM40,46h1v1h-1zM53,46h1v1h-1zM54,46h1v1h-1zM55,46h1v1h-1zM56,46h1v1h-1zM57,46h1v1h-1zM58,46h1v1h-1zM66,46h1v1h-1zM67,46h1v1h-1zM68,46h1v1h-1zM69,46h1v1h-1zM70,46h1v1h-1zM71,46h1v1h-1zM93,46h1v1h-1zM94,46h1v1h-1zM95,46h1v1h-1zM96,46h1v1h-1zM97,46h1v1h-1zM98,46h1v1h-1zM111,46h1v1h-1zM112,46h1v1h-1zM113,46h1v1h-1zM114,46h1v1h-1zM115,46h1v1h-1zM116,46h1v1h-1zM117,46h1v1h-1zM125,46h1v1h-1zM126,46h1v1h-1zM127,46h1v1h-1zM128,46h1v1h-1zM129,46h1v1h-1zM130,46h1v1h-1zM145,46h1v1h-1zM146,46h1v1h-1zM147,46h1v1h-1zM148,46h1v1h-1zM149,46h1v1h-1zM150,46h1v1h-1zM1,47h1v1h-1zM2,47h1v1h-1zM3,47h1v1h-1zM4,47h1v1h-1zM5,47h1v1h-1zM6,47h1v1h-1zM7,47h1v1h-1zM23,47h1v1h-1zM24,47h1v1h-1zM25,47h1v1h-1zM26,47h1v1h-1zM27,47h1v1h-1zM28,47h1v1h-1zM35,47h1v1h-1zM36,47h1v1h-1zM37,47h1v1h-1zM38,47h1v1h-1zM39,47h1v1h-1zM40,47h1v1h-1zM53,47h1v1h-1zM54,47h1v1h-1zM55,47h1v1h-1zM56,47h1v1h-1zM57,47h1v1h-1zM58,47h1v1h-1zM66,47h1v1h-1zM67,47h1v1h-1zM68,47h1v1h-1zM69,47h1v1h-1zM70,47h1v1h-1zM71,47h1v1h-1zM93,47h1v1h-1zM94,47h1v1h-1zM95,47h1v1h-1zM96,47h1v1h-1zM97,47h1v1h-1zM98,47h1v1h-1zM112,47h1v1h-1zM113,47h1v1h-1zM114,47h1v1h-1zM115,47h1v1h-1zM116,47h1v1h-1zM117,47h1v1h-1zM118,47h1v1h-1zM125,47h1v1h-1zM126,47h1v1h-1zM127,47h1v1h-1zM128,47h1v1h-1zM129,47h1v1h-1zM130,47h1v1h-1zM145,47h1v1h-1zM146,47h1v1h-1zM147,47h1v1h-1zM148,47h1v1h-1zM149,47h1v1h-1zM150,47h1v1h-1zM1,48h1v1h-1zM2,48h1v1h-1zM3,48h1v1h-1zM4,48h1v1h-1zM5,48h1v1h-1zM6,48h1v1h-1zM7,48h1v1h-1zM35,48h1v1h-1zM36,48h1v1h-1zM37,48h1v1h-1zM38,48h1v1h-1zM39,48h1v1h-1zM40,48h1v1h-1zM53,48h1v1h-1zM54,48h1v1h-1zM55,48h1v1h-1zM56,48h1v1h-1zM57,48h1v1h-1zM58,48h1v1h-1zM66,48h1v1h-1zM67,48h1v1h-1zM68,48h1v1h-1zM69,48h1v1h-1zM70,48h1v1h-1zM71,48h1v1h-1zM93,48h1v1h-1zM94,48h1v1h-1zM95,48h1v1h-1zM96,48h1v1h-1zM97,48h1v1h-1zM98,48h1v1h-1zM113,48h1v1h-1zM114,48h1v1h-1zM115,48h1v1h-1zM116,48h1v1h-1zM117,48h1v1h-1zM118,48h1v1h-1zM125,48h1v1h-1zM126,48h1v1h-1zM127,48h1v1h-1zM128,48h1v1h-1zM129,48h1v1h-1zM130,48h1v1h-1zM145,48h1v1h-1zM146,48h1v1h-1zM147,48h1v1h-1zM148,48h1v1h-1zM149,48h1v1h-1zM150,48h1v1h-1zM1,49h1v1h-1zM2,49h1v1h-1zM3,49h1v1h-1zM4,49h1v1h-1zM5,49h1v1h-1zM6,49h1v1h-1zM35,49h1v1h-1zM36,49h1v1h-1zM37,49h1v1h-1zM38,49h1v1h-1zM39,49h1v1h-1zM40,49h1v1h-1zM53,49h1v1h-1zM54,49h1v1h-1zM55,49h1v1h-1zM56,49h1v1h-1zM57,49h1v1h-1zM58,49h1v1h-1zM66,49h1v1h-1zM67,49h1v1h-1zM68,49h1v1h-1zM69,49h1v1h-1zM70,49h1v1h-1zM71,49h1v1h-1zM93,49h1v1h-1zM94,49h1v1h-1zM95,49h1v1h-1zM96,49h1v1h-1zM97,49h1v1h-1zM98,49h1v1h-1zM113,49h1v1h-1zM114,49h1v1h-1zM115,49h1v1h-1zM116,49h1v1h-1zM117,49h1v1h-1zM118,49h1v1h-1zM119,49h1v1h-1zM125,49h1v1h-1zM126,49h1v1h-1zM127,49h1v1h-1zM128,49h1v1h-1zM129,49h1v1h-1zM130,49h1v1h-1zM145,49h1v1h-1zM146,49h1v1h-1zM147,49h1v1h-1zM148,49h1v1h-1zM149,49h1v1h-1zM150,49h1v1h-1zM1,50h1v1h-1zM2,50h1v1h-1zM3,50h1v1h-1zM4,50h1v1h-1zM5,50h1v1h-1zM6,50h1v1h-1zM35,50h1v1h-1zM36,50h1v1h-1zM37,50h1v1h-1zM38,50h1v1h-1zM39,50h1v1h-1zM40,50h1v1h-1zM52,50h1v1h-1zM53,50h1v1h-1zM54,50h1v1h-1zM55,50h1v1h-1zM56,50h1v1h-1zM57,50h1v1h-1zM58,50h1v1h-1zM66,50h1v1h-1zM67,50h1v1h-1zM68,50h1v1h-1zM69,50h1v1h-1zM70,50h1v1h-1zM71,50h1v1h-1zM72,50h1v1h-1zM73,50h1v1h-1zM74,50h1v1h-1zM75,50h1v1h-1zM76,50h1v1h-1zM77,50h1v1h-1zM78,50h1v1h-1zM79,50h1v1h-1zM80,50h1v1h-1zM81,50h1v1h-1zM82,50h1v1h-1zM83,50h1v1h-1zM84,50h1v1h-1zM93,50h1v1h-1zM94,50h1v1h-1zM95,50h1v1h-1zM96,50h1v1h-1zM97,50h1v1h-1zM98,50h1v1h-1zM113,50h1v1h-1zM114,50h1v1h-1zM115,50h1v1h-1zM116,50h1v1h-1zM117,50h1v1h-1zM118,50h1v1h-1zM119,50h1v1h-1zM125,50h1v1h-1zM126,50h1v1h-1zM127,50h1v1h-1zM128,50h1v1h-1zM129,50h1v1h-1zM130,50h1v1h-1zM145,50h1v1h-1zM146,50h1v1h-1zM147,50h1v1h-1zM148,50h1v1h-1zM149,50h1v1h-1zM150,50h1v1h-1zM1,51h1v1h-1zM2,51h1v1h-1zM3,51h1v1h-1zM4,51h1v1h-1zM5,51h1v1h-1zM6,51h1v1h-1zM35,51h1v1h-1zM36,51h1v1h-1zM37,51h1v1h-1zM38,51h1v1h-1zM39,51h1v1h-1zM40,51h1v1h-1zM51,51h1v1h-1zM52,51h1v1h-1zM53,51h1v1h-1zM54,51h1v1h-1zM55,51h1v1h-1zM56,51h1v1h-1zM57,51h1v1h-1zM66,51h1v1h-1zM67,51h1v1h-1zM68,51h1v1h-1zM69,51h1v1h-1zM70,51h1v1h-1zM71,51h1v1h-1zM72,51h1v1h-1zM73,51h1v1h-1zM74,51h1v1h-1zM75,51h1v1h-1zM76,51h1v1h-1zM77,51h1v1h-1zM78,51h1v1h-1zM79,51h1v1h-1zM80,51h1v1h-1zM81,51h1v1h-1zM82,51h1v1h-1zM83,51h1v1h-1zM84,51h1v1h-1zM93,51h1v1h-1zM94,51h1v1h-1zM95,51h1v1h-1zM96,51h1v1h-1zM97,51h1v1h-1zM98,51h1v1h-1zM113,51h1v1h-1zM114,51h1v1h-1zM115,51h1v1h-1zM116,51h1v1h-1zM117,51h1v1h-1zM118,51h1v1h-1zM119,51h1v1h-1zM125,51h1v1h-1zM126,51h1v1h-1zM127,51h1v1h-1zM128,51h1v1h-1zM129,51h1v1h-1zM130,51h1v1h-1zM145,51h1v1h-1zM146,51h1v1h-1zM147,51h1v1h-1zM148,51h1v1h-1zM149,51h1v1h-1zM150,51h1v1h-1zM1,52h1v1h-1zM2,52h1v1h-1zM3,52h1v1h-1zM4,52h1v1h-1zM5,52h1v1h-1zM6,52h1v1h-1zM35,52h1v1h-1zM36,52h1v1h-1zM37,52h1v1h-1zM38,52h1v1h-1zM39,52h1v1h-1zM40,52h1v1h-1zM50,52h1v1h-1zM51,52h1v1h-1zM52,52h1v1h-1zM53,52h1v1h-1zM54,52h1v1h-1zM55,52h1v1h-1zM56,52h1v1h-1zM57,52h1v1h-1zM66,52h1v1h-1zM67,52h1v1h-1zM68,52h1v1h-1zM69,52h1v1h-1zM70,52h1v1h-1zM71,52h1v1h-1zM72,52h1v1h-1zM73,52h1v1h-1zM74,52h1v1h-1zM75,52h1v1h-1zM76,52h1v1h-1zM77,52h1v1h-1zM78,52h1v1h-1zM79,52h1v1h-1zM80,52h1v1h-1zM81,52h1v1h-1zM82,52h1v1h-1zM83,52h1v1h-1zM84,52h1v1h-1zM93,52h1v1h-1zM94,52h1v1h-1zM95,52h1v1h-1zM96,52h1v1h-1zM97,52h1v1h-1zM98,52h1v1h-1zM113,52h1v1h-1zM114,52h1v1h-1zM115,52h1v1h-1zM116,52h1v1h-1zM117,52h1v1h-1zM118,52h1v1h-1zM119,52h1v1h-1zM125,52h1v1h-1zM126,52h1v1h-1zM127,52h1v1h-1zM128,52h1v1h-1zM129,52h1v1h-1zM130,52h1v1h-1zM145,52h1v1h-1zM146,52h1v1h-1zM147,52h1v1h-1zM148,52h1v1h-1zM149,52h1v1h-1zM150,52h1v1h-1zM1,53h1v1h-1zM2,53h1v1h-1zM3,53h1v1h-1zM4,53h1v1h-1zM5,53h1v1h-1zM6,53h1v1h-1zM35,53h1v1h-1zM36,53h1v1h-1zM37,53h1v1h-1zM38,53h1v1h-1zM39,53h1v1h-1zM40,53h1v1h-1zM41,53h1v1h-1zM42,53h1v1h-1zM43,53h1v1h-1zM44,53h1v1h-1zM45,53h1v1h-1zM46,53h1v1h-1zM47,53h1v1h-1zM48,53h1v1h-1zM49,53h1v1h-1zM50,53h1v1h-1zM51,53h1v1h-1zM52,53h1v1h-1zM53,53h1v1h-1zM54,53h1v1h-1zM55,53h1v1h-1zM56,53h1v1h-1zM66,53h1v1h-1zM67,53h1v1h-1zM68,53h1v1h-1zM69,53h1v1h-1zM70,53h1v1h-1zM71,53h1v1h-1zM72,53h1v1h-1zM73,53h1v1h-1zM74,53h1v1h-1zM75,53h1v1h-1zM76,53h1v1h-1zM77,53h1v1h-1zM78,53h1v1h-1zM79,53h1v1h-1zM80,53h1v1h-1zM81,53h1v1h-1zM82,53h1v1h-1zM83,53h1v1h-1zM84,53h1v1h-1zM93,53h1v1h-1zM94,53h1v1h-1zM95,53h1v1h-1zM96,53h1v1h-1zM97,53h1v1h-1zM98,53h1v1h-1zM113,53h1v1h-1zM114,53h1v1h-1zM115,53h1v1h-1zM116,53h1v1h-1zM117,53h1v1h-1zM118,53h1v1h-1zM119,53h1v1h-1zM125,53h1v1h-1zM126,53h1v1h-1zM127,53h1v1h-1zM128,53h1v1h-1zM129,53h1v1h-1zM130,53h1v1h-1zM145,53h1v1h-1zM146,53h1v1h-1zM147,53h1v1h-1zM148,53h1v1h-1zM149,53h1v1h-1zM150,53h1v1h-1zM1,54h1v1h-1zM2,54h1v1h-1zM3,54h1v1h-1zM4,54h1v1h-1zM5,54h1v1h-1zM6,54h1v1h-1zM35,54h1v1h-1zM36,54h1v1h-1zM37,54h1v1h-1zM38,54h1v1h-1zM39,54h1v1h-1zM40,54h1v1h-1zM41,54h1v1h-1zM42,54h1v1h-1zM43,54h1v1h-1zM44,54h1v1h-1zM45,54h1v1h-1zM46,54h1v1h-1zM47,54h1v1h-1zM48,54h1v1h-1zM49,54h1v1h-1zM50,54h1v1h-1zM51,54h1v1h-1zM52,54h1v1h-1zM53,54h1v1h-1zM54,54h1v1h-1zM55,54h1v1h-1zM56,54h1v1h-1zM66,54h1v1h-1zM67,54h1v1h-1zM68,54h1v1h-1zM69,54h1v1h-1zM70,54h1v1h-1zM71,54h1v1h-1zM72,54h1v1h-1zM73,54h1v1h-1zM74,54h1v1h-1zM75,54h1v1h-1zM76,54h1v1h-1zM77,54h1v1h-1zM78,54h1v1h-1zM79,54h1v1h-1zM80,54h1v1h-1zM81,54h1v1h-1zM82,54h1v1h-1zM83,54h1v1h-1zM84,54h1v1h-1zM93,54h1v1h-1zM94,54h1v1h-1zM95,54h1v1h-1zM96,54h1v1h-1zM97,54h1v1h-1zM98,54h1v1h-1zM113,54h1v1h-1zM114,54h1v1h-1zM115,54h1v1h-1zM116,54h1v1h-1zM117,54h1v1h-1zM118,54h1v1h-1zM119,54h1v1h-1zM125,54h1v1h-1zM126,54h1v1h-1zM127,54h1v1h-1zM128,54h1v1h-1zM129,54h1v1h-1zM130,54h1v1h-1zM145,54h1v1h-1zM146,54h1v1h-1zM147,54h1v1h-1zM148,54h1v1h-1zM149,54h1v1h-1zM150,54h1v1h-1zM1,55h1v1h-1zM2,55h1v1h-1zM3,55h1v1h-1zM4,55h1v1h-1zM5,55h1v1h-1zM6,55h1v1h-1zM35,55h1v1h-1zM36,55h1v1h-1zM37,55h1v1h-1zM38,55h1v1h-1zM39,55h1v1h-1zM40,55h1v1h-1zM41,55h1v1h-1zM42,55h1v1h-1zM43,55h1v1h-1zM44,55h1v1h-1zM45,55h1v1h-1zM46,55h1v1h-1zM47,55h1v1h-1zM48,55h1v1h-1zM49,55h1v1h-1zM50,55h1v1h-1zM51,55h1v1h-1zM52,55h1v1h-1zM53,55h1v1h-1zM54,55h1v1h-1zM55,55h1v1h-1zM66,55h1v1h-1zM67,55h1v1h-1zM68,55h1v1h-1zM69,55h1v1h-1zM70,55h1v1h-1zM71,55h1v1h-1zM93,55h1v1h-1zM94,55h1v1h-1zM95,55h1v1h-1zM96,55h1v1h-1zM97,55h1v1h-1zM98,55h1v1h-1zM113,55h1v1h-1zM114,55h1v1h-1zM115,55h1v1h-1zM116,55h1v1h-1zM117,55h1v1h-1zM118,55h1v1h-1zM119,55h1v1h-1zM125,55h1v1h-1zM126,55h1v1h-1zM127,55h1v1h-1zM128,55h1v1h-1zM129,55h1v1h-1zM130,55h1v1h-1zM145,55h1v1h-1zM146,55h1v1h-1zM147,55h1v1h-1zM148,55h1v1h-1zM149,55h1v1h-1zM150,55h1v1h-1zM1,56h1v1h-1zM2,56h1v1h-1zM3,56h1v1h-1zM4,56h1v1h-1zM5,56h1v1h-1zM6,56h1v1h-1zM7,56h1v1h-1zM35,56h1v1h-1zM36,56h1v1h-1zM37,56h1v1h-1zM38,56h1v1h-1zM39,56h1v1h-1zM40,56h1v1h-1zM41,56h1v1h-1zM42,56h1v1h-1zM43,56h1v1h-1zM44,56h1v1h-1zM45,56h1v1h-1zM46,56h1v1h-1zM47,56h1v1h-1zM48,56h1v1h-1zM49,56h1v1h-1zM50,56h1v1h-1zM51,56h1v1h-1zM52,56h1v1h-1zM53,56h1v1h-1zM66,56h1v1h-1zM67,56h1v1h-1zM68,56h1v1h-1zM69,56h1v1h-1zM70,56h1v1h-1zM71,56h1v1h-1zM93,56h1v1h-1zM94,56h1v1h-1zM95,56h1v1h-1zM96,56h1v1h-1zM97,56h1v1h-1zM98,56h1v1h-1zM113,56h1v1h-1zM114,56h1v1h-1zM115,56h1v1h-1zM116,56h1v1h-1zM117,56h1v1h-1zM118,56h1v1h-1zM125,56h1v1h-1zM126,56h1v1h-1zM127,56h1v1h-1zM128,56h1v1h-1zM129,56h1v1h-1zM130,56h1v1h-1zM145,56h1v1h-1zM146,56h1v1h-1zM147,56h1v1h-1zM148,56h1v1h-1zM149,56h1v1h-1zM150,56h1v1h-1zM1,57h1v1h-1zM2,57h1v1h-1zM3,57h1v1h-1zM4,57h1v1h-1zM5,57h1v1h-1zM6,57h1v1h-1zM7,57h1v1h-1zM23,57h1v1h-1zM24,57h1v1h-1zM25,57h1v1h-1zM26,57h1v1h-1zM27,57h1v1h-1zM28,57h1v1h-1zM35,57h1v1h-1zM36,57h1v1h-1zM37,57h1v1h-1zM38,57h1v1h-1zM39,57h1v1h-1zM40,57h1v1h-1zM41,57h1v1h-1zM42,57h1v1h-1zM43,57h1v1h-1zM44,57h1v1h-1zM45,57h1v1h-1zM46,57h1v1h-1zM47,57h1v1h-1zM48,57h1v1h-1zM49,57h1v1h-1zM50,57h1v1h-1zM51,57h1v1h-1zM52,57h1v1h-1zM53,57h1v1h-1zM66,57h1v1h-1zM67,57h1v1h-1zM68,57h1v1h-1zM69,57h1v1h-1zM70,57h1v1h-1zM71,57h1v1h-1zM93,57h1v1h-1zM94,57h1v1h-1zM95,57h1v1h-1zM96,57h1v1h-1zM97,57h1v1h-1zM98,57h1v1h-1zM112,57h1v1h-1zM113,57h1v1h-1zM114,57h1v1h-1zM115,57h1v1h-1zM116,57h1v1h-1zM117,57h1v1h-1zM118,57h1v1h-1zM125,57h1v1h-1zM126,57h1v1h-1zM127,57h1v1h-1zM128,57h1v1h-1zM129,57h1v1h-1zM130,57h1v1h-1zM145,57h1v1h-1zM146,57h1v1h-1zM147,57h1v1h-1zM148,57h1v1h-1zM149,57h1v1h-1zM150,57h1v1h-1zM2,58h1v1h-1zM3,58h1v1h-1zM4,58h1v1h-1zM5,58h1v1h-1zM6,58h1v1h-1zM7,58h1v1h-1zM8,58h1v1h-1zM22,58h1v1h-1zM23,58h1v1h-1zM24,58h1v1h-1zM25,58h1v1h-1zM26,58h1v1h-1zM27,58h1v1h-1zM28,58h1v1h-1zM35,58h1v1h-1zM36,58h1v1h-1zM37,58h1v1h-1zM38,58h1v1h-1zM39,58h1v1h-1zM40,58h1v1h-1zM48,58h1v1h-1zM49,58h1v1h-1zM50,58h1v1h-1zM51,58h1v1h-1zM52,58h1v1h-1zM53,58h1v1h-1zM54,58h1v1h-1zM66,58h1v1h-1zM67,58h1v1h-1zM68,58h1v1h-1zM69,58h1v1h-1zM70,58h1v1h-1zM71,58h1v1h-1zM93,58h1v1h-1zM94,58h1v1h-1zM95,58h1v1h-1zM96,58h1v1h-1zM97,58h1v1h-1zM98,58h1v1h-1zM111,58h1v1h-1zM112,58h1v1h-1zM113,58h1v1h-1zM114,58h1v1h-1zM115,58h1v1h-1zM116,58h1v1h-1zM117,58h1v1h-1zM118,58h1v1h-1zM125,58h1v1h-1zM126,58h1v1h-1zM127,58h1v1h-1zM128,58h1v1h-1zM129,58h1v1h-1zM130,58h1v1h-1zM145,58h1v1h-1zM146,58h1v1h-1zM147,58h1v1h-1zM148,58h1v1h-1zM149,58h1v1h-1zM150,58h1v1h-1zM2,59h1v1h-1zM3,59h1v1h-1zM4,59h1v1h-1zM5,59h1v1h-1zM6,59h1v1h-1zM7,59h1v1h-1zM8,59h1v1h-1zM9,59h1v1h-1zM22,59h1v1h-1zM23,59h1v1h-1zM24,59h1v1h-1zM25,59h1v1h-1zM26,59h1v1h-1zM27,59h1v1h-1zM28,59h1v1h-1zM35,59h1v1h-1zM36,59h1v1h-1zM37,59h1v1h-1zM38,59h1v1h-1zM39,59h1v1h-1zM40,59h1v1h-1zM49,59h1v1h-1zM50,59h1v1h-1zM51,59h1v1h-1zM52,59h1v1h-1zM53,59h1v1h-1zM54,59h1v1h-1zM66,59h1v1h-1zM67,59h1v1h-1zM68,59h1v1h-1zM69,59h1v1h-1zM70,59h1v1h-1zM71,59h1v1h-1zM93,59h1v1h-1zM94,59h1v1h-1zM95,59h1v1h-1zM96,59h1v1h-1zM97,59h1v1h-1zM98,59h1v1h-1zM110,59h1v1h-1zM111,59h1v1h-1zM112,59h1v1h-1zM113,59h1v1h-1zM114,59h1v1h-1zM115,59h1v1h-1zM116,59h1v1h-1zM117,59h1v1h-1zM125,59h1v1h-1zM126,59h1v1h-1zM127,59h1v1h-1zM128,59h1v1h-1zM129,59h1v1h-1zM130,59h1v1h-1zM145,59h1v1h-1zM146,59h1v1h-1zM147,59h1v1h-1zM148,59h1v1h-1zM149,59h1v1h-1zM150,59h1v1h-1zM3,60h1v1h-1zM4,60h1v1h-1zM5,60h1v1h-1zM6,60h1v1h-1zM7,60h1v1h-1zM8,60h1v1h-1zM9,60h1v1h-1zM10,60h1v1h-1zM20,60h1v1h-1zM21,60h1v1h-1zM22,60h1v1h-1zM23,60h1v1h-1zM24,60h1v1h-1zM25,60h1v1h-1zM26,60h1v1h-1zM27,60h1v1h-1zM35,60h1v1h-1zM36,60h1v1h-1zM37,60h1v1h-1zM38,60h1v1h-1zM39,60h1v1h-1zM40,60h1v1h-1zM49,60h1v1h-1zM50,60h1v1h-1zM51,60h1v1h-1zM52,60h1v1h-1zM53,60h1v1h-1zM54,60h1v1h-1zM55,60h1v1h-1zM66,60h1v1h-1zM67,60h1v1h-1zM68,60h1v1h-1zM69,60h1v1h-1zM70,60h1v1h-1zM71,60h1v1h-1zM93,60h1v1h-1zM94,60h1v1h-1zM95,60h1v1h-1zM96,60h1v1h-1zM97,60h1v1h-1zM98,60h1v1h-1zM109,60h1v1h-1zM110,60h1v1h-1zM111,60h1v1h-1zM112,60h1v1h-1zM113,60h1v1h-1zM114,60h1v1h-1zM115,60h1v1h-1zM116,60h1v1h-1zM125,60h1v1h-1zM126,60h1v1h-1zM127,60h1v1h-1zM128,60h1v1h-1zM129,60h1v1h-1zM130,60h1v1h-1zM145,60h1v1h-1zM146,60h1v1h-1zM147,60h1v1h-1zM148,60h1v1h-1zM149,60h1v1h-1zM150,60h1v1h-1zM4,61h1v1h-1zM5,61h1v1h-1zM6,61h1v1h-1zM7,61h1v1h-1zM8,61h1v1h-1zM9,61h1v1h-1zM10,61h1v1h-1zM11,61h1v1h-1zM12,61h1v1h-1zM13,61h1v1h-1zM18,61h1v1h-1zM19,61h1v1h-1zM20,61h1v1h-1zM21,61h1v1h-1zM22,61h1v1h-1zM23,61h1v1h-1zM24,61h1v1h-1zM25,61h1v1h-1zM26,61h1v1h-1zM35,61h1v1h-1zM36,61h1v1h-1zM37,61h1v1h-1zM38,61h1v1h-1zM39,61h1v1h-1zM40,61h1v1h-1zM50,61h1v1h-1zM51,61h1v1h-1zM52,61h1v1h-1zM53,61h1v1h-1zM54,61h1v1h-1zM55,61h1v1h-1zM56,61h1v1h-1zM66,61h1v1h-1zM67,61h1v1h-1zM68,61h1v1h-1zM69,61h1v1h-1zM70,61h1v1h-1zM71,61h1v1h-1zM93,61h1v1h-1zM94,61h1v1h-1zM95,61h1v1h-1zM96,61h1v1h-1zM97,61h1v1h-1zM98,61h1v1h-1zM99,61h1v1h-1zM100,61h1v1h-1zM101,61h1v1h-1zM102,61h1v1h-1zM103,61h1v1h-1zM104,61h1v1h-1zM105,61h1v1h-1zM106,61h1v1h-1zM107,61h1v1h-1zM108,61h1v1h-1zM109,61h1v1h-1zM110,61h1v1h-1zM111,61h1v1h-1zM112,61h1v1h-1zM113,61h1v1h-1zM114,61h1v1h-1zM115,61h1v1h-1zM116,61h1v1h-1zM125,61h1v1h-1zM126,61h1v1h-1zM127,61h1v1h-1zM128,61h1v1h-1zM129,61h1v1h-1zM130,61h1v1h-1zM145,61h1v1h-1zM146,61h1v1h-1zM147,61h1v1h-1zM148,61h1v1h-1zM149,61h1v1h-1zM150,61h1v1h-1zM4,62h1v1h-1zM5,62h1v1h-1zM6,62h1v1h-1zM7,62h1v1h-1zM8,62h1v1h-1zM9,62h1v1h-1zM10,62h1v1h-1zM11,62h1v1h-1zM12,62h1v1h-1zM13,62h1v1h-1zM14,62h1v1h-1zM15,62h1v1h-1zM16,62h1v1h-1zM17,62h1v1h-1zM18,62h1v1h-1zM19,62h1v1h-1zM20,62h1v1h-1zM21,62h1v1h-1zM22,62h1v1h-1zM23,62h1v1h-1zM24,62h1v1h-1zM25,62h1v1h-1zM26,62h1v1h-1zM35,62h1v1h-1zM36,62h1v1h-1zM37,62h1v1h-1zM38,62h1v1h-1zM39,62h1v1h-1zM40,62h1v1h-1zM51,62h1v1h-1zM52,62h1v1h-1zM53,62h1v1h-1zM54,62h1v1h-1zM55,62h1v1h-1zM56,62h1v1h-1zM66,62h1v1h-1zM67,62h1v1h-1zM68,62h1v1h-1zM69,62h1v1h-1zM70,62h1v1h-1zM71,62h1v1h-1zM72,62h1v1h-1zM73,62h1v1h-1zM74,62h1v1h-1zM75,62h1v1h-1zM76,62h1v1h-1zM77,62h1v1h-1zM78,62h1v1h-1zM79,62h1v1h-1zM80,62h1v1h-1zM81,62h1v1h-1zM82,62h1v1h-1zM83,62h1v1h-1zM84,62h1v1h-1zM85,62h1v1h-1zM86,62h1v1h-1zM93,62h1v1h-1zM94,62h1v1h-1zM95,62h1v1h-1zM96,62h1v1h-1zM97,62h1v1h-1zM98,62h1v1h-1zM99,62h1v1h-1zM100,62h1v1h-1zM101,62h1v1h-1zM102,62h1v1h-1zM103,62h1v1h-1zM104,62h1v1h-1zM105,62h1v1h-1zM106,62h1v1h-1zM107,62h1v1h-1zM108,62h1v1h-1zM109,62h1v1h-1zM110,62h1v1h-1zM111,62h1v1h-1zM112,62h1v1h-1zM113,62h1v1h-1zM114,62h1v1h-1zM115,62h1v1h-1zM125,62h1v1h-1zM126,62h1v1h-1zM127,62h1v1h-1zM128,62h1v1h-1zM129,62h1v1h-1zM130,62h1v1h-1zM145,62h1v1h-1zM146,62h1v1h-1zM147,62h1v1h-1zM148,62h1v1h-1zM149,62h1v1h-1zM150,62h1v1h-1zM5,63h1v1h-1zM6,63h1v1h-1zM7,63h1v1h-1zM8,63h1v1h-1zM9,63h1v1h-1zM10,63h1v1h-1zM11,63h1v1h-1zM12,63h1v1h-1zM13,63h1v1h-1zM14,63h1v1h-1zM15,63h1v1h-1zM16,63h1v1h-1zM17,63h1v1h-1zM18,63h1v1h-1zM19,63h1v1h-1zM20,63h1v1h-1zM21,63h1v1h-1zM22,63h1v1h-1zM23,63h1v1h-1zM24,63h1v1h-1zM25,63h1v1h-1zM35,63h1v1h-1zM36,63h1v1h-1zM37,63h1v1h-1zM38,63h1v1h-1zM39,63h1v1h-1zM40,63h1v1h-1zM51,63h1v1h-1zM52,63h1v1h-1zM53,63h1v1h-1zM54,63h1v1h-1zM55,63h1v1h-1zM56,63h1v1h-1zM57,63h1v1h-1zM66,63h1v1h-1zM67,63h1v1h-1zM68,63h1v1h-1zM69,63h1v1h-1zM70,63h1v1h-1zM71,63h1v1h-1zM72,63h1v1h-1zM73,63h1v1h-1zM74,63h1v1h-1zM75,63h1v1h-1zM76,63h1v1h-1zM77,63h1v1h-1zM78,63h1v1h-1zM79,63h1v1h-1zM80,63h1v1h-1zM81,63h1v1h-1zM82,63h1v1h-1zM83,63h1v1h-1zM84,63h1v1h-1zM85,63h1v1h-1zM86,63h1v1h-1zM93,63h1v1h-1zM94,63h1v1h-1zM95,63h1v1h-1zM96,63h1v1h-1zM97,63h1v1h-1zM98,63h1v1h-1zM99,63h1v1h-1zM100,63h1v1h-1zM101,63h1v1h-1zM102,63h1v1h-1zM103,63h1v1h-1zM104,63h1v1h-1zM105,63h1v1h-1zM106,63h1v1h-1zM107,63h1v1h-1zM108,63h1v1h-1zM109,63h1v1h-1zM110,63h1v1h-1zM111,63h1v1h-1zM112,63h1v1h-1zM113,63h1v1h-1zM114,63h1v1h-1zM125,63h1v1h-1zM126,63h1v1h-1zM127,63h1v1h-1zM128,63h1v1h-1zM129,63h1v1h-1zM130,63h1v1h-1zM145,63h1v1h-1zM146,63h1v1h-1zM147,63h1v1h-1zM148,63h1v1h-1zM149,63h1v1h-1zM150,63h1v1h-1zM7,64h1v1h-1zM8,64h1v1h-1zM9,64h1v1h-1zM10,64h1v1h-1zM11,64h1v1h-1zM12,64h1v1h-1zM13,64h1v1h-1zM14,64h1v1h-1zM15,64h1v1h-1zM16,64h1v1h-1zM17,64h1v1h-1zM18,64h1v1h-1zM19,64h1v1h-1zM20,64h1v1h-1zM21,64h1v1h-1zM22,64h1v1h-1zM23,64h1v1h-1zM24,64h1v1h-1zM35,64h1v1h-1zM36,64h1v1h-1zM37,64h1v1h-1zM38,64h1v1h-1zM39,64h1v1h-1zM40,64h1v1h-1zM52,64h1v1h-1zM53,64h1v1h-1zM54,64h1v1h-1zM55,64h1v1h-1zM56,64h1v1h-1zM57,64h1v1h-1zM58,64h1v1h-1zM66,64h1v1h-1zM67,64h1v1h-1zM68,64h1v1h-1zM69,64h1v1h-1zM70,64h1v1h-1zM71,64h1v1h-1zM72,64h1v1h-1zM73,64h1v1h-1zM74,64h1v1h-1zM75,64h1v1h-1zM76,64h1v1h-1zM77,64h1v1h-1zM78,64h1v1h-1zM79,64h1v1h-1zM80,64h1v1h-1zM81,64h1v1h-1zM82,64h1v1h-1zM83,64h1v1h-1zM84,64h1v1h-1zM85,64h1v1h-1zM86,64h1v1h-1zM93,64h1v1h-1zM94,64h1v1h-1zM95,64h1v1h-1zM96,64h1v1h-1zM97,64h1v1h-1zM98,64h1v1h-1zM99,64h1v1h-1zM100,64h1v1h-1zM101,64h1v1h-1zM102,64h1v1h-1zM103,64h1v1h-1zM104,64h1v1h-1zM105,64h1v1h-1zM106,64h1v1h-1zM107,64h1v1h-1zM108,64h1v1h-1zM109,64h1v1h-1zM110,64h1v1h-1zM111,64h1v1h-1zM112,64h1v1h-1zM125,64h1v1h-1zM126,64h1v1h-1zM127,64h1v1h-1zM128,64h1v1h-1zM129,64h1v1h-1zM130,64h1v1h-1zM145,64h1v1h-1zM146,64h1v1h-1zM147,64h1v1h-1zM148,64h1v1h-1zM149,64h1v1h-1zM150,64h1v1h-1zM8,65h1v1h-1zM9,65h1v1h-1zM10,65h1v1h-1zM11,65h1v1h-1zM12,65h1v1h-1zM13,65h1v1h-1zM14,65h1v1h-1zM15,65h1v1h-1zM16,65h1v1h-1zM17,65h1v1h-1zM18,65h1v1h-1zM19,65h1v1h-1zM20,65h1v1h-1zM21,65h1v1h-1zM22,65h1v1h-1zM35,65h1v1h-1zM36,65h1v1h-1zM37,65h1v1h-1zM38,65h1v1h-1zM39,65h1v1h-1zM40,65h1v1h-1zM53,65h1v1h-1zM54,65h1v1h-1zM55,65h1v1h-1zM56,65h1v1h-1zM57,65h1v1h-1zM58,65h1v1h-1zM66,65h1v1h-1zM67,65h1v1h-1zM68,65h1v1h-1zM69,65h1v1h-1zM70,65h1v1h-1zM71,65h1v1h-1zM72,65h1v1h-1zM73,65h1v1h-1zM74,65h1v1h-1zM75,65h1v1h-1zM76,65h1v1h-1zM77,65h1v1h-1zM78,65h1v1h-1zM79,65h1v1h-1zM80,65h1v1h-1zM81,65h1v1h-1zM82,65h1v1h-1zM83,65h1v1h-1zM84,65h1v1h-1zM85,65h1v1h-1zM86,65h1v1h-1zM93,65h1v1h-1zM94,65h1v1h-1zM95,65h1v1h-1zM96,65h1v1h-1zM97,65h1v1h-1zM98,65h1v1h-1zM99,65h1v1h-1zM100,65h1v1h-1zM101,65h1v1h-1zM102,65h1v1h-1zM103,65h1v1h-1zM104,65h1v1h-1zM105,65h1v1h-1zM106,65h1v1h-1zM107,65h1v1h-1zM108,65h1v1h-1zM109,65h1v1h-1zM110,65h1v1h-1zM125,65h1v1h-1zM126,65h1v1h-1zM127,65h1v1h-1zM128,65h1v1h-1zM129,65h1v1h-1zM130,65h1v1h-1zM145,65h1v1h-1zM146,65h1v1h-1zM147,65h1v1h-1zM148,65h1v1h-1zM149,65h1v1h-1zM150,65h1v1h-1zM10,66h1v1h-1zM11,66h1v1h-1zM12,66h1v1h-1zM13,66h1v1h-1zM14,66h1v1h-1zM15,66h1v1h-1zM16,66h1v1h-1zM17,66h1v1h-1zM18,66h1v1h-1zM19,66h1v1h-1zM20,66h1v1h-1zM35,66h1v1h-1zM36,66h1v1h-1zM37,66h1v1h-1zM38,66h1v1h-1zM39,66h1v1h-1zM40,66h1v1h-1zM53,66h1v1h-1zM54,66h1v1h-1zM55,66h1v1h-1zM56,66h1v1h-1zM57,66h1v1h-1zM58,66h1v1h-1zM59,66h1v1h-1zM66,66h1v1h-1zM67,66h1v1h-1zM68,66h1v1h-1zM69,66h1v1h-1zM70,66h1v1h-1zM71,66h1v1h-1zM72,66h1v1h-1zM73,66h1v1h-1zM74,66h1v1h-1zM75,66h1v1h-1zM76,66h1v1h-1zM77,66h1v1h-1zM78,66h1v1h-1zM79,66h1v1h-1zM80,66h1v1h-1zM81,66h1v1h-1zM82,66h1v1h-1zM83,66h1v1h-1zM84,66h1v1h-1zM85,66h1v1h-1zM86,66h1v1h-1zM93,66h1v1h-1zM94,66h1v1h-1zM95,66h1v1h-1zM96,66h1v1h-1zM97,66h1v1h-1zM98,66h1v1h-1zM99,66h1v1h-1zM100,66h1v1h-1zM101,66h1v1h-1zM102,66h1v1h-1zM103,66h1v1h-1zM104,66h1v1h-1zM105,66h1v1h-1zM106,66h1v1h-1zM107,66h1v1h-1zM125,66h1v1h-1zM126,66h1v1h-1zM127,66h1v1h-1zM128,66h1v1h-1zM129,66h1v1h-1zM130,66h1v1h-1zM145,66h1v1h-1zM146,66h1v1h-1zM147,66h1v1h-1zM148,66h1v1h-1zM149,66h1v1h-1zM150,66h1v1h-1z" fill="#e2122d" opacity="1.00"/>
  <path d="M61,1h1v1h-1zM71,8h1v1h-1zM42,15h1v1h-1zM36,29h1v1h-1zM99,44h1v1h-1z" fill="#e2112d" opacity="0.94"/>
  <path d="M62,1h1v1h-1zM115,63h1v1h-1z" fill="#e2102b" opacity="0.62"/>
  <path d="M63,1h1v1h-1z" fill="#e40d28" opacity="0.22"/>
  <path d="M81,1h1v1h-1zM73,29h1v1h-1zM119,57h1v1h-1zM112,65h1v1h-1z" fill="#e2102c" opacity="0.61"/>
  <path d="M82,1h1v1h-1zM83,1h1v1h-1zM84,1h1v1h-1zM85,1h1v1h-1zM108,1h1v1h-1zM109,1h1v1h-1zM110,1h1v1h-1zM111,1h1v1h-1zM112,1h1v1h-1zM16,37h1v1h-1zM21,38h1v1h-1z" fill="#e2112d" opacity="0.72"/>
  <path d="M86,1h1v1h-1zM106,44h1v1h-1zM4,63h1v1h-1zM59,64h1v1h-1z" fill="#e2102c" opacity="0.62"/>
  <path d="M107,1h1v1h-1zM46,30h1v1h-1zM48,44h1v1h-1z" fill="#e3102c" opacity="0.44"/>
  <path d="M113,1h1v1h-1zM92,37h1v1h-1zM30,48h1v1h-1z" fill="#dc0c23" opacity="0.09"/>
  <path d="M119,1h1v1h-1zM58,43h1v1h-1zM51,50h1v1h-1zM19,67h1v1h-1z" fill="#e2102c" opacity="0.55"/>
  <path d="M141,1h1v1h-1zM24,65h1v1h-1z" fill="#e30f2b" opacity="0.39"/>
  <path d="M1,2h1v1h-1zM1,3h1v1h-1zM1,4h1v1h-1zM68,4h1v1h-1zM1,5h1v1h-1zM1,6h1v1h-1zM1,7h1v1h-1zM1,8h1v1h-1zM1,9h1v1h-1zM1,10h1v1h-1zM1,11h1v1h-1zM1,12h1v1h-1zM1,13h1v1h-1zM1,14h1v1h-1zM1,15h1v1h-1zM1,16h1v1h-1zM1,17h1v1h-1zM1,18h1v1h-1zM1,19h1v1h-1zM1,20h1v1h-1zM1,21h1v1h-1zM1,22h1v1h-1zM1,23h1v1h-1zM1,24h1v1h-1zM1,25h1v1h-1zM1,26h1v1h-1zM96,26h1v1h-1zM97,26h1v1h-1zM98,26h1v1h-1zM1,27h1v1h-1zM1,28h1v1h-1zM1,29h1v1h-1zM11,37h1v1h-1zM29,56h1v1h-1z" fill="#e2112a" opacity="0.24"/>
  <path d="M9,2h1v1h-1zM113,2h1v1h-1zM9,3h1v1h-1zM9,4h1v1h-1zM9,5h1v1h-1zM9,6h1v1h-1zM9,7h1v1h-1zM9,8h1v1h-1zM9,9h1v1h-1zM9,10h1v1h-1zM9,11h1v1h-1zM9,12h1v1h-1zM9,20h1v1h-1zM9,21h1v1h-1zM9,22h1v1h-1zM9,23h1v1h-1zM9,24h1v1h-1zM9,25h1v1h-1zM9,26h1v1h-1zM9,27h1v1h-1zM9,28h1v1h-1zM9,29h1v1h-1z" fill="#e6112a" opacity="0.12"/>
  <path d="M21,2h1v1h-1zM21,3h1v1h-1zM21,4h1v1h-1zM21,5h1v1h-1zM21,6h1v1h-1zM21,7h1v1h-1zM21,8h1v1h-1zM21,9h1v1h-1zM21,10h1v1h-1zM21,11h1v1h-1zM21,12h1v1h-1zM9,13h1v1h-1zM21,20h1v1h-1zM21,21h1v1h-1zM21,22h1v1h-1zM21,23h1v1h-1zM21,24h1v1h-1zM21,25h1v1h-1zM21,26h1v1h-1zM21,27h1v1h-1zM21,28h1v1h-1zM21,29h1v1h-1zM42,58h1v1h-1zM43,58h1v1h-1zM44,58h1v1h-1zM45,58h1v1h-1zM46,58h1v1h-1z" fill="#e2112d" opacity="0.82"/>
  <path d="M28,2h1v1h-1zM28,3h1v1h-1zM28,4h1v1h-1zM28,5h1v1h-1zM28,6h1v1h-1zM28,7h1v1h-1zM28,8h1v1h-1zM28,9h1v1h-1zM28,10h1v1h-1zM28,11h1v1h-1zM28,12h1v1h-1zM28,13h1v1h-1zM28,14h1v1h-1zM28,15h1v1h-1zM28,16h1v1h-1zM28,17h1v1h-1zM28,18h1v1h-1zM28,19h1v1h-1zM28,20h1v1h-1zM28,21h1v1h-1zM28,22h1v1h-1zM28,23h1v1h-1zM28,24h1v1h-1zM28,25h1v1h-1zM28,26h1v1h-1zM28,27h1v1h-1zM28,28h1v1h-1zM28,29h1v1h-1z" fill="#e4112c" opacity="0.47"/>
  <path d="M44,2h1v1h-1zM12,37h1v1h-1z" fill="#e00f2c" opacity="0.45"/>
  <path d="M45,2h1v1h-1zM50,38h1v1h-1zM47,58h1v1h-1z" fill="#e3122d" opacity="0.91"/>
  <path d="M65,2h1v1h-1zM42,23h1v1h-1zM100,24h1v1h-1zM14,44h1v1h-1z" fill="#e21029" opacity="0.24"/>
  <path d="M81,2h1v1h-1zM81,3h1v1h-1zM81,4h1v1h-1zM81,5h1v1h-1zM81,6h1v1h-1zM81,7h1v1h-1zM81,8h1v1h-1zM81,9h1v1h-1zM81,10h1v1h-1zM81,11h1v1h-1zM81,12h1v1h-1zM81,13h1v1h-1zM81,14h1v1h-1zM81,15h1v1h-1zM81,16h1v1h-1zM81,17h1v1h-1zM81,18h1v1h-1zM81,19h1v1h-1zM81,20h1v1h-1zM81,21h1v1h-1zM75,22h1v1h-1zM81,22h1v1h-1zM81,23h1v1h-1zM81,24h1v1h-1zM81,25h1v1h-1zM81,26h1v1h-1zM81,27h1v1h-1zM81,28h1v1h-1zM81,29h1v1h-1z" fill="#e2122d" opacity="0.85"/>
  <path d="M87,2h1v1h-1zM110,66h1v1h-1z" fill="#e2102a" opacity="0.45"/>
  <path d="M106,2h1v1h-1zM36,9h1v1h-1zM52,28h1v1h-1zM50,45h1v1h-1z" fill="#e00f29" opacity="0.20"/>
  <path d="M119,2h1v1h-1zM119,3h1v1h-1zM119,4h1v1h-1zM119,5h1v1h-1zM119,6h1v1h-1zM119,7h1v1h-1zM119,8h1v1h-1zM119,9h1v1h-1zM119,10h1v1h-1zM119,11h1v1h-1zM119,12h1v1h-1zM10,13h1v1h-1zM11,13h1v1h-1zM12,13h1v1h-1zM13,13h1v1h-1zM14,13h1v1h-1zM15,13h1v1h-1zM16,13h1v1h-1zM17,13h1v1h-1zM18,13h1v1h-1zM19,13h1v1h-1zM20,13h1v1h-1zM119,13h1v1h-1zM119,14h1v1h-1zM119,15h1v1h-1zM119,16h1v1h-1zM119,17h1v1h-1zM119,18h1v1h-1zM119,19h1v1h-1zM119,20h1v1h-1zM119,21h1v1h-1zM119,22h1v1h-1zM119,23h1v1h-1zM119,24h1v1h-1zM119,25h1v1h-1zM119,26h1v1h-1zM119,27h1v1h-1zM119,28h1v1h-1zM119,29h1v1h-1z" fill="#e1112d" opacity="0.80"/>
  <path d="M141,2h1v1h-1zM141,3h1v1h-1zM141,4h1v1h-1zM141,5h1v1h-1zM141,6h1v1h-1zM34,38h1v1h-1zM87,38h1v1h-1zM34,39h1v1h-1zM87,39h1v1h-1zM34,40h1v1h-1zM87,40h1v1h-1zM34,41h1v1h-1zM87,41h1v1h-1zM34,42h1v1h-1zM87,42h1v1h-1zM34,43h1v1h-1zM87,43h1v1h-1zM34,44h1v1h-1zM34,45h1v1h-1zM34,46h1v1h-1zM34,47h1v1h-1zM34,48h1v1h-1zM34,49h1v1h-1zM34,50h1v1h-1zM34,51h1v1h-1zM34,52h1v1h-1zM34,53h1v1h-1zM34,54h1v1h-1zM34,55h1v1h-1zM34,56h1v1h-1zM34,57h1v1h-1zM34,58h1v1h-1zM110,58h1v1h-1zM34,59h1v1h-1zM34,60h1v1h-1zM34,61h1v1h-1zM34,62h1v1h-1zM87,62h1v1h-1zM34,63h1v1h-1zM87,63h1v1h-1zM34,64h1v1h-1zM87,64h1v1h-1zM34,65h1v1h-1zM87,65h1v1h-1zM34,66h1v1h-1zM87,66h1v1h-1z" fill="#e1112c" opacity="0.57"/>
  <path d="M42,3h1v1h-1zM33,22h1v1h-1z" fill="#e4102b" opacity="0.25"/>
  <path d="M43,3h1v1h-1zM56,7h1v1h-1zM90,18h1v1h-1zM72,30h1v1h-1zM8,57h1v1h-1z" fill="#e2112c" opacity="0.86"/>
  <path d="M65,3h1v1h-1zM62,9h1v1h-1zM74,14h1v1h-1zM88,15h1v1h-1zM91,19h1v1h-1zM41,22h1v1h-1zM25,41h1v1h-1zM26,42h1v1h-1zM116,43h1v1h-1zM52,46h1v1h-1zM118,46h1v1h-1zM58,51h1v1h-1zM49,52h1v1h-1zM21,59h1v1h-1zM55,59h1v1h-1zM3,61h1v1h-1zM27,61h1v1h-1zM57,62h1v1h-1zM59,65h1v1h-1z" fill="#e2112c" opacity="1.00"/>
  <path d="M66,3h1v1h-1zM67,23h1v1h-1zM72,44h1v1h-1zM50,51h1v1h-1z" fill="#e2112d" opacity="0.65"/>
  <path d="M67,3h1v1h-1zM23,66h1v1h-1z" fill="#d90d26" opacity="0.08"/>
  <path d="M87,3h1v1h-1zM89,6h1v1h-1zM21,13h1v1h-1zM126,13h1v1h-1zM67,16h1v1h-1zM21,19h1v1h-1zM41,19h1v1h-1zM49,25h1v1h-1zM50,26h1v1h-1zM53,39h1v1h-1zM3,43h1v1h-1zM27,43h1v1h-1zM19,44h1v1h-1zM41,58h1v1h-1zM11,60h1v1h-1zM73,61h1v1h-1zM74,61h1v1h-1zM75,61h1v1h-1zM76,61h1v1h-1zM77,61h1v1h-1zM78,61h1v1h-1zM79,61h1v1h-1zM80,61h1v1h-1zM81,61h1v1h-1zM82,61h1v1h-1zM83,61h1v1h-1zM84,61h1v1h-1zM85,61h1v1h-1zM86,61h1v1h-1zM15,67h1v1h-1z" fill="#e2122d" opacity="0.96"/>
  <path d="M88,3h1v1h-1zM48,37h1v1h-1zM131,37h1v1h-1z" fill="#e30e29" opacity="0.15"/>
  <path d="M106,3h1v1h-1zM104,6h1v1h-1zM53,7h1v1h-1zM34,15h1v1h-1zM10,19h1v1h-1zM11,19h1v1h-1zM12,19h1v1h-1zM13,19h1v1h-1zM14,19h1v1h-1zM15,19h1v1h-1zM16,19h1v1h-1zM17,19h1v1h-1zM18,19h1v1h-1zM19,19h1v1h-1zM20,19h1v1h-1zM102,20h1v1h-1zM1,46h1v1h-1zM52,47h1v1h-1z" fill="#e2112c" opacity="0.82"/>
  <path d="M113,3h1v1h-1zM113,4h1v1h-1z" fill="#dd112a" opacity="0.12"/>
  <path d="M41,4h1v1h-1zM20,59h1v1h-1zM50,63h1v1h-1z" fill="#e2112c" opacity="0.52"/>
  <path d="M67,4h1v1h-1z" fill="#e2112d" opacity="0.90"/>
  <path d="M88,4h1v1h-1zM42,52h1v1h-1zM43,52h1v1h-1zM44,52h1v1h-1zM45,52h1v1h-1zM46,52h1v1h-1z" fill="#e2112d" opacity="0.76"/>
  <path d="M105,4h1v1h-1z" fill="#e3122b" opacity="0.51"/>
  <path d="M69,5h1v1h-1zM1,45h1v1h-1zM120,51h1v1h-1z" fill="#e3112c" opacity="0.36"/>
  <path d="M89,5h1v1h-1z" fill="#e1102c" opacity="0.44"/>
  <path d="M104,5h1v1h-1zM63,11h1v1h-1zM92,67h1v1h-1z" fill="#e0102a" opacity="0.19"/>
  <path d="M105,5h1v1h-1zM114,41h1v1h-1zM72,61h1v1h-1z" fill="#e1112d" opacity="0.98"/>
  <path d="M113,5h1v1h-1zM113,6h1v1h-1zM113,7h1v1h-1z" fill="#e5122c" opacity="0.11"/>
  <path d="M39,6h1v1h-1z" fill="#e3122b" opacity="0.74"/>
  <path d="M70,6h1v1h-1zM27,42h1v1h-1zM105,67h1v1h-1z" fill="#e2102c" opacity="0.38"/>
  <path d="M90,6h1v1h-1zM72,8h1v1h-1zM108,59h1v1h-1z" fill="#e20f2c" opacity="0.14"/>
  <path d="M38,7h1v1h-1zM93,23h1v1h-1z" fill="#e1102c" opacity="0.67"/>
  <path d="M52,7h1v1h-1zM63,10h1v1h-1zM95,15h1v1h-1zM41,21h1v1h-1zM22,47h1v1h-1zM16,67h1v1h-1z" fill="#e1112c" opacity="0.95"/>
  <path d="M54,7h1v1h-1zM90,7h1v1h-1zM21,30h1v1h-1zM81,30h1v1h-1zM52,48h1v1h-1zM0,55h1v1h-1zM109,66h1v1h-1z" fill="#e2112c" opacity="0.75"/>
  <path d="M55,7h1v1h-1zM118,59h1v1h-1z" fill="#e2112c" opacity="0.77"/>
  <path d="M57,7h1v1h-1zM70,7h1v1h-1zM75,20h1v1h-1zM50,44h1v1h-1zM117,60h1v1h-1zM52,65h1v1h-1z" fill="#e2112d" opacity="0.99"/>
  <path d="M71,7h1v1h-1zM22,38h1v1h-1zM5,40h1v1h-1z" fill="#e1112c" opacity="0.30"/>
  <path d="M126,7h1v1h-1zM109,45h1v1h-1zM54,57h1v1h-1z" fill="#e2112d" opacity="0.87"/>
  <path d="M127,7h1v1h-1z" fill="#e3112d" opacity="0.71"/>
  <path d="M128,7h1v1h-1zM129,7h1v1h-1zM130,7h1v1h-1zM131,7h1v1h-1zM132,7h1v1h-1zM133,7h1v1h-1zM134,7h1v1h-1zM135,7h1v1h-1zM136,7h1v1h-1zM137,7h1v1h-1zM138,7h1v1h-1zM139,7h1v1h-1zM140,7h1v1h-1zM0,49h1v1h-1zM9,58h1v1h-1z" fill="#e3112c" opacity="0.71"/>
  <path d="M141,7h1v1h-1zM73,10h1v1h-1zM74,12h1v1h-1zM159,44h1v1h-1z" fill="#e1112a" opacity="0.40"/>
  <path d="M37,8h1v1h-1zM65,13h1v1h-1zM97,16h1v1h-1zM88,24h1v1h-1zM88,25h1v1h-1zM0,48h1v1h-1zM23,48h1v1h-1zM24,48h1v1h-1zM25,48h1v1h-1zM26,48h1v1h-1zM27,48h1v1h-1zM28,48h1v1h-1zM29,48h1v1h-1z" fill="#e2112c" opacity="0.48"/>
  <path d="M49,8h1v1h-1zM119,48h1v1h-1zM17,67h1v1h-1z" fill="#e1112d" opacity="0.87"/>
  <path d="M50,8h1v1h-1zM99,13h1v1h-1zM103,19h1v1h-1zM127,24h1v1h-1zM128,24h1v1h-1zM129,24h1v1h-1zM130,24h1v1h-1zM131,24h1v1h-1zM132,24h1v1h-1zM133,24h1v1h-1zM134,24h1v1h-1zM135,24h1v1h-1zM136,24h1v1h-1zM137,24h1v1h-1zM138,24h1v1h-1zM139,24h1v1h-1zM140,24h1v1h-1zM48,60h1v1h-1z" fill="#e2102b" opacity="0.49"/>
  <path d="M51,8h1v1h-1z" fill="#e3112d" opacity="0.18"/>
  <path d="M57,8h1v1h-1zM17,60h1v1h-1z" fill="#e80017" opacity="0.04"/>
  <path d="M58,8h1v1h-1z" fill="#e3112d" opacity="0.29"/>
  <path d="M59,8h1v1h-1zM29,46h1v1h-1zM25,64h1v1h-1z" fill="#e3112c" opacity="0.64"/>
  <path d="M60,8h1v1h-1z" fill="#e1112c" opacity="0.97"/>
  <path d="M91,8h1v1h-1zM75,15h1v1h-1zM52,38h1v1h-1zM115,41h1v1h-1zM93,67h1v1h-1zM94,67h1v1h-1zM95,67h1v1h-1zM96,67h1v1h-1zM97,67h1v1h-1zM98,67h1v1h-1zM99,67h1v1h-1zM100,67h1v1h-1zM101,67h1v1h-1zM102,67h1v1h-1zM103,67h1v1h-1zM125,67h1v1h-1zM126,67h1v1h-1zM127,67h1v1h-1zM128,67h1v1h-1zM129,67h1v1h-1zM130,67h1v1h-1z" fill="#e2112b" opacity="0.42"/>
  <path d="M102,8h1v1h-1zM50,27h1v1h-1zM35,37h1v1h-1zM36,37h1v1h-1zM37,37h1v1h-1zM38,37h1v1h-1zM39,37h1v1h-1zM40,37h1v1h-1zM41,37h1v1h-1zM42,37h1v1h-1zM43,37h1v1h-1zM44,37h1v1h-1zM45,37h1v1h-1zM46,37h1v1h-1zM93,37h1v1h-1zM94,37h1v1h-1zM95,37h1v1h-1zM96,37h1v1h-1zM97,37h1v1h-1zM98,37h1v1h-1zM99,37h1v1h-1zM100,37h1v1h-1zM101,37h1v1h-1zM102,37h1v1h-1zM103,37h1v1h-1zM136,37h1v1h-1zM137,37h1v1h-1zM138,37h1v1h-1zM139,37h1v1h-1zM140,37h1v1h-1zM141,37h1v1h-1zM142,37h1v1h-1zM143,37h1v1h-1zM144,37h1v1h-1zM145,37h1v1h-1zM146,37h1v1h-1zM147,37h1v1h-1zM148,37h1v1h-1zM149,37h1v1h-1zM150,37h1v1h-1zM151,37h1v1h-1zM152,37h1v1h-1zM153,37h1v1h-1zM154,37h1v1h-1zM155,37h1v1h-1zM156,37h1v1h-1zM157,37h1v1h-1zM158,37h1v1h-1zM24,39h1v1h-1z" fill="#e4102b" opacity="0.18"/>
  <path d="M113,8h1v1h-1z" fill="#dc122c" opacity="0.11"/>
  <path d="M126,8h1v1h-1zM126,9h1v1h-1zM126,10h1v1h-1zM126,11h1v1h-1zM126,12h1v1h-1zM72,45h1v1h-1zM72,46h1v1h-1zM72,47h1v1h-1zM72,48h1v1h-1zM72,56h1v1h-1zM72,57h1v1h-1zM72,58h1v1h-1zM72,59h1v1h-1zM72,60h1v1h-1z" fill="#e2122d" opacity="0.56"/>
  <path d="M47,9h1v1h-1zM10,45h1v1h-1z" fill="#e2112c" opacity="0.92"/>
  <path d="M48,9h1v1h-1z" fill="#e10f2b" opacity="0.40"/>
  <path d="M60,9h1v1h-1zM113,14h1v1h-1zM113,15h1v1h-1zM113,16h1v1h-1zM9,30h1v1h-1zM34,37h1v1h-1zM19,45h1v1h-1zM120,49h1v1h-1z" fill="#e30926" opacity="0.11"/>
  <path d="M61,9h1v1h-1z" fill="#e1112c" opacity="0.63"/>
  <path d="M72,9h1v1h-1zM126,24h1v1h-1z" fill="#e1112c" opacity="0.78"/>
  <path d="M91,9h1v1h-1zM117,44h1v1h-1zM41,52h1v1h-1zM113,64h1v1h-1z" fill="#e2122c" opacity="0.95"/>
  <path d="M92,9h1v1h-1zM118,44h1v1h-1zM135,44h1v1h-1z" fill="#e00f27" opacity="0.13"/>
  <path d="M102,9h1v1h-1zM49,61h1v1h-1z" fill="#e1112c" opacity="0.81"/>
  <path d="M113,9h1v1h-1zM113,10h1v1h-1zM113,11h1v1h-1z" fill="#e4122e" opacity="0.11"/>
  <path d="M36,10h1v1h-1z" fill="#e2122c" opacity="0.79"/>
  <path d="M62,10h1v1h-1zM42,17h1v1h-1zM8,56h1v1h-1zM2,61h1v1h-1zM106,67h1v1h-1z" fill="#e2102a" opacity="0.31"/>
  <path d="M92,10h1v1h-1zM18,67h1v1h-1z" fill="#e3122d" opacity="0.74"/>
  <path d="M101,10h1v1h-1zM59,46h1v1h-1z" fill="#e3102d" opacity="0.49"/>
  <path d="M35,11h1v1h-1zM47,44h1v1h-1zM18,60h1v1h-1z" fill="#e10f2a" opacity="0.33"/>
  <path d="M45,11h1v1h-1zM26,63h1v1h-1z" fill="#e2102b" opacity="0.69"/>
  <path d="M73,11h1v1h-1z" fill="#e1122c" opacity="0.90"/>
  <path d="M93,11h1v1h-1zM4,41h1v1h-1z" fill="#df112c" opacity="0.41"/>
  <path d="M100,11h1v1h-1zM126,37h1v1h-1zM127,37h1v1h-1zM128,37h1v1h-1zM129,37h1v1h-1zM130,37h1v1h-1zM2,43h1v1h-1z" fill="#e3112c" opacity="0.18"/>
  <path d="M35,12h1v1h-1zM2,44h1v1h-1z" fill="#e2112c" opacity="0.80"/>
  <path d="M44,12h1v1h-1zM104,17h1v1h-1z" fill="#e3112c" opacity="0.78"/>
  <path d="M64,12h1v1h-1z" fill="#e10d2a" opacity="0.24"/>
  <path d="M93,12h1v1h-1zM43,13h1v1h-1zM56,41h1v1h-1zM58,44h1v1h-1zM8,47h1v1h-1z" fill="#e1122c" opacity="0.95"/>
  <path d="M94,12h1v1h-1zM44,13h1v1h-1zM112,51h1v1h-1z" fill="#de1029" opacity="0.12"/>
  <path d="M100,12h1v1h-1zM75,17h1v1h-1zM111,47h1v1h-1zM19,60h1v1h-1z" fill="#e2112d" opacity="0.80"/>
  <path d="M113,12h1v1h-1z" fill="#e4092e" opacity="0.11"/>
  <path d="M34,13h1v1h-1zM102,21h1v1h-1z" fill="#e20f27" opacity="0.20"/>
  <path d="M74,13h1v1h-1z" fill="#e1112c" opacity="0.80"/>
  <path d="M94,13h1v1h-1z" fill="#e1122c" opacity="0.73"/>
  <path d="M113,13h1v1h-1z" fill="#e31326" opacity="0.11"/>
  <path d="M127,13h1v1h-1zM128,13h1v1h-1zM129,13h1v1h-1zM130,13h1v1h-1zM131,13h1v1h-1zM132,13h1v1h-1zM133,13h1v1h-1zM134,13h1v1h-1zM135,13h1v1h-1zM136,13h1v1h-1zM137,13h1v1h-1zM138,13h1v1h-1z" fill="#e2122c" opacity="0.90"/>
  <path d="M139,13h1v1h-1zM75,16h1v1h-1zM17,37h1v1h-1zM7,50h1v1h-1z" fill="#e1112c" opacity="0.64"/>
  <path d="M34,14h1v1h-1zM89,17h1v1h-1zM0,56h1v1h-1zM3,62h1v1h-1z" fill="#e1112c" opacity="0.54"/>
  <path d="M43,14h1v1h-1zM45,29h1v1h-1z" fill="#e10f2a" opacity="0.47"/>
  <path d="M66,14h1v1h-1zM7,65h1v1h-1z" fill="#e2122c" opacity="0.85"/>
  <path d="M75,14h1v1h-1z" fill="#dc0e2a" opacity="0.14"/>
  <path d="M95,14h1v1h-1z" fill="#e10f2a" opacity="0.40"/>
  <path d="M98,14h1v1h-1zM8,38h1v1h-1zM61,67h1v1h-1z" fill="#e31128" opacity="0.18"/>
  <path d="M99,14h1v1h-1zM103,18h1v1h-1zM24,40h1v1h-1zM0,53h1v1h-1zM48,59h1v1h-1zM111,65h1v1h-1z" fill="#e2112c" opacity="0.97"/>
  <path d="M139,14h1v1h-1zM139,15h1v1h-1zM139,16h1v1h-1zM139,17h1v1h-1zM139,18h1v1h-1zM51,38h1v1h-1zM85,50h1v1h-1zM85,51h1v1h-1zM85,52h1v1h-1zM85,53h1v1h-1zM85,54h1v1h-1z" fill="#e3112c" opacity="0.70"/>
  <path d="M43,15h1v1h-1z" fill="#d4002a" opacity="0.05"/>
  <path d="M66,15h1v1h-1zM112,39h1v1h-1z" fill="#e30f2c" opacity="0.39"/>
  <path d="M96,15h1v1h-1z" fill="#e5092c" opacity="0.11"/>
  <path d="M98,15h1v1h-1z" fill="#e1102c" opacity="0.80"/>
  <path d="M33,16h1v1h-1zM9,57h1v1h-1zM55,57h1v1h-1z" fill="#ea002a" opacity="0.05"/>
  <path d="M34,16h1v1h-1zM5,41h1v1h-1z" fill="#e3112d" opacity="0.99"/>
  <path d="M42,16h1v1h-1zM91,20h1v1h-1zM57,61h1v1h-1z" fill="#e1112b" opacity="0.60"/>
  <path d="M66,16h1v1h-1zM99,26h1v1h-1zM1,60h1v1h-1z" fill="#e8002e" opacity="0.04"/>
  <path d="M88,16h1v1h-1z" fill="#e2112b" opacity="0.65"/>
  <path d="M96,16h1v1h-1zM126,19h1v1h-1z" fill="#e2112c" opacity="0.72"/>
  <path d="M105,16h1v1h-1zM67,17h1v1h-1zM75,23h1v1h-1z" fill="#e1112c" opacity="0.71"/>
  <path d="M33,17h1v1h-1zM57,41h1v1h-1zM118,60h1v1h-1z" fill="#e20e2b" opacity="0.21"/>
  <path d="M88,17h1v1h-1z" fill="#e2122c" opacity="0.45"/>
  <path d="M105,17h1v1h-1zM112,54h1v1h-1zM58,62h1v1h-1z" fill="#df0e2b" opacity="0.28"/>
  <path d="M113,17h1v1h-1z" fill="#d90926" opacity="0.11"/>
  <path d="M33,18h1v1h-1zM19,37h1v1h-1zM135,38h1v1h-1zM135,39h1v1h-1zM135,40h1v1h-1zM135,41h1v1h-1zM135,42h1v1h-1zM135,43h1v1h-1zM42,44h1v1h-1zM43,44h1v1h-1zM44,44h1v1h-1zM45,44h1v1h-1zM46,44h1v1h-1zM41,67h1v1h-1z" fill="#e3102c" opacity="0.32"/>
  <path d="M42,18h1v1h-1zM113,26h1v1h-1z" fill="#ea0b2a" opacity="0.09"/>
  <path d="M75,18h1v1h-1z" fill="#e2112d" opacity="0.92"/>
  <path d="M88,18h1v1h-1z" fill="#e0112c" opacity="0.46"/>
  <path d="M105,18h1v1h-1zM105,19h1v1h-1zM105,20h1v1h-1zM105,21h1v1h-1zM105,22h1v1h-1zM105,23h1v1h-1zM105,24h1v1h-1zM105,25h1v1h-1zM105,26h1v1h-1zM105,27h1v1h-1zM105,28h1v1h-1zM105,29h1v1h-1z" fill="#e10f2d" opacity="0.27"/>
  <path d="M113,18h1v1h-1zM113,19h1v1h-1zM113,20h1v1h-1zM113,21h1v1h-1zM64,28h1v1h-1zM124,37h1v1h-1zM6,39h1v1h-1z" fill="#e20a27" opacity="0.10"/>
  <path d="M9,19h1v1h-1zM51,64h1v1h-1z" fill="#e2122c" opacity="0.84"/>
  <path d="M33,19h1v1h-1z" fill="#e2102d" opacity="0.38"/>
  <path d="M67,19h1v1h-1zM61,24h1v1h-1z" fill="#e4102b" opacity="0.37"/>
  <path d="M75,19h1v1h-1z" fill="#e2112c" opacity="0.98"/>
  <path d="M88,19h1v1h-1zM67,22h1v1h-1zM105,44h1v1h-1z" fill="#e1112b" opacity="0.46"/>
  <path d="M90,19h1v1h-1z" fill="#e0102b" opacity="0.25"/>
  <path d="M127,19h1v1h-1zM128,19h1v1h-1zM129,19h1v1h-1zM130,19h1v1h-1zM131,19h1v1h-1zM132,19h1v1h-1zM133,19h1v1h-1zM134,19h1v1h-1zM135,19h1v1h-1zM136,19h1v1h-1zM137,19h1v1h-1zM138,19h1v1h-1zM144,67h1v1h-1z" fill="#e1112c" opacity="0.36"/>
  <path d="M139,19h1v1h-1zM87,67h1v1h-1z" fill="#e3102c" opacity="0.25"/>
  <path d="M33,20h1v1h-1zM106,60h1v1h-1z" fill="#e00f2b" opacity="0.39"/>
  <path d="M41,20h1v1h-1zM74,26h1v1h-1z" fill="#e3112d" opacity="0.92"/>
  <path d="M67,20h1v1h-1zM112,50h1v1h-1z" fill="#e00f2b" opacity="0.33"/>
  <path d="M88,20h1v1h-1zM88,21h1v1h-1z" fill="#e1112d" opacity="0.47"/>
  <path d="M126,20h1v1h-1zM126,21h1v1h-1zM126,22h1v1h-1zM126,23h1v1h-1zM59,49h1v1h-1z" fill="#e3122c" opacity="0.56"/>
  <path d="M33,21h1v1h-1z" fill="#e20e2b" opacity="0.35"/>
  <path d="M67,21h1v1h-1z" fill="#e3112a" opacity="0.35"/>
  <path d="M75,21h1v1h-1zM107,38h1v1h-1z" fill="#e2112c" opacity="0.95"/>
  <path d="M91,21h1v1h-1zM49,37h1v1h-1z" fill="#ee1122" opacity="0.06"/>
  <path d="M92,21h1v1h-1zM1,58h1v1h-1zM2,60h1v1h-1zM60,66h1v1h-1z" fill="#e2112d" opacity="0.89"/>
  <path d="M42,22h1v1h-1z" fill="#ed0024" opacity="0.05"/>
  <path d="M88,22h1v1h-1z" fill="#e3112d" opacity="0.47"/>
  <path d="M92,22h1v1h-1z" fill="#df1029" opacity="0.31"/>
  <path d="M101,22h1v1h-1z" fill="#e3112d" opacity="0.54"/>
  <path d="M113,22h1v1h-1zM113,23h1v1h-1zM113,24h1v1h-1zM113,25h1v1h-1zM112,53h1v1h-1z" fill="#e00a29" opacity="0.10"/>
  <path d="M33,23h1v1h-1z" fill="#e40924" opacity="0.11"/>
  <path d="M49,23h1v1h-1zM50,23h1v1h-1zM51,23h1v1h-1zM52,23h1v1h-1zM53,23h1v1h-1zM54,23h1v1h-1zM55,23h1v1h-1zM56,23h1v1h-1zM57,23h1v1h-1zM58,23h1v1h-1zM59,23h1v1h-1zM60,23h1v1h-1zM75,24h1v1h-1z" fill="#e1122b" opacity="0.51"/>
  <path d="M61,23h1v1h-1z" fill="#e0112a" opacity="0.35"/>
  <path d="M88,23h1v1h-1z" fill="#e1112c" opacity="0.47"/>
  <path d="M100,23h1v1h-1zM41,44h1v1h-1z" fill="#e3122d" opacity="0.85"/>
  <path d="M34,24h1v1h-1zM119,56h1v1h-1z" fill="#e1122c" opacity="0.91"/>
  <path d="M42,24h1v1h-1z" fill="#e2122d" opacity="0.51"/>
  <path d="M48,24h1v1h-1z" fill="#e2112b" opacity="0.72"/>
  <path d="M67,24h1v1h-1zM65,28h1v1h-1zM2,30h1v1h-1zM3,30h1v1h-1zM4,30h1v1h-1zM5,30h1v1h-1zM6,30h1v1h-1zM7,30h1v1h-1zM8,30h1v1h-1zM22,30h1v1h-1zM23,30h1v1h-1zM24,30h1v1h-1zM25,30h1v1h-1zM26,30h1v1h-1zM27,30h1v1h-1zM37,30h1v1h-1zM38,30h1v1h-1zM39,30h1v1h-1zM40,30h1v1h-1zM41,30h1v1h-1zM42,30h1v1h-1zM43,30h1v1h-1zM44,30h1v1h-1zM64,30h1v1h-1zM65,30h1v1h-1zM66,30h1v1h-1zM67,30h1v1h-1zM68,30h1v1h-1zM69,30h1v1h-1zM70,30h1v1h-1zM71,30h1v1h-1zM106,30h1v1h-1zM107,30h1v1h-1zM108,30h1v1h-1zM109,30h1v1h-1zM110,30h1v1h-1zM111,30h1v1h-1zM112,30h1v1h-1z" fill="#e2122c" opacity="0.91"/>
  <path d="M93,24h1v1h-1zM57,28h1v1h-1zM73,30h1v1h-1zM87,37h1v1h-1z" fill="#de0b2c" opacity="0.09"/>
  <path d="M141,24h1v1h-1z" fill="#df0e2a" opacity="0.28"/>
  <path d="M34,25h1v1h-1z" fill="#e2112c" opacity="0.65"/>
  <path d="M42,25h1v1h-1zM43,27h1v1h-1zM7,55h1v1h-1zM22,57h1v1h-1z" fill="#e2112c" opacity="0.87"/>
  <path d="M48,25h1v1h-1zM66,37h1v1h-1zM67,37h1v1h-1zM68,37h1v1h-1zM69,37h1v1h-1zM70,37h1v1h-1zM71,37h1v1h-1zM72,37h1v1h-1zM73,37h1v1h-1zM74,37h1v1h-1zM75,37h1v1h-1zM76,37h1v1h-1zM77,37h1v1h-1zM78,37h1v1h-1zM79,37h1v1h-1zM80,37h1v1h-1zM81,37h1v1h-1zM82,37h1v1h-1zM83,37h1v1h-1zM84,37h1v1h-1zM85,37h1v1h-1zM86,37h1v1h-1z" fill="#e00c2c" opacity="0.16"/>
  <path d="M60,25h1v1h-1z" fill="#e1112b" opacity="0.76"/>
  <path d="M66,25h1v1h-1zM17,44h1v1h-1zM20,67h1v1h-1z" fill="#e00e2a" opacity="0.29"/>
  <path d="M75,25h1v1h-1z" fill="#df102c" opacity="0.25"/>
  <path d="M94,25h1v1h-1z" fill="#e1102b" opacity="0.37"/>
  <path d="M99,25h1v1h-1zM112,55h1v1h-1zM55,58h1v1h-1z" fill="#e2112c" opacity="0.59"/>
  <path d="M141,25h1v1h-1zM141,26h1v1h-1zM58,27h1v1h-1zM141,27h1v1h-1zM141,28h1v1h-1zM141,29h1v1h-1z" fill="#e2112d" opacity="0.58"/>
  <path d="M34,26h1v1h-1z" fill="#e2122c" opacity="0.34"/>
  <path d="M43,26h1v1h-1zM29,59h1v1h-1z" fill="#e10f2a" opacity="0.34"/>
  <path d="M49,26h1v1h-1z" fill="#e4112c" opacity="0.29"/>
  <path d="M59,26h1v1h-1z" fill="#e3112c" opacity="0.82"/>
  <path d="M60,26h1v1h-1z" fill="#e80c23" opacity="0.09"/>
  <path d="M66,26h1v1h-1z" fill="#e1112c" opacity="0.75"/>
  <path d="M88,26h1v1h-1zM88,27h1v1h-1zM26,41h1v1h-1zM151,45h1v1h-1zM151,46h1v1h-1zM151,47h1v1h-1zM151,48h1v1h-1zM151,49h1v1h-1zM151,50h1v1h-1zM151,51h1v1h-1zM151,52h1v1h-1zM151,53h1v1h-1zM151,54h1v1h-1zM151,55h1v1h-1zM151,56h1v1h-1zM151,57h1v1h-1zM151,58h1v1h-1zM151,59h1v1h-1zM151,60h1v1h-1zM151,61h1v1h-1zM151,62h1v1h-1zM151,63h1v1h-1zM151,64h1v1h-1zM151,65h1v1h-1zM151,66h1v1h-1z" fill="#e2102d" opacity="0.49"/>
  <path d="M95,26h1v1h-1zM83,44h1v1h-1zM84,44h1v1h-1zM27,56h1v1h-1zM105,60h1v1h-1z" fill="#e1112b" opacity="0.23"/>
  <path d="M44,27h1v1h-1zM59,44h1v1h-1zM110,47h1v1h-1zM52,67h1v1h-1z" fill="#e6001a" opacity="0.04"/>
  <path d="M51,27h1v1h-1zM47,52h1v1h-1z" fill="#e1112c" opacity="0.77"/>
  <path d="M59,27h1v1h-1zM30,56h1v1h-1z" fill="#d80027" opacity="0.05"/>
  <path d="M65,27h1v1h-1z" fill="#e21029" opacity="0.31"/>
  <path d="M74,27h1v1h-1zM54,39h1v1h-1z" fill="#e1102b" opacity="0.56"/>
  <path d="M35,28h1v1h-1zM109,38h1v1h-1z" fill="#e1112c" opacity="0.53"/>
  <path d="M44,28h1v1h-1zM13,37h1v1h-1z" fill="#e1102c" opacity="0.61"/>
  <path d="M53,28h1v1h-1z" fill="#e20f2c" opacity="0.45"/>
  <path d="M54,28h1v1h-1z" fill="#e3122c" opacity="0.57"/>
  <path d="M55,28h1v1h-1zM57,54h1v1h-1z" fill="#e2112c" opacity="0.55"/>
  <path d="M56,28h1v1h-1z" fill="#e0102c" opacity="0.38"/>
  <path d="M74,28h1v1h-1zM22,56h1v1h-1z" fill="#e10f25" opacity="0.13"/>
  <path d="M88,28h1v1h-1z" fill="#e1102d" opacity="0.49"/>
  <path d="M35,29h1v1h-1zM62,30h1v1h-1zM106,37h1v1h-1zM53,38h1v1h-1z" fill="#e40d28" opacity="0.07"/>
  <path d="M63,29h1v1h-1zM55,39h1v1h-1zM58,42h1v1h-1zM109,46h1v1h-1zM61,66h1v1h-1z" fill="#df1020" opacity="0.06"/>
  <path d="M64,29h1v1h-1z" fill="#e1112d" opacity="0.81"/>
  <path d="M88,29h1v1h-1z" fill="#e1122c" opacity="0.50"/>
  <path d="M1,30h1v1h-1zM151,67h1v1h-1z" fill="#e30e2a" opacity="0.22"/>
  <path d="M28,30h1v1h-1zM104,44h1v1h-1z" fill="#e3102c" opacity="0.43"/>
  <path d="M36,30h1v1h-1zM59,50h1v1h-1zM114,64h1v1h-1zM35,67h1v1h-1zM36,67h1v1h-1zM37,67h1v1h-1zM38,67h1v1h-1zM39,67h1v1h-1zM40,67h1v1h-1zM53,67h1v1h-1zM54,67h1v1h-1zM55,67h1v1h-1zM56,67h1v1h-1zM57,67h1v1h-1zM58,67h1v1h-1zM59,67h1v1h-1zM60,67h1v1h-1zM104,67h1v1h-1z" fill="#e2112c" opacity="0.41"/>
  <path d="M45,30h1v1h-1z" fill="#e1112c" opacity="0.91"/>
  <path d="M63,30h1v1h-1zM109,59h1v1h-1z" fill="#e2112c" opacity="0.73"/>
  <path d="M82,30h1v1h-1zM83,30h1v1h-1zM84,30h1v1h-1zM85,30h1v1h-1zM86,30h1v1h-1zM87,30h1v1h-1z" fill="#e2112c" opacity="0.88"/>
  <path d="M88,30h1v1h-1z" fill="#e2102b" opacity="0.44"/>
  <path d="M105,30h1v1h-1z" fill="#de1029" opacity="0.24"/>
  <path d="M113,30h1v1h-1z" fill="#e70c24" opacity="0.08"/>
  <path d="M119,30h1v1h-1z" fill="#e1102c" opacity="0.73"/>
  <path d="M120,30h1v1h-1zM121,30h1v1h-1zM122,30h1v1h-1zM123,30h1v1h-1zM124,30h1v1h-1zM125,30h1v1h-1zM126,30h1v1h-1zM127,30h1v1h-1zM128,30h1v1h-1zM129,30h1v1h-1zM130,30h1v1h-1zM131,30h1v1h-1zM132,30h1v1h-1zM133,30h1v1h-1zM134,30h1v1h-1zM135,30h1v1h-1zM136,30h1v1h-1zM137,30h1v1h-1zM138,30h1v1h-1zM139,30h1v1h-1zM140,30h1v1h-1zM99,60h1v1h-1z" fill="#e2122d" opacity="0.91"/>
  <path d="M141,30h1v1h-1z" fill="#e2112c" opacity="0.53"/>
  <path d="M14,37h1v1h-1zM49,44h1v1h-1z" fill="#e1112c" opacity="0.70"/>
  <path d="M15,37h1v1h-1zM110,46h1v1h-1z" fill="#e1122d" opacity="0.74"/>
  <path d="M18,37h1v1h-1z" fill="#e4102b" opacity="0.51"/>
  <path d="M20,37h1v1h-1z" fill="#e30e2a" opacity="0.07"/>
  <path d="M47,37h1v1h-1zM104,37h1v1h-1z" fill="#e31127" opacity="0.18"/>
  <path d="M65,37h1v1h-1zM10,46h1v1h-1z" fill="#e71028" opacity="0.13"/>
  <path d="M105,37h1v1h-1z" fill="#de0d27" opacity="0.15"/>
  <path d="M125,37h1v1h-1zM159,37h1v1h-1zM10,67h1v1h-1z" fill="#de102b" opacity="0.18"/>
  <path d="M135,37h1v1h-1zM59,63h1v1h-1z" fill="#dd1122" opacity="0.06"/>
  <path d="M9,38h1v1h-1z" fill="#e3112d" opacity="0.60"/>
  <path d="M10,38h1v1h-1zM23,65h1v1h-1z" fill="#e1112d" opacity="0.94"/>
  <path d="M65,38h1v1h-1zM65,39h1v1h-1zM65,40h1v1h-1zM65,41h1v1h-1zM65,42h1v1h-1zM65,43h1v1h-1zM65,44h1v1h-1zM65,45h1v1h-1zM65,46h1v1h-1zM65,47h1v1h-1zM65,48h1v1h-1zM65,49h1v1h-1zM65,50h1v1h-1zM65,51h1v1h-1zM65,52h1v1h-1zM65,53h1v1h-1zM65,54h1v1h-1zM65,55h1v1h-1zM65,56h1v1h-1zM65,57h1v1h-1zM65,58h1v1h-1zM65,59h1v1h-1zM65,60h1v1h-1zM65,61h1v1h-1zM65,62h1v1h-1zM65,63h1v1h-1zM65,64h1v1h-1zM65,65h1v1h-1zM65,66h1v1h-1z" fill="#e2122d" opacity="0.80"/>
  <path d="M92,38h1v1h-1zM92,39h1v1h-1zM92,40h1v1h-1zM92,41h1v1h-1zM92,42h1v1h-1zM92,43h1v1h-1zM92,44h1v1h-1zM92,45h1v1h-1zM92,46h1v1h-1zM92,47h1v1h-1zM92,48h1v1h-1zM92,49h1v1h-1zM92,50h1v1h-1zM92,51h1v1h-1zM92,52h1v1h-1zM92,53h1v1h-1zM92,54h1v1h-1zM92,55h1v1h-1zM92,56h1v1h-1zM92,57h1v1h-1zM92,58h1v1h-1zM92,59h1v1h-1zM92,60h1v1h-1zM92,61h1v1h-1zM92,62h1v1h-1zM92,63h1v1h-1zM92,64h1v1h-1zM92,65h1v1h-1zM92,66h1v1h-1z" fill="#e3112d" opacity="0.46"/>
  <path d="M110,38h1v1h-1zM78,44h1v1h-1zM51,65h1v1h-1z" fill="#e40e29" opacity="0.22"/>
  <path d="M124,38h1v1h-1zM124,39h1v1h-1zM124,40h1v1h-1zM124,41h1v1h-1zM124,42h1v1h-1zM124,43h1v1h-1zM124,44h1v1h-1zM124,45h1v1h-1zM124,46h1v1h-1zM124,47h1v1h-1zM124,48h1v1h-1zM124,49h1v1h-1zM124,50h1v1h-1zM124,51h1v1h-1zM124,52h1v1h-1zM124,53h1v1h-1zM124,54h1v1h-1zM124,55h1v1h-1zM124,56h1v1h-1zM124,57h1v1h-1zM124,58h1v1h-1zM124,59h1v1h-1zM124,60h1v1h-1zM87,61h1v1h-1zM124,61h1v1h-1zM124,62h1v1h-1zM124,63h1v1h-1zM124,64h1v1h-1zM124,65h1v1h-1zM124,66h1v1h-1z" fill="#e3112c" opacity="0.55"/>
  <path d="M131,38h1v1h-1zM131,39h1v1h-1zM131,40h1v1h-1zM131,41h1v1h-1zM131,42h1v1h-1zM131,43h1v1h-1zM131,44h1v1h-1zM131,45h1v1h-1zM131,46h1v1h-1zM131,47h1v1h-1zM131,48h1v1h-1zM131,49h1v1h-1zM131,50h1v1h-1zM131,51h1v1h-1zM131,52h1v1h-1zM131,53h1v1h-1zM131,54h1v1h-1zM131,55h1v1h-1zM131,56h1v1h-1zM131,57h1v1h-1zM131,58h1v1h-1zM131,59h1v1h-1zM131,60h1v1h-1zM131,61h1v1h-1zM131,62h1v1h-1zM131,63h1v1h-1zM131,64h1v1h-1zM131,65h1v1h-1zM131,66h1v1h-1z" fill="#e3112d" opacity="0.81"/>
  <path d="M7,39h1v1h-1z" fill="#e0112c" opacity="0.65"/>
  <path d="M8,39h1v1h-1zM4,42h1v1h-1zM0,52h1v1h-1z" fill="#e3112c" opacity="0.99"/>
  <path d="M23,39h1v1h-1z" fill="#e2112c" opacity="0.78"/>
  <path d="M111,39h1v1h-1zM13,67h1v1h-1z" fill="#e2112c" opacity="0.84"/>
  <path d="M25,40h1v1h-1z" fill="#e20f2c" opacity="0.41"/>
  <path d="M55,40h1v1h-1zM57,42h1v1h-1zM107,44h1v1h-1zM144,44h1v1h-1zM51,45h1v1h-1zM16,61h1v1h-1zM58,63h1v1h-1z" fill="#e2112c" opacity="0.89"/>
  <path d="M56,40h1v1h-1z" fill="#dd0e26" opacity="0.21"/>
  <path d="M114,40h1v1h-1zM74,44h1v1h-1zM75,44h1v1h-1z" fill="#df0e2a" opacity="0.22"/>
  <path d="M115,42h1v1h-1z" fill="#e2122c" opacity="1.00"/>
  <path d="M116,42h1v1h-1z" fill="#e0112c" opacity="0.48"/>
  <path d="M28,43h1v1h-1z" fill="#df0d2d" opacity="0.16"/>
  <path d="M117,43h1v1h-1zM120,53h1v1h-1z" fill="#e1102c" opacity="0.36"/>
  <path d="M13,44h1v1h-1zM1,59h1v1h-1z" fill="#e1112a" opacity="0.47"/>
  <path d="M15,44h1v1h-1zM16,44h1v1h-1zM59,51h1v1h-1z" fill="#e30e2a" opacity="0.14"/>
  <path d="M18,44h1v1h-1z" fill="#e0112c" opacity="0.58"/>
  <path d="M28,44h1v1h-1zM29,58h1v1h-1z" fill="#e2102c" opacity="0.73"/>
  <path d="M73,44h1v1h-1z" fill="#e30e2a" opacity="0.21"/>
  <path d="M76,44h1v1h-1zM77,44h1v1h-1z" fill="#df0e29" opacity="0.22"/>
  <path d="M79,44h1v1h-1z" fill="#e0122d" opacity="0.22"/>
  <path d="M80,44h1v1h-1z" fill="#e4122d" opacity="0.22"/>
  <path d="M81,44h1v1h-1zM82,44h1v1h-1zM23,56h1v1h-1zM24,56h1v1h-1zM25,56h1v1h-1zM124,67h1v1h-1z" fill="#e0122c" opacity="0.23"/>
  <path d="M85,44h1v1h-1zM86,44h1v1h-1zM29,45h1v1h-1zM28,56h1v1h-1zM119,58h1v1h-1zM34,67h1v1h-1z" fill="#e1112a" opacity="0.24"/>
  <path d="M87,44h1v1h-1z" fill="#e10f2d" opacity="0.13"/>
  <path d="M100,44h1v1h-1zM101,44h1v1h-1zM102,44h1v1h-1zM103,44h1v1h-1z" fill="#e1102c" opacity="0.43"/>
  <path d="M136,44h1v1h-1zM137,44h1v1h-1zM138,44h1v1h-1zM139,44h1v1h-1zM140,44h1v1h-1zM141,44h1v1h-1zM142,44h1v1h-1zM143,44h1v1h-1zM152,44h1v1h-1zM153,44h1v1h-1zM154,44h1v1h-1zM155,44h1v1h-1zM156,44h1v1h-1zM157,44h1v1h-1zM158,44h1v1h-1z" fill="#e1112d" opacity="0.40"/>
  <path d="M11,45h1v1h-1z" fill="#df112b" opacity="0.35"/>
  <path d="M41,45h1v1h-1zM41,46h1v1h-1zM41,47h1v1h-1zM41,48h1v1h-1zM41,49h1v1h-1zM41,50h1v1h-1zM41,51h1v1h-1zM41,59h1v1h-1zM41,60h1v1h-1zM41,61h1v1h-1zM41,62h1v1h-1zM41,63h1v1h-1zM41,64h1v1h-1zM41,65h1v1h-1zM41,66h1v1h-1z" fill="#e2122d" opacity="0.78"/>
  <path d="M59,45h1v1h-1z" fill="#e0112c" opacity="0.29"/>
  <path d="M99,45h1v1h-1zM99,46h1v1h-1zM99,47h1v1h-1zM99,48h1v1h-1zM99,49h1v1h-1zM99,50h1v1h-1zM99,51h1v1h-1zM99,52h1v1h-1zM99,53h1v1h-1zM99,54h1v1h-1zM99,55h1v1h-1zM99,56h1v1h-1zM99,57h1v1h-1zM99,58h1v1h-1zM99,59h1v1h-1z" fill="#e3122d" opacity="0.89"/>
  <path d="M108,45h1v1h-1z" fill="#e40f2a" opacity="0.33"/>
  <path d="M118,45h1v1h-1zM107,60h1v1h-1zM12,67h1v1h-1z" fill="#e2122c" opacity="0.68"/>
  <path d="M144,45h1v1h-1zM144,46h1v1h-1zM144,47h1v1h-1zM144,48h1v1h-1zM144,49h1v1h-1zM144,50h1v1h-1zM144,51h1v1h-1zM144,52h1v1h-1zM144,53h1v1h-1zM144,54h1v1h-1zM144,55h1v1h-1zM144,56h1v1h-1zM144,57h1v1h-1zM144,58h1v1h-1zM144,59h1v1h-1zM144,60h1v1h-1zM144,61h1v1h-1zM144,62h1v1h-1zM144,63h1v1h-1zM144,64h1v1h-1zM144,65h1v1h-1zM144,66h1v1h-1z" fill="#e3112c" opacity="0.81"/>
  <path d="M9,46h1v1h-1zM0,50h1v1h-1z" fill="#e1112c" opacity="0.87"/>
  <path d="M21,46h1v1h-1z" fill="#e3102b" opacity="0.74"/>
  <path d="M51,46h1v1h-1zM13,60h1v1h-1z" fill="#de0e2a" opacity="0.21"/>
  <path d="M119,46h1v1h-1z" fill="#e21129" opacity="0.17"/>
  <path d="M0,47h1v1h-1zM100,60h1v1h-1zM101,60h1v1h-1zM102,60h1v1h-1zM103,60h1v1h-1zM104,60h1v1h-1z" fill="#e4102a" opacity="0.19"/>
  <path d="M9,47h1v1h-1zM49,51h1v1h-1z" fill="#e40d28" opacity="0.15"/>
  <path d="M29,47h1v1h-1z" fill="#e3112c" opacity="0.95"/>
  <path d="M59,47h1v1h-1z" fill="#e2112c" opacity="0.60"/>
  <path d="M119,47h1v1h-1z" fill="#e1102c" opacity="0.56"/>
  <path d="M8,48h1v1h-1z" fill="#e4102b" opacity="0.44"/>
  <path d="M22,48h1v1h-1z" fill="#e2102d" opacity="0.31"/>
  <path d="M59,48h1v1h-1z" fill="#e2122b" opacity="0.62"/>
  <path d="M111,48h1v1h-1z" fill="#e70c2a" opacity="0.17"/>
  <path d="M112,48h1v1h-1zM17,61h1v1h-1z" fill="#e3112d" opacity="0.98"/>
  <path d="M72,49h1v1h-1z" fill="#e2122c" opacity="0.73"/>
  <path d="M73,49h1v1h-1zM74,49h1v1h-1zM75,49h1v1h-1zM76,49h1v1h-1zM77,49h1v1h-1zM78,49h1v1h-1zM79,49h1v1h-1zM80,49h1v1h-1zM81,49h1v1h-1zM82,49h1v1h-1zM83,49h1v1h-1zM84,49h1v1h-1zM120,52h1v1h-1z" fill="#e3122b" opacity="0.39"/>
  <path d="M85,49h1v1h-1zM28,61h1v1h-1z" fill="#e20f2c" opacity="0.27"/>
  <path d="M112,49h1v1h-1zM116,62h1v1h-1z" fill="#e2112c" opacity="0.66"/>
  <path d="M120,50h1v1h-1z" fill="#e10f29" opacity="0.27"/>
  <path d="M7,51h1v1h-1z" fill="#e2122d" opacity="0.45"/>
  <path d="M7,52h1v1h-1z" fill="#e2102a" opacity="0.38"/>
  <path d="M112,52h1v1h-1z" fill="#d40015" opacity="0.05"/>
  <path d="M7,53h1v1h-1z" fill="#e0112b" opacity="0.42"/>
  <path d="M58,53h1v1h-1z" fill="#e5112b" opacity="0.23"/>
  <path d="M0,54h1v1h-1z" fill="#e2122c" opacity="0.89"/>
  <path d="M7,54h1v1h-1z" fill="#e2102b" opacity="0.58"/>
  <path d="M120,54h1v1h-1z" fill="#e20e2b" opacity="0.28"/>
  <path d="M56,55h1v1h-1z" fill="#e1102c" opacity="0.64"/>
  <path d="M72,55h1v1h-1z" fill="#e2122d" opacity="0.95"/>
  <path d="M73,55h1v1h-1zM74,55h1v1h-1zM75,55h1v1h-1zM76,55h1v1h-1zM77,55h1v1h-1zM78,55h1v1h-1zM79,55h1v1h-1zM80,55h1v1h-1zM81,55h1v1h-1zM82,55h1v1h-1zM83,55h1v1h-1zM84,55h1v1h-1z" fill="#e2122d" opacity="0.90"/>
  <path d="M85,55h1v1h-1z" fill="#e2112c" opacity="0.63"/>
  <path d="M120,55h1v1h-1z" fill="#e70828" opacity="0.13"/>
  <path d="M26,56h1v1h-1z" fill="#e5122c" opacity="0.23"/>
  <path d="M54,56h1v1h-1zM14,61h1v1h-1zM108,66h1v1h-1z" fill="#e2122c" opacity="0.97"/>
  <path d="M55,56h1v1h-1z" fill="#e30f2b" opacity="0.46"/>
  <path d="M112,56h1v1h-1z" fill="#e3122c" opacity="0.95"/>
  <path d="M0,57h1v1h-1zM6,65h1v1h-1z" fill="#e10f2a" opacity="0.26"/>
  <path d="M30,57h1v1h-1z" fill="#dd0022" opacity="0.06"/>
  <path d="M111,57h1v1h-1z" fill="#e1112b" opacity="0.69"/>
  <path d="M21,58h1v1h-1z" fill="#e0102b" opacity="0.56"/>
  <path d="M10,59h1v1h-1z" fill="#e2112b" opacity="0.76"/>
  <path d="M11,59h1v1h-1z" fill="#e61029" opacity="0.12"/>
  <path d="M47,59h1v1h-1z" fill="#e10c2a" opacity="0.17"/>
  <path d="M56,59h1v1h-1z" fill="#e40f2a" opacity="0.26"/>
  <path d="M28,60h1v1h-1z" fill="#e1112c" opacity="0.84"/>
  <path d="M57,60h1v1h-1z" fill="#eb0027" opacity="0.05"/>
  <path d="M15,61h1v1h-1z" fill="#e3112c" opacity="0.88"/>
  <path d="M117,61h1v1h-1z" fill="#e3102b" opacity="0.51"/>
  <path d="M49,62h1v1h-1z" fill="#e5102a" opacity="0.19"/>
  <path d="M5,64h1v1h-1z" fill="#e2102b" opacity="0.51"/>
  <path d="M60,65h1v1h-1z" fill="#e00e2d" opacity="0.29"/>
  <path d="M113,65h1v1h-1z" fill="#db0924" opacity="0.11"/>
  <path d="M8,66h1v1h-1z" fill="#e30f2b" opacity="0.40"/>
  <path d="M21,66h1v1h-1z" fill="#e3112c" opacity="0.92"/>
  <path d="M22,66h1v1h-1z" fill="#e1112b" opacity="0.53"/>
  <path d="M52,66h1v1h-1z" fill="#e2102b" opacity="0.55"/>
  <path d="M111,66h1v1h-1z" fill="#e90b2c" opacity="0.09"/>
  <path d="M11,67h1v1h-1z" fill="#e1112b" opacity="0.47"/>
  <path d="M65,67h1v1h-1z" fill="#e2112b" opacity="0.35"/>
  <path d="M66,67h1v1h-1zM67,67h1v1h-1zM68,67h1v1h-1zM69,67h1v1h-1zM70,67h1v1h-1zM71,67h1v1h-1zM72,67h1v1h-1zM73,67h1v1h-1zM74,67h1v1h-1zM75,67h1v1h-1zM76,67h1v1h-1zM77,67h1v1h-1zM78,67h1v1h-1zM79,67h1v1h-1zM80,67h1v1h-1zM81,67h1v1h-1zM82,67h1v1h-1zM83,67h1v1h-1zM84,67h1v1h-1zM85,67h1v1h-1zM86,67h1v1h-1z" fill="#e1122b" opacity="0.44"/>
  <path d="M107,67h1v1h-1z" fill="#de0b27" opacity="0.18"/>
  <path d="M131,67h1v1h-1z" fill="#e1122c" opacity="0.34"/>
  <path d="M145,67h1v1h-1zM146,67h1v1h-1zM147,67h1v1h-1zM148,67h1v1h-1zM149,67h1v1h-1zM150,67h1v1h-1z" fill="#e2122d" opacity="0.44"/>
</svg>