<svg xmlns="http://www.w3.org/2000/svg" viewBox="0 0 160 34" width="100%" height="100%">
  <path d="M23,0h1v1h-1zM48,5h1v1h-1zM39,12h1v1h-1zM39,14h1v1h-1zM120,24h1v1h-1zM144,28h1v1h-1zM87,29h1v1h-1zM0,32h1v1h-1zM125,33h1v1h-1z" fill="#ff0000" opacity="0.18"/>
  <path d="M24,0h1v1h-1zM25,0h1v1h-1zM26,0h1v1h-1zM27,0h1v1h-1zM28,0h1v1h-1zM29,0h1v1h-1zM30,0h1v1h-1zM31,0h1v1h-1zM32,0h1v1h-1zM39,0h1v1h-1zM40,0h1v1h-1zM41,0h1v1h-1zM42,0h1v1h-1zM43,0h1v1h-1zM44,0h1v1h-1zM45,0h1v1h-1zM46,0h1v1h-1zM47,0h1v1h-1zM48,0h1v1h-1zM49,0h1v1h-1zM50,0h1v1h-1zM51,0h1v1h-1zM52,0h1v1h-1zM53,0h1v1h-1zM54,0h1v1h-1zM55,0h1v1h-1zM56,0h1v1h-1zM57,0h1v1h-1zM58,0h1v1h-1zM65,0h1v1h-1zM66,0h1v1h-1zM67,0h1v1h-1zM68,0h1v1h-1zM69,0h1v1h-1zM70,0h1v1h-1zM71,0h1v1h-1zM72,0h1v1h-1zM73,0h1v1h-1zM74,0h1v1h-1zM75,0h1v1h-1zM76,0h1v1h-1zM77,0h1v1h-1zM78,0h1v1h-1zM79,0h1v1h-1zM80,0h1v1h-1zM81,0h1v1h-1zM82,0h1v1h-1zM83,0h1v1h-1zM84,0h1v1h-1zM85,0h1v1h-1zM86,0h1v1h-1zM87,0h1v1h-1zM88,0h1v1h-1zM89,0h1v1h-1zM90,0h1v1h-1zM91,0h1v1h-1zM92,0h1v1h-1zM93,0h1v1h-1zM94,0h1v1h-1zM95,0h1v1h-1zM96,0h1v1h-1zM97,0h1v1h-1zM98,0h1v1h-1zM99,0h1v1h-1zM100,0h1v1h-1zM101,0h1v1h-1zM63,3h1v1h-1zM53,4h1v1h-1zM22,8h1v1h-1zM30,11h1v1h-1zM47,13h1v1h-1zM50,24h1v1h-1zM105,24h1v1h-1zM17,27h1v1h-1zM42,27h1v1h-1zM37,31h1v1h-1zM69,31h1v1h-1zM141,31h1v1h-1z" fill="#ff0000" opacity="0.96"/>
  <path d="M33,0h1v1h-1zM31,9h1v1h-1zM63,19h1v1h-1zM43,20h1v1h-1zM80,23h1v1h-1zM60,26h1v1h-1zM112,26h1v1h-1zM147,26h1v1h-1zM146,33h1v1h-1z" fill="#ff0000" opacity="0.42"/>
  <path d="M38,0h1v1h-1zM23,2h1v1h-1zM41,22h1v1h-1zM2,29h1v1h-1zM102,29h1v1h-1z" fill="#ff0000" opacity="0.63"/>
  <path d="M59,0h1v1h-1zM112,20h1v1h-1zM121,21h1v1h-1zM96,33h1v1h-1zM108,33h1v1h-1z" fill="#ff0000" opacity="0.61"/>
  <path d="M64,0h1v1h-1zM19,19h1v1h-1zM46,20h1v1h-1zM140,21h1v1h-1zM99,23h1v1h-1zM88,25h1v1h-1zM79,27h1v1h-1zM117,27h1v1h-1zM131,27h1v1h-1z" fill="#ff0000" opacity="0.44"/>
  <path d="M102,0h1v1h-1zM57,3h1v1h-1zM28,20h1v1h-1zM146,26h1v1h-1zM47,28h1v1h-1zM114,28h1v1h-1zM120,28h1v1h-1zM146,30h1v1h-1zM143,33h1v1h-1zM153,33h1v1h-1z" fill="#ff0000" opacity="0.94"/>
  <path d="M103,0h1v1h-1zM22,5h1v1h-1zM45,19h1v1h-1zM95,31h1v1h-1zM68,33h1v1h-1z" fill="#ff0000" opacity="0.30"/>
  <path d="M23,1h1v1h-1zM91,6h1v1h-1zM95,8h1v1h-1zM38,15h1v1h-1zM29,18h1v1h-1zM81,19h1v1h-1zM111,20h1v1h-1zM151,24h1v1h-1zM112,25h1v1h-1zM123,25h1v1h-1zM63,30h1v1h-1zM130,33h1v1h-1z" fill="#ff0000" opacity="0.40"/>
  <path d="M24,1h1v1h-1zM25,1h1v1h-1zM26,1h1v1h-1zM27,1h1v1h-1zM28,1h1v1h-1zM29,1h1v1h-1zM30,1h1v1h-1zM31,1h1v1h-1zM32,1h1v1h-1zM39,1h1v1h-1zM40,1h1v1h-1zM41,1h1v1h-1zM42,1h1v1h-1zM43,1h1v1h-1zM44,1h1v1h-1zM45,1h1v1h-1zM46,1h1v1h-1zM47,1h1v1h-1zM48,1h1v1h-1zM49,1h1v1h-1zM50,1h1v1h-1zM51,1h1v1h-1zM52,1h1v1h-1zM53,1h1v1h-1zM54,1h1v1h-1zM55,1h1v1h-1zM56,1h1v1h-1zM57,1h1v1h-1zM65,1h1v1h-1zM66,1h1v1h-1zM67,1h1v1h-1zM68,1h1v1h-1zM69,1h1v1h-1zM70,1h1v1h-1zM71,1h1v1h-1zM72,1h1v1h-1zM73,1h1v1h-1zM74,1h1v1h-1zM75,1h1v1h-1zM76,1h1v1h-1zM77,1h1v1h-1zM78,1h1v1h-1zM79,1h1v1h-1zM80,1h1v1h-1zM81,1h1v1h-1zM82,1h1v1h-1zM83,1h1v1h-1zM84,1h1v1h-1zM85,1h1v1h-1zM86,1h1v1h-1zM87,1h1v1h-1zM88,1h1v1h-1zM89,1h1v1h-1zM90,1h1v1h-1zM91,1h1v1h-1zM92,1h1v1h-1zM93,1h1v1h-1zM94,1h1v1h-1zM95,1h1v1h-1zM96,1h1v1h-1zM97,1h1v1h-1zM98,1h1v1h-1zM99,1h1v1h-1zM100,1h1v1h-1zM24,2h1v1h-1zM25,2h1v1h-1zM26,2h1v1h-1zM27,2h1v1h-1zM28,2h1v1h-1zM29,2h1v1h-1zM30,2h1v1h-1zM31,2h1v1h-1zM38,2h1v1h-1zM39,2h1v1h-1zM40,2h1v1h-1zM41,2h1v1h-1zM42,2h1v1h-1zM43,2h1v1h-1zM44,2h1v1h-1zM45,2h1v1h-1zM46,2h1v1h-1zM47,2h1v1h-1zM48,2h1v1h-1zM49,2h1v1h-1zM50,2h1v1h-1zM51,2h1v1h-1zM52,2h1v1h-1zM53,2h1v1h-1zM54,2h1v1h-1zM55,2h1v1h-1zM56,2h1v1h-1zM57,2h1v1h-1zM64,2h1v1h-1zM65,2h1v1h-1zM66,2h1v1h-1zM67,2h1v1h-1zM68,2h1v1h-1zM69,2h1v1h-1zM70,2h1v1h-1zM71,2h1v1h-1zM72,2h1v1h-1zM73,2h1v1h-1zM74,2h1v1h-1zM75,2h1v1h-1zM76,2h1v1h-1zM77,2h1v1h-1zM78,2h1v1h-1zM79,2h1v1h-1zM80,2h1v1h-1zM81,2h1v1h-1zM82,2h1v1h-1zM83,2h1v1h-1zM84,2h1v1h-1zM85,2h1v1h-1zM86,2h1v1h-1zM87,2h1v1h-1zM88,2h1v1h-1zM89,2h1v1h-1zM90,2h1v1h-1zM24,3h1v1h-1zM25,3h1v1h-1zM26,3h1v1h-1zM27,3h1v1h-1zM28,3h1v1h-1zM29,3h1v1h-1zM30,3h1v1h-1zM31,3h1v1h-1zM38,3h1v1h-1zM39,3h1v1h-1zM40,3h1v1h-1zM41,3h1v1h-1zM42,3h1v1h-1zM43,3h1v1h-1zM44,3h1v1h-1zM45,3h1v1h-1zM46,3h1v1h-1zM47,3h1v1h-1zM48,3h1v1h-1zM49,3h1v1h-1zM50,3h1v1h-1zM51,3h1v1h-1zM52,3h1v1h-1zM53,3h1v1h-1zM54,3h1v1h-1zM55,3h1v1h-1zM56,3h1v1h-1zM64,3h1v1h-1zM65,3h1v1h-1zM66,3h1v1h-1zM67,3h1v1h-1zM68,3h1v1h-1zM69,3h1v1h-1zM70,3h1v1h-1zM71,3h1v1h-1zM72,3h1v1h-1zM73,3h1v1h-1zM74,3h1v1h-1zM75,3h1v1h-1zM76,3h1v1h-1zM77,3h1v1h-1zM78,3h1v1h-1zM79,3h1v1h-1zM80,3h1v1h-1zM81,3h1v1h-1zM82,3h1v1h-1zM83,3h1v1h-1zM84,3h1v1h-1zM85,3h1v1h-1zM86,3h1v1h-1zM87,3h1v1h-1zM88,3h1v1h-1zM89,3h1v1h-1zM23,4h1v1h-1zM24,4h1v1h-1zM25,4h1v1h-1zM26,4h1v1h-1zM27,4h1v1h-1zM28,4h1v1h-1zM29,4h1v1h-1zM30,4h1v1h-1zM31,4h1v1h-1zM38,4h1v1h-1zM39,4h1v1h-1zM40,4h1v1h-1zM41,4h1v1h-1zM42,4h1v1h-1zM43,4h1v1h-1zM44,4h1v1h-1zM45,4h1v1h-1zM46,4h1v1h-1zM47,4h1v1h-1zM54,4h1v1h-1zM55,4h1v1h-1zM56,4h1v1h-1zM63,4h1v1h-1zM64,4h1v1h-1zM65,4h1v1h-1zM66,4h1v1h-1zM67,4h1v1h-1zM68,4h1v1h-1zM69,4h1v1h-1zM70,4h1v1h-1zM71,4h1v1h-1zM72,4h1v1h-1zM73,4h1v1h-1zM74,4h1v1h-1zM75,4h1v1h-1zM76,4h1v1h-1zM77,4h1v1h-1zM78,4h1v1h-1zM79,4h1v1h-1zM80,4h1v1h-1zM81,4h1v1h-1zM82,4h1v1h-1zM83,4h1v1h-1zM84,4h1v1h-1zM85,4h1v1h-1zM86,4h1v1h-1zM87,4h1v1h-1zM88,4h1v1h-1zM89,4h1v1h-1zM90,4h1v1h-1zM91,4h1v1h-1zM92,4h1v1h-1zM93,4h1v1h-1zM94,4h1v1h-1zM95,4h1v1h-1zM96,4h1v1h-1zM97,4h1v1h-1zM23,5h1v1h-1zM24,5h1v1h-1zM25,5h1v1h-1zM26,5h1v1h-1zM27,5h1v1h-1zM28,5h1v1h-1zM29,5h1v1h-1zM30,5h1v1h-1zM31,5h1v1h-1zM38,5h1v1h-1zM39,5h1v1h-1zM40,5h1v1h-1zM41,5h1v1h-1zM42,5h1v1h-1zM43,5h1v1h-1zM44,5h1v1h-1zM45,5h1v1h-1zM46,5h1v1h-1zM55,5h1v1h-1zM63,5h1v1h-1zM64,5h1v1h-1zM65,5h1v1h-1zM66,5h1v1h-1zM67,5h1v1h-1zM68,5h1v1h-1zM69,5h1v1h-1zM70,5h1v1h-1zM71,5h1v1h-1zM72,5h1v1h-1zM73,5h1v1h-1zM74,5h1v1h-1zM75,5h1v1h-1zM76,5h1v1h-1zM77,5h1v1h-1zM78,5h1v1h-1zM79,5h1v1h-1zM80,5h1v1h-1zM81,5h1v1h-1zM82,5h1v1h-1zM83,5h1v1h-1zM84,5h1v1h-1zM85,5h1v1h-1zM86,5h1v1h-1zM87,5h1v1h-1zM23,6h1v1h-1zM24,6h1v1h-1zM25,6h1v1h-1zM26,6h1v1h-1zM27,6h1v1h-1zM28,6h1v1h-1zM29,6h1v1h-1zM30,6h1v1h-1zM31,6h1v1h-1zM38,6h1v1h-1zM39,6h1v1h-1zM40,6h1v1h-1zM41,6h1v1h-1zM42,6h1v1h-1zM43,6h1v1h-1zM44,6h1v1h-1zM45,6h1v1h-1zM55,6h1v1h-1zM62,6h1v1h-1zM63,6h1v1h-1zM64,6h1v1h-1zM65,6h1v1h-1zM66,6h1v1h-1zM67,6h1v1h-1zM68,6h1v1h-1zM69,6h1v1h-1zM70,6h1v1h-1zM71,6h1v1h-1zM72,6h1v1h-1zM73,6h1v1h-1zM74,6h1v1h-1zM75,6h1v1h-1zM76,6h1v1h-1zM77,6h1v1h-1zM78,6h1v1h-1zM79,6h1v1h-1zM80,6h1v1h-1zM81,6h1v1h-1zM82,6h1v1h-1zM83,6h1v1h-1zM84,6h1v1h-1zM85,6h1v1h-1zM86,6h1v1h-1zM23,7h1v1h-1zM24,7h1v1h-1zM25,7h1v1h-1zM26,7h1v1h-1zM27,7h1v1h-1zM28,7h1v1h-1zM29,7h1v1h-1zM30,7h1v1h-1zM38,7h1v1h-1zM39,7h1v1h-1zM40,7h1v1h-1zM41,7h1v1h-1zM42,7h1v1h-1zM43,7h1v1h-1zM44,7h1v1h-1zM45,7h1v1h-1zM61,7h1v1h-1zM62,7h1v1h-1zM63,7h1v1h-1zM64,7h1v1h-1zM65,7h1v1h-1zM66,7h1v1h-1zM67,7h1v1h-1zM68,7h1v1h-1zM69,7h1v1h-1zM70,7h1v1h-1zM71,7h1v1h-1zM72,7h1v1h-1zM73,7h1v1h-1zM74,7h1v1h-1zM75,7h1v1h-1zM76,7h1v1h-1zM77,7h1v1h-1zM78,7h1v1h-1zM79,7h1v1h-1zM80,7h1v1h-1zM81,7h1v1h-1zM82,7h1v1h-1zM83,7h1v1h-1zM84,7h1v1h-1zM85,7h1v1h-1zM86,7h1v1h-1zM87,7h1v1h-1zM88,7h1v1h-1zM89,7h1v1h-1zM90,7h1v1h-1zM91,7h1v1h-1zM92,7h1v1h-1zM93,7h1v1h-1zM94,7h1v1h-1zM23,8h1v1h-1zM24,8h1v1h-1zM25,8h1v1h-1zM26,8h1v1h-1zM27,8h1v1h-1zM28,8h1v1h-1zM29,8h1v1h-1zM30,8h1v1h-1zM38,8h1v1h-1zM39,8h1v1h-1zM40,8h1v1h-1zM41,8h1v1h-1zM42,8h1v1h-1zM43,8h1v1h-1zM44,8h1v1h-1zM45,8h1v1h-1zM61,8h1v1h-1zM62,8h1v1h-1zM63,8h1v1h-1zM64,8h1v1h-1zM65,8h1v1h-1zM66,8h1v1h-1zM67,8h1v1h-1zM68,8h1v1h-1zM69,8h1v1h-1zM70,8h1v1h-1zM71,8h1v1h-1zM72,8h1v1h-1zM73,8h1v1h-1zM74,8h1v1h-1zM75,8h1v1h-1zM76,8h1v1h-1zM77,8h1v1h-1zM78,8h1v1h-1zM79,8h1v1h-1zM80,8h1v1h-1zM81,8h1v1h-1zM82,8h1v1h-1zM83,8h1v1h-1zM84,8h1v1h-1zM85,8h1v1h-1zM86,8h1v1h-1zM87,8h1v1h-1zM88,8h1v1h-1zM89,8h1v1h-1zM90,8h1v1h-1zM91,8h1v1h-1zM92,8h1v1h-1zM93,8h1v1h-1zM22,9h1v1h-1zM23,9h1v1h-1zM24,9h1v1h-1zM25,9h1v1h-1zM26,9h1v1h-1zM27,9h1v1h-1zM28,9h1v1h-1zM29,9h1v1h-1zM30,9h1v1h-1zM39,9h1v1h-1zM40,9h1v1h-1zM41,9h1v1h-1zM42,9h1v1h-1zM43,9h1v1h-1zM44,9h1v1h-1zM45,9h1v1h-1zM75,9h1v1h-1zM76,9h1v1h-1zM77,9h1v1h-1zM78,9h1v1h-1zM79,9h1v1h-1zM80,9h1v1h-1zM81,9h1v1h-1zM82,9h1v1h-1zM22,10h1v1h-1zM23,10h1v1h-1zM24,10h1v1h-1zM25,10h1v1h-1zM26,10h1v1h-1zM27,10h1v1h-1zM28,10h1v1h-1zM29,10h1v1h-1zM30,10h1v1h-1zM39,10h1v1h-1zM40,10h1v1h-1zM41,10h1v1h-1zM42,10h1v1h-1zM43,10h1v1h-1zM44,10h1v1h-1zM45,10h1v1h-1zM75,10h1v1h-1zM76,10h1v1h-1zM77,10h1v1h-1zM78,10h1v1h-1zM79,10h1v1h-1zM80,10h1v1h-1zM81,10h1v1h-1zM82,10h1v1h-1zM22,11h1v1h-1zM23,11h1v1h-1zM24,11h1v1h-1zM25,11h1v1h-1zM26,11h1v1h-1zM27,11h1v1h-1zM28,11h1v1h-1zM29,11h1v1h-1zM40,11h1v1h-1zM41,11h1v1h-1zM42,11h1v1h-1zM43,11h1v1h-1zM44,11h1v1h-1zM45,11h1v1h-1zM74,11h1v1h-1zM75,11h1v1h-1zM76,11h1v1h-1zM77,11h1v1h-1zM78,11h1v1h-1zM79,11h1v1h-1zM80,11h1v1h-1zM81,11h1v1h-1zM82,11h1v1h-1zM22,12h1v1h-1zM23,12h1v1h-1zM24,12h1v1h-1zM25,12h1v1h-1zM26,12h1v1h-1zM27,12h1v1h-1zM28,12h1v1h-1zM29,12h1v1h-1zM41,12h1v1h-1zM42,12h1v1h-1zM43,12h1v1h-1zM44,12h1v1h-1zM45,12h1v1h-1zM46,12h1v1h-1zM74,12h1v1h-1zM75,12h1v1h-1zM76,12h1v1h-1zM77,12h1v1h-1zM78,12h1v1h-1zM79,12h1v1h-1zM80,12h1v1h-1zM81,12h1v1h-1zM82,12h1v1h-1zM21,13h1v1h-1zM22,13h1v1h-1zM23,13h1v1h-1zM24,13h1v1h-1zM25,13h1v1h-1zM26,13h1v1h-1zM27,13h1v1h-1zM28,13h1v1h-1zM29,13h1v1h-1zM41,13h1v1h-1zM42,13h1v1h-1zM43,13h1v1h-1zM44,13h1v1h-1zM45,13h1v1h-1zM46,13h1v1h-1zM74,13h1v1h-1zM75,13h1v1h-1zM76,13h1v1h-1zM77,13h1v1h-1zM78,13h1v1h-1zM79,13h1v1h-1zM80,13h1v1h-1zM81,13h1v1h-1zM21,14h1v1h-1zM22,14h1v1h-1zM23,14h1v1h-1zM24,14h1v1h-1zM25,14h1v1h-1zM26,14h1v1h-1zM27,14h1v1h-1zM28,14h1v1h-1zM29,14h1v1h-1zM41,14h1v1h-1zM42,14h1v1h-1zM43,14h1v1h-1zM44,14h1v1h-1zM45,14h1v1h-1zM46,14h1v1h-1zM47,14h1v1h-1zM74,14h1v1h-1zM75,14h1v1h-1zM76,14h1v1h-1zM77,14h1v1h-1zM78,14h1v1h-1zM79,14h1v1h-1zM80,14h1v1h-1zM81,14h1v1h-1zM21,15h1v1h-1zM22,15h1v1h-1zM23,15h1v1h-1zM24,15h1v1h-1zM25,15h1v1h-1zM26,15h1v1h-1zM27,15h1v1h-1zM28,15h1v1h-1zM29,15h1v1h-1zM39,15h1v1h-1zM40,15h1v1h-1zM41,15h1v1h-1zM42,15h1v1h-1zM43,15h1v1h-1zM44,15h1v1h-1zM45,15h1v1h-1zM46,15h1v1h-1zM47,15h1v1h-1zM48,15h1v1h-1zM73,15h1v1h-1zM74,15h1v1h-1zM75,15h1v1h-1zM76,15h1v1h-1zM77,15h1v1h-1zM78,15h1v1h-1zM79,15h1v1h-1zM80,15h1v1h-1zM81,15h1v1h-1zM21,16h1v1h-1zM22,16h1v1h-1zM23,16h1v1h-1zM24,16h1v1h-1zM25,16h1v1h-1zM26,16h1v1h-1zM27,16h1v1h-1zM28,16h1v1h-1zM38,16h1v1h-1zM39,16h1v1h-1zM40,16h1v1h-1zM41,16h1v1h-1zM42,16h1v1h-1zM43,16h1v1h-1zM44,16h1v1h-1zM45,16h1v1h-1zM46,16h1v1h-1zM47,16h1v1h-1zM48,16h1v1h-1zM49,16h1v1h-1zM57,16h1v1h-1zM58,16h1v1h-1zM59,16h1v1h-1zM73,16h1v1h-1zM74,16h1v1h-1zM75,16h1v1h-1zM76,16h1v1h-1zM77,16h1v1h-1zM78,16h1v1h-1zM79,16h1v1h-1zM80,16h1v1h-1zM81,16h1v1h-1zM21,17h1v1h-1zM22,17h1v1h-1zM23,17h1v1h-1zM24,17h1v1h-1zM25,17h1v1h-1zM26,17h1v1h-1zM27,17h1v1h-1zM28,17h1v1h-1zM37,17h1v1h-1zM38,17h1v1h-1zM39,17h1v1h-1zM40,17h1v1h-1zM41,17h1v1h-1zM42,17h1v1h-1zM43,17h1v1h-1zM44,17h1v1h-1zM45,17h1v1h-1zM46,17h1v1h-1zM47,17h1v1h-1zM48,17h1v1h-1zM49,17h1v1h-1zM50,17h1v1h-1zM57,17h1v1h-1zM58,17h1v1h-1zM59,17h1v1h-1zM60,17h1v1h-1zM61,17h1v1h-1zM62,17h1v1h-1zM73,17h1v1h-1zM74,17h1v1h-1zM75,17h1v1h-1zM76,17h1v1h-1zM77,17h1v1h-1zM78,17h1v1h-1zM79,17h1v1h-1zM80,17h1v1h-1zM20,18h1v1h-1zM21,18h1v1h-1zM22,18h1v1h-1zM23,18h1v1h-1zM24,18h1v1h-1zM25,18h1v1h-1zM26,18h1v1h-1zM27,18h1v1h-1zM28,18h1v1h-1zM36,18h1v1h-1zM37,18h1v1h-1zM38,18h1v1h-1zM39,18h1v1h-1zM40,18h1v1h-1zM41,18h1v1h-1zM42,18h1v1h-1zM43,18h1v1h-1zM44,18h1v1h-1zM45,18h1v1h-1zM46,18h1v1h-1zM47,18h1v1h-1zM48,18h1v1h-1zM49,18h1v1h-1zM50,18h1v1h-1zM51,18h1v1h-1zM57,18h1v1h-1zM58,18h1v1h-1zM59,18h1v1h-1zM60,18h1v1h-1zM61,18h1v1h-1zM62,18h1v1h-1zM73,18h1v1h-1zM74,18h1v1h-1zM75,18h1v1h-1zM76,18h1v1h-1zM77,18h1v1h-1zM78,18h1v1h-1zM79,18h1v1h-1zM80,18h1v1h-1zM20,19h1v1h-1zM21,19h1v1h-1zM22,19h1v1h-1zM23,19h1v1h-1zM24,19h1v1h-1zM25,19h1v1h-1zM26,19h1v1h-1zM27,19h1v1h-1zM28,19h1v1h-1zM36,19h1v1h-1zM37,19h1v1h-1zM38,19h1v1h-1zM39,19h1v1h-1zM40,19h1v1h-1zM41,19h1v1h-1zM42,19h1v1h-1zM43,19h1v1h-1zM46,19h1v1h-1zM47,19h1v1h-1zM48,19h1v1h-1zM49,19h1v1h-1zM50,19h1v1h-1zM51,19h1v1h-1zM52,19h1v1h-1zM57,19h1v1h-1zM58,19h1v1h-1zM59,19h1v1h-1zM60,19h1v1h-1zM61,19h1v1h-1zM62,19h1v1h-1zM73,19h1v1h-1zM74,19h1v1h-1zM75,19h1v1h-1zM76,19h1v1h-1zM77,19h1v1h-1zM78,19h1v1h-1zM79,19h1v1h-1zM80,19h1v1h-1zM20,20h1v1h-1zM21,20h1v1h-1zM22,20h1v1h-1zM23,20h1v1h-1zM24,20h1v1h-1zM25,20h1v1h-1zM26,20h1v1h-1zM27,20h1v1h-1zM35,20h1v1h-1zM36,20h1v1h-1zM37,20h1v1h-1zM38,20h1v1h-1zM39,20h1v1h-1zM40,20h1v1h-1zM41,20h1v1h-1zM42,20h1v1h-1zM47,20h1v1h-1zM48,20h1v1h-1zM49,20h1v1h-1zM50,20h1v1h-1zM51,20h1v1h-1zM52,20h1v1h-1zM53,20h1v1h-1zM56,20h1v1h-1zM57,20h1v1h-1zM58,20h1v1h-1zM59,20h1v1h-1zM60,20h1v1h-1zM61,20h1v1h-1zM62,20h1v1h-1zM72,20h1v1h-1zM73,20h1v1h-1zM74,20h1v1h-1zM75,20h1v1h-1zM76,20h1v1h-1zM77,20h1v1h-1zM78,20h1v1h-1zM79,20h1v1h-1zM80,20h1v1h-1zM20,21h1v1h-1zM21,21h1v1h-1zM22,21h1v1h-1zM23,21h1v1h-1zM24,21h1v1h-1zM25,21h1v1h-1zM26,21h1v1h-1zM27,21h1v1h-1zM34,21h1v1h-1zM35,21h1v1h-1zM36,21h1v1h-1zM37,21h1v1h-1zM38,21h1v1h-1zM39,21h1v1h-1zM40,21h1v1h-1zM41,21h1v1h-1zM48,21h1v1h-1zM49,21h1v1h-1zM50,21h1v1h-1zM51,21h1v1h-1zM52,21h1v1h-1zM53,21h1v1h-1zM54,21h1v1h-1zM55,21h1v1h-1zM56,21h1v1h-1zM57,21h1v1h-1zM58,21h1v1h-1zM59,21h1v1h-1zM60,21h1v1h-1zM61,21h1v1h-1zM72,21h1v1h-1zM73,21h1v1h-1zM74,21h1v1h-1zM75,21h1v1h-1zM76,21h1v1h-1zM77,21h1v1h-1zM78,21h1v1h-1zM79,21h1v1h-1zM90,21h1v1h-1zM91,21h1v1h-1zM92,21h1v1h-1zM93,21h1v1h-1zM94,21h1v1h-1zM95,21h1v1h-1zM96,21h1v1h-1zM99,21h1v1h-1zM100,21h1v1h-1zM106,21h1v1h-1zM107,21h1v1h-1zM111,21h1v1h-1zM112,21h1v1h-1zM113,21h1v1h-1zM114,21h1v1h-1zM115,21h1v1h-1zM122,21h1v1h-1zM123,21h1v1h-1zM124,21h1v1h-1zM125,21h1v1h-1zM126,21h1v1h-1zM127,21h1v1h-1zM133,21h1v1h-1zM134,21h1v1h-1zM135,21h1v1h-1zM136,21h1v1h-1zM137,21h1v1h-1zM138,21h1v1h-1zM139,21h1v1h-1zM144,21h1v1h-1zM145,21h1v1h-1zM146,21h1v1h-1zM147,21h1v1h-1zM148,21h1v1h-1zM154,21h1v1h-1zM155,21h1v1h-1zM156,21h1v1h-1zM157,21h1v1h-1zM158,21h1v1h-1zM19,22h1v1h-1zM20,22h1v1h-1zM21,22h1v1h-1zM22,22h1v1h-1zM23,22h1v1h-1zM24,22h1v1h-1zM25,22h1v1h-1zM26,22h1v1h-1zM27,22h1v1h-1zM34,22h1v1h-1zM35,22h1v1h-1zM36,22h1v1h-1zM37,22h1v1h-1zM38,22h1v1h-1zM39,22h1v1h-1zM40,22h1v1h-1zM49,22h1v1h-1zM50,22h1v1h-1zM51,22h1v1h-1zM52,22h1v1h-1zM53,22h1v1h-1zM54,22h1v1h-1zM55,22h1v1h-1zM56,22h1v1h-1zM57,22h1v1h-1zM58,22h1v1h-1zM59,22h1v1h-1zM60,22h1v1h-1zM61,22h1v1h-1zM72,22h1v1h-1zM73,22h1v1h-1zM74,22h1v1h-1zM75,22h1v1h-1zM76,22h1v1h-1zM77,22h1v1h-1zM78,22h1v1h-1zM79,22h1v1h-1zM90,22h1v1h-1zM91,22h1v1h-1zM92,22h1v1h-1zM93,22h1v1h-1zM94,22h1v1h-1zM95,22h1v1h-1zM100,22h1v1h-1zM105,22h1v1h-1zM106,22h1v1h-1zM111,22h1v1h-1zM116,22h1v1h-1zM117,22h1v1h-1zM122,22h1v1h-1zM127,22h1v1h-1zM128,22h1v1h-1zM133,22h1v1h-1zM134,22h1v1h-1zM135,22h1v1h-1zM136,22h1v1h-1zM137,22h1v1h-1zM138,22h1v1h-1zM139,22h1v1h-1zM143,22h1v1h-1zM144,22h1v1h-1zM148,22h1v1h-1zM153,22h1v1h-1zM154,22h1v1h-1zM158,22h1v1h-1zM19,23h1v1h-1zM20,23h1v1h-1zM21,23h1v1h-1zM22,23h1v1h-1zM23,23h1v1h-1zM24,23h1v1h-1zM25,23h1v1h-1zM26,23h1v1h-1zM27,23h1v1h-1zM34,23h1v1h-1zM35,23h1v1h-1zM36,23h1v1h-1zM37,23h1v1h-1zM38,23h1v1h-1zM39,23h1v1h-1zM40,23h1v1h-1zM50,23h1v1h-1zM51,23h1v1h-1zM52,23h1v1h-1zM53,23h1v1h-1zM54,23h1v1h-1zM55,23h1v1h-1zM56,23h1v1h-1zM57,23h1v1h-1zM58,23h1v1h-1zM59,23h1v1h-1zM60,23h1v1h-1zM72,23h1v1h-1zM73,23h1v1h-1zM74,23h1v1h-1zM75,23h1v1h-1zM76,23h1v1h-1zM77,23h1v1h-1zM78,23h1v1h-1zM79,23h1v1h-1zM89,23h1v1h-1zM90,23h1v1h-1zM100,23h1v1h-1zM101,23h1v1h-1zM105,23h1v1h-1zM111,23h1v1h-1zM116,23h1v1h-1zM117,23h1v1h-1zM122,23h1v1h-1zM127,23h1v1h-1zM128,23h1v1h-1zM133,23h1v1h-1zM134,23h1v1h-1zM142,23h1v1h-1zM143,23h1v1h-1zM152,23h1v1h-1zM153,23h1v1h-1zM19,24h1v1h-1zM20,24h1v1h-1zM21,24h1v1h-1zM22,24h1v1h-1zM23,24h1v1h-1zM24,24h1v1h-1zM25,24h1v1h-1zM26,24h1v1h-1zM34,24h1v1h-1zM35,24h1v1h-1zM36,24h1v1h-1zM37,24h1v1h-1zM38,24h1v1h-1zM39,24h1v1h-1zM40,24h1v1h-1zM51,24h1v1h-1zM52,24h1v1h-1zM53,24h1v1h-1zM54,24h1v1h-1zM55,24h1v1h-1zM56,24h1v1h-1zM57,24h1v1h-1zM58,24h1v1h-1zM59,24h1v1h-1zM60,24h1v1h-1zM71,24h1v1h-1zM72,24h1v1h-1zM73,24h1v1h-1zM74,24h1v1h-1zM75,24h1v1h-1zM76,24h1v1h-1zM77,24h1v1h-1zM78,24h1v1h-1zM79,24h1v1h-1zM89,24h1v1h-1zM90,24h1v1h-1zM100,24h1v1h-1zM101,24h1v1h-1zM104,24h1v1h-1zM110,24h1v1h-1zM111,24h1v1h-1zM117,24h1v1h-1zM121,24h1v1h-1zM122,24h1v1h-1zM127,24h1v1h-1zM128,24h1v1h-1zM133,24h1v1h-1zM142,24h1v1h-1zM143,24h1v1h-1zM152,24h1v1h-1zM153,24h1v1h-1zM19,25h1v1h-1zM20,25h1v1h-1zM21,25h1v1h-1zM22,25h1v1h-1zM23,25h1v1h-1zM24,25h1v1h-1zM25,25h1v1h-1zM26,25h1v1h-1zM33,25h1v1h-1zM34,25h1v1h-1zM35,25h1v1h-1zM36,25h1v1h-1zM37,25h1v1h-1zM38,25h1v1h-1zM39,25h1v1h-1zM40,25h1v1h-1zM51,25h1v1h-1zM52,25h1v1h-1zM53,25h1v1h-1zM54,25h1v1h-1zM55,25h1v1h-1zM56,25h1v1h-1zM57,25h1v1h-1zM58,25h1v1h-1zM59,25h1v1h-1zM71,25h1v1h-1zM72,25h1v1h-1zM73,25h1v1h-1zM74,25h1v1h-1zM75,25h1v1h-1zM76,25h1v1h-1zM77,25h1v1h-1zM78,25h1v1h-1zM89,25h1v1h-1zM90,25h1v1h-1zM101,25h1v1h-1zM103,25h1v1h-1zM104,25h1v1h-1zM110,25h1v1h-1zM111,25h1v1h-1zM116,25h1v1h-1zM117,25h1v1h-1zM121,25h1v1h-1zM122,25h1v1h-1zM127,25h1v1h-1zM128,25h1v1h-1zM132,25h1v1h-1zM133,25h1v1h-1zM142,25h1v1h-1zM143,25h1v1h-1zM144,25h1v1h-1zM152,25h1v1h-1zM153,25h1v1h-1zM19,26h1v1h-1zM20,26h1v1h-1zM21,26h1v1h-1zM22,26h1v1h-1zM23,26h1v1h-1zM24,26h1v1h-1zM25,26h1v1h-1zM26,26h1v1h-1zM34,26h1v1h-1zM35,26h1v1h-1zM36,26h1v1h-1zM37,26h1v1h-1zM38,26h1v1h-1zM39,26h1v1h-1zM40,26h1v1h-1zM52,26h1v1h-1zM53,26h1v1h-1zM54,26h1v1h-1zM55,26h1v1h-1zM56,26h1v1h-1zM57,26h1v1h-1zM58,26h1v1h-1zM59,26h1v1h-1zM71,26h1v1h-1zM72,26h1v1h-1zM73,26h1v1h-1zM74,26h1v1h-1zM75,26h1v1h-1zM76,26h1v1h-1zM77,26h1v1h-1zM78,26h1v1h-1zM89,26h1v1h-1zM90,26h1v1h-1zM91,26h1v1h-1zM92,26h1v1h-1zM93,26h1v1h-1zM94,26h1v1h-1zM101,26h1v1h-1zM102,26h1v1h-1zM103,26h1v1h-1zM110,26h1v1h-1zM111,26h1v1h-1zM116,26h1v1h-1zM117,26h1v1h-1zM121,26h1v1h-1zM122,26h1v1h-1zM126,26h1v1h-1zM127,26h1v1h-1zM132,26h1v1h-1zM133,26h1v1h-1zM134,26h1v1h-1zM135,26h1v1h-1zM136,26h1v1h-1zM137,26h1v1h-1zM138,26h1v1h-1zM143,26h1v1h-1zM144,26h1v1h-1zM145,26h1v1h-1zM153,26h1v1h-1zM154,26h1v1h-1zM155,26h1v1h-1zM18,27h1v1h-1zM19,27h1v1h-1zM20,27h1v1h-1zM21,27h1v1h-1zM22,27h1v1h-1zM23,27h1v1h-1zM24,27h1v1h-1zM25,27h1v1h-1zM26,27h1v1h-1zM34,27h1v1h-1zM35,27h1v1h-1zM36,27h1v1h-1zM37,27h1v1h-1zM38,27h1v1h-1zM39,27h1v1h-1zM40,27h1v1h-1zM41,27h1v1h-1zM51,27h1v1h-1zM52,27h1v1h-1zM53,27h1v1h-1zM54,27h1v1h-1zM55,27h1v1h-1zM56,27h1v1h-1zM57,27h1v1h-1zM58,27h1v1h-1zM59,27h1v1h-1zM71,27h1v1h-1zM72,27h1v1h-1zM73,27h1v1h-1zM74,27h1v1h-1zM75,27h1v1h-1zM76,27h1v1h-1zM77,27h1v1h-1zM78,27h1v1h-1zM89,27h1v1h-1zM90,27h1v1h-1zM91,27h1v1h-1zM92,27h1v1h-1zM93,27h1v1h-1zM94,27h1v1h-1zM101,27h1v1h-1zM102,27h1v1h-1zM103,27h1v1h-1zM110,27h1v1h-1zM111,27h1v1h-1zM112,27h1v1h-1zM113,27h1v1h-1zM114,27h1v1h-1zM115,27h1v1h-1zM116,27h1v1h-1zM121,27h1v1h-1zM122,27h1v1h-1zM123,27h1v1h-1zM124,27h1v1h-1zM125,27h1v1h-1zM126,27h1v1h-1zM132,27h1v1h-1zM133,27h1v1h-1zM134,27h1v1h-1zM135,27h1v1h-1zM136,27h1v1h-1zM137,27h1v1h-1zM145,27h1v1h-1zM146,27h1v1h-1zM147,27h1v1h-1zM154,27h1v1h-1zM155,27h1v1h-1zM156,27h1v1h-1zM4,28h1v1h-1zM5,28h1v1h-1zM6,28h1v1h-1zM7,28h1v1h-1zM8,28h1v1h-1zM9,28h1v1h-1zM10,28h1v1h-1zM11,28h1v1h-1zM12,28h1v1h-1zM13,28h1v1h-1zM14,28h1v1h-1zM15,28h1v1h-1zM16,28h1v1h-1zM17,28h1v1h-1zM18,28h1v1h-1zM19,28h1v1h-1zM20,28h1v1h-1zM21,28h1v1h-1zM22,28h1v1h-1zM23,28h1v1h-1zM24,28h1v1h-1zM25,28h1v1h-1zM26,28h1v1h-1zM34,28h1v1h-1zM35,28h1v1h-1zM36,28h1v1h-1zM37,28h1v1h-1zM38,28h1v1h-1zM39,28h1v1h-1zM40,28h1v1h-1zM41,28h1v1h-1zM42,28h1v1h-1zM43,28h1v1h-1zM48,28h1v1h-1zM49,28h1v1h-1zM50,28h1v1h-1zM51,28h1v1h-1zM52,28h1v1h-1zM53,28h1v1h-1zM54,28h1v1h-1zM55,28h1v1h-1zM56,28h1v1h-1zM57,28h1v1h-1zM58,28h1v1h-1zM59,28h1v1h-1zM60,28h1v1h-1zM70,28h1v1h-1zM71,28h1v1h-1zM72,28h1v1h-1zM73,28h1v1h-1zM74,28h1v1h-1zM75,28h1v1h-1zM76,28h1v1h-1zM77,28h1v1h-1zM78,28h1v1h-1zM89,28h1v1h-1zM101,28h1v1h-1zM103,28h1v1h-1zM110,28h1v1h-1zM111,28h1v1h-1zM112,28h1v1h-1zM113,28h1v1h-1zM121,28h1v1h-1zM125,28h1v1h-1zM126,28h1v1h-1zM132,28h1v1h-1zM133,28h1v1h-1zM146,28h1v1h-1zM147,28h1v1h-1zM156,28h1v1h-1zM157,28h1v1h-1zM3,29h1v1h-1zM4,29h1v1h-1zM5,29h1v1h-1zM6,29h1v1h-1zM7,29h1v1h-1zM8,29h1v1h-1zM9,29h1v1h-1zM10,29h1v1h-1zM11,29h1v1h-1zM12,29h1v1h-1zM13,29h1v1h-1zM14,29h1v1h-1zM15,29h1v1h-1zM16,29h1v1h-1zM17,29h1v1h-1zM18,29h1v1h-1zM19,29h1v1h-1zM20,29h1v1h-1zM21,29h1v1h-1zM22,29h1v1h-1zM23,29h1v1h-1zM24,29h1v1h-1zM25,29h1v1h-1zM35,29h1v1h-1zM36,29h1v1h-1zM37,29h1v1h-1zM38,29h1v1h-1zM39,29h1v1h-1zM40,29h1v1h-1zM41,29h1v1h-1zM42,29h1v1h-1zM43,29h1v1h-1zM44,29h1v1h-1zM45,29h1v1h-1zM46,29h1v1h-1zM47,29h1v1h-1zM48,29h1v1h-1zM49,29h1v1h-1zM50,29h1v1h-1zM51,29h1v1h-1zM52,29h1v1h-1zM53,29h1v1h-1zM54,29h1v1h-1zM55,29h1v1h-1zM56,29h1v1h-1zM57,29h1v1h-1zM58,29h1v1h-1zM59,29h1v1h-1zM60,29h1v1h-1zM61,29h1v1h-1zM70,29h1v1h-1zM71,29h1v1h-1zM72,29h1v1h-1zM73,29h1v1h-1zM74,29h1v1h-1zM75,29h1v1h-1zM76,29h1v1h-1zM77,29h1v1h-1zM88,29h1v1h-1zM89,29h1v1h-1zM100,29h1v1h-1zM103,29h1v1h-1zM104,29h1v1h-1zM109,29h1v1h-1zM110,29h1v1h-1zM120,29h1v1h-1zM121,29h1v1h-1zM126,29h1v1h-1zM127,29h1v1h-1zM132,29h1v1h-1zM147,29h1v1h-1zM148,29h1v1h-1zM157,29h1v1h-1zM158,29h1v1h-1zM3,30h1v1h-1zM4,30h1v1h-1zM5,30h1v1h-1zM6,30h1v1h-1zM7,30h1v1h-1zM8,30h1v1h-1zM9,30h1v1h-1zM10,30h1v1h-1zM11,30h1v1h-1zM12,30h1v1h-1zM13,30h1v1h-1zM14,30h1v1h-1zM15,30h1v1h-1zM16,30h1v1h-1zM17,30h1v1h-1zM18,30h1v1h-1zM19,30h1v1h-1zM20,30h1v1h-1zM21,30h1v1h-1zM22,30h1v1h-1zM23,30h1v1h-1zM24,30h1v1h-1zM25,30h1v1h-1zM36,30h1v1h-1zM37,30h1v1h-1zM38,30h1v1h-1zM39,30h1v1h-1zM40,30h1v1h-1zM41,30h1v1h-1zM42,30h1v1h-1zM43,30h1v1h-1zM44,30h1v1h-1zM45,30h1v1h-1zM46,30h1v1h-1zM47,30h1v1h-1zM48,30h1v1h-1zM49,30h1v1h-1zM50,30h1v1h-1zM51,30h1v1h-1zM52,30h1v1h-1zM53,30h1v1h-1zM54,30h1v1h-1zM55,30h1v1h-1zM56,30h1v1h-1zM57,30h1v1h-1zM58,30h1v1h-1zM59,30h1v1h-1zM60,30h1v1h-1zM61,30h1v1h-1zM62,30h1v1h-1zM70,30h1v1h-1zM71,30h1v1h-1zM72,30h1v1h-1zM73,30h1v1h-1zM74,30h1v1h-1zM75,30h1v1h-1zM76,30h1v1h-1zM77,30h1v1h-1zM88,30h1v1h-1zM89,30h1v1h-1zM99,30h1v1h-1zM103,30h1v1h-1zM104,30h1v1h-1zM109,30h1v1h-1zM110,30h1v1h-1zM120,30h1v1h-1zM121,30h1v1h-1zM126,30h1v1h-1zM127,30h1v1h-1zM132,30h1v1h-1zM147,30h1v1h-1zM157,30h1v1h-1zM2,31h1v1h-1zM3,31h1v1h-1zM4,31h1v1h-1zM5,31h1v1h-1zM6,31h1v1h-1zM7,31h1v1h-1zM8,31h1v1h-1zM9,31h1v1h-1zM10,31h1v1h-1zM11,31h1v1h-1zM12,31h1v1h-1zM13,31h1v1h-1zM14,31h1v1h-1zM15,31h1v1h-1zM16,31h1v1h-1zM17,31h1v1h-1zM18,31h1v1h-1zM19,31h1v1h-1zM20,31h1v1h-1zM21,31h1v1h-1zM22,31h1v1h-1zM23,31h1v1h-1zM24,31h1v1h-1zM25,31h1v1h-1zM38,31h1v1h-1zM39,31h1v1h-1zM40,31h1v1h-1zM41,31h1v1h-1zM42,31h1v1h-1zM43,31h1v1h-1zM44,31h1v1h-1zM45,31h1v1h-1zM46,31h1v1h-1zM47,31h1v1h-1zM48,31h1v1h-1zM49,31h1v1h-1zM50,31h1v1h-1zM51,31h1v1h-1zM52,31h1v1h-1zM53,31h1v1h-1zM56,31h1v1h-1zM57,31h1v1h-1zM58,31h1v1h-1zM59,31h1v1h-1zM60,31h1v1h-1zM61,31h1v1h-1zM62,31h1v1h-1zM70,31h1v1h-1zM71,31h1v1h-1zM72,31h1v1h-1zM73,31h1v1h-1zM74,31h1v1h-1zM75,31h1v1h-1zM76,31h1v1h-1zM77,31h1v1h-1zM88,31h1v1h-1zM89,31h1v1h-1zM98,31h1v1h-1zM99,31h1v1h-1zM104,31h1v1h-1zM109,31h1v1h-1zM110,31h1v1h-1zM120,31h1v1h-1zM121,31h1v1h-1zM126,31h1v1h-1zM127,31h1v1h-1zM131,31h1v1h-1zM132,31h1v1h-1zM146,31h1v1h-1zM147,31h1v1h-1zM156,31h1v1h-1zM157,31h1v1h-1zM2,32h1v1h-1zM3,32h1v1h-1zM4,32h1v1h-1zM5,32h1v1h-1zM6,32h1v1h-1zM7,32h1v1h-1zM8,32h1v1h-1zM9,32h1v1h-1zM10,32h1v1h-1zM11,32h1v1h-1zM12,32h1v1h-1zM13,32h1v1h-1zM14,32h1v1h-1zM15,32h1v1h-1zM16,32h1v1h-1zM17,32h1v1h-1zM18,32h1v1h-1zM19,32h1v1h-1zM20,32h1v1h-1zM21,32h1v1h-1zM22,32h1v1h-1zM23,32h1v1h-1zM24,32h1v1h-1zM25,32h1v1h-1zM40,32h1v1h-1zM41,32h1v1h-1zM42,32h1v1h-1zM43,32h1v1h-1zM44,32h1v1h-1zM45,32h1v1h-1zM46,32h1v1h-1zM47,32h1v1h-1zM48,32h1v1h-1zM49,32h1v1h-1zM50,32h1v1h-1zM51,32h1v1h-1zM57,32h1v1h-1zM58,32h1v1h-1zM59,32h1v1h-1zM60,32h1v1h-1zM61,32h1v1h-1zM62,32h1v1h-1zM63,32h1v1h-1zM69,32h1v1h-1zM70,32h1v1h-1zM71,32h1v1h-1zM72,32h1v1h-1zM73,32h1v1h-1zM74,32h1v1h-1zM75,32h1v1h-1zM76,32h1v1h-1zM77,32h1v1h-1zM88,32h1v1h-1zM89,32h1v1h-1zM90,32h1v1h-1zM91,32h1v1h-1zM92,32h1v1h-1zM93,32h1v1h-1zM94,32h1v1h-1zM98,32h1v1h-1zM104,32h1v1h-1zM105,32h1v1h-1zM109,32h1v1h-1zM110,32h1v1h-1zM120,32h1v1h-1zM121,32h1v1h-1zM126,32h1v1h-1zM127,32h1v1h-1zM131,32h1v1h-1zM132,32h1v1h-1zM133,32h1v1h-1zM134,32h1v1h-1zM135,32h1v1h-1zM136,32h1v1h-1zM137,32h1v1h-1zM141,32h1v1h-1zM142,32h1v1h-1zM143,32h1v1h-1zM144,32h1v1h-1zM145,32h1v1h-1zM146,32h1v1h-1zM151,32h1v1h-1zM152,32h1v1h-1zM153,32h1v1h-1zM154,32h1v1h-1zM155,32h1v1h-1zM156,32h1v1h-1z" fill="#ff0000" opacity="1.00"/>
  <path d="M33,1h1v1h-1zM60,7h1v1h-1zM19,18h1v1h-1zM33,21h1v1h-1zM113,26h1v1h-1zM118,26h1v1h-1zM154,28h1v1h-1zM96,32h1v1h-1zM40,33h1v1h-1z" fill="#ff0000" opacity="0.22"/>
  <path d="M38,1h1v1h-1zM47,5h1v1h-1zM31,7h1v1h-1zM83,9h1v1h-1zM21,12h1v1h-1zM89,22h1v1h-1zM96,22h1v1h-1zM132,24h1v1h-1zM33,26h1v1h-1zM45,28h1v1h-1zM155,31h1v1h-1z" fill="#ff0000" opacity="0.87"/>
  <path d="M58,1h1v1h-1zM32,2h1v1h-1zM54,20h1v1h-1zM155,22h1v1h-1zM110,23h1v1h-1zM102,25h1v1h-1zM41,26h1v1h-1zM44,28h1v1h-1zM133,29h1v1h-1zM63,31h1v1h-1z" fill="#ff0000" opacity="0.97"/>
  <path d="M59,1h1v1h-1zM47,6h1v1h-1zM37,8h1v1h-1zM84,9h1v1h-1zM85,9h1v1h-1zM86,9h1v1h-1zM87,9h1v1h-1zM88,9h1v1h-1zM89,9h1v1h-1zM90,9h1v1h-1zM83,12h1v1h-1zM97,20h1v1h-1zM138,28h1v1h-1zM119,29h1v1h-1z" fill="#ff0000" opacity="0.13"/>
  <path d="M63,1h1v1h-1zM100,3h1v1h-1zM54,7h1v1h-1zM73,11h1v1h-1zM129,21h1v1h-1zM48,23h1v1h-1zM88,23h1v1h-1zM44,27h1v1h-1zM151,30h1v1h-1z" fill="#ff0000" opacity="0.06"/>
  <path d="M64,1h1v1h-1zM53,19h1v1h-1zM105,21h1v1h-1zM147,22h1v1h-1zM79,25h1v1h-1zM50,27h1v1h-1zM26,29h1v1h-1zM158,30h1v1h-1zM144,33h1v1h-1z" fill="#ff0000" opacity="0.92"/>
  <path d="M101,1h1v1h-1zM48,4h1v1h-1zM98,4h1v1h-1zM95,7h1v1h-1zM94,8h1v1h-1zM40,12h1v1h-1zM20,17h1v1h-1zM35,19h1v1h-1zM116,21h1v1h-1zM112,22h1v1h-1zM123,22h1v1h-1zM145,22h1v1h-1zM71,23h1v1h-1zM104,23h1v1h-1zM121,23h1v1h-1zM116,24h1v1h-1zM18,26h1v1h-1zM70,27h1v1h-1zM3,28h1v1h-1zM88,28h1v1h-1zM156,29h1v1h-1zM2,30h1v1h-1zM131,30h1v1h-1zM148,30h1v1h-1zM156,30h1v1h-1zM97,32h1v1h-1z" fill="#ff0000" opacity="0.98"/>
  <path d="M102,1h1v1h-1zM140,20h1v1h-1zM18,23h1v1h-1zM99,28h1v1h-1zM140,31h1v1h-1z" fill="#ff0000" opacity="0.33"/>
  <path d="M37,2h1v1h-1zM62,3h1v1h-1zM32,6h1v1h-1zM54,8h1v1h-1zM20,13h1v1h-1zM158,23h1v1h-1z" fill="#ff0000" opacity="0.10"/>
  <path d="M58,2h1v1h-1zM32,4h1v1h-1zM46,7h1v1h-1zM73,13h1v1h-1zM20,15h1v1h-1zM72,17h1v1h-1zM104,22h1v1h-1zM107,22h1v1h-1zM143,31h1v1h-1zM144,31h1v1h-1z" fill="#ff0000" opacity="0.55"/>
  <path d="M63,2h1v1h-1zM30,13h1v1h-1z" fill="#ff0000" opacity="0.52"/>
  <path d="M91,2h1v1h-1zM83,10h1v1h-1zM57,15h1v1h-1zM29,17h1v1h-1zM55,20h1v1h-1zM88,26h1v1h-1zM49,27h1v1h-1zM131,28h1v1h-1zM90,29h1v1h-1z" fill="#ff0000" opacity="0.62"/>
  <path d="M92,2h1v1h-1zM93,2h1v1h-1zM94,2h1v1h-1zM95,2h1v1h-1zM96,2h1v1h-1zM97,2h1v1h-1zM98,2h1v1h-1zM99,2h1v1h-1zM98,20h1v1h-1zM105,20h1v1h-1zM41,23h1v1h-1zM64,31h1v1h-1z" fill="#ff0000" opacity="0.24"/>
  <path d="M100,2h1v1h-1z" fill="#ff0000" opacity="0.23"/>
  <path d="M101,2h1v1h-1zM81,20h1v1h-1zM149,20h1v1h-1zM103,23h1v1h-1zM109,24h1v1h-1z" fill="#ff0000" opacity="0.16"/>
  <path d="M23,3h1v1h-1zM48,14h1v1h-1zM29,16h1v1h-1zM156,20h1v1h-1zM146,22h1v1h-1zM129,24h1v1h-1zM52,32h1v1h-1zM44,33h1v1h-1zM142,33h1v1h-1z" fill="#ff0000" opacity="0.85"/>
  <path d="M32,3h1v1h-1zM49,15h1v1h-1zM20,16h1v1h-1zM101,21h1v1h-1zM113,22h1v1h-1zM125,22h1v1h-1zM70,26h1v1h-1zM123,26h1v1h-1zM61,28h1v1h-1zM43,33h1v1h-1z" fill="#ff0000" opacity="0.77"/>
  <path d="M37,3h1v1h-1zM73,12h1v1h-1zM132,21h1v1h-1zM141,24h1v1h-1zM115,25h1v1h-1zM102,30h1v1h-1zM119,30h1v1h-1zM150,33h1v1h-1z" fill="#ff0000" opacity="0.31"/>
  <path d="M58,3h1v1h-1zM30,15h1v1h-1zM97,21h1v1h-1zM131,25h1v1h-1zM139,25h1v1h-1zM146,25h1v1h-1zM112,29h1v1h-1zM113,29h1v1h-1z" fill="#ff0000" opacity="0.07"/>
  <path d="M90,3h1v1h-1zM60,16h1v1h-1zM157,22h1v1h-1zM134,24h1v1h-1zM78,29h1v1h-1zM99,29h1v1h-1zM146,29h1v1h-1zM99,32h1v1h-1z" fill="#ff0000" opacity="0.93"/>
  <path d="M91,3h1v1h-1zM37,4h1v1h-1zM132,22h1v1h-1zM61,24h1v1h-1zM129,25h1v1h-1zM69,29h1v1h-1zM119,31h1v1h-1z" fill="#ff0000" opacity="0.50"/>
  <path d="M92,3h1v1h-1zM93,3h1v1h-1zM36,17h1v1h-1zM108,20h1v1h-1zM28,22h1v1h-1zM118,22h1v1h-1zM36,31h1v1h-1z" fill="#ff0000" opacity="0.49"/>
  <path d="M94,3h1v1h-1zM95,3h1v1h-1zM96,3h1v1h-1zM97,3h1v1h-1zM98,3h1v1h-1zM61,16h1v1h-1zM115,20h1v1h-1zM123,28h1v1h-1zM97,31h1v1h-1zM125,31h1v1h-1zM0,33h1v1h-1z" fill="#ff0000" opacity="0.48"/>
  <path d="M99,3h1v1h-1zM122,30h1v1h-1zM108,31h1v1h-1zM128,33h1v1h-1z" fill="#ff0000" opacity="0.46"/>
  <path d="M22,4h1v1h-1zM61,27h1v1h-1zM95,28h1v1h-1zM100,32h1v1h-1zM56,33h1v1h-1z" fill="#ff0000" opacity="0.08"/>
  <path d="M49,4h1v1h-1zM52,4h1v1h-1zM22,7h1v1h-1zM60,8h1v1h-1zM30,12h1v1h-1zM50,16h1v1h-1zM48,22h1v1h-1zM91,23h1v1h-1zM120,27h1v1h-1zM98,30h1v1h-1zM87,32h1v1h-1zM1,33h1v1h-1zM2,33h1v1h-1zM3,33h1v1h-1zM4,33h1v1h-1zM5,33h1v1h-1zM6,33h1v1h-1zM7,33h1v1h-1zM8,33h1v1h-1zM9,33h1v1h-1zM10,33h1v1h-1zM11,33h1v1h-1zM12,33h1v1h-1zM13,33h1v1h-1zM14,33h1v1h-1zM15,33h1v1h-1zM16,33h1v1h-1zM17,33h1v1h-1zM18,33h1v1h-1zM19,33h1v1h-1zM20,33h1v1h-1zM21,33h1v1h-1zM22,33h1v1h-1zM23,33h1v1h-1zM24,33h1v1h-1zM25,33h1v1h-1zM72,33h1v1h-1zM73,33h1v1h-1zM74,33h1v1h-1zM75,33h1v1h-1zM76,33h1v1h-1zM88,33h1v1h-1zM89,33h1v1h-1zM90,33h1v1h-1zM91,33h1v1h-1zM92,33h1v1h-1zM93,33h1v1h-1zM94,33h1v1h-1zM97,33h1v1h-1zM105,33h1v1h-1zM109,33h1v1h-1zM120,33h1v1h-1zM126,33h1v1h-1zM127,33h1v1h-1zM131,33h1v1h-1zM132,33h1v1h-1zM133,33h1v1h-1zM134,33h1v1h-1zM135,33h1v1h-1zM136,33h1v1h-1zM137,33h1v1h-1zM145,33h1v1h-1z" fill="#ff0000" opacity="0.75"/>
  <path d="M50,4h1v1h-1zM112,24h1v1h-1zM3,27h1v1h-1zM62,29h1v1h-1z" fill="#ff0000" opacity="0.59"/>
  <path d="M51,4h1v1h-1zM62,4h1v1h-1zM123,20h1v1h-1zM158,20h1v1h-1zM47,21h1v1h-1zM110,21h1v1h-1zM33,22h1v1h-1zM123,24h1v1h-1zM27,26h1v1h-1zM104,26h1v1h-1zM33,27h1v1h-1zM100,27h1v1h-1zM153,27h1v1h-1zM34,29h1v1h-1zM100,31h1v1h-1z" fill="#ff0000" opacity="0.60"/>
  <path d="M57,4h1v1h-1zM111,30h1v1h-1zM26,31h1v1h-1zM128,32h1v1h-1z" fill="#ff0000" opacity="0.47"/>
  <path d="M99,4h1v1h-1zM56,6h1v1h-1zM102,23h1v1h-1zM125,32h1v1h-1zM156,33h1v1h-1z" fill="#ff0000" opacity="0.38"/>
  <path d="M32,5h1v1h-1zM20,14h1v1h-1z" fill="#ff0000" opacity="0.32"/>
  <path d="M37,5h1v1h-1zM18,24h1v1h-1zM91,24h1v1h-1zM120,26h1v1h-1zM87,31h1v1h-1zM138,31h1v1h-1zM158,31h1v1h-1z" fill="#ff0000" opacity="0.56"/>
  <path d="M53,5h1v1h-1zM34,19h1v1h-1zM159,20h1v1h-1zM106,24h1v1h-1zM128,29h1v1h-1zM149,29h1v1h-1z" fill="#ff0000" opacity="0.12"/>
  <path d="M54,5h1v1h-1zM87,6h1v1h-1zM52,18h1v1h-1zM56,19h1v1h-1zM146,20h1v1h-1zM147,20h1v1h-1zM128,21h1v1h-1zM156,22h1v1h-1zM118,24h1v1h-1zM95,26h1v1h-1zM125,26h1v1h-1zM155,28h1v1h-1zM145,31h1v1h-1z" fill="#ff0000" opacity="0.84"/>
  <path d="M56,5h1v1h-1zM81,17h1v1h-1zM19,21h1v1h-1zM60,27h1v1h-1zM122,28h1v1h-1zM55,31h1v1h-1zM39,32h1v1h-1z" fill="#ff0000" opacity="0.89"/>
  <path d="M61,5h1v1h-1zM60,9h1v1h-1zM61,9h1v1h-1zM62,9h1v1h-1zM63,9h1v1h-1zM64,9h1v1h-1zM65,9h1v1h-1zM66,9h1v1h-1zM67,9h1v1h-1zM68,9h1v1h-1zM69,9h1v1h-1zM70,9h1v1h-1zM71,9h1v1h-1zM72,9h1v1h-1zM73,9h1v1h-1zM91,9h1v1h-1zM92,9h1v1h-1zM93,9h1v1h-1zM127,20h1v1h-1zM98,21h1v1h-1zM135,23h1v1h-1zM49,24h1v1h-1zM27,28h1v1h-1zM91,28h1v1h-1zM92,28h1v1h-1zM93,28h1v1h-1zM94,28h1v1h-1zM135,28h1v1h-1zM136,28h1v1h-1zM137,28h1v1h-1zM1,30h1v1h-1zM54,32h1v1h-1z" fill="#ff0000" opacity="0.15"/>
  <path d="M62,5h1v1h-1zM72,19h1v1h-1zM101,22h1v1h-1zM115,22h1v1h-1zM126,22h1v1h-1zM27,24h1v1h-1zM33,24h1v1h-1zM154,25h1v1h-1zM138,27h1v1h-1zM144,27h1v1h-1zM157,27h1v1h-1zM100,28h1v1h-1zM102,28h1v1h-1zM100,30h1v1h-1zM54,31h1v1h-1zM1,32h1v1h-1z" fill="#ff0000" opacity="0.99"/>
  <path d="M88,5h1v1h-1zM125,30h1v1h-1z" fill="#ff0000" opacity="0.58"/>
  <path d="M89,5h1v1h-1zM90,5h1v1h-1zM91,5h1v1h-1zM92,5h1v1h-1zM94,5h1v1h-1zM95,5h1v1h-1zM108,21h1v1h-1zM70,24h1v1h-1zM134,28h1v1h-1zM108,30h1v1h-1zM111,31h1v1h-1zM95,32h1v1h-1zM106,32h1v1h-1z" fill="#ff0000" opacity="0.28"/>
  <path d="M93,5h1v1h-1zM55,8h1v1h-1zM30,14h1v1h-1zM72,16h1v1h-1zM71,20h1v1h-1zM89,20h1v1h-1zM50,25h1v1h-1z" fill="#ff0000" opacity="0.29"/>
  <path d="M96,5h1v1h-1zM97,5h1v1h-1zM56,17h1v1h-1zM101,20h1v1h-1zM159,22h1v1h-1zM28,23h1v1h-1zM122,31h1v1h-1zM103,33h1v1h-1z" fill="#ff0000" opacity="0.27"/>
  <path d="M98,5h1v1h-1zM29,19h1v1h-1zM141,23h1v1h-1zM80,24h1v1h-1zM141,25h1v1h-1zM105,29h1v1h-1z" fill="#ff0000" opacity="0.17"/>
  <path d="M22,6h1v1h-1zM56,18h1v1h-1zM126,20h1v1h-1zM70,25h1v1h-1zM143,27h1v1h-1zM65,33h1v1h-1z" fill="#ff0000" opacity="0.53"/>
  <path d="M37,6h1v1h-1zM37,16h1v1h-1zM41,25h1v1h-1zM91,25h1v1h-1zM126,25h1v1h-1zM38,32h1v1h-1zM53,32h1v1h-1z" fill="#ff0000" opacity="0.51"/>
  <path d="M46,6h1v1h-1zM40,14h1v1h-1zM61,23h1v1h-1zM115,26h1v1h-1zM4,27h1v1h-1zM5,27h1v1h-1zM6,27h1v1h-1zM7,27h1v1h-1zM8,27h1v1h-1zM9,27h1v1h-1zM10,27h1v1h-1zM11,27h1v1h-1zM12,27h1v1h-1zM13,27h1v1h-1zM14,27h1v1h-1zM15,27h1v1h-1zM16,27h1v1h-1zM148,28h1v1h-1zM103,31h1v1h-1zM151,31h1v1h-1z" fill="#ff0000" opacity="0.95"/>
  <path d="M54,6h1v1h-1zM93,25h1v1h-1zM94,25h1v1h-1zM135,25h1v1h-1zM136,25h1v1h-1zM137,25h1v1h-1zM138,25h1v1h-1zM139,26h1v1h-1zM68,32h1v1h-1zM78,32h1v1h-1z" fill="#ff0000" opacity="0.21"/>
  <path d="M61,6h1v1h-1zM125,20h1v1h-1zM145,20h1v1h-1zM79,26h1v1h-1zM91,31h1v1h-1zM87,33h1v1h-1z" fill="#ff0000" opacity="0.68"/>
  <path d="M88,6h1v1h-1zM89,6h1v1h-1zM90,6h1v1h-1z" fill="#ff0000" opacity="0.41"/>
  <path d="M92,6h1v1h-1zM93,6h1v1h-1zM94,6h1v1h-1zM95,6h1v1h-1zM96,7h1v1h-1zM82,15h1v1h-1zM122,20h1v1h-1z" fill="#ff0000" opacity="0.39"/>
  <path d="M96,6h1v1h-1zM83,11h1v1h-1zM42,21h1v1h-1zM149,22h1v1h-1zM120,25h1v1h-1zM100,26h1v1h-1zM27,27h1v1h-1zM87,30h1v1h-1zM130,32h1v1h-1zM99,33h1v1h-1z" fill="#ff0000" opacity="0.37"/>
  <path d="M97,6h1v1h-1zM62,23h1v1h-1zM155,23h1v1h-1zM126,24h1v1h-1zM61,25h1v1h-1zM156,25h1v1h-1zM69,27h1v1h-1zM149,30h1v1h-1zM26,33h1v1h-1zM147,33h1v1h-1z" fill="#ff0000" opacity="0.04"/>
  <path d="M37,7h1v1h-1zM46,10h1v1h-1zM47,12h1v1h-1zM127,27h1v1h-1zM158,27h1v1h-1zM50,33h1v1h-1zM138,33h1v1h-1z" fill="#ff0000" opacity="0.36"/>
  <path d="M55,7h1v1h-1zM157,20h1v1h-1zM152,22h1v1h-1zM144,23h1v1h-1zM150,32h1v1h-1z" fill="#ff0000" opacity="0.83"/>
  <path d="M31,8h1v1h-1zM74,9h1v1h-1zM82,14h1v1h-1zM63,18h1v1h-1zM148,20h1v1h-1zM159,21h1v1h-1zM155,25h1v1h-1zM142,26h1v1h-1zM115,28h1v1h-1zM122,29h1v1h-1zM42,33h1v1h-1zM119,33h1v1h-1zM141,33h1v1h-1z" fill="#ff0000" opacity="0.64"/>
  <path d="M46,8h1v1h-1zM151,23h1v1h-1zM151,25h1v1h-1zM42,26h1v1h-1zM69,28h1v1h-1zM140,33h1v1h-1z" fill="#ff0000" opacity="0.26"/>
  <path d="M21,9h1v1h-1zM46,9h1v1h-1zM144,20h1v1h-1zM115,23h1v1h-1zM126,23h1v1h-1zM95,25h1v1h-1zM48,27h1v1h-1zM116,28h1v1h-1z" fill="#ff0000" opacity="0.20"/>
  <path d="M38,9h1v1h-1zM51,17h1v1h-1zM112,23h1v1h-1zM123,23h1v1h-1zM18,25h1v1h-1zM51,26h1v1h-1zM145,28h1v1h-1zM90,31h1v1h-1z" fill="#ff0000" opacity="0.78"/>
  <path d="M94,9h1v1h-1zM48,13h1v1h-1zM54,19h1v1h-1zM18,22h1v1h-1zM98,29h1v1h-1zM37,32h1v1h-1zM65,32h1v1h-1z" fill="#ff0000" opacity="0.11"/>
  <path d="M21,10h1v1h-1zM40,13h1v1h-1zM62,22h1v1h-1zM104,27h1v1h-1zM90,30h1v1h-1zM150,31h1v1h-1z" fill="#ff0000" opacity="0.43"/>
  <path d="M31,10h1v1h-1zM41,24h1v1h-1zM92,25h1v1h-1zM33,28h1v1h-1zM79,28h1v1h-1zM101,30h1v1h-1zM130,31h1v1h-1z" fill="#ff0000" opacity="0.19"/>
  <path d="M38,10h1v1h-1zM35,18h1v1h-1zM109,25h1v1h-1zM157,26h1v1h-1zM128,31h1v1h-1z" fill="#ff0000" opacity="0.35"/>
  <path d="M74,10h1v1h-1zM39,11h1v1h-1zM62,21h1v1h-1zM134,25h1v1h-1zM88,27h1v1h-1zM127,28h1v1h-1zM131,29h1v1h-1z" fill="#ff0000" opacity="0.81"/>
  <path d="M21,11h1v1h-1zM81,18h1v1h-1zM118,25h1v1h-1zM95,27h1v1h-1zM1,31h1v1h-1zM108,32h1v1h-1zM138,32h1v1h-1z" fill="#ff0000" opacity="0.65"/>
  <path d="M46,11h1v1h-1zM144,24h1v1h-1zM101,29h1v1h-1zM35,30h1v1h-1zM157,32h1v1h-1z" fill="#ff0000" opacity="0.76"/>
  <path d="M82,13h1v1h-1zM49,23h1v1h-1zM158,28h1v1h-1zM45,33h1v1h-1z" fill="#ff0000" opacity="0.88"/>
  <path d="M73,14h1v1h-1zM63,17h1v1h-1zM72,18h1v1h-1zM99,22h1v1h-1zM121,22h1v1h-1zM118,23h1v1h-1zM104,28h1v1h-1zM125,29h1v1h-1zM133,30h1v1h-1zM47,33h1v1h-1z" fill="#ff0000" opacity="0.80"/>
  <path d="M58,15h1v1h-1zM154,20h1v1h-1zM140,22h1v1h-1zM88,24h1v1h-1zM131,26h1v1h-1zM128,30h1v1h-1zM26,32h1v1h-1z" fill="#ff0000" opacity="0.25"/>
  <path d="M72,15h1v1h-1zM56,16h1v1h-1zM62,16h1v1h-1zM71,19h1v1h-1zM142,21h1v1h-1zM70,23h1v1h-1zM145,23h1v1h-1zM28,24h1v1h-1zM152,27h1v1h-1zM145,29h1v1h-1zM34,30h1v1h-1zM145,30h1v1h-1zM150,30h1v1h-1zM55,32h1v1h-1zM158,32h1v1h-1z" fill="#ff0000" opacity="0.05"/>
  <path d="M82,16h1v1h-1zM63,20h1v1h-1zM2,28h1v1h-1zM51,33h1v1h-1z" fill="#ff0000" opacity="0.14"/>
  <path d="M44,19h1v1h-1zM28,21h1v1h-1zM152,26h1v1h-1z" fill="#ff0000" opacity="0.72"/>
  <path d="M19,20h1v1h-1zM80,22h1v1h-1zM129,22h1v1h-1zM102,24h1v1h-1zM154,24h1v1h-1zM148,31h1v1h-1zM103,32h1v1h-1zM151,33h1v1h-1z" fill="#ff0000" opacity="0.66"/>
  <path d="M34,20h1v1h-1zM113,20h1v1h-1zM155,20h1v1h-1zM124,28h1v1h-1zM142,31h1v1h-1z" fill="#ff0000" opacity="0.71"/>
  <path d="M90,20h1v1h-1zM91,20h1v1h-1zM92,20h1v1h-1zM93,20h1v1h-1zM94,20h1v1h-1zM95,20h1v1h-1zM96,20h1v1h-1zM99,20h1v1h-1zM100,20h1v1h-1zM106,20h1v1h-1zM107,20h1v1h-1zM133,20h1v1h-1zM134,20h1v1h-1zM135,20h1v1h-1zM136,20h1v1h-1zM137,20h1v1h-1zM138,20h1v1h-1zM139,20h1v1h-1zM71,21h1v1h-1zM109,26h1v1h-1zM114,26h1v1h-1zM43,27h1v1h-1zM105,30h1v1h-1zM153,31h1v1h-1zM49,33h1v1h-1z" fill="#ff0000" opacity="0.54"/>
  <path d="M110,20h1v1h-1zM116,20h1v1h-1zM121,20h1v1h-1zM132,20h1v1h-1zM152,21h1v1h-1zM102,22h1v1h-1zM148,23h1v1h-1zM99,24h1v1h-1zM108,29h1v1h-1zM155,29h1v1h-1zM141,30h1v1h-1zM155,30h1v1h-1zM111,32h1v1h-1zM122,32h1v1h-1zM148,32h1v1h-1zM95,33h1v1h-1z" fill="#ff0000" opacity="0.09"/>
  <path d="M114,20h1v1h-1zM128,26h1v1h-1zM111,29h1v1h-1z" fill="#ff0000" opacity="0.67"/>
  <path d="M124,20h1v1h-1zM89,21h1v1h-1zM117,21h1v1h-1zM132,23h1v1h-1zM103,24h1v1h-1zM92,31h1v1h-1zM93,31h1v1h-1zM94,31h1v1h-1zM134,31h1v1h-1zM135,31h1v1h-1zM136,31h1v1h-1zM137,31h1v1h-1zM152,31h1v1h-1zM119,32h1v1h-1zM48,33h1v1h-1zM57,33h1v1h-1zM110,33h1v1h-1zM121,33h1v1h-1z" fill="#ff0000" opacity="0.69"/>
  <path d="M80,21h1v1h-1zM129,23h1v1h-1zM60,25h1v1h-1zM156,26h1v1h-1zM109,28h1v1h-1zM154,33h1v1h-1z" fill="#ff0000" opacity="0.91"/>
  <path d="M143,21h1v1h-1zM27,25h1v1h-1zM90,28h1v1h-1zM147,32h1v1h-1z" fill="#ff0000" opacity="0.82"/>
  <path d="M149,21h1v1h-1zM100,25h1v1h-1zM109,27h1v1h-1zM77,33h1v1h-1zM155,33h1v1h-1z" fill="#ff0000" opacity="0.73"/>
  <path d="M153,21h1v1h-1zM33,23h1v1h-1zM46,28h1v1h-1zM46,33h1v1h-1zM152,33h1v1h-1z" fill="#ff0000" opacity="0.86"/>
  <path d="M71,22h1v1h-1zM110,22h1v1h-1zM114,22h1v1h-1zM106,23h1v1h-1zM56,32h1v1h-1z" fill="#ff0000" opacity="0.79"/>
  <path d="M124,22h1v1h-1zM142,22h1v1h-1zM154,23h1v1h-1zM69,30h1v1h-1zM140,32h1v1h-1zM58,33h1v1h-1zM59,33h1v1h-1zM60,33h1v1h-1zM61,33h1v1h-1zM62,33h1v1h-1zM63,33h1v1h-1zM64,33h1v1h-1zM69,33h1v1h-1zM70,33h1v1h-1zM71,33h1v1h-1zM98,33h1v1h-1zM104,33h1v1h-1z" fill="#ff0000" opacity="0.74"/>
  <path d="M105,25h1v1h-1z" fill="#ff0000" opacity="0.34"/>
  <path d="M145,25h1v1h-1zM124,26h1v1h-1zM26,30h1v1h-1zM78,30h1v1h-1z" fill="#ff0000" opacity="0.70"/>
  <path d="M148,27h1v1h-1zM78,31h1v1h-1zM41,33h1v1h-1zM106,33h1v1h-1z" fill="#ff0000" opacity="0.45"/>
  <path d="M105,31h1v1h-1zM133,31h1v1h-1zM64,32h1v1h-1z" fill="#ff0000" opacity="0.90"/>
  <path d="M154,31h1v1h-1z" fill="#ff0000" opacity="0.57"/>
</svg>