<svg xmlns="http://www.w3.org/2000/svg" viewBox="0 0 160 63" width="100%" height="100%">
  <path d="M0,0h1v1h-1zM1,0h1v1h-1zM2,0h1v1h-1zM3,0h1v1h-1zM4,0h1v1h-1zM5,0h1v1h-1zM6,0h1v1h-1zM38,0h1v1h-1zM39,0h1v1h-1zM40,0h1v1h-1zM41,0h1v1h-1zM42,0h1v1h-1zM43,0h1v1h-1zM44,0h1v1h-1zM95,0h1v1h-1zM96,0h1v1h-1zM97,0h1v1h-1zM98,0h1v1h-1zM99,0h1v1h-1zM154,0h1v1h-1zM155,0h1v1h-1zM156,0h1v1h-1zM157,0h1v1h-1zM158,0h1v1h-1zM159,0h1v1h-1zM0,1h1v1h-1zM1,1h1v1h-1zM2,1h1v1h-1zM3,1h1v1h-1zM4,1h1v1h-1zM5,1h1v1h-1zM6,1h1v1h-1zM38,1h1v1h-1zM39,1h1v1h-1zM40,1h1v1h-1zM41,1h1v1h-1zM42,1h1v1h-1zM43,1h1v1h-1zM44,1h1v1h-1zM95,1h1v1h-1zM96,1h1v1h-1zM97,1h1v1h-1zM98,1h1v1h-1zM99,1h1v1h-1zM150,1h1v1h-1zM151,1h1v1h-1zM152,1h1v1h-1zM153,1h1v1h-1zM154,1h1v1h-1zM155,1h1v1h-1zM156,1h1v1h-1zM157,1h1v1h-1zM158,1h1v1h-1zM159,1h1v1h-1zM0,2h1v1h-1zM1,2h1v1h-1zM2,2h1v1h-1zM3,2h1v1h-1zM4,2h1v1h-1zM5,2h1v1h-1zM6,2h1v1h-1zM36,2h1v1h-1zM37,2h1v1h-1zM38,2h1v1h-1zM39,2h1v1h-1zM40,2h1v1h-1zM41,2h1v1h-1zM42,2h1v1h-1zM95,2h1v1h-1zM96,2h1v1h-1zM97,2h1v1h-1zM98,2h1v1h-1zM99,2h1v1h-1zM147,2h1v1h-1zM148,2h1v1h-1zM149,2h1v1h-1zM150,2h1v1h-1zM151,2h1v1h-1zM152,2h1v1h-1zM153,2h1v1h-1zM154,2h1v1h-1zM155,2h1v1h-1zM156,2h1v1h-1zM157,2h1v1h-1zM158,2h1v1h-1zM159,2h1v1h-1zM0,3h1v1h-1zM1,3h1v1h-1zM2,3h1v1h-1zM3,3h1v1h-1zM4,3h1v1h-1zM5,3h1v1h-1zM6,3h1v1h-1zM36,3h1v1h-1zM37,3h1v1h-1zM38,3h1v1h-1zM39,3h1v1h-1zM40,3h1v1h-1zM41,3h1v1h-1zM42,3h1v1h-1zM95,3h1v1h-1zM96,3h1v1h-1zM97,3h1v1h-1zM98,3h1v1h-1zM99,3h1v1h-1zM147,3h1v1h-1zM148,3h1v1h-1zM149,3h1v1h-1zM150,3h1v1h-1zM151,3h1v1h-1zM152,3h1v1h-1zM153,3h1v1h-1zM154,3h1v1h-1zM155,3h1v1h-1zM156,3h1v1h-1zM157,3h1v1h-1zM158,3h1v1h-1zM159,3h1v1h-1zM0,4h1v1h-1zM1,4h1v1h-1zM2,4h1v1h-1zM3,4h1v1h-1zM4,4h1v1h-1zM5,4h1v1h-1zM6,4h1v1h-1zM34,4h1v1h-1zM35,4h1v1h-1zM36,4h1v1h-1zM37,4h1v1h-1zM38,4h1v1h-1zM39,4h1v1h-1zM40,4h1v1h-1zM95,4h1v1h-1zM96,4h1v1h-1zM97,4h1v1h-1zM98,4h1v1h-1zM99,4h1v1h-1zM145,4h1v1h-1zM146,4h1v1h-1zM147,4h1v1h-1zM148,4h1v1h-1zM149,4h1v1h-1zM150,4h1v1h-1zM151,4h1v1h-1zM152,4h1v1h-1zM153,4h1v1h-1zM154,4h1v1h-1zM155,4h1v1h-1zM156,4h1v1h-1zM157,4h1v1h-1zM158,4h1v1h-1zM159,4h1v1h-1zM0,5h1v1h-1zM1,5h1v1h-1zM2,5h1v1h-1zM3,5h1v1h-1zM4,5h1v1h-1zM5,5h1v1h-1zM6,5h1v1h-1zM34,5h1v1h-1zM35,5h1v1h-1zM36,5h1v1h-1zM37,5h1v1h-1zM38,5h1v1h-1zM39,5h1v1h-1zM40,5h1v1h-1zM95,5h1v1h-1zM96,5h1v1h-1zM97,5h1v1h-1zM98,5h1v1h-1zM99,5h1v1h-1zM145,5h1v1h-1zM146,5h1v1h-1zM147,5h1v1h-1zM148,5h1v1h-1zM149,5h1v1h-1zM150,5h1v1h-1zM151,5h1v1h-1zM152,5h1v1h-1zM153,5h1v1h-1zM154,5h1v1h-1zM155,5h1v1h-1zM156,5h1v1h-1zM157,5h1v1h-1zM158,5h1v1h-1zM159,5h1v1h-1zM0,6h1v1h-1zM1,6h1v1h-1zM2,6h1v1h-1zM3,6h1v1h-1zM4,6h1v1h-1zM5,6h1v1h-1zM6,6h1v1h-1zM32,6h1v1h-1zM33,6h1v1h-1zM34,6h1v1h-1zM35,6h1v1h-1zM36,6h1v1h-1zM37,6h1v1h-1zM38,6h1v1h-1zM95,6h1v1h-1zM96,6h1v1h-1zM97,6h1v1h-1zM98,6h1v1h-1zM99,6h1v1h-1zM145,6h1v1h-1zM146,6h1v1h-1zM147,6h1v1h-1zM148,6h1v1h-1zM149,6h1v1h-1zM150,6h1v1h-1zM0,7h1v1h-1zM1,7h1v1h-1zM2,7h1v1h-1zM3,7h1v1h-1zM4,7h1v1h-1zM5,7h1v1h-1zM6,7h1v1h-1zM32,7h1v1h-1zM33,7h1v1h-1zM34,7h1v1h-1zM35,7h1v1h-1zM36,7h1v1h-1zM37,7h1v1h-1zM38,7h1v1h-1zM95,7h1v1h-1zM96,7h1v1h-1zM97,7h1v1h-1zM98,7h1v1h-1zM99,7h1v1h-1zM145,7h1v1h-1zM146,7h1v1h-1zM147,7h1v1h-1zM148,7h1v1h-1zM149,7h1v1h-1zM0,8h1v1h-1zM1,8h1v1h-1zM2,8h1v1h-1zM3,8h1v1h-1zM4,8h1v1h-1zM5,8h1v1h-1zM6,8h1v1h-1zM31,8h1v1h-1zM32,8h1v1h-1zM33,8h1v1h-1zM34,8h1v1h-1zM35,8h1v1h-1zM36,8h1v1h-1zM37,8h1v1h-1zM95,8h1v1h-1zM96,8h1v1h-1zM97,8h1v1h-1zM98,8h1v1h-1zM99,8h1v1h-1zM144,8h1v1h-1zM145,8h1v1h-1zM146,8h1v1h-1zM147,8h1v1h-1zM148,8h1v1h-1zM149,8h1v1h-1zM0,9h1v1h-1zM1,9h1v1h-1zM2,9h1v1h-1zM3,9h1v1h-1zM4,9h1v1h-1zM5,9h1v1h-1zM6,9h1v1h-1zM30,9h1v1h-1zM31,9h1v1h-1zM32,9h1v1h-1zM33,9h1v1h-1zM34,9h1v1h-1zM35,9h1v1h-1zM95,9h1v1h-1zM96,9h1v1h-1zM97,9h1v1h-1zM98,9h1v1h-1zM99,9h1v1h-1zM144,9h1v1h-1zM145,9h1v1h-1zM146,9h1v1h-1zM147,9h1v1h-1zM148,9h1v1h-1zM149,9h1v1h-1zM0,10h1v1h-1zM1,10h1v1h-1zM2,10h1v1h-1zM3,10h1v1h-1zM4,10h1v1h-1zM5,10h1v1h-1zM6,10h1v1h-1zM29,10h1v1h-1zM30,10h1v1h-1zM31,10h1v1h-1zM32,10h1v1h-1zM33,10h1v1h-1zM34,10h1v1h-1zM35,10h1v1h-1zM95,10h1v1h-1zM96,10h1v1h-1zM97,10h1v1h-1zM98,10h1v1h-1zM99,10h1v1h-1zM144,10h1v1h-1zM145,10h1v1h-1zM146,10h1v1h-1zM147,10h1v1h-1zM148,10h1v1h-1zM0,11h1v1h-1zM1,11h1v1h-1zM2,11h1v1h-1zM3,11h1v1h-1zM4,11h1v1h-1zM5,11h1v1h-1zM6,11h1v1h-1zM28,11h1v1h-1zM29,11h1v1h-1zM30,11h1v1h-1zM31,11h1v1h-1zM32,11h1v1h-1zM33,11h1v1h-1zM95,11h1v1h-1zM96,11h1v1h-1zM97,11h1v1h-1zM98,11h1v1h-1zM99,11h1v1h-1zM144,11h1v1h-1zM145,11h1v1h-1zM146,11h1v1h-1zM147,11h1v1h-1zM148,11h1v1h-1zM0,12h1v1h-1zM1,12h1v1h-1zM2,12h1v1h-1zM3,12h1v1h-1zM4,12h1v1h-1zM5,12h1v1h-1zM6,12h1v1h-1zM28,12h1v1h-1zM29,12h1v1h-1zM30,12h1v1h-1zM31,12h1v1h-1zM32,12h1v1h-1zM33,12h1v1h-1zM95,12h1v1h-1zM96,12h1v1h-1zM97,12h1v1h-1zM98,12h1v1h-1zM99,12h1v1h-1zM144,12h1v1h-1zM145,12h1v1h-1zM146,12h1v1h-1zM147,12h1v1h-1zM148,12h1v1h-1zM0,13h1v1h-1zM1,13h1v1h-1zM2,13h1v1h-1zM3,13h1v1h-1zM4,13h1v1h-1zM5,13h1v1h-1zM6,13h1v1h-1zM26,13h1v1h-1zM27,13h1v1h-1zM28,13h1v1h-1zM29,13h1v1h-1zM30,13h1v1h-1zM31,13h1v1h-1zM32,13h1v1h-1zM95,13h1v1h-1zM96,13h1v1h-1zM97,13h1v1h-1zM98,13h1v1h-1zM99,13h1v1h-1zM144,13h1v1h-1zM145,13h1v1h-1zM146,13h1v1h-1zM147,13h1v1h-1zM148,13h1v1h-1zM0,14h1v1h-1zM1,14h1v1h-1zM2,14h1v1h-1zM3,14h1v1h-1zM4,14h1v1h-1zM5,14h1v1h-1zM6,14h1v1h-1zM26,14h1v1h-1zM27,14h1v1h-1zM28,14h1v1h-1zM29,14h1v1h-1zM30,14h1v1h-1zM31,14h1v1h-1zM95,14h1v1h-1zM96,14h1v1h-1zM97,14h1v1h-1zM98,14h1v1h-1zM99,14h1v1h-1zM144,14h1v1h-1zM145,14h1v1h-1zM146,14h1v1h-1zM147,14h1v1h-1zM148,14h1v1h-1zM0,15h1v1h-1zM1,15h1v1h-1zM2,15h1v1h-1zM3,15h1v1h-1zM4,15h1v1h-1zM5,15h1v1h-1zM6,15h1v1h-1zM25,15h1v1h-1zM26,15h1v1h-1zM27,15h1v1h-1zM28,15h1v1h-1zM29,15h1v1h-1zM30,15h1v1h-1zM95,15h1v1h-1zM96,15h1v1h-1zM97,15h1v1h-1zM98,15h1v1h-1zM99,15h1v1h-1zM144,15h1v1h-1zM145,15h1v1h-1zM146,15h1v1h-1zM147,15h1v1h-1zM148,15h1v1h-1zM0,16h1v1h-1zM1,16h1v1h-1zM2,16h1v1h-1zM3,16h1v1h-1zM4,16h1v1h-1zM5,16h1v1h-1zM6,16h1v1h-1zM24,16h1v1h-1zM25,16h1v1h-1zM26,16h1v1h-1zM27,16h1v1h-1zM28,16h1v1h-1zM29,16h1v1h-1zM95,16h1v1h-1zM96,16h1v1h-1zM97,16h1v1h-1zM98,16h1v1h-1zM99,16h1v1h-1zM144,16h1v1h-1zM145,16h1v1h-1zM146,16h1v1h-1zM147,16h1v1h-1zM148,16h1v1h-1zM0,17h1v1h-1zM1,17h1v1h-1zM2,17h1v1h-1zM3,17h1v1h-1zM4,17h1v1h-1zM5,17h1v1h-1zM6,17h1v1h-1zM23,17h1v1h-1zM24,17h1v1h-1zM25,17h1v1h-1zM26,17h1v1h-1zM27,17h1v1h-1zM28,17h1v1h-1zM65,17h1v1h-1zM66,17h1v1h-1zM67,17h1v1h-1zM68,17h1v1h-1zM69,17h1v1h-1zM70,17h1v1h-1zM95,17h1v1h-1zM96,17h1v1h-1zM97,17h1v1h-1zM98,17h1v1h-1zM99,17h1v1h-1zM114,17h1v1h-1zM115,17h1v1h-1zM116,17h1v1h-1zM117,17h1v1h-1zM118,17h1v1h-1zM119,17h1v1h-1zM144,17h1v1h-1zM145,17h1v1h-1zM146,17h1v1h-1zM147,17h1v1h-1zM148,17h1v1h-1zM0,18h1v1h-1zM1,18h1v1h-1zM2,18h1v1h-1zM3,18h1v1h-1zM4,18h1v1h-1zM5,18h1v1h-1zM6,18h1v1h-1zM22,18h1v1h-1zM23,18h1v1h-1zM24,18h1v1h-1zM25,18h1v1h-1zM26,18h1v1h-1zM27,18h1v1h-1zM62,18h1v1h-1zM63,18h1v1h-1zM64,18h1v1h-1zM65,18h1v1h-1zM66,18h1v1h-1zM67,18h1v1h-1zM68,18h1v1h-1zM69,18h1v1h-1zM70,18h1v1h-1zM71,18h1v1h-1zM72,18h1v1h-1zM73,18h1v1h-1zM74,18h1v1h-1zM95,18h1v1h-1zM96,18h1v1h-1zM97,18h1v1h-1zM98,18h1v1h-1zM99,18h1v1h-1zM111,18h1v1h-1zM112,18h1v1h-1zM113,18h1v1h-1zM114,18h1v1h-1zM115,18h1v1h-1zM116,18h1v1h-1zM117,18h1v1h-1zM118,18h1v1h-1zM119,18h1v1h-1zM120,18h1v1h-1zM121,18h1v1h-1zM136,18h1v1h-1zM137,18h1v1h-1zM138,18h1v1h-1zM139,18h1v1h-1zM140,18h1v1h-1zM141,18h1v1h-1zM142,18h1v1h-1zM143,18h1v1h-1zM144,18h1v1h-1zM145,18h1v1h-1zM146,18h1v1h-1zM147,18h1v1h-1zM148,18h1v1h-1zM149,18h1v1h-1zM150,18h1v1h-1zM151,18h1v1h-1zM152,18h1v1h-1zM153,18h1v1h-1zM154,18h1v1h-1zM155,18h1v1h-1zM156,18h1v1h-1zM157,18h1v1h-1zM158,18h1v1h-1zM159,18h1v1h-1zM0,19h1v1h-1zM1,19h1v1h-1zM2,19h1v1h-1zM3,19h1v1h-1zM4,19h1v1h-1zM5,19h1v1h-1zM6,19h1v1h-1zM21,19h1v1h-1zM22,19h1v1h-1zM23,19h1v1h-1zM24,19h1v1h-1zM25,19h1v1h-1zM26,19h1v1h-1zM58,19h1v1h-1zM59,19h1v1h-1zM60,19h1v1h-1zM61,19h1v1h-1zM62,19h1v1h-1zM63,19h1v1h-1zM64,19h1v1h-1zM65,19h1v1h-1zM66,19h1v1h-1zM67,19h1v1h-1zM68,19h1v1h-1zM69,19h1v1h-1zM70,19h1v1h-1zM71,19h1v1h-1zM72,19h1v1h-1zM73,19h1v1h-1zM74,19h1v1h-1zM75,19h1v1h-1zM76,19h1v1h-1zM77,19h1v1h-1zM95,19h1v1h-1zM96,19h1v1h-1zM97,19h1v1h-1zM98,19h1v1h-1zM99,19h1v1h-1zM107,19h1v1h-1zM108,19h1v1h-1zM109,19h1v1h-1zM110,19h1v1h-1zM111,19h1v1h-1zM112,19h1v1h-1zM113,19h1v1h-1zM114,19h1v1h-1zM115,19h1v1h-1zM116,19h1v1h-1zM117,19h1v1h-1zM118,19h1v1h-1zM119,19h1v1h-1zM120,19h1v1h-1zM121,19h1v1h-1zM122,19h1v1h-1zM123,19h1v1h-1zM124,19h1v1h-1zM125,19h1v1h-1zM136,19h1v1h-1zM137,19h1v1h-1zM138,19h1v1h-1zM139,19h1v1h-1zM140,19h1v1h-1zM141,19h1v1h-1zM142,19h1v1h-1zM143,19h1v1h-1zM144,19h1v1h-1zM145,19h1v1h-1zM146,19h1v1h-1zM147,19h1v1h-1zM148,19h1v1h-1zM149,19h1v1h-1zM150,19h1v1h-1zM151,19h1v1h-1zM152,19h1v1h-1zM153,19h1v1h-1zM154,19h1v1h-1zM155,19h1v1h-1zM156,19h1v1h-1zM157,19h1v1h-1zM158,19h1v1h-1zM159,19h1v1h-1zM0,20h1v1h-1zM1,20h1v1h-1zM2,20h1v1h-1zM3,20h1v1h-1zM4,20h1v1h-1zM5,20h1v1h-1zM6,20h1v1h-1zM20,20h1v1h-1zM21,20h1v1h-1zM22,20h1v1h-1zM23,20h1v1h-1zM24,20h1v1h-1zM25,20h1v1h-1zM57,20h1v1h-1zM58,20h1v1h-1zM59,20h1v1h-1zM60,20h1v1h-1zM61,20h1v1h-1zM62,20h1v1h-1zM63,20h1v1h-1zM64,20h1v1h-1zM65,20h1v1h-1zM66,20h1v1h-1zM67,20h1v1h-1zM68,20h1v1h-1zM69,20h1v1h-1zM70,20h1v1h-1zM71,20h1v1h-1zM72,20h1v1h-1zM73,20h1v1h-1zM74,20h1v1h-1zM75,20h1v1h-1zM76,20h1v1h-1zM77,20h1v1h-1zM78,20h1v1h-1zM95,20h1v1h-1zM96,20h1v1h-1zM97,20h1v1h-1zM98,20h1v1h-1zM99,20h1v1h-1zM107,20h1v1h-1zM108,20h1v1h-1zM109,20h1v1h-1zM110,20h1v1h-1zM111,20h1v1h-1zM112,20h1v1h-1zM113,20h1v1h-1zM114,20h1v1h-1zM115,20h1v1h-1zM116,20h1v1h-1zM117,20h1v1h-1zM118,20h1v1h-1zM119,20h1v1h-1zM120,20h1v1h-1zM121,20h1v1h-1zM122,20h1v1h-1zM123,20h1v1h-1zM124,20h1v1h-1zM125,20h1v1h-1zM136,20h1v1h-1zM137,20h1v1h-1zM138,20h1v1h-1zM139,20h1v1h-1zM140,20h1v1h-1zM141,20h1v1h-1zM142,20h1v1h-1zM143,20h1v1h-1zM144,20h1v1h-1zM145,20h1v1h-1zM146,20h1v1h-1zM147,20h1v1h-1zM148,20h1v1h-1zM149,20h1v1h-1zM150,20h1v1h-1zM151,20h1v1h-1zM152,20h1v1h-1zM153,20h1v1h-1zM154,20h1v1h-1zM155,20h1v1h-1zM156,20h1v1h-1zM157,20h1v1h-1zM158,20h1v1h-1zM159,20h1v1h-1zM0,21h1v1h-1zM1,21h1v1h-1zM2,21h1v1h-1zM3,21h1v1h-1zM4,21h1v1h-1zM5,21h1v1h-1zM6,21h1v1h-1zM19,21h1v1h-1zM20,21h1v1h-1zM21,21h1v1h-1zM22,21h1v1h-1zM23,21h1v1h-1zM24,21h1v1h-1zM55,21h1v1h-1zM56,21h1v1h-1zM57,21h1v1h-1zM58,21h1v1h-1zM59,21h1v1h-1zM60,21h1v1h-1zM61,21h1v1h-1zM74,21h1v1h-1zM75,21h1v1h-1zM76,21h1v1h-1zM77,21h1v1h-1zM78,21h1v1h-1zM79,21h1v1h-1zM80,21h1v1h-1zM95,21h1v1h-1zM96,21h1v1h-1zM97,21h1v1h-1zM98,21h1v1h-1zM99,21h1v1h-1zM105,21h1v1h-1zM106,21h1v1h-1zM119,21h1v1h-1zM120,21h1v1h-1zM121,21h1v1h-1zM122,21h1v1h-1zM123,21h1v1h-1zM124,21h1v1h-1zM125,21h1v1h-1zM126,21h1v1h-1zM127,21h1v1h-1zM144,21h1v1h-1zM145,21h1v1h-1zM146,21h1v1h-1zM147,21h1v1h-1zM148,21h1v1h-1zM0,22h1v1h-1zM1,22h1v1h-1zM2,22h1v1h-1zM3,22h1v1h-1zM4,22h1v1h-1zM5,22h1v1h-1zM6,22h1v1h-1zM19,22h1v1h-1zM20,22h1v1h-1zM21,22h1v1h-1zM22,22h1v1h-1zM23,22h1v1h-1zM55,22h1v1h-1zM56,22h1v1h-1zM57,22h1v1h-1zM58,22h1v1h-1zM59,22h1v1h-1zM60,22h1v1h-1zM75,22h1v1h-1zM76,22h1v1h-1zM77,22h1v1h-1zM78,22h1v1h-1zM79,22h1v1h-1zM80,22h1v1h-1zM95,22h1v1h-1zM96,22h1v1h-1zM97,22h1v1h-1zM98,22h1v1h-1zM99,22h1v1h-1zM104,22h1v1h-1zM105,22h1v1h-1zM121,22h1v1h-1zM122,22h1v1h-1zM123,22h1v1h-1zM124,22h1v1h-1zM125,22h1v1h-1zM126,22h1v1h-1zM127,22h1v1h-1zM144,22h1v1h-1zM145,22h1v1h-1zM146,22h1v1h-1zM147,22h1v1h-1zM148,22h1v1h-1zM0,23h1v1h-1zM1,23h1v1h-1zM2,23h1v1h-1zM3,23h1v1h-1zM4,23h1v1h-1zM5,23h1v1h-1zM6,23h1v1h-1zM17,23h1v1h-1zM18,23h1v1h-1zM19,23h1v1h-1zM20,23h1v1h-1zM21,23h1v1h-1zM22,23h1v1h-1zM53,23h1v1h-1zM54,23h1v1h-1zM55,23h1v1h-1zM56,23h1v1h-1zM57,23h1v1h-1zM58,23h1v1h-1zM59,23h1v1h-1zM77,23h1v1h-1zM78,23h1v1h-1zM79,23h1v1h-1zM80,23h1v1h-1zM81,23h1v1h-1zM95,23h1v1h-1zM96,23h1v1h-1zM97,23h1v1h-1zM98,23h1v1h-1zM99,23h1v1h-1zM103,23h1v1h-1zM104,23h1v1h-1zM122,23h1v1h-1zM123,23h1v1h-1zM124,23h1v1h-1zM125,23h1v1h-1zM126,23h1v1h-1zM127,23h1v1h-1zM128,23h1v1h-1zM144,23h1v1h-1zM145,23h1v1h-1zM146,23h1v1h-1zM147,23h1v1h-1zM148,23h1v1h-1zM0,24h1v1h-1zM1,24h1v1h-1zM2,24h1v1h-1zM3,24h1v1h-1zM4,24h1v1h-1zM5,24h1v1h-1zM6,24h1v1h-1zM17,24h1v1h-1zM18,24h1v1h-1zM19,24h1v1h-1zM20,24h1v1h-1zM21,24h1v1h-1zM53,24h1v1h-1zM54,24h1v1h-1zM55,24h1v1h-1zM56,24h1v1h-1zM57,24h1v1h-1zM58,24h1v1h-1zM77,24h1v1h-1zM78,24h1v1h-1zM79,24h1v1h-1zM80,24h1v1h-1zM81,24h1v1h-1zM82,24h1v1h-1zM95,24h1v1h-1zM96,24h1v1h-1zM97,24h1v1h-1zM98,24h1v1h-1zM99,24h1v1h-1zM102,24h1v1h-1zM103,24h1v1h-1zM123,24h1v1h-1zM124,24h1v1h-1zM125,24h1v1h-1zM126,24h1v1h-1zM127,24h1v1h-1zM128,24h1v1h-1zM129,24h1v1h-1zM144,24h1v1h-1zM145,24h1v1h-1zM146,24h1v1h-1zM147,24h1v1h-1zM148,24h1v1h-1zM0,25h1v1h-1zM1,25h1v1h-1zM2,25h1v1h-1zM3,25h1v1h-1zM4,25h1v1h-1zM5,25h1v1h-1zM6,25h1v1h-1zM15,25h1v1h-1zM16,25h1v1h-1zM17,25h1v1h-1zM18,25h1v1h-1zM19,25h1v1h-1zM20,25h1v1h-1zM52,25h1v1h-1zM53,25h1v1h-1zM54,25h1v1h-1zM55,25h1v1h-1zM56,25h1v1h-1zM57,25h1v1h-1zM78,25h1v1h-1zM79,25h1v1h-1zM80,25h1v1h-1zM81,25h1v1h-1zM82,25h1v1h-1zM95,25h1v1h-1zM96,25h1v1h-1zM97,25h1v1h-1zM98,25h1v1h-1zM99,25h1v1h-1zM100,25h1v1h-1zM101,25h1v1h-1zM102,25h1v1h-1zM124,25h1v1h-1zM125,25h1v1h-1zM126,25h1v1h-1zM127,25h1v1h-1zM128,25h1v1h-1zM129,25h1v1h-1zM144,25h1v1h-1zM145,25h1v1h-1zM146,25h1v1h-1zM147,25h1v1h-1zM148,25h1v1h-1zM0,26h1v1h-1zM1,26h1v1h-1zM2,26h1v1h-1zM3,26h1v1h-1zM4,26h1v1h-1zM5,26h1v1h-1zM6,26h1v1h-1zM15,26h1v1h-1zM16,26h1v1h-1zM17,26h1v1h-1zM18,26h1v1h-1zM19,26h1v1h-1zM52,26h1v1h-1zM53,26h1v1h-1zM54,26h1v1h-1zM55,26h1v1h-1zM56,26h1v1h-1zM57,26h1v1h-1zM79,26h1v1h-1zM80,26h1v1h-1zM81,26h1v1h-1zM82,26h1v1h-1zM95,26h1v1h-1zM96,26h1v1h-1zM97,26h1v1h-1zM98,26h1v1h-1zM99,26h1v1h-1zM100,26h1v1h-1zM101,26h1v1h-1zM102,26h1v1h-1zM124,26h1v1h-1zM125,26h1v1h-1zM126,26h1v1h-1zM127,26h1v1h-1zM128,26h1v1h-1zM129,26h1v1h-1zM144,26h1v1h-1zM145,26h1v1h-1zM146,26h1v1h-1zM147,26h1v1h-1zM148,26h1v1h-1zM0,27h1v1h-1zM1,27h1v1h-1zM2,27h1v1h-1zM3,27h1v1h-1zM4,27h1v1h-1zM5,27h1v1h-1zM6,27h1v1h-1zM13,27h1v1h-1zM14,27h1v1h-1zM15,27h1v1h-1zM16,27h1v1h-1zM17,27h1v1h-1zM51,27h1v1h-1zM52,27h1v1h-1zM53,27h1v1h-1zM54,27h1v1h-1zM55,27h1v1h-1zM56,27h1v1h-1zM79,27h1v1h-1zM80,27h1v1h-1zM81,27h1v1h-1zM82,27h1v1h-1zM83,27h1v1h-1zM95,27h1v1h-1zM96,27h1v1h-1zM97,27h1v1h-1zM98,27h1v1h-1zM99,27h1v1h-1zM100,27h1v1h-1zM101,27h1v1h-1zM125,27h1v1h-1zM126,27h1v1h-1zM127,27h1v1h-1zM128,27h1v1h-1zM129,27h1v1h-1zM130,27h1v1h-1zM144,27h1v1h-1zM145,27h1v1h-1zM146,27h1v1h-1zM147,27h1v1h-1zM148,27h1v1h-1zM0,28h1v1h-1zM1,28h1v1h-1zM2,28h1v1h-1zM3,28h1v1h-1zM4,28h1v1h-1zM5,28h1v1h-1zM6,28h1v1h-1zM12,28h1v1h-1zM13,28h1v1h-1zM14,28h1v1h-1zM15,28h1v1h-1zM16,28h1v1h-1zM51,28h1v1h-1zM52,28h1v1h-1zM53,28h1v1h-1zM54,28h1v1h-1zM55,28h1v1h-1zM56,28h1v1h-1zM79,28h1v1h-1zM80,28h1v1h-1zM81,28h1v1h-1zM82,28h1v1h-1zM83,28h1v1h-1zM95,28h1v1h-1zM96,28h1v1h-1zM97,28h1v1h-1zM98,28h1v1h-1zM99,28h1v1h-1zM100,28h1v1h-1zM125,28h1v1h-1zM126,28h1v1h-1zM127,28h1v1h-1zM128,28h1v1h-1zM129,28h1v1h-1zM130,28h1v1h-1zM144,28h1v1h-1zM145,28h1v1h-1zM146,28h1v1h-1zM147,28h1v1h-1zM148,28h1v1h-1zM0,29h1v1h-1zM1,29h1v1h-1zM2,29h1v1h-1zM3,29h1v1h-1zM4,29h1v1h-1zM5,29h1v1h-1zM6,29h1v1h-1zM7,29h1v1h-1zM8,29h1v1h-1zM9,29h1v1h-1zM10,29h1v1h-1zM11,29h1v1h-1zM12,29h1v1h-1zM13,29h1v1h-1zM14,29h1v1h-1zM15,29h1v1h-1zM51,29h1v1h-1zM52,29h1v1h-1zM53,29h1v1h-1zM54,29h1v1h-1zM55,29h1v1h-1zM56,29h1v1h-1zM79,29h1v1h-1zM80,29h1v1h-1zM81,29h1v1h-1zM82,29h1v1h-1zM83,29h1v1h-1zM84,29h1v1h-1zM95,29h1v1h-1zM96,29h1v1h-1zM97,29h1v1h-1zM98,29h1v1h-1zM99,29h1v1h-1zM100,29h1v1h-1zM125,29h1v1h-1zM126,29h1v1h-1zM127,29h1v1h-1zM128,29h1v1h-1zM129,29h1v1h-1zM130,29h1v1h-1zM144,29h1v1h-1zM145,29h1v1h-1zM146,29h1v1h-1zM147,29h1v1h-1zM148,29h1v1h-1zM0,30h1v1h-1zM1,30h1v1h-1zM2,30h1v1h-1zM3,30h1v1h-1zM4,30h1v1h-1zM5,30h1v1h-1zM6,30h1v1h-1zM7,30h1v1h-1zM8,30h1v1h-1zM9,30h1v1h-1zM10,30h1v1h-1zM79,30h1v1h-1zM80,30h1v1h-1zM81,30h1v1h-1zM82,30h1v1h-1zM83,30h1v1h-1zM84,30h1v1h-1zM95,30h1v1h-1zM96,30h1v1h-1zM97,30h1v1h-1zM98,30h1v1h-1zM99,30h1v1h-1zM100,30h1v1h-1zM126,30h1v1h-1zM127,30h1v1h-1zM128,30h1v1h-1zM129,30h1v1h-1zM130,30h1v1h-1zM144,30h1v1h-1zM145,30h1v1h-1zM146,30h1v1h-1zM147,30h1v1h-1zM148,30h1v1h-1zM0,31h1v1h-1zM1,31h1v1h-1zM2,31h1v1h-1zM3,31h1v1h-1zM4,31h1v1h-1zM5,31h1v1h-1zM6,31h1v1h-1zM7,31h1v1h-1zM8,31h1v1h-1zM9,31h1v1h-1zM10,31h1v1h-1zM79,31h1v1h-1zM80,31h1v1h-1zM81,31h1v1h-1zM82,31h1v1h-1zM83,31h1v1h-1zM84,31h1v1h-1zM95,31h1v1h-1zM96,31h1v1h-1zM97,31h1v1h-1zM98,31h1v1h-1zM99,31h1v1h-1zM100,31h1v1h-1zM126,31h1v1h-1zM127,31h1v1h-1zM128,31h1v1h-1zM129,31h1v1h-1zM130,31h1v1h-1zM131,31h1v1h-1zM144,31h1v1h-1zM145,31h1v1h-1zM146,31h1v1h-1zM147,31h1v1h-1zM148,31h1v1h-1zM0,32h1v1h-1zM1,32h1v1h-1zM2,32h1v1h-1zM3,32h1v1h-1zM4,32h1v1h-1zM5,32h1v1h-1zM6,32h1v1h-1zM10,32h1v1h-1zM11,32h1v1h-1zM12,32h1v1h-1zM13,32h1v1h-1zM79,32h1v1h-1zM80,32h1v1h-1zM81,32h1v1h-1zM82,32h1v1h-1zM83,32h1v1h-1zM84,32h1v1h-1zM95,32h1v1h-1zM96,32h1v1h-1zM97,32h1v1h-1zM98,32h1v1h-1zM99,32h1v1h-1zM126,32h1v1h-1zM127,32h1v1h-1zM128,32h1v1h-1zM129,32h1v1h-1zM130,32h1v1h-1zM131,32h1v1h-1zM144,32h1v1h-1zM145,32h1v1h-1zM146,32h1v1h-1zM147,32h1v1h-1zM148,32h1v1h-1zM0,33h1v1h-1zM1,33h1v1h-1zM2,33h1v1h-1zM3,33h1v1h-1zM4,33h1v1h-1zM5,33h1v1h-1zM6,33h1v1h-1zM11,33h1v1h-1zM12,33h1v1h-1zM13,33h1v1h-1zM14,33h1v1h-1zM15,33h1v1h-1zM79,33h1v1h-1zM80,33h1v1h-1zM81,33h1v1h-1zM82,33h1v1h-1zM83,33h1v1h-1zM84,33h1v1h-1zM95,33h1v1h-1zM96,33h1v1h-1zM97,33h1v1h-1zM98,33h1v1h-1zM99,33h1v1h-1zM126,33h1v1h-1zM127,33h1v1h-1zM128,33h1v1h-1zM129,33h1v1h-1zM130,33h1v1h-1zM131,33h1v1h-1zM144,33h1v1h-1zM145,33h1v1h-1zM146,33h1v1h-1zM147,33h1v1h-1zM148,33h1v1h-1zM0,34h1v1h-1zM1,34h1v1h-1zM2,34h1v1h-1zM3,34h1v1h-1zM4,34h1v1h-1zM5,34h1v1h-1zM6,34h1v1h-1zM13,34h1v1h-1zM14,34h1v1h-1zM15,34h1v1h-1zM16,34h1v1h-1zM17,34h1v1h-1zM79,34h1v1h-1zM80,34h1v1h-1zM81,34h1v1h-1zM82,34h1v1h-1zM83,34h1v1h-1zM84,34h1v1h-1zM95,34h1v1h-1zM96,34h1v1h-1zM97,34h1v1h-1zM98,34h1v1h-1zM99,34h1v1h-1zM126,34h1v1h-1zM127,34h1v1h-1zM128,34h1v1h-1zM129,34h1v1h-1zM130,34h1v1h-1zM131,34h1v1h-1zM144,34h1v1h-1zM145,34h1v1h-1zM146,34h1v1h-1zM147,34h1v1h-1zM148,34h1v1h-1zM0,35h1v1h-1zM1,35h1v1h-1zM2,35h1v1h-1zM3,35h1v1h-1zM4,35h1v1h-1zM5,35h1v1h-1zM6,35h1v1h-1zM14,35h1v1h-1zM15,35h1v1h-1zM16,35h1v1h-1zM17,35h1v1h-1zM18,35h1v1h-1zM64,35h1v1h-1zM65,35h1v1h-1zM66,35h1v1h-1zM67,35h1v1h-1zM68,35h1v1h-1zM69,35h1v1h-1zM70,35h1v1h-1zM71,35h1v1h-1zM72,35h1v1h-1zM73,35h1v1h-1zM74,35h1v1h-1zM75,35h1v1h-1zM76,35h1v1h-1zM77,35h1v1h-1zM78,35h1v1h-1zM79,35h1v1h-1zM80,35h1v1h-1zM81,35h1v1h-1zM82,35h1v1h-1zM83,35h1v1h-1zM84,35h1v1h-1zM95,35h1v1h-1zM96,35h1v1h-1zM97,35h1v1h-1zM98,35h1v1h-1zM99,35h1v1h-1zM126,35h1v1h-1zM127,35h1v1h-1zM128,35h1v1h-1zM129,35h1v1h-1zM130,35h1v1h-1zM131,35h1v1h-1zM144,35h1v1h-1zM145,35h1v1h-1zM146,35h1v1h-1zM147,35h1v1h-1zM148,35h1v1h-1zM0,36h1v1h-1zM1,36h1v1h-1zM2,36h1v1h-1zM3,36h1v1h-1zM4,36h1v1h-1zM5,36h1v1h-1zM6,36h1v1h-1zM15,36h1v1h-1zM16,36h1v1h-1zM17,36h1v1h-1zM18,36h1v1h-1zM19,36h1v1h-1zM20,36h1v1h-1zM58,36h1v1h-1zM59,36h1v1h-1zM60,36h1v1h-1zM61,36h1v1h-1zM62,36h1v1h-1zM63,36h1v1h-1zM64,36h1v1h-1zM65,36h1v1h-1zM66,36h1v1h-1zM67,36h1v1h-1zM68,36h1v1h-1zM69,36h1v1h-1zM70,36h1v1h-1zM71,36h1v1h-1zM72,36h1v1h-1zM73,36h1v1h-1zM74,36h1v1h-1zM75,36h1v1h-1zM76,36h1v1h-1zM77,36h1v1h-1zM78,36h1v1h-1zM79,36h1v1h-1zM80,36h1v1h-1zM81,36h1v1h-1zM82,36h1v1h-1zM83,36h1v1h-1zM84,36h1v1h-1zM95,36h1v1h-1zM96,36h1v1h-1zM97,36h1v1h-1zM98,36h1v1h-1zM99,36h1v1h-1zM126,36h1v1h-1zM127,36h1v1h-1zM128,36h1v1h-1zM129,36h1v1h-1zM130,36h1v1h-1zM131,36h1v1h-1zM144,36h1v1h-1zM145,36h1v1h-1zM146,36h1v1h-1zM147,36h1v1h-1zM148,36h1v1h-1zM0,37h1v1h-1zM1,37h1v1h-1zM2,37h1v1h-1zM3,37h1v1h-1zM4,37h1v1h-1zM5,37h1v1h-1zM6,37h1v1h-1zM16,37h1v1h-1zM17,37h1v1h-1zM18,37h1v1h-1zM19,37h1v1h-1zM20,37h1v1h-1zM57,37h1v1h-1zM58,37h1v1h-1zM59,37h1v1h-1zM60,37h1v1h-1zM61,37h1v1h-1zM62,37h1v1h-1zM63,37h1v1h-1zM64,37h1v1h-1zM65,37h1v1h-1zM66,37h1v1h-1zM67,37h1v1h-1zM68,37h1v1h-1zM69,37h1v1h-1zM70,37h1v1h-1zM71,37h1v1h-1zM72,37h1v1h-1zM73,37h1v1h-1zM74,37h1v1h-1zM75,37h1v1h-1zM76,37h1v1h-1zM77,37h1v1h-1zM78,37h1v1h-1zM79,37h1v1h-1zM80,37h1v1h-1zM81,37h1v1h-1zM82,37h1v1h-1zM83,37h1v1h-1zM84,37h1v1h-1zM95,37h1v1h-1zM96,37h1v1h-1zM97,37h1v1h-1zM98,37h1v1h-1zM99,37h1v1h-1zM126,37h1v1h-1zM127,37h1v1h-1zM128,37h1v1h-1zM129,37h1v1h-1zM130,37h1v1h-1zM131,37h1v1h-1zM144,37h1v1h-1zM145,37h1v1h-1zM146,37h1v1h-1zM147,37h1v1h-1zM148,37h1v1h-1zM0,38h1v1h-1zM1,38h1v1h-1zM2,38h1v1h-1zM3,38h1v1h-1zM4,38h1v1h-1zM5,38h1v1h-1zM6,38h1v1h-1zM17,38h1v1h-1zM18,38h1v1h-1zM19,38h1v1h-1zM20,38h1v1h-1zM21,38h1v1h-1zM22,38h1v1h-1zM54,38h1v1h-1zM55,38h1v1h-1zM56,38h1v1h-1zM57,38h1v1h-1zM58,38h1v1h-1zM59,38h1v1h-1zM60,38h1v1h-1zM61,38h1v1h-1zM62,38h1v1h-1zM63,38h1v1h-1zM79,38h1v1h-1zM80,38h1v1h-1zM81,38h1v1h-1zM82,38h1v1h-1zM83,38h1v1h-1zM84,38h1v1h-1zM95,38h1v1h-1zM96,38h1v1h-1zM97,38h1v1h-1zM98,38h1v1h-1zM99,38h1v1h-1zM126,38h1v1h-1zM127,38h1v1h-1zM128,38h1v1h-1zM129,38h1v1h-1zM130,38h1v1h-1zM131,38h1v1h-1zM144,38h1v1h-1zM145,38h1v1h-1zM146,38h1v1h-1zM147,38h1v1h-1zM148,38h1v1h-1zM0,39h1v1h-1zM1,39h1v1h-1zM2,39h1v1h-1zM3,39h1v1h-1zM4,39h1v1h-1zM5,39h1v1h-1zM6,39h1v1h-1zM18,39h1v1h-1zM19,39h1v1h-1zM20,39h1v1h-1zM21,39h1v1h-1zM22,39h1v1h-1zM23,39h1v1h-1zM53,39h1v1h-1zM54,39h1v1h-1zM55,39h1v1h-1zM56,39h1v1h-1zM57,39h1v1h-1zM58,39h1v1h-1zM59,39h1v1h-1zM79,39h1v1h-1zM80,39h1v1h-1zM81,39h1v1h-1zM82,39h1v1h-1zM83,39h1v1h-1zM84,39h1v1h-1zM95,39h1v1h-1zM96,39h1v1h-1zM97,39h1v1h-1zM98,39h1v1h-1zM99,39h1v1h-1zM126,39h1v1h-1zM127,39h1v1h-1zM128,39h1v1h-1zM129,39h1v1h-1zM130,39h1v1h-1zM131,39h1v1h-1zM144,39h1v1h-1zM145,39h1v1h-1zM146,39h1v1h-1zM147,39h1v1h-1zM148,39h1v1h-1zM0,40h1v1h-1zM1,40h1v1h-1zM2,40h1v1h-1zM3,40h1v1h-1zM4,40h1v1h-1zM5,40h1v1h-1zM6,40h1v1h-1zM19,40h1v1h-1zM20,40h1v1h-1zM21,40h1v1h-1zM22,40h1v1h-1zM23,40h1v1h-1zM24,40h1v1h-1zM52,40h1v1h-1zM53,40h1v1h-1zM54,40h1v1h-1zM55,40h1v1h-1zM56,40h1v1h-1zM57,40h1v1h-1zM79,40h1v1h-1zM80,40h1v1h-1zM81,40h1v1h-1zM82,40h1v1h-1zM83,40h1v1h-1zM84,40h1v1h-1zM95,40h1v1h-1zM96,40h1v1h-1zM97,40h1v1h-1zM98,40h1v1h-1zM99,40h1v1h-1zM126,40h1v1h-1zM127,40h1v1h-1zM128,40h1v1h-1zM129,40h1v1h-1zM130,40h1v1h-1zM131,40h1v1h-1zM144,40h1v1h-1zM145,40h1v1h-1zM146,40h1v1h-1zM147,40h1v1h-1zM148,40h1v1h-1zM0,41h1v1h-1zM1,41h1v1h-1zM2,41h1v1h-1zM3,41h1v1h-1zM4,41h1v1h-1zM5,41h1v1h-1zM6,41h1v1h-1zM19,41h1v1h-1zM20,41h1v1h-1zM21,41h1v1h-1zM22,41h1v1h-1zM23,41h1v1h-1zM24,41h1v1h-1zM25,41h1v1h-1zM51,41h1v1h-1zM52,41h1v1h-1zM53,41h1v1h-1zM54,41h1v1h-1zM55,41h1v1h-1zM56,41h1v1h-1zM79,41h1v1h-1zM80,41h1v1h-1zM81,41h1v1h-1zM82,41h1v1h-1zM83,41h1v1h-1zM84,41h1v1h-1zM95,41h1v1h-1zM96,41h1v1h-1zM97,41h1v1h-1zM98,41h1v1h-1zM99,41h1v1h-1zM126,41h1v1h-1zM127,41h1v1h-1zM128,41h1v1h-1zM129,41h1v1h-1zM130,41h1v1h-1zM131,41h1v1h-1zM144,41h1v1h-1zM145,41h1v1h-1zM146,41h1v1h-1zM147,41h1v1h-1zM148,41h1v1h-1zM0,42h1v1h-1zM1,42h1v1h-1zM2,42h1v1h-1zM3,42h1v1h-1zM4,42h1v1h-1zM5,42h1v1h-1zM6,42h1v1h-1zM21,42h1v1h-1zM22,42h1v1h-1zM23,42h1v1h-1zM24,42h1v1h-1zM25,42h1v1h-1zM26,42h1v1h-1zM51,42h1v1h-1zM52,42h1v1h-1zM53,42h1v1h-1zM54,42h1v1h-1zM55,42h1v1h-1zM79,42h1v1h-1zM80,42h1v1h-1zM81,42h1v1h-1zM82,42h1v1h-1zM83,42h1v1h-1zM84,42h1v1h-1zM95,42h1v1h-1zM96,42h1v1h-1zM97,42h1v1h-1zM98,42h1v1h-1zM99,42h1v1h-1zM126,42h1v1h-1zM127,42h1v1h-1zM128,42h1v1h-1zM129,42h1v1h-1zM130,42h1v1h-1zM131,42h1v1h-1zM144,42h1v1h-1zM145,42h1v1h-1zM146,42h1v1h-1zM147,42h1v1h-1zM148,42h1v1h-1zM0,43h1v1h-1zM1,43h1v1h-1zM2,43h1v1h-1zM3,43h1v1h-1zM4,43h1v1h-1zM5,43h1v1h-1zM6,43h1v1h-1zM21,43h1v1h-1zM22,43h1v1h-1zM23,43h1v1h-1zM24,43h1v1h-1zM25,43h1v1h-1zM26,43h1v1h-1zM27,43h1v1h-1zM50,43h1v1h-1zM51,43h1v1h-1zM52,43h1v1h-1zM53,43h1v1h-1zM54,43h1v1h-1zM55,43h1v1h-1zM79,43h1v1h-1zM80,43h1v1h-1zM81,43h1v1h-1zM82,43h1v1h-1zM83,43h1v1h-1zM84,43h1v1h-1zM95,43h1v1h-1zM96,43h1v1h-1zM97,43h1v1h-1zM98,43h1v1h-1zM99,43h1v1h-1zM126,43h1v1h-1zM127,43h1v1h-1zM128,43h1v1h-1zM129,43h1v1h-1zM130,43h1v1h-1zM131,43h1v1h-1zM144,43h1v1h-1zM145,43h1v1h-1zM146,43h1v1h-1zM147,43h1v1h-1zM148,43h1v1h-1zM0,44h1v1h-1zM1,44h1v1h-1zM2,44h1v1h-1zM3,44h1v1h-1zM4,44h1v1h-1zM5,44h1v1h-1zM6,44h1v1h-1zM23,44h1v1h-1zM24,44h1v1h-1zM25,44h1v1h-1zM26,44h1v1h-1zM27,44h1v1h-1zM28,44h1v1h-1zM49,44h1v1h-1zM50,44h1v1h-1zM51,44h1v1h-1zM52,44h1v1h-1zM53,44h1v1h-1zM54,44h1v1h-1zM79,44h1v1h-1zM80,44h1v1h-1zM81,44h1v1h-1zM82,44h1v1h-1zM83,44h1v1h-1zM84,44h1v1h-1zM95,44h1v1h-1zM96,44h1v1h-1zM97,44h1v1h-1zM98,44h1v1h-1zM99,44h1v1h-1zM126,44h1v1h-1zM127,44h1v1h-1zM128,44h1v1h-1zM129,44h1v1h-1zM130,44h1v1h-1zM131,44h1v1h-1zM144,44h1v1h-1zM145,44h1v1h-1zM146,44h1v1h-1zM147,44h1v1h-1zM148,44h1v1h-1zM0,45h1v1h-1zM1,45h1v1h-1zM2,45h1v1h-1zM3,45h1v1h-1zM4,45h1v1h-1zM5,45h1v1h-1zM6,45h1v1h-1zM23,45h1v1h-1zM24,45h1v1h-1zM25,45h1v1h-1zM26,45h1v1h-1zM27,45h1v1h-1zM28,45h1v1h-1zM29,45h1v1h-1zM49,45h1v1h-1zM50,45h1v1h-1zM51,45h1v1h-1zM52,45h1v1h-1zM53,45h1v1h-1zM54,45h1v1h-1zM79,45h1v1h-1zM80,45h1v1h-1zM81,45h1v1h-1zM82,45h1v1h-1zM83,45h1v1h-1zM84,45h1v1h-1zM95,45h1v1h-1zM96,45h1v1h-1zM97,45h1v1h-1zM98,45h1v1h-1zM99,45h1v1h-1zM126,45h1v1h-1zM127,45h1v1h-1zM128,45h1v1h-1zM129,45h1v1h-1zM130,45h1v1h-1zM131,45h1v1h-1zM144,45h1v1h-1zM145,45h1v1h-1zM146,45h1v1h-1zM147,45h1v1h-1zM148,45h1v1h-1zM0,46h1v1h-1zM1,46h1v1h-1zM2,46h1v1h-1zM3,46h1v1h-1zM4,46h1v1h-1zM5,46h1v1h-1zM6,46h1v1h-1zM24,46h1v1h-1zM25,46h1v1h-1zM26,46h1v1h-1zM27,46h1v1h-1zM28,46h1v1h-1zM29,46h1v1h-1zM30,46h1v1h-1zM49,46h1v1h-1zM50,46h1v1h-1zM51,46h1v1h-1zM52,46h1v1h-1zM53,46h1v1h-1zM79,46h1v1h-1zM80,46h1v1h-1zM81,46h1v1h-1zM82,46h1v1h-1zM83,46h1v1h-1zM84,46h1v1h-1zM95,46h1v1h-1zM96,46h1v1h-1zM97,46h1v1h-1zM98,46h1v1h-1zM99,46h1v1h-1zM126,46h1v1h-1zM127,46h1v1h-1zM128,46h1v1h-1zM129,46h1v1h-1zM130,46h1v1h-1zM131,46h1v1h-1zM144,46h1v1h-1zM145,46h1v1h-1zM146,46h1v1h-1zM147,46h1v1h-1zM148,46h1v1h-1zM0,47h1v1h-1zM1,47h1v1h-1zM2,47h1v1h-1zM3,47h1v1h-1zM4,47h1v1h-1zM5,47h1v1h-1zM6,47h1v1h-1zM25,47h1v1h-1zM26,47h1v1h-1zM27,47h1v1h-1zM28,47h1v1h-1zM29,47h1v1h-1zM30,47h1v1h-1zM31,47h1v1h-1zM49,47h1v1h-1zM50,47h1v1h-1zM51,47h1v1h-1zM52,47h1v1h-1zM53,47h1v1h-1zM79,47h1v1h-1zM80,47h1v1h-1zM81,47h1v1h-1zM82,47h1v1h-1zM83,47h1v1h-1zM84,47h1v1h-1zM95,47h1v1h-1zM96,47h1v1h-1zM97,47h1v1h-1zM98,47h1v1h-1zM99,47h1v1h-1zM126,47h1v1h-1zM127,47h1v1h-1zM128,47h1v1h-1zM129,47h1v1h-1zM130,47h1v1h-1zM131,47h1v1h-1zM144,47h1v1h-1zM145,47h1v1h-1zM146,47h1v1h-1zM147,47h1v1h-1zM148,47h1v1h-1zM0,48h1v1h-1zM1,48h1v1h-1zM2,48h1v1h-1zM3,48h1v1h-1zM4,48h1v1h-1zM5,48h1v1h-1zM6,48h1v1h-1zM26,48h1v1h-1zM27,48h1v1h-1zM28,48h1v1h-1zM29,48h1v1h-1zM30,48h1v1h-1zM31,48h1v1h-1zM32,48h1v1h-1zM49,48h1v1h-1zM50,48h1v1h-1zM51,48h1v1h-1zM52,48h1v1h-1zM53,48h1v1h-1zM79,48h1v1h-1zM80,48h1v1h-1zM81,48h1v1h-1zM82,48h1v1h-1zM83,48h1v1h-1zM84,48h1v1h-1zM95,48h1v1h-1zM96,48h1v1h-1zM97,48h1v1h-1zM98,48h1v1h-1zM99,48h1v1h-1zM126,48h1v1h-1zM127,48h1v1h-1zM128,48h1v1h-1zM129,48h1v1h-1zM130,48h1v1h-1zM131,48h1v1h-1zM144,48h1v1h-1zM145,48h1v1h-1zM146,48h1v1h-1zM147,48h1v1h-1zM148,48h1v1h-1zM0,49h1v1h-1zM1,49h1v1h-1zM2,49h1v1h-1zM3,49h1v1h-1zM4,49h1v1h-1zM5,49h1v1h-1zM6,49h1v1h-1zM27,49h1v1h-1zM28,49h1v1h-1zM29,49h1v1h-1zM30,49h1v1h-1zM31,49h1v1h-1zM32,49h1v1h-1zM33,49h1v1h-1zM49,49h1v1h-1zM50,49h1v1h-1zM51,49h1v1h-1zM52,49h1v1h-1zM53,49h1v1h-1zM79,49h1v1h-1zM80,49h1v1h-1zM81,49h1v1h-1zM82,49h1v1h-1zM83,49h1v1h-1zM84,49h1v1h-1zM95,49h1v1h-1zM96,49h1v1h-1zM97,49h1v1h-1zM98,49h1v1h-1zM99,49h1v1h-1zM126,49h1v1h-1zM127,49h1v1h-1zM128,49h1v1h-1zM129,49h1v1h-1zM130,49h1v1h-1zM131,49h1v1h-1zM144,49h1v1h-1zM145,49h1v1h-1zM146,49h1v1h-1zM147,49h1v1h-1zM148,49h1v1h-1zM0,50h1v1h-1zM1,50h1v1h-1zM2,50h1v1h-1zM3,50h1v1h-1zM4,50h1v1h-1zM5,50h1v1h-1zM6,50h1v1h-1zM28,50h1v1h-1zM29,50h1v1h-1zM30,50h1v1h-1zM31,50h1v1h-1zM32,50h1v1h-1zM33,50h1v1h-1zM34,50h1v1h-1zM49,50h1v1h-1zM50,50h1v1h-1zM51,50h1v1h-1zM52,50h1v1h-1zM53,50h1v1h-1zM79,50h1v1h-1zM80,50h1v1h-1zM81,50h1v1h-1zM82,50h1v1h-1zM83,50h1v1h-1zM84,50h1v1h-1zM95,50h1v1h-1zM96,50h1v1h-1zM97,50h1v1h-1zM98,50h1v1h-1zM99,50h1v1h-1zM126,50h1v1h-1zM127,50h1v1h-1zM128,50h1v1h-1zM129,50h1v1h-1zM130,50h1v1h-1zM131,50h1v1h-1zM144,50h1v1h-1zM145,50h1v1h-1zM146,50h1v1h-1zM147,50h1v1h-1zM148,50h1v1h-1zM0,51h1v1h-1zM1,51h1v1h-1zM2,51h1v1h-1zM3,51h1v1h-1zM4,51h1v1h-1zM5,51h1v1h-1zM6,51h1v1h-1zM29,51h1v1h-1zM30,51h1v1h-1zM31,51h1v1h-1zM32,51h1v1h-1zM33,51h1v1h-1zM34,51h1v1h-1zM35,51h1v1h-1zM49,51h1v1h-1zM50,51h1v1h-1zM51,51h1v1h-1zM52,51h1v1h-1zM53,51h1v1h-1zM79,51h1v1h-1zM80,51h1v1h-1zM81,51h1v1h-1zM82,51h1v1h-1zM83,51h1v1h-1zM84,51h1v1h-1zM95,51h1v1h-1zM96,51h1v1h-1zM97,51h1v1h-1zM98,51h1v1h-1zM99,51h1v1h-1zM126,51h1v1h-1zM127,51h1v1h-1zM128,51h1v1h-1zM129,51h1v1h-1zM130,51h1v1h-1zM131,51h1v1h-1zM144,51h1v1h-1zM145,51h1v1h-1zM146,51h1v1h-1zM147,51h1v1h-1zM148,51h1v1h-1zM0,52h1v1h-1zM1,52h1v1h-1zM2,52h1v1h-1zM3,52h1v1h-1zM4,52h1v1h-1zM5,52h1v1h-1zM6,52h1v1h-1zM30,52h1v1h-1zM31,52h1v1h-1zM32,52h1v1h-1zM33,52h1v1h-1zM34,52h1v1h-1zM35,52h1v1h-1zM36,52h1v1h-1zM49,52h1v1h-1zM50,52h1v1h-1zM51,52h1v1h-1zM52,52h1v1h-1zM53,52h1v1h-1zM54,52h1v1h-1zM78,52h1v1h-1zM79,52h1v1h-1zM80,52h1v1h-1zM81,52h1v1h-1zM82,52h1v1h-1zM83,52h1v1h-1zM84,52h1v1h-1zM95,52h1v1h-1zM96,52h1v1h-1zM97,52h1v1h-1zM98,52h1v1h-1zM99,52h1v1h-1zM126,52h1v1h-1zM127,52h1v1h-1zM128,52h1v1h-1zM129,52h1v1h-1zM130,52h1v1h-1zM131,52h1v1h-1zM144,52h1v1h-1zM145,52h1v1h-1zM146,52h1v1h-1zM147,52h1v1h-1zM148,52h1v1h-1zM0,53h1v1h-1zM1,53h1v1h-1zM2,53h1v1h-1zM3,53h1v1h-1zM4,53h1v1h-1zM5,53h1v1h-1zM6,53h1v1h-1zM31,53h1v1h-1zM32,53h1v1h-1zM33,53h1v1h-1zM34,53h1v1h-1zM35,53h1v1h-1zM36,53h1v1h-1zM37,53h1v1h-1zM49,53h1v1h-1zM50,53h1v1h-1zM51,53h1v1h-1zM52,53h1v1h-1zM53,53h1v1h-1zM54,53h1v1h-1zM78,53h1v1h-1zM79,53h1v1h-1zM80,53h1v1h-1zM81,53h1v1h-1zM82,53h1v1h-1zM83,53h1v1h-1zM84,53h1v1h-1zM95,53h1v1h-1zM96,53h1v1h-1zM97,53h1v1h-1zM98,53h1v1h-1zM99,53h1v1h-1zM126,53h1v1h-1zM127,53h1v1h-1zM128,53h1v1h-1zM129,53h1v1h-1zM130,53h1v1h-1zM131,53h1v1h-1zM144,53h1v1h-1zM145,53h1v1h-1zM146,53h1v1h-1zM147,53h1v1h-1zM148,53h1v1h-1zM0,54h1v1h-1zM1,54h1v1h-1zM2,54h1v1h-1zM3,54h1v1h-1zM4,54h1v1h-1zM5,54h1v1h-1zM6,54h1v1h-1zM32,54h1v1h-1zM33,54h1v1h-1zM34,54h1v1h-1zM35,54h1v1h-1zM36,54h1v1h-1zM37,54h1v1h-1zM38,54h1v1h-1zM50,54h1v1h-1zM51,54h1v1h-1zM52,54h1v1h-1zM53,54h1v1h-1zM54,54h1v1h-1zM55,54h1v1h-1zM77,54h1v1h-1zM78,54h1v1h-1zM79,54h1v1h-1zM80,54h1v1h-1zM81,54h1v1h-1zM82,54h1v1h-1zM83,54h1v1h-1zM84,54h1v1h-1zM95,54h1v1h-1zM96,54h1v1h-1zM97,54h1v1h-1zM98,54h1v1h-1zM99,54h1v1h-1zM126,54h1v1h-1zM127,54h1v1h-1zM128,54h1v1h-1zM129,54h1v1h-1zM130,54h1v1h-1zM131,54h1v1h-1zM144,54h1v1h-1zM145,54h1v1h-1zM146,54h1v1h-1zM147,54h1v1h-1zM148,54h1v1h-1zM0,55h1v1h-1zM1,55h1v1h-1zM2,55h1v1h-1zM3,55h1v1h-1zM4,55h1v1h-1zM5,55h1v1h-1zM6,55h1v1h-1zM32,55h1v1h-1zM33,55h1v1h-1zM34,55h1v1h-1zM35,55h1v1h-1zM36,55h1v1h-1zM37,55h1v1h-1zM38,55h1v1h-1zM51,55h1v1h-1zM52,55h1v1h-1zM53,55h1v1h-1zM54,55h1v1h-1zM55,55h1v1h-1zM76,55h1v1h-1zM79,55h1v1h-1zM80,55h1v1h-1zM81,55h1v1h-1zM82,55h1v1h-1zM83,55h1v1h-1zM84,55h1v1h-1zM95,55h1v1h-1zM96,55h1v1h-1zM97,55h1v1h-1zM98,55h1v1h-1zM99,55h1v1h-1zM126,55h1v1h-1zM127,55h1v1h-1zM128,55h1v1h-1zM129,55h1v1h-1zM130,55h1v1h-1zM131,55h1v1h-1zM144,55h1v1h-1zM145,55h1v1h-1zM146,55h1v1h-1zM147,55h1v1h-1zM148,55h1v1h-1zM0,56h1v1h-1zM1,56h1v1h-1zM2,56h1v1h-1zM3,56h1v1h-1zM4,56h1v1h-1zM5,56h1v1h-1zM6,56h1v1h-1zM33,56h1v1h-1zM34,56h1v1h-1zM35,56h1v1h-1zM36,56h1v1h-1zM37,56h1v1h-1zM38,56h1v1h-1zM39,56h1v1h-1zM51,56h1v1h-1zM52,56h1v1h-1zM53,56h1v1h-1zM54,56h1v1h-1zM55,56h1v1h-1zM56,56h1v1h-1zM75,56h1v1h-1zM76,56h1v1h-1zM79,56h1v1h-1zM80,56h1v1h-1zM81,56h1v1h-1zM82,56h1v1h-1zM83,56h1v1h-1zM84,56h1v1h-1zM95,56h1v1h-1zM96,56h1v1h-1zM97,56h1v1h-1zM98,56h1v1h-1zM99,56h1v1h-1zM126,56h1v1h-1zM127,56h1v1h-1zM128,56h1v1h-1zM129,56h1v1h-1zM130,56h1v1h-1zM131,56h1v1h-1zM144,56h1v1h-1zM145,56h1v1h-1zM146,56h1v1h-1zM147,56h1v1h-1zM148,56h1v1h-1zM0,57h1v1h-1zM1,57h1v1h-1zM2,57h1v1h-1zM3,57h1v1h-1zM4,57h1v1h-1zM5,57h1v1h-1zM6,57h1v1h-1zM34,57h1v1h-1zM35,57h1v1h-1zM36,57h1v1h-1zM37,57h1v1h-1zM38,57h1v1h-1zM39,57h1v1h-1zM40,57h1v1h-1zM52,57h1v1h-1zM53,57h1v1h-1zM54,57h1v1h-1zM55,57h1v1h-1zM56,57h1v1h-1zM57,57h1v1h-1zM58,57h1v1h-1zM73,57h1v1h-1zM74,57h1v1h-1zM75,57h1v1h-1zM80,57h1v1h-1zM81,57h1v1h-1zM82,57h1v1h-1zM83,57h1v1h-1zM84,57h1v1h-1zM95,57h1v1h-1zM96,57h1v1h-1zM97,57h1v1h-1zM98,57h1v1h-1zM99,57h1v1h-1zM126,57h1v1h-1zM127,57h1v1h-1zM128,57h1v1h-1zM129,57h1v1h-1zM130,57h1v1h-1zM131,57h1v1h-1zM144,57h1v1h-1zM145,57h1v1h-1zM146,57h1v1h-1zM147,57h1v1h-1zM148,57h1v1h-1zM0,58h1v1h-1zM1,58h1v1h-1zM2,58h1v1h-1zM3,58h1v1h-1zM4,58h1v1h-1zM5,58h1v1h-1zM6,58h1v1h-1zM35,58h1v1h-1zM36,58h1v1h-1zM37,58h1v1h-1zM38,58h1v1h-1zM39,58h1v1h-1zM40,58h1v1h-1zM41,58h1v1h-1zM53,58h1v1h-1zM54,58h1v1h-1zM55,58h1v1h-1zM56,58h1v1h-1zM57,58h1v1h-1zM58,58h1v1h-1zM59,58h1v1h-1zM71,58h1v1h-1zM72,58h1v1h-1zM73,58h1v1h-1zM74,58h1v1h-1zM80,58h1v1h-1zM81,58h1v1h-1zM82,58h1v1h-1zM83,58h1v1h-1zM84,58h1v1h-1zM95,58h1v1h-1zM96,58h1v1h-1zM97,58h1v1h-1zM98,58h1v1h-1zM99,58h1v1h-1zM126,58h1v1h-1zM127,58h1v1h-1zM128,58h1v1h-1zM129,58h1v1h-1zM130,58h1v1h-1zM131,58h1v1h-1zM144,58h1v1h-1zM145,58h1v1h-1zM146,58h1v1h-1zM147,58h1v1h-1zM148,58h1v1h-1zM0,59h1v1h-1zM1,59h1v1h-1zM2,59h1v1h-1zM3,59h1v1h-1zM4,59h1v1h-1zM5,59h1v1h-1zM6,59h1v1h-1zM36,59h1v1h-1zM37,59h1v1h-1zM38,59h1v1h-1zM39,59h1v1h-1zM40,59h1v1h-1zM41,59h1v1h-1zM42,59h1v1h-1zM54,59h1v1h-1zM55,59h1v1h-1zM56,59h1v1h-1zM57,59h1v1h-1zM58,59h1v1h-1zM59,59h1v1h-1zM60,59h1v1h-1zM61,59h1v1h-1zM62,59h1v1h-1zM63,59h1v1h-1zM64,59h1v1h-1zM65,59h1v1h-1zM66,59h1v1h-1zM67,59h1v1h-1zM68,59h1v1h-1zM69,59h1v1h-1zM70,59h1v1h-1zM71,59h1v1h-1zM72,59h1v1h-1zM73,59h1v1h-1zM80,59h1v1h-1zM81,59h1v1h-1zM82,59h1v1h-1zM83,59h1v1h-1zM84,59h1v1h-1zM95,59h1v1h-1zM96,59h1v1h-1zM97,59h1v1h-1zM98,59h1v1h-1zM99,59h1v1h-1zM126,59h1v1h-1zM127,59h1v1h-1zM128,59h1v1h-1zM129,59h1v1h-1zM130,59h1v1h-1zM131,59h1v1h-1zM144,59h1v1h-1zM145,59h1v1h-1zM146,59h1v1h-1zM147,59h1v1h-1zM148,59h1v1h-1zM0,60h1v1h-1zM1,60h1v1h-1zM2,60h1v1h-1zM3,60h1v1h-1zM4,60h1v1h-1zM5,60h1v1h-1zM6,60h1v1h-1zM37,60h1v1h-1zM38,60h1v1h-1zM39,60h1v1h-1zM40,60h1v1h-1zM41,60h1v1h-1zM42,60h1v1h-1zM43,60h1v1h-1zM55,60h1v1h-1zM56,60h1v1h-1zM57,60h1v1h-1zM58,60h1v1h-1zM59,60h1v1h-1zM60,60h1v1h-1zM61,60h1v1h-1zM62,60h1v1h-1zM63,60h1v1h-1zM64,60h1v1h-1zM65,60h1v1h-1zM66,60h1v1h-1zM67,60h1v1h-1zM68,60h1v1h-1zM69,60h1v1h-1zM70,60h1v1h-1zM71,60h1v1h-1zM72,60h1v1h-1zM80,60h1v1h-1zM81,60h1v1h-1zM82,60h1v1h-1zM83,60h1v1h-1zM84,60h1v1h-1zM95,60h1v1h-1zM96,60h1v1h-1zM97,60h1v1h-1zM98,60h1v1h-1zM99,60h1v1h-1zM126,60h1v1h-1zM127,60h1v1h-1zM128,60h1v1h-1zM129,60h1v1h-1zM130,60h1v1h-1zM131,60h1v1h-1zM144,60h1v1h-1zM145,60h1v1h-1zM146,60h1v1h-1zM147,60h1v1h-1zM148,60h1v1h-1zM59,61h1v1h-1zM60,61h1v1h-1zM61,61h1v1h-1zM62,61h1v1h-1zM63,61h1v1h-1zM64,61h1v1h-1zM65,61h1v1h-1zM66,61h1v1h-1zM67,61h1v1h-1zM68,61h1v1h-1zM69,61h1v1h-1zM62,62h1v1h-1zM63,62h1v1h-1zM64,62h1v1h-1zM65,62h1v1h-1z" fill="#677160" opacity="1.00"/>
  <path d="M7,0h1v1h-1zM7,1h1v1h-1zM7,2h1v1h-1zM7,3h1v1h-1zM7,4h1v1h-1zM7,5h1v1h-1zM7,6h1v1h-1zM7,7h1v1h-1zM7,8h1v1h-1zM7,9h1v1h-1zM7,10h1v1h-1zM7,11h1v1h-1zM7,12h1v1h-1zM7,13h1v1h-1zM7,14h1v1h-1zM33,14h1v1h-1zM7,15h1v1h-1zM7,16h1v1h-1zM7,17h1v1h-1zM7,18h1v1h-1zM7,19h1v1h-1zM7,20h1v1h-1zM7,21h1v1h-1zM7,22h1v1h-1zM7,23h1v1h-1zM7,24h1v1h-1zM7,25h1v1h-1zM7,26h1v1h-1zM7,27h1v1h-1zM7,34h1v1h-1zM7,35h1v1h-1zM7,36h1v1h-1zM7,37h1v1h-1zM7,38h1v1h-1zM7,39h1v1h-1zM7,40h1v1h-1zM7,41h1v1h-1zM7,42h1v1h-1zM7,43h1v1h-1zM7,44h1v1h-1zM7,45h1v1h-1zM7,46h1v1h-1zM7,47h1v1h-1zM7,48h1v1h-1zM7,49h1v1h-1zM25,49h1v1h-1zM7,50h1v1h-1zM7,51h1v1h-1zM7,52h1v1h-1zM7,53h1v1h-1zM7,54h1v1h-1zM7,55h1v1h-1zM7,56h1v1h-1zM7,57h1v1h-1zM7,58h1v1h-1zM7,59h1v1h-1zM7,60h1v1h-1z" fill="#647060" opacity="0.25"/>
  <path d="M36,0h1v1h-1zM71,22h1v1h-1zM78,58h1v1h-1z" fill="#4d664d" opacity="0.04"/>
  <path d="M37,0h1v1h-1zM50,41h1v1h-1z" fill="#676f5f" opacity="0.68"/>
  <path d="M45,0h1v1h-1zM100,0h1v1h-1zM100,1h1v1h-1zM43,2h1v1h-1zM100,2h1v1h-1zM100,3h1v1h-1zM41,4h1v1h-1zM100,4h1v1h-1zM100,5h1v1h-1zM39,6h1v1h-1zM100,6h1v1h-1zM151,6h1v1h-1zM100,7h1v1h-1zM144,7h1v1h-1zM100,8h1v1h-1zM36,9h1v1h-1zM100,9h1v1h-1zM100,10h1v1h-1zM149,10h1v1h-1zM34,11h1v1h-1zM100,11h1v1h-1zM149,11h1v1h-1zM27,12h1v1h-1zM100,12h1v1h-1zM149,12h1v1h-1zM100,13h1v1h-1zM149,13h1v1h-1zM100,14h1v1h-1zM149,14h1v1h-1zM24,15h1v1h-1zM100,15h1v1h-1zM149,15h1v1h-1zM23,16h1v1h-1zM100,16h1v1h-1zM149,16h1v1h-1zM64,17h1v1h-1zM100,17h1v1h-1zM149,17h1v1h-1zM61,18h1v1h-1zM100,18h1v1h-1zM110,18h1v1h-1zM122,18h1v1h-1zM100,19h1v1h-1zM100,20h1v1h-1zM106,20h1v1h-1zM73,21h1v1h-1zM100,21h1v1h-1zM107,21h1v1h-1zM149,21h1v1h-1zM54,22h1v1h-1zM100,22h1v1h-1zM120,22h1v1h-1zM149,22h1v1h-1zM100,23h1v1h-1zM149,23h1v1h-1zM16,24h1v1h-1zM100,24h1v1h-1zM149,24h1v1h-1zM149,25h1v1h-1zM78,26h1v1h-1zM83,26h1v1h-1zM149,26h1v1h-1zM18,27h1v1h-1zM57,27h1v1h-1zM124,27h1v1h-1zM149,27h1v1h-1zM149,28h1v1h-1zM149,29h1v1h-1zM11,30h1v1h-1zM125,30h1v1h-1zM149,30h1v1h-1zM11,31h1v1h-1zM149,31h1v1h-1zM14,32h1v1h-1zM100,32h1v1h-1zM149,32h1v1h-1zM100,33h1v1h-1zM149,33h1v1h-1zM100,34h1v1h-1zM149,34h1v1h-1zM63,35h1v1h-1zM100,35h1v1h-1zM149,35h1v1h-1zM100,36h1v1h-1zM149,36h1v1h-1zM21,37h1v1h-1zM56,37h1v1h-1zM100,37h1v1h-1zM149,37h1v1h-1zM100,38h1v1h-1zM149,38h1v1h-1zM17,39h1v1h-1zM100,39h1v1h-1zM149,39h1v1h-1zM100,40h1v1h-1zM149,40h1v1h-1zM100,41h1v1h-1zM149,41h1v1h-1zM100,42h1v1h-1zM149,42h1v1h-1zM100,43h1v1h-1zM149,43h1v1h-1zM100,44h1v1h-1zM149,44h1v1h-1zM100,45h1v1h-1zM149,45h1v1h-1zM100,46h1v1h-1zM149,46h1v1h-1zM100,47h1v1h-1zM149,47h1v1h-1zM100,48h1v1h-1zM149,48h1v1h-1zM100,49h1v1h-1zM149,49h1v1h-1zM100,50h1v1h-1zM149,50h1v1h-1zM100,51h1v1h-1zM149,51h1v1h-1zM100,52h1v1h-1zM149,52h1v1h-1zM100,53h1v1h-1zM149,53h1v1h-1zM31,54h1v1h-1zM100,54h1v1h-1zM149,54h1v1h-1zM39,55h1v1h-1zM50,55h1v1h-1zM77,55h1v1h-1zM100,55h1v1h-1zM149,55h1v1h-1zM40,56h1v1h-1zM100,56h1v1h-1zM149,56h1v1h-1zM41,57h1v1h-1zM100,57h1v1h-1zM149,57h1v1h-1zM42,58h1v1h-1zM52,58h1v1h-1zM60,58h1v1h-1zM100,58h1v1h-1zM149,58h1v1h-1zM43,59h1v1h-1zM100,59h1v1h-1zM149,59h1v1h-1zM44,60h1v1h-1zM100,60h1v1h-1zM149,60h1v1h-1zM58,61h1v1h-1z" fill="#66705f" opacity="1.00"/>
  <path d="M46,0h1v1h-1zM84,27h1v1h-1zM48,49h1v1h-1zM48,50h1v1h-1z" fill="#66705f" opacity="0.86"/>
  <path d="M47,0h1v1h-1zM45,2h1v1h-1zM29,8h1v1h-1zM63,22h1v1h-1zM61,23h1v1h-1zM31,45h1v1h-1zM35,49h1v1h-1zM37,51h1v1h-1z" fill="#636b5a" opacity="0.12"/>
  <path d="M94,0h1v1h-1zM94,1h1v1h-1zM94,2h1v1h-1zM94,3h1v1h-1zM94,4h1v1h-1zM94,5h1v1h-1zM94,6h1v1h-1zM94,7h1v1h-1zM94,8h1v1h-1zM94,9h1v1h-1zM94,10h1v1h-1zM94,11h1v1h-1zM94,12h1v1h-1zM94,13h1v1h-1zM94,14h1v1h-1zM94,15h1v1h-1zM94,16h1v1h-1zM94,17h1v1h-1zM94,18h1v1h-1zM94,19h1v1h-1zM94,20h1v1h-1zM94,21h1v1h-1zM94,22h1v1h-1zM94,23h1v1h-1zM94,24h1v1h-1zM94,25h1v1h-1zM94,26h1v1h-1zM94,27h1v1h-1zM94,28h1v1h-1zM94,29h1v1h-1zM94,30h1v1h-1zM94,31h1v1h-1zM94,32h1v1h-1zM94,33h1v1h-1zM94,34h1v1h-1zM94,35h1v1h-1zM94,36h1v1h-1zM94,37h1v1h-1zM94,38h1v1h-1zM94,39h1v1h-1zM94,40h1v1h-1zM94,41h1v1h-1zM94,42h1v1h-1zM94,43h1v1h-1zM94,44h1v1h-1zM94,45h1v1h-1zM94,46h1v1h-1zM94,47h1v1h-1zM94,48h1v1h-1zM94,49h1v1h-1zM94,50h1v1h-1zM94,51h1v1h-1zM94,52h1v1h-1zM94,53h1v1h-1zM94,54h1v1h-1zM94,55h1v1h-1zM94,56h1v1h-1zM94,57h1v1h-1zM94,58h1v1h-1zM94,59h1v1h-1zM94,60h1v1h-1z" fill="#677160" opacity="0.68"/>
  <path d="M101,0h1v1h-1zM101,1h1v1h-1zM101,2h1v1h-1zM101,3h1v1h-1zM101,4h1v1h-1zM101,5h1v1h-1zM101,6h1v1h-1zM101,7h1v1h-1zM101,8h1v1h-1zM101,9h1v1h-1zM101,10h1v1h-1zM101,11h1v1h-1zM101,12h1v1h-1zM101,13h1v1h-1zM101,14h1v1h-1zM101,15h1v1h-1zM101,16h1v1h-1zM101,17h1v1h-1zM101,18h1v1h-1zM101,19h1v1h-1zM101,20h1v1h-1zM101,21h1v1h-1zM101,22h1v1h-1zM101,34h1v1h-1zM101,35h1v1h-1zM101,36h1v1h-1zM101,37h1v1h-1zM101,38h1v1h-1zM101,39h1v1h-1zM101,40h1v1h-1zM101,41h1v1h-1zM101,42h1v1h-1zM101,43h1v1h-1zM101,44h1v1h-1zM101,45h1v1h-1zM101,46h1v1h-1zM101,47h1v1h-1zM101,48h1v1h-1zM101,49h1v1h-1zM101,50h1v1h-1zM101,51h1v1h-1zM101,52h1v1h-1zM101,53h1v1h-1zM101,54h1v1h-1zM101,55h1v1h-1zM101,56h1v1h-1zM101,57h1v1h-1zM101,58h1v1h-1zM101,59h1v1h-1zM101,60h1v1h-1z" fill="#667161" opacity="0.44"/>
  <path d="M148,0h1v1h-1z" fill="#616d55" opacity="0.08"/>
  <path d="M149,0h1v1h-1z" fill="#696d5d" opacity="0.25"/>
  <path d="M150,0h1v1h-1zM101,23h1v1h-1zM48,53h1v1h-1zM57,55h1v1h-1zM75,59h1v1h-1z" fill="#67705f" opacity="0.55"/>
  <path d="M151,0h1v1h-1zM13,30h1v1h-1zM24,47h1v1h-1zM68,62h1v1h-1z" fill="#67715f" opacity="0.80"/>
  <path d="M152,0h1v1h-1zM34,12h1v1h-1zM24,22h1v1h-1zM85,34h1v1h-1z" fill="#67705f" opacity="0.93"/>
  <path d="M153,0h1v1h-1zM57,19h1v1h-1z" fill="#667160" opacity="0.98"/>
  <path d="M35,1h1v1h-1zM20,44h1v1h-1zM56,44h1v1h-1zM132,62h1v1h-1z" fill="#5d745d" opacity="0.04"/>
  <path d="M36,1h1v1h-1z" fill="#656f5f" opacity="0.67"/>
  <path d="M37,1h1v1h-1zM150,7h1v1h-1zM38,8h1v1h-1zM25,14h1v1h-1zM71,17h1v1h-1zM143,17h1v1h-1zM56,20h1v1h-1zM126,20h1v1h-1zM106,22h1v1h-1zM76,23h1v1h-1zM14,26h1v1h-1zM125,31h1v1h-1zM16,33h1v1h-1zM15,37h1v1h-1zM64,38h1v1h-1zM78,38h1v1h-1zM60,39h1v1h-1zM22,44h1v1h-1zM30,53h1v1h-1zM49,54h1v1h-1zM57,56h1v1h-1zM51,57h1v1h-1zM66,62h1v1h-1z" fill="#677160" opacity="0.99"/>
  <path d="M45,1h1v1h-1zM124,18h1v1h-1z" fill="#67715f" opacity="0.81"/>
  <path d="M46,1h1v1h-1zM44,3h1v1h-1zM132,33h1v1h-1zM132,61h1v1h-1z" fill="#64705d" opacity="0.16"/>
  <path d="M147,1h1v1h-1zM56,43h1v1h-1z" fill="#666f60" opacity="0.46"/>
  <path d="M148,1h1v1h-1zM37,9h1v1h-1zM53,38h1v1h-1z" fill="#677160" opacity="0.82"/>
  <path d="M149,1h1v1h-1zM81,22h1v1h-1zM62,35h1v1h-1zM149,61h1v1h-1z" fill="#677060" opacity="0.98"/>
  <path d="M35,2h1v1h-1z" fill="#66715f" opacity="0.64"/>
  <path d="M44,2h1v1h-1z" fill="#67705f" opacity="0.85"/>
  <path d="M145,2h1v1h-1z" fill="#6b6b5e" opacity="0.07"/>
  <path d="M146,2h1v1h-1zM58,18h1v1h-1z" fill="#66705e" opacity="0.67"/>
  <path d="M34,3h1v1h-1z" fill="#667060" opacity="0.51"/>
  <path d="M35,3h1v1h-1zM79,20h1v1h-1zM125,32h1v1h-1zM77,53h1v1h-1z" fill="#677060" opacity="0.97"/>
  <path d="M43,3h1v1h-1zM64,21h1v1h-1zM58,56h1v1h-1zM79,60h1v1h-1z" fill="#66705f" opacity="0.80"/>
  <path d="M145,3h1v1h-1z" fill="#677060" opacity="0.66"/>
  <path d="M146,3h1v1h-1zM75,18h1v1h-1zM135,18h1v1h-1zM135,19h1v1h-1zM135,20h1v1h-1zM128,22h1v1h-1zM9,32h1v1h-1zM0,61h1v1h-1zM1,61h1v1h-1zM2,61h1v1h-1zM3,61h1v1h-1zM4,61h1v1h-1zM5,61h1v1h-1zM6,61h1v1h-1zM38,61h1v1h-1zM39,61h1v1h-1zM40,61h1v1h-1zM41,61h1v1h-1zM42,61h1v1h-1zM43,61h1v1h-1zM44,61h1v1h-1zM70,61h1v1h-1zM80,61h1v1h-1zM81,61h1v1h-1zM82,61h1v1h-1zM83,61h1v1h-1zM84,61h1v1h-1zM95,61h1v1h-1zM96,61h1v1h-1zM97,61h1v1h-1zM98,61h1v1h-1zM99,61h1v1h-1zM126,61h1v1h-1zM127,61h1v1h-1zM128,61h1v1h-1zM129,61h1v1h-1zM130,61h1v1h-1zM131,61h1v1h-1zM144,61h1v1h-1zM145,61h1v1h-1zM146,61h1v1h-1zM147,61h1v1h-1zM148,61h1v1h-1z" fill="#677160" opacity="0.98"/>
  <path d="M33,4h1v1h-1zM29,53h1v1h-1z" fill="#656f5f" opacity="0.51"/>
  <path d="M42,4h1v1h-1zM59,18h1v1h-1zM26,20h1v1h-1z" fill="#67715f" opacity="0.89"/>
  <path d="M43,4h1v1h-1z" fill="#606860" opacity="0.13"/>
  <path d="M144,4h1v1h-1z" fill="#65705f" opacity="0.45"/>
  <path d="M32,5h1v1h-1z" fill="#677061" opacity="0.35"/>
  <path d="M33,5h1v1h-1zM58,25h1v1h-1zM25,48h1v1h-1zM50,56h1v1h-1zM69,58h1v1h-1zM125,61h1v1h-1zM143,61h1v1h-1z" fill="#667160" opacity="0.94"/>
  <path d="M41,5h1v1h-1zM35,11h1v1h-1zM16,23h1v1h-1z" fill="#677160" opacity="0.84"/>
  <path d="M42,5h1v1h-1z" fill="#676d61" opacity="0.16"/>
  <path d="M143,5h1v1h-1zM132,32h1v1h-1z" fill="#626c58" opacity="0.10"/>
  <path d="M144,5h1v1h-1zM26,41h1v1h-1zM54,47h1v1h-1z" fill="#667060" opacity="0.80"/>
  <path d="M31,6h1v1h-1z" fill="#637060" opacity="0.31"/>
  <path d="M40,6h1v1h-1zM150,17h1v1h-1zM105,20h1v1h-1zM108,21h1v1h-1zM118,21h1v1h-1zM121,23h1v1h-1zM129,23h1v1h-1zM12,30h1v1h-1zM12,34h1v1h-1zM18,34h1v1h-1zM125,34h1v1h-1zM125,35h1v1h-1zM125,36h1v1h-1zM125,37h1v1h-1zM125,38h1v1h-1zM125,39h1v1h-1zM125,40h1v1h-1zM125,41h1v1h-1zM125,42h1v1h-1zM125,43h1v1h-1zM125,44h1v1h-1zM125,45h1v1h-1zM125,46h1v1h-1zM125,47h1v1h-1zM125,48h1v1h-1zM125,49h1v1h-1zM125,50h1v1h-1zM125,51h1v1h-1zM125,52h1v1h-1zM125,53h1v1h-1zM125,54h1v1h-1zM125,55h1v1h-1zM125,56h1v1h-1zM125,57h1v1h-1zM79,58h1v1h-1zM125,58h1v1h-1zM125,59h1v1h-1zM125,60h1v1h-1z" fill="#67705f" opacity="0.95"/>
  <path d="M41,6h1v1h-1zM39,8h1v1h-1z" fill="#686d5e" opacity="0.19"/>
  <path d="M143,6h1v1h-1z" fill="#636e5f" opacity="0.26"/>
  <path d="M144,6h1v1h-1zM23,23h1v1h-1zM55,53h1v1h-1zM74,59h1v1h-1zM45,61h1v1h-1z" fill="#677160" opacity="0.97"/>
  <path d="M152,6h1v1h-1z" fill="#677060" opacity="0.93"/>
  <path d="M153,6h1v1h-1z" fill="#66705e" opacity="0.76"/>
  <path d="M154,6h1v1h-1z" fill="#667060" opacity="0.63"/>
  <path d="M155,6h1v1h-1zM156,6h1v1h-1zM157,6h1v1h-1zM158,6h1v1h-1zM159,6h1v1h-1z" fill="#667061" opacity="0.61"/>
  <path d="M30,7h1v1h-1z" fill="#64705d" opacity="0.26"/>
  <path d="M31,7h1v1h-1zM111,17h1v1h-1zM27,19h1v1h-1zM72,21h1v1h-1z" fill="#667060" opacity="0.92"/>
  <path d="M39,7h1v1h-1z" fill="#66705f" opacity="0.82"/>
  <path d="M40,7h1v1h-1z" fill="#636d5e" opacity="0.19"/>
  <path d="M143,7h1v1h-1z" fill="#65705e" opacity="0.57"/>
  <path d="M151,7h1v1h-1z" fill="#66715f" opacity="0.56"/>
  <path d="M152,7h1v1h-1zM101,62h1v1h-1z" fill="#666e5d" opacity="0.12"/>
  <path d="M30,8h1v1h-1z" fill="#66705f" opacity="0.98"/>
  <path d="M143,8h1v1h-1zM55,20h1v1h-1zM59,35h1v1h-1z" fill="#66705f" opacity="0.81"/>
  <path d="M150,8h1v1h-1zM71,21h1v1h-1zM15,32h1v1h-1zM25,40h1v1h-1z" fill="#67705f" opacity="0.83"/>
  <path d="M28,9h1v1h-1zM59,17h1v1h-1z" fill="#646f5e" opacity="0.18"/>
  <path d="M29,9h1v1h-1z" fill="#66705f" opacity="0.88"/>
  <path d="M38,9h1v1h-1z" fill="#667061" opacity="0.20"/>
  <path d="M143,9h1v1h-1zM61,39h1v1h-1z" fill="#677060" opacity="0.91"/>
  <path d="M150,9h1v1h-1zM150,21h1v1h-1z" fill="#667060" opacity="0.62"/>
  <path d="M27,10h1v1h-1z" fill="#5d5d5d" opacity="0.04"/>
  <path d="M28,10h1v1h-1zM23,46h1v1h-1zM78,51h1v1h-1z" fill="#677160" opacity="0.91"/>
  <path d="M36,10h1v1h-1zM25,21h1v1h-1zM22,24h1v1h-1z" fill="#677160" opacity="0.95"/>
  <path d="M37,10h1v1h-1zM72,22h1v1h-1z" fill="#667160" opacity="0.18"/>
  <path d="M143,10h1v1h-1zM143,11h1v1h-1zM143,12h1v1h-1zM143,13h1v1h-1zM143,14h1v1h-1zM143,15h1v1h-1zM143,16h1v1h-1zM143,22h1v1h-1zM143,23h1v1h-1zM143,24h1v1h-1zM143,25h1v1h-1zM143,26h1v1h-1zM143,27h1v1h-1zM143,28h1v1h-1zM143,29h1v1h-1zM143,30h1v1h-1zM143,31h1v1h-1zM143,32h1v1h-1zM143,33h1v1h-1zM143,34h1v1h-1zM143,35h1v1h-1zM143,36h1v1h-1zM143,37h1v1h-1zM143,38h1v1h-1zM143,39h1v1h-1zM143,40h1v1h-1zM143,41h1v1h-1zM143,42h1v1h-1zM143,43h1v1h-1zM143,44h1v1h-1zM143,45h1v1h-1zM143,46h1v1h-1zM143,47h1v1h-1zM143,48h1v1h-1zM143,49h1v1h-1zM143,50h1v1h-1zM143,51h1v1h-1zM143,52h1v1h-1zM143,53h1v1h-1zM143,54h1v1h-1zM143,55h1v1h-1zM143,56h1v1h-1zM143,57h1v1h-1zM143,58h1v1h-1zM143,59h1v1h-1zM143,60h1v1h-1z" fill="#667160" opacity="0.96"/>
  <path d="M150,10h1v1h-1zM150,11h1v1h-1zM150,12h1v1h-1zM150,13h1v1h-1zM150,14h1v1h-1zM150,15h1v1h-1zM150,16h1v1h-1zM150,22h1v1h-1zM150,23h1v1h-1zM150,24h1v1h-1zM150,25h1v1h-1zM150,26h1v1h-1zM150,27h1v1h-1zM150,28h1v1h-1zM150,29h1v1h-1zM150,30h1v1h-1zM150,31h1v1h-1zM150,32h1v1h-1zM150,33h1v1h-1zM150,34h1v1h-1zM150,35h1v1h-1zM150,36h1v1h-1zM150,37h1v1h-1zM150,38h1v1h-1zM150,39h1v1h-1zM150,40h1v1h-1zM150,41h1v1h-1zM150,42h1v1h-1zM150,43h1v1h-1zM150,44h1v1h-1zM150,45h1v1h-1zM150,46h1v1h-1zM150,47h1v1h-1zM150,48h1v1h-1zM150,49h1v1h-1zM150,50h1v1h-1zM150,51h1v1h-1zM150,52h1v1h-1zM150,53h1v1h-1zM150,54h1v1h-1zM150,55h1v1h-1zM150,56h1v1h-1zM150,57h1v1h-1zM150,58h1v1h-1zM150,59h1v1h-1zM150,60h1v1h-1zM150,61h1v1h-1z" fill="#67715f" opacity="0.51"/>
  <path d="M26,11h1v1h-1zM36,61h1v1h-1z" fill="#646d64" opacity="0.11"/>
  <path d="M27,11h1v1h-1zM64,58h1v1h-1z" fill="#667060" opacity="0.79"/>
  <path d="M36,11h1v1h-1z" fill="#666f61" opacity="0.22"/>
  <path d="M26,12h1v1h-1z" fill="#667060" opacity="0.71"/>
  <path d="M35,12h1v1h-1zM105,24h1v1h-1zM94,62h1v1h-1z" fill="#657060" opacity="0.19"/>
  <path d="M24,13h1v1h-1zM50,31h1v1h-1zM73,55h1v1h-1z" fill="#5b6d5b" opacity="0.05"/>
  <path d="M25,13h1v1h-1z" fill="#66705e" opacity="0.64"/>
  <path d="M33,13h1v1h-1zM31,15h1v1h-1zM142,17h1v1h-1zM20,26h1v1h-1zM79,59h1v1h-1z" fill="#66705f" opacity="0.89"/>
  <path d="M34,13h1v1h-1z" fill="#656f5f" opacity="0.31"/>
  <path d="M24,14h1v1h-1z" fill="#66715f" opacity="0.55"/>
  <path d="M32,14h1v1h-1z" fill="#677160" opacity="0.93"/>
  <path d="M23,15h1v1h-1z" fill="#667260" opacity="0.50"/>
  <path d="M32,15h1v1h-1z" fill="#626f5f" opacity="0.31"/>
  <path d="M22,16h1v1h-1z" fill="#657061" opacity="0.45"/>
  <path d="M30,16h1v1h-1zM61,22h1v1h-1zM62,58h1v1h-1z" fill="#667160" opacity="0.92"/>
  <path d="M31,16h1v1h-1z" fill="#646c5d" opacity="0.26"/>
  <path d="M64,16h1v1h-1z" fill="#637363" opacity="0.12"/>
  <path d="M65,16h1v1h-1zM84,25h1v1h-1zM55,45h1v1h-1z" fill="#667060" opacity="0.31"/>
  <path d="M66,16h1v1h-1zM67,16h1v1h-1zM68,16h1v1h-1zM115,16h1v1h-1zM116,16h1v1h-1zM117,16h1v1h-1z" fill="#666e61" opacity="0.39"/>
  <path d="M69,16h1v1h-1z" fill="#676e5f" opacity="0.38"/>
  <path d="M70,16h1v1h-1zM77,51h1v1h-1z" fill="#646e5f" opacity="0.20"/>
  <path d="M71,16h1v1h-1z" fill="#5e6b51" opacity="0.07"/>
  <path d="M113,16h1v1h-1zM48,54h1v1h-1z" fill="#62695a" opacity="0.13"/>
  <path d="M114,16h1v1h-1z" fill="#676d60" opacity="0.32"/>
  <path d="M118,16h1v1h-1z" fill="#676e61" opacity="0.31"/>
  <path d="M119,16h1v1h-1z" fill="#606c59" opacity="0.16"/>
  <path d="M21,17h1v1h-1z" fill="#646f5f" opacity="0.37"/>
  <path d="M22,17h1v1h-1zM58,40h1v1h-1z" fill="#66715f" opacity="0.97"/>
  <path d="M29,17h1v1h-1zM101,24h1v1h-1z" fill="#66705f" opacity="0.90"/>
  <path d="M30,17h1v1h-1zM109,17h1v1h-1z" fill="#656e5e" opacity="0.32"/>
  <path d="M60,17h1v1h-1zM66,21h1v1h-1z" fill="#65725f" opacity="0.33"/>
  <path d="M61,17h1v1h-1z" fill="#666f5f" opacity="0.64"/>
  <path d="M62,17h1v1h-1z" fill="#66715f" opacity="0.92"/>
  <path d="M63,17h1v1h-1zM62,21h1v1h-1zM123,25h1v1h-1zM29,52h1v1h-1zM56,55h1v1h-1zM76,57h1v1h-1zM70,58h1v1h-1z" fill="#66705f" opacity="0.99"/>
  <path d="M72,17h1v1h-1zM109,18h1v1h-1zM123,18h1v1h-1zM104,21h1v1h-1zM13,35h1v1h-1zM19,35h1v1h-1zM20,42h1v1h-1zM79,57h1v1h-1z" fill="#67715f" opacity="0.98"/>
  <path d="M73,17h1v1h-1zM104,24h1v1h-1z" fill="#667060" opacity="0.87"/>
  <path d="M74,17h1v1h-1zM78,49h1v1h-1z" fill="#66705f" opacity="0.54"/>
  <path d="M75,17h1v1h-1z" fill="#677160" opacity="0.30"/>
  <path d="M76,17h1v1h-1zM50,40h1v1h-1z" fill="#62705a" opacity="0.13"/>
  <path d="M108,17h1v1h-1z" fill="#646c5d" opacity="0.13"/>
  <path d="M110,17h1v1h-1zM56,36h1v1h-1zM32,56h1v1h-1z" fill="#677160" opacity="0.58"/>
  <path d="M112,17h1v1h-1zM120,17h1v1h-1z" fill="#667060" opacity="0.99"/>
  <path d="M113,17h1v1h-1z" fill="#677060" opacity="1.00"/>
  <path d="M121,17h1v1h-1z" fill="#66705f" opacity="0.93"/>
  <path d="M122,17h1v1h-1z" fill="#66715f" opacity="0.58"/>
  <path d="M123,17h1v1h-1z" fill="#63715d" opacity="0.30"/>
  <path d="M124,17h1v1h-1zM22,46h1v1h-1zM39,53h1v1h-1zM63,57h1v1h-1z" fill="#646f59" opacity="0.09"/>
  <path d="M134,17h1v1h-1z" fill="#668066" opacity="0.04"/>
  <path d="M135,17h1v1h-1z" fill="#667160" opacity="0.87"/>
  <path d="M136,17h1v1h-1zM137,17h1v1h-1zM138,17h1v1h-1zM139,17h1v1h-1zM140,17h1v1h-1zM141,17h1v1h-1zM151,17h1v1h-1zM152,17h1v1h-1zM153,17h1v1h-1zM154,17h1v1h-1zM155,17h1v1h-1zM156,17h1v1h-1zM157,17h1v1h-1zM158,17h1v1h-1zM159,17h1v1h-1z" fill="#677060" opacity="0.89"/>
  <path d="M20,18h1v1h-1zM120,23h1v1h-1zM124,30h1v1h-1z" fill="#657060" opacity="0.36"/>
  <path d="M21,18h1v1h-1zM82,23h1v1h-1zM54,51h1v1h-1zM74,56h1v1h-1zM72,57h1v1h-1zM61,58h1v1h-1z" fill="#66715f" opacity="0.98"/>
  <path d="M28,18h1v1h-1zM103,25h1v1h-1z" fill="#667060" opacity="0.91"/>
  <path d="M29,18h1v1h-1zM77,27h1v1h-1zM57,42h1v1h-1zM85,62h1v1h-1zM143,62h1v1h-1z" fill="#676e5f" opacity="0.26"/>
  <path d="M57,18h1v1h-1z" fill="#5d775d" opacity="0.12"/>
  <path d="M60,18h1v1h-1zM51,26h1v1h-1zM65,38h1v1h-1zM66,38h1v1h-1zM67,38h1v1h-1zM68,38h1v1h-1zM69,38h1v1h-1zM70,38h1v1h-1zM71,38h1v1h-1zM72,38h1v1h-1zM73,38h1v1h-1zM74,38h1v1h-1zM75,38h1v1h-1zM76,38h1v1h-1zM77,38h1v1h-1zM75,58h1v1h-1z" fill="#677060" opacity="0.99"/>
  <path d="M76,18h1v1h-1zM108,18h1v1h-1zM109,21h1v1h-1zM76,24h1v1h-1zM51,25h1v1h-1z" fill="#677060" opacity="0.85"/>
  <path d="M77,18h1v1h-1zM72,61h1v1h-1z" fill="#66715f" opacity="0.60"/>
  <path d="M78,18h1v1h-1z" fill="#627658" opacity="0.10"/>
  <path d="M107,18h1v1h-1zM101,32h1v1h-1zM52,59h1v1h-1z" fill="#657060" opacity="0.53"/>
  <path d="M125,18h1v1h-1zM15,30h1v1h-1z" fill="#64705e" opacity="0.33"/>
  <path d="M134,18h1v1h-1zM134,19h1v1h-1zM134,20h1v1h-1z" fill="#6a806a" opacity="0.05"/>
  <path d="M19,19h1v1h-1zM49,42h1v1h-1z" fill="#666d5f" opacity="0.27"/>
  <path d="M20,19h1v1h-1zM19,20h1v1h-1zM76,54h1v1h-1z" fill="#667160" opacity="0.93"/>
  <path d="M28,19h1v1h-1zM64,39h1v1h-1z" fill="#647060" opacity="0.32"/>
  <path d="M55,19h1v1h-1zM130,23h1v1h-1zM131,25h1v1h-1zM21,45h1v1h-1zM55,51h1v1h-1z" fill="#5e6b5e" opacity="0.07"/>
  <path d="M56,19h1v1h-1zM65,34h1v1h-1zM66,34h1v1h-1zM67,34h1v1h-1zM68,34h1v1h-1zM69,34h1v1h-1zM70,34h1v1h-1zM71,34h1v1h-1zM72,34h1v1h-1zM73,34h1v1h-1zM74,34h1v1h-1zM75,34h1v1h-1zM76,34h1v1h-1zM77,34h1v1h-1z" fill="#667060" opacity="0.50"/>
  <path d="M78,19h1v1h-1z" fill="#66705f" opacity="0.95"/>
  <path d="M79,19h1v1h-1z" fill="#676f5f" opacity="0.39"/>
  <path d="M80,19h1v1h-1zM86,33h1v1h-1zM19,43h1v1h-1z" fill="#62624e" opacity="0.05"/>
  <path d="M105,19h1v1h-1z" fill="#66705f" opacity="0.29"/>
  <path d="M106,19h1v1h-1z" fill="#67705f" opacity="0.89"/>
  <path d="M126,19h1v1h-1z" fill="#667060" opacity="0.70"/>
  <path d="M127,19h1v1h-1z" fill="#5d685d" opacity="0.09"/>
  <path d="M18,20h1v1h-1z" fill="#65715e" opacity="0.32"/>
  <path d="M27,20h1v1h-1z" fill="#626e5d" opacity="0.24"/>
  <path d="M54,20h1v1h-1z" fill="#656f5b" opacity="0.21"/>
  <path d="M80,20h1v1h-1zM20,35h1v1h-1z" fill="#667160" opacity="0.67"/>
  <path d="M104,20h1v1h-1zM82,22h1v1h-1z" fill="#66715e" opacity="0.54"/>
  <path d="M127,20h1v1h-1zM28,43h1v1h-1z" fill="#66715f" opacity="0.80"/>
  <path d="M128,20h1v1h-1zM16,30h1v1h-1zM51,31h1v1h-1zM52,31h1v1h-1zM53,31h1v1h-1zM54,31h1v1h-1zM55,31h1v1h-1zM56,31h1v1h-1zM47,51h1v1h-1zM54,61h1v1h-1z" fill="#607060" opacity="0.06"/>
  <path d="M17,21h1v1h-1zM57,62h1v1h-1z" fill="#67715d" opacity="0.20"/>
  <path d="M18,21h1v1h-1zM105,23h1v1h-1zM52,39h1v1h-1zM48,48h1v1h-1zM71,61h1v1h-1z" fill="#66715f" opacity="0.86"/>
  <path d="M26,21h1v1h-1z" fill="#626f5f" opacity="0.33"/>
  <path d="M53,21h1v1h-1z" fill="#606e60" opacity="0.15"/>
  <path d="M54,21h1v1h-1z" fill="#667160" opacity="0.83"/>
  <path d="M63,21h1v1h-1z" fill="#67705f" opacity="0.88"/>
  <path d="M65,21h1v1h-1zM50,27h1v1h-1z" fill="#677060" opacity="0.55"/>
  <path d="M67,21h1v1h-1zM113,21h1v1h-1z" fill="#656f62" opacity="0.31"/>
  <path d="M68,21h1v1h-1zM65,39h1v1h-1zM66,39h1v1h-1zM67,39h1v1h-1zM68,39h1v1h-1zM69,39h1v1h-1zM70,39h1v1h-1zM71,39h1v1h-1zM72,39h1v1h-1zM73,39h1v1h-1zM74,39h1v1h-1zM75,39h1v1h-1zM76,39h1v1h-1zM77,39h1v1h-1z" fill="#647161" opacity="0.31"/>
  <path d="M69,21h1v1h-1z" fill="#666f5f" opacity="0.44"/>
  <path d="M70,21h1v1h-1z" fill="#657160" opacity="0.69"/>
  <path d="M81,21h1v1h-1z" fill="#66705e" opacity="0.68"/>
  <path d="M82,21h1v1h-1zM84,24h1v1h-1z" fill="#666655" opacity="0.06"/>
  <path d="M103,21h1v1h-1z" fill="#667160" opacity="0.47"/>
  <path d="M110,21h1v1h-1zM22,45h1v1h-1zM71,57h1v1h-1z" fill="#66715f" opacity="0.73"/>
  <path d="M111,21h1v1h-1z" fill="#666e60" opacity="0.49"/>
  <path d="M112,21h1v1h-1zM62,34h1v1h-1z" fill="#656f5f" opacity="0.33"/>
  <path d="M114,21h1v1h-1z" fill="#646e61" opacity="0.31"/>
  <path d="M115,21h1v1h-1z" fill="#66705e" opacity="0.49"/>
  <path d="M116,21h1v1h-1z" fill="#66705f" opacity="0.73"/>
  <path d="M117,21h1v1h-1zM101,30h1v1h-1z" fill="#66715f" opacity="0.84"/>
  <path d="M128,21h1v1h-1zM66,58h1v1h-1z" fill="#66705f" opacity="0.78"/>
  <path d="M129,21h1v1h-1zM44,58h1v1h-1z" fill="#627662" opacity="0.05"/>
  <path d="M135,21h1v1h-1z" fill="#62715d" opacity="0.20"/>
  <path d="M136,21h1v1h-1zM137,21h1v1h-1zM138,21h1v1h-1zM139,21h1v1h-1zM140,21h1v1h-1zM141,21h1v1h-1zM151,21h1v1h-1zM152,21h1v1h-1zM153,21h1v1h-1zM154,21h1v1h-1zM155,21h1v1h-1zM156,21h1v1h-1zM157,21h1v1h-1zM158,21h1v1h-1zM159,21h1v1h-1zM57,30h1v1h-1z" fill="#677162" opacity="0.20"/>
  <path d="M142,21h1v1h-1zM83,23h1v1h-1zM124,61h1v1h-1z" fill="#63705f" opacity="0.23"/>
  <path d="M143,21h1v1h-1zM101,29h1v1h-1zM18,40h1v1h-1zM61,62h1v1h-1z" fill="#67715f" opacity="0.96"/>
  <path d="M16,22h1v1h-1z" fill="#666b5c" opacity="0.20"/>
  <path d="M17,22h1v1h-1zM50,30h1v1h-1z" fill="#677060" opacity="0.87"/>
  <path d="M18,22h1v1h-1zM101,28h1v1h-1z" fill="#667060" opacity="1.00"/>
  <path d="M25,22h1v1h-1zM70,62h1v1h-1z" fill="#656f5d" opacity="0.28"/>
  <path d="M52,22h1v1h-1z" fill="#636a5c" opacity="0.14"/>
  <path d="M53,22h1v1h-1z" fill="#66715f" opacity="0.87"/>
  <path d="M62,22h1v1h-1z" fill="#656e5d" opacity="0.41"/>
  <path d="M73,22h1v1h-1z" fill="#65715f" opacity="0.49"/>
  <path d="M74,22h1v1h-1zM21,25h1v1h-1zM125,33h1v1h-1z" fill="#67715f" opacity="0.95"/>
  <path d="M102,22h1v1h-1zM48,44h1v1h-1z" fill="#656d5d" opacity="0.25"/>
  <path d="M103,22h1v1h-1z" fill="#677160" opacity="0.94"/>
  <path d="M107,22h1v1h-1zM48,45h1v1h-1z" fill="#66705e" opacity="0.60"/>
  <path d="M108,22h1v1h-1z" fill="#64705c" opacity="0.25"/>
  <path d="M109,22h1v1h-1z" fill="#667755" opacity="0.06"/>
  <path d="M117,22h1v1h-1zM8,33h1v1h-1zM49,41h1v1h-1z" fill="#6a6a55" opacity="0.05"/>
  <path d="M118,22h1v1h-1z" fill="#636f5f" opacity="0.24"/>
  <path d="M119,22h1v1h-1z" fill="#676f5f" opacity="0.59"/>
  <path d="M129,22h1v1h-1z" fill="#666f61" opacity="0.42"/>
  <path d="M15,23h1v1h-1z" fill="#65715f" opacity="0.17"/>
  <path d="M24,23h1v1h-1zM13,36h1v1h-1z" fill="#686f60" opacity="0.40"/>
  <path d="M52,23h1v1h-1zM44,59h1v1h-1z" fill="#667160" opacity="0.63"/>
  <path d="M60,23h1v1h-1z" fill="#667160" opacity="0.77"/>
  <path d="M74,23h1v1h-1z" fill="#606e5a" opacity="0.15"/>
  <path d="M75,23h1v1h-1zM27,42h1v1h-1z" fill="#667160" opacity="0.82"/>
  <path d="M102,23h1v1h-1zM122,24h1v1h-1zM54,46h1v1h-1z" fill="#66705f" opacity="0.96"/>
  <path d="M106,23h1v1h-1zM50,26h1v1h-1zM55,36h1v1h-1z" fill="#666e5d" opacity="0.24"/>
  <path d="M14,24h1v1h-1z" fill="#697062" opacity="0.13"/>
  <path d="M15,24h1v1h-1z" fill="#667160" opacity="0.78"/>
  <path d="M23,24h1v1h-1zM74,55h1v1h-1zM74,60h1v1h-1z" fill="#676f5e" opacity="0.36"/>
  <path d="M51,24h1v1h-1zM7,61h1v1h-1z" fill="#65715d" opacity="0.25"/>
  <path d="M52,24h1v1h-1zM102,27h1v1h-1zM131,30h1v1h-1zM57,36h1v1h-1z" fill="#66715f" opacity="0.96"/>
  <path d="M59,24h1v1h-1z" fill="#66715f" opacity="0.81"/>
  <path d="M60,24h1v1h-1zM26,40h1v1h-1z" fill="#5f6d5f" opacity="0.14"/>
  <path d="M75,24h1v1h-1z" fill="#68745d" opacity="0.17"/>
  <path d="M83,24h1v1h-1zM24,39h1v1h-1z" fill="#676f60" opacity="0.78"/>
  <path d="M121,24h1v1h-1z" fill="#646e5e" opacity="0.31"/>
  <path d="M130,24h1v1h-1z" fill="#66705f" opacity="0.59"/>
  <path d="M13,25h1v1h-1zM23,47h1v1h-1zM47,48h1v1h-1zM47,49h1v1h-1zM47,50h1v1h-1z" fill="#666d5f" opacity="0.14"/>
  <path d="M14,25h1v1h-1z" fill="#677060" opacity="0.82"/>
  <path d="M22,25h1v1h-1z" fill="#67715d" opacity="0.41"/>
  <path d="M59,25h1v1h-1zM59,56h1v1h-1z" fill="#646a5d" opacity="0.16"/>
  <path d="M76,25h1v1h-1zM69,57h1v1h-1z" fill="#666e5e" opacity="0.25"/>
  <path d="M77,25h1v1h-1z" fill="#667060" opacity="0.97"/>
  <path d="M83,25h1v1h-1z" fill="#677060" opacity="0.96"/>
  <path d="M104,25h1v1h-1z" fill="#616a58" opacity="0.11"/>
  <path d="M122,25h1v1h-1z" fill="#657160" opacity="0.41"/>
  <path d="M130,25h1v1h-1z" fill="#667060" opacity="0.90"/>
  <path d="M12,26h1v1h-1z" fill="#666c5b" opacity="0.18"/>
  <path d="M13,26h1v1h-1z" fill="#67705f" opacity="0.76"/>
  <path d="M21,26h1v1h-1zM76,53h1v1h-1z" fill="#65715f" opacity="0.34"/>
  <path d="M58,26h1v1h-1zM77,26h1v1h-1z" fill="#67705f" opacity="0.63"/>
  <path d="M84,26h1v1h-1z" fill="#676f60" opacity="0.59"/>
  <path d="M103,26h1v1h-1zM15,38h1v1h-1z" fill="#65705f" opacity="0.47"/>
  <path d="M122,26h1v1h-1z" fill="#596659" opacity="0.08"/>
  <path d="M123,26h1v1h-1z" fill="#66705f" opacity="0.87"/>
  <path d="M130,26h1v1h-1zM27,50h1v1h-1zM59,57h1v1h-1z" fill="#667160" opacity="0.97"/>
  <path d="M131,26h1v1h-1z" fill="#65705e" opacity="0.29"/>
  <path d="M11,27h1v1h-1zM46,62h1v1h-1z" fill="#646f60" opacity="0.27"/>
  <path d="M12,27h1v1h-1z" fill="#67705f" opacity="0.91"/>
  <path d="M19,27h1v1h-1z" fill="#687161" opacity="0.88"/>
  <path d="M20,27h1v1h-1z" fill="#63715e" opacity="0.21"/>
  <path d="M58,27h1v1h-1z" fill="#64725b" opacity="0.22"/>
  <path d="M78,27h1v1h-1zM61,35h1v1h-1zM85,35h1v1h-1zM85,36h1v1h-1zM85,37h1v1h-1zM16,38h1v1h-1zM85,38h1v1h-1zM85,39h1v1h-1zM85,40h1v1h-1zM85,41h1v1h-1zM85,42h1v1h-1zM85,43h1v1h-1zM85,44h1v1h-1zM85,45h1v1h-1zM85,46h1v1h-1zM85,47h1v1h-1zM85,48h1v1h-1zM85,49h1v1h-1zM85,50h1v1h-1zM28,51h1v1h-1zM85,51h1v1h-1zM85,52h1v1h-1zM85,53h1v1h-1zM85,54h1v1h-1zM85,55h1v1h-1zM85,56h1v1h-1zM85,57h1v1h-1zM85,58h1v1h-1zM85,59h1v1h-1zM85,60h1v1h-1z" fill="#667160" opacity="0.95"/>
  <path d="M103,27h1v1h-1zM20,34h1v1h-1zM57,35h1v1h-1zM32,57h1v1h-1zM7,62h1v1h-1zM56,62h1v1h-1z" fill="#69695a" opacity="0.07"/>
  <path d="M123,27h1v1h-1z" fill="#686f5e" opacity="0.40"/>
  <path d="M131,27h1v1h-1z" fill="#666f5f" opacity="0.43"/>
  <path d="M7,28h1v1h-1z" fill="#65715e" opacity="0.44"/>
  <path d="M8,28h1v1h-1zM124,32h1v1h-1z" fill="#65705e" opacity="0.27"/>
  <path d="M9,28h1v1h-1z" fill="#66705f" opacity="0.41"/>
  <path d="M10,28h1v1h-1z" fill="#67715f" opacity="0.66"/>
  <path d="M11,28h1v1h-1z" fill="#677060" opacity="0.95"/>
  <path d="M17,28h1v1h-1z" fill="#667060" opacity="0.96"/>
  <path d="M18,28h1v1h-1z" fill="#656f5f" opacity="0.59"/>
  <path d="M19,28h1v1h-1z" fill="#617261" opacity="0.11"/>
  <path d="M50,28h1v1h-1zM94,61h1v1h-1zM59,62h1v1h-1z" fill="#667060" opacity="0.67"/>
  <path d="M57,28h1v1h-1z" fill="#667060" opacity="0.88"/>
  <path d="M77,28h1v1h-1zM86,36h1v1h-1zM86,37h1v1h-1zM86,38h1v1h-1zM86,39h1v1h-1zM86,40h1v1h-1zM86,41h1v1h-1zM86,42h1v1h-1zM29,43h1v1h-1zM86,43h1v1h-1zM86,44h1v1h-1zM86,45h1v1h-1zM86,46h1v1h-1zM86,47h1v1h-1zM86,48h1v1h-1zM86,49h1v1h-1zM86,50h1v1h-1zM86,51h1v1h-1zM86,52h1v1h-1zM86,53h1v1h-1zM86,54h1v1h-1zM86,55h1v1h-1zM86,56h1v1h-1zM86,57h1v1h-1zM86,58h1v1h-1zM86,59h1v1h-1zM86,60h1v1h-1z" fill="#68715e" opacity="0.11"/>
  <path d="M78,28h1v1h-1zM23,38h1v1h-1z" fill="#667160" opacity="0.84"/>
  <path d="M84,28h1v1h-1zM57,41h1v1h-1zM50,42h1v1h-1zM100,61h1v1h-1z" fill="#667060" opacity="0.98"/>
  <path d="M85,28h1v1h-1z" fill="#676e60" opacity="0.15"/>
  <path d="M102,28h1v1h-1z" fill="#666e5f" opacity="0.52"/>
  <path d="M124,28h1v1h-1zM67,62h1v1h-1z" fill="#66705f" opacity="0.94"/>
  <path d="M131,28h1v1h-1zM14,30h1v1h-1z" fill="#66705f" opacity="0.61"/>
  <path d="M16,29h1v1h-1z" fill="#667160" opacity="0.88"/>
  <path d="M17,29h1v1h-1z" fill="#64715c" opacity="0.24"/>
  <path d="M49,29h1v1h-1z" fill="#646f64" opacity="0.09"/>
  <path d="M50,29h1v1h-1z" fill="#667060" opacity="0.81"/>
  <path d="M57,29h1v1h-1z" fill="#65725e" opacity="0.47"/>
  <path d="M78,29h1v1h-1z" fill="#667160" opacity="0.72"/>
  <path d="M85,29h1v1h-1z" fill="#667061" opacity="0.41"/>
  <path d="M124,29h1v1h-1z" fill="#65705f" opacity="0.66"/>
  <path d="M131,29h1v1h-1z" fill="#667061" opacity="0.84"/>
  <path d="M49,30h1v1h-1z" fill="#627062" opacity="0.13"/>
  <path d="M51,30h1v1h-1zM52,30h1v1h-1zM53,30h1v1h-1zM54,30h1v1h-1zM55,30h1v1h-1zM56,30h1v1h-1z" fill="#677160" opacity="0.96"/>
  <path d="M78,30h1v1h-1z" fill="#657060" opacity="0.55"/>
  <path d="M85,30h1v1h-1z" fill="#67715f" opacity="0.64"/>
  <path d="M12,31h1v1h-1zM55,37h1v1h-1z" fill="#667060" opacity="0.93"/>
  <path d="M13,31h1v1h-1z" fill="#66705f" opacity="0.69"/>
  <path d="M14,31h1v1h-1z" fill="#677160" opacity="0.28"/>
  <path d="M78,31h1v1h-1z" fill="#677060" opacity="0.43"/>
  <path d="M85,31h1v1h-1z" fill="#66725f" opacity="0.79"/>
  <path d="M101,31h1v1h-1zM20,43h1v1h-1zM56,54h1v1h-1zM43,58h1v1h-1z" fill="#67705f" opacity="0.65"/>
  <path d="M124,31h1v1h-1zM26,50h1v1h-1z" fill="#656f5e" opacity="0.30"/>
  <path d="M132,31h1v1h-1z" fill="#556655" opacity="0.06"/>
  <path d="M7,32h1v1h-1z" fill="#66715f" opacity="0.90"/>
  <path d="M8,32h1v1h-1zM85,33h1v1h-1zM55,44h1v1h-1zM75,55h1v1h-1z" fill="#67715f" opacity="0.91"/>
  <path d="M16,32h1v1h-1zM19,34h1v1h-1z" fill="#67725e" opacity="0.47"/>
  <path d="M17,32h1v1h-1z" fill="#626c62" opacity="0.10"/>
  <path d="M78,32h1v1h-1z" fill="#646f61" opacity="0.34"/>
  <path d="M85,32h1v1h-1zM26,49h1v1h-1zM68,58h1v1h-1z" fill="#677160" opacity="0.87"/>
  <path d="M7,33h1v1h-1z" fill="#637160" opacity="0.28"/>
  <path d="M9,33h1v1h-1z" fill="#656e5c" opacity="0.23"/>
  <path d="M10,33h1v1h-1z" fill="#65705f" opacity="0.77"/>
  <path d="M17,33h1v1h-1zM77,56h1v1h-1z" fill="#67715f" opacity="0.88"/>
  <path d="M18,33h1v1h-1zM100,62h1v1h-1zM149,62h1v1h-1z" fill="#66715f" opacity="0.27"/>
  <path d="M78,33h1v1h-1zM78,40h1v1h-1zM78,41h1v1h-1zM78,42h1v1h-1zM78,43h1v1h-1zM78,44h1v1h-1zM78,45h1v1h-1zM78,46h1v1h-1zM78,47h1v1h-1z" fill="#666f60" opacity="0.33"/>
  <path d="M101,33h1v1h-1z" fill="#66715f" opacity="0.45"/>
  <path d="M124,33h1v1h-1z" fill="#646d60" opacity="0.24"/>
  <path d="M11,34h1v1h-1z" fill="#656f5f" opacity="0.49"/>
  <path d="M60,34h1v1h-1zM28,42h1v1h-1zM78,57h1v1h-1zM71,62h1v1h-1z" fill="#646d5b" opacity="0.11"/>
  <path d="M61,34h1v1h-1z" fill="#656e61" opacity="0.23"/>
  <path d="M63,34h1v1h-1z" fill="#67715e" opacity="0.42"/>
  <path d="M64,34h1v1h-1z" fill="#66705f" opacity="0.46"/>
  <path d="M78,34h1v1h-1z" fill="#687060" opacity="0.67"/>
  <path d="M86,34h1v1h-1z" fill="#636355" opacity="0.07"/>
  <path d="M124,34h1v1h-1zM124,35h1v1h-1zM124,36h1v1h-1zM124,37h1v1h-1zM124,38h1v1h-1zM124,39h1v1h-1zM124,40h1v1h-1zM124,41h1v1h-1zM124,42h1v1h-1zM124,43h1v1h-1zM124,44h1v1h-1zM124,45h1v1h-1zM124,46h1v1h-1zM124,47h1v1h-1zM124,48h1v1h-1zM124,49h1v1h-1zM124,50h1v1h-1zM124,51h1v1h-1zM124,52h1v1h-1zM124,53h1v1h-1zM124,54h1v1h-1zM124,55h1v1h-1zM124,56h1v1h-1zM124,57h1v1h-1zM124,58h1v1h-1zM124,59h1v1h-1zM124,60h1v1h-1z" fill="#666e62" opacity="0.24"/>
  <path d="M132,34h1v1h-1zM132,35h1v1h-1zM132,36h1v1h-1zM132,37h1v1h-1zM132,38h1v1h-1zM132,39h1v1h-1zM132,40h1v1h-1zM132,41h1v1h-1zM132,42h1v1h-1zM132,43h1v1h-1zM132,44h1v1h-1zM132,45h1v1h-1zM132,46h1v1h-1zM132,47h1v1h-1zM132,48h1v1h-1zM132,49h1v1h-1zM132,50h1v1h-1zM132,51h1v1h-1zM132,52h1v1h-1zM132,53h1v1h-1zM132,54h1v1h-1zM132,55h1v1h-1zM132,56h1v1h-1zM132,57h1v1h-1zM132,58h1v1h-1zM132,59h1v1h-1zM132,60h1v1h-1z" fill="#616d5b" opacity="0.16"/>
  <path d="M12,35h1v1h-1z" fill="#66715e" opacity="0.37"/>
  <path d="M58,35h1v1h-1zM27,51h1v1h-1z" fill="#666f5e" opacity="0.40"/>
  <path d="M60,35h1v1h-1z" fill="#667160" opacity="0.91"/>
  <path d="M86,35h1v1h-1zM33,47h1v1h-1zM86,61h1v1h-1z" fill="#5e685e" opacity="0.11"/>
  <path d="M14,36h1v1h-1zM56,42h1v1h-1zM85,61h1v1h-1z" fill="#67715f" opacity="0.93"/>
  <path d="M21,36h1v1h-1zM48,51h1v1h-1zM73,56h1v1h-1z" fill="#66705f" opacity="0.76"/>
  <path d="M22,36h1v1h-1z" fill="#656b5e" opacity="0.15"/>
  <path d="M14,37h1v1h-1z" fill="#666f61" opacity="0.40"/>
  <path d="M22,37h1v1h-1z" fill="#667060" opacity="0.78"/>
  <path d="M54,37h1v1h-1z" fill="#666f5f" opacity="0.56"/>
  <path d="M24,38h1v1h-1z" fill="#626f5c" opacity="0.15"/>
  <path d="M52,38h1v1h-1z" fill="#66705c" opacity="0.20"/>
  <path d="M16,39h1v1h-1zM50,57h1v1h-1z" fill="#667160" opacity="0.48"/>
  <path d="M25,39h1v1h-1z" fill="#666666" opacity="0.06"/>
  <path d="M51,39h1v1h-1z" fill="#676d5b" opacity="0.16"/>
  <path d="M62,39h1v1h-1z" fill="#667060" opacity="0.69"/>
  <path d="M63,39h1v1h-1zM30,54h1v1h-1zM101,61h1v1h-1z" fill="#657160" opacity="0.44"/>
  <path d="M78,39h1v1h-1zM69,62h1v1h-1z" fill="#667160" opacity="0.54"/>
  <path d="M17,40h1v1h-1z" fill="#66705e" opacity="0.50"/>
  <path d="M51,40h1v1h-1z" fill="#66705f" opacity="0.91"/>
  <path d="M59,40h1v1h-1zM54,48h1v1h-1zM54,49h1v1h-1z" fill="#66715f" opacity="0.75"/>
  <path d="M60,40h1v1h-1z" fill="#666e5e" opacity="0.35"/>
  <path d="M18,41h1v1h-1z" fill="#666f5f" opacity="0.55"/>
  <path d="M27,41h1v1h-1z" fill="#68745d" opacity="0.09"/>
  <path d="M58,41h1v1h-1z" fill="#64715f" opacity="0.38"/>
  <path d="M19,42h1v1h-1zM33,57h1v1h-1z" fill="#67715f" opacity="0.68"/>
  <path d="M49,43h1v1h-1zM54,50h1v1h-1z" fill="#66705f" opacity="0.85"/>
  <path d="M21,44h1v1h-1z" fill="#65705f" opacity="0.80"/>
  <path d="M29,44h1v1h-1zM78,55h1v1h-1z" fill="#666f60" opacity="0.84"/>
  <path d="M30,44h1v1h-1z" fill="#6a7258" opacity="0.11"/>
  <path d="M30,45h1v1h-1z" fill="#67705f" opacity="0.80"/>
  <path d="M31,46h1v1h-1z" fill="#677160" opacity="0.76"/>
  <path d="M32,46h1v1h-1z" fill="#607050" opacity="0.06"/>
  <path d="M48,46h1v1h-1zM60,57h1v1h-1z" fill="#677160" opacity="0.69"/>
  <path d="M32,47h1v1h-1z" fill="#66715f" opacity="0.74"/>
  <path d="M47,47h1v1h-1zM124,62h1v1h-1z" fill="#5a695a" opacity="0.07"/>
  <path d="M48,47h1v1h-1z" fill="#67705f" opacity="0.77"/>
  <path d="M24,48h1v1h-1z" fill="#606a5a" opacity="0.19"/>
  <path d="M33,48h1v1h-1z" fill="#657060" opacity="0.74"/>
  <path d="M78,48h1v1h-1z" fill="#636e5e" opacity="0.35"/>
  <path d="M34,49h1v1h-1z" fill="#667060" opacity="0.76"/>
  <path d="M35,50h1v1h-1z" fill="#667161" opacity="0.73"/>
  <path d="M78,50h1v1h-1zM37,52h1v1h-1z" fill="#67705f" opacity="0.75"/>
  <path d="M36,51h1v1h-1z" fill="#667060" opacity="0.75"/>
  <path d="M28,52h1v1h-1z" fill="#66715e" opacity="0.35"/>
  <path d="M48,52h1v1h-1z" fill="#677060" opacity="0.68"/>
  <path d="M55,52h1v1h-1z" fill="#68705f" opacity="0.46"/>
  <path d="M77,52h1v1h-1z" fill="#667161" opacity="0.60"/>
  <path d="M38,53h1v1h-1z" fill="#677160" opacity="0.74"/>
  <path d="M56,53h1v1h-1z" fill="#62695c" opacity="0.15"/>
  <path d="M39,54h1v1h-1z" fill="#667060" opacity="0.66"/>
  <path d="M75,54h1v1h-1z" fill="#636e5c" opacity="0.28"/>
  <path d="M30,55h1v1h-1zM67,57h1v1h-1z" fill="#556a55" opacity="0.05"/>
  <path d="M31,55h1v1h-1z" fill="#666f5f" opacity="0.62"/>
  <path d="M40,55h1v1h-1z" fill="#677061" opacity="0.63"/>
  <path d="M41,55h1v1h-1z" fill="#666659" opacity="0.08"/>
  <path d="M49,55h1v1h-1z" fill="#657160" opacity="0.71"/>
  <path d="M58,55h1v1h-1zM43,57h1v1h-1zM33,58h1v1h-1z" fill="#616d61" opacity="0.08"/>
  <path d="M41,56h1v1h-1zM42,57h1v1h-1z" fill="#667160" opacity="0.65"/>
  <path d="M42,56h1v1h-1zM50,58h1v1h-1zM76,59h1v1h-1zM75,60h1v1h-1z" fill="#66664d" opacity="0.04"/>
  <path d="M49,56h1v1h-1z" fill="#656a5a" opacity="0.19"/>
  <path d="M72,56h1v1h-1z" fill="#686e5d" opacity="0.17"/>
  <path d="M78,56h1v1h-1z" fill="#657160" opacity="0.35"/>
  <path d="M61,57h1v1h-1z" fill="#65705f" opacity="0.36"/>
  <path d="M62,57h1v1h-1z" fill="#666f5d" opacity="0.22"/>
  <path d="M68,57h1v1h-1z" fill="#687060" opacity="0.13"/>
  <path d="M70,57h1v1h-1z" fill="#67715f" opacity="0.38"/>
  <path d="M77,57h1v1h-1z" fill="#667060" opacity="0.44"/>
  <path d="M34,58h1v1h-1z" fill="#67715f" opacity="0.78"/>
  <path d="M51,58h1v1h-1z" fill="#676f5f" opacity="0.62"/>
  <path d="M63,58h1v1h-1z" fill="#677160" opacity="0.85"/>
  <path d="M65,58h1v1h-1z" fill="#667160" opacity="0.75"/>
  <path d="M67,58h1v1h-1z" fill="#65705f" opacity="0.82"/>
  <path d="M76,58h1v1h-1z" fill="#67705e" opacity="0.53"/>
  <path d="M34,59h1v1h-1z" fill="#667359" opacity="0.08"/>
  <path d="M35,59h1v1h-1z" fill="#65705f" opacity="0.79"/>
  <path d="M45,59h1v1h-1z" fill="#637163" opacity="0.07"/>
  <path d="M53,59h1v1h-1z" fill="#67705f" opacity="0.96"/>
  <path d="M35,60h1v1h-1z" fill="#626f62" opacity="0.15"/>
  <path d="M36,60h1v1h-1z" fill="#66705f" opacity="0.92"/>
  <path d="M45,60h1v1h-1z" fill="#65705f" opacity="0.63"/>
  <path d="M46,60h1v1h-1zM47,62h1v1h-1z" fill="#626262" opacity="0.05"/>
  <path d="M53,60h1v1h-1z" fill="#666d5c" opacity="0.29"/>
  <path d="M54,60h1v1h-1z" fill="#66705f" opacity="0.83"/>
  <path d="M73,60h1v1h-1z" fill="#677160" opacity="0.89"/>
  <path d="M37,61h1v1h-1z" fill="#667060" opacity="0.85"/>
  <path d="M46,61h1v1h-1z" fill="#666f5e" opacity="0.53"/>
  <path d="M55,61h1v1h-1z" fill="#64715e" opacity="0.48"/>
  <path d="M56,61h1v1h-1z" fill="#677060" opacity="0.80"/>
  <path d="M57,61h1v1h-1z" fill="#66715f" opacity="0.95"/>
  <path d="M73,61h1v1h-1z" fill="#636b63" opacity="0.12"/>
  <path d="M79,61h1v1h-1z" fill="#67715f" opacity="0.70"/>
  <path d="M0,62h1v1h-1zM1,62h1v1h-1zM2,62h1v1h-1zM3,62h1v1h-1zM4,62h1v1h-1zM5,62h1v1h-1zM6,62h1v1h-1zM38,62h1v1h-1zM39,62h1v1h-1zM40,62h1v1h-1zM41,62h1v1h-1zM42,62h1v1h-1zM43,62h1v1h-1zM44,62h1v1h-1zM45,62h1v1h-1zM80,62h1v1h-1zM81,62h1v1h-1zM82,62h1v1h-1zM83,62h1v1h-1zM84,62h1v1h-1zM95,62h1v1h-1zM96,62h1v1h-1zM97,62h1v1h-1zM98,62h1v1h-1zM99,62h1v1h-1zM126,62h1v1h-1zM127,62h1v1h-1zM128,62h1v1h-1zM129,62h1v1h-1zM130,62h1v1h-1zM131,62h1v1h-1zM144,62h1v1h-1zM145,62h1v1h-1zM146,62h1v1h-1zM147,62h1v1h-1zM148,62h1v1h-1z" fill="#667162" opacity="0.27"/>
  <path d="M37,62h1v1h-1z" fill="#666c60" opacity="0.16"/>
  <path d="M58,62h1v1h-1z" fill="#656f60" opacity="0.42"/>
  <path d="M60,62h1v1h-1z" fill="#68715f" opacity="0.86"/>
  <path d="M79,62h1v1h-1z" fill="#627262" opacity="0.18"/>
  <path d="M125,62h1v1h-1z" fill="#67725f" opacity="0.26"/>
  <path d="M150,62h1v1h-1z" fill="#63715c" opacity="0.14"/>
</svg>