<svg xmlns="http://www.w3.org/2000/svg" viewBox="0 0 160 160" width="100%" height="100%">
  <path d="M60,61h1v1h-1zM21,74h1v1h-1zM46,78h1v1h-1zM45,83h1v1h-1zM67,98h1v1h-1z" fill="#000000" opacity="0.67"/>
  <path d="M61,61h1v1h-1zM55,74h1v1h-1zM68,75h1v1h-1zM47,76h1v1h-1zM51,87h1v1h-1z" fill="#000000" opacity="0.83"/>
  <path d="M62,61h1v1h-1zM56,70h1v1h-1zM56,71h1v1h-1zM56,72h1v1h-1zM56,73h1v1h-1zM20,75h1v1h-1zM75,75h1v1h-1zM77,87h1v1h-1zM56,94h1v1h-1zM56,95h1v1h-1zM56,96h1v1h-1zM56,97h1v1h-1z" fill="#000000" opacity="0.16"/>
  <path d="M58,62h1v1h-1zM66,69h1v1h-1zM56,74h1v1h-1zM66,93h1v1h-1z" fill="#000000" opacity="0.06"/>
  <path d="M59,62h1v1h-1zM97,69h1v1h-1zM97,70h1v1h-1zM112,70h1v1h-1zM97,71h1v1h-1zM97,72h1v1h-1zM73,73h1v1h-1zM97,73h1v1h-1zM97,74h1v1h-1zM97,75h1v1h-1zM97,76h1v1h-1zM97,77h1v1h-1zM97,78h1v1h-1zM97,79h1v1h-1zM97,80h1v1h-1zM97,81h1v1h-1zM97,82h1v1h-1zM97,83h1v1h-1zM97,84h1v1h-1zM97,85h1v1h-1zM97,86h1v1h-1zM97,87h1v1h-1zM97,88h1v1h-1zM97,89h1v1h-1zM97,90h1v1h-1zM97,91h1v1h-1zM97,92h1v1h-1zM97,93h1v1h-1zM97,94h1v1h-1zM97,95h1v1h-1zM97,96h1v1h-1zM97,97h1v1h-1zM111,98h1v1h-1z" fill="#000000" opacity="0.82"/>
  <path d="M60,62h1v1h-1zM61,62h1v1h-1zM59,63h1v1h-1zM60,63h1v1h-1zM61,63h1v1h-1zM62,63h1v1h-1zM64,64h1v1h-1zM1,69h1v1h-1zM2,69h1v1h-1zM3,69h1v1h-1zM4,69h1v1h-1zM5,69h1v1h-1zM25,69h1v1h-1zM26,69h1v1h-1zM27,69h1v1h-1zM28,69h1v1h-1zM29,69h1v1h-1zM93,69h1v1h-1zM94,69h1v1h-1zM95,69h1v1h-1zM96,69h1v1h-1zM105,69h1v1h-1zM106,69h1v1h-1zM107,69h1v1h-1zM108,69h1v1h-1zM136,69h1v1h-1zM137,69h1v1h-1zM138,69h1v1h-1zM139,69h1v1h-1zM140,69h1v1h-1zM149,69h1v1h-1zM150,69h1v1h-1zM151,69h1v1h-1zM152,69h1v1h-1zM153,69h1v1h-1zM154,69h1v1h-1zM155,69h1v1h-1zM156,69h1v1h-1zM157,69h1v1h-1zM158,69h1v1h-1zM1,70h1v1h-1zM2,70h1v1h-1zM3,70h1v1h-1zM4,70h1v1h-1zM5,70h1v1h-1zM25,70h1v1h-1zM26,70h1v1h-1zM27,70h1v1h-1zM28,70h1v1h-1zM29,70h1v1h-1zM54,70h1v1h-1zM55,70h1v1h-1zM67,70h1v1h-1zM68,70h1v1h-1zM93,70h1v1h-1zM94,70h1v1h-1zM95,70h1v1h-1zM96,70h1v1h-1zM105,70h1v1h-1zM106,70h1v1h-1zM107,70h1v1h-1zM108,70h1v1h-1zM109,70h1v1h-1zM110,70h1v1h-1zM111,70h1v1h-1zM136,70h1v1h-1zM137,70h1v1h-1zM138,70h1v1h-1zM139,70h1v1h-1zM140,70h1v1h-1zM149,70h1v1h-1zM150,70h1v1h-1zM151,70h1v1h-1zM152,70h1v1h-1zM153,70h1v1h-1zM154,70h1v1h-1zM155,70h1v1h-1zM156,70h1v1h-1zM157,70h1v1h-1zM158,70h1v1h-1zM1,71h1v1h-1zM2,71h1v1h-1zM3,71h1v1h-1zM4,71h1v1h-1zM5,71h1v1h-1zM24,71h1v1h-1zM25,71h1v1h-1zM26,71h1v1h-1zM27,71h1v1h-1zM28,71h1v1h-1zM29,71h1v1h-1zM53,71h1v1h-1zM54,71h1v1h-1zM55,71h1v1h-1zM67,71h1v1h-1zM68,71h1v1h-1zM69,71h1v1h-1zM70,71h1v1h-1zM93,71h1v1h-1zM94,71h1v1h-1zM95,71h1v1h-1zM96,71h1v1h-1zM105,71h1v1h-1zM106,71h1v1h-1zM107,71h1v1h-1zM108,71h1v1h-1zM109,71h1v1h-1zM110,71h1v1h-1zM111,71h1v1h-1zM112,71h1v1h-1zM136,71h1v1h-1zM137,71h1v1h-1zM138,71h1v1h-1zM139,71h1v1h-1zM140,71h1v1h-1zM149,71h1v1h-1zM150,71h1v1h-1zM151,71h1v1h-1zM152,71h1v1h-1zM153,71h1v1h-1zM154,71h1v1h-1zM155,71h1v1h-1zM156,71h1v1h-1zM157,71h1v1h-1zM158,71h1v1h-1zM1,72h1v1h-1zM2,72h1v1h-1zM3,72h1v1h-1zM4,72h1v1h-1zM5,72h1v1h-1zM23,72h1v1h-1zM24,72h1v1h-1zM25,72h1v1h-1zM26,72h1v1h-1zM27,72h1v1h-1zM28,72h1v1h-1zM29,72h1v1h-1zM51,72h1v1h-1zM52,72h1v1h-1zM53,72h1v1h-1zM54,72h1v1h-1zM55,72h1v1h-1zM67,72h1v1h-1zM68,72h1v1h-1zM69,72h1v1h-1zM70,72h1v1h-1zM71,72h1v1h-1zM93,72h1v1h-1zM94,72h1v1h-1zM95,72h1v1h-1zM96,72h1v1h-1zM105,72h1v1h-1zM106,72h1v1h-1zM107,72h1v1h-1zM108,72h1v1h-1zM109,72h1v1h-1zM110,72h1v1h-1zM111,72h1v1h-1zM112,72h1v1h-1zM113,72h1v1h-1zM136,72h1v1h-1zM137,72h1v1h-1zM138,72h1v1h-1zM139,72h1v1h-1zM140,72h1v1h-1zM149,72h1v1h-1zM150,72h1v1h-1zM151,72h1v1h-1zM152,72h1v1h-1zM153,72h1v1h-1zM154,72h1v1h-1zM155,72h1v1h-1zM156,72h1v1h-1zM157,72h1v1h-1zM158,72h1v1h-1zM1,73h1v1h-1zM2,73h1v1h-1zM3,73h1v1h-1zM4,73h1v1h-1zM5,73h1v1h-1zM23,73h1v1h-1zM24,73h1v1h-1zM25,73h1v1h-1zM26,73h1v1h-1zM27,73h1v1h-1zM28,73h1v1h-1zM29,73h1v1h-1zM50,73h1v1h-1zM51,73h1v1h-1zM52,73h1v1h-1zM53,73h1v1h-1zM54,73h1v1h-1zM55,73h1v1h-1zM67,73h1v1h-1zM68,73h1v1h-1zM69,73h1v1h-1zM70,73h1v1h-1zM71,73h1v1h-1zM72,73h1v1h-1zM93,73h1v1h-1zM94,73h1v1h-1zM95,73h1v1h-1zM96,73h1v1h-1zM109,73h1v1h-1zM110,73h1v1h-1zM111,73h1v1h-1zM112,73h1v1h-1zM113,73h1v1h-1zM114,73h1v1h-1zM136,73h1v1h-1zM137,73h1v1h-1zM138,73h1v1h-1zM139,73h1v1h-1zM140,73h1v1h-1zM1,74h1v1h-1zM2,74h1v1h-1zM3,74h1v1h-1zM4,74h1v1h-1zM5,74h1v1h-1zM22,74h1v1h-1zM23,74h1v1h-1zM24,74h1v1h-1zM25,74h1v1h-1zM26,74h1v1h-1zM27,74h1v1h-1zM28,74h1v1h-1zM29,74h1v1h-1zM49,74h1v1h-1zM50,74h1v1h-1zM51,74h1v1h-1zM52,74h1v1h-1zM53,74h1v1h-1zM54,74h1v1h-1zM68,74h1v1h-1zM69,74h1v1h-1zM70,74h1v1h-1zM71,74h1v1h-1zM72,74h1v1h-1zM73,74h1v1h-1zM93,74h1v1h-1zM94,74h1v1h-1zM95,74h1v1h-1zM96,74h1v1h-1zM111,74h1v1h-1zM112,74h1v1h-1zM113,74h1v1h-1zM114,74h1v1h-1zM115,74h1v1h-1zM136,74h1v1h-1zM137,74h1v1h-1zM138,74h1v1h-1zM139,74h1v1h-1zM140,74h1v1h-1zM1,75h1v1h-1zM2,75h1v1h-1zM3,75h1v1h-1zM4,75h1v1h-1zM5,75h1v1h-1zM22,75h1v1h-1zM23,75h1v1h-1zM24,75h1v1h-1zM25,75h1v1h-1zM26,75h1v1h-1zM27,75h1v1h-1zM28,75h1v1h-1zM29,75h1v1h-1zM48,75h1v1h-1zM49,75h1v1h-1zM50,75h1v1h-1zM51,75h1v1h-1zM52,75h1v1h-1zM53,75h1v1h-1zM69,75h1v1h-1zM70,75h1v1h-1zM71,75h1v1h-1zM72,75h1v1h-1zM73,75h1v1h-1zM93,75h1v1h-1zM94,75h1v1h-1zM95,75h1v1h-1zM96,75h1v1h-1zM111,75h1v1h-1zM112,75h1v1h-1zM113,75h1v1h-1zM114,75h1v1h-1zM115,75h1v1h-1zM136,75h1v1h-1zM137,75h1v1h-1zM138,75h1v1h-1zM139,75h1v1h-1zM140,75h1v1h-1zM1,76h1v1h-1zM2,76h1v1h-1zM3,76h1v1h-1zM4,76h1v1h-1zM5,76h1v1h-1zM21,76h1v1h-1zM22,76h1v1h-1zM23,76h1v1h-1zM24,76h1v1h-1zM25,76h1v1h-1zM26,76h1v1h-1zM27,76h1v1h-1zM28,76h1v1h-1zM29,76h1v1h-1zM48,76h1v1h-1zM49,76h1v1h-1zM50,76h1v1h-1zM51,76h1v1h-1zM52,76h1v1h-1zM70,76h1v1h-1zM71,76h1v1h-1zM72,76h1v1h-1zM73,76h1v1h-1zM74,76h1v1h-1zM93,76h1v1h-1zM94,76h1v1h-1zM95,76h1v1h-1zM96,76h1v1h-1zM112,76h1v1h-1zM113,76h1v1h-1zM114,76h1v1h-1zM115,76h1v1h-1zM116,76h1v1h-1zM136,76h1v1h-1zM137,76h1v1h-1zM138,76h1v1h-1zM139,76h1v1h-1zM140,76h1v1h-1zM1,77h1v1h-1zM2,77h1v1h-1zM3,77h1v1h-1zM4,77h1v1h-1zM5,77h1v1h-1zM20,77h1v1h-1zM21,77h1v1h-1zM22,77h1v1h-1zM23,77h1v1h-1zM24,77h1v1h-1zM26,77h1v1h-1zM27,77h1v1h-1zM28,77h1v1h-1zM29,77h1v1h-1zM47,77h1v1h-1zM48,77h1v1h-1zM49,77h1v1h-1zM50,77h1v1h-1zM51,77h1v1h-1zM71,77h1v1h-1zM72,77h1v1h-1zM73,77h1v1h-1zM74,77h1v1h-1zM75,77h1v1h-1zM93,77h1v1h-1zM94,77h1v1h-1zM95,77h1v1h-1zM96,77h1v1h-1zM112,77h1v1h-1zM113,77h1v1h-1zM114,77h1v1h-1zM115,77h1v1h-1zM116,77h1v1h-1zM136,77h1v1h-1zM137,77h1v1h-1zM138,77h1v1h-1zM139,77h1v1h-1zM140,77h1v1h-1zM1,78h1v1h-1zM2,78h1v1h-1zM3,78h1v1h-1zM4,78h1v1h-1zM5,78h1v1h-1zM19,78h1v1h-1zM20,78h1v1h-1zM21,78h1v1h-1zM22,78h1v1h-1zM23,78h1v1h-1zM26,78h1v1h-1zM27,78h1v1h-1zM28,78h1v1h-1zM29,78h1v1h-1zM47,78h1v1h-1zM48,78h1v1h-1zM49,78h1v1h-1zM50,78h1v1h-1zM51,78h1v1h-1zM71,78h1v1h-1zM72,78h1v1h-1zM73,78h1v1h-1zM74,78h1v1h-1zM75,78h1v1h-1zM93,78h1v1h-1zM94,78h1v1h-1zM95,78h1v1h-1zM96,78h1v1h-1zM112,78h1v1h-1zM113,78h1v1h-1zM114,78h1v1h-1zM115,78h1v1h-1zM116,78h1v1h-1zM136,78h1v1h-1zM137,78h1v1h-1zM138,78h1v1h-1zM139,78h1v1h-1zM140,78h1v1h-1zM1,79h1v1h-1zM2,79h1v1h-1zM3,79h1v1h-1zM4,79h1v1h-1zM5,79h1v1h-1zM19,79h1v1h-1zM20,79h1v1h-1zM21,79h1v1h-1zM22,79h1v1h-1zM26,79h1v1h-1zM27,79h1v1h-1zM28,79h1v1h-1zM29,79h1v1h-1zM47,79h1v1h-1zM48,79h1v1h-1zM49,79h1v1h-1zM50,79h1v1h-1zM72,79h1v1h-1zM73,79h1v1h-1zM74,79h1v1h-1zM75,79h1v1h-1zM76,79h1v1h-1zM93,79h1v1h-1zM94,79h1v1h-1zM95,79h1v1h-1zM96,79h1v1h-1zM112,79h1v1h-1zM113,79h1v1h-1zM114,79h1v1h-1zM115,79h1v1h-1zM116,79h1v1h-1zM136,79h1v1h-1zM137,79h1v1h-1zM138,79h1v1h-1zM139,79h1v1h-1zM140,79h1v1h-1zM1,80h1v1h-1zM2,80h1v1h-1zM3,80h1v1h-1zM4,80h1v1h-1zM5,80h1v1h-1zM18,80h1v1h-1zM19,80h1v1h-1zM20,80h1v1h-1zM21,80h1v1h-1zM22,80h1v1h-1zM26,80h1v1h-1zM27,80h1v1h-1zM28,80h1v1h-1zM29,80h1v1h-1zM46,80h1v1h-1zM47,80h1v1h-1zM48,80h1v1h-1zM49,80h1v1h-1zM50,80h1v1h-1zM72,80h1v1h-1zM73,80h1v1h-1zM74,80h1v1h-1zM75,80h1v1h-1zM76,80h1v1h-1zM93,80h1v1h-1zM94,80h1v1h-1zM95,80h1v1h-1zM96,80h1v1h-1zM112,80h1v1h-1zM113,80h1v1h-1zM114,80h1v1h-1zM115,80h1v1h-1zM136,80h1v1h-1zM137,80h1v1h-1zM138,80h1v1h-1zM139,80h1v1h-1zM140,80h1v1h-1zM1,81h1v1h-1zM2,81h1v1h-1zM3,81h1v1h-1zM4,81h1v1h-1zM5,81h1v1h-1zM18,81h1v1h-1zM19,81h1v1h-1zM20,81h1v1h-1zM21,81h1v1h-1zM26,81h1v1h-1zM27,81h1v1h-1zM28,81h1v1h-1zM29,81h1v1h-1zM46,81h1v1h-1zM47,81h1v1h-1zM48,81h1v1h-1zM49,81h1v1h-1zM50,81h1v1h-1zM72,81h1v1h-1zM73,81h1v1h-1zM74,81h1v1h-1zM75,81h1v1h-1zM76,81h1v1h-1zM93,81h1v1h-1zM94,81h1v1h-1zM95,81h1v1h-1zM96,81h1v1h-1zM111,81h1v1h-1zM112,81h1v1h-1zM113,81h1v1h-1zM114,81h1v1h-1zM115,81h1v1h-1zM136,81h1v1h-1zM137,81h1v1h-1zM138,81h1v1h-1zM139,81h1v1h-1zM140,81h1v1h-1zM1,82h1v1h-1zM2,82h1v1h-1zM3,82h1v1h-1zM4,82h1v1h-1zM5,82h1v1h-1zM17,82h1v1h-1zM18,82h1v1h-1zM19,82h1v1h-1zM20,82h1v1h-1zM26,82h1v1h-1zM27,82h1v1h-1zM28,82h1v1h-1zM29,82h1v1h-1zM46,82h1v1h-1zM47,82h1v1h-1zM48,82h1v1h-1zM49,82h1v1h-1zM72,82h1v1h-1zM73,82h1v1h-1zM74,82h1v1h-1zM75,82h1v1h-1zM76,82h1v1h-1zM93,82h1v1h-1zM94,82h1v1h-1zM95,82h1v1h-1zM96,82h1v1h-1zM111,82h1v1h-1zM112,82h1v1h-1zM113,82h1v1h-1zM114,82h1v1h-1zM115,82h1v1h-1zM136,82h1v1h-1zM137,82h1v1h-1zM138,82h1v1h-1zM139,82h1v1h-1zM140,82h1v1h-1zM149,82h1v1h-1zM150,82h1v1h-1zM151,82h1v1h-1zM152,82h1v1h-1zM153,82h1v1h-1zM154,82h1v1h-1zM155,82h1v1h-1zM156,82h1v1h-1zM1,83h1v1h-1zM2,83h1v1h-1zM3,83h1v1h-1zM4,83h1v1h-1zM5,83h1v1h-1zM17,83h1v1h-1zM18,83h1v1h-1zM19,83h1v1h-1zM20,83h1v1h-1zM26,83h1v1h-1zM27,83h1v1h-1zM28,83h1v1h-1zM29,83h1v1h-1zM46,83h1v1h-1zM47,83h1v1h-1zM48,83h1v1h-1zM49,83h1v1h-1zM72,83h1v1h-1zM73,83h1v1h-1zM74,83h1v1h-1zM75,83h1v1h-1zM76,83h1v1h-1zM93,83h1v1h-1zM94,83h1v1h-1zM95,83h1v1h-1zM96,83h1v1h-1zM109,83h1v1h-1zM110,83h1v1h-1zM111,83h1v1h-1zM112,83h1v1h-1zM113,83h1v1h-1zM114,83h1v1h-1zM136,83h1v1h-1zM137,83h1v1h-1zM138,83h1v1h-1zM139,83h1v1h-1zM140,83h1v1h-1zM149,83h1v1h-1zM150,83h1v1h-1zM151,83h1v1h-1zM152,83h1v1h-1zM153,83h1v1h-1zM154,83h1v1h-1zM155,83h1v1h-1zM156,83h1v1h-1zM1,84h1v1h-1zM2,84h1v1h-1zM3,84h1v1h-1zM4,84h1v1h-1zM5,84h1v1h-1zM17,84h1v1h-1zM18,84h1v1h-1zM19,84h1v1h-1zM26,84h1v1h-1zM27,84h1v1h-1zM28,84h1v1h-1zM29,84h1v1h-1zM46,84h1v1h-1zM47,84h1v1h-1zM48,84h1v1h-1zM49,84h1v1h-1zM72,84h1v1h-1zM73,84h1v1h-1zM74,84h1v1h-1zM75,84h1v1h-1zM76,84h1v1h-1zM93,84h1v1h-1zM94,84h1v1h-1zM95,84h1v1h-1zM96,84h1v1h-1zM106,84h1v1h-1zM107,84h1v1h-1zM108,84h1v1h-1zM109,84h1v1h-1zM110,84h1v1h-1zM111,84h1v1h-1zM112,84h1v1h-1zM113,84h1v1h-1zM136,84h1v1h-1zM137,84h1v1h-1zM138,84h1v1h-1zM139,84h1v1h-1zM140,84h1v1h-1zM149,84h1v1h-1zM150,84h1v1h-1zM151,84h1v1h-1zM152,84h1v1h-1zM153,84h1v1h-1zM154,84h1v1h-1zM155,84h1v1h-1zM156,84h1v1h-1zM1,85h1v1h-1zM2,85h1v1h-1zM3,85h1v1h-1zM4,85h1v1h-1zM5,85h1v1h-1zM17,85h1v1h-1zM18,85h1v1h-1zM26,85h1v1h-1zM27,85h1v1h-1zM28,85h1v1h-1zM29,85h1v1h-1zM46,85h1v1h-1zM47,85h1v1h-1zM48,85h1v1h-1zM49,85h1v1h-1zM72,85h1v1h-1zM73,85h1v1h-1zM74,85h1v1h-1zM75,85h1v1h-1zM76,85h1v1h-1zM93,85h1v1h-1zM94,85h1v1h-1zM95,85h1v1h-1zM96,85h1v1h-1zM105,85h1v1h-1zM106,85h1v1h-1zM107,85h1v1h-1zM108,85h1v1h-1zM109,85h1v1h-1zM110,85h1v1h-1zM111,85h1v1h-1zM112,85h1v1h-1zM136,85h1v1h-1zM137,85h1v1h-1zM138,85h1v1h-1zM139,85h1v1h-1zM140,85h1v1h-1zM149,85h1v1h-1zM150,85h1v1h-1zM151,85h1v1h-1zM152,85h1v1h-1zM153,85h1v1h-1zM154,85h1v1h-1zM155,85h1v1h-1zM156,85h1v1h-1zM1,86h1v1h-1zM2,86h1v1h-1zM3,86h1v1h-1zM4,86h1v1h-1zM5,86h1v1h-1zM17,86h1v1h-1zM26,86h1v1h-1zM27,86h1v1h-1zM28,86h1v1h-1zM29,86h1v1h-1zM46,86h1v1h-1zM47,86h1v1h-1zM48,86h1v1h-1zM49,86h1v1h-1zM50,86h1v1h-1zM72,86h1v1h-1zM73,86h1v1h-1zM74,86h1v1h-1zM75,86h1v1h-1zM76,86h1v1h-1zM93,86h1v1h-1zM94,86h1v1h-1zM95,86h1v1h-1zM96,86h1v1h-1zM105,86h1v1h-1zM106,86h1v1h-1zM107,86h1v1h-1zM108,86h1v1h-1zM109,86h1v1h-1zM110,86h1v1h-1zM136,86h1v1h-1zM137,86h1v1h-1zM138,86h1v1h-1zM139,86h1v1h-1zM140,86h1v1h-1zM1,87h1v1h-1zM2,87h1v1h-1zM3,87h1v1h-1zM4,87h1v1h-1zM5,87h1v1h-1zM17,87h1v1h-1zM26,87h1v1h-1zM27,87h1v1h-1zM28,87h1v1h-1zM29,87h1v1h-1zM46,87h1v1h-1zM47,87h1v1h-1zM48,87h1v1h-1zM49,87h1v1h-1zM50,87h1v1h-1zM72,87h1v1h-1zM73,87h1v1h-1zM74,87h1v1h-1zM75,87h1v1h-1zM76,87h1v1h-1zM93,87h1v1h-1zM94,87h1v1h-1zM95,87h1v1h-1zM96,87h1v1h-1zM105,87h1v1h-1zM106,87h1v1h-1zM107,87h1v1h-1zM108,87h1v1h-1zM136,87h1v1h-1zM137,87h1v1h-1zM138,87h1v1h-1zM139,87h1v1h-1zM140,87h1v1h-1zM1,88h1v1h-1zM2,88h1v1h-1zM3,88h1v1h-1zM4,88h1v1h-1zM5,88h1v1h-1zM26,88h1v1h-1zM27,88h1v1h-1zM28,88h1v1h-1zM29,88h1v1h-1zM47,88h1v1h-1zM48,88h1v1h-1zM49,88h1v1h-1zM50,88h1v1h-1zM51,88h1v1h-1zM72,88h1v1h-1zM73,88h1v1h-1zM74,88h1v1h-1zM75,88h1v1h-1zM93,88h1v1h-1zM94,88h1v1h-1zM95,88h1v1h-1zM96,88h1v1h-1zM105,88h1v1h-1zM106,88h1v1h-1zM107,88h1v1h-1zM108,88h1v1h-1zM109,88h1v1h-1zM136,88h1v1h-1zM137,88h1v1h-1zM138,88h1v1h-1zM139,88h1v1h-1zM140,88h1v1h-1zM1,89h1v1h-1zM2,89h1v1h-1zM3,89h1v1h-1zM4,89h1v1h-1zM5,89h1v1h-1zM26,89h1v1h-1zM27,89h1v1h-1zM28,89h1v1h-1zM29,89h1v1h-1zM47,89h1v1h-1zM48,89h1v1h-1zM49,89h1v1h-1zM50,89h1v1h-1zM51,89h1v1h-1zM71,89h1v1h-1zM72,89h1v1h-1zM73,89h1v1h-1zM74,89h1v1h-1zM75,89h1v1h-1zM93,89h1v1h-1zM94,89h1v1h-1zM95,89h1v1h-1zM96,89h1v1h-1zM106,89h1v1h-1zM107,89h1v1h-1zM108,89h1v1h-1zM109,89h1v1h-1zM136,89h1v1h-1zM137,89h1v1h-1zM138,89h1v1h-1zM139,89h1v1h-1zM140,89h1v1h-1zM1,90h1v1h-1zM2,90h1v1h-1zM3,90h1v1h-1zM4,90h1v1h-1zM5,90h1v1h-1zM26,90h1v1h-1zM27,90h1v1h-1zM28,90h1v1h-1zM29,90h1v1h-1zM48,90h1v1h-1zM49,90h1v1h-1zM50,90h1v1h-1zM51,90h1v1h-1zM52,90h1v1h-1zM71,90h1v1h-1zM72,90h1v1h-1zM73,90h1v1h-1zM74,90h1v1h-1zM75,90h1v1h-1zM93,90h1v1h-1zM94,90h1v1h-1zM95,90h1v1h-1zM96,90h1v1h-1zM106,90h1v1h-1zM107,90h1v1h-1zM108,90h1v1h-1zM109,90h1v1h-1zM110,90h1v1h-1zM136,90h1v1h-1zM137,90h1v1h-1zM138,90h1v1h-1zM139,90h1v1h-1zM140,90h1v1h-1zM1,91h1v1h-1zM2,91h1v1h-1zM3,91h1v1h-1zM4,91h1v1h-1zM5,91h1v1h-1zM26,91h1v1h-1zM27,91h1v1h-1zM28,91h1v1h-1zM29,91h1v1h-1zM48,91h1v1h-1zM49,91h1v1h-1zM50,91h1v1h-1zM51,91h1v1h-1zM52,91h1v1h-1zM70,91h1v1h-1zM71,91h1v1h-1zM72,91h1v1h-1zM73,91h1v1h-1zM74,91h1v1h-1zM93,91h1v1h-1zM94,91h1v1h-1zM95,91h1v1h-1zM96,91h1v1h-1zM107,91h1v1h-1zM108,91h1v1h-1zM109,91h1v1h-1zM110,91h1v1h-1zM111,91h1v1h-1zM136,91h1v1h-1zM137,91h1v1h-1zM138,91h1v1h-1zM139,91h1v1h-1zM140,91h1v1h-1zM1,92h1v1h-1zM2,92h1v1h-1zM3,92h1v1h-1zM4,92h1v1h-1zM5,92h1v1h-1zM26,92h1v1h-1zM27,92h1v1h-1zM28,92h1v1h-1zM29,92h1v1h-1zM49,92h1v1h-1zM50,92h1v1h-1zM51,92h1v1h-1zM52,92h1v1h-1zM53,92h1v1h-1zM69,92h1v1h-1zM70,92h1v1h-1zM71,92h1v1h-1zM72,92h1v1h-1zM73,92h1v1h-1zM93,92h1v1h-1zM94,92h1v1h-1zM95,92h1v1h-1zM96,92h1v1h-1zM107,92h1v1h-1zM108,92h1v1h-1zM109,92h1v1h-1zM110,92h1v1h-1zM111,92h1v1h-1zM136,92h1v1h-1zM137,92h1v1h-1zM138,92h1v1h-1zM139,92h1v1h-1zM140,92h1v1h-1zM1,93h1v1h-1zM2,93h1v1h-1zM3,93h1v1h-1zM4,93h1v1h-1zM5,93h1v1h-1zM26,93h1v1h-1zM27,93h1v1h-1zM28,93h1v1h-1zM29,93h1v1h-1zM49,93h1v1h-1zM50,93h1v1h-1zM51,93h1v1h-1zM52,93h1v1h-1zM53,93h1v1h-1zM54,93h1v1h-1zM68,93h1v1h-1zM69,93h1v1h-1zM70,93h1v1h-1zM71,93h1v1h-1zM72,93h1v1h-1zM73,93h1v1h-1zM93,93h1v1h-1zM94,93h1v1h-1zM95,93h1v1h-1zM96,93h1v1h-1zM109,93h1v1h-1zM110,93h1v1h-1zM111,93h1v1h-1zM112,93h1v1h-1zM136,93h1v1h-1zM137,93h1v1h-1zM138,93h1v1h-1zM139,93h1v1h-1zM140,93h1v1h-1zM1,94h1v1h-1zM2,94h1v1h-1zM3,94h1v1h-1zM4,94h1v1h-1zM5,94h1v1h-1zM26,94h1v1h-1zM27,94h1v1h-1zM28,94h1v1h-1zM29,94h1v1h-1zM50,94h1v1h-1zM51,94h1v1h-1zM52,94h1v1h-1zM53,94h1v1h-1zM54,94h1v1h-1zM55,94h1v1h-1zM67,94h1v1h-1zM68,94h1v1h-1zM69,94h1v1h-1zM70,94h1v1h-1zM71,94h1v1h-1zM72,94h1v1h-1zM93,94h1v1h-1zM94,94h1v1h-1zM95,94h1v1h-1zM96,94h1v1h-1zM109,94h1v1h-1zM110,94h1v1h-1zM111,94h1v1h-1zM112,94h1v1h-1zM113,94h1v1h-1zM136,94h1v1h-1zM137,94h1v1h-1zM138,94h1v1h-1zM139,94h1v1h-1zM140,94h1v1h-1zM1,95h1v1h-1zM2,95h1v1h-1zM3,95h1v1h-1zM4,95h1v1h-1zM5,95h1v1h-1zM26,95h1v1h-1zM27,95h1v1h-1zM28,95h1v1h-1zM29,95h1v1h-1zM51,95h1v1h-1zM52,95h1v1h-1zM53,95h1v1h-1zM54,95h1v1h-1zM55,95h1v1h-1zM67,95h1v1h-1zM68,95h1v1h-1zM69,95h1v1h-1zM70,95h1v1h-1zM93,95h1v1h-1zM94,95h1v1h-1zM95,95h1v1h-1zM96,95h1v1h-1zM110,95h1v1h-1zM111,95h1v1h-1zM112,95h1v1h-1zM113,95h1v1h-1zM136,95h1v1h-1zM137,95h1v1h-1zM138,95h1v1h-1zM139,95h1v1h-1zM140,95h1v1h-1zM1,96h1v1h-1zM2,96h1v1h-1zM3,96h1v1h-1zM4,96h1v1h-1zM5,96h1v1h-1zM26,96h1v1h-1zM27,96h1v1h-1zM28,96h1v1h-1zM29,96h1v1h-1zM53,96h1v1h-1zM54,96h1v1h-1zM55,96h1v1h-1zM67,96h1v1h-1zM68,96h1v1h-1zM69,96h1v1h-1zM93,96h1v1h-1zM94,96h1v1h-1zM95,96h1v1h-1zM96,96h1v1h-1zM111,96h1v1h-1zM112,96h1v1h-1zM113,96h1v1h-1zM114,96h1v1h-1zM115,96h1v1h-1zM136,96h1v1h-1zM137,96h1v1h-1zM138,96h1v1h-1zM139,96h1v1h-1zM140,96h1v1h-1zM1,97h1v1h-1zM2,97h1v1h-1zM3,97h1v1h-1zM4,97h1v1h-1zM5,97h1v1h-1zM26,97h1v1h-1zM27,97h1v1h-1zM28,97h1v1h-1zM29,97h1v1h-1zM55,97h1v1h-1zM67,97h1v1h-1zM93,97h1v1h-1zM94,97h1v1h-1zM95,97h1v1h-1zM96,97h1v1h-1zM111,97h1v1h-1zM112,97h1v1h-1zM113,97h1v1h-1zM114,97h1v1h-1zM115,97h1v1h-1zM136,97h1v1h-1zM137,97h1v1h-1zM138,97h1v1h-1zM139,97h1v1h-1zM140,97h1v1h-1z" fill="#000000" opacity="1.00"/>
  <path d="M62,62h1v1h-1zM24,70h1v1h-1zM108,73h1v1h-1zM52,77h1v1h-1zM23,79h1v1h-1zM70,96h1v1h-1z" fill="#000000" opacity="0.93"/>
  <path d="M63,62h1v1h-1zM22,72h1v1h-1zM46,77h1v1h-1zM25,79h1v1h-1zM25,80h1v1h-1zM25,81h1v1h-1zM25,82h1v1h-1zM25,83h1v1h-1zM25,84h1v1h-1zM25,85h1v1h-1zM25,86h1v1h-1zM25,87h1v1h-1zM25,88h1v1h-1zM25,89h1v1h-1zM25,90h1v1h-1zM25,91h1v1h-1zM25,92h1v1h-1zM25,93h1v1h-1zM107,93h1v1h-1zM25,94h1v1h-1zM25,95h1v1h-1zM25,96h1v1h-1zM25,97h1v1h-1zM25,98h1v1h-1z" fill="#000000" opacity="0.33"/>
  <path d="M57,63h1v1h-1zM67,66h1v1h-1zM0,69h1v1h-1zM141,69h1v1h-1zM0,70h1v1h-1zM141,70h1v1h-1zM0,71h1v1h-1zM141,71h1v1h-1zM0,72h1v1h-1zM141,72h1v1h-1zM0,73h1v1h-1zM141,73h1v1h-1zM0,74h1v1h-1zM141,74h1v1h-1zM0,75h1v1h-1zM141,75h1v1h-1zM0,76h1v1h-1zM141,76h1v1h-1zM0,77h1v1h-1zM76,77h1v1h-1zM141,77h1v1h-1zM0,78h1v1h-1zM141,78h1v1h-1zM0,79h1v1h-1zM141,79h1v1h-1zM0,80h1v1h-1zM45,80h1v1h-1zM141,80h1v1h-1zM0,81h1v1h-1zM141,81h1v1h-1zM0,82h1v1h-1zM141,82h1v1h-1zM0,83h1v1h-1zM141,83h1v1h-1zM0,84h1v1h-1zM141,84h1v1h-1zM0,85h1v1h-1zM141,85h1v1h-1zM0,86h1v1h-1zM141,86h1v1h-1zM0,87h1v1h-1zM141,87h1v1h-1zM0,88h1v1h-1zM141,88h1v1h-1zM0,89h1v1h-1zM141,89h1v1h-1zM0,90h1v1h-1zM46,90h1v1h-1zM141,90h1v1h-1zM0,91h1v1h-1zM141,91h1v1h-1zM0,92h1v1h-1zM141,92h1v1h-1zM0,93h1v1h-1zM141,93h1v1h-1zM0,94h1v1h-1zM141,94h1v1h-1zM0,95h1v1h-1zM141,95h1v1h-1zM0,96h1v1h-1zM141,96h1v1h-1zM0,97h1v1h-1zM141,97h1v1h-1zM0,98h1v1h-1zM141,98h1v1h-1z" fill="#000000" opacity="0.22"/>
  <path d="M58,63h1v1h-1zM60,64h1v1h-1zM55,69h1v1h-1zM53,70h1v1h-1zM69,91h1v1h-1zM109,95h1v1h-1z" fill="#000000" opacity="0.89"/>
  <path d="M63,63h1v1h-1zM52,71h1v1h-1zM74,75h1v1h-1zM110,82h1v1h-1zM108,83h1v1h-1zM105,84h1v1h-1zM19,85h1v1h-1zM50,85h1v1h-1zM18,86h1v1h-1zM47,90h1v1h-1zM48,92h1v1h-1zM108,93h1v1h-1zM114,95h1v1h-1zM1,98h1v1h-1zM2,98h1v1h-1zM3,98h1v1h-1zM4,98h1v1h-1zM5,98h1v1h-1zM26,98h1v1h-1zM27,98h1v1h-1zM28,98h1v1h-1zM29,98h1v1h-1zM93,98h1v1h-1zM94,98h1v1h-1zM95,98h1v1h-1zM96,98h1v1h-1zM112,98h1v1h-1zM113,98h1v1h-1zM114,98h1v1h-1zM115,98h1v1h-1zM116,98h1v1h-1zM136,98h1v1h-1zM137,98h1v1h-1zM138,98h1v1h-1zM139,98h1v1h-1zM140,98h1v1h-1z" fill="#000000" opacity="0.99"/>
  <path d="M64,63h1v1h-1zM111,77h1v1h-1zM111,79h1v1h-1z" fill="#000000" opacity="0.53"/>
  <path d="M56,64h1v1h-1zM64,65h1v1h-1zM74,93h1v1h-1z" fill="#000000" opacity="0.36"/>
  <path d="M57,64h1v1h-1zM30,69h1v1h-1zM30,70h1v1h-1zM30,71h1v1h-1zM113,71h1v1h-1zM30,72h1v1h-1zM30,73h1v1h-1zM115,73h1v1h-1zM30,74h1v1h-1zM30,75h1v1h-1zM30,76h1v1h-1zM75,76h1v1h-1zM30,77h1v1h-1zM30,78h1v1h-1zM30,79h1v1h-1zM30,80h1v1h-1zM30,81h1v1h-1zM21,82h1v1h-1zM30,82h1v1h-1zM30,83h1v1h-1zM50,83h1v1h-1zM30,84h1v1h-1zM50,84h1v1h-1zM30,85h1v1h-1zM30,86h1v1h-1zM30,87h1v1h-1zM30,88h1v1h-1zM30,89h1v1h-1zM110,89h1v1h-1zM30,90h1v1h-1zM30,91h1v1h-1zM30,92h1v1h-1zM30,93h1v1h-1zM30,94h1v1h-1zM30,95h1v1h-1zM30,96h1v1h-1zM30,97h1v1h-1z" fill="#000000" opacity="0.96"/>
  <path d="M58,64h1v1h-1zM114,72h1v1h-1zM110,74h1v1h-1zM21,75h1v1h-1zM17,81h1v1h-1zM76,88h1v1h-1zM105,89h1v1h-1zM53,91h1v1h-1zM112,92h1v1h-1zM71,95h1v1h-1zM110,96h1v1h-1zM54,97h1v1h-1zM68,97h1v1h-1z" fill="#000000" opacity="0.98"/>
  <path d="M59,64h1v1h-1zM109,69h1v1h-1zM109,87h1v1h-1zM71,88h1v1h-1z" fill="#000000" opacity="0.94"/>
  <path d="M61,64h1v1h-1zM46,88h1v1h-1z" fill="#000000" opacity="0.87"/>
  <path d="M62,64h1v1h-1zM92,69h1v1h-1zM148,69h1v1h-1zM69,70h1v1h-1zM92,70h1v1h-1zM148,70h1v1h-1zM92,71h1v1h-1zM148,71h1v1h-1zM92,72h1v1h-1zM148,72h1v1h-1zM92,73h1v1h-1zM67,74h1v1h-1zM92,74h1v1h-1zM92,75h1v1h-1zM92,76h1v1h-1zM92,77h1v1h-1zM92,78h1v1h-1zM92,79h1v1h-1zM92,80h1v1h-1zM92,81h1v1h-1zM92,82h1v1h-1zM148,82h1v1h-1zM92,83h1v1h-1zM148,83h1v1h-1zM92,84h1v1h-1zM148,84h1v1h-1zM92,85h1v1h-1zM148,85h1v1h-1zM92,86h1v1h-1zM111,86h1v1h-1zM92,87h1v1h-1zM92,88h1v1h-1zM92,89h1v1h-1zM92,90h1v1h-1zM92,91h1v1h-1zM68,92h1v1h-1zM92,92h1v1h-1zM92,93h1v1h-1zM92,94h1v1h-1zM92,95h1v1h-1zM92,96h1v1h-1zM92,97h1v1h-1z" fill="#000000" opacity="0.91"/>
  <path d="M63,64h1v1h-1zM51,79h1v1h-1zM50,82h1v1h-1zM70,90h1v1h-1zM55,93h1v1h-1zM67,93h1v1h-1zM52,96h1v1h-1z" fill="#000000" opacity="0.97"/>
  <path d="M65,64h1v1h-1zM71,71h1v1h-1zM55,98h1v1h-1z" fill="#000000" opacity="0.70"/>
  <path d="M66,64h1v1h-1zM117,77h1v1h-1zM117,78h1v1h-1zM77,79h1v1h-1zM76,90h1v1h-1zM67,92h1v1h-1zM70,97h1v1h-1z" fill="#000000" opacity="0.09"/>
  <path d="M55,65h1v1h-1zM148,68h1v1h-1zM111,78h1v1h-1zM77,82h1v1h-1zM157,86h1v1h-1z" fill="#000000" opacity="0.45"/>
  <path d="M56,65h1v1h-1zM50,72h1v1h-1zM111,90h1v1h-1z" fill="#000000" opacity="0.80"/>
  <path d="M57,65h1v1h-1zM26,68h1v1h-1zM27,68h1v1h-1zM28,68h1v1h-1zM29,68h1v1h-1zM105,68h1v1h-1zM116,81h1v1h-1z" fill="#000000" opacity="0.47"/>
  <path d="M58,65h1v1h-1zM23,70h1v1h-1zM73,72h1v1h-1zM24,79h1v1h-1zM51,81h1v1h-1zM116,82h1v1h-1zM106,92h1v1h-1zM68,98h1v1h-1z" fill="#000000" opacity="0.10"/>
  <path d="M63,65h1v1h-1zM104,68h1v1h-1zM66,70h1v1h-1zM66,71h1v1h-1zM49,72h1v1h-1zM66,72h1v1h-1zM66,73h1v1h-1zM69,77h1v1h-1zM117,79h1v1h-1zM20,85h1v1h-1zM52,88h1v1h-1zM66,94h1v1h-1zM66,95h1v1h-1zM66,96h1v1h-1zM66,97h1v1h-1z" fill="#000000" opacity="0.07"/>
  <path d="M65,65h1v1h-1zM107,73h1v1h-1zM24,78h1v1h-1zM115,83h1v1h-1zM149,86h1v1h-1zM150,86h1v1h-1zM151,86h1v1h-1zM152,86h1v1h-1zM153,86h1v1h-1zM154,86h1v1h-1zM155,86h1v1h-1zM156,86h1v1h-1z" fill="#000000" opacity="0.71"/>
  <path d="M66,65h1v1h-1zM110,69h1v1h-1zM97,98h1v1h-1z" fill="#000000" opacity="0.81"/>
  <path d="M67,65h1v1h-1zM68,66h1v1h-1zM56,69h1v1h-1zM18,78h1v1h-1zM47,92h1v1h-1z" fill="#000000" opacity="0.15"/>
  <path d="M54,66h1v1h-1zM111,69h1v1h-1zM25,78h1v1h-1zM71,86h1v1h-1zM17,89h1v1h-1z" fill="#000000" opacity="0.35"/>
  <path d="M55,66h1v1h-1zM31,69h1v1h-1zM69,69h1v1h-1zM31,70h1v1h-1zM31,71h1v1h-1zM31,72h1v1h-1zM21,73h1v1h-1zM31,73h1v1h-1zM104,73h1v1h-1zM31,74h1v1h-1zM66,74h1v1h-1zM31,75h1v1h-1zM31,76h1v1h-1zM31,77h1v1h-1zM53,77h1v1h-1zM31,78h1v1h-1zM31,79h1v1h-1zM31,80h1v1h-1zM31,81h1v1h-1zM31,82h1v1h-1zM31,83h1v1h-1zM31,84h1v1h-1zM31,85h1v1h-1zM114,85h1v1h-1zM31,86h1v1h-1zM31,87h1v1h-1zM18,88h1v1h-1zM31,88h1v1h-1zM77,88h1v1h-1zM31,89h1v1h-1zM31,90h1v1h-1zM31,91h1v1h-1zM31,92h1v1h-1zM31,93h1v1h-1zM31,94h1v1h-1zM31,95h1v1h-1zM108,95h1v1h-1zM31,96h1v1h-1zM31,97h1v1h-1zM31,98h1v1h-1zM66,98h1v1h-1z" fill="#000000" opacity="0.05"/>
  <path d="M0,68h1v1h-1zM141,68h1v1h-1zM105,83h1v1h-1zM104,89h1v1h-1z" fill="#000000" opacity="0.11"/>
  <path d="M1,68h1v1h-1zM2,68h1v1h-1zM3,68h1v1h-1zM4,68h1v1h-1zM5,68h1v1h-1zM93,68h1v1h-1zM94,68h1v1h-1zM95,68h1v1h-1zM96,68h1v1h-1zM136,68h1v1h-1zM137,68h1v1h-1zM138,68h1v1h-1zM139,68h1v1h-1zM140,68h1v1h-1zM149,68h1v1h-1zM150,68h1v1h-1zM151,68h1v1h-1zM152,68h1v1h-1zM153,68h1v1h-1zM154,68h1v1h-1zM155,68h1v1h-1zM156,68h1v1h-1zM157,68h1v1h-1zM158,68h1v1h-1zM77,84h1v1h-1zM52,89h1v1h-1zM105,90h1v1h-1zM73,94h1v1h-1zM117,98h1v1h-1z" fill="#000000" opacity="0.49"/>
  <path d="M25,68h1v1h-1zM106,68h1v1h-1zM105,73h1v1h-1zM149,73h1v1h-1zM150,73h1v1h-1zM151,73h1v1h-1zM152,73h1v1h-1zM153,73h1v1h-1zM154,73h1v1h-1zM155,73h1v1h-1zM156,73h1v1h-1zM157,73h1v1h-1zM158,73h1v1h-1zM70,78h1v1h-1zM110,81h1v1h-1zM45,86h1v1h-1z" fill="#000000" opacity="0.42"/>
  <path d="M30,68h1v1h-1zM70,70h1v1h-1zM17,80h1v1h-1zM45,81h1v1h-1z" fill="#000000" opacity="0.46"/>
  <path d="M92,68h1v1h-1zM110,75h1v1h-1zM48,93h1v1h-1z" fill="#000000" opacity="0.44"/>
  <path d="M97,68h1v1h-1zM114,71h1v1h-1zM109,82h1v1h-1zM71,96h1v1h-1z" fill="#000000" opacity="0.40"/>
  <path d="M107,68h1v1h-1zM159,68h1v1h-1zM71,81h1v1h-1zM77,81h1v1h-1zM51,86h1v1h-1z" fill="#000000" opacity="0.32"/>
  <path d="M108,68h1v1h-1zM16,81h1v1h-1zM157,81h1v1h-1zM71,83h1v1h-1zM54,91h1v1h-1zM116,96h1v1h-1zM52,97h1v1h-1z" fill="#000000" opacity="0.12"/>
  <path d="M135,68h1v1h-1z" fill="#000000" opacity="0.28"/>
  <path d="M24,69h1v1h-1z" fill="#000000" opacity="0.37"/>
  <path d="M54,69h1v1h-1zM106,73h1v1h-1zM77,83h1v1h-1zM70,89h1v1h-1zM76,89h1v1h-1z" fill="#000000" opacity="0.52"/>
  <path d="M67,69h1v1h-1zM20,76h1v1h-1zM71,79h1v1h-1zM17,88h1v1h-1zM92,98h1v1h-1z" fill="#000000" opacity="0.90"/>
  <path d="M68,69h1v1h-1zM45,85h1v1h-1zM50,95h1v1h-1z" fill="#000000" opacity="0.58"/>
  <path d="M104,69h1v1h-1zM104,70h1v1h-1zM104,71h1v1h-1zM104,72h1v1h-1zM71,84h1v1h-1zM104,84h1v1h-1zM104,85h1v1h-1zM104,86h1v1h-1zM104,87h1v1h-1zM104,88h1v1h-1zM111,89h1v1h-1zM56,98h1v1h-1z" fill="#000000" opacity="0.14"/>
  <path d="M135,69h1v1h-1zM135,70h1v1h-1zM135,71h1v1h-1zM135,72h1v1h-1zM135,73h1v1h-1zM135,74h1v1h-1zM135,75h1v1h-1zM135,76h1v1h-1zM135,77h1v1h-1zM135,78h1v1h-1zM135,79h1v1h-1zM135,80h1v1h-1zM135,81h1v1h-1zM135,82h1v1h-1zM135,83h1v1h-1zM135,84h1v1h-1zM135,85h1v1h-1zM135,86h1v1h-1zM135,87h1v1h-1zM135,88h1v1h-1zM135,89h1v1h-1zM135,90h1v1h-1zM135,91h1v1h-1zM135,92h1v1h-1zM135,93h1v1h-1zM135,94h1v1h-1zM135,95h1v1h-1zM135,96h1v1h-1zM135,97h1v1h-1zM135,98h1v1h-1z" fill="#000000" opacity="0.57"/>
  <path d="M159,69h1v1h-1zM159,70h1v1h-1zM23,71h1v1h-1zM159,71h1v1h-1zM159,72h1v1h-1zM148,86h1v1h-1z" fill="#000000" opacity="0.65"/>
  <path d="M52,70h1v1h-1z" fill="#000000" opacity="0.43"/>
  <path d="M113,70h1v1h-1zM77,86h1v1h-1z" fill="#000000" opacity="0.26"/>
  <path d="M51,71h1v1h-1zM54,75h1v1h-1z" fill="#000000" opacity="0.63"/>
  <path d="M72,71h1v1h-1zM70,88h1v1h-1z" fill="#000000" opacity="0.08"/>
  <path d="M72,72h1v1h-1zM18,79h1v1h-1zM114,84h1v1h-1z" fill="#000000" opacity="0.85"/>
  <path d="M115,72h1v1h-1zM149,81h1v1h-1zM150,81h1v1h-1zM151,81h1v1h-1zM152,81h1v1h-1zM153,81h1v1h-1zM154,81h1v1h-1zM155,81h1v1h-1zM156,81h1v1h-1zM71,82h1v1h-1z" fill="#000000" opacity="0.18"/>
  <path d="M22,73h1v1h-1zM70,77h1v1h-1zM113,93h1v1h-1zM116,97h1v1h-1z" fill="#000000" opacity="0.88"/>
  <path d="M48,73h1v1h-1zM117,76h1v1h-1zM17,79h1v1h-1zM111,87h1v1h-1zM117,97h1v1h-1z" fill="#000000" opacity="0.04"/>
  <path d="M49,73h1v1h-1zM76,78h1v1h-1zM75,91h1v1h-1z" fill="#000000" opacity="0.78"/>
  <path d="M148,73h1v1h-1zM23,80h1v1h-1zM115,95h1v1h-1z" fill="#000000" opacity="0.38"/>
  <path d="M159,73h1v1h-1zM21,83h1v1h-1z" fill="#000000" opacity="0.27"/>
  <path d="M48,74h1v1h-1z" fill="#000000" opacity="0.59"/>
  <path d="M74,74h1v1h-1zM116,75h1v1h-1zM108,94h1v1h-1z" fill="#000000" opacity="0.73"/>
  <path d="M109,74h1v1h-1zM71,80h1v1h-1zM49,94h1v1h-1zM110,97h1v1h-1z" fill="#000000" opacity="0.56"/>
  <path d="M116,74h1v1h-1z" fill="#000000" opacity="0.23"/>
  <path d="M47,75h1v1h-1zM113,92h1v1h-1z" fill="#000000" opacity="0.25"/>
  <path d="M53,76h1v1h-1zM45,82h1v1h-1z" fill="#000000" opacity="0.61"/>
  <path d="M69,76h1v1h-1z" fill="#000000" opacity="0.79"/>
  <path d="M111,76h1v1h-1zM111,80h1v1h-1z" fill="#000000" opacity="0.84"/>
  <path d="M19,77h1v1h-1z" fill="#000000" opacity="0.60"/>
  <path d="M25,77h1v1h-1zM22,81h1v1h-1zM20,84h1v1h-1zM69,97h1v1h-1z" fill="#000000" opacity="0.69"/>
  <path d="M52,78h1v1h-1z" fill="#000000" opacity="0.24"/>
  <path d="M46,79h1v1h-1zM54,92h1v1h-1z" fill="#000000" opacity="0.92"/>
  <path d="M51,80h1v1h-1zM46,89h1v1h-1z" fill="#000000" opacity="0.62"/>
  <path d="M77,80h1v1h-1zM16,89h1v1h-1zM53,90h1v1h-1z" fill="#000000" opacity="0.20"/>
  <path d="M116,80h1v1h-1zM74,92h1v1h-1zM30,98h1v1h-1z" fill="#000000" opacity="0.95"/>
  <path d="M148,81h1v1h-1zM45,87h1v1h-1zM54,98h1v1h-1z" fill="#000000" opacity="0.17"/>
  <path d="M16,82h1v1h-1zM16,83h1v1h-1zM106,83h1v1h-1zM16,84h1v1h-1zM16,85h1v1h-1zM71,85h1v1h-1zM16,86h1v1h-1zM16,87h1v1h-1zM16,88h1v1h-1zM55,92h1v1h-1z" fill="#000000" opacity="0.21"/>
  <path d="M22,82h1v1h-1zM69,90h1v1h-1zM56,93h1v1h-1z" fill="#000000" opacity="0.13"/>
  <path d="M157,82h1v1h-1zM157,83h1v1h-1zM157,84h1v1h-1zM157,85h1v1h-1zM71,87h1v1h-1z" fill="#000000" opacity="0.64"/>
  <path d="M107,83h1v1h-1zM45,84h1v1h-1z" fill="#000000" opacity="0.66"/>
  <path d="M77,85h1v1h-1z" fill="#000000" opacity="0.41"/>
  <path d="M113,85h1v1h-1zM18,87h1v1h-1z" fill="#000000" opacity="0.74"/>
  <path d="M19,86h1v1h-1z" fill="#000000" opacity="0.29"/>
  <path d="M112,86h1v1h-1zM110,88h1v1h-1z" fill="#000000" opacity="0.39"/>
  <path d="M110,87h1v1h-1zM109,96h1v1h-1z" fill="#000000" opacity="0.31"/>
  <path d="M47,91h1v1h-1z" fill="#000000" opacity="0.72"/>
  <path d="M106,91h1v1h-1z" fill="#000000" opacity="0.86"/>
  <path d="M112,91h1v1h-1z" fill="#000000" opacity="0.55"/>
  <path d="M114,94h1v1h-1z" fill="#000000" opacity="0.75"/>
  <path d="M72,95h1v1h-1zM51,96h1v1h-1z" fill="#000000" opacity="0.51"/>
  <path d="M53,97h1v1h-1z" fill="#000000" opacity="0.77"/>
</svg>