<svg xmlns="http://www.w3.org/2000/svg" viewBox="0 0 160 50" width="100%" height="100%">
  <path d="M17,0h1v1h-1zM154,8h1v1h-1zM39,16h1v1h-1zM126,38h1v1h-1z" fill="#491280" opacity="0.05"/>
  <path d="M18,0h1v1h-1zM89,40h1v1h-1z" fill="#481e89" opacity="0.26"/>
  <path d="M19,0h1v1h-1zM41,20h1v1h-1zM72,37h1v1h-1zM11,45h1v1h-1z" fill="#491d89" opacity="0.51"/>
  <path d="M20,0h1v1h-1zM129,0h1v1h-1zM9,5h1v1h-1zM30,40h1v1h-1zM129,40h1v1h-1z" fill="#491e8a" opacity="0.73"/>
  <path d="M21,0h1v1h-1z" fill="#491f89" opacity="0.87"/>
  <path d="M22,0h1v1h-1zM23,7h1v1h-1zM136,7h1v1h-1zM54,8h1v1h-1zM142,9h1v1h-1zM109,19h1v1h-1zM9,20h1v1h-1zM150,20h1v1h-1zM0,26h1v1h-1zM50,29h1v1h-1zM158,31h1v1h-1zM5,39h1v1h-1zM27,41h1v1h-1zM132,41h1v1h-1zM9,43h1v1h-1z" fill="#4a1f8a" opacity="0.95"/>
  <path d="M23,0h1v1h-1zM135,0h1v1h-1zM141,1h1v1h-1zM93,10h1v1h-1zM68,27h1v1h-1zM84,31h1v1h-1zM19,40h1v1h-1zM140,40h1v1h-1zM152,41h1v1h-1zM129,48h1v1h-1z" fill="#491f8a" opacity="0.98"/>
  <path d="M24,0h1v1h-1zM77,27h1v1h-1z" fill="#491e8a" opacity="1.00"/>
  <path d="M25,0h1v1h-1zM19,1h1v1h-1zM20,1h1v1h-1zM21,1h1v1h-1zM22,1h1v1h-1zM23,1h1v1h-1zM24,1h1v1h-1zM25,1h1v1h-1zM26,1h1v1h-1zM27,1h1v1h-1zM28,1h1v1h-1zM29,1h1v1h-1zM30,1h1v1h-1zM31,1h1v1h-1zM32,1h1v1h-1zM127,1h1v1h-1zM128,1h1v1h-1zM129,1h1v1h-1zM130,1h1v1h-1zM131,1h1v1h-1zM132,1h1v1h-1zM133,1h1v1h-1zM134,1h1v1h-1zM135,1h1v1h-1zM136,1h1v1h-1zM137,1h1v1h-1zM138,1h1v1h-1zM139,1h1v1h-1zM140,1h1v1h-1zM16,2h1v1h-1zM17,2h1v1h-1zM18,2h1v1h-1zM19,2h1v1h-1zM20,2h1v1h-1zM21,2h1v1h-1zM22,2h1v1h-1zM23,2h1v1h-1zM24,2h1v1h-1zM25,2h1v1h-1zM26,2h1v1h-1zM27,2h1v1h-1zM28,2h1v1h-1zM29,2h1v1h-1zM30,2h1v1h-1zM31,2h1v1h-1zM32,2h1v1h-1zM33,2h1v1h-1zM34,2h1v1h-1zM35,2h1v1h-1zM55,2h1v1h-1zM56,2h1v1h-1zM57,2h1v1h-1zM58,2h1v1h-1zM59,2h1v1h-1zM60,2h1v1h-1zM61,2h1v1h-1zM62,2h1v1h-1zM63,2h1v1h-1zM64,2h1v1h-1zM65,2h1v1h-1zM66,2h1v1h-1zM67,2h1v1h-1zM68,2h1v1h-1zM69,2h1v1h-1zM70,2h1v1h-1zM71,2h1v1h-1zM72,2h1v1h-1zM73,2h1v1h-1zM74,2h1v1h-1zM88,2h1v1h-1zM89,2h1v1h-1zM90,2h1v1h-1zM91,2h1v1h-1zM92,2h1v1h-1zM93,2h1v1h-1zM94,2h1v1h-1zM95,2h1v1h-1zM96,2h1v1h-1zM97,2h1v1h-1zM98,2h1v1h-1zM99,2h1v1h-1zM100,2h1v1h-1zM101,2h1v1h-1zM102,2h1v1h-1zM103,2h1v1h-1zM124,2h1v1h-1zM125,2h1v1h-1zM126,2h1v1h-1zM127,2h1v1h-1zM128,2h1v1h-1zM129,2h1v1h-1zM130,2h1v1h-1zM131,2h1v1h-1zM132,2h1v1h-1zM133,2h1v1h-1zM134,2h1v1h-1zM135,2h1v1h-1zM136,2h1v1h-1zM137,2h1v1h-1zM138,2h1v1h-1zM139,2h1v1h-1zM140,2h1v1h-1zM141,2h1v1h-1zM142,2h1v1h-1zM143,2h1v1h-1zM13,3h1v1h-1zM14,3h1v1h-1zM15,3h1v1h-1zM16,3h1v1h-1zM17,3h1v1h-1zM18,3h1v1h-1zM19,3h1v1h-1zM20,3h1v1h-1zM21,3h1v1h-1zM22,3h1v1h-1zM23,3h1v1h-1zM24,3h1v1h-1zM25,3h1v1h-1zM26,3h1v1h-1zM27,3h1v1h-1zM28,3h1v1h-1zM29,3h1v1h-1zM30,3h1v1h-1zM31,3h1v1h-1zM32,3h1v1h-1zM33,3h1v1h-1zM34,3h1v1h-1zM35,3h1v1h-1zM36,3h1v1h-1zM37,3h1v1h-1zM55,3h1v1h-1zM56,3h1v1h-1zM57,3h1v1h-1zM58,3h1v1h-1zM59,3h1v1h-1zM60,3h1v1h-1zM61,3h1v1h-1zM62,3h1v1h-1zM63,3h1v1h-1zM64,3h1v1h-1zM65,3h1v1h-1zM66,3h1v1h-1zM67,3h1v1h-1zM68,3h1v1h-1zM69,3h1v1h-1zM70,3h1v1h-1zM71,3h1v1h-1zM72,3h1v1h-1zM73,3h1v1h-1zM74,3h1v1h-1zM88,3h1v1h-1zM89,3h1v1h-1zM90,3h1v1h-1zM91,3h1v1h-1zM92,3h1v1h-1zM93,3h1v1h-1zM94,3h1v1h-1zM95,3h1v1h-1zM96,3h1v1h-1zM97,3h1v1h-1zM98,3h1v1h-1zM99,3h1v1h-1zM100,3h1v1h-1zM101,3h1v1h-1zM102,3h1v1h-1zM103,3h1v1h-1zM122,3h1v1h-1zM123,3h1v1h-1zM124,3h1v1h-1zM125,3h1v1h-1zM126,3h1v1h-1zM127,3h1v1h-1zM128,3h1v1h-1zM129,3h1v1h-1zM130,3h1v1h-1zM131,3h1v1h-1zM132,3h1v1h-1zM133,3h1v1h-1zM134,3h1v1h-1zM135,3h1v1h-1zM136,3h1v1h-1zM137,3h1v1h-1zM138,3h1v1h-1zM139,3h1v1h-1zM140,3h1v1h-1zM141,3h1v1h-1zM142,3h1v1h-1zM143,3h1v1h-1zM144,3h1v1h-1zM145,3h1v1h-1zM12,4h1v1h-1zM13,4h1v1h-1zM14,4h1v1h-1zM15,4h1v1h-1zM16,4h1v1h-1zM17,4h1v1h-1zM18,4h1v1h-1zM19,4h1v1h-1zM20,4h1v1h-1zM21,4h1v1h-1zM22,4h1v1h-1zM23,4h1v1h-1zM24,4h1v1h-1zM25,4h1v1h-1zM26,4h1v1h-1zM27,4h1v1h-1zM28,4h1v1h-1zM29,4h1v1h-1zM30,4h1v1h-1zM31,4h1v1h-1zM32,4h1v1h-1zM33,4h1v1h-1zM34,4h1v1h-1zM35,4h1v1h-1zM36,4h1v1h-1zM37,4h1v1h-1zM38,4h1v1h-1zM39,4h1v1h-1zM55,4h1v1h-1zM56,4h1v1h-1zM57,4h1v1h-1zM58,4h1v1h-1zM59,4h1v1h-1zM60,4h1v1h-1zM61,4h1v1h-1zM62,4h1v1h-1zM63,4h1v1h-1zM64,4h1v1h-1zM65,4h1v1h-1zM66,4h1v1h-1zM67,4h1v1h-1zM68,4h1v1h-1zM69,4h1v1h-1zM70,4h1v1h-1zM71,4h1v1h-1zM72,4h1v1h-1zM73,4h1v1h-1zM74,4h1v1h-1zM88,4h1v1h-1zM89,4h1v1h-1zM90,4h1v1h-1zM91,4h1v1h-1zM92,4h1v1h-1zM93,4h1v1h-1zM94,4h1v1h-1zM95,4h1v1h-1zM96,4h1v1h-1zM97,4h1v1h-1zM98,4h1v1h-1zM99,4h1v1h-1zM100,4h1v1h-1zM101,4h1v1h-1zM102,4h1v1h-1zM103,4h1v1h-1zM120,4h1v1h-1zM121,4h1v1h-1zM122,4h1v1h-1zM123,4h1v1h-1zM124,4h1v1h-1zM125,4h1v1h-1zM126,4h1v1h-1zM127,4h1v1h-1zM128,4h1v1h-1zM129,4h1v1h-1zM130,4h1v1h-1zM131,4h1v1h-1zM132,4h1v1h-1zM133,4h1v1h-1zM134,4h1v1h-1zM135,4h1v1h-1zM136,4h1v1h-1zM137,4h1v1h-1zM138,4h1v1h-1zM139,4h1v1h-1zM140,4h1v1h-1zM141,4h1v1h-1zM142,4h1v1h-1zM143,4h1v1h-1zM144,4h1v1h-1zM145,4h1v1h-1zM146,4h1v1h-1zM147,4h1v1h-1zM10,5h1v1h-1zM11,5h1v1h-1zM12,5h1v1h-1zM13,5h1v1h-1zM14,5h1v1h-1zM15,5h1v1h-1zM16,5h1v1h-1zM17,5h1v1h-1zM18,5h1v1h-1zM19,5h1v1h-1zM20,5h1v1h-1zM21,5h1v1h-1zM22,5h1v1h-1zM23,5h1v1h-1zM24,5h1v1h-1zM25,5h1v1h-1zM26,5h1v1h-1zM27,5h1v1h-1zM28,5h1v1h-1zM29,5h1v1h-1zM30,5h1v1h-1zM31,5h1v1h-1zM32,5h1v1h-1zM33,5h1v1h-1zM34,5h1v1h-1zM35,5h1v1h-1zM36,5h1v1h-1zM37,5h1v1h-1zM38,5h1v1h-1zM39,5h1v1h-1zM40,5h1v1h-1zM55,5h1v1h-1zM56,5h1v1h-1zM57,5h1v1h-1zM58,5h1v1h-1zM59,5h1v1h-1zM60,5h1v1h-1zM61,5h1v1h-1zM62,5h1v1h-1zM63,5h1v1h-1zM64,5h1v1h-1zM65,5h1v1h-1zM66,5h1v1h-1zM67,5h1v1h-1zM68,5h1v1h-1zM69,5h1v1h-1zM70,5h1v1h-1zM71,5h1v1h-1zM72,5h1v1h-1zM73,5h1v1h-1zM74,5h1v1h-1zM88,5h1v1h-1zM89,5h1v1h-1zM90,5h1v1h-1zM91,5h1v1h-1zM92,5h1v1h-1zM93,5h1v1h-1zM94,5h1v1h-1zM95,5h1v1h-1zM96,5h1v1h-1zM97,5h1v1h-1zM98,5h1v1h-1zM99,5h1v1h-1zM100,5h1v1h-1zM101,5h1v1h-1zM102,5h1v1h-1zM103,5h1v1h-1zM119,5h1v1h-1zM120,5h1v1h-1zM121,5h1v1h-1zM122,5h1v1h-1zM123,5h1v1h-1zM124,5h1v1h-1zM125,5h1v1h-1zM126,5h1v1h-1zM127,5h1v1h-1zM128,5h1v1h-1zM129,5h1v1h-1zM130,5h1v1h-1zM131,5h1v1h-1zM132,5h1v1h-1zM133,5h1v1h-1zM134,5h1v1h-1zM135,5h1v1h-1zM136,5h1v1h-1zM137,5h1v1h-1zM138,5h1v1h-1zM139,5h1v1h-1zM140,5h1v1h-1zM141,5h1v1h-1zM142,5h1v1h-1zM143,5h1v1h-1zM144,5h1v1h-1zM145,5h1v1h-1zM146,5h1v1h-1zM147,5h1v1h-1zM148,5h1v1h-1zM9,6h1v1h-1zM10,6h1v1h-1zM11,6h1v1h-1zM12,6h1v1h-1zM13,6h1v1h-1zM14,6h1v1h-1zM15,6h1v1h-1zM16,6h1v1h-1zM17,6h1v1h-1zM18,6h1v1h-1zM19,6h1v1h-1zM20,6h1v1h-1zM21,6h1v1h-1zM22,6h1v1h-1zM23,6h1v1h-1zM24,6h1v1h-1zM25,6h1v1h-1zM26,6h1v1h-1zM27,6h1v1h-1zM28,6h1v1h-1zM29,6h1v1h-1zM30,6h1v1h-1zM31,6h1v1h-1zM32,6h1v1h-1zM33,6h1v1h-1zM34,6h1v1h-1zM35,6h1v1h-1zM36,6h1v1h-1zM37,6h1v1h-1zM38,6h1v1h-1zM39,6h1v1h-1zM40,6h1v1h-1zM41,6h1v1h-1zM55,6h1v1h-1zM56,6h1v1h-1zM57,6h1v1h-1zM58,6h1v1h-1zM59,6h1v1h-1zM60,6h1v1h-1zM61,6h1v1h-1zM62,6h1v1h-1zM63,6h1v1h-1zM64,6h1v1h-1zM65,6h1v1h-1zM66,6h1v1h-1zM67,6h1v1h-1zM68,6h1v1h-1zM69,6h1v1h-1zM70,6h1v1h-1zM71,6h1v1h-1zM72,6h1v1h-1zM73,6h1v1h-1zM74,6h1v1h-1zM88,6h1v1h-1zM89,6h1v1h-1zM90,6h1v1h-1zM91,6h1v1h-1zM92,6h1v1h-1zM93,6h1v1h-1zM94,6h1v1h-1zM95,6h1v1h-1zM96,6h1v1h-1zM97,6h1v1h-1zM98,6h1v1h-1zM99,6h1v1h-1zM100,6h1v1h-1zM101,6h1v1h-1zM102,6h1v1h-1zM103,6h1v1h-1zM118,6h1v1h-1zM119,6h1v1h-1zM120,6h1v1h-1zM121,6h1v1h-1zM122,6h1v1h-1zM123,6h1v1h-1zM124,6h1v1h-1zM125,6h1v1h-1zM126,6h1v1h-1zM127,6h1v1h-1zM128,6h1v1h-1zM129,6h1v1h-1zM130,6h1v1h-1zM131,6h1v1h-1zM132,6h1v1h-1zM133,6h1v1h-1zM134,6h1v1h-1zM135,6h1v1h-1zM136,6h1v1h-1zM137,6h1v1h-1zM138,6h1v1h-1zM139,6h1v1h-1zM140,6h1v1h-1zM141,6h1v1h-1zM142,6h1v1h-1zM143,6h1v1h-1zM144,6h1v1h-1zM145,6h1v1h-1zM146,6h1v1h-1zM147,6h1v1h-1zM148,6h1v1h-1zM149,6h1v1h-1zM150,6h1v1h-1zM8,7h1v1h-1zM9,7h1v1h-1zM10,7h1v1h-1zM11,7h1v1h-1zM12,7h1v1h-1zM13,7h1v1h-1zM14,7h1v1h-1zM15,7h1v1h-1zM16,7h1v1h-1zM17,7h1v1h-1zM18,7h1v1h-1zM19,7h1v1h-1zM20,7h1v1h-1zM21,7h1v1h-1zM29,7h1v1h-1zM30,7h1v1h-1zM31,7h1v1h-1zM32,7h1v1h-1zM33,7h1v1h-1zM34,7h1v1h-1zM35,7h1v1h-1zM36,7h1v1h-1zM37,7h1v1h-1zM38,7h1v1h-1zM39,7h1v1h-1zM40,7h1v1h-1zM41,7h1v1h-1zM42,7h1v1h-1zM43,7h1v1h-1zM55,7h1v1h-1zM56,7h1v1h-1zM57,7h1v1h-1zM58,7h1v1h-1zM59,7h1v1h-1zM60,7h1v1h-1zM61,7h1v1h-1zM62,7h1v1h-1zM63,7h1v1h-1zM64,7h1v1h-1zM65,7h1v1h-1zM66,7h1v1h-1zM67,7h1v1h-1zM68,7h1v1h-1zM69,7h1v1h-1zM70,7h1v1h-1zM71,7h1v1h-1zM72,7h1v1h-1zM73,7h1v1h-1zM74,7h1v1h-1zM88,7h1v1h-1zM89,7h1v1h-1zM90,7h1v1h-1zM91,7h1v1h-1zM92,7h1v1h-1zM93,7h1v1h-1zM94,7h1v1h-1zM95,7h1v1h-1zM96,7h1v1h-1zM97,7h1v1h-1zM98,7h1v1h-1zM99,7h1v1h-1zM100,7h1v1h-1zM101,7h1v1h-1zM102,7h1v1h-1zM117,7h1v1h-1zM118,7h1v1h-1zM119,7h1v1h-1zM120,7h1v1h-1zM121,7h1v1h-1zM122,7h1v1h-1zM123,7h1v1h-1zM124,7h1v1h-1zM125,7h1v1h-1zM126,7h1v1h-1zM127,7h1v1h-1zM128,7h1v1h-1zM129,7h1v1h-1zM130,7h1v1h-1zM138,7h1v1h-1zM139,7h1v1h-1zM140,7h1v1h-1zM141,7h1v1h-1zM142,7h1v1h-1zM143,7h1v1h-1zM144,7h1v1h-1zM145,7h1v1h-1zM146,7h1v1h-1zM147,7h1v1h-1zM148,7h1v1h-1zM149,7h1v1h-1zM150,7h1v1h-1zM151,7h1v1h-1zM7,8h1v1h-1zM8,8h1v1h-1zM9,8h1v1h-1zM10,8h1v1h-1zM11,8h1v1h-1zM12,8h1v1h-1zM13,8h1v1h-1zM14,8h1v1h-1zM15,8h1v1h-1zM16,8h1v1h-1zM17,8h1v1h-1zM18,8h1v1h-1zM33,8h1v1h-1zM34,8h1v1h-1zM35,8h1v1h-1zM36,8h1v1h-1zM37,8h1v1h-1zM38,8h1v1h-1zM39,8h1v1h-1zM40,8h1v1h-1zM41,8h1v1h-1zM42,8h1v1h-1zM43,8h1v1h-1zM44,8h1v1h-1zM60,8h1v1h-1zM61,8h1v1h-1zM62,8h1v1h-1zM63,8h1v1h-1zM64,8h1v1h-1zM65,8h1v1h-1zM66,8h1v1h-1zM67,8h1v1h-1zM68,8h1v1h-1zM69,8h1v1h-1zM94,8h1v1h-1zM95,8h1v1h-1zM96,8h1v1h-1zM97,8h1v1h-1zM98,8h1v1h-1zM99,8h1v1h-1zM100,8h1v1h-1zM101,8h1v1h-1zM102,8h1v1h-1zM116,8h1v1h-1zM117,8h1v1h-1zM118,8h1v1h-1zM119,8h1v1h-1zM120,8h1v1h-1zM121,8h1v1h-1zM122,8h1v1h-1zM123,8h1v1h-1zM124,8h1v1h-1zM125,8h1v1h-1zM126,8h1v1h-1zM141,8h1v1h-1zM142,8h1v1h-1zM143,8h1v1h-1zM144,8h1v1h-1zM145,8h1v1h-1zM146,8h1v1h-1zM147,8h1v1h-1zM148,8h1v1h-1zM149,8h1v1h-1zM150,8h1v1h-1zM151,8h1v1h-1zM152,8h1v1h-1zM6,9h1v1h-1zM7,9h1v1h-1zM8,9h1v1h-1zM9,9h1v1h-1zM10,9h1v1h-1zM11,9h1v1h-1zM12,9h1v1h-1zM13,9h1v1h-1zM14,9h1v1h-1zM15,9h1v1h-1zM16,9h1v1h-1zM35,9h1v1h-1zM36,9h1v1h-1zM37,9h1v1h-1zM38,9h1v1h-1zM39,9h1v1h-1zM40,9h1v1h-1zM41,9h1v1h-1zM42,9h1v1h-1zM43,9h1v1h-1zM44,9h1v1h-1zM60,9h1v1h-1zM61,9h1v1h-1zM62,9h1v1h-1zM63,9h1v1h-1zM64,9h1v1h-1zM65,9h1v1h-1zM66,9h1v1h-1zM67,9h1v1h-1zM68,9h1v1h-1zM69,9h1v1h-1zM94,9h1v1h-1zM95,9h1v1h-1zM96,9h1v1h-1zM97,9h1v1h-1zM98,9h1v1h-1zM99,9h1v1h-1zM100,9h1v1h-1zM101,9h1v1h-1zM115,9h1v1h-1zM116,9h1v1h-1zM117,9h1v1h-1zM118,9h1v1h-1zM119,9h1v1h-1zM120,9h1v1h-1zM121,9h1v1h-1zM122,9h1v1h-1zM123,9h1v1h-1zM124,9h1v1h-1zM125,9h1v1h-1zM143,9h1v1h-1zM144,9h1v1h-1zM145,9h1v1h-1zM146,9h1v1h-1zM147,9h1v1h-1zM148,9h1v1h-1zM149,9h1v1h-1zM150,9h1v1h-1zM151,9h1v1h-1zM152,9h1v1h-1zM153,9h1v1h-1zM5,10h1v1h-1zM6,10h1v1h-1zM7,10h1v1h-1zM8,10h1v1h-1zM9,10h1v1h-1zM10,10h1v1h-1zM11,10h1v1h-1zM12,10h1v1h-1zM13,10h1v1h-1zM14,10h1v1h-1zM36,10h1v1h-1zM37,10h1v1h-1zM38,10h1v1h-1zM39,10h1v1h-1zM40,10h1v1h-1zM41,10h1v1h-1zM42,10h1v1h-1zM43,10h1v1h-1zM44,10h1v1h-1zM45,10h1v1h-1zM61,10h1v1h-1zM62,10h1v1h-1zM63,10h1v1h-1zM64,10h1v1h-1zM65,10h1v1h-1zM66,10h1v1h-1zM67,10h1v1h-1zM68,10h1v1h-1zM69,10h1v1h-1zM94,10h1v1h-1zM95,10h1v1h-1zM96,10h1v1h-1zM97,10h1v1h-1zM98,10h1v1h-1zM99,10h1v1h-1zM100,10h1v1h-1zM101,10h1v1h-1zM114,10h1v1h-1zM115,10h1v1h-1zM116,10h1v1h-1zM117,10h1v1h-1zM118,10h1v1h-1zM119,10h1v1h-1zM120,10h1v1h-1zM121,10h1v1h-1zM122,10h1v1h-1zM123,10h1v1h-1zM144,10h1v1h-1zM145,10h1v1h-1zM146,10h1v1h-1zM147,10h1v1h-1zM148,10h1v1h-1zM149,10h1v1h-1zM150,10h1v1h-1zM151,10h1v1h-1zM152,10h1v1h-1zM153,10h1v1h-1zM154,10h1v1h-1zM5,11h1v1h-1zM6,11h1v1h-1zM7,11h1v1h-1zM8,11h1v1h-1zM9,11h1v1h-1zM10,11h1v1h-1zM11,11h1v1h-1zM12,11h1v1h-1zM13,11h1v1h-1zM37,11h1v1h-1zM38,11h1v1h-1zM39,11h1v1h-1zM40,11h1v1h-1zM41,11h1v1h-1zM42,11h1v1h-1zM43,11h1v1h-1zM44,11h1v1h-1zM45,11h1v1h-1zM46,11h1v1h-1zM61,11h1v1h-1zM62,11h1v1h-1zM63,11h1v1h-1zM64,11h1v1h-1zM65,11h1v1h-1zM66,11h1v1h-1zM67,11h1v1h-1zM68,11h1v1h-1zM69,11h1v1h-1zM93,11h1v1h-1zM94,11h1v1h-1zM95,11h1v1h-1zM96,11h1v1h-1zM97,11h1v1h-1zM98,11h1v1h-1zM99,11h1v1h-1zM100,11h1v1h-1zM113,11h1v1h-1zM114,11h1v1h-1zM115,11h1v1h-1zM116,11h1v1h-1zM117,11h1v1h-1zM118,11h1v1h-1zM119,11h1v1h-1zM120,11h1v1h-1zM121,11h1v1h-1zM122,11h1v1h-1zM146,11h1v1h-1zM147,11h1v1h-1zM148,11h1v1h-1zM149,11h1v1h-1zM150,11h1v1h-1zM151,11h1v1h-1zM152,11h1v1h-1zM153,11h1v1h-1zM154,11h1v1h-1zM4,12h1v1h-1zM5,12h1v1h-1zM6,12h1v1h-1zM7,12h1v1h-1zM8,12h1v1h-1zM9,12h1v1h-1zM10,12h1v1h-1zM11,12h1v1h-1zM12,12h1v1h-1zM38,12h1v1h-1zM39,12h1v1h-1zM40,12h1v1h-1zM41,12h1v1h-1zM42,12h1v1h-1zM43,12h1v1h-1zM44,12h1v1h-1zM45,12h1v1h-1zM46,12h1v1h-1zM62,12h1v1h-1zM63,12h1v1h-1zM64,12h1v1h-1zM65,12h1v1h-1zM66,12h1v1h-1zM67,12h1v1h-1zM68,12h1v1h-1zM69,12h1v1h-1zM70,12h1v1h-1zM93,12h1v1h-1zM94,12h1v1h-1zM95,12h1v1h-1zM96,12h1v1h-1zM97,12h1v1h-1zM98,12h1v1h-1zM99,12h1v1h-1zM100,12h1v1h-1zM112,12h1v1h-1zM113,12h1v1h-1zM114,12h1v1h-1zM115,12h1v1h-1zM116,12h1v1h-1zM117,12h1v1h-1zM118,12h1v1h-1zM119,12h1v1h-1zM120,12h1v1h-1zM121,12h1v1h-1zM147,12h1v1h-1zM148,12h1v1h-1zM149,12h1v1h-1zM150,12h1v1h-1zM151,12h1v1h-1zM152,12h1v1h-1zM153,12h1v1h-1zM154,12h1v1h-1zM155,12h1v1h-1zM3,13h1v1h-1zM4,13h1v1h-1zM5,13h1v1h-1zM6,13h1v1h-1zM7,13h1v1h-1zM8,13h1v1h-1zM9,13h1v1h-1zM10,13h1v1h-1zM11,13h1v1h-1zM39,13h1v1h-1zM40,13h1v1h-1zM41,13h1v1h-1zM42,13h1v1h-1zM43,13h1v1h-1zM44,13h1v1h-1zM45,13h1v1h-1zM46,13h1v1h-1zM47,13h1v1h-1zM62,13h1v1h-1zM63,13h1v1h-1zM64,13h1v1h-1zM65,13h1v1h-1zM66,13h1v1h-1zM67,13h1v1h-1zM68,13h1v1h-1zM69,13h1v1h-1zM70,13h1v1h-1zM92,13h1v1h-1zM93,13h1v1h-1zM94,13h1v1h-1zM95,13h1v1h-1zM96,13h1v1h-1zM97,13h1v1h-1zM98,13h1v1h-1zM99,13h1v1h-1zM112,13h1v1h-1zM113,13h1v1h-1zM114,13h1v1h-1zM115,13h1v1h-1zM116,13h1v1h-1zM117,13h1v1h-1zM118,13h1v1h-1zM119,13h1v1h-1zM120,13h1v1h-1zM147,13h1v1h-1zM148,13h1v1h-1zM149,13h1v1h-1zM150,13h1v1h-1zM151,13h1v1h-1zM152,13h1v1h-1zM153,13h1v1h-1zM154,13h1v1h-1zM155,13h1v1h-1zM156,13h1v1h-1zM3,14h1v1h-1zM4,14h1v1h-1zM5,14h1v1h-1zM6,14h1v1h-1zM7,14h1v1h-1zM8,14h1v1h-1zM9,14h1v1h-1zM10,14h1v1h-1zM11,14h1v1h-1zM40,14h1v1h-1zM41,14h1v1h-1zM42,14h1v1h-1zM43,14h1v1h-1zM44,14h1v1h-1zM45,14h1v1h-1zM46,14h1v1h-1zM47,14h1v1h-1zM48,14h1v1h-1zM63,14h1v1h-1zM64,14h1v1h-1zM65,14h1v1h-1zM66,14h1v1h-1zM67,14h1v1h-1zM68,14h1v1h-1zM69,14h1v1h-1zM70,14h1v1h-1zM71,14h1v1h-1zM92,14h1v1h-1zM93,14h1v1h-1zM94,14h1v1h-1zM95,14h1v1h-1zM96,14h1v1h-1zM97,14h1v1h-1zM98,14h1v1h-1zM99,14h1v1h-1zM111,14h1v1h-1zM112,14h1v1h-1zM113,14h1v1h-1zM114,14h1v1h-1zM115,14h1v1h-1zM116,14h1v1h-1zM117,14h1v1h-1zM118,14h1v1h-1zM119,14h1v1h-1zM148,14h1v1h-1zM149,14h1v1h-1zM150,14h1v1h-1zM151,14h1v1h-1zM152,14h1v1h-1zM153,14h1v1h-1zM154,14h1v1h-1zM155,14h1v1h-1zM156,14h1v1h-1zM2,15h1v1h-1zM3,15h1v1h-1zM4,15h1v1h-1zM5,15h1v1h-1zM6,15h1v1h-1zM7,15h1v1h-1zM8,15h1v1h-1zM9,15h1v1h-1zM10,15h1v1h-1zM40,15h1v1h-1zM41,15h1v1h-1zM42,15h1v1h-1zM43,15h1v1h-1zM44,15h1v1h-1zM45,15h1v1h-1zM46,15h1v1h-1zM47,15h1v1h-1zM48,15h1v1h-1zM63,15h1v1h-1zM64,15h1v1h-1zM65,15h1v1h-1zM66,15h1v1h-1zM67,15h1v1h-1zM68,15h1v1h-1zM69,15h1v1h-1zM70,15h1v1h-1zM71,15h1v1h-1zM91,15h1v1h-1zM92,15h1v1h-1zM93,15h1v1h-1zM94,15h1v1h-1zM95,15h1v1h-1zM96,15h1v1h-1zM97,15h1v1h-1zM98,15h1v1h-1zM99,15h1v1h-1zM111,15h1v1h-1zM112,15h1v1h-1zM113,15h1v1h-1zM114,15h1v1h-1zM115,15h1v1h-1zM116,15h1v1h-1zM117,15h1v1h-1zM118,15h1v1h-1zM119,15h1v1h-1zM149,15h1v1h-1zM150,15h1v1h-1zM151,15h1v1h-1zM152,15h1v1h-1zM153,15h1v1h-1zM154,15h1v1h-1zM155,15h1v1h-1zM156,15h1v1h-1zM157,15h1v1h-1zM2,16h1v1h-1zM3,16h1v1h-1zM4,16h1v1h-1zM5,16h1v1h-1zM6,16h1v1h-1zM7,16h1v1h-1zM8,16h1v1h-1zM9,16h1v1h-1zM10,16h1v1h-1zM41,16h1v1h-1zM42,16h1v1h-1zM43,16h1v1h-1zM44,16h1v1h-1zM45,16h1v1h-1zM46,16h1v1h-1zM47,16h1v1h-1zM48,16h1v1h-1zM64,16h1v1h-1zM65,16h1v1h-1zM66,16h1v1h-1zM67,16h1v1h-1zM68,16h1v1h-1zM69,16h1v1h-1zM70,16h1v1h-1zM71,16h1v1h-1zM72,16h1v1h-1zM91,16h1v1h-1zM92,16h1v1h-1zM93,16h1v1h-1zM94,16h1v1h-1zM95,16h1v1h-1zM96,16h1v1h-1zM97,16h1v1h-1zM98,16h1v1h-1zM110,16h1v1h-1zM111,16h1v1h-1zM112,16h1v1h-1zM113,16h1v1h-1zM114,16h1v1h-1zM115,16h1v1h-1zM116,16h1v1h-1zM117,16h1v1h-1zM118,16h1v1h-1zM149,16h1v1h-1zM150,16h1v1h-1zM151,16h1v1h-1zM152,16h1v1h-1zM153,16h1v1h-1zM154,16h1v1h-1zM155,16h1v1h-1zM156,16h1v1h-1zM157,16h1v1h-1zM2,17h1v1h-1zM3,17h1v1h-1zM4,17h1v1h-1zM5,17h1v1h-1zM6,17h1v1h-1zM7,17h1v1h-1zM8,17h1v1h-1zM9,17h1v1h-1zM41,17h1v1h-1zM42,17h1v1h-1zM43,17h1v1h-1zM44,17h1v1h-1zM45,17h1v1h-1zM46,17h1v1h-1zM47,17h1v1h-1zM48,17h1v1h-1zM49,17h1v1h-1zM64,17h1v1h-1zM65,17h1v1h-1zM66,17h1v1h-1zM67,17h1v1h-1zM68,17h1v1h-1zM69,17h1v1h-1zM70,17h1v1h-1zM71,17h1v1h-1zM72,17h1v1h-1zM91,17h1v1h-1zM92,17h1v1h-1zM93,17h1v1h-1zM94,17h1v1h-1zM95,17h1v1h-1zM96,17h1v1h-1zM97,17h1v1h-1zM98,17h1v1h-1zM110,17h1v1h-1zM111,17h1v1h-1zM112,17h1v1h-1zM113,17h1v1h-1zM114,17h1v1h-1zM115,17h1v1h-1zM116,17h1v1h-1zM117,17h1v1h-1zM118,17h1v1h-1zM150,17h1v1h-1zM151,17h1v1h-1zM152,17h1v1h-1zM153,17h1v1h-1zM154,17h1v1h-1zM155,17h1v1h-1zM156,17h1v1h-1zM157,17h1v1h-1zM1,18h1v1h-1zM2,18h1v1h-1zM3,18h1v1h-1zM4,18h1v1h-1zM5,18h1v1h-1zM6,18h1v1h-1zM7,18h1v1h-1zM8,18h1v1h-1zM9,18h1v1h-1zM42,18h1v1h-1zM43,18h1v1h-1zM44,18h1v1h-1zM45,18h1v1h-1zM46,18h1v1h-1zM47,18h1v1h-1zM48,18h1v1h-1zM49,18h1v1h-1zM65,18h1v1h-1zM66,18h1v1h-1zM67,18h1v1h-1zM68,18h1v1h-1zM69,18h1v1h-1zM70,18h1v1h-1zM71,18h1v1h-1zM72,18h1v1h-1zM73,18h1v1h-1zM90,18h1v1h-1zM91,18h1v1h-1zM92,18h1v1h-1zM93,18h1v1h-1zM94,18h1v1h-1zM95,18h1v1h-1zM96,18h1v1h-1zM97,18h1v1h-1zM110,18h1v1h-1zM111,18h1v1h-1zM112,18h1v1h-1zM113,18h1v1h-1zM114,18h1v1h-1zM115,18h1v1h-1zM116,18h1v1h-1zM117,18h1v1h-1zM150,18h1v1h-1zM151,18h1v1h-1zM152,18h1v1h-1zM153,18h1v1h-1zM154,18h1v1h-1zM155,18h1v1h-1zM156,18h1v1h-1zM157,18h1v1h-1zM158,18h1v1h-1zM1,19h1v1h-1zM2,19h1v1h-1zM3,19h1v1h-1zM4,19h1v1h-1zM5,19h1v1h-1zM6,19h1v1h-1zM7,19h1v1h-1zM8,19h1v1h-1zM9,19h1v1h-1zM42,19h1v1h-1zM43,19h1v1h-1zM44,19h1v1h-1zM45,19h1v1h-1zM46,19h1v1h-1zM47,19h1v1h-1zM48,19h1v1h-1zM49,19h1v1h-1zM65,19h1v1h-1zM66,19h1v1h-1zM67,19h1v1h-1zM68,19h1v1h-1zM69,19h1v1h-1zM70,19h1v1h-1zM71,19h1v1h-1zM72,19h1v1h-1zM73,19h1v1h-1zM90,19h1v1h-1zM91,19h1v1h-1zM92,19h1v1h-1zM93,19h1v1h-1zM94,19h1v1h-1zM95,19h1v1h-1zM96,19h1v1h-1zM97,19h1v1h-1zM110,19h1v1h-1zM111,19h1v1h-1zM112,19h1v1h-1zM113,19h1v1h-1zM114,19h1v1h-1zM115,19h1v1h-1zM116,19h1v1h-1zM117,19h1v1h-1zM150,19h1v1h-1zM151,19h1v1h-1zM152,19h1v1h-1zM153,19h1v1h-1zM154,19h1v1h-1zM155,19h1v1h-1zM156,19h1v1h-1zM157,19h1v1h-1zM158,19h1v1h-1zM1,20h1v1h-1zM2,20h1v1h-1zM3,20h1v1h-1zM4,20h1v1h-1zM5,20h1v1h-1zM6,20h1v1h-1zM7,20h1v1h-1zM8,20h1v1h-1zM42,20h1v1h-1zM43,20h1v1h-1zM44,20h1v1h-1zM45,20h1v1h-1zM46,20h1v1h-1zM47,20h1v1h-1zM48,20h1v1h-1zM49,20h1v1h-1zM50,20h1v1h-1zM66,20h1v1h-1zM67,20h1v1h-1zM68,20h1v1h-1zM69,20h1v1h-1zM70,20h1v1h-1zM71,20h1v1h-1zM72,20h1v1h-1zM73,20h1v1h-1zM89,20h1v1h-1zM90,20h1v1h-1zM91,20h1v1h-1zM92,20h1v1h-1zM93,20h1v1h-1zM94,20h1v1h-1zM95,20h1v1h-1zM96,20h1v1h-1zM109,20h1v1h-1zM110,20h1v1h-1zM111,20h1v1h-1zM112,20h1v1h-1zM113,20h1v1h-1zM114,20h1v1h-1zM115,20h1v1h-1zM116,20h1v1h-1zM117,20h1v1h-1zM151,20h1v1h-1zM152,20h1v1h-1zM153,20h1v1h-1zM154,20h1v1h-1zM155,20h1v1h-1zM156,20h1v1h-1zM157,20h1v1h-1zM158,20h1v1h-1zM1,21h1v1h-1zM2,21h1v1h-1zM3,21h1v1h-1zM4,21h1v1h-1zM5,21h1v1h-1zM6,21h1v1h-1zM7,21h1v1h-1zM8,21h1v1h-1zM42,21h1v1h-1zM43,21h1v1h-1zM44,21h1v1h-1zM45,21h1v1h-1zM46,21h1v1h-1zM47,21h1v1h-1zM48,21h1v1h-1zM49,21h1v1h-1zM50,21h1v1h-1zM66,21h1v1h-1zM67,21h1v1h-1zM68,21h1v1h-1zM69,21h1v1h-1zM70,21h1v1h-1zM71,21h1v1h-1zM72,21h1v1h-1zM73,21h1v1h-1zM74,21h1v1h-1zM89,21h1v1h-1zM90,21h1v1h-1zM91,21h1v1h-1zM92,21h1v1h-1zM93,21h1v1h-1zM94,21h1v1h-1zM95,21h1v1h-1zM96,21h1v1h-1zM109,21h1v1h-1zM110,21h1v1h-1zM111,21h1v1h-1zM112,21h1v1h-1zM113,21h1v1h-1zM114,21h1v1h-1zM115,21h1v1h-1zM116,21h1v1h-1zM117,21h1v1h-1zM151,21h1v1h-1zM152,21h1v1h-1zM153,21h1v1h-1zM154,21h1v1h-1zM155,21h1v1h-1zM156,21h1v1h-1zM157,21h1v1h-1zM158,21h1v1h-1zM1,22h1v1h-1zM2,22h1v1h-1zM3,22h1v1h-1zM4,22h1v1h-1zM5,22h1v1h-1zM6,22h1v1h-1zM7,22h1v1h-1zM8,22h1v1h-1zM42,22h1v1h-1zM43,22h1v1h-1zM44,22h1v1h-1zM45,22h1v1h-1zM46,22h1v1h-1zM47,22h1v1h-1zM48,22h1v1h-1zM49,22h1v1h-1zM50,22h1v1h-1zM66,22h1v1h-1zM67,22h1v1h-1zM68,22h1v1h-1zM69,22h1v1h-1zM70,22h1v1h-1zM71,22h1v1h-1zM72,22h1v1h-1zM73,22h1v1h-1zM74,22h1v1h-1zM88,22h1v1h-1zM89,22h1v1h-1zM90,22h1v1h-1zM91,22h1v1h-1zM92,22h1v1h-1zM93,22h1v1h-1zM94,22h1v1h-1zM95,22h1v1h-1zM96,22h1v1h-1zM109,22h1v1h-1zM110,22h1v1h-1zM111,22h1v1h-1zM112,22h1v1h-1zM113,22h1v1h-1zM114,22h1v1h-1zM115,22h1v1h-1zM116,22h1v1h-1zM117,22h1v1h-1zM151,22h1v1h-1zM152,22h1v1h-1zM153,22h1v1h-1zM154,22h1v1h-1zM155,22h1v1h-1zM156,22h1v1h-1zM157,22h1v1h-1zM158,22h1v1h-1zM1,23h1v1h-1zM2,23h1v1h-1zM3,23h1v1h-1zM4,23h1v1h-1zM5,23h1v1h-1zM6,23h1v1h-1zM7,23h1v1h-1zM8,23h1v1h-1zM42,23h1v1h-1zM43,23h1v1h-1zM44,23h1v1h-1zM45,23h1v1h-1zM46,23h1v1h-1zM47,23h1v1h-1zM48,23h1v1h-1zM49,23h1v1h-1zM50,23h1v1h-1zM67,23h1v1h-1zM68,23h1v1h-1zM69,23h1v1h-1zM70,23h1v1h-1zM71,23h1v1h-1zM72,23h1v1h-1zM73,23h1v1h-1zM74,23h1v1h-1zM75,23h1v1h-1zM88,23h1v1h-1zM89,23h1v1h-1zM90,23h1v1h-1zM91,23h1v1h-1zM92,23h1v1h-1zM93,23h1v1h-1zM94,23h1v1h-1zM95,23h1v1h-1zM109,23h1v1h-1zM110,23h1v1h-1zM111,23h1v1h-1zM112,23h1v1h-1zM113,23h1v1h-1zM114,23h1v1h-1zM115,23h1v1h-1zM116,23h1v1h-1zM117,23h1v1h-1zM151,23h1v1h-1zM152,23h1v1h-1zM153,23h1v1h-1zM154,23h1v1h-1zM155,23h1v1h-1zM156,23h1v1h-1zM157,23h1v1h-1zM158,23h1v1h-1zM0,24h1v1h-1zM1,24h1v1h-1zM2,24h1v1h-1zM3,24h1v1h-1zM4,24h1v1h-1zM5,24h1v1h-1zM6,24h1v1h-1zM7,24h1v1h-1zM8,24h1v1h-1zM42,24h1v1h-1zM43,24h1v1h-1zM44,24h1v1h-1zM45,24h1v1h-1zM46,24h1v1h-1zM47,24h1v1h-1zM48,24h1v1h-1zM49,24h1v1h-1zM50,24h1v1h-1zM67,24h1v1h-1zM68,24h1v1h-1zM69,24h1v1h-1zM70,24h1v1h-1zM71,24h1v1h-1zM72,24h1v1h-1zM73,24h1v1h-1zM74,24h1v1h-1zM75,24h1v1h-1zM88,24h1v1h-1zM89,24h1v1h-1zM90,24h1v1h-1zM91,24h1v1h-1zM92,24h1v1h-1zM93,24h1v1h-1zM94,24h1v1h-1zM95,24h1v1h-1zM109,24h1v1h-1zM110,24h1v1h-1zM111,24h1v1h-1zM112,24h1v1h-1zM113,24h1v1h-1zM114,24h1v1h-1zM115,24h1v1h-1zM116,24h1v1h-1zM117,24h1v1h-1zM151,24h1v1h-1zM152,24h1v1h-1zM153,24h1v1h-1zM154,24h1v1h-1zM155,24h1v1h-1zM156,24h1v1h-1zM157,24h1v1h-1zM158,24h1v1h-1zM0,25h1v1h-1zM1,25h1v1h-1zM2,25h1v1h-1zM3,25h1v1h-1zM4,25h1v1h-1zM5,25h1v1h-1zM6,25h1v1h-1zM7,25h1v1h-1zM8,25h1v1h-1zM42,25h1v1h-1zM43,25h1v1h-1zM44,25h1v1h-1zM45,25h1v1h-1zM46,25h1v1h-1zM47,25h1v1h-1zM48,25h1v1h-1zM49,25h1v1h-1zM50,25h1v1h-1zM68,25h1v1h-1zM69,25h1v1h-1zM70,25h1v1h-1zM71,25h1v1h-1zM72,25h1v1h-1zM73,25h1v1h-1zM74,25h1v1h-1zM75,25h1v1h-1zM76,25h1v1h-1zM87,25h1v1h-1zM88,25h1v1h-1zM89,25h1v1h-1zM90,25h1v1h-1zM91,25h1v1h-1zM92,25h1v1h-1zM93,25h1v1h-1zM94,25h1v1h-1zM109,25h1v1h-1zM110,25h1v1h-1zM111,25h1v1h-1zM112,25h1v1h-1zM113,25h1v1h-1zM114,25h1v1h-1zM115,25h1v1h-1zM116,25h1v1h-1zM117,25h1v1h-1zM151,25h1v1h-1zM152,25h1v1h-1zM153,25h1v1h-1zM154,25h1v1h-1zM155,25h1v1h-1zM156,25h1v1h-1zM157,25h1v1h-1zM158,25h1v1h-1zM1,26h1v1h-1zM2,26h1v1h-1zM3,26h1v1h-1zM4,26h1v1h-1zM5,26h1v1h-1zM6,26h1v1h-1zM7,26h1v1h-1zM8,26h1v1h-1zM42,26h1v1h-1zM43,26h1v1h-1zM44,26h1v1h-1zM45,26h1v1h-1zM46,26h1v1h-1zM47,26h1v1h-1zM48,26h1v1h-1zM49,26h1v1h-1zM50,26h1v1h-1zM68,26h1v1h-1zM69,26h1v1h-1zM70,26h1v1h-1zM71,26h1v1h-1zM72,26h1v1h-1zM73,26h1v1h-1zM74,26h1v1h-1zM75,26h1v1h-1zM76,26h1v1h-1zM87,26h1v1h-1zM88,26h1v1h-1zM89,26h1v1h-1zM90,26h1v1h-1zM91,26h1v1h-1zM92,26h1v1h-1zM93,26h1v1h-1zM94,26h1v1h-1zM109,26h1v1h-1zM110,26h1v1h-1zM111,26h1v1h-1zM112,26h1v1h-1zM113,26h1v1h-1zM114,26h1v1h-1zM115,26h1v1h-1zM116,26h1v1h-1zM117,26h1v1h-1zM151,26h1v1h-1zM152,26h1v1h-1zM153,26h1v1h-1zM154,26h1v1h-1zM155,26h1v1h-1zM156,26h1v1h-1zM157,26h1v1h-1zM158,26h1v1h-1zM1,27h1v1h-1zM2,27h1v1h-1zM3,27h1v1h-1zM4,27h1v1h-1zM5,27h1v1h-1zM6,27h1v1h-1zM7,27h1v1h-1zM8,27h1v1h-1zM42,27h1v1h-1zM43,27h1v1h-1zM44,27h1v1h-1zM45,27h1v1h-1zM46,27h1v1h-1zM47,27h1v1h-1zM48,27h1v1h-1zM49,27h1v1h-1zM50,27h1v1h-1zM69,27h1v1h-1zM70,27h1v1h-1zM71,27h1v1h-1zM72,27h1v1h-1zM73,27h1v1h-1zM74,27h1v1h-1zM75,27h1v1h-1zM76,27h1v1h-1zM86,27h1v1h-1zM87,27h1v1h-1zM88,27h1v1h-1zM89,27h1v1h-1zM90,27h1v1h-1zM91,27h1v1h-1zM92,27h1v1h-1zM93,27h1v1h-1zM109,27h1v1h-1zM110,27h1v1h-1zM111,27h1v1h-1zM112,27h1v1h-1zM113,27h1v1h-1zM114,27h1v1h-1zM115,27h1v1h-1zM116,27h1v1h-1zM117,27h1v1h-1zM151,27h1v1h-1zM152,27h1v1h-1zM153,27h1v1h-1zM154,27h1v1h-1zM155,27h1v1h-1zM156,27h1v1h-1zM157,27h1v1h-1zM158,27h1v1h-1zM1,28h1v1h-1zM2,28h1v1h-1zM3,28h1v1h-1zM4,28h1v1h-1zM5,28h1v1h-1zM6,28h1v1h-1zM7,28h1v1h-1zM8,28h1v1h-1zM42,28h1v1h-1zM43,28h1v1h-1zM44,28h1v1h-1zM45,28h1v1h-1zM46,28h1v1h-1zM47,28h1v1h-1zM48,28h1v1h-1zM49,28h1v1h-1zM50,28h1v1h-1zM69,28h1v1h-1zM70,28h1v1h-1zM71,28h1v1h-1zM72,28h1v1h-1zM73,28h1v1h-1zM74,28h1v1h-1zM75,28h1v1h-1zM76,28h1v1h-1zM77,28h1v1h-1zM86,28h1v1h-1zM87,28h1v1h-1zM88,28h1v1h-1zM89,28h1v1h-1zM90,28h1v1h-1zM91,28h1v1h-1zM92,28h1v1h-1zM93,28h1v1h-1zM109,28h1v1h-1zM110,28h1v1h-1zM111,28h1v1h-1zM112,28h1v1h-1zM113,28h1v1h-1zM114,28h1v1h-1zM115,28h1v1h-1zM116,28h1v1h-1zM117,28h1v1h-1zM151,28h1v1h-1zM152,28h1v1h-1zM153,28h1v1h-1zM154,28h1v1h-1zM155,28h1v1h-1zM156,28h1v1h-1zM157,28h1v1h-1zM158,28h1v1h-1zM1,29h1v1h-1zM2,29h1v1h-1zM3,29h1v1h-1zM4,29h1v1h-1zM5,29h1v1h-1zM6,29h1v1h-1zM7,29h1v1h-1zM8,29h1v1h-1zM9,29h1v1h-1zM42,29h1v1h-1zM43,29h1v1h-1zM44,29h1v1h-1zM45,29h1v1h-1zM46,29h1v1h-1zM47,29h1v1h-1zM48,29h1v1h-1zM49,29h1v1h-1zM70,29h1v1h-1zM71,29h1v1h-1zM72,29h1v1h-1zM73,29h1v1h-1zM74,29h1v1h-1zM75,29h1v1h-1zM76,29h1v1h-1zM77,29h1v1h-1zM86,29h1v1h-1zM87,29h1v1h-1zM88,29h1v1h-1zM89,29h1v1h-1zM90,29h1v1h-1zM91,29h1v1h-1zM92,29h1v1h-1zM110,29h1v1h-1zM111,29h1v1h-1zM112,29h1v1h-1zM113,29h1v1h-1zM114,29h1v1h-1zM115,29h1v1h-1zM116,29h1v1h-1zM117,29h1v1h-1zM150,29h1v1h-1zM151,29h1v1h-1zM152,29h1v1h-1zM153,29h1v1h-1zM154,29h1v1h-1zM155,29h1v1h-1zM156,29h1v1h-1zM157,29h1v1h-1zM158,29h1v1h-1zM1,30h1v1h-1zM2,30h1v1h-1zM3,30h1v1h-1zM4,30h1v1h-1zM5,30h1v1h-1zM6,30h1v1h-1zM7,30h1v1h-1zM8,30h1v1h-1zM9,30h1v1h-1zM42,30h1v1h-1zM43,30h1v1h-1zM44,30h1v1h-1zM45,30h1v1h-1zM46,30h1v1h-1zM47,30h1v1h-1zM48,30h1v1h-1zM49,30h1v1h-1zM70,30h1v1h-1zM71,30h1v1h-1zM72,30h1v1h-1zM73,30h1v1h-1zM74,30h1v1h-1zM75,30h1v1h-1zM76,30h1v1h-1zM77,30h1v1h-1zM78,30h1v1h-1zM85,30h1v1h-1zM86,30h1v1h-1zM87,30h1v1h-1zM88,30h1v1h-1zM89,30h1v1h-1zM90,30h1v1h-1zM91,30h1v1h-1zM92,30h1v1h-1zM110,30h1v1h-1zM111,30h1v1h-1zM112,30h1v1h-1zM113,30h1v1h-1zM114,30h1v1h-1zM115,30h1v1h-1zM116,30h1v1h-1zM117,30h1v1h-1zM150,30h1v1h-1zM151,30h1v1h-1zM152,30h1v1h-1zM153,30h1v1h-1zM154,30h1v1h-1zM155,30h1v1h-1zM156,30h1v1h-1zM157,30h1v1h-1zM158,30h1v1h-1zM2,31h1v1h-1zM3,31h1v1h-1zM4,31h1v1h-1zM5,31h1v1h-1zM6,31h1v1h-1zM7,31h1v1h-1zM8,31h1v1h-1zM9,31h1v1h-1zM41,31h1v1h-1zM42,31h1v1h-1zM43,31h1v1h-1zM44,31h1v1h-1zM45,31h1v1h-1zM46,31h1v1h-1zM47,31h1v1h-1zM48,31h1v1h-1zM49,31h1v1h-1zM70,31h1v1h-1zM71,31h1v1h-1zM72,31h1v1h-1zM73,31h1v1h-1zM74,31h1v1h-1zM75,31h1v1h-1zM76,31h1v1h-1zM77,31h1v1h-1zM78,31h1v1h-1zM85,31h1v1h-1zM86,31h1v1h-1zM87,31h1v1h-1zM88,31h1v1h-1zM89,31h1v1h-1zM90,31h1v1h-1zM91,31h1v1h-1zM92,31h1v1h-1zM110,31h1v1h-1zM111,31h1v1h-1zM112,31h1v1h-1zM113,31h1v1h-1zM114,31h1v1h-1zM115,31h1v1h-1zM116,31h1v1h-1zM117,31h1v1h-1zM118,31h1v1h-1zM150,31h1v1h-1zM151,31h1v1h-1zM152,31h1v1h-1zM153,31h1v1h-1zM154,31h1v1h-1zM155,31h1v1h-1zM156,31h1v1h-1zM157,31h1v1h-1zM2,32h1v1h-1zM3,32h1v1h-1zM4,32h1v1h-1zM5,32h1v1h-1zM6,32h1v1h-1zM7,32h1v1h-1zM8,32h1v1h-1zM9,32h1v1h-1zM10,32h1v1h-1zM41,32h1v1h-1zM42,32h1v1h-1zM43,32h1v1h-1zM44,32h1v1h-1zM45,32h1v1h-1zM46,32h1v1h-1zM47,32h1v1h-1zM48,32h1v1h-1zM49,32h1v1h-1zM71,32h1v1h-1zM72,32h1v1h-1zM73,32h1v1h-1zM74,32h1v1h-1zM75,32h1v1h-1zM76,32h1v1h-1zM77,32h1v1h-1zM78,32h1v1h-1zM79,32h1v1h-1zM84,32h1v1h-1zM85,32h1v1h-1zM86,32h1v1h-1zM87,32h1v1h-1zM88,32h1v1h-1zM89,32h1v1h-1zM90,32h1v1h-1zM91,32h1v1h-1zM110,32h1v1h-1zM111,32h1v1h-1zM112,32h1v1h-1zM113,32h1v1h-1zM114,32h1v1h-1zM115,32h1v1h-1zM116,32h1v1h-1zM117,32h1v1h-1zM118,32h1v1h-1zM149,32h1v1h-1zM150,32h1v1h-1zM151,32h1v1h-1zM152,32h1v1h-1zM153,32h1v1h-1zM154,32h1v1h-1zM155,32h1v1h-1zM156,32h1v1h-1zM157,32h1v1h-1zM2,33h1v1h-1zM3,33h1v1h-1zM4,33h1v1h-1zM5,33h1v1h-1zM6,33h1v1h-1zM7,33h1v1h-1zM8,33h1v1h-1zM9,33h1v1h-1zM10,33h1v1h-1zM40,33h1v1h-1zM41,33h1v1h-1zM42,33h1v1h-1zM43,33h1v1h-1zM44,33h1v1h-1zM45,33h1v1h-1zM46,33h1v1h-1zM47,33h1v1h-1zM48,33h1v1h-1zM71,33h1v1h-1zM72,33h1v1h-1zM73,33h1v1h-1zM74,33h1v1h-1zM75,33h1v1h-1zM76,33h1v1h-1zM77,33h1v1h-1zM78,33h1v1h-1zM79,33h1v1h-1zM84,33h1v1h-1zM85,33h1v1h-1zM86,33h1v1h-1zM87,33h1v1h-1zM88,33h1v1h-1zM89,33h1v1h-1zM90,33h1v1h-1zM91,33h1v1h-1zM111,33h1v1h-1zM112,33h1v1h-1zM113,33h1v1h-1zM114,33h1v1h-1zM115,33h1v1h-1zM116,33h1v1h-1zM117,33h1v1h-1zM118,33h1v1h-1zM119,33h1v1h-1zM149,33h1v1h-1zM150,33h1v1h-1zM151,33h1v1h-1zM152,33h1v1h-1zM153,33h1v1h-1zM154,33h1v1h-1zM155,33h1v1h-1zM156,33h1v1h-1zM157,33h1v1h-1zM3,34h1v1h-1zM4,34h1v1h-1zM5,34h1v1h-1zM6,34h1v1h-1zM7,34h1v1h-1zM8,34h1v1h-1zM9,34h1v1h-1zM10,34h1v1h-1zM11,34h1v1h-1zM40,34h1v1h-1zM41,34h1v1h-1zM42,34h1v1h-1zM43,34h1v1h-1zM44,34h1v1h-1zM45,34h1v1h-1zM46,34h1v1h-1zM47,34h1v1h-1zM48,34h1v1h-1zM72,34h1v1h-1zM73,34h1v1h-1zM74,34h1v1h-1zM75,34h1v1h-1zM76,34h1v1h-1zM77,34h1v1h-1zM78,34h1v1h-1zM79,34h1v1h-1zM83,34h1v1h-1zM84,34h1v1h-1zM85,34h1v1h-1zM86,34h1v1h-1zM87,34h1v1h-1zM88,34h1v1h-1zM89,34h1v1h-1zM90,34h1v1h-1zM111,34h1v1h-1zM112,34h1v1h-1zM113,34h1v1h-1zM114,34h1v1h-1zM115,34h1v1h-1zM116,34h1v1h-1zM117,34h1v1h-1zM118,34h1v1h-1zM119,34h1v1h-1zM148,34h1v1h-1zM149,34h1v1h-1zM150,34h1v1h-1zM151,34h1v1h-1zM152,34h1v1h-1zM153,34h1v1h-1zM154,34h1v1h-1zM155,34h1v1h-1zM156,34h1v1h-1zM3,35h1v1h-1zM4,35h1v1h-1zM5,35h1v1h-1zM6,35h1v1h-1zM7,35h1v1h-1zM8,35h1v1h-1zM9,35h1v1h-1zM10,35h1v1h-1zM11,35h1v1h-1zM12,35h1v1h-1zM39,35h1v1h-1zM40,35h1v1h-1zM41,35h1v1h-1zM42,35h1v1h-1zM43,35h1v1h-1zM44,35h1v1h-1zM45,35h1v1h-1zM46,35h1v1h-1zM47,35h1v1h-1zM72,35h1v1h-1zM73,35h1v1h-1zM74,35h1v1h-1zM75,35h1v1h-1zM76,35h1v1h-1zM77,35h1v1h-1zM78,35h1v1h-1zM79,35h1v1h-1zM80,35h1v1h-1zM83,35h1v1h-1zM84,35h1v1h-1zM85,35h1v1h-1zM86,35h1v1h-1zM87,35h1v1h-1zM88,35h1v1h-1zM89,35h1v1h-1zM90,35h1v1h-1zM112,35h1v1h-1zM113,35h1v1h-1zM114,35h1v1h-1zM115,35h1v1h-1zM116,35h1v1h-1zM117,35h1v1h-1zM118,35h1v1h-1zM119,35h1v1h-1zM120,35h1v1h-1zM147,35h1v1h-1zM148,35h1v1h-1zM149,35h1v1h-1zM150,35h1v1h-1zM151,35h1v1h-1zM152,35h1v1h-1zM153,35h1v1h-1zM154,35h1v1h-1zM155,35h1v1h-1zM156,35h1v1h-1zM4,36h1v1h-1zM5,36h1v1h-1zM6,36h1v1h-1zM7,36h1v1h-1zM8,36h1v1h-1zM9,36h1v1h-1zM10,36h1v1h-1zM11,36h1v1h-1zM12,36h1v1h-1zM13,36h1v1h-1zM38,36h1v1h-1zM39,36h1v1h-1zM40,36h1v1h-1zM41,36h1v1h-1zM42,36h1v1h-1zM43,36h1v1h-1zM44,36h1v1h-1zM45,36h1v1h-1zM46,36h1v1h-1zM47,36h1v1h-1zM73,36h1v1h-1zM74,36h1v1h-1zM75,36h1v1h-1zM76,36h1v1h-1zM77,36h1v1h-1zM78,36h1v1h-1zM79,36h1v1h-1zM80,36h1v1h-1zM82,36h1v1h-1zM83,36h1v1h-1zM84,36h1v1h-1zM85,36h1v1h-1zM86,36h1v1h-1zM87,36h1v1h-1zM88,36h1v1h-1zM89,36h1v1h-1zM112,36h1v1h-1zM113,36h1v1h-1zM114,36h1v1h-1zM115,36h1v1h-1zM116,36h1v1h-1zM117,36h1v1h-1zM118,36h1v1h-1zM119,36h1v1h-1zM120,36h1v1h-1zM121,36h1v1h-1zM146,36h1v1h-1zM147,36h1v1h-1zM148,36h1v1h-1zM149,36h1v1h-1zM150,36h1v1h-1zM151,36h1v1h-1zM152,36h1v1h-1zM153,36h1v1h-1zM154,36h1v1h-1zM155,36h1v1h-1zM4,37h1v1h-1zM5,37h1v1h-1zM6,37h1v1h-1zM7,37h1v1h-1zM8,37h1v1h-1zM9,37h1v1h-1zM10,37h1v1h-1zM11,37h1v1h-1zM12,37h1v1h-1zM13,37h1v1h-1zM14,37h1v1h-1zM37,37h1v1h-1zM38,37h1v1h-1zM39,37h1v1h-1zM40,37h1v1h-1zM41,37h1v1h-1zM42,37h1v1h-1zM43,37h1v1h-1zM44,37h1v1h-1zM45,37h1v1h-1zM46,37h1v1h-1zM73,37h1v1h-1zM74,37h1v1h-1zM75,37h1v1h-1zM76,37h1v1h-1zM77,37h1v1h-1zM78,37h1v1h-1zM79,37h1v1h-1zM80,37h1v1h-1zM81,37h1v1h-1zM82,37h1v1h-1zM83,37h1v1h-1zM84,37h1v1h-1zM85,37h1v1h-1zM86,37h1v1h-1zM87,37h1v1h-1zM88,37h1v1h-1zM89,37h1v1h-1zM113,37h1v1h-1zM114,37h1v1h-1zM115,37h1v1h-1zM116,37h1v1h-1zM117,37h1v1h-1zM118,37h1v1h-1zM119,37h1v1h-1zM120,37h1v1h-1zM121,37h1v1h-1zM122,37h1v1h-1zM145,37h1v1h-1zM146,37h1v1h-1zM147,37h1v1h-1zM148,37h1v1h-1zM149,37h1v1h-1zM150,37h1v1h-1zM151,37h1v1h-1zM152,37h1v1h-1zM153,37h1v1h-1zM154,37h1v1h-1zM155,37h1v1h-1zM5,38h1v1h-1zM6,38h1v1h-1zM7,38h1v1h-1zM8,38h1v1h-1zM9,38h1v1h-1zM10,38h1v1h-1zM11,38h1v1h-1zM12,38h1v1h-1zM13,38h1v1h-1zM14,38h1v1h-1zM15,38h1v1h-1zM36,38h1v1h-1zM37,38h1v1h-1zM38,38h1v1h-1zM39,38h1v1h-1zM40,38h1v1h-1zM41,38h1v1h-1zM42,38h1v1h-1zM43,38h1v1h-1zM44,38h1v1h-1zM45,38h1v1h-1zM74,38h1v1h-1zM75,38h1v1h-1zM76,38h1v1h-1zM77,38h1v1h-1zM78,38h1v1h-1zM79,38h1v1h-1zM80,38h1v1h-1zM81,38h1v1h-1zM82,38h1v1h-1zM83,38h1v1h-1zM84,38h1v1h-1zM85,38h1v1h-1zM86,38h1v1h-1zM87,38h1v1h-1zM88,38h1v1h-1zM113,38h1v1h-1zM114,38h1v1h-1zM115,38h1v1h-1zM116,38h1v1h-1zM117,38h1v1h-1zM118,38h1v1h-1zM119,38h1v1h-1zM120,38h1v1h-1zM121,38h1v1h-1zM122,38h1v1h-1zM123,38h1v1h-1zM144,38h1v1h-1zM145,38h1v1h-1zM146,38h1v1h-1zM147,38h1v1h-1zM148,38h1v1h-1zM149,38h1v1h-1zM150,38h1v1h-1zM151,38h1v1h-1zM152,38h1v1h-1zM153,38h1v1h-1zM154,38h1v1h-1zM6,39h1v1h-1zM7,39h1v1h-1zM8,39h1v1h-1zM9,39h1v1h-1zM10,39h1v1h-1zM11,39h1v1h-1zM12,39h1v1h-1zM13,39h1v1h-1zM14,39h1v1h-1zM15,39h1v1h-1zM16,39h1v1h-1zM34,39h1v1h-1zM35,39h1v1h-1zM36,39h1v1h-1zM37,39h1v1h-1zM38,39h1v1h-1zM39,39h1v1h-1zM40,39h1v1h-1zM41,39h1v1h-1zM42,39h1v1h-1zM43,39h1v1h-1zM44,39h1v1h-1zM45,39h1v1h-1zM74,39h1v1h-1zM75,39h1v1h-1zM76,39h1v1h-1zM77,39h1v1h-1zM78,39h1v1h-1zM79,39h1v1h-1zM80,39h1v1h-1zM81,39h1v1h-1zM82,39h1v1h-1zM83,39h1v1h-1zM84,39h1v1h-1zM85,39h1v1h-1zM86,39h1v1h-1zM87,39h1v1h-1zM88,39h1v1h-1zM114,39h1v1h-1zM115,39h1v1h-1zM116,39h1v1h-1zM117,39h1v1h-1zM118,39h1v1h-1zM119,39h1v1h-1zM120,39h1v1h-1zM121,39h1v1h-1zM122,39h1v1h-1zM123,39h1v1h-1zM124,39h1v1h-1zM125,39h1v1h-1zM143,39h1v1h-1zM144,39h1v1h-1zM145,39h1v1h-1zM146,39h1v1h-1zM147,39h1v1h-1zM148,39h1v1h-1zM149,39h1v1h-1zM150,39h1v1h-1zM151,39h1v1h-1zM152,39h1v1h-1zM153,39h1v1h-1zM7,40h1v1h-1zM8,40h1v1h-1zM9,40h1v1h-1zM10,40h1v1h-1zM11,40h1v1h-1zM12,40h1v1h-1zM13,40h1v1h-1zM14,40h1v1h-1zM15,40h1v1h-1zM16,40h1v1h-1zM17,40h1v1h-1zM18,40h1v1h-1zM32,40h1v1h-1zM33,40h1v1h-1zM34,40h1v1h-1zM35,40h1v1h-1zM36,40h1v1h-1zM37,40h1v1h-1zM38,40h1v1h-1zM39,40h1v1h-1zM40,40h1v1h-1zM41,40h1v1h-1zM42,40h1v1h-1zM43,40h1v1h-1zM44,40h1v1h-1zM75,40h1v1h-1zM76,40h1v1h-1zM77,40h1v1h-1zM78,40h1v1h-1zM79,40h1v1h-1zM80,40h1v1h-1zM81,40h1v1h-1zM82,40h1v1h-1zM83,40h1v1h-1zM84,40h1v1h-1zM85,40h1v1h-1zM86,40h1v1h-1zM87,40h1v1h-1zM88,40h1v1h-1zM115,40h1v1h-1zM116,40h1v1h-1zM117,40h1v1h-1zM118,40h1v1h-1zM119,40h1v1h-1zM120,40h1v1h-1zM121,40h1v1h-1zM122,40h1v1h-1zM123,40h1v1h-1zM124,40h1v1h-1zM125,40h1v1h-1zM126,40h1v1h-1zM127,40h1v1h-1zM141,40h1v1h-1zM142,40h1v1h-1zM143,40h1v1h-1zM144,40h1v1h-1zM145,40h1v1h-1zM146,40h1v1h-1zM147,40h1v1h-1zM148,40h1v1h-1zM149,40h1v1h-1zM150,40h1v1h-1zM151,40h1v1h-1zM152,40h1v1h-1zM8,41h1v1h-1zM9,41h1v1h-1zM10,41h1v1h-1zM11,41h1v1h-1zM12,41h1v1h-1zM13,41h1v1h-1zM14,41h1v1h-1zM15,41h1v1h-1zM16,41h1v1h-1zM17,41h1v1h-1zM18,41h1v1h-1zM19,41h1v1h-1zM20,41h1v1h-1zM21,41h1v1h-1zM29,41h1v1h-1zM30,41h1v1h-1zM31,41h1v1h-1zM32,41h1v1h-1zM33,41h1v1h-1zM34,41h1v1h-1zM35,41h1v1h-1zM36,41h1v1h-1zM37,41h1v1h-1zM38,41h1v1h-1zM39,41h1v1h-1zM40,41h1v1h-1zM41,41h1v1h-1zM42,41h1v1h-1zM43,41h1v1h-1zM75,41h1v1h-1zM76,41h1v1h-1zM77,41h1v1h-1zM78,41h1v1h-1zM79,41h1v1h-1zM80,41h1v1h-1zM81,41h1v1h-1zM82,41h1v1h-1zM83,41h1v1h-1zM84,41h1v1h-1zM85,41h1v1h-1zM86,41h1v1h-1zM87,41h1v1h-1zM116,41h1v1h-1zM117,41h1v1h-1zM118,41h1v1h-1zM119,41h1v1h-1zM120,41h1v1h-1zM121,41h1v1h-1zM122,41h1v1h-1zM123,41h1v1h-1zM124,41h1v1h-1zM125,41h1v1h-1zM126,41h1v1h-1zM127,41h1v1h-1zM128,41h1v1h-1zM129,41h1v1h-1zM130,41h1v1h-1zM138,41h1v1h-1zM139,41h1v1h-1zM140,41h1v1h-1zM141,41h1v1h-1zM142,41h1v1h-1zM143,41h1v1h-1zM144,41h1v1h-1zM145,41h1v1h-1zM146,41h1v1h-1zM147,41h1v1h-1zM148,41h1v1h-1zM149,41h1v1h-1zM150,41h1v1h-1zM151,41h1v1h-1zM9,42h1v1h-1zM10,42h1v1h-1zM11,42h1v1h-1zM12,42h1v1h-1zM13,42h1v1h-1zM14,42h1v1h-1zM15,42h1v1h-1zM16,42h1v1h-1zM17,42h1v1h-1zM18,42h1v1h-1zM19,42h1v1h-1zM20,42h1v1h-1zM21,42h1v1h-1zM22,42h1v1h-1zM23,42h1v1h-1zM24,42h1v1h-1zM25,42h1v1h-1zM26,42h1v1h-1zM27,42h1v1h-1zM28,42h1v1h-1zM29,42h1v1h-1zM30,42h1v1h-1zM31,42h1v1h-1zM32,42h1v1h-1zM33,42h1v1h-1zM34,42h1v1h-1zM35,42h1v1h-1zM36,42h1v1h-1zM37,42h1v1h-1zM38,42h1v1h-1zM39,42h1v1h-1zM40,42h1v1h-1zM41,42h1v1h-1zM42,42h1v1h-1zM75,42h1v1h-1zM76,42h1v1h-1zM77,42h1v1h-1zM78,42h1v1h-1zM79,42h1v1h-1zM80,42h1v1h-1zM81,42h1v1h-1zM82,42h1v1h-1zM83,42h1v1h-1zM84,42h1v1h-1zM85,42h1v1h-1zM86,42h1v1h-1zM87,42h1v1h-1zM117,42h1v1h-1zM118,42h1v1h-1zM119,42h1v1h-1zM120,42h1v1h-1zM121,42h1v1h-1zM122,42h1v1h-1zM123,42h1v1h-1zM124,42h1v1h-1zM125,42h1v1h-1zM126,42h1v1h-1zM127,42h1v1h-1zM128,42h1v1h-1zM129,42h1v1h-1zM130,42h1v1h-1zM131,42h1v1h-1zM132,42h1v1h-1zM133,42h1v1h-1zM134,42h1v1h-1zM135,42h1v1h-1zM136,42h1v1h-1zM137,42h1v1h-1zM138,42h1v1h-1zM139,42h1v1h-1zM140,42h1v1h-1zM141,42h1v1h-1zM142,42h1v1h-1zM143,42h1v1h-1zM144,42h1v1h-1zM145,42h1v1h-1zM146,42h1v1h-1zM147,42h1v1h-1zM148,42h1v1h-1zM149,42h1v1h-1zM150,42h1v1h-1zM10,43h1v1h-1zM11,43h1v1h-1zM12,43h1v1h-1zM13,43h1v1h-1zM14,43h1v1h-1zM15,43h1v1h-1zM16,43h1v1h-1zM17,43h1v1h-1zM18,43h1v1h-1zM19,43h1v1h-1zM20,43h1v1h-1zM21,43h1v1h-1zM22,43h1v1h-1zM23,43h1v1h-1zM24,43h1v1h-1zM25,43h1v1h-1zM26,43h1v1h-1zM27,43h1v1h-1zM28,43h1v1h-1zM29,43h1v1h-1zM30,43h1v1h-1zM31,43h1v1h-1zM32,43h1v1h-1zM33,43h1v1h-1zM34,43h1v1h-1zM35,43h1v1h-1zM36,43h1v1h-1zM37,43h1v1h-1zM38,43h1v1h-1zM39,43h1v1h-1zM40,43h1v1h-1zM76,43h1v1h-1zM77,43h1v1h-1zM78,43h1v1h-1zM79,43h1v1h-1zM80,43h1v1h-1zM81,43h1v1h-1zM82,43h1v1h-1zM83,43h1v1h-1zM84,43h1v1h-1zM85,43h1v1h-1zM86,43h1v1h-1zM118,43h1v1h-1zM119,43h1v1h-1zM120,43h1v1h-1zM121,43h1v1h-1zM122,43h1v1h-1zM123,43h1v1h-1zM124,43h1v1h-1zM125,43h1v1h-1zM126,43h1v1h-1zM127,43h1v1h-1zM128,43h1v1h-1zM129,43h1v1h-1zM130,43h1v1h-1zM131,43h1v1h-1zM132,43h1v1h-1zM133,43h1v1h-1zM134,43h1v1h-1zM135,43h1v1h-1zM136,43h1v1h-1zM137,43h1v1h-1zM138,43h1v1h-1zM139,43h1v1h-1zM140,43h1v1h-1zM141,43h1v1h-1zM142,43h1v1h-1zM143,43h1v1h-1zM144,43h1v1h-1zM145,43h1v1h-1zM146,43h1v1h-1zM147,43h1v1h-1zM148,43h1v1h-1zM149,43h1v1h-1zM11,44h1v1h-1zM12,44h1v1h-1zM13,44h1v1h-1zM14,44h1v1h-1zM15,44h1v1h-1zM16,44h1v1h-1zM17,44h1v1h-1zM18,44h1v1h-1zM19,44h1v1h-1zM20,44h1v1h-1zM21,44h1v1h-1zM22,44h1v1h-1zM23,44h1v1h-1zM24,44h1v1h-1zM25,44h1v1h-1zM26,44h1v1h-1zM27,44h1v1h-1zM28,44h1v1h-1zM29,44h1v1h-1zM30,44h1v1h-1zM31,44h1v1h-1zM32,44h1v1h-1zM33,44h1v1h-1zM34,44h1v1h-1zM35,44h1v1h-1zM36,44h1v1h-1zM37,44h1v1h-1zM38,44h1v1h-1zM39,44h1v1h-1zM76,44h1v1h-1zM77,44h1v1h-1zM78,44h1v1h-1zM79,44h1v1h-1zM80,44h1v1h-1zM81,44h1v1h-1zM82,44h1v1h-1zM83,44h1v1h-1zM84,44h1v1h-1zM85,44h1v1h-1zM86,44h1v1h-1zM120,44h1v1h-1zM121,44h1v1h-1zM122,44h1v1h-1zM123,44h1v1h-1zM124,44h1v1h-1zM125,44h1v1h-1zM126,44h1v1h-1zM127,44h1v1h-1zM128,44h1v1h-1zM129,44h1v1h-1zM130,44h1v1h-1zM131,44h1v1h-1zM132,44h1v1h-1zM133,44h1v1h-1zM134,44h1v1h-1zM135,44h1v1h-1zM136,44h1v1h-1zM137,44h1v1h-1zM138,44h1v1h-1zM139,44h1v1h-1zM140,44h1v1h-1zM141,44h1v1h-1zM142,44h1v1h-1zM143,44h1v1h-1zM144,44h1v1h-1zM145,44h1v1h-1zM146,44h1v1h-1zM147,44h1v1h-1zM148,44h1v1h-1zM13,45h1v1h-1zM14,45h1v1h-1zM15,45h1v1h-1zM16,45h1v1h-1zM17,45h1v1h-1zM18,45h1v1h-1zM19,45h1v1h-1zM20,45h1v1h-1zM21,45h1v1h-1zM22,45h1v1h-1zM23,45h1v1h-1zM24,45h1v1h-1zM25,45h1v1h-1zM26,45h1v1h-1zM27,45h1v1h-1zM28,45h1v1h-1zM29,45h1v1h-1zM30,45h1v1h-1zM31,45h1v1h-1zM32,45h1v1h-1zM33,45h1v1h-1zM34,45h1v1h-1zM35,45h1v1h-1zM36,45h1v1h-1zM37,45h1v1h-1zM77,45h1v1h-1zM78,45h1v1h-1zM79,45h1v1h-1zM80,45h1v1h-1zM81,45h1v1h-1zM82,45h1v1h-1zM83,45h1v1h-1zM84,45h1v1h-1zM85,45h1v1h-1zM122,45h1v1h-1zM123,45h1v1h-1zM124,45h1v1h-1zM125,45h1v1h-1zM126,45h1v1h-1zM127,45h1v1h-1zM128,45h1v1h-1zM129,45h1v1h-1zM130,45h1v1h-1zM131,45h1v1h-1zM132,45h1v1h-1zM133,45h1v1h-1zM134,45h1v1h-1zM135,45h1v1h-1zM136,45h1v1h-1zM137,45h1v1h-1zM138,45h1v1h-1zM139,45h1v1h-1zM140,45h1v1h-1zM141,45h1v1h-1zM142,45h1v1h-1zM143,45h1v1h-1zM144,45h1v1h-1zM145,45h1v1h-1zM146,45h1v1h-1zM15,46h1v1h-1zM16,46h1v1h-1zM17,46h1v1h-1zM18,46h1v1h-1zM19,46h1v1h-1zM20,46h1v1h-1zM21,46h1v1h-1zM22,46h1v1h-1zM23,46h1v1h-1zM24,46h1v1h-1zM25,46h1v1h-1zM26,46h1v1h-1zM27,46h1v1h-1zM28,46h1v1h-1zM29,46h1v1h-1zM30,46h1v1h-1zM31,46h1v1h-1zM32,46h1v1h-1zM33,46h1v1h-1zM34,46h1v1h-1zM35,46h1v1h-1zM36,46h1v1h-1zM78,46h1v1h-1zM79,46h1v1h-1zM80,46h1v1h-1zM81,46h1v1h-1zM82,46h1v1h-1zM83,46h1v1h-1zM84,46h1v1h-1zM85,46h1v1h-1zM124,46h1v1h-1zM125,46h1v1h-1zM126,46h1v1h-1zM127,46h1v1h-1zM128,46h1v1h-1zM129,46h1v1h-1zM130,46h1v1h-1zM131,46h1v1h-1zM132,46h1v1h-1zM133,46h1v1h-1zM134,46h1v1h-1zM135,46h1v1h-1zM136,46h1v1h-1zM137,46h1v1h-1zM138,46h1v1h-1zM139,46h1v1h-1zM140,46h1v1h-1zM141,46h1v1h-1zM142,46h1v1h-1zM143,46h1v1h-1zM144,46h1v1h-1zM17,47h1v1h-1zM18,47h1v1h-1zM19,47h1v1h-1zM20,47h1v1h-1zM21,47h1v1h-1zM22,47h1v1h-1zM23,47h1v1h-1zM24,47h1v1h-1zM25,47h1v1h-1zM26,47h1v1h-1zM27,47h1v1h-1zM28,47h1v1h-1zM29,47h1v1h-1zM30,47h1v1h-1zM31,47h1v1h-1zM32,47h1v1h-1zM33,47h1v1h-1zM79,47h1v1h-1zM80,47h1v1h-1zM81,47h1v1h-1zM82,47h1v1h-1zM83,47h1v1h-1zM84,47h1v1h-1zM126,47h1v1h-1zM127,47h1v1h-1zM128,47h1v1h-1zM129,47h1v1h-1zM130,47h1v1h-1zM131,47h1v1h-1zM132,47h1v1h-1zM133,47h1v1h-1zM134,47h1v1h-1zM135,47h1v1h-1zM136,47h1v1h-1zM137,47h1v1h-1zM138,47h1v1h-1zM139,47h1v1h-1zM140,47h1v1h-1zM141,47h1v1h-1zM21,48h1v1h-1zM22,48h1v1h-1zM23,48h1v1h-1zM24,48h1v1h-1zM25,48h1v1h-1zM26,48h1v1h-1zM27,48h1v1h-1zM28,48h1v1h-1zM29,48h1v1h-1zM81,48h1v1h-1zM82,48h1v1h-1zM83,48h1v1h-1zM84,48h1v1h-1zM130,48h1v1h-1zM131,48h1v1h-1zM132,48h1v1h-1zM133,48h1v1h-1zM134,48h1v1h-1zM135,48h1v1h-1zM136,48h1v1h-1zM137,48h1v1h-1z" fill="#4a1f8a" opacity="1.00"/>
  <path d="M26,0h1v1h-1zM18,1h1v1h-1zM116,7h1v1h-1zM32,8h1v1h-1zM115,8h1v1h-1zM127,8h1v1h-1zM34,9h1v1h-1zM15,10h1v1h-1zM47,12h1v1h-1zM12,13h1v1h-1zM100,13h1v1h-1zM65,20h1v1h-1zM69,29h1v1h-1zM85,29h1v1h-1zM93,29h1v1h-1zM41,30h1v1h-1zM118,30h1v1h-1zM80,34h1v1h-1zM22,41h1v1h-1zM137,41h1v1h-1zM41,43h1v1h-1zM38,45h1v1h-1zM121,45h1v1h-1zM123,46h1v1h-1z" fill="#4a1f8b" opacity="1.00"/>
  <path d="M27,0h1v1h-1zM134,0h1v1h-1zM42,6h1v1h-1zM117,6h1v1h-1zM137,7h1v1h-1zM4,11h1v1h-1zM41,18h1v1h-1zM64,18h1v1h-1zM118,18h1v1h-1zM97,20h1v1h-1zM0,23h1v1h-1zM6,40h1v1h-1zM8,42h1v1h-1zM85,47h1v1h-1zM30,48h1v1h-1z" fill="#4a1e8a" opacity="0.99"/>
  <path d="M28,0h1v1h-1zM63,16h1v1h-1zM40,32h1v1h-1zM119,32h1v1h-1zM90,36h1v1h-1zM20,48h1v1h-1z" fill="#491f89" opacity="0.97"/>
  <path d="M29,0h1v1h-1zM148,4h1v1h-1zM38,13h1v1h-1zM89,19h1v1h-1zM83,33h1v1h-1z" fill="#491f8a" opacity="0.91"/>
  <path d="M30,0h1v1h-1z" fill="#491f89" opacity="0.80"/>
  <path d="M31,0h1v1h-1z" fill="#4a1d89" opacity="0.61"/>
  <path d="M32,0h1v1h-1z" fill="#471d89" opacity="0.38"/>
  <path d="M33,0h1v1h-1z" fill="#4b1e87" opacity="0.13"/>
  <path d="M126,0h1v1h-1zM36,1h1v1h-1zM62,16h1v1h-1zM75,20h1v1h-1zM155,39h1v1h-1zM87,45h1v1h-1z" fill="#491886" opacity="0.08"/>
  <path d="M127,0h1v1h-1zM59,9h1v1h-1zM73,16h1v1h-1zM108,21h1v1h-1z" fill="#4a1e8a" opacity="0.30"/>
  <path d="M128,0h1v1h-1zM4,10h1v1h-1zM25,49h1v1h-1z" fill="#4a1e8a" opacity="0.53"/>
  <path d="M130,0h1v1h-1zM156,36h1v1h-1z" fill="#4a1f89" opacity="0.87"/>
  <path d="M131,0h1v1h-1zM126,1h1v1h-1zM41,5h1v1h-1zM67,25h1v1h-1zM3,36h1v1h-1z" fill="#491f8a" opacity="0.94"/>
  <path d="M132,0h1v1h-1zM33,1h1v1h-1zM54,2h1v1h-1zM54,3h1v1h-1zM146,3h1v1h-1zM11,4h1v1h-1zM54,4h1v1h-1zM54,5h1v1h-1zM54,6h1v1h-1zM28,7h1v1h-1zM54,7h1v1h-1zM131,7h1v1h-1zM55,8h1v1h-1zM56,8h1v1h-1zM57,8h1v1h-1zM58,8h1v1h-1zM70,8h1v1h-1zM71,8h1v1h-1zM72,8h1v1h-1zM73,8h1v1h-1zM74,8h1v1h-1zM88,8h1v1h-1zM89,8h1v1h-1zM90,8h1v1h-1zM91,8h1v1h-1zM92,8h1v1h-1zM94,27h1v1h-1zM78,29h1v1h-1zM23,41h1v1h-1zM136,41h1v1h-1zM80,48h1v1h-1zM84,49h1v1h-1z" fill="#4a1f8a" opacity="0.97"/>
  <path d="M133,0h1v1h-1zM93,8h1v1h-1zM45,9h1v1h-1zM14,11h1v1h-1zM101,11h1v1h-1zM145,11h1v1h-1zM146,12h1v1h-1zM39,14h1v1h-1zM120,14h1v1h-1zM90,17h1v1h-1z" fill="#4a1e8a" opacity="0.98"/>
  <path d="M136,0h1v1h-1zM144,2h1v1h-1zM35,10h1v1h-1zM98,18h1v1h-1zM10,31h1v1h-1zM149,31h1v1h-1zM40,44h1v1h-1z" fill="#4a1e8a" opacity="0.96"/>
  <path d="M137,0h1v1h-1zM24,7h1v1h-1z" fill="#491f89" opacity="0.90"/>
  <path d="M138,0h1v1h-1zM153,8h1v1h-1zM91,14h1v1h-1zM88,21h1v1h-1zM85,28h1v1h-1z" fill="#4a1e8a" opacity="0.79"/>
  <path d="M139,0h1v1h-1z" fill="#4a1e8a" opacity="0.61"/>
  <path d="M140,0h1v1h-1z" fill="#471f8a" opacity="0.39"/>
  <path d="M141,0h1v1h-1zM17,10h1v1h-1zM63,18h1v1h-1zM50,32h1v1h-1z" fill="#481a89" opacity="0.15"/>
  <path d="M15,1h1v1h-1zM48,12h1v1h-1zM17,38h1v1h-1zM142,38h1v1h-1z" fill="#471d8a" opacity="0.24"/>
  <path d="M16,1h1v1h-1zM141,9h1v1h-1z" fill="#491d88" opacity="0.62"/>
  <path d="M17,1h1v1h-1zM92,12h1v1h-1zM95,25h1v1h-1zM159,25h1v1h-1zM79,31h1v1h-1zM147,45h1v1h-1zM31,48h1v1h-1z" fill="#4a1f8a" opacity="0.91"/>
  <path d="M34,1h1v1h-1zM40,4h1v1h-1zM16,10h1v1h-1z" fill="#4a1e89" opacity="0.77"/>
  <path d="M35,1h1v1h-1zM45,8h1v1h-1z" fill="#4a1d89" opacity="0.41"/>
  <path d="M54,1h1v1h-1zM151,6h1v1h-1zM150,21h1v1h-1z" fill="#4a1e8a" opacity="0.76"/>
  <path d="M55,1h1v1h-1zM56,1h1v1h-1zM57,1h1v1h-1zM58,1h1v1h-1zM59,1h1v1h-1zM60,1h1v1h-1zM61,1h1v1h-1zM62,1h1v1h-1zM63,1h1v1h-1zM64,1h1v1h-1zM65,1h1v1h-1zM66,1h1v1h-1zM67,1h1v1h-1zM68,1h1v1h-1zM69,1h1v1h-1zM70,1h1v1h-1zM71,1h1v1h-1zM72,1h1v1h-1zM73,1h1v1h-1zM74,1h1v1h-1zM88,1h1v1h-1zM89,1h1v1h-1zM90,1h1v1h-1zM91,1h1v1h-1zM92,1h1v1h-1zM93,1h1v1h-1zM94,1h1v1h-1zM95,1h1v1h-1zM96,1h1v1h-1zM97,1h1v1h-1zM98,1h1v1h-1zM99,1h1v1h-1zM100,1h1v1h-1zM101,1h1v1h-1zM102,1h1v1h-1zM103,1h1v1h-1zM3,12h1v1h-1zM12,34h1v1h-1zM147,34h1v1h-1z" fill="#4a1f8a" opacity="0.78"/>
  <path d="M75,1h1v1h-1zM95,27h1v1h-1z" fill="#441188" opacity="0.06"/>
  <path d="M87,1h1v1h-1zM104,1h1v1h-1z" fill="#4a1e89" opacity="0.57"/>
  <path d="M123,1h1v1h-1zM151,5h1v1h-1zM31,49h1v1h-1z" fill="#401580" opacity="0.05"/>
  <path d="M124,1h1v1h-1zM156,37h1v1h-1zM36,47h1v1h-1z" fill="#491e89" opacity="0.33"/>
  <path d="M125,1h1v1h-1zM101,12h1v1h-1zM64,19h1v1h-1zM74,41h1v1h-1z" fill="#4a1e8a" opacity="0.69"/>
  <path d="M142,1h1v1h-1z" fill="#491e8a" opacity="0.81"/>
  <path d="M143,1h1v1h-1zM99,17h1v1h-1z" fill="#481e8a" opacity="0.47"/>
  <path d="M144,1h1v1h-1zM140,9h1v1h-1zM122,13h1v1h-1zM51,28h1v1h-1zM78,48h1v1h-1z" fill="#461f8b" opacity="0.13"/>
  <path d="M13,2h1v1h-1zM110,14h1v1h-1zM124,37h1v1h-1zM153,41h1v1h-1z" fill="#481d89" opacity="0.31"/>
  <path d="M14,2h1v1h-1zM60,10h1v1h-1z" fill="#491f89" opacity="0.78"/>
  <path d="M15,2h1v1h-1zM114,9h1v1h-1zM109,29h1v1h-1zM1,31h1v1h-1zM39,34h1v1h-1zM120,34h1v1h-1zM81,36h1v1h-1zM74,40h1v1h-1zM7,41h1v1h-1zM28,41h1v1h-1zM131,41h1v1h-1zM142,47h1v1h-1z" fill="#4a1f8a" opacity="0.99"/>
  <path d="M36,2h1v1h-1zM27,7h1v1h-1zM132,7h1v1h-1zM75,22h1v1h-1z" fill="#491e8a" opacity="0.93"/>
  <path d="M37,2h1v1h-1zM26,49h1v1h-1zM134,49h1v1h-1z" fill="#481e89" opacity="0.53"/>
  <path d="M38,2h1v1h-1zM92,10h1v1h-1zM145,47h1v1h-1z" fill="#471f8f" opacity="0.10"/>
  <path d="M75,2h1v1h-1zM75,3h1v1h-1zM75,4h1v1h-1zM75,5h1v1h-1zM75,6h1v1h-1zM75,7h1v1h-1z" fill="#511b86" opacity="0.07"/>
  <path d="M87,2h1v1h-1zM104,2h1v1h-1zM87,3h1v1h-1zM104,3h1v1h-1zM87,4h1v1h-1zM104,4h1v1h-1zM87,5h1v1h-1zM87,6h1v1h-1zM87,7h1v1h-1z" fill="#4a208a" opacity="0.73"/>
  <path d="M121,2h1v1h-1zM79,29h1v1h-1zM0,31h1v1h-1zM128,39h1v1h-1zM139,49h1v1h-1z" fill="#4b1e87" opacity="0.07"/>
  <path d="M122,2h1v1h-1zM43,6h1v1h-1zM114,8h1v1h-1z" fill="#491d89" opacity="0.45"/>
  <path d="M123,2h1v1h-1zM25,7h1v1h-1zM134,7h1v1h-1zM112,37h1v1h-1z" fill="#4a1f8a" opacity="0.88"/>
  <path d="M145,2h1v1h-1z" fill="#481e8b" opacity="0.64"/>
  <path d="M146,2h1v1h-1zM41,22h1v1h-1zM9,44h1v1h-1zM119,45h1v1h-1z" fill="#481c8b" opacity="0.18"/>
  <path d="M11,3h1v1h-1zM138,49h1v1h-1z" fill="#491f87" opacity="0.19"/>
  <path d="M12,3h1v1h-1z" fill="#4a1e89" opacity="0.75"/>
  <path d="M38,3h1v1h-1zM72,36h1v1h-1z" fill="#491e89" opacity="0.93"/>
  <path d="M39,3h1v1h-1zM148,16h1v1h-1z" fill="#481e89" opacity="0.43"/>
  <path d="M120,3h1v1h-1zM22,49h1v1h-1z" fill="#481e89" opacity="0.37"/>
  <path d="M121,3h1v1h-1zM7,7h1v1h-1zM26,7h1v1h-1zM133,7h1v1h-1zM36,11h1v1h-1zM50,19h1v1h-1z" fill="#491e8a" opacity="0.89"/>
  <path d="M147,3h1v1h-1z" fill="#481d8a" opacity="0.60"/>
  <path d="M148,3h1v1h-1zM39,32h1v1h-1zM120,32h1v1h-1zM76,46h1v1h-1z" fill="#451d89" opacity="0.10"/>
  <path d="M10,4h1v1h-1zM146,13h1v1h-1zM79,30h1v1h-1z" fill="#491d8a" opacity="0.48"/>
  <path d="M41,4h1v1h-1zM119,30h1v1h-1z" fill="#4b1f89" opacity="0.16"/>
  <path d="M118,4h1v1h-1zM7,6h1v1h-1z" fill="#471c87" opacity="0.14"/>
  <path d="M119,4h1v1h-1zM110,15h1v1h-1zM44,41h1v1h-1z" fill="#4a1e8a" opacity="0.73"/>
  <path d="M149,4h1v1h-1z" fill="#491d87" opacity="0.34"/>
  <path d="M8,5h1v1h-1z" fill="#432185" opacity="0.09"/>
  <path d="M42,5h1v1h-1zM137,49h1v1h-1z" fill="#4a1f87" opacity="0.33"/>
  <path d="M104,5h1v1h-1z" fill="#491e8a" opacity="0.69"/>
  <path d="M117,5h1v1h-1zM41,21h1v1h-1z" fill="#491d89" opacity="0.31"/>
  <path d="M118,5h1v1h-1zM31,40h1v1h-1zM128,40h1v1h-1zM24,41h1v1h-1zM135,41h1v1h-1z" fill="#4a1f8a" opacity="0.93"/>
  <path d="M149,5h1v1h-1zM89,38h1v1h-1zM138,48h1v1h-1z" fill="#491f8a" opacity="1.00"/>
  <path d="M150,5h1v1h-1zM63,17h1v1h-1zM78,28h1v1h-1z" fill="#4a1e8a" opacity="0.60"/>
  <path d="M8,6h1v1h-1zM126,9h1v1h-1zM159,26h1v1h-1z" fill="#4a1f89" opacity="0.85"/>
  <path d="M104,6h1v1h-1z" fill="#4a1c8b" opacity="0.35"/>
  <path d="M116,6h1v1h-1zM103,8h1v1h-1z" fill="#491e89" opacity="0.47"/>
  <path d="M152,6h1v1h-1zM153,7h1v1h-1zM147,46h1v1h-1z" fill="#431685" opacity="0.09"/>
  <path d="M6,7h1v1h-1zM142,10h1v1h-1zM158,15h1v1h-1zM80,49h1v1h-1z" fill="#451c8a" opacity="0.15"/>
  <path d="M22,7h1v1h-1z" fill="#4a1e8b" opacity="0.99"/>
  <path d="M44,7h1v1h-1zM13,13h1v1h-1z" fill="#4a1f8a" opacity="0.49"/>
  <path d="M103,7h1v1h-1zM123,11h1v1h-1zM159,23h1v1h-1zM48,35h1v1h-1zM154,39h1v1h-1zM150,43h1v1h-1zM128,48h1v1h-1z" fill="#4a1e8a" opacity="0.89"/>
  <path d="M115,7h1v1h-1z" fill="#491d8a" opacity="0.52"/>
  <path d="M135,7h1v1h-1zM128,8h1v1h-1zM87,43h1v1h-1z" fill="#491f8a" opacity="0.90"/>
  <path d="M152,7h1v1h-1z" fill="#4a1e89" opacity="0.82"/>
  <path d="M5,8h1v1h-1z" fill="#4a158a" opacity="0.09"/>
  <path d="M6,8h1v1h-1z" fill="#491e89" opacity="0.87"/>
  <path d="M19,8h1v1h-1zM140,8h1v1h-1zM124,10h1v1h-1zM155,11h1v1h-1zM153,40h1v1h-1zM151,42h1v1h-1zM119,44h1v1h-1zM12,45h1v1h-1zM125,47h1v1h-1z" fill="#4a1f8a" opacity="0.96"/>
  <path d="M20,8h1v1h-1z" fill="#491e8a" opacity="0.77"/>
  <path d="M21,8h1v1h-1zM91,35h1v1h-1z" fill="#491d89" opacity="0.48"/>
  <path d="M22,8h1v1h-1z" fill="#4a1d89" opacity="0.20"/>
  <path d="M23,8h1v1h-1zM50,16h1v1h-1z" fill="#3c1e87" opacity="0.07"/>
  <path d="M28,8h1v1h-1zM156,11h1v1h-1zM159,18h1v1h-1z" fill="#482087" opacity="0.13"/>
  <path d="M29,8h1v1h-1zM118,27h1v1h-1z" fill="#481d88" opacity="0.35"/>
  <path d="M30,8h1v1h-1zM129,8h1v1h-1zM45,40h1v1h-1z" fill="#4a1f8a" opacity="0.65"/>
  <path d="M31,8h1v1h-1z" fill="#4a1f8a" opacity="0.89"/>
  <path d="M59,8h1v1h-1zM13,12h1v1h-1zM74,20h1v1h-1zM9,28h1v1h-1zM150,28h1v1h-1zM35,38h1v1h-1zM124,38h1v1h-1zM17,39h1v1h-1zM142,39h1v1h-1zM14,46h1v1h-1z" fill="#4a1f8a" opacity="0.98"/>
  <path d="M75,8h1v1h-1zM47,10h1v1h-1zM147,15h1v1h-1zM67,27h1v1h-1z" fill="#431b86" opacity="0.07"/>
  <path d="M87,8h1v1h-1zM77,26h1v1h-1z" fill="#4a1f89" opacity="0.71"/>
  <path d="M130,8h1v1h-1z" fill="#481d8a" opacity="0.35"/>
  <path d="M131,8h1v1h-1z" fill="#461f83" opacity="0.13"/>
  <path d="M132,8h1v1h-1zM71,36h1v1h-1zM24,40h1v1h-1zM135,40h1v1h-1z" fill="#4d1a80" opacity="0.04"/>
  <path d="M136,8h1v1h-1z" fill="#3c0f87" opacity="0.07"/>
  <path d="M137,8h1v1h-1zM37,35h1v1h-1zM122,35h1v1h-1z" fill="#461e87" opacity="0.20"/>
  <path d="M138,8h1v1h-1zM132,49h1v1h-1z" fill="#481e89" opacity="0.47"/>
  <path d="M139,8h1v1h-1zM143,10h1v1h-1zM48,13h1v1h-1zM9,21h1v1h-1z" fill="#491e89" opacity="0.76"/>
  <path d="M5,9h1v1h-1zM159,27h1v1h-1z" fill="#4a1e89" opacity="0.76"/>
  <path d="M17,9h1v1h-1zM38,35h1v1h-1zM121,35h1v1h-1z" fill="#491e89" opacity="0.95"/>
  <path d="M18,9h1v1h-1z" fill="#4a1e8a" opacity="0.62"/>
  <path d="M19,9h1v1h-1z" fill="#491d83" opacity="0.14"/>
  <path d="M32,9h1v1h-1z" fill="#491d8a" opacity="0.38"/>
  <path d="M33,9h1v1h-1zM16,38h1v1h-1zM143,38h1v1h-1zM19,48h1v1h-1z" fill="#491f8a" opacity="0.85"/>
  <path d="M46,9h1v1h-1z" fill="#481c87" opacity="0.25"/>
  <path d="M54,9h1v1h-1zM55,9h1v1h-1zM56,9h1v1h-1zM57,9h1v1h-1zM58,9h1v1h-1zM71,9h1v1h-1zM72,9h1v1h-1zM73,9h1v1h-1zM74,9h1v1h-1zM88,9h1v1h-1zM89,9h1v1h-1zM90,9h1v1h-1zM91,9h1v1h-1zM92,9h1v1h-1zM71,11h1v1h-1zM36,12h1v1h-1zM40,18h1v1h-1zM23,40h1v1h-1zM136,40h1v1h-1zM150,44h1v1h-1zM20,49h1v1h-1z" fill="#491b89" opacity="0.11"/>
  <path d="M70,9h1v1h-1zM118,21h1v1h-1z" fill="#481f8b" opacity="0.32"/>
  <path d="M87,9h1v1h-1zM12,15h1v1h-1zM51,20h1v1h-1zM114,41h1v1h-1z" fill="#4d1a8c" opacity="0.08"/>
  <path d="M93,9h1v1h-1zM157,14h1v1h-1zM124,47h1v1h-1z" fill="#491e8a" opacity="0.71"/>
  <path d="M102,9h1v1h-1zM111,35h1v1h-1z" fill="#491e8b" opacity="0.95"/>
  <path d="M103,9h1v1h-1zM27,40h1v1h-1zM132,40h1v1h-1z" fill="#471c80" opacity="0.07"/>
  <path d="M113,9h1v1h-1zM111,12h1v1h-1zM112,38h1v1h-1z" fill="#481f8a" opacity="0.29"/>
  <path d="M127,9h1v1h-1z" fill="#4a1c8a" opacity="0.39"/>
  <path d="M154,9h1v1h-1zM79,48h1v1h-1z" fill="#4a1e89" opacity="0.66"/>
  <path d="M34,10h1v1h-1zM108,25h1v1h-1zM135,49h1v1h-1z" fill="#491e8a" opacity="0.49"/>
  <path d="M46,10h1v1h-1z" fill="#4a1e8b" opacity="0.89"/>
  <path d="M70,10h1v1h-1z" fill="#481f89" opacity="0.65"/>
  <path d="M102,10h1v1h-1z" fill="#481d8a" opacity="0.58"/>
  <path d="M112,10h1v1h-1zM115,42h1v1h-1z" fill="#471f85" opacity="0.10"/>
  <path d="M113,10h1v1h-1z" fill="#4a1e8a" opacity="0.92"/>
  <path d="M125,10h1v1h-1zM92,11h1v1h-1zM89,18h1v1h-1zM75,21h1v1h-1zM108,24h1v1h-1zM67,26h1v1h-1z" fill="#491e88" opacity="0.51"/>
  <path d="M155,10h1v1h-1z" fill="#471f88" opacity="0.42"/>
  <path d="M3,11h1v1h-1zM154,40h1v1h-1z" fill="#481d8c" opacity="0.21"/>
  <path d="M15,11h1v1h-1zM10,18h1v1h-1z" fill="#491d8a" opacity="0.55"/>
  <path d="M35,11h1v1h-1zM41,26h1v1h-1zM118,26h1v1h-1zM77,47h1v1h-1z" fill="#481d87" opacity="0.21"/>
  <path d="M47,11h1v1h-1z" fill="#4a1f89" opacity="0.64"/>
  <path d="M60,11h1v1h-1zM65,22h1v1h-1zM70,33h1v1h-1zM121,46h1v1h-1z" fill="#4a1f8a" opacity="0.33"/>
  <path d="M70,11h1v1h-1zM46,38h1v1h-1z" fill="#4a1e89" opacity="0.98"/>
  <path d="M102,11h1v1h-1z" fill="#4a1b8d" opacity="0.15"/>
  <path d="M112,11h1v1h-1z" fill="#491f8a" opacity="0.68"/>
  <path d="M124,11h1v1h-1z" fill="#4a1c86" opacity="0.22"/>
  <path d="M144,11h1v1h-1z" fill="#491e88" opacity="0.54"/>
  <path d="M14,12h1v1h-1zM11,16h1v1h-1zM109,17h1v1h-1zM29,40h1v1h-1zM130,40h1v1h-1zM81,49h1v1h-1z" fill="#491e89" opacity="0.44"/>
  <path d="M37,12h1v1h-1z" fill="#4a1e89" opacity="0.87"/>
  <path d="M61,12h1v1h-1z" fill="#4a1e8a" opacity="0.86"/>
  <path d="M71,12h1v1h-1z" fill="#491e89" opacity="0.53"/>
  <path d="M122,12h1v1h-1zM110,33h1v1h-1zM83,49h1v1h-1z" fill="#4a1f8a" opacity="0.87"/>
  <path d="M123,12h1v1h-1zM119,18h1v1h-1z" fill="#461a8d" opacity="0.11"/>
  <path d="M145,12h1v1h-1z" fill="#491e88" opacity="0.43"/>
  <path d="M156,12h1v1h-1z" fill="#4a1f8a" opacity="0.69"/>
  <path d="M2,13h1v1h-1z" fill="#471e88" opacity="0.34"/>
  <path d="M37,13h1v1h-1z" fill="#4a198c" opacity="0.12"/>
  <path d="M61,13h1v1h-1zM72,14h1v1h-1zM66,24h1v1h-1zM41,44h1v1h-1z" fill="#481d89" opacity="0.42"/>
  <path d="M71,13h1v1h-1zM10,17h1v1h-1z" fill="#491f8a" opacity="0.93"/>
  <path d="M72,13h1v1h-1z" fill="#461774" opacity="0.04"/>
  <path d="M91,13h1v1h-1zM159,19h1v1h-1zM96,24h1v1h-1z" fill="#4a1e89" opacity="0.36"/>
  <path d="M101,13h1v1h-1z" fill="#482087" opacity="0.25"/>
  <path d="M111,13h1v1h-1zM109,30h1v1h-1zM10,44h1v1h-1z" fill="#4a1f89" opacity="0.82"/>
  <path d="M121,13h1v1h-1zM86,26h1v1h-1zM37,36h1v1h-1zM122,36h1v1h-1zM26,41h1v1h-1zM133,41h1v1h-1z" fill="#4a1f8a" opacity="0.92"/>
  <path d="M157,13h1v1h-1z" fill="#491e86" opacity="0.23"/>
  <path d="M2,14h1v1h-1z" fill="#4a1f8b" opacity="0.81"/>
  <path d="M12,14h1v1h-1z" fill="#491f8a" opacity="0.69"/>
  <path d="M38,14h1v1h-1zM93,31h1v1h-1z" fill="#491f87" opacity="0.26"/>
  <path d="M49,14h1v1h-1zM81,34h1v1h-1zM21,49h1v1h-1z" fill="#491c8a" opacity="0.25"/>
  <path d="M62,14h1v1h-1zM1,17h1v1h-1z" fill="#4a1e8a" opacity="0.93"/>
  <path d="M100,14h1v1h-1zM80,33h1v1h-1z" fill="#491e8a" opacity="0.80"/>
  <path d="M121,14h1v1h-1z" fill="#461e85" opacity="0.27"/>
  <path d="M147,14h1v1h-1z" fill="#481d89" opacity="0.68"/>
  <path d="M1,15h1v1h-1z" fill="#4a1d88" opacity="0.24"/>
  <path d="M11,15h1v1h-1zM40,16h1v1h-1zM119,16h1v1h-1zM36,37h1v1h-1zM123,37h1v1h-1zM145,46h1v1h-1zM139,48h1v1h-1z" fill="#4a1f8a" opacity="0.94"/>
  <path d="M39,15h1v1h-1z" fill="#4a1e8a" opacity="0.56"/>
  <path d="M49,15h1v1h-1zM127,48h1v1h-1z" fill="#491e8a" opacity="0.67"/>
  <path d="M62,15h1v1h-1zM40,17h1v1h-1zM141,48h1v1h-1z" fill="#491e8a" opacity="0.51"/>
  <path d="M72,15h1v1h-1z" fill="#491f89" opacity="0.85"/>
  <path d="M90,15h1v1h-1zM87,22h1v1h-1zM84,29h1v1h-1zM142,48h1v1h-1z" fill="#491b89" opacity="0.22"/>
  <path d="M100,15h1v1h-1zM80,32h1v1h-1z" fill="#481e88" opacity="0.36"/>
  <path d="M120,15h1v1h-1zM9,25h1v1h-1zM150,25h1v1h-1z" fill="#491d89" opacity="0.58"/>
  <path d="M148,15h1v1h-1z" fill="#4a1f89" opacity="0.93"/>
  <path d="M1,16h1v1h-1z" fill="#491d89" opacity="0.62"/>
  <path d="M49,16h1v1h-1z" fill="#491f8b" opacity="0.98"/>
  <path d="M90,16h1v1h-1zM87,23h1v1h-1zM158,32h1v1h-1z" fill="#491d8a" opacity="0.65"/>
  <path d="M99,16h1v1h-1zM33,39h1v1h-1zM126,39h1v1h-1z" fill="#491e89" opacity="0.90"/>
  <path d="M109,16h1v1h-1zM41,23h1v1h-1zM118,23h1v1h-1z" fill="#461a84" opacity="0.11"/>
  <path d="M120,16h1v1h-1zM11,31h1v1h-1zM148,31h1v1h-1zM44,42h1v1h-1z" fill="#442288" opacity="0.06"/>
  <path d="M158,16h1v1h-1zM11,32h1v1h-1z" fill="#491d89" opacity="0.52"/>
  <path d="M50,17h1v1h-1z" fill="#481e8c" opacity="0.37"/>
  <path d="M73,17h1v1h-1z" fill="#491e8a" opacity="0.74"/>
  <path d="M89,17h1v1h-1z" fill="#4e1690" opacity="0.09"/>
  <path d="M119,17h1v1h-1z" fill="#4a1d8a" opacity="0.51"/>
  <path d="M149,17h1v1h-1z" fill="#4a1e8b" opacity="0.92"/>
  <path d="M158,17h1v1h-1zM143,47h1v1h-1z" fill="#4a1f8a" opacity="0.84"/>
  <path d="M0,18h1v1h-1z" fill="#4b1f88" opacity="0.23"/>
  <path d="M50,18h1v1h-1zM9,26h1v1h-1zM13,46h1v1h-1z" fill="#491f89" opacity="0.65"/>
  <path d="M74,18h1v1h-1zM118,22h1v1h-1zM36,36h1v1h-1zM123,36h1v1h-1z" fill="#471b88" opacity="0.18"/>
  <path d="M99,18h1v1h-1zM110,35h1v1h-1zM116,43h1v1h-1zM16,48h1v1h-1z" fill="#40208f" opacity="0.06"/>
  <path d="M109,18h1v1h-1zM18,39h1v1h-1z" fill="#4a1f8a" opacity="0.72"/>
  <path d="M149,18h1v1h-1z" fill="#481d8a" opacity="0.55"/>
  <path d="M0,19h1v1h-1z" fill="#491e8a" opacity="0.46"/>
  <path d="M10,19h1v1h-1z" fill="#492089" opacity="0.22"/>
  <path d="M41,19h1v1h-1z" fill="#4a1f89" opacity="0.77"/>
  <path d="M74,19h1v1h-1zM159,28h1v1h-1z" fill="#4a1f8b" opacity="0.62"/>
  <path d="M98,19h1v1h-1z" fill="#4a1d89" opacity="0.58"/>
  <path d="M118,19h1v1h-1zM65,21h1v1h-1z" fill="#491f8a" opacity="0.78"/>
  <path d="M149,19h1v1h-1z" fill="#462086" opacity="0.22"/>
  <path d="M0,20h1v1h-1z" fill="#4a1e8a" opacity="0.66"/>
  <path d="M64,20h1v1h-1z" fill="#471d86" opacity="0.24"/>
  <path d="M88,20h1v1h-1zM85,27h1v1h-1z" fill="#481e8b" opacity="0.36"/>
  <path d="M98,20h1v1h-1zM108,20h1v1h-1zM68,29h1v1h-1zM34,48h1v1h-1z" fill="#4a1b86" opacity="0.15"/>
  <path d="M118,20h1v1h-1z" fill="#481d8a" opacity="0.51"/>
  <path d="M159,20h1v1h-1z" fill="#4a1f8a" opacity="0.56"/>
  <path d="M0,21h1v1h-1zM96,23h1v1h-1z" fill="#491f8b" opacity="0.81"/>
  <path d="M51,21h1v1h-1zM74,42h1v1h-1z" fill="#491e8a" opacity="0.23"/>
  <path d="M97,21h1v1h-1z" fill="#491e8a" opacity="0.70"/>
  <path d="M159,21h1v1h-1z" fill="#491f8a" opacity="0.71"/>
  <path d="M0,22h1v1h-1zM159,24h1v1h-1z" fill="#4a1f89" opacity="0.92"/>
  <path d="M9,22h1v1h-1z" fill="#491e8a" opacity="0.63"/>
  <path d="M51,22h1v1h-1z" fill="#4a1e88" opacity="0.34"/>
  <path d="M97,22h1v1h-1z" fill="#471f89" opacity="0.25"/>
  <path d="M108,22h1v1h-1z" fill="#492088" opacity="0.41"/>
  <path d="M150,22h1v1h-1z" fill="#491e8b" opacity="0.63"/>
  <path d="M159,22h1v1h-1zM115,41h1v1h-1zM122,46h1v1h-1z" fill="#491f8a" opacity="0.82"/>
  <path d="M9,23h1v1h-1zM150,23h1v1h-1z" fill="#491e89" opacity="0.56"/>
  <path d="M51,23h1v1h-1z" fill="#4a1e8b" opacity="0.40"/>
  <path d="M66,23h1v1h-1zM157,34h1v1h-1z" fill="#4a1e8a" opacity="0.87"/>
  <path d="M76,23h1v1h-1z" fill="#481f89" opacity="0.39"/>
  <path d="M108,23h1v1h-1z" fill="#491f8a" opacity="0.48"/>
  <path d="M9,24h1v1h-1zM150,24h1v1h-1z" fill="#4a1f89" opacity="0.55"/>
  <path d="M41,24h1v1h-1zM118,24h1v1h-1z" fill="#4c1c84" opacity="0.11"/>
  <path d="M51,24h1v1h-1z" fill="#4a1e89" opacity="0.43"/>
  <path d="M76,24h1v1h-1z" fill="#4a1f8a" opacity="0.83"/>
  <path d="M86,24h1v1h-1z" fill="#46238b" opacity="0.09"/>
  <path d="M87,24h1v1h-1z" fill="#4a1f8b" opacity="0.99"/>
  <path d="M41,25h1v1h-1zM118,25h1v1h-1z" fill="#461783" opacity="0.13"/>
  <path d="M51,25h1v1h-1z" fill="#4a1f8a" opacity="0.42"/>
  <path d="M77,25h1v1h-1zM149,29h1v1h-1z" fill="#4a1e89" opacity="0.27"/>
  <path d="M86,25h1v1h-1zM83,32h1v1h-1zM111,36h1v1h-1z" fill="#4a1e89" opacity="0.50"/>
  <path d="M51,26h1v1h-1z" fill="#4b1e8b" opacity="0.36"/>
  <path d="M95,26h1v1h-1z" fill="#491d88" opacity="0.48"/>
  <path d="M108,26h1v1h-1z" fill="#49208b" opacity="0.44"/>
  <path d="M150,26h1v1h-1z" fill="#491e89" opacity="0.66"/>
  <path d="M0,27h1v1h-1z" fill="#4a1e8a" opacity="0.85"/>
  <path d="M9,27h1v1h-1zM150,27h1v1h-1z" fill="#4a1e89" opacity="0.80"/>
  <path d="M41,27h1v1h-1z" fill="#481d87" opacity="0.35"/>
  <path d="M51,27h1v1h-1z" fill="#471e87" opacity="0.27"/>
  <path d="M78,27h1v1h-1z" fill="#441f89" opacity="0.16"/>
  <path d="M108,27h1v1h-1z" fill="#48208b" opacity="0.35"/>
  <path d="M0,28h1v1h-1z" fill="#491e89" opacity="0.72"/>
  <path d="M41,28h1v1h-1zM118,28h1v1h-1z" fill="#491d89" opacity="0.55"/>
  <path d="M68,28h1v1h-1zM146,35h1v1h-1zM73,39h1v1h-1zM86,46h1v1h-1zM18,48h1v1h-1z" fill="#491e89" opacity="0.60"/>
  <path d="M94,28h1v1h-1z" fill="#491f8a" opacity="0.59"/>
  <path d="M108,28h1v1h-1zM19,39h1v1h-1zM140,39h1v1h-1z" fill="#471c89" opacity="0.21"/>
  <path d="M0,29h1v1h-1z" fill="#4a1e8b" opacity="0.54"/>
  <path d="M10,29h1v1h-1zM85,49h1v1h-1z" fill="#4b1e8b" opacity="0.27"/>
  <path d="M41,29h1v1h-1zM118,29h1v1h-1z" fill="#4a1f8a" opacity="0.82"/>
  <path d="M94,29h1v1h-1z" fill="#431b86" opacity="0.15"/>
  <path d="M108,29h1v1h-1zM1,34h1v1h-1zM111,37h1v1h-1zM45,41h1v1h-1zM43,43h1v1h-1z" fill="#46178b" opacity="0.04"/>
  <path d="M159,29h1v1h-1z" fill="#4a1d8a" opacity="0.44"/>
  <path d="M0,30h1v1h-1z" fill="#471f87" opacity="0.33"/>
  <path d="M10,30h1v1h-1zM34,38h1v1h-1z" fill="#481e89" opacity="0.61"/>
  <path d="M40,30h1v1h-1z" fill="#491e86" opacity="0.16"/>
  <path d="M50,30h1v1h-1z" fill="#491e89" opacity="0.73"/>
  <path d="M69,30h1v1h-1z" fill="#491f89" opacity="0.69"/>
  <path d="M84,30h1v1h-1z" fill="#491e89" opacity="0.64"/>
  <path d="M93,30h1v1h-1z" fill="#491e89" opacity="0.70"/>
  <path d="M149,30h1v1h-1z" fill="#4a1e89" opacity="0.61"/>
  <path d="M159,30h1v1h-1z" fill="#481b8b" opacity="0.22"/>
  <path d="M40,31h1v1h-1zM119,31h1v1h-1zM113,39h1v1h-1zM21,40h1v1h-1z" fill="#491e8a" opacity="0.57"/>
  <path d="M50,31h1v1h-1z" fill="#471e8a" opacity="0.46"/>
  <path d="M69,31h1v1h-1z" fill="#481e8c" opacity="0.24"/>
  <path d="M83,31h1v1h-1z" fill="#4a208a" opacity="0.09"/>
  <path d="M109,31h1v1h-1z" fill="#491f8a" opacity="0.55"/>
  <path d="M1,32h1v1h-1zM114,40h1v1h-1zM75,43h1v1h-1zM39,45h1v1h-1zM120,45h1v1h-1z" fill="#491f8a" opacity="0.75"/>
  <path d="M70,32h1v1h-1zM4,38h1v1h-1z" fill="#491e8a" opacity="0.78"/>
  <path d="M92,32h1v1h-1z" fill="#4a1f89" opacity="0.81"/>
  <path d="M109,32h1v1h-1z" fill="#461d88" opacity="0.24"/>
  <path d="M148,32h1v1h-1z" fill="#491d8b" opacity="0.52"/>
  <path d="M1,33h1v1h-1z" fill="#4a1f8a" opacity="0.39"/>
  <path d="M11,33h1v1h-1zM148,33h1v1h-1z" fill="#4b1f8a" opacity="0.96"/>
  <path d="M12,33h1v1h-1zM147,33h1v1h-1zM4,39h1v1h-1zM129,49h1v1h-1z" fill="#491d8a" opacity="0.14"/>
  <path d="M39,33h1v1h-1zM120,33h1v1h-1z" fill="#491d89" opacity="0.65"/>
  <path d="M49,33h1v1h-1z" fill="#491e8a" opacity="0.79"/>
  <path d="M92,33h1v1h-1z" fill="#491e8a" opacity="0.37"/>
  <path d="M158,33h1v1h-1z" fill="#481c8a" opacity="0.29"/>
  <path d="M2,34h1v1h-1z" fill="#491f8a" opacity="0.95"/>
  <path d="M38,34h1v1h-1zM121,34h1v1h-1z" fill="#4a1c88" opacity="0.35"/>
  <path d="M49,34h1v1h-1z" fill="#4a1d8b" opacity="0.38"/>
  <path d="M71,34h1v1h-1z" fill="#491e89" opacity="0.86"/>
  <path d="M82,34h1v1h-1z" fill="#491f89" opacity="0.36"/>
  <path d="M91,34h1v1h-1z" fill="#4a1f89" opacity="0.90"/>
  <path d="M110,34h1v1h-1z" fill="#4a1e8b" opacity="0.47"/>
  <path d="M2,35h1v1h-1z" fill="#4a1e8b" opacity="0.53"/>
  <path d="M13,35h1v1h-1z" fill="#491e8a" opacity="0.60"/>
  <path d="M71,35h1v1h-1z" fill="#4b1d89" opacity="0.42"/>
  <path d="M81,35h1v1h-1z" fill="#4a1f89" opacity="0.69"/>
  <path d="M82,35h1v1h-1z" fill="#4a1e89" opacity="0.79"/>
  <path d="M157,35h1v1h-1z" fill="#491f89" opacity="0.42"/>
  <path d="M2,36h1v1h-1zM91,36h1v1h-1z" fill="#471c8e" opacity="0.07"/>
  <path d="M14,36h1v1h-1zM145,36h1v1h-1z" fill="#481f89" opacity="0.55"/>
  <path d="M48,36h1v1h-1z" fill="#481e88" opacity="0.40"/>
  <path d="M3,37h1v1h-1z" fill="#4a1e8a" opacity="0.44"/>
  <path d="M15,37h1v1h-1zM144,37h1v1h-1z" fill="#481e89" opacity="0.66"/>
  <path d="M35,37h1v1h-1z" fill="#4a1d88" opacity="0.31"/>
  <path d="M47,37h1v1h-1z" fill="#491e89" opacity="0.80"/>
  <path d="M90,37h1v1h-1z" fill="#491e8a" opacity="0.59"/>
  <path d="M33,38h1v1h-1z" fill="#4e1489" opacity="0.05"/>
  <path d="M47,38h1v1h-1z" fill="#471f8a" opacity="0.20"/>
  <path d="M72,38h1v1h-1z" fill="#491892" opacity="0.08"/>
  <path d="M73,38h1v1h-1z" fill="#491f8a" opacity="0.97"/>
  <path d="M90,38h1v1h-1z" fill="#461a86" opacity="0.16"/>
  <path d="M125,38h1v1h-1z" fill="#481e8a" opacity="0.61"/>
  <path d="M155,38h1v1h-1z" fill="#4a1f8b" opacity="0.68"/>
  <path d="M31,39h1v1h-1z" fill="#4b0f87" opacity="0.07"/>
  <path d="M32,39h1v1h-1zM27,49h1v1h-1z" fill="#491f89" opacity="0.49"/>
  <path d="M46,39h1v1h-1z" fill="#491c8a" opacity="0.46"/>
  <path d="M89,39h1v1h-1zM149,44h1v1h-1z" fill="#4a1e89" opacity="0.71"/>
  <path d="M127,39h1v1h-1z" fill="#491e88" opacity="0.49"/>
  <path d="M141,39h1v1h-1z" fill="#491f8b" opacity="0.71"/>
  <path d="M5,40h1v1h-1zM29,49h1v1h-1z" fill="#491e8b" opacity="0.30"/>
  <path d="M20,40h1v1h-1zM139,40h1v1h-1z" fill="#491f8a" opacity="0.84"/>
  <path d="M22,40h1v1h-1zM137,40h1v1h-1z" fill="#4a1c8a" opacity="0.28"/>
  <path d="M28,40h1v1h-1z" fill="#471b8d" opacity="0.18"/>
  <path d="M73,40h1v1h-1z" fill="#482189" opacity="0.15"/>
  <path d="M131,40h1v1h-1z" fill="#451b8a" opacity="0.19"/>
  <path d="M138,40h1v1h-1z" fill="#491e88" opacity="0.57"/>
  <path d="M6,41h1v1h-1z" fill="#491d8a" opacity="0.41"/>
  <path d="M25,41h1v1h-1zM134,41h1v1h-1z" fill="#4a1f89" opacity="0.91"/>
  <path d="M88,41h1v1h-1z" fill="#4a1f8a" opacity="0.81"/>
  <path d="M7,42h1v1h-1z" fill="#4a1d8a" opacity="0.42"/>
  <path d="M43,42h1v1h-1z" fill="#491e89" opacity="0.74"/>
  <path d="M88,42h1v1h-1z" fill="#481d8a" opacity="0.38"/>
  <path d="M116,42h1v1h-1z" fill="#4a1e8a" opacity="0.80"/>
  <path d="M152,42h1v1h-1z" fill="#481c87" opacity="0.32"/>
  <path d="M8,43h1v1h-1z" fill="#4a1c87" opacity="0.33"/>
  <path d="M42,43h1v1h-1z" fill="#491e89" opacity="0.63"/>
  <path d="M117,43h1v1h-1zM76,45h1v1h-1z" fill="#4a1e8a" opacity="0.67"/>
  <path d="M151,43h1v1h-1z" fill="#461a88" opacity="0.23"/>
  <path d="M75,44h1v1h-1z" fill="#4a1d8c" opacity="0.24"/>
  <path d="M87,44h1v1h-1z" fill="#481f8a" opacity="0.49"/>
  <path d="M118,44h1v1h-1z" fill="#481d8a" opacity="0.44"/>
  <path d="M10,45h1v1h-1z" fill="#3b1489" opacity="0.05"/>
  <path d="M40,45h1v1h-1zM14,47h1v1h-1z" fill="#4a1c88" opacity="0.18"/>
  <path d="M86,45h1v1h-1z" fill="#4a1e89" opacity="0.96"/>
  <path d="M148,45h1v1h-1z" fill="#4a1d89" opacity="0.38"/>
  <path d="M12,46h1v1h-1zM86,47h1v1h-1zM30,49h1v1h-1z" fill="#491e8c" opacity="0.16"/>
  <path d="M37,46h1v1h-1z" fill="#4a1e8a" opacity="0.84"/>
  <path d="M38,46h1v1h-1z" fill="#491d8a" opacity="0.34"/>
  <path d="M77,46h1v1h-1z" fill="#491e8a" opacity="0.90"/>
  <path d="M146,46h1v1h-1z" fill="#4a1e89" opacity="0.53"/>
  <path d="M15,47h1v1h-1z" fill="#491f8b" opacity="0.58"/>
  <path d="M16,47h1v1h-1z" fill="#491f89" opacity="0.92"/>
  <path d="M34,47h1v1h-1z" fill="#4a1f89" opacity="0.98"/>
  <path d="M35,47h1v1h-1z" fill="#4a1f8a" opacity="0.74"/>
  <path d="M78,47h1v1h-1z" fill="#4a1e89" opacity="0.91"/>
  <path d="M123,47h1v1h-1z" fill="#491e88" opacity="0.30"/>
  <path d="M144,47h1v1h-1z" fill="#4a1f89" opacity="0.46"/>
  <path d="M17,48h1v1h-1z" fill="#4a1d8b" opacity="0.31"/>
  <path d="M32,48h1v1h-1z" fill="#491d89" opacity="0.71"/>
  <path d="M33,48h1v1h-1z" fill="#471e8a" opacity="0.44"/>
  <path d="M85,48h1v1h-1z" fill="#491f89" opacity="0.71"/>
  <path d="M125,48h1v1h-1z" fill="#4a218c" opacity="0.12"/>
  <path d="M126,48h1v1h-1z" fill="#491e88" opacity="0.40"/>
  <path d="M140,48h1v1h-1z" fill="#4a1e8a" opacity="0.77"/>
  <path d="M23,49h1v1h-1z" fill="#491e88" opacity="0.46"/>
  <path d="M24,49h1v1h-1z" fill="#4a1f8a" opacity="0.51"/>
  <path d="M28,49h1v1h-1z" fill="#481f89" opacity="0.42"/>
  <path d="M82,49h1v1h-1z" fill="#491e89" opacity="0.69"/>
  <path d="M130,49h1v1h-1z" fill="#491d8a" opacity="0.27"/>
  <path d="M131,49h1v1h-1z" fill="#471c8a" opacity="0.39"/>
  <path d="M133,49h1v1h-1z" fill="#491f89" opacity="0.52"/>
  <path d="M136,49h1v1h-1z" fill="#491e8a" opacity="0.43"/>
</svg>