<svg xmlns="http://www.w3.org/2000/svg" viewBox="0 0 160 36" width="100%" height="100%">
  <path d="M143,0h1v1h-1z" fill="#0099cc" opacity="0.06"/>
  <path d="M144,0h1v1h-1z" fill="#009edb" opacity="0.25"/>
  <path d="M145,0h1v1h-1z" fill="#009dda" opacity="0.59"/>
  <path d="M146,0h1v1h-1z" fill="#009cd9" opacity="0.82"/>
  <path d="M147,0h1v1h-1z" fill="#009ad7" opacity="0.15"/>
  <path d="M142,1h1v1h-1z" fill="#009cd8" opacity="0.23"/>
  <path d="M143,1h1v1h-1z" fill="#009dd9" opacity="0.72"/>
  <path d="M144,1h1v1h-1zM133,14h1v1h-1z" fill="#009dda" opacity="0.96"/>
  <path d="M145,1h1v1h-1zM149,19h1v1h-1z" fill="#009eda" opacity="1.00"/>
  <path d="M146,1h1v1h-1zM146,7h1v1h-1z" fill="#009dd9" opacity="0.91"/>
  <path d="M147,1h1v1h-1z" fill="#00a1d9" opacity="0.11"/>
  <path d="M141,2h1v1h-1z" fill="#009edb" opacity="0.16"/>
  <path d="M142,2h1v1h-1z" fill="#009dda" opacity="0.94"/>
  <path d="M143,2h1v1h-1zM144,2h1v1h-1zM145,2h1v1h-1zM142,3h1v1h-1zM143,3h1v1h-1zM144,3h1v1h-1zM145,3h1v1h-1zM141,4h1v1h-1zM142,4h1v1h-1zM143,4h1v1h-1zM144,4h1v1h-1zM145,4h1v1h-1zM141,5h1v1h-1zM142,5h1v1h-1zM143,5h1v1h-1zM144,5h1v1h-1zM145,5h1v1h-1zM141,6h1v1h-1zM142,6h1v1h-1zM143,6h1v1h-1zM144,6h1v1h-1zM145,6h1v1h-1zM141,7h1v1h-1zM142,7h1v1h-1zM143,7h1v1h-1zM144,7h1v1h-1zM145,7h1v1h-1zM141,8h1v1h-1zM142,8h1v1h-1zM143,8h1v1h-1zM144,8h1v1h-1zM145,8h1v1h-1zM141,9h1v1h-1zM142,9h1v1h-1zM143,9h1v1h-1zM144,9h1v1h-1zM145,9h1v1h-1zM141,10h1v1h-1zM142,10h1v1h-1zM143,10h1v1h-1zM144,10h1v1h-1zM145,10h1v1h-1zM141,11h1v1h-1zM142,11h1v1h-1zM143,11h1v1h-1zM144,11h1v1h-1zM145,11h1v1h-1zM141,12h1v1h-1zM142,12h1v1h-1zM143,12h1v1h-1zM144,12h1v1h-1zM145,12h1v1h-1zM146,12h1v1h-1zM141,13h1v1h-1zM142,13h1v1h-1zM143,13h1v1h-1zM144,13h1v1h-1zM145,13h1v1h-1zM146,13h1v1h-1zM134,14h1v1h-1zM135,14h1v1h-1zM136,14h1v1h-1zM137,14h1v1h-1zM138,14h1v1h-1zM141,14h1v1h-1zM142,14h1v1h-1zM143,14h1v1h-1zM144,14h1v1h-1zM145,14h1v1h-1zM146,14h1v1h-1zM137,15h1v1h-1zM138,15h1v1h-1zM139,15h1v1h-1zM140,15h1v1h-1zM141,15h1v1h-1zM142,15h1v1h-1zM143,15h1v1h-1zM144,15h1v1h-1zM145,15h1v1h-1zM146,15h1v1h-1zM147,15h1v1h-1zM138,16h1v1h-1zM139,16h1v1h-1zM140,16h1v1h-1zM141,16h1v1h-1zM142,16h1v1h-1zM143,16h1v1h-1zM144,16h1v1h-1zM145,16h1v1h-1zM146,16h1v1h-1zM147,16h1v1h-1zM139,17h1v1h-1zM140,17h1v1h-1zM141,17h1v1h-1zM142,17h1v1h-1zM143,17h1v1h-1zM144,17h1v1h-1zM145,17h1v1h-1zM146,17h1v1h-1zM147,17h1v1h-1zM148,17h1v1h-1zM140,18h1v1h-1zM141,18h1v1h-1zM142,18h1v1h-1zM143,18h1v1h-1zM144,18h1v1h-1zM145,18h1v1h-1zM146,18h1v1h-1zM147,18h1v1h-1zM148,18h1v1h-1zM143,19h1v1h-1zM144,19h1v1h-1zM145,19h1v1h-1zM146,19h1v1h-1zM147,19h1v1h-1zM148,19h1v1h-1zM146,20h1v1h-1zM147,20h1v1h-1zM148,20h1v1h-1zM149,20h1v1h-1zM150,21h1v1h-1z" fill="#009dda" opacity="1.00"/>
  <path d="M146,2h1v1h-1z" fill="#009dda" opacity="0.90"/>
  <path d="M147,2h1v1h-1zM145,21h1v1h-1z" fill="#009bde" opacity="0.09"/>
  <path d="M140,3h1v1h-1z" fill="#0099d9" opacity="0.24"/>
  <path d="M141,3h1v1h-1z" fill="#009dd9" opacity="0.95"/>
  <path d="M146,3h1v1h-1zM136,15h1v1h-1z" fill="#009dda" opacity="0.89"/>
  <path d="M147,3h1v1h-1z" fill="#0099dd" opacity="0.06"/>
  <path d="M157,3h1v1h-1z" fill="#009fca" opacity="0.09"/>
  <path d="M158,3h1v1h-1z" fill="#0095bf" opacity="0.19"/>
  <path d="M159,3h1v1h-1z" fill="#0095c0" opacity="0.25"/>
  <path d="M139,4h1v1h-1zM134,13h1v1h-1zM154,24h1v1h-1z" fill="#0099e6" opacity="0.04"/>
  <path d="M140,4h1v1h-1z" fill="#009ddb" opacity="0.69"/>
  <path d="M146,4h1v1h-1zM146,5h1v1h-1zM146,6h1v1h-1z" fill="#009cda" opacity="0.89"/>
  <path d="M147,4h1v1h-1zM147,5h1v1h-1zM147,6h1v1h-1z" fill="#0092c8" opacity="0.05"/>
  <path d="M153,4h1v1h-1z" fill="#008bb9" opacity="0.04"/>
  <path d="M154,4h1v1h-1z" fill="#0099c4" opacity="0.25"/>
  <path d="M155,4h1v1h-1z" fill="#0098c2" opacity="0.55"/>
  <path d="M156,4h1v1h-1z" fill="#0098c2" opacity="0.82"/>
  <path d="M157,4h1v1h-1z" fill="#0099c2" opacity="0.90"/>
  <path d="M158,4h1v1h-1z" fill="#0099c1" opacity="0.91"/>
  <path d="M159,4h1v1h-1z" fill="#0098c0" opacity="0.38"/>
  <path d="M139,5h1v1h-1z" fill="#0099d6" opacity="0.10"/>
  <path d="M140,5h1v1h-1z" fill="#009dda" opacity="0.91"/>
  <path d="M150,5h1v1h-1z" fill="#0095bf" opacity="0.09"/>
  <path d="M151,5h1v1h-1z" fill="#0099c2" opacity="0.29"/>
  <path d="M152,5h1v1h-1z" fill="#009ac2" opacity="0.59"/>
  <path d="M153,5h1v1h-1z" fill="#0098c1" opacity="0.93"/>
  <path d="M154,5h1v1h-1zM155,5h1v1h-1zM156,5h1v1h-1zM152,6h1v1h-1zM153,6h1v1h-1zM154,6h1v1h-1zM155,6h1v1h-1zM156,6h1v1h-1zM150,7h1v1h-1zM151,7h1v1h-1zM152,7h1v1h-1zM153,7h1v1h-1zM154,7h1v1h-1zM155,7h1v1h-1zM150,8h1v1h-1zM151,8h1v1h-1zM152,8h1v1h-1zM153,8h1v1h-1zM154,8h1v1h-1zM150,9h1v1h-1zM151,9h1v1h-1zM152,9h1v1h-1zM153,9h1v1h-1zM150,10h1v1h-1zM151,10h1v1h-1zM152,10h1v1h-1zM150,11h1v1h-1zM151,11h1v1h-1zM152,11h1v1h-1zM150,12h1v1h-1zM151,12h1v1h-1zM150,13h1v1h-1zM150,14h1v1h-1z" fill="#0099c2" opacity="1.00"/>
  <path d="M157,5h1v1h-1z" fill="#0099c2" opacity="0.99"/>
  <path d="M158,5h1v1h-1z" fill="#0098c2" opacity="0.60"/>
  <path d="M159,5h1v1h-1z" fill="#00a2d1" opacity="0.04"/>
  <path d="M139,6h1v1h-1z" fill="#009bdb" opacity="0.11"/>
  <path d="M140,6h1v1h-1z" fill="#009dda" opacity="0.95"/>
  <path d="M148,6h1v1h-1z" fill="#0078a5" opacity="0.07"/>
  <path d="M149,6h1v1h-1z" fill="#0097bf" opacity="0.50"/>
  <path d="M150,6h1v1h-1z" fill="#0099c1" opacity="0.80"/>
  <path d="M151,6h1v1h-1z" fill="#0099c2" opacity="0.97"/>
  <path d="M157,6h1v1h-1z" fill="#009ac2" opacity="0.65"/>
  <path d="M158,6h1v1h-1z" fill="#008eb8" opacity="0.07"/>
  <path d="M139,7h1v1h-1zM155,24h1v1h-1z" fill="#009dd8" opacity="0.10"/>
  <path d="M140,7h1v1h-1z" fill="#009cda" opacity="0.92"/>
  <path d="M147,7h1v1h-1z" fill="#0080ab" opacity="0.39"/>
  <path d="M148,7h1v1h-1z" fill="#007aa5" opacity="0.96"/>
  <path d="M149,7h1v1h-1zM149,8h1v1h-1zM149,9h1v1h-1zM149,10h1v1h-1z" fill="#0095be" opacity="1.00"/>
  <path d="M156,7h1v1h-1z" fill="#0099c2" opacity="0.74"/>
  <path d="M157,7h1v1h-1z" fill="#0088bb" opacity="0.06"/>
  <path d="M139,8h1v1h-1z" fill="#0094d7" opacity="0.07"/>
  <path d="M140,8h1v1h-1z" fill="#009cda" opacity="0.83"/>
  <path d="M146,8h1v1h-1z" fill="#009ad6" opacity="0.99"/>
  <path d="M147,8h1v1h-1z" fill="#007daa" opacity="0.98"/>
  <path d="M148,8h1v1h-1zM148,9h1v1h-1zM148,10h1v1h-1zM148,11h1v1h-1zM148,12h1v1h-1zM148,13h1v1h-1zM148,14h1v1h-1z" fill="#007ba5" opacity="1.00"/>
  <path d="M155,8h1v1h-1z" fill="#0099c2" opacity="0.89"/>
  <path d="M156,8h1v1h-1z" fill="#0098c3" opacity="0.18"/>
  <path d="M140,9h1v1h-1z" fill="#009dda" opacity="0.60"/>
  <path d="M146,9h1v1h-1z" fill="#009ad5" opacity="1.00"/>
  <path d="M147,9h1v1h-1z" fill="#007fac" opacity="1.00"/>
  <path d="M154,9h1v1h-1z" fill="#0099c2" opacity="0.93"/>
  <path d="M155,9h1v1h-1z" fill="#0097bf" opacity="0.13"/>
  <path d="M77,10h1v1h-1zM63,31h1v1h-1zM119,31h1v1h-1zM45,33h1v1h-1z" fill="#373737" opacity="0.36"/>
  <path d="M78,10h1v1h-1zM79,10h1v1h-1zM107,10h1v1h-1zM108,10h1v1h-1zM6,20h1v1h-1zM72,34h1v1h-1z" fill="#383838" opacity="0.55"/>
  <path d="M80,10h1v1h-1zM9,17h1v1h-1zM103,24h1v1h-1zM61,28h1v1h-1zM68,32h1v1h-1zM10,33h1v1h-1zM10,34h1v1h-1z" fill="#383838" opacity="0.43"/>
  <path d="M106,10h1v1h-1zM124,17h1v1h-1zM89,23h1v1h-1z" fill="#2a2a2a" opacity="0.07"/>
  <path d="M109,10h1v1h-1zM41,22h1v1h-1z" fill="#373737" opacity="0.54"/>
  <path d="M110,10h1v1h-1zM98,17h1v1h-1zM123,18h1v1h-1zM27,24h1v1h-1z" fill="#353535" opacity="0.19"/>
  <path d="M140,10h1v1h-1zM147,21h1v1h-1z" fill="#009cdb" opacity="0.42"/>
  <path d="M146,10h1v1h-1z" fill="#009ad6" opacity="1.00"/>
  <path d="M147,10h1v1h-1z" fill="#0082b0" opacity="1.00"/>
  <path d="M153,10h1v1h-1z" fill="#0099c1" opacity="0.94"/>
  <path d="M154,10h1v1h-1z" fill="#0099c3" opacity="0.33"/>
  <path d="M77,11h1v1h-1zM77,12h1v1h-1zM77,13h1v1h-1zM77,14h1v1h-1zM77,15h1v1h-1zM77,16h1v1h-1zM77,17h1v1h-1zM77,18h1v1h-1zM77,19h1v1h-1zM87,19h1v1h-1zM77,20h1v1h-1zM77,21h1v1h-1zM77,22h1v1h-1zM77,23h1v1h-1zM99,23h1v1h-1zM77,24h1v1h-1zM77,25h1v1h-1zM77,26h1v1h-1zM77,27h1v1h-1zM127,27h1v1h-1zM77,28h1v1h-1zM77,29h1v1h-1zM77,30h1v1h-1z" fill="#383838" opacity="0.67"/>
  <path d="M78,11h1v1h-1zM79,11h1v1h-1zM107,11h1v1h-1zM108,11h1v1h-1zM78,12h1v1h-1zM79,12h1v1h-1zM107,12h1v1h-1zM108,12h1v1h-1zM3,13h1v1h-1zM4,13h1v1h-1zM78,13h1v1h-1zM79,13h1v1h-1zM107,13h1v1h-1zM108,13h1v1h-1zM3,14h1v1h-1zM4,14h1v1h-1zM78,14h1v1h-1zM79,14h1v1h-1zM107,14h1v1h-1zM108,14h1v1h-1zM3,15h1v1h-1zM4,15h1v1h-1zM78,15h1v1h-1zM79,15h1v1h-1zM107,15h1v1h-1zM108,15h1v1h-1zM3,16h1v1h-1zM4,16h1v1h-1zM78,16h1v1h-1zM79,16h1v1h-1zM107,16h1v1h-1zM108,16h1v1h-1zM3,17h1v1h-1zM4,17h1v1h-1zM29,17h1v1h-1zM30,17h1v1h-1zM31,17h1v1h-1zM32,17h1v1h-1zM65,17h1v1h-1zM66,17h1v1h-1zM67,17h1v1h-1zM78,17h1v1h-1zM79,17h1v1h-1zM93,17h1v1h-1zM94,17h1v1h-1zM107,17h1v1h-1zM108,17h1v1h-1zM128,17h1v1h-1zM129,17h1v1h-1zM130,17h1v1h-1zM131,17h1v1h-1zM0,18h1v1h-1zM1,18h1v1h-1zM2,18h1v1h-1zM3,18h1v1h-1zM4,18h1v1h-1zM5,18h1v1h-1zM6,18h1v1h-1zM7,18h1v1h-1zM8,18h1v1h-1zM13,18h1v1h-1zM14,18h1v1h-1zM19,18h1v1h-1zM20,18h1v1h-1zM27,18h1v1h-1zM28,18h1v1h-1zM29,18h1v1h-1zM30,18h1v1h-1zM31,18h1v1h-1zM32,18h1v1h-1zM33,18h1v1h-1zM34,18h1v1h-1zM41,18h1v1h-1zM42,18h1v1h-1zM53,18h1v1h-1zM54,18h1v1h-1zM55,18h1v1h-1zM63,18h1v1h-1zM64,18h1v1h-1zM65,18h1v1h-1zM66,18h1v1h-1zM67,18h1v1h-1zM68,18h1v1h-1zM69,18h1v1h-1zM78,18h1v1h-1zM79,18h1v1h-1zM90,18h1v1h-1zM91,18h1v1h-1zM92,18h1v1h-1zM93,18h1v1h-1zM94,18h1v1h-1zM95,18h1v1h-1zM96,18h1v1h-1zM97,18h1v1h-1zM107,18h1v1h-1zM108,18h1v1h-1zM117,18h1v1h-1zM118,18h1v1h-1zM119,18h1v1h-1zM126,18h1v1h-1zM127,18h1v1h-1zM128,18h1v1h-1zM129,18h1v1h-1zM130,18h1v1h-1zM131,18h1v1h-1zM132,18h1v1h-1zM0,19h1v1h-1zM1,19h1v1h-1zM2,19h1v1h-1zM3,19h1v1h-1zM4,19h1v1h-1zM5,19h1v1h-1zM6,19h1v1h-1zM7,19h1v1h-1zM8,19h1v1h-1zM13,19h1v1h-1zM14,19h1v1h-1zM17,19h1v1h-1zM18,19h1v1h-1zM19,19h1v1h-1zM20,19h1v1h-1zM26,19h1v1h-1zM27,19h1v1h-1zM28,19h1v1h-1zM32,19h1v1h-1zM33,19h1v1h-1zM34,19h1v1h-1zM35,19h1v1h-1zM41,19h1v1h-1zM42,19h1v1h-1zM43,19h1v1h-1zM53,19h1v1h-1zM54,19h1v1h-1zM55,19h1v1h-1zM61,19h1v1h-1zM62,19h1v1h-1zM63,19h1v1h-1zM69,19h1v1h-1zM70,19h1v1h-1zM71,19h1v1h-1zM78,19h1v1h-1zM79,19h1v1h-1zM88,19h1v1h-1zM89,19h1v1h-1zM90,19h1v1h-1zM91,19h1v1h-1zM96,19h1v1h-1zM97,19h1v1h-1zM98,19h1v1h-1zM99,19h1v1h-1zM107,19h1v1h-1zM108,19h1v1h-1zM116,19h1v1h-1zM117,19h1v1h-1zM124,19h1v1h-1zM125,19h1v1h-1zM126,19h1v1h-1zM127,19h1v1h-1zM132,19h1v1h-1zM133,19h1v1h-1zM134,19h1v1h-1zM3,20h1v1h-1zM4,20h1v1h-1zM13,20h1v1h-1zM14,20h1v1h-1zM15,20h1v1h-1zM16,20h1v1h-1zM17,20h1v1h-1zM18,20h1v1h-1zM26,20h1v1h-1zM34,20h1v1h-1zM35,20h1v1h-1zM36,20h1v1h-1zM42,20h1v1h-1zM43,20h1v1h-1zM53,20h1v1h-1zM54,20h1v1h-1zM60,20h1v1h-1zM61,20h1v1h-1zM62,20h1v1h-1zM70,20h1v1h-1zM71,20h1v1h-1zM78,20h1v1h-1zM79,20h1v1h-1zM88,20h1v1h-1zM89,20h1v1h-1zM90,20h1v1h-1zM97,20h1v1h-1zM98,20h1v1h-1zM99,20h1v1h-1zM107,20h1v1h-1zM108,20h1v1h-1zM116,20h1v1h-1zM117,20h1v1h-1zM133,20h1v1h-1zM134,20h1v1h-1zM3,21h1v1h-1zM4,21h1v1h-1zM13,21h1v1h-1zM14,21h1v1h-1zM15,21h1v1h-1zM16,21h1v1h-1zM17,21h1v1h-1zM35,21h1v1h-1zM36,21h1v1h-1zM42,21h1v1h-1zM43,21h1v1h-1zM53,21h1v1h-1zM54,21h1v1h-1zM60,21h1v1h-1zM61,21h1v1h-1zM70,21h1v1h-1zM71,21h1v1h-1zM78,21h1v1h-1zM79,21h1v1h-1zM87,21h1v1h-1zM88,21h1v1h-1zM99,21h1v1h-1zM100,21h1v1h-1zM107,21h1v1h-1zM108,21h1v1h-1zM115,21h1v1h-1zM116,21h1v1h-1zM117,21h1v1h-1zM134,21h1v1h-1zM135,21h1v1h-1zM3,22h1v1h-1zM4,22h1v1h-1zM13,22h1v1h-1zM14,22h1v1h-1zM15,22h1v1h-1zM35,22h1v1h-1zM36,22h1v1h-1zM42,22h1v1h-1zM43,22h1v1h-1zM52,22h1v1h-1zM53,22h1v1h-1zM59,22h1v1h-1zM60,22h1v1h-1zM71,22h1v1h-1zM72,22h1v1h-1zM78,22h1v1h-1zM79,22h1v1h-1zM86,22h1v1h-1zM87,22h1v1h-1zM100,22h1v1h-1zM101,22h1v1h-1zM107,22h1v1h-1zM108,22h1v1h-1zM114,22h1v1h-1zM115,22h1v1h-1zM134,22h1v1h-1zM135,22h1v1h-1zM3,23h1v1h-1zM4,23h1v1h-1zM13,23h1v1h-1zM14,23h1v1h-1zM15,23h1v1h-1zM35,23h1v1h-1zM36,23h1v1h-1zM43,23h1v1h-1zM44,23h1v1h-1zM52,23h1v1h-1zM53,23h1v1h-1zM59,23h1v1h-1zM71,23h1v1h-1zM72,23h1v1h-1zM78,23h1v1h-1zM79,23h1v1h-1zM86,23h1v1h-1zM87,23h1v1h-1zM100,23h1v1h-1zM101,23h1v1h-1zM107,23h1v1h-1zM108,23h1v1h-1zM114,23h1v1h-1zM115,23h1v1h-1zM134,23h1v1h-1zM135,23h1v1h-1zM3,24h1v1h-1zM4,24h1v1h-1zM13,24h1v1h-1zM14,24h1v1h-1zM15,24h1v1h-1zM35,24h1v1h-1zM36,24h1v1h-1zM43,24h1v1h-1zM44,24h1v1h-1zM51,24h1v1h-1zM52,24h1v1h-1zM58,24h1v1h-1zM59,24h1v1h-1zM71,24h1v1h-1zM72,24h1v1h-1zM73,24h1v1h-1zM78,24h1v1h-1zM79,24h1v1h-1zM86,24h1v1h-1zM87,24h1v1h-1zM100,24h1v1h-1zM101,24h1v1h-1zM107,24h1v1h-1zM108,24h1v1h-1zM109,24h1v1h-1zM110,24h1v1h-1zM111,24h1v1h-1zM112,24h1v1h-1zM113,24h1v1h-1zM134,24h1v1h-1zM135,24h1v1h-1zM3,25h1v1h-1zM4,25h1v1h-1zM13,25h1v1h-1zM14,25h1v1h-1zM15,25h1v1h-1zM28,25h1v1h-1zM29,25h1v1h-1zM30,25h1v1h-1zM31,25h1v1h-1zM32,25h1v1h-1zM33,25h1v1h-1zM34,25h1v1h-1zM35,25h1v1h-1zM36,25h1v1h-1zM44,25h1v1h-1zM45,25h1v1h-1zM51,25h1v1h-1zM52,25h1v1h-1zM58,25h1v1h-1zM59,25h1v1h-1zM60,25h1v1h-1zM61,25h1v1h-1zM62,25h1v1h-1zM63,25h1v1h-1zM64,25h1v1h-1zM65,25h1v1h-1zM66,25h1v1h-1zM67,25h1v1h-1zM68,25h1v1h-1zM69,25h1v1h-1zM70,25h1v1h-1zM71,25h1v1h-1zM72,25h1v1h-1zM73,25h1v1h-1zM78,25h1v1h-1zM79,25h1v1h-1zM86,25h1v1h-1zM87,25h1v1h-1zM101,25h1v1h-1zM102,25h1v1h-1zM107,25h1v1h-1zM108,25h1v1h-1zM109,25h1v1h-1zM110,25h1v1h-1zM111,25h1v1h-1zM112,25h1v1h-1zM113,25h1v1h-1zM128,25h1v1h-1zM129,25h1v1h-1zM130,25h1v1h-1zM131,25h1v1h-1zM132,25h1v1h-1zM133,25h1v1h-1zM134,25h1v1h-1zM135,25h1v1h-1zM3,26h1v1h-1zM4,26h1v1h-1zM13,26h1v1h-1zM14,26h1v1h-1zM15,26h1v1h-1zM26,26h1v1h-1zM27,26h1v1h-1zM28,26h1v1h-1zM29,26h1v1h-1zM30,26h1v1h-1zM31,26h1v1h-1zM32,26h1v1h-1zM33,26h1v1h-1zM34,26h1v1h-1zM35,26h1v1h-1zM36,26h1v1h-1zM44,26h1v1h-1zM45,26h1v1h-1zM46,26h1v1h-1zM51,26h1v1h-1zM52,26h1v1h-1zM58,26h1v1h-1zM59,26h1v1h-1zM60,26h1v1h-1zM61,26h1v1h-1zM62,26h1v1h-1zM63,26h1v1h-1zM64,26h1v1h-1zM65,26h1v1h-1zM66,26h1v1h-1zM67,26h1v1h-1zM68,26h1v1h-1zM69,26h1v1h-1zM70,26h1v1h-1zM71,26h1v1h-1zM72,26h1v1h-1zM73,26h1v1h-1zM78,26h1v1h-1zM79,26h1v1h-1zM85,26h1v1h-1zM86,26h1v1h-1zM87,26h1v1h-1zM101,26h1v1h-1zM102,26h1v1h-1zM107,26h1v1h-1zM108,26h1v1h-1zM109,26h1v1h-1zM110,26h1v1h-1zM111,26h1v1h-1zM112,26h1v1h-1zM113,26h1v1h-1zM114,26h1v1h-1zM125,26h1v1h-1zM126,26h1v1h-1zM127,26h1v1h-1zM128,26h1v1h-1zM129,26h1v1h-1zM130,26h1v1h-1zM131,26h1v1h-1zM132,26h1v1h-1zM133,26h1v1h-1zM134,26h1v1h-1zM135,26h1v1h-1zM3,27h1v1h-1zM4,27h1v1h-1zM13,27h1v1h-1zM14,27h1v1h-1zM15,27h1v1h-1zM25,27h1v1h-1zM26,27h1v1h-1zM35,27h1v1h-1zM36,27h1v1h-1zM44,27h1v1h-1zM45,27h1v1h-1zM46,27h1v1h-1zM50,27h1v1h-1zM51,27h1v1h-1zM58,27h1v1h-1zM59,27h1v1h-1zM78,27h1v1h-1zM79,27h1v1h-1zM86,27h1v1h-1zM87,27h1v1h-1zM101,27h1v1h-1zM102,27h1v1h-1zM107,27h1v1h-1zM108,27h1v1h-1zM114,27h1v1h-1zM115,27h1v1h-1zM124,27h1v1h-1zM125,27h1v1h-1zM134,27h1v1h-1zM135,27h1v1h-1zM3,28h1v1h-1zM4,28h1v1h-1zM13,28h1v1h-1zM14,28h1v1h-1zM15,28h1v1h-1zM24,28h1v1h-1zM25,28h1v1h-1zM35,28h1v1h-1zM36,28h1v1h-1zM44,28h1v1h-1zM45,28h1v1h-1zM46,28h1v1h-1zM50,28h1v1h-1zM51,28h1v1h-1zM58,28h1v1h-1zM59,28h1v1h-1zM78,28h1v1h-1zM79,28h1v1h-1zM86,28h1v1h-1zM87,28h1v1h-1zM100,28h1v1h-1zM101,28h1v1h-1zM107,28h1v1h-1zM108,28h1v1h-1zM114,28h1v1h-1zM115,28h1v1h-1zM123,28h1v1h-1zM124,28h1v1h-1zM134,28h1v1h-1zM135,28h1v1h-1zM3,29h1v1h-1zM4,29h1v1h-1zM13,29h1v1h-1zM14,29h1v1h-1zM15,29h1v1h-1zM24,29h1v1h-1zM25,29h1v1h-1zM35,29h1v1h-1zM36,29h1v1h-1zM45,29h1v1h-1zM46,29h1v1h-1zM49,29h1v1h-1zM50,29h1v1h-1zM59,29h1v1h-1zM60,29h1v1h-1zM78,29h1v1h-1zM79,29h1v1h-1zM86,29h1v1h-1zM87,29h1v1h-1zM100,29h1v1h-1zM101,29h1v1h-1zM107,29h1v1h-1zM108,29h1v1h-1zM115,29h1v1h-1zM116,29h1v1h-1zM123,29h1v1h-1zM124,29h1v1h-1zM134,29h1v1h-1zM135,29h1v1h-1zM3,30h1v1h-1zM4,30h1v1h-1zM13,30h1v1h-1zM14,30h1v1h-1zM15,30h1v1h-1zM23,30h1v1h-1zM24,30h1v1h-1zM25,30h1v1h-1zM35,30h1v1h-1zM36,30h1v1h-1zM46,30h1v1h-1zM49,30h1v1h-1zM50,30h1v1h-1zM59,30h1v1h-1zM60,30h1v1h-1zM78,30h1v1h-1zM79,30h1v1h-1zM86,30h1v1h-1zM87,30h1v1h-1zM100,30h1v1h-1zM101,30h1v1h-1zM107,30h1v1h-1zM108,30h1v1h-1zM115,30h1v1h-1zM116,30h1v1h-1zM117,30h1v1h-1zM123,30h1v1h-1zM124,30h1v1h-1zM134,30h1v1h-1zM135,30h1v1h-1zM3,31h1v1h-1zM4,31h1v1h-1zM5,31h1v1h-1zM13,31h1v1h-1zM14,31h1v1h-1zM15,31h1v1h-1zM24,31h1v1h-1zM25,31h1v1h-1zM34,31h1v1h-1zM35,31h1v1h-1zM36,31h1v1h-1zM46,31h1v1h-1zM47,31h1v1h-1zM48,31h1v1h-1zM49,31h1v1h-1zM50,31h1v1h-1zM60,31h1v1h-1zM61,31h1v1h-1zM78,31h1v1h-1zM79,31h1v1h-1zM87,31h1v1h-1zM88,31h1v1h-1zM99,31h1v1h-1zM100,31h1v1h-1zM107,31h1v1h-1zM108,31h1v1h-1zM116,31h1v1h-1zM117,31h1v1h-1zM123,31h1v1h-1zM124,31h1v1h-1zM132,31h1v1h-1zM133,31h1v1h-1zM134,31h1v1h-1zM135,31h1v1h-1zM4,32h1v1h-1zM5,32h1v1h-1zM13,32h1v1h-1zM14,32h1v1h-1zM15,32h1v1h-1zM24,32h1v1h-1zM25,32h1v1h-1zM33,32h1v1h-1zM34,32h1v1h-1zM35,32h1v1h-1zM36,32h1v1h-1zM46,32h1v1h-1zM47,32h1v1h-1zM48,32h1v1h-1zM49,32h1v1h-1zM50,32h1v1h-1zM60,32h1v1h-1zM61,32h1v1h-1zM62,32h1v1h-1zM71,32h1v1h-1zM79,32h1v1h-1zM80,32h1v1h-1zM88,32h1v1h-1zM89,32h1v1h-1zM98,32h1v1h-1zM99,32h1v1h-1zM107,32h1v1h-1zM108,32h1v1h-1zM116,32h1v1h-1zM117,32h1v1h-1zM118,32h1v1h-1zM123,32h1v1h-1zM124,32h1v1h-1zM132,32h1v1h-1zM133,32h1v1h-1zM134,32h1v1h-1zM135,32h1v1h-1zM5,33h1v1h-1zM6,33h1v1h-1zM13,33h1v1h-1zM14,33h1v1h-1zM15,33h1v1h-1zM25,33h1v1h-1zM26,33h1v1h-1zM27,33h1v1h-1zM32,33h1v1h-1zM33,33h1v1h-1zM34,33h1v1h-1zM35,33h1v1h-1zM36,33h1v1h-1zM46,33h1v1h-1zM47,33h1v1h-1zM48,33h1v1h-1zM49,33h1v1h-1zM61,33h1v1h-1zM62,33h1v1h-1zM63,33h1v1h-1zM64,33h1v1h-1zM70,33h1v1h-1zM71,33h1v1h-1zM72,33h1v1h-1zM79,33h1v1h-1zM80,33h1v1h-1zM88,33h1v1h-1zM89,33h1v1h-1zM90,33h1v1h-1zM97,33h1v1h-1zM98,33h1v1h-1zM99,33h1v1h-1zM107,33h1v1h-1zM108,33h1v1h-1zM117,33h1v1h-1zM118,33h1v1h-1zM123,33h1v1h-1zM124,33h1v1h-1zM125,33h1v1h-1zM131,33h1v1h-1zM132,33h1v1h-1zM133,33h1v1h-1zM134,33h1v1h-1zM135,33h1v1h-1zM7,34h1v1h-1zM8,34h1v1h-1zM13,34h1v1h-1zM14,34h1v1h-1zM15,34h1v1h-1zM26,34h1v1h-1zM27,34h1v1h-1zM28,34h1v1h-1zM29,34h1v1h-1zM30,34h1v1h-1zM31,34h1v1h-1zM32,34h1v1h-1zM35,34h1v1h-1zM36,34h1v1h-1zM47,34h1v1h-1zM48,34h1v1h-1zM49,34h1v1h-1zM63,34h1v1h-1zM64,34h1v1h-1zM65,34h1v1h-1zM66,34h1v1h-1zM67,34h1v1h-1zM68,34h1v1h-1zM69,34h1v1h-1zM80,34h1v1h-1zM81,34h1v1h-1zM82,34h1v1h-1zM90,34h1v1h-1zM91,34h1v1h-1zM92,34h1v1h-1zM93,34h1v1h-1zM94,34h1v1h-1zM95,34h1v1h-1zM96,34h1v1h-1zM97,34h1v1h-1zM107,34h1v1h-1zM108,34h1v1h-1zM118,34h1v1h-1zM119,34h1v1h-1zM120,34h1v1h-1zM125,34h1v1h-1zM126,34h1v1h-1zM127,34h1v1h-1zM128,34h1v1h-1zM129,34h1v1h-1zM130,34h1v1h-1zM134,34h1v1h-1zM135,34h1v1h-1zM28,35h1v1h-1zM29,35h1v1h-1zM66,35h1v1h-1zM67,35h1v1h-1zM93,35h1v1h-1zM94,35h1v1h-1zM128,35h1v1h-1z" fill="#393839" opacity="1.00"/>
  <path d="M80,11h1v1h-1zM80,12h1v1h-1zM80,13h1v1h-1zM80,14h1v1h-1zM80,15h1v1h-1zM80,16h1v1h-1zM53,17h1v1h-1zM80,17h1v1h-1zM80,18h1v1h-1zM80,19h1v1h-1zM80,20h1v1h-1zM80,21h1v1h-1zM80,22h1v1h-1zM80,23h1v1h-1zM80,24h1v1h-1zM80,25h1v1h-1zM80,26h1v1h-1zM80,27h1v1h-1zM80,28h1v1h-1zM80,29h1v1h-1z" fill="#383838" opacity="0.78"/>
  <path d="M106,11h1v1h-1zM106,12h1v1h-1zM106,13h1v1h-1zM106,14h1v1h-1zM106,15h1v1h-1zM106,16h1v1h-1zM106,17h1v1h-1zM106,18h1v1h-1zM59,19h1v1h-1zM106,19h1v1h-1zM51,20h1v1h-1zM106,20h1v1h-1zM106,21h1v1h-1zM106,22h1v1h-1zM106,23h1v1h-1zM106,24h1v1h-1zM106,25h1v1h-1zM106,26h1v1h-1zM106,27h1v1h-1zM106,28h1v1h-1zM106,29h1v1h-1zM106,30h1v1h-1zM106,31h1v1h-1zM106,32h1v1h-1zM106,33h1v1h-1zM106,34h1v1h-1zM116,34h1v1h-1z" fill="#363636" opacity="0.13"/>
  <path d="M109,11h1v1h-1zM109,12h1v1h-1zM109,13h1v1h-1zM109,14h1v1h-1zM109,15h1v1h-1zM109,16h1v1h-1zM109,17h1v1h-1zM62,18h1v1h-1zM109,18h1v1h-1zM133,18h1v1h-1zM109,19h1v1h-1zM128,19h1v1h-1zM69,20h1v1h-1zM109,20h1v1h-1zM86,21h1v1h-1zM109,21h1v1h-1zM109,22h1v1h-1zM109,23h1v1h-1zM32,24h1v1h-1zM33,24h1v1h-1zM131,24h1v1h-1zM132,24h1v1h-1zM43,25h1v1h-1zM26,28h1v1h-1zM109,28h1v1h-1zM51,29h1v1h-1zM109,29h1v1h-1zM114,29h1v1h-1zM109,30h1v1h-1zM62,31h1v1h-1zM109,31h1v1h-1zM97,32h1v1h-1zM109,32h1v1h-1zM9,33h1v1h-1zM28,33h1v1h-1zM109,33h1v1h-1zM109,34h1v1h-1zM65,35h1v1h-1z" fill="#393839" opacity="0.98"/>
  <path d="M110,11h1v1h-1zM110,12h1v1h-1zM110,13h1v1h-1zM110,14h1v1h-1zM110,15h1v1h-1zM110,16h1v1h-1zM110,17h1v1h-1zM110,18h1v1h-1zM110,19h1v1h-1zM110,20h1v1h-1zM110,21h1v1h-1zM110,22h1v1h-1zM110,28h1v1h-1zM126,28h1v1h-1zM110,29h1v1h-1zM110,30h1v1h-1zM110,31h1v1h-1zM67,32h1v1h-1zM94,32h1v1h-1zM110,32h1v1h-1zM110,33h1v1h-1zM110,34h1v1h-1z" fill="#373737" opacity="0.35"/>
  <path d="M140,11h1v1h-1z" fill="#0099d6" opacity="0.20"/>
  <path d="M146,11h1v1h-1z" fill="#009cd8" opacity="1.00"/>
  <path d="M147,11h1v1h-1z" fill="#0086b7" opacity="1.00"/>
  <path d="M149,11h1v1h-1z" fill="#0094bd" opacity="1.00"/>
  <path d="M153,11h1v1h-1z" fill="#0099c1" opacity="0.53"/>
  <path d="M2,12h1v1h-1zM43,17h1v1h-1zM42,25h1v1h-1z" fill="#373737" opacity="0.31"/>
  <path d="M3,12h1v1h-1zM4,12h1v1h-1z" fill="#3a373a" opacity="0.38"/>
  <path d="M5,12h1v1h-1z" fill="#383838" opacity="0.29"/>
  <path d="M140,12h1v1h-1zM146,21h1v1h-1z" fill="#009cdc" opacity="0.17"/>
  <path d="M147,12h1v1h-1z" fill="#008bbe" opacity="1.00"/>
  <path d="M149,12h1v1h-1z" fill="#0093bc" opacity="1.00"/>
  <path d="M152,12h1v1h-1z" fill="#0098c1" opacity="0.73"/>
  <path d="M2,13h1v1h-1zM2,14h1v1h-1zM2,15h1v1h-1zM2,16h1v1h-1zM13,17h1v1h-1zM14,17h1v1h-1zM40,17h1v1h-1zM41,17h1v1h-1zM42,17h1v1h-1zM54,17h1v1h-1zM55,17h1v1h-1zM118,17h1v1h-1zM119,17h1v1h-1zM120,17h1v1h-1z" fill="#373737" opacity="0.81"/>
  <path d="M5,13h1v1h-1zM5,14h1v1h-1zM5,15h1v1h-1zM5,16h1v1h-1zM5,21h1v1h-1zM5,22h1v1h-1zM5,23h1v1h-1zM5,24h1v1h-1zM5,25h1v1h-1zM5,26h1v1h-1zM5,27h1v1h-1zM5,28h1v1h-1zM2,30h1v1h-1z" fill="#383838" opacity="0.75"/>
  <path d="M6,13h1v1h-1zM6,14h1v1h-1zM6,15h1v1h-1zM6,16h1v1h-1zM6,22h1v1h-1zM6,23h1v1h-1zM6,24h1v1h-1zM38,24h1v1h-1zM6,25h1v1h-1zM38,25h1v1h-1zM6,26h1v1h-1zM38,26h1v1h-1zM6,27h1v1h-1zM38,27h1v1h-1zM6,28h1v1h-1zM38,28h1v1h-1zM38,29h1v1h-1zM38,30h1v1h-1zM38,31h1v1h-1zM38,32h1v1h-1zM38,33h1v1h-1zM38,34h1v1h-1z" fill="#3b3b3b" opacity="0.05"/>
  <path d="M129,13h1v1h-1z" fill="#009dd9" opacity="0.24"/>
  <path d="M130,13h1v1h-1z" fill="#009cd9" opacity="0.53"/>
  <path d="M131,13h1v1h-1z" fill="#009cd9" opacity="0.51"/>
  <path d="M132,13h1v1h-1z" fill="#009cdb" opacity="0.33"/>
  <path d="M133,13h1v1h-1z" fill="#00a0db" opacity="0.14"/>
  <path d="M135,13h1v1h-1z" fill="#009ddc" opacity="0.25"/>
  <path d="M136,13h1v1h-1z" fill="#009cd9" opacity="0.61"/>
  <path d="M137,13h1v1h-1z" fill="#009bd8" opacity="0.57"/>
  <path d="M138,13h1v1h-1z" fill="#009cdb" opacity="0.19"/>
  <path d="M140,13h1v1h-1z" fill="#009dd9" opacity="0.37"/>
  <path d="M147,13h1v1h-1z" fill="#0090c7" opacity="1.00"/>
  <path d="M149,13h1v1h-1z" fill="#0090b9" opacity="1.00"/>
  <path d="M151,13h1v1h-1z" fill="#0099c2" opacity="0.86"/>
  <path d="M152,13h1v1h-1z" fill="#0098c2" opacity="0.16"/>
  <path d="M131,14h1v1h-1z" fill="#0099df" opacity="0.16"/>
  <path d="M132,14h1v1h-1z" fill="#009dda" opacity="0.72"/>
  <path d="M139,14h1v1h-1zM154,23h1v1h-1z" fill="#009dd9" opacity="0.74"/>
  <path d="M140,14h1v1h-1z" fill="#009dda" opacity="0.80"/>
  <path d="M147,14h1v1h-1z" fill="#0099d4" opacity="1.00"/>
  <path d="M149,14h1v1h-1z" fill="#008db7" opacity="1.00"/>
  <path d="M151,14h1v1h-1z" fill="#0098c1" opacity="0.47"/>
  <path d="M134,15h1v1h-1z" fill="#009cd8" opacity="0.28"/>
  <path d="M135,15h1v1h-1z" fill="#009edb" opacity="0.53"/>
  <path d="M148,15h1v1h-1z" fill="#0083b3" opacity="1.00"/>
  <path d="M149,15h1v1h-1z" fill="#0089b2" opacity="1.00"/>
  <path d="M150,15h1v1h-1z" fill="#0099c2" opacity="0.84"/>
  <path d="M151,15h1v1h-1z" fill="#009dc4" opacity="0.05"/>
  <path d="M136,16h1v1h-1z" fill="#00a3e0" opacity="0.10"/>
  <path d="M137,16h1v1h-1z" fill="#009cda" opacity="0.91"/>
  <path d="M148,16h1v1h-1z" fill="#0098d2" opacity="1.00"/>
  <path d="M149,16h1v1h-1z" fill="#0086b0" opacity="1.00"/>
  <path d="M150,16h1v1h-1z" fill="#0097c1" opacity="0.34"/>
  <path d="M0,17h1v1h-1zM1,17h1v1h-1zM7,17h1v1h-1zM8,17h1v1h-1zM136,21h1v1h-1zM110,23h1v1h-1z" fill="#383838" opacity="0.45"/>
  <path d="M2,17h1v1h-1zM45,31h1v1h-1zM122,31h1v1h-1z" fill="#383838" opacity="0.89"/>
  <path d="M5,17h1v1h-1zM72,20h1v1h-1zM102,22h1v1h-1zM44,29h1v1h-1zM26,31h1v1h-1z" fill="#393839" opacity="0.86"/>
  <path d="M6,17h1v1h-1zM9,32h1v1h-1z" fill="#393739" opacity="0.47"/>
  <path d="M10,17h1v1h-1zM116,17h1v1h-1zM73,34h1v1h-1z" fill="#2e2e2e" opacity="0.09"/>
  <path d="M12,17h1v1h-1zM98,22h1v1h-1zM54,24h1v1h-1zM115,25h1v1h-1zM62,30h1v1h-1zM127,32h1v1h-1zM10,35h1v1h-1z" fill="#373737" opacity="0.33"/>
  <path d="M15,17h1v1h-1zM136,22h1v1h-1zM5,29h1v1h-1z" fill="#383838" opacity="0.79"/>
  <path d="M17,17h1v1h-1zM61,17h1v1h-1zM60,18h1v1h-1zM19,21h1v1h-1zM63,21h1v1h-1zM88,26h1v1h-1z" fill="#303030" opacity="0.06"/>
  <path d="M18,17h1v1h-1zM51,21h1v1h-1zM97,31h1v1h-1zM122,33h1v1h-1z" fill="#373737" opacity="0.27"/>
  <path d="M19,17h1v1h-1zM25,18h1v1h-1zM99,29h1v1h-1z" fill="#393739" opacity="0.69"/>
  <path d="M20,17h1v1h-1zM68,17h1v1h-1zM125,31h1v1h-1z" fill="#383738" opacity="0.94"/>
  <path d="M21,17h1v1h-1zM96,17h1v1h-1zM19,20h1v1h-1zM52,20h1v1h-1zM37,23h1v1h-1zM37,24h1v1h-1zM37,25h1v1h-1zM37,26h1v1h-1zM37,27h1v1h-1zM37,28h1v1h-1zM37,29h1v1h-1zM37,30h1v1h-1zM37,31h1v1h-1zM37,32h1v1h-1zM37,33h1v1h-1zM50,33h1v1h-1zM37,34h1v1h-1zM8,35h1v1h-1z" fill="#383738" opacity="0.89"/>
  <path d="M22,17h1v1h-1zM5,35h1v1h-1z" fill="#393539" opacity="0.25"/>
  <path d="M26,17h1v1h-1zM121,30h1v1h-1zM124,35h1v1h-1z" fill="#353535" opacity="0.23"/>
  <path d="M27,17h1v1h-1z" fill="#363636" opacity="0.50"/>
  <path d="M28,17h1v1h-1zM40,18h1v1h-1zM123,19h1v1h-1zM85,23h1v1h-1zM2,29h1v1h-1zM80,31h1v1h-1zM124,34h1v1h-1z" fill="#383738" opacity="0.91"/>
  <path d="M33,17h1v1h-1zM133,22h1v1h-1zM88,23h1v1h-1zM29,24h1v1h-1zM43,26h1v1h-1zM102,30h1v1h-1z" fill="#383738" opacity="0.84"/>
  <path d="M34,17h1v1h-1zM98,30h1v1h-1zM121,34h1v1h-1z" fill="#383538" opacity="0.34"/>
  <path d="M35,17h1v1h-1zM103,22h1v1h-1zM132,23h1v1h-1z" fill="#353535" opacity="0.11"/>
  <path d="M39,17h1v1h-1zM111,23h1v1h-1zM99,24h1v1h-1z" fill="#383838" opacity="0.16"/>
  <path d="M52,17h1v1h-1zM86,19h1v1h-1zM84,22h1v1h-1zM41,23h1v1h-1zM28,28h1v1h-1zM96,31h1v1h-1z" fill="#2e2e2e" opacity="0.04"/>
  <path d="M56,17h1v1h-1zM21,20h1v1h-1z" fill="#383838" opacity="0.64"/>
  <path d="M57,17h1v1h-1z" fill="#2d2d2d" opacity="0.07"/>
  <path d="M62,17h1v1h-1z" fill="#3a3a3a" opacity="0.24"/>
  <path d="M63,17h1v1h-1z" fill="#393739" opacity="0.64"/>
  <path d="M64,17h1v1h-1zM15,18h1v1h-1zM30,19h1v1h-1zM93,19h1v1h-1zM94,19h1v1h-1zM129,19h1v1h-1zM2,20h1v1h-1zM25,20h1v1h-1zM132,20h1v1h-1zM73,23h1v1h-1zM102,23h1v1h-1zM31,24h1v1h-1zM130,24h1v1h-1zM52,27h1v1h-1zM100,27h1v1h-1zM85,28h1v1h-1zM125,28h1v1h-1zM59,31h1v1h-1zM87,32h1v1h-1zM129,33h1v1h-1zM131,34h1v1h-1zM68,35h1v1h-1z" fill="#393839" opacity="0.97"/>
  <path d="M69,17h1v1h-1z" fill="#383838" opacity="0.50"/>
  <path d="M70,17h1v1h-1zM36,18h1v1h-1zM121,29h1v1h-1zM32,31h1v1h-1zM73,31h1v1h-1z" fill="#333333" opacity="0.18"/>
  <path d="M89,17h1v1h-1zM88,25h1v1h-1z" fill="#363636" opacity="0.15"/>
  <path d="M90,17h1v1h-1zM66,32h1v1h-1zM93,32h1v1h-1z" fill="#393639" opacity="0.35"/>
  <path d="M91,17h1v1h-1zM37,21h1v1h-1z" fill="#393839" opacity="0.84"/>
  <path d="M92,17h1v1h-1zM21,18h1v1h-1zM21,19h1v1h-1zM95,19h1v1h-1zM100,20h1v1h-1zM52,21h1v1h-1zM59,21h1v1h-1zM101,21h1v1h-1zM58,23h1v1h-1zM113,23h1v1h-1zM34,24h1v1h-1zM133,24h1v1h-1zM114,25h1v1h-1zM123,27h1v1h-1zM45,30h1v1h-1zM72,32h1v1h-1zM100,32h1v1h-1zM125,32h1v1h-1zM8,33h1v1h-1zM92,33h1v1h-1zM130,33h1v1h-1zM70,34h1v1h-1z" fill="#383738" opacity="0.99"/>
  <path d="M95,17h1v1h-1zM125,18h1v1h-1zM25,19h1v1h-1zM68,19h1v1h-1zM92,19h1v1h-1zM118,19h1v1h-1zM131,19h1v1h-1zM125,20h1v1h-1zM72,21h1v1h-1zM16,22h1v1h-1zM60,23h1v1h-1zM60,24h1v1h-1zM102,24h1v1h-1zM85,25h1v1h-1zM127,25h1v1h-1zM124,26h1v1h-1zM85,27h1v1h-1zM113,27h1v1h-1zM102,28h1v1h-1zM47,30h1v1h-1zM133,30h1v1h-1zM26,32h1v1h-1zM78,32h1v1h-1zM90,32h1v1h-1zM4,33h1v1h-1zM7,33h1v1h-1zM69,33h1v1h-1zM81,33h1v1h-1zM82,33h1v1h-1zM91,33h1v1h-1zM96,33h1v1h-1zM119,33h1v1h-1zM126,33h1v1h-1zM6,34h1v1h-1zM127,35h1v1h-1z" fill="#383738" opacity="1.00"/>
  <path d="M97,17h1v1h-1zM32,35h1v1h-1z" fill="#3a373a" opacity="0.42"/>
  <path d="M117,17h1v1h-1zM24,19h1v1h-1zM17,22h1v1h-1z" fill="#383838" opacity="0.66"/>
  <path d="M121,17h1v1h-1z" fill="#383838" opacity="0.37"/>
  <path d="M125,17h1v1h-1zM65,20h1v1h-1z" fill="#363636" opacity="0.26"/>
  <path d="M126,17h1v1h-1zM99,34h1v1h-1z" fill="#383838" opacity="0.58"/>
  <path d="M127,17h1v1h-1zM60,19h1v1h-1zM67,19h1v1h-1zM129,24h1v1h-1zM113,28h1v1h-1zM32,32h1v1h-1zM63,32h1v1h-1z" fill="#393839" opacity="0.95"/>
  <path d="M132,17h1v1h-1z" fill="#383638" opacity="0.81"/>
  <path d="M133,17h1v1h-1z" fill="#363636" opacity="0.32"/>
  <path d="M137,17h1v1h-1z" fill="#009cd6" opacity="0.24"/>
  <path d="M138,17h1v1h-1z" fill="#009ddb" opacity="0.94"/>
  <path d="M149,17h1v1h-1z" fill="#008cbb" opacity="0.95"/>
  <path d="M150,17h1v1h-1z" fill="#0090b2" opacity="0.12"/>
  <path d="M9,18h1v1h-1zM26,18h1v1h-1zM9,19h1v1h-1zM34,21h1v1h-1zM98,21h1v1h-1zM99,22h1v1h-1zM61,24h1v1h-1zM70,24h1v1h-1zM27,25h1v1h-1zM100,25h1v1h-1zM116,28h1v1h-1zM133,29h1v1h-1zM61,30h1v1h-1zM99,30h1v1h-1zM33,31h1v1h-1zM78,33h1v1h-1z" fill="#383738" opacity="0.96"/>
  <path d="M10,18h1v1h-1zM10,19h1v1h-1zM23,27h1v1h-1z" fill="#383838" opacity="0.20"/>
  <path d="M12,18h1v1h-1zM12,19h1v1h-1zM12,20h1v1h-1zM12,21h1v1h-1zM12,22h1v1h-1zM12,23h1v1h-1zM12,24h1v1h-1zM12,25h1v1h-1zM12,26h1v1h-1zM12,27h1v1h-1zM12,28h1v1h-1zM12,29h1v1h-1zM12,30h1v1h-1zM12,31h1v1h-1zM12,32h1v1h-1zM12,33h1v1h-1zM12,34h1v1h-1z" fill="#373737" opacity="0.40"/>
  <path d="M16,18h1v1h-1zM100,18h1v1h-1zM120,19h1v1h-1zM31,23h1v1h-1zM46,24h1v1h-1zM123,25h1v1h-1zM69,31h1v1h-1zM81,31h1v1h-1zM120,32h1v1h-1zM61,35h1v1h-1z" fill="#333333" opacity="0.04"/>
  <path d="M17,18h1v1h-1zM57,26h1v1h-1zM64,32h1v1h-1z" fill="#393839" opacity="0.68"/>
  <path d="M18,18h1v1h-1zM29,19h1v1h-1zM64,19h1v1h-1zM89,21h1v1h-1zM133,21h1v1h-1zM44,22h1v1h-1zM42,23h1v1h-1zM51,23h1v1h-1zM45,24h1v1h-1zM25,26h1v1h-1zM27,27h1v1h-1zM109,27h1v1h-1zM60,28h1v1h-1zM23,29h1v1h-1zM58,29h1v1h-1zM34,30h1v1h-1zM101,31h1v1h-1zM6,32h1v1h-1zM31,33h1v1h-1zM65,33h1v1h-1zM68,33h1v1h-1zM95,33h1v1h-1zM9,34h1v1h-1zM30,35h1v1h-1zM95,35h1v1h-1z" fill="#393839" opacity="0.99"/>
  <path d="M22,18h1v1h-1zM22,19h1v1h-1z" fill="#383538" opacity="0.30"/>
  <path d="M24,18h1v1h-1z" fill="#333333" opacity="0.22"/>
  <path d="M35,18h1v1h-1zM70,22h1v1h-1zM119,32h1v1h-1z" fill="#383738" opacity="0.80"/>
  <path d="M43,18h1v1h-1zM25,34h1v1h-1zM117,34h1v1h-1z" fill="#393739" opacity="0.87"/>
  <path d="M52,18h1v1h-1z" fill="#383638" opacity="0.41"/>
  <path d="M56,18h1v1h-1z" fill="#373737" opacity="0.64"/>
  <path d="M61,18h1v1h-1zM28,27h1v1h-1z" fill="#393739" opacity="0.73"/>
  <path d="M70,18h1v1h-1zM85,29h1v1h-1zM122,29h1v1h-1z" fill="#393839" opacity="0.90"/>
  <path d="M71,18h1v1h-1z" fill="#373737" opacity="0.42"/>
  <path d="M88,18h1v1h-1zM117,22h1v1h-1zM70,23h1v1h-1zM70,35h1v1h-1z" fill="#383638" opacity="0.50"/>
  <path d="M89,18h1v1h-1zM126,20h1v1h-1zM54,22h1v1h-1zM34,23h1v1h-1zM64,35h1v1h-1z" fill="#383738" opacity="0.87"/>
  <path d="M98,18h1v1h-1zM136,24h1v1h-1zM136,25h1v1h-1zM136,26h1v1h-1zM136,27h1v1h-1zM136,28h1v1h-1zM136,29h1v1h-1zM136,30h1v1h-1zM136,31h1v1h-1zM136,32h1v1h-1zM136,33h1v1h-1zM136,34h1v1h-1zM126,35h1v1h-1z" fill="#393839" opacity="0.92"/>
  <path d="M99,18h1v1h-1zM52,19h1v1h-1zM57,25h1v1h-1zM57,27h1v1h-1zM26,30h1v1h-1z" fill="#383738" opacity="0.64"/>
  <path d="M116,18h1v1h-1zM51,31h1v1h-1z" fill="#393839" opacity="0.74"/>
  <path d="M120,18h1v1h-1zM87,33h1v1h-1z" fill="#393739" opacity="0.62"/>
  <path d="M124,18h1v1h-1zM85,22h1v1h-1z" fill="#383738" opacity="0.76"/>
  <path d="M134,18h1v1h-1zM33,34h1v1h-1z" fill="#393739" opacity="0.72"/>
  <path d="M135,18h1v1h-1zM126,31h1v1h-1z" fill="#362836" opacity="0.07"/>
  <path d="M138,18h1v1h-1z" fill="#009cda" opacity="0.35"/>
  <path d="M139,18h1v1h-1zM150,20h1v1h-1z" fill="#009cd9" opacity="0.97"/>
  <path d="M149,18h1v1h-1z" fill="#0095ce" opacity="0.92"/>
  <path d="M150,18h1v1h-1z" fill="#0089ba" opacity="0.10"/>
  <path d="M15,19h1v1h-1zM31,19h1v1h-1zM130,19h1v1h-1zM87,20h1v1h-1zM124,20h1v1h-1zM88,22h1v1h-1zM116,22h1v1h-1zM53,24h1v1h-1zM85,24h1v1h-1zM126,25h1v1h-1zM50,26h1v1h-1zM60,27h1v1h-1zM88,30h1v1h-1zM23,31h1v1h-1zM89,31h1v1h-1zM118,31h1v1h-1zM66,33h1v1h-1zM67,33h1v1h-1zM93,33h1v1h-1zM94,33h1v1h-1zM127,33h1v1h-1zM79,34h1v1h-1zM92,35h1v1h-1zM129,35h1v1h-1z" fill="#383738" opacity="0.98"/>
  <path d="M16,19h1v1h-1zM73,22h1v1h-1zM26,25h1v1h-1z" fill="#393739" opacity="0.76"/>
  <path d="M36,19h1v1h-1zM62,21h1v1h-1zM16,24h1v1h-1zM133,28h1v1h-1zM117,29h1v1h-1zM60,33h1v1h-1zM31,35h1v1h-1zM69,35h1v1h-1z" fill="#383738" opacity="0.82"/>
  <path d="M40,19h1v1h-1zM86,32h1v1h-1z" fill="#383838" opacity="0.49"/>
  <path d="M44,19h1v1h-1zM43,28h1v1h-1z" fill="#303030" opacity="0.15"/>
  <path d="M56,19h1v1h-1zM71,35h1v1h-1z" fill="#363636" opacity="0.18"/>
  <path d="M65,19h1v1h-1zM2,21h1v1h-1zM2,22h1v1h-1zM2,23h1v1h-1zM2,24h1v1h-1zM2,25h1v1h-1zM53,25h1v1h-1zM2,26h1v1h-1zM2,27h1v1h-1zM24,27h1v1h-1zM2,28h1v1h-1z" fill="#393739" opacity="0.94"/>
  <path d="M66,19h1v1h-1zM34,29h1v1h-1z" fill="#393839" opacity="0.91"/>
  <path d="M72,19h1v1h-1zM27,28h1v1h-1zM113,29h1v1h-1zM79,35h1v1h-1z" fill="#363636" opacity="0.37"/>
  <path d="M100,19h1v1h-1z" fill="#383738" opacity="0.77"/>
  <path d="M101,19h1v1h-1z" fill="#353535" opacity="0.09"/>
  <path d="M115,19h1v1h-1z" fill="#373637" opacity="0.63"/>
  <path d="M119,19h1v1h-1zM63,20h1v1h-1z" fill="#393739" opacity="0.81"/>
  <path d="M135,19h1v1h-1z" fill="#383638" opacity="0.68"/>
  <path d="M139,19h1v1h-1z" fill="#0092db" opacity="0.08"/>
  <path d="M140,19h1v1h-1z" fill="#009dda" opacity="0.71"/>
  <path d="M141,19h1v1h-1z" fill="#009dda" opacity="0.92"/>
  <path d="M142,19h1v1h-1z" fill="#009ddb" opacity="0.99"/>
  <path d="M150,19h1v1h-1z" fill="#009cd8" opacity="0.38"/>
  <path d="M0,20h1v1h-1zM1,20h1v1h-1zM7,20h1v1h-1zM8,20h1v1h-1zM84,26h1v1h-1zM130,32h1v1h-1z" fill="#393739" opacity="0.53"/>
  <path d="M5,20h1v1h-1zM33,20h1v1h-1zM34,22h1v1h-1zM113,22h1v1h-1zM34,28h1v1h-1zM51,30h1v1h-1zM72,31h1v1h-1z" fill="#393839" opacity="0.88"/>
  <path d="M9,20h1v1h-1zM92,20h1v1h-1zM69,21h1v1h-1zM28,24h1v1h-1zM16,25h1v1h-1zM29,27h1v1h-1zM61,27h1v1h-1zM110,27h1v1h-1zM88,28h1v1h-1zM77,32h1v1h-1z" fill="#373737" opacity="0.51"/>
  <path d="M10,20h1v1h-1zM55,22h1v1h-1z" fill="#313131" opacity="0.10"/>
  <path d="M20,20h1v1h-1zM132,30h1v1h-1z" fill="#383638" opacity="0.64"/>
  <path d="M22,20h1v1h-1z" fill="#363636" opacity="0.24"/>
  <path d="M24,20h1v1h-1zM58,31h1v1h-1z" fill="#363636" opacity="0.29"/>
  <path d="M27,20h1v1h-1zM3,32h1v1h-1zM24,33h1v1h-1z" fill="#383738" opacity="0.92"/>
  <path d="M28,20h1v1h-1z" fill="#373737" opacity="0.58"/>
  <path d="M29,20h1v1h-1z" fill="#383838" opacity="0.46"/>
  <path d="M30,20h1v1h-1zM129,20h1v1h-1zM58,21h1v1h-1zM52,29h1v1h-1z" fill="#373737" opacity="0.38"/>
  <path d="M31,20h1v1h-1zM130,20h1v1h-1zM90,21h1v1h-1zM115,32h1v1h-1z" fill="#383838" opacity="0.41"/>
  <path d="M32,20h1v1h-1zM46,25h1v1h-1zM123,26h1v1h-1z" fill="#383838" opacity="0.52"/>
  <path d="M37,20h1v1h-1z" fill="#393939" opacity="0.37"/>
  <path d="M40,20h1v1h-1zM114,20h1v1h-1zM47,27h1v1h-1z" fill="#383838" opacity="0.32"/>
  <path d="M41,20h1v1h-1zM118,20h1v1h-1zM16,23h1v1h-1zM102,29h1v1h-1zM86,31h1v1h-1zM29,33h1v1h-1zM30,33h1v1h-1zM128,33h1v1h-1z" fill="#393839" opacity="0.96"/>
  <path d="M44,20h1v1h-1z" fill="#393939" opacity="0.71"/>
  <path d="M55,20h1v1h-1zM47,29h1v1h-1z" fill="#383838" opacity="0.84"/>
  <path d="M58,20h1v1h-1zM132,28h1v1h-1z" fill="#393939" opacity="0.07"/>
  <path d="M59,20h1v1h-1z" fill="#393739" opacity="0.74"/>
  <path d="M64,20h1v1h-1z" fill="#373737" opacity="0.49"/>
  <path d="M66,20h1v1h-1zM73,20h1v1h-1zM132,29h1v1h-1zM83,35h1v1h-1z" fill="#373737" opacity="0.15"/>
  <path d="M67,20h1v1h-1z" fill="#393639" opacity="0.32"/>
  <path d="M68,20h1v1h-1zM125,21h1v1h-1zM103,25h1v1h-1zM125,35h1v1h-1z" fill="#383838" opacity="0.62"/>
  <path d="M86,20h1v1h-1zM84,25h1v1h-1zM89,30h1v1h-1zM8,32h1v1h-1z" fill="#393739" opacity="0.49"/>
  <path d="M91,20h1v1h-1z" fill="#373737" opacity="0.76"/>
  <path d="M93,20h1v1h-1zM34,35h1v1h-1z" fill="#363636" opacity="0.40"/>
  <path d="M94,20h1v1h-1z" fill="#363636" opacity="0.39"/>
  <path d="M95,20h1v1h-1zM88,24h1v1h-1zM33,30h1v1h-1zM31,32h1v1h-1zM90,35h1v1h-1z" fill="#383638" opacity="0.48"/>
  <path d="M96,20h1v1h-1zM49,35h1v1h-1z" fill="#383838" opacity="0.68"/>
  <path d="M101,20h1v1h-1zM61,29h1v1h-1zM69,32h1v1h-1zM101,32h1v1h-1z" fill="#383738" opacity="0.65"/>
  <path d="M115,20h1v1h-1zM30,24h1v1h-1zM98,31h1v1h-1zM70,32h1v1h-1z" fill="#393839" opacity="0.93"/>
  <path d="M119,20h1v1h-1zM30,32h1v1h-1zM110,35h1v1h-1z" fill="#353535" opacity="0.24"/>
  <path d="M123,20h1v1h-1zM33,21h1v1h-1z" fill="#363636" opacity="0.33"/>
  <path d="M127,20h1v1h-1zM61,23h1v1h-1z" fill="#393739" opacity="0.55"/>
  <path d="M128,20h1v1h-1zM73,21h1v1h-1zM2,31h1v1h-1zM46,35h1v1h-1z" fill="#373737" opacity="0.45"/>
  <path d="M131,20h1v1h-1z" fill="#373737" opacity="0.56"/>
  <path d="M135,20h1v1h-1zM114,21h1v1h-1z" fill="#383838" opacity="0.95"/>
  <path d="M136,20h1v1h-1zM97,21h1v1h-1z" fill="#353535" opacity="0.21"/>
  <path d="M141,20h1v1h-1z" fill="#009bde" opacity="0.18"/>
  <path d="M142,20h1v1h-1z" fill="#009dd9" opacity="0.48"/>
  <path d="M143,20h1v1h-1z" fill="#009ddb" opacity="0.61"/>
  <path d="M144,20h1v1h-1z" fill="#009dd9" opacity="0.87"/>
  <path d="M145,20h1v1h-1zM149,21h1v1h-1z" fill="#009dda" opacity="0.99"/>
  <path d="M151,20h1v1h-1z" fill="#009ad8" opacity="0.34"/>
  <path d="M6,21h1v1h-1zM54,25h1v1h-1zM27,29h1v1h-1zM22,30h1v1h-1zM7,31h1v1h-1zM58,32h1v1h-1zM60,34h1v1h-1zM16,35h1v1h-1zM122,35h1v1h-1z" fill="#373737" opacity="0.05"/>
  <path d="M18,21h1v1h-1z" fill="#383638" opacity="0.63"/>
  <path d="M25,21h1v1h-1z" fill="#383838" opacity="0.60"/>
  <path d="M26,21h1v1h-1zM125,30h1v1h-1zM109,35h1v1h-1z" fill="#383838" opacity="0.70"/>
  <path d="M27,21h1v1h-1zM125,24h1v1h-1zM49,25h1v1h-1z" fill="#333333" opacity="0.10"/>
  <path d="M41,21h1v1h-1zM37,22h1v1h-1z" fill="#393839" opacity="0.87"/>
  <path d="M44,21h1v1h-1zM115,31h1v1h-1z" fill="#383838" opacity="0.86"/>
  <path d="M45,21h1v1h-1zM71,30h1v1h-1z" fill="#373737" opacity="0.11"/>
  <path d="M55,21h1v1h-1z" fill="#353535" opacity="0.30"/>
  <path d="M85,21h1v1h-1z" fill="#363636" opacity="0.22"/>
  <path d="M102,21h1v1h-1z" fill="#383638" opacity="0.52"/>
  <path d="M113,21h1v1h-1z" fill="#171717" opacity="0.04"/>
  <path d="M118,21h1v1h-1z" fill="#393939" opacity="0.21"/>
  <path d="M124,21h1v1h-1zM85,30h1v1h-1z" fill="#383738" opacity="0.71"/>
  <path d="M126,21h1v1h-1z" fill="#3c3c3c" opacity="0.07"/>
  <path d="M132,21h1v1h-1z" fill="#373337" opacity="0.25"/>
  <path d="M144,21h1v1h-1z" fill="#009dd8" opacity="0.05"/>
  <path d="M148,21h1v1h-1z" fill="#009cda" opacity="0.84"/>
  <path d="M151,21h1v1h-1z" fill="#009cda" opacity="0.93"/>
  <path d="M152,21h1v1h-1z" fill="#009dd8" opacity="0.25"/>
  <path d="M45,22h1v1h-1z" fill="#363636" opacity="0.42"/>
  <path d="M51,22h1v1h-1zM50,25h1v1h-1z" fill="#383838" opacity="0.82"/>
  <path d="M58,22h1v1h-1zM115,26h1v1h-1zM5,30h1v1h-1zM81,35h1v1h-1z" fill="#393839" opacity="0.89"/>
  <path d="M61,22h1v1h-1zM71,31h1v1h-1zM82,35h1v1h-1z" fill="#393739" opacity="0.85"/>
  <path d="M62,22h1v1h-1zM6,29h1v1h-1zM101,33h1v1h-1z" fill="#313131" opacity="0.08"/>
  <path d="M89,22h1v1h-1zM90,31h1v1h-1z" fill="#383838" opacity="0.47"/>
  <path d="M112,22h1v1h-1z" fill="#383038" opacity="0.13"/>
  <path d="M124,22h1v1h-1zM91,31h1v1h-1zM59,33h1v1h-1zM78,35h1v1h-1zM132,35h1v1h-1z" fill="#333333" opacity="0.06"/>
  <path d="M132,22h1v1h-1zM33,23h1v1h-1zM16,27h1v1h-1zM53,27h1v1h-1zM16,28h1v1h-1zM16,29h1v1h-1zM16,30h1v1h-1zM16,31h1v1h-1zM16,32h1v1h-1zM16,33h1v1h-1zM16,34h1v1h-1zM100,34h1v1h-1z" fill="#333333" opacity="0.08"/>
  <path d="M149,22h1v1h-1z" fill="#009fdf" opacity="0.06"/>
  <path d="M150,22h1v1h-1z" fill="#009dd8" opacity="0.36"/>
  <path d="M151,22h1v1h-1z" fill="#009dda" opacity="0.67"/>
  <path d="M152,22h1v1h-1z" fill="#009dd9" opacity="0.90"/>
  <path d="M153,22h1v1h-1z" fill="#009cdb" opacity="0.47"/>
  <path d="M154,22h1v1h-1z" fill="#0093d8" opacity="0.10"/>
  <path d="M17,23h1v1h-1zM126,24h1v1h-1zM51,32h1v1h-1z" fill="#373737" opacity="0.24"/>
  <path d="M32,23h1v1h-1zM131,23h1v1h-1zM89,29h1v1h-1zM3,34h1v1h-1z" fill="#363636" opacity="0.07"/>
  <path d="M38,23h1v1h-1zM64,31h1v1h-1z" fill="#2a2a2a" opacity="0.05"/>
  <path d="M45,23h1v1h-1zM43,27h1v1h-1zM81,32h1v1h-1z" fill="#383738" opacity="0.66"/>
  <path d="M50,23h1v1h-1zM130,27h1v1h-1zM99,28h1v1h-1zM25,35h1v1h-1z" fill="#353535" opacity="0.17"/>
  <path d="M54,23h1v1h-1zM127,24h1v1h-1zM6,31h1v1h-1z" fill="#383638" opacity="0.59"/>
  <path d="M57,23h1v1h-1z" fill="#333333" opacity="0.24"/>
  <path d="M84,23h1v1h-1zM16,26h1v1h-1zM57,29h1v1h-1zM128,32h1v1h-1z" fill="#373737" opacity="0.22"/>
  <path d="M103,23h1v1h-1zM30,27h1v1h-1zM44,30h1v1h-1z" fill="#363636" opacity="0.31"/>
  <path d="M112,23h1v1h-1zM73,32h1v1h-1z" fill="#383838" opacity="0.59"/>
  <path d="M116,23h1v1h-1z" fill="#393739" opacity="0.80"/>
  <path d="M117,23h1v1h-1z" fill="#3c2d3c" opacity="0.07"/>
  <path d="M133,23h1v1h-1zM7,32h1v1h-1z" fill="#383738" opacity="0.73"/>
  <path d="M136,23h1v1h-1z" fill="#383838" opacity="0.91"/>
  <path d="M151,23h1v1h-1z" fill="#0099cc" opacity="0.04"/>
  <path d="M152,23h1v1h-1z" fill="#009ad7" opacity="0.23"/>
  <path d="M153,23h1v1h-1z" fill="#009cd8" opacity="0.55"/>
  <path d="M155,23h1v1h-1z" fill="#009cd9" opacity="0.42"/>
  <path d="M26,24h1v1h-1z" fill="#392a39" opacity="0.07"/>
  <path d="M42,24h1v1h-1z" fill="#373737" opacity="0.67"/>
  <path d="M50,24h1v1h-1z" fill="#393839" opacity="0.65"/>
  <path d="M57,24h1v1h-1z" fill="#373537" opacity="0.56"/>
  <path d="M62,24h1v1h-1zM63,24h1v1h-1zM64,24h1v1h-1zM65,24h1v1h-1zM66,24h1v1h-1zM67,24h1v1h-1zM68,24h1v1h-1zM69,24h1v1h-1zM122,30h1v1h-1zM131,32h1v1h-1zM5,34h1v1h-1zM62,34h1v1h-1z" fill="#383738" opacity="0.93"/>
  <path d="M74,24h1v1h-1zM74,25h1v1h-1zM74,26h1v1h-1zM2,32h1v1h-1z" fill="#333333" opacity="0.14"/>
  <path d="M84,24h1v1h-1zM25,25h1v1h-1z" fill="#383638" opacity="0.39"/>
  <path d="M114,24h1v1h-1z" fill="#383838" opacity="1.00"/>
  <path d="M115,24h1v1h-1z" fill="#383838" opacity="0.87"/>
  <path d="M116,24h1v1h-1z" fill="#1a1a1a" opacity="0.04"/>
  <path d="M128,24h1v1h-1zM34,27h1v1h-1zM58,30h1v1h-1zM9,35h1v1h-1zM96,35h1v1h-1z" fill="#383738" opacity="0.85"/>
  <path d="M124,25h1v1h-1zM65,32h1v1h-1z" fill="#383638" opacity="0.44"/>
  <path d="M125,25h1v1h-1z" fill="#393839" opacity="0.83"/>
  <path d="M24,26h1v1h-1zM84,27h1v1h-1zM48,29h1v1h-1z" fill="#383838" opacity="0.48"/>
  <path d="M42,26h1v1h-1z" fill="#2e2e2e" opacity="0.11"/>
  <path d="M49,26h1v1h-1z" fill="#393539" opacity="0.28"/>
  <path d="M53,26h1v1h-1z" fill="#383838" opacity="0.54"/>
  <path d="M100,26h1v1h-1z" fill="#383838" opacity="0.93"/>
  <path d="M103,26h1v1h-1z" fill="#373737" opacity="0.69"/>
  <path d="M31,27h1v1h-1zM88,27h1v1h-1z" fill="#343434" opacity="0.19"/>
  <path d="M32,27h1v1h-1zM33,27h1v1h-1z" fill="#393939" opacity="0.11"/>
  <path d="M49,27h1v1h-1zM6,35h1v1h-1z" fill="#393739" opacity="0.56"/>
  <path d="M62,27h1v1h-1zM63,27h1v1h-1zM64,27h1v1h-1zM65,27h1v1h-1zM66,27h1v1h-1zM67,27h1v1h-1zM68,27h1v1h-1zM69,27h1v1h-1zM70,27h1v1h-1zM71,27h1v1h-1zM72,27h1v1h-1zM73,27h1v1h-1zM24,34h1v1h-1zM131,35h1v1h-1z" fill="#363636" opacity="0.35"/>
  <path d="M103,27h1v1h-1z" fill="#383738" opacity="0.60"/>
  <path d="M111,27h1v1h-1zM10,32h1v1h-1z" fill="#383838" opacity="0.25"/>
  <path d="M112,27h1v1h-1zM136,35h1v1h-1z" fill="#373737" opacity="0.65"/>
  <path d="M116,27h1v1h-1z" fill="#373737" opacity="0.60"/>
  <path d="M122,27h1v1h-1z" fill="#393639" opacity="0.40"/>
  <path d="M126,27h1v1h-1zM49,28h1v1h-1zM46,34h1v1h-1z" fill="#383738" opacity="0.95"/>
  <path d="M128,27h1v1h-1z" fill="#363636" opacity="0.48"/>
  <path d="M129,27h1v1h-1z" fill="#363636" opacity="0.28"/>
  <path d="M131,27h1v1h-1zM83,32h1v1h-1z" fill="#333333" opacity="0.12"/>
  <path d="M132,27h1v1h-1zM44,31h1v1h-1z" fill="#393939" opacity="0.14"/>
  <path d="M133,27h1v1h-1zM26,29h1v1h-1z" fill="#383838" opacity="0.73"/>
  <path d="M23,28h1v1h-1zM120,33h1v1h-1z" fill="#383638" opacity="0.70"/>
  <path d="M47,28h1v1h-1z" fill="#383738" opacity="0.58"/>
  <path d="M52,28h1v1h-1z" fill="#373737" opacity="0.63"/>
  <path d="M57,28h1v1h-1z" fill="#383638" opacity="0.55"/>
  <path d="M84,28h1v1h-1z" fill="#393639" opacity="0.37"/>
  <path d="M103,28h1v1h-1z" fill="#383538" opacity="0.41"/>
  <path d="M112,28h1v1h-1z" fill="#313131" opacity="0.12"/>
  <path d="M117,28h1v1h-1z" fill="#383838" opacity="0.30"/>
  <path d="M122,28h1v1h-1zM122,32h1v1h-1z" fill="#393839" opacity="0.81"/>
  <path d="M33,29h1v1h-1zM23,33h1v1h-1z" fill="#323232" opacity="0.14"/>
  <path d="M84,29h1v1h-1z" fill="#373737" opacity="0.20"/>
  <path d="M88,29h1v1h-1z" fill="#373737" opacity="0.85"/>
  <path d="M103,29h1v1h-1z" fill="#383838" opacity="0.31"/>
  <path d="M125,29h1v1h-1zM89,34h1v1h-1z" fill="#383838" opacity="0.85"/>
  <path d="M6,30h1v1h-1zM121,31h1v1h-1zM50,35h1v1h-1zM89,35h1v1h-1z" fill="#373737" opacity="0.16"/>
  <path d="M48,30h1v1h-1z" fill="#383838" opacity="0.96"/>
  <path d="M52,30h1v1h-1z" fill="#343434" opacity="0.13"/>
  <path d="M72,30h1v1h-1z" fill="#383838" opacity="0.39"/>
  <path d="M80,30h1v1h-1zM7,35h1v1h-1z" fill="#393839" opacity="0.79"/>
  <path d="M103,30h1v1h-1zM33,35h1v1h-1zM106,35h1v1h-1z" fill="#373737" opacity="0.09"/>
  <path d="M114,30h1v1h-1zM23,32h1v1h-1z" fill="#373737" opacity="0.62"/>
  <path d="M118,30h1v1h-1z" fill="#383838" opacity="0.65"/>
  <path d="M27,31h1v1h-1z" fill="#333333" opacity="0.16"/>
  <path d="M70,31h1v1h-1z" fill="#383438" opacity="0.23"/>
  <path d="M77,31h1v1h-1z" fill="#393739" opacity="0.65"/>
  <path d="M85,31h1v1h-1zM83,33h1v1h-1zM83,34h1v1h-1z" fill="#363636" opacity="0.20"/>
  <path d="M102,31h1v1h-1zM92,32h1v1h-1zM123,34h1v1h-1z" fill="#363636" opacity="0.46"/>
  <path d="M114,31h1v1h-1z" fill="#323232" opacity="0.18"/>
  <path d="M131,31h1v1h-1z" fill="#353535" opacity="0.41"/>
  <path d="M27,32h1v1h-1zM91,32h1v1h-1z" fill="#383738" opacity="0.75"/>
  <path d="M28,32h1v1h-1z" fill="#383838" opacity="0.36"/>
  <path d="M29,32h1v1h-1z" fill="#393539" opacity="0.23"/>
  <path d="M45,32h1v1h-1z" fill="#393939" opacity="0.60"/>
  <path d="M59,32h1v1h-1zM96,32h1v1h-1z" fill="#383738" opacity="0.67"/>
  <path d="M82,32h1v1h-1z" fill="#373737" opacity="0.53"/>
  <path d="M95,32h1v1h-1z" fill="#393639" opacity="0.42"/>
  <path d="M126,32h1v1h-1z" fill="#393739" opacity="0.71"/>
  <path d="M129,32h1v1h-1z" fill="#343434" opacity="0.27"/>
  <path d="M3,33h1v1h-1z" fill="#393839" opacity="0.56"/>
  <path d="M73,33h1v1h-1z" fill="#373737" opacity="0.72"/>
  <path d="M77,33h1v1h-1z" fill="#393639" opacity="0.30"/>
  <path d="M100,33h1v1h-1z" fill="#383638" opacity="0.75"/>
  <path d="M116,33h1v1h-1zM34,34h1v1h-1z" fill="#383638" opacity="0.67"/>
  <path d="M4,34h1v1h-1z" fill="#393839" opacity="0.61"/>
  <path d="M50,34h1v1h-1z" fill="#383838" opacity="0.40"/>
  <path d="M61,34h1v1h-1z" fill="#393839" opacity="0.58"/>
  <path d="M71,34h1v1h-1z" fill="#383838" opacity="0.88"/>
  <path d="M77,34h1v1h-1z" fill="#272727" opacity="0.05"/>
  <path d="M78,34h1v1h-1z" fill="#383838" opacity="0.61"/>
  <path d="M88,34h1v1h-1z" fill="#383638" opacity="0.47"/>
  <path d="M98,34h1v1h-1zM27,35h1v1h-1z" fill="#393739" opacity="0.90"/>
  <path d="M132,34h1v1h-1zM133,34h1v1h-1z" fill="#393839" opacity="0.66"/>
  <path d="M12,35h1v1h-1z" fill="#343434" opacity="0.29"/>
  <path d="M13,35h1v1h-1zM14,35h1v1h-1zM15,35h1v1h-1zM35,35h1v1h-1zM36,35h1v1h-1zM47,35h1v1h-1zM48,35h1v1h-1zM107,35h1v1h-1zM108,35h1v1h-1zM118,35h1v1h-1zM119,35h1v1h-1zM120,35h1v1h-1zM134,35h1v1h-1zM135,35h1v1h-1z" fill="#383838" opacity="0.71"/>
  <path d="M26,35h1v1h-1zM63,35h1v1h-1z" fill="#383638" opacity="0.56"/>
  <path d="M37,35h1v1h-1z" fill="#393739" opacity="0.63"/>
  <path d="M62,35h1v1h-1z" fill="#373237" opacity="0.22"/>
  <path d="M80,35h1v1h-1z" fill="#383638" opacity="0.72"/>
  <path d="M91,35h1v1h-1z" fill="#383838" opacity="0.81"/>
  <path d="M97,35h1v1h-1z" fill="#373737" opacity="0.55"/>
  <path d="M98,35h1v1h-1z" fill="#383338" opacity="0.22"/>
  <path d="M117,35h1v1h-1z" fill="#363636" opacity="0.41"/>
  <path d="M121,35h1v1h-1z" fill="#383738" opacity="0.55"/>
  <path d="M130,35h1v1h-1z" fill="#383738" opacity="0.78"/>
  <path d="M133,35h1v1h-1z" fill="#393939" opacity="0.39"/>
</svg>